<?xml version="1.0" standalone="no"?>
<!DOCTYPE svg PUBLIC "-//W3C//DTD SVG 1.1//EN" "http://www.w3.org/Graphics/SVG/1.1/DTD/svg11.dtd" >
<svg xmlns="http://www.w3.org/2000/svg" xmlns:xlink="http://www.w3.org/1999/xlink" version="1.1">
<metadata>
Created by FontForge 20201107 at Thu Aug  2 17:57:34 2012
 By Jimmy Wärting
Copyright (c) 2010-2012 by The Entente (AS&#38;EH). Apercu Pro is a trademark of The Entente (AS&#38;EH). All rights reserved.
</metadata>
<defs>
<font id="ApercuPro-Medium" horiz-adv-x="580" >
  <font-face 
    font-family="Apercu Pro Medium"
    font-weight="500"
    font-stretch="normal"
    units-per-em="1000"
    panose-1="2 0 6 6 4 0 0 2 0 4"
    ascent="800"
    descent="-200"
    x-height="504"
    cap-height="700"
    bbox="-80 -312 1201 1104"
    underline-thickness="50"
    underline-position="-100"
    stemh="92"
    stemv="110"
    unicode-range="U+000D-FB02"
  />
<missing-glyph horiz-adv-x="645" 
d="M94 0v700h457v-700h-457zM447 606h-249v-512h249v512z" />
    <glyph glyph-name="fi" unicode="fi" horiz-adv-x="561" 
d="M38 412v92h65v13c0 136 104 191 212 191c62 0 103 -10 138 -29l-33 -86c-36 17 -64 23 -102 23c-70 0 -111 -41 -111 -99v-13h274v-504h-104v412h-170v-412h-104v412h-65z" />
    <glyph glyph-name="fl" unicode="fl" horiz-adv-x="605" 
d="M38 412v92h65v26c0 123 67 178 169 178h253v-708h-104v616h-146c-46 0 -68 -27 -68 -79v-33h111v-92h-111v-412h-104v412h-65z" />
    <glyph glyph-name=".notdef" horiz-adv-x="645" 
d="M94 0v700h457v-700h-457zM447 606h-249v-512h249v512z" />
    <glyph glyph-name="NULL" horiz-adv-x="0" 
 />
    <glyph glyph-name="NULL" horiz-adv-x="0" 
 />
    <glyph glyph-name="CR" unicode="&#xd;" horiz-adv-x="258" 
 />
    <glyph glyph-name="space" unicode=" " horiz-adv-x="258" 
 />
    <glyph glyph-name="numbersign" unicode="#" horiz-adv-x="726" 
d="M108 417v82h135l41 201h88l-41 -201h125l41 201h88l-41 -201h114v-82h-131l-27 -134h118v-82h-135l-41 -201h-88l41 201h-125l-41 -201h-88l41 201h-114v82h131l27 134h-118zM314 417l-27 -134h125l27 134h-125z" />
    <glyph glyph-name="dollar" unicode="$" horiz-adv-x="536" 
d="M460 590l-89 -59c-28 53 -63 77 -104 77c-45 0 -73 -35 -73 -76c0 -138 300 -111 300 -327c0 -111 -70 -190 -170 -208v-87h-100v87c-95 19 -159 94 -180 190l90 57c20 -78 61 -148 141 -148c63 0 107 43 107 105c0 137 -298 107 -298 323c0 90 59 161 140 179v87h100
v-89c63 -16 107 -59 136 -111z" />
    <glyph glyph-name="percent" unicode="%" horiz-adv-x="840" 
d="M55 548c0 89 71 160 162 160s162 -71 162 -160s-71 -160 -162 -160s-162 71 -162 160zM143 548c0 -44 28 -77 74 -77s74 33 74 77s-28 77 -74 77s-74 -33 -74 -77zM461 152c0 89 71 160 162 160s162 -71 162 -160s-71 -160 -162 -160s-162 71 -162 160zM549 152
c0 -44 28 -77 74 -77s74 33 74 77s-28 77 -74 77s-74 -33 -74 -77zM667 733l58 -45l-539 -720l-58 45z" />
    <glyph glyph-name="ampersand" unicode="&#x26;" horiz-adv-x="683" 
d="M144 559c0 80 64 149 159 149c103 0 159 -72 159 -140c0 -90 -56 -142 -123 -177l128 -167c20 32 28 60 47 115l63 -71c-13 -46 -31 -86 -52 -120l112 -148h-117l-52 71c-43 -50 -123 -79 -188 -79c-122 0 -212 82 -212 211c0 115 62 181 129 220c-25 34 -53 76 -53 136z
M412 143l-157 205c-46 -27 -87 -79 -87 -150c0 -69 49 -110 111 -110c52 0 101 19 133 55zM303 616c-39 0 -61 -27 -61 -61c0 -35 10 -60 37 -95c43 20 85 48 85 100c0 36 -24 56 -61 56z" />
    <glyph glyph-name="quotesingle" unicode="'" horiz-adv-x="298" 
d="M114 469l-30 239h130l-30 -239h-70z" />
    <glyph glyph-name="parenleft" unicode="(" horiz-adv-x="304" 
d="M173 750h104c-70 -108 -106 -219 -106 -400s36 -292 106 -400h-104c-57 96 -106 204 -106 400s49 304 106 400z" />
    <glyph glyph-name="parenright" unicode=")" horiz-adv-x="304" 
d="M27 750h104c57 -96 106 -204 106 -400s-49 -304 -106 -400h-104c70 108 106 219 106 400s-36 292 -106 400z" />
    <glyph glyph-name="asterisk" unicode="*" horiz-adv-x="484" 
d="M286 708v-124l119 39l25 -85l-118 -39l74 -101l-69 -51l-75 100l-75 -100l-69 51l74 101l-118 39l25 85l119 -39v124h88z" />
    <glyph glyph-name="plus" unicode="+" horiz-adv-x="564" 
d="M236 539h92v-176h177v-92h-177v-177h-92v177h-176v92h176v176z" />
    <glyph glyph-name="comma" unicode="," horiz-adv-x="343" 
d="M62 -132l71 260h143l-136 -260h-78z" />
    <glyph glyph-name="hyphen" unicode="-" horiz-adv-x="489" 
d="M68 271v92h353v-92h-353z" />
    <glyph glyph-name="period" unicode="." horiz-adv-x="318" 
d="M159 143c41 0 74 -32 74 -74s-33 -74 -74 -74s-74 32 -74 74s33 74 74 74z" />
    <glyph glyph-name="slash" unicode="/" horiz-adv-x="547" 
d="M449 750h103l-436 -800h-103z" />
    <glyph glyph-name="zero" unicode="0" horiz-adv-x="632" 
d="M316 708c165 0 252 -137 252 -358s-87 -358 -252 -358s-252 137 -252 358s87 358 252 358zM316 612c-99 0 -146 -98 -146 -262s47 -262 146 -262s146 98 146 262s-47 262 -146 262z" />
    <glyph glyph-name="one" unicode="1" horiz-adv-x="396" 
d="M265 700h43v-700h-106v550l-131 -78v112z" />
    <glyph glyph-name="two" unicode="2" horiz-adv-x="575" 
d="M68 0v44l258 331c45 57 56 88 56 130c0 64 -32 107 -96 107c-61 0 -96 -44 -104 -107l-100 19c7 104 91 184 204 184c118 0 203 -74 203 -199c0 -54 -18 -109 -58 -160l-199 -253h270v-96h-434z" />
    <glyph glyph-name="three" unicode="3" 
d="M59 193l103 13c12 -74 53 -118 126 -118c72 0 125 47 125 135c0 91 -54 137 -125 137c-21 0 -39 -4 -61 -14l-42 56l145 202h-237v96h390v-36l-170 -232c8 2 20 3 29 3c108 0 177 -90 177 -212c0 -134 -102 -231 -231 -231c-120 0 -221 84 -229 201z" />
    <glyph glyph-name="four" unicode="4" horiz-adv-x="609" 
d="M363 0v140h-302v48l296 512h112v-464h82v-96h-82v-140h-106zM193 236h170v304z" />
    <glyph glyph-name="five" unicode="5" horiz-adv-x="579" 
d="M75 183l103 19c12 -83 59 -114 115 -114c76 0 117 57 117 140c0 82 -38 140 -117 140c-53 0 -101 -28 -134 -72l-69 14l39 390h348v-96h-259l-21 -175c24 20 64 35 102 35c141 0 217 -101 217 -236c0 -136 -85 -236 -223 -236c-116 0 -204 69 -218 191z" />
    <glyph glyph-name="six" unicode="6" horiz-adv-x="578" 
d="M303 448c129 0 218 -96 218 -228c0 -128 -94 -228 -224 -228s-224 100 -224 228c0 47 13 90 34 127l208 361h118l-153 -264c6 3 16 4 23 4zM297 352c-70 0 -118 -50 -118 -132c0 -77 49 -132 118 -132c70 0 118 55 118 132c0 82 -48 132 -118 132z" />
    <glyph glyph-name="seven" unicode="7" horiz-adv-x="492" 
d="M466 700v-48l-268 -652h-106l249 604h-289v96h414z" />
    <glyph glyph-name="eight" unicode="8" horiz-adv-x="592" 
d="M296 708c117 0 198 -85 198 -189c0 -58 -28 -108 -70 -142c57 -33 96 -91 96 -171c0 -135 -104 -214 -224 -214s-224 79 -224 214c0 80 39 138 96 171c-43 34 -70 84 -70 142c0 104 81 189 198 189zM296 320c-65 0 -118 -40 -118 -114s53 -118 118 -118s118 44 118 118
s-53 114 -118 114zM296 616c-55 0 -95 -42 -95 -98c0 -57 40 -99 95 -99s95 42 95 99c0 56 -40 98 -95 98z" />
    <glyph glyph-name="nine" unicode="9" horiz-adv-x="579" 
d="M292 252c-129 0 -218 96 -218 228c0 128 94 228 224 228s224 -100 224 -228c0 -47 -13 -90 -34 -127l-208 -361h-118l153 264c-6 -3 -16 -4 -23 -4zM298 348c70 0 118 50 118 132c0 77 -49 132 -118 132c-70 0 -118 -55 -118 -132c0 -82 48 -132 118 -132z" />
    <glyph glyph-name="colon" unicode=":" horiz-adv-x="318" 
d="M159 143c41 0 74 -32 74 -74s-33 -74 -74 -74s-74 32 -74 74s33 74 74 74zM159 466c41 0 74 -32 74 -74s-33 -74 -74 -74s-74 32 -74 74s33 74 74 74z" />
    <glyph glyph-name="semicolon" unicode=";" horiz-adv-x="318" 
d="M159 466c41 0 74 -32 74 -74s-33 -74 -74 -74s-74 32 -74 74s33 74 74 74zM32 -132l71 260h143l-136 -260h-78z" />
    <glyph glyph-name="less" unicode="&#x3c;" horiz-adv-x="465" 
d="M48 258v104l364 192v-111l-254 -133l254 -133v-111z" />
    <glyph glyph-name="equal" unicode="=" horiz-adv-x="605" 
d="M95 347v92h415v-92h-415zM95 181v92h415v-92h-415z" />
    <glyph glyph-name="greater" unicode="&#x3e;" horiz-adv-x="465" 
d="M417 362v-104l-364 -192v111l254 133l-254 133v111z" />
    <glyph glyph-name="question" unicode="?" horiz-adv-x="456" 
d="M369 312c-21 -69 -69 -105 -139 -105c-80 0 -136 47 -136 124c0 63 37 101 85 123l83 38c36 17 49 36 49 70c0 37 -33 61 -73 61c-51 0 -83 -29 -98 -82l-95 16c15 86 82 151 187 151c101 0 179 -56 179 -154c0 -58 -24 -93 -71 -116l-113 -55c-29 -14 -42 -31 -42 -56
s17 -41 43 -41c33 0 48 24 60 57zM154 71c0 43 32 75 76 75s76 -32 76 -75s-32 -75 -76 -75s-76 32 -76 75z" />
    <glyph glyph-name="at" unicode="@" horiz-adv-x="910" 
d="M585 509h76l-24 -253c-1 -8 -1 -17 -1 -17c0 -27 16 -39 39 -39c58 0 75 68 75 152c0 198 -103 274 -276 274c-151 0 -299 -105 -299 -328c0 -203 148 -300 298 -300c70 0 136 0 241 53l35 -85c-103 -46 -155 -60 -276 -60c-237 0 -403 150 -403 395
c0 257 172 417 409 417c240 0 371 -137 371 -366c0 -159 -72 -244 -179 -244c-50 0 -96 26 -113 67c-30 -46 -76 -67 -130 -67c-115 0 -175 84 -175 187c0 125 86 221 213 221c52 0 87 -18 108 -50zM459 424c-66 0 -108 -53 -108 -132c0 -51 29 -92 84 -92
c84 0 113 70 113 132c0 61 -36 92 -89 92z" />
    <glyph glyph-name="A" unicode="A" horiz-adv-x="608" 
d="M252 700h104l243 -700h-112l-58 174h-250l-58 -174h-112zM304 561l-92 -283h184z" />
    <glyph glyph-name="B" unicode="B" horiz-adv-x="623" 
d="M94 700h248c116 0 196 -62 196 -183c0 -54 -30 -113 -71 -135c66 -28 107 -95 107 -176c0 -131 -82 -206 -220 -206h-260v700zM332 596h-128v-172h128c62 0 96 29 96 86s-34 86 -96 86zM339 320h-135v-216h135c81 0 123 38 123 108s-42 108 -123 108z" />
    <glyph glyph-name="C" unicode="C" horiz-adv-x="695" 
d="M658 496l-104 -26c-35 89 -84 134 -179 134c-118 0 -212 -83 -212 -254s94 -254 212 -254c95 0 144 45 179 134l104 -26c-36 -132 -134 -212 -283 -212c-169 0 -324 121 -324 358s155 358 324 358c149 0 247 -80 283 -212z" />
    <glyph glyph-name="D" unicode="D" horiz-adv-x="673" 
d="M94 700h206c168 0 322 -114 322 -350s-154 -350 -322 -350h-206v700zM268 596h-64v-492h64c122 0 242 55 242 246s-120 246 -242 246z" />
    <glyph glyph-name="E" unicode="E" horiz-adv-x="568" 
d="M94 700h415v-104h-305v-172h246v-104h-246v-216h315v-104h-425v700z" />
    <glyph glyph-name="F" unicode="F" horiz-adv-x="549" 
d="M94 700h424v-104h-314v-181h253v-104h-253v-311h-110v700z" />
    <glyph glyph-name="G" unicode="G" horiz-adv-x="720" 
d="M561 0l-8 87c-25 -43 -85 -95 -184 -95c-164 0 -318 112 -318 358s156 358 324 358c150 0 251 -90 279 -216l-101 -31c-34 97 -95 143 -178 143c-120 0 -212 -84 -212 -254c0 -175 92 -254 212 -254c110 0 163 75 172 160h-136v97h246v-353h-96z" />
    <glyph glyph-name="H" unicode="H" horiz-adv-x="692" 
d="M94 0v700h110v-274h284v274h110v-700h-110v322h-284v-322h-110z" />
    <glyph glyph-name="I" unicode="I" horiz-adv-x="298" 
d="M94 0v700h110v-700h-110z" />
    <glyph glyph-name="J" unicode="J" horiz-adv-x="512" 
d="M324 222v478h110v-473c0 -169 -98 -235 -214 -235c-125 0 -199 84 -214 184l111 23c12 -64 47 -103 103 -103c63 0 104 30 104 126z" />
    <glyph glyph-name="K" unicode="K" horiz-adv-x="621" 
d="M94 700h110v-269l250 269h134l-282 -313l305 -387h-141l-266 343v-343h-110v700z" />
    <glyph glyph-name="L" unicode="L" horiz-adv-x="522" 
d="M94 700h110v-596h302v-104h-412v700z" />
    <glyph glyph-name="M" unicode="M" horiz-adv-x="796" 
d="M94 0v700h130l174 -466l174 466h130v-700h-110v472l-155 -408h-78l-155 408v-472h-110z" />
    <glyph glyph-name="N" unicode="N" horiz-adv-x="703" 
d="M499 700h110v-700h-118l-287 502v-502h-110v700h118l287 -504v504z" />
    <glyph glyph-name="O" unicode="O" horiz-adv-x="744" 
d="M372 708c171 0 321 -119 321 -358s-150 -358 -321 -358s-321 119 -321 358s150 358 321 358zM372 604c-113 0 -209 -81 -209 -254s96 -254 209 -254s209 81 209 254s-96 254 -209 254z" />
    <glyph glyph-name="P" unicode="P" horiz-adv-x="589" 
d="M345 286h-141v-286h-110v700h251c139 0 217 -89 217 -207s-78 -207 -217 -207zM350 390c63 0 100 38 100 103s-37 103 -100 103h-146v-206h146z" />
    <glyph glyph-name="Q" unicode="Q" horiz-adv-x="744" 
d="M372 708c171 0 321 -119 321 -358c0 -88 -20 -159 -54 -215l70 -69l-74 -74l-66 65c-55 -43 -124 -65 -197 -65c-171 0 -321 119 -321 358s150 358 321 358zM407 219l74 74l75 -76c16 36 25 80 25 133c0 173 -96 254 -209 254s-209 -81 -209 -254s96 -254 209 -254
c44 0 86 12 120 38z" />
    <glyph glyph-name="R" unicode="R" horiz-adv-x="649" 
d="M546 507c0 -96 -49 -162 -136 -185l202 -322h-130l-197 314h-81v-314h-110v700h245c132 0 207 -74 207 -193zM342 418c53 0 92 27 92 89s-39 89 -92 89h-138v-178h138z" />
    <glyph glyph-name="S" unicode="S" horiz-adv-x="530" 
d="M454 590l-89 -59c-28 53 -63 77 -104 77c-45 0 -73 -35 -73 -76c0 -138 300 -111 300 -327c0 -128 -93 -213 -219 -213c-123 0 -206 83 -231 195l90 57c20 -78 61 -148 141 -148c63 0 107 43 107 105c0 137 -298 107 -298 323c0 106 81 184 183 184
c96 0 156 -52 193 -118z" />
    <glyph glyph-name="T" unicode="T" horiz-adv-x="524" 
d="M11 596v104h502v-104h-196v-596h-110v596h-196z" />
    <glyph glyph-name="U" unicode="U" horiz-adv-x="654" 
d="M75 252v448h110v-453c0 -95 48 -151 142 -151s142 56 142 151v453h110v-448c0 -169 -109 -260 -252 -260s-252 92 -252 260z" />
    <glyph glyph-name="V" unicode="V" horiz-adv-x="598" 
d="M354 0h-110l-239 700h118l176 -546l176 546h118z" />
    <glyph glyph-name="W" unicode="W" horiz-adv-x="912" 
d="M773 700h116l-185 -700h-112l-136 444l-136 -444h-112l-185 700h116l128 -544l139 470h100l139 -470z" />
    <glyph glyph-name="X" unicode="X" 
d="M414 700h123l-185 -324l216 -376h-125l-153 267l-153 -267h-125l216 376l-185 324h123l124 -216z" />
    <glyph glyph-name="Y" unicode="Y" horiz-adv-x="514" 
d="M2 700h117l138 -291l138 291h117l-200 -400v-300h-110v300z" />
    <glyph glyph-name="Z" unicode="Z" horiz-adv-x="558" 
d="M53 596v104h452v-54l-315 -542h328v-104h-480v54l319 542h-304z" />
    <glyph glyph-name="bracketleft" unicode="[" horiz-adv-x="338" 
d="M94 -50v800h208v-94h-108v-612h108v-94h-208z" />
    <glyph glyph-name="backslash" unicode="\" horiz-adv-x="547" 
d="M-5 750h103l436 -800h-103z" />
    <glyph glyph-name="bracketright" unicode="]" horiz-adv-x="338" 
d="M244 750v-800h-208v94h108v612h-108v94h208z" />
    <glyph glyph-name="asciicircum" unicode="^" horiz-adv-x="578" 
d="M245 700h88l191 -287h-103l-132 195l-132 -195h-103z" />
    <glyph glyph-name="underscore" unicode="_" horiz-adv-x="499" 
d="M27 -92v92h445v-92h-445z" />
    <glyph glyph-name="grave" unicode="`" horiz-adv-x="242" 
d="M157 708l68 -148h-80l-129 148h141z" />
    <glyph glyph-name="a" unicode="a" horiz-adv-x="514" 
d="M44 145c0 104 89 165 218 165h87v22c0 63 -45 88 -98 88c-41 0 -77 -22 -94 -67l-95 20c21 85 93 139 190 139c117 0 201 -51 201 -199v-313h-88l-10 66c-33 -46 -85 -74 -156 -74c-84 0 -155 48 -155 153zM154 145c0 -34 19 -61 63 -61c64 0 132 41 132 128v11h-91
c-64 0 -104 -30 -104 -78z" />
    <glyph glyph-name="b" unicode="b" horiz-adv-x="601" 
d="M552 252c0 -161 -76 -260 -225 -260c-66 0 -120 37 -137 66v-58h-104v708h104v-260c23 33 85 64 135 64c151 0 227 -104 227 -260zM442 252c0 104 -54 168 -129 168s-129 -64 -129 -168s54 -168 129 -168s129 64 129 168z" />
    <glyph glyph-name="c" unicode="c" horiz-adv-x="542" 
d="M411 171l93 -40c-40 -91 -111 -139 -218 -139c-160 0 -237 122 -237 260s77 260 237 260c107 0 178 -48 218 -139l-93 -40c-24 54 -65 87 -125 87c-89 0 -127 -73 -127 -168s38 -168 127 -168c60 0 101 33 125 87z" />
    <glyph glyph-name="d" unicode="d" horiz-adv-x="601" 
d="M49 252c0 156 76 260 227 260c50 0 112 -31 135 -64v260h104v-708h-104v58c-17 -29 -71 -66 -137 -66c-149 0 -225 99 -225 260zM159 252c0 -104 54 -168 129 -168s129 64 129 168s-54 168 -129 168s-129 -64 -129 -168z" />
    <glyph glyph-name="e" unicode="e" horiz-adv-x="559" 
d="M284 420c-69 0 -112 -47 -123 -110h245c-9 56 -47 110 -122 110zM516 268v-45h-357c0 -74 43 -139 125 -139c54 0 106 30 132 85l89 -35c-49 -95 -106 -142 -221 -142c-166 0 -235 140 -235 260s69 260 235 260c161 0 232 -131 232 -244z" />
    <glyph glyph-name="f" unicode="f" horiz-adv-x="362" 
d="M38 412v92h65v26c0 123 67 178 169 178c34 0 64 -8 83 -18l-21 -88c-21 11 -40 14 -59 14c-46 0 -68 -27 -68 -79v-33h111v-92h-111v-412h-104v412h-65z" />
    <glyph glyph-name="g" unicode="g" horiz-adv-x="511" 
d="M87 343c0 105 78 169 180 169c34 0 65 -8 92 -22l93 50l42 -75l-68 -38c14 -24 22 -52 22 -84c0 -106 -79 -169 -181 -169c-30 0 -58 6 -81 15c-18 -10 -27 -25 -27 -44c0 -27 17 -39 52 -39h111c99 0 167 -49 167 -144c0 -125 -108 -174 -221 -174
c-127 0 -222 56 -222 166c0 43 17 78 43 102c-18 18 -29 44 -29 79c0 45 24 81 61 102c-22 27 -34 63 -34 106zM300 18h-81c-18 0 -35 1 -51 3c-15 -16 -22 -35 -22 -61c0 -50 45 -82 122 -82c72 0 115 27 115 76c0 48 -34 64 -83 64zM188 343c0 -50 33 -82 79 -82
c47 0 80 32 80 82s-33 82 -80 82c-46 0 -79 -32 -79 -82z" />
    <glyph glyph-name="h" unicode="h" horiz-adv-x="588" 
d="M86 708h104v-290c36 52 94 94 170 94c93 0 149 -50 149 -157v-355h-104v328c0 77 -32 92 -79 92c-57 0 -136 -73 -136 -207v-213h-104v708z" />
    <glyph glyph-name="i" unicode="i" horiz-adv-x="266" 
d="M61 646c0 40 31 73 72 73s72 -33 72 -73s-31 -71 -72 -71s-72 31 -72 71zM81 504h104v-504h-104v504z" />
    <glyph glyph-name="j" unicode="j" horiz-adv-x="266" 
d="M61 646c0 40 31 73 72 73s72 -33 72 -73s-31 -71 -72 -71s-72 31 -72 71zM1 -212l-26 91c66 20 106 53 106 134v491h104v-481c0 -137 -65 -208 -184 -235z" />
    <glyph glyph-name="k" unicode="k" horiz-adv-x="525" 
d="M86 708h104v-405l182 201h132l-211 -232l224 -272h-132l-195 241v-241h-104v708z" />
    <glyph glyph-name="l" unicode="l" horiz-adv-x="271" 
d="M84 708h104v-708h-104v708z" />
    <glyph glyph-name="m" unicode="m" horiz-adv-x="861" 
d="M86 504h104v-86c41 63 91 94 152 94c68 0 124 -41 139 -104c35 66 92 104 157 104c92 0 144 -63 144 -151v-361h-104v338c0 55 -30 82 -74 82c-62 0 -118 -79 -118 -218v-202h-104v338c0 55 -30 82 -74 82c-63 0 -118 -79 -118 -229v-191h-104v504z" />
    <glyph glyph-name="n" unicode="n" 
d="M86 504h104v-86c36 60 96 94 163 94c88 0 148 -53 148 -151v-361h-104v328c0 68 -31 92 -78 92c-65 0 -129 -77 -129 -216v-204h-104v504z" />
    <glyph glyph-name="o" unicode="o" horiz-adv-x="594" 
d="M49 252c0 142 92 260 248 260s248 -118 248 -260s-92 -260 -248 -260s-248 118 -248 260zM159 252c0 -85 47 -168 138 -168s138 83 138 168s-47 168 -138 168s-138 -83 -138 -168z" />
    <glyph glyph-name="p" unicode="p" horiz-adv-x="601" 
d="M552 252c0 -156 -76 -260 -227 -260c-62 0 -112 31 -135 64v-260h-104v708h104v-58c17 29 71 66 137 66c149 0 225 -99 225 -260zM442 252c0 104 -54 168 -129 168s-129 -64 -129 -168s54 -168 129 -168s129 64 129 168z" />
    <glyph glyph-name="q" unicode="q" horiz-adv-x="601" 
d="M49 252c0 161 76 260 225 260c66 0 120 -37 137 -66v58h104v-708h-104v260c-23 -33 -85 -64 -135 -64c-151 0 -227 104 -227 260zM159 252c0 -104 54 -168 129 -168s129 64 129 168s-54 168 -129 168s-129 -64 -129 -168z" />
    <glyph glyph-name="r" unicode="r" horiz-adv-x="417" 
d="M190 0h-104v504h104v-84c35 60 95 92 149 92c27 0 49 -6 64 -12l-18 -95c-16 10 -38 15 -59 15c-67 0 -136 -74 -136 -233v-187z" />
    <glyph glyph-name="s" unicode="s" horiz-adv-x="450" 
d="M234 512c61 0 117 -30 149 -80l-66 -58c-25 32 -56 46 -88 46c-26 0 -50 -17 -50 -50c0 -36 38 -52 90 -72c68 -26 141 -56 141 -146c0 -87 -67 -160 -175 -160c-104 0 -169 72 -195 135l88 48c20 -45 55 -91 111 -91c40 0 68 20 68 66c0 44 -61 56 -120 81
c-58 24 -108 61 -108 138c0 78 64 143 155 143z" />
    <glyph glyph-name="t" unicode="t" horiz-adv-x="385" 
d="M21 412v92h84v139l104 65v-204h131v-92h-131v-246c0 -57 21 -82 67 -82c18 0 30 3 48 14l27 -88c-27 -13 -53 -18 -81 -18c-95 0 -165 56 -165 180v240h-84z" />
    <glyph glyph-name="u" unicode="u" 
d="M494 0h-104v86c-36 -60 -96 -94 -163 -94c-88 0 -148 53 -148 151v361h104v-328c0 -68 31 -92 78 -92c65 0 129 77 129 216v204h104v-504z" />
    <glyph glyph-name="v" unicode="v" horiz-adv-x="456" 
d="M12 504h106l110 -362l110 362h106l-167 -504h-98z" />
    <glyph glyph-name="w" unicode="w" horiz-adv-x="754" 
d="M613 504h110l-160 -504h-95l-91 356l-91 -356h-95l-160 504h110l97 -368l89 368h100l89 -368z" />
    <glyph glyph-name="x" unicode="x" horiz-adv-x="470" 
d="M327 504h112l-148 -238l166 -266h-112l-110 176l-110 -176h-112l166 266l-148 238h112l92 -148z" />
    <glyph glyph-name="y" unicode="y" horiz-adv-x="469" 
d="M8 504h110l119 -339l115 339h110l-255 -708h-104l82 229z" />
    <glyph glyph-name="z" unicode="z" horiz-adv-x="461" 
d="M61 412v92h347v-42l-227 -370h238v-92h-373v42l227 370h-212z" />
    <glyph glyph-name="braceleft" unicode="{" horiz-adv-x="332" 
d="M142 46v181c0 60 -16 76 -83 76v94c67 0 83 16 83 76v181c0 55 39 96 99 96h66v-94h-25c-29 0 -40 -11 -40 -42v-165c0 -75 -37 -93 -73 -99c36 -6 73 -24 73 -99v-165c0 -31 11 -42 40 -42h25v-94h-66c-60 0 -99 41 -99 96z" />
    <glyph glyph-name="bar" unicode="|" horiz-adv-x="288" 
d="M94 750h100v-800h-100v800z" />
    <glyph glyph-name="braceright" unicode="}" horiz-adv-x="332" 
d="M190 227v-181c0 -55 -39 -96 -99 -96h-66v94h25c29 0 40 11 40 42v165c0 75 37 93 73 99c-36 6 -73 24 -73 99v165c0 31 -11 42 -40 42h-25v94h66c60 0 99 -41 99 -96v-181c0 -60 16 -76 83 -76v-94c-67 0 -83 -16 -83 -76z" />
    <glyph glyph-name="asciitilde" unicode="~" horiz-adv-x="642" 
d="M133 257l-56 60c24 54 81 101 142 101c85 0 129 -52 198 -52c35 0 69 19 92 47l56 -60c-24 -54 -81 -101 -142 -101c-85 0 -128 52 -198 52c-35 0 -69 -19 -92 -47z" />
    <glyph glyph-name="exclamdown" unicode="&#xa1;" horiz-adv-x="351" 
d="M244 -204h-142l27 479h88zM97 425c0 43 32 75 76 75s76 -32 76 -75s-32 -75 -76 -75s-76 32 -76 75z" />
    <glyph glyph-name="cent" unicode="&#xa2;" horiz-adv-x="569" 
d="M419 270l93 -40c-34 -76 -90 -123 -170 -135v-144h-100v145c-125 23 -185 133 -185 255s60 232 185 255v145h100v-144c80 -12 136 -59 170 -135l-93 -40c-24 54 -65 87 -125 87c-89 0 -127 -73 -127 -168s38 -168 127 -168c60 0 101 33 125 87z" />
    <glyph glyph-name="sterling" unicode="&#xa3;" horiz-adv-x="547" 
d="M62 314v100h48c-7 25 -14 58 -14 90c0 121 80 204 200 204c97 0 170 -49 201 -138l-87 -41c-26 60 -65 79 -114 79c-51 0 -96 -30 -96 -105c0 -39 4 -66 10 -89h163v-100h-133c3 -15 5 -31 5 -50c0 -80 -39 -132 -82 -169c29 19 64 32 90 32c55 0 70 -35 115 -35
c27 0 52 10 80 57l79 -44c-42 -78 -87 -113 -155 -113c-79 0 -104 35 -154 35c-40 0 -74 -9 -115 -35l-62 69c67 63 110 115 110 187c0 25 -3 46 -9 66h-80z" />
    <glyph glyph-name="currency" unicode="&#xa4;" horiz-adv-x="562" 
d="M451 199l88 -67l-83 -83l-67 87c-30 -20 -67 -31 -108 -31s-78 11 -108 31l-67 -87l-83 83l88 67c-19 31 -30 68 -30 108s11 77 30 108l-88 67l83 83l67 -87c30 20 67 31 108 31s78 -11 108 -31l67 87l83 -83l-88 -67c19 -31 30 -68 30 -108s-11 -77 -30 -108zM378 307
c0 62 -38 105 -97 105s-97 -43 -97 -105s38 -105 97 -105s97 43 97 105z" />
    <glyph glyph-name="yen" unicode="&#xa5;" horiz-adv-x="518" 
d="M10 700h117l132 -290l132 290h117l-149 -308h105v-92h-150v-67h150v-92h-150v-141h-110v141h-150v92h150v67h-150v92h105z" />
    <glyph glyph-name="brokenbar" unicode="&#xa6;" horiz-adv-x="288" 
d="M94 299h100v-349h-100v349zM194 401h-100v349h100v-349z" />
    <glyph glyph-name="section" unicode="&#xa7;" horiz-adv-x="533" 
d="M482 222c0 -64 -23 -105 -64 -136c26 -36 32 -75 32 -107c0 -121 -84 -191 -177 -191c-103 0 -170 53 -195 149l95 32c20 -59 54 -81 100 -81c40 0 77 28 77 87c0 82 -78 94 -185 151c-54 29 -102 76 -102 148c0 64 23 105 64 136c-26 36 -32 75 -32 107
c0 121 84 191 177 191c103 0 170 -53 195 -149l-95 -32c-20 59 -54 81 -100 81c-40 0 -77 -28 -77 -87c0 -82 78 -94 185 -151c54 -29 102 -76 102 -148zM389 213c0 71 -105 93 -193 140c-25 -16 -40 -38 -40 -70c0 -72 105 -93 193 -140c25 16 40 38 40 70z" />
    <glyph glyph-name="dieresis" unicode="&#xa8;" horiz-adv-x="347" 
d="M18 651c0 36 27 63 63 63s63 -27 63 -63s-27 -63 -63 -63s-63 27 -63 63zM204 651c0 36 27 63 63 63s63 -27 63 -63s-27 -63 -63 -63s-63 27 -63 63z" />
    <glyph glyph-name="copyright" unicode="&#xa9;" horiz-adv-x="896" 
d="M65 350c0 222 165 390 383 390s383 -168 383 -390s-165 -390 -383 -390s-383 168 -383 390zM161 350c0 -169 116 -298 287 -298s287 129 287 298s-116 298 -287 298s-287 -129 -287 -298zM541 288l85 -19c-14 -87 -90 -135 -178 -135c-100 0 -199 70 -199 216
s99 216 199 216c88 0 164 -48 178 -135l-85 -19c-17 52 -51 70 -93 70c-60 0 -105 -46 -105 -132s45 -132 105 -132c42 0 76 18 93 70z" />
    <glyph glyph-name="ordfeminine" unicode="&#xaa;" horiz-adv-x="443" 
d="M60 416c0 82 70 130 171 130h68v17c0 51 -37 69 -79 69c-32 0 -63 -15 -75 -52l-69 15c14 67 67 109 144 109c92 0 161 -40 161 -156v-248h-68l-9 54c-26 -36 -67 -58 -122 -58c-66 0 -122 38 -122 120zM146 416c0 -27 15 -48 50 -48c50 0 103 32 103 101v11h-71
c-50 0 -82 -26 -82 -64z" />
    <glyph glyph-name="guillemotleft" unicode="&#xab;" horiz-adv-x="662" 
d="M46 274v72l293 206v-107l-189 -135l189 -135v-107zM316 274v72l293 206v-107l-189 -135l189 -135v-107z" />
    <glyph glyph-name="logicalnot" unicode="&#xac;" horiz-adv-x="588" 
d="M65 305v92h449v-255h-104v163h-345z" />
    <glyph glyph-name="registered" unicode="&#xae;" horiz-adv-x="896" 
d="M65 350c0 222 165 390 383 390s383 -168 383 -390s-165 -390 -383 -390s-383 168 -383 390zM161 350c0 -169 116 -298 287 -298s287 129 287 298s-116 298 -287 298s-287 -129 -287 -298zM536 137l-122 182h-25v-182h-86v426h158c89 0 138 -44 138 -122
c0 -68 -38 -107 -92 -118l127 -186h-98zM460 483h-71v-84h71c44 0 54 20 54 42c0 23 -10 42 -54 42z" />
    <glyph glyph-name="macron" unicode="&#xaf;" horiz-adv-x="279" 
d="M11 608v92h257v-92h-257z" />
    <glyph glyph-name="degree" unicode="&#xb0;" horiz-adv-x="354" 
d="M63 593c0 64 47 111 114 111s114 -47 114 -111s-47 -111 -114 -111s-114 47 -114 111zM136 593c0 -25 15 -42 41 -42s41 17 41 42s-15 42 -41 42s-41 -17 -41 -42z" />
    <glyph glyph-name="plusminus" unicode="&#xb1;" horiz-adv-x="566" 
d="M237 621h92v-176h177v-92h-177v-177h-92v177h-176v92h176v176zM61 0v92h445v-92h-445z" />
    <glyph glyph-name="twosuperior" unicode="&#xb2;" horiz-adv-x="381" 
d="M58 300v30l151 186c20 25 25 44 25 67c0 31 -19 49 -45 49s-50 -15 -54 -60l-73 20c7 65 59 112 127 112c76 0 125 -45 125 -119c0 -40 -15 -72 -39 -101l-92 -112h139v-72h-264z" />
    <glyph glyph-name="threesuperior" unicode="&#xb3;" horiz-adv-x="388" 
d="M58 417l70 10c6 -39 33 -59 65 -59c37 0 56 25 56 67c0 40 -22 61 -56 61c-14 0 -28 -5 -38 -12l-36 47l73 97h-117v72h230v-29l-91 -120c68 0 115 -51 115 -119c0 -80 -46 -136 -136 -136c-78 0 -131 52 -135 121z" />
    <glyph glyph-name="acute" unicode="&#xb4;" horiz-adv-x="242" 
d="M17 560l68 148h141l-129 -148h-80z" />
    <glyph glyph-name="mu" unicode="&#xb5;" 
d="M494 0h-104v86c-38 -62 -96 -94 -163 -94c-16 0 -31 2 -44 5v-201h-104v708h104v-328c0 -68 31 -92 78 -92c65 0 129 77 129 216v204h104v-504z" />
    <glyph glyph-name="paragraph" unicode="&#xb6;" horiz-adv-x="715" 
d="M57 490c0 116 94 210 210 210h385v-92h-62v-812h-104v812h-115v-812h-104v484c-116 0 -210 94 -210 210z" />
    <glyph glyph-name="periodcentered" unicode="&#xb7;" horiz-adv-x="318" 
d="M159 443c41 0 74 -32 74 -74s-33 -74 -74 -74s-74 32 -74 74s33 74 74 74z" />
    <glyph glyph-name="cedilla" unicode="&#xb8;" horiz-adv-x="221" 
d="M213 -60l-84 -191l-121 56l124 135h81z" />
    <glyph glyph-name="onesuperior" unicode="&#xb9;" horiz-adv-x="298" 
d="M185 700h30v-400h-77v292l-84 -40v85z" />
    <glyph glyph-name="ordmasculine" unicode="&#xba;" horiz-adv-x="517" 
d="M64 500c0 111 72 204 195 204c122 0 194 -93 194 -204s-72 -204 -194 -204c-123 0 -195 93 -195 204zM150 500c0 -67 37 -132 109 -132c71 0 108 65 108 132s-37 132 -108 132c-72 0 -109 -65 -109 -132z" />
    <glyph glyph-name="guillemotright" unicode="&#xbb;" horiz-adv-x="662" 
d="M616 346v-72l-293 -206v107l189 135l-189 135v107zM346 346v-72l-293 -206v107l189 135l-189 135v107z" />
    <glyph glyph-name="onequarter" unicode="&#xbc;" horiz-adv-x="821" 
d="M205 700h30v-400h-77v292l-84 -40v85zM663 733l58 -45l-539 -720l-58 45zM617 0v71h-167v35l160 294h84v-257h44v-72h-44v-71h-77zM543 143h74v143z" />
    <glyph glyph-name="onehalf" unicode="&#xbd;" horiz-adv-x="901" 
d="M205 700h30v-400h-77v292l-84 -40v85zM667 733l58 -45l-539 -720l-58 45zM554 0v30l151 186c20 25 25 44 25 67c0 31 -19 49 -45 49s-50 -15 -54 -60l-73 20c7 65 59 112 127 112c76 0 125 -45 125 -119c0 -40 -15 -72 -39 -101l-92 -112h139v-72h-264z" />
    <glyph glyph-name="threequarters" unicode="&#xbe;" horiz-adv-x="815" 
d="M691 733l58 -45l-539 -720l-58 45zM58 417l70 10c6 -39 33 -59 65 -59c37 0 56 25 56 67c0 40 -22 61 -56 61c-14 0 -28 -5 -38 -12l-36 47l73 97h-117v72h230v-29l-91 -120c68 0 115 -51 115 -119c0 -80 -46 -136 -136 -136c-78 0 -131 52 -135 121zM635 0v71h-167v35
l160 294h84v-257h44v-72h-44v-71h-77zM561 143h74v143z" />
    <glyph glyph-name="questiondown" unicode="&#xbf;" horiz-adv-x="456" 
d="M87 184c21 69 69 105 139 105c80 0 136 -47 136 -124c0 -63 -37 -101 -85 -123l-83 -38c-36 -17 -49 -36 -49 -70c0 -37 33 -61 73 -61c51 0 83 29 98 82l95 -16c-15 -86 -82 -151 -187 -151c-101 0 -179 56 -179 154c0 58 24 93 71 116l113 55c29 14 42 31 42 56
s-17 41 -43 41c-33 0 -48 -24 -60 -57zM302 425c0 -43 -32 -75 -76 -75s-76 32 -76 75s32 75 76 75s76 -32 76 -75z" />
    <glyph glyph-name="Agrave" unicode="&#xc0;" horiz-adv-x="608" 
d="M252 700h104l243 -700h-112l-58 174h-250l-58 -174h-112zM304 561l-92 -283h184zM302 904l68 -148h-80l-129 148h141z" />
    <glyph glyph-name="Aacute" unicode="&#xc1;" horiz-adv-x="608" 
d="M252 700h104l243 -700h-112l-58 174h-250l-58 -174h-112zM304 561l-92 -283h184zM232 756l68 148h141l-129 -148h-80z" />
    <glyph glyph-name="Acircumflex" unicode="&#xc2;" horiz-adv-x="608" 
d="M252 700h104l243 -700h-112l-58 174h-250l-58 -174h-112zM304 561l-92 -283h184zM127 762l162 176h30l162 -176h-100l-77 80l-77 -80h-100z" />
    <glyph glyph-name="Atilde" unicode="&#xc3;" horiz-adv-x="608" 
d="M252 700h104l243 -700h-112l-58 174h-250l-58 -174h-112zM304 561l-92 -283h184zM177 773l-57 47c20 43 66 81 115 81c71 0 79 -41 131 -41c26 0 48 18 66 40l57 -47c-20 -43 -66 -81 -115 -81c-71 0 -79 41 -131 41c-26 0 -48 -18 -66 -40z" />
    <glyph glyph-name="Adieresis" unicode="&#xc4;" horiz-adv-x="608" 
d="M252 700h104l243 -700h-112l-58 174h-250l-58 -174h-112zM304 561l-92 -283h184zM148 847c0 36 27 63 63 63s63 -27 63 -63s-27 -63 -63 -63s-63 27 -63 63zM334 847c0 36 27 63 63 63s63 -27 63 -63s-27 -63 -63 -63s-63 27 -63 63z" />
    <glyph glyph-name="Aring" unicode="&#xc5;" horiz-adv-x="608" 
d="M252 700h104l243 -700h-112l-58 174h-250l-58 -174h-112zM304 561l-92 -283h184zM203 849c0 57 44 102 101 102c59 0 101 -45 101 -102c0 -55 -42 -98 -101 -98c-57 0 -101 43 -101 98zM268 850c0 -21 15 -37 36 -37c22 0 36 16 36 37c0 22 -14 39 -36 39
c-21 0 -36 -17 -36 -39z" />
    <glyph glyph-name="AE" unicode="&#xc6;" horiz-adv-x="848" 
d="M312 700h477v-104h-305v-172h246v-104h-246v-216h315v-104h-425v174h-179l-73 -174h-112zM357 561l-118 -283h135v283h-17z" />
    <glyph glyph-name="Ccedilla" unicode="&#xc7;" horiz-adv-x="695" 
d="M658 496l-104 -26c-35 89 -84 134 -179 134c-118 0 -212 -83 -212 -254s94 -254 212 -254c95 0 144 45 179 134l104 -26c-36 -132 -134 -212 -283 -212c-169 0 -324 121 -324 358s155 358 324 358c149 0 247 -80 283 -212zM461 -60l-84 -191l-121 56l124 135h81z" />
    <glyph glyph-name="Egrave" unicode="&#xc8;" horiz-adv-x="568" 
d="M94 700h415v-104h-305v-172h246v-104h-246v-216h315v-104h-425v700zM305 904l68 -148h-80l-129 148h141z" />
    <glyph glyph-name="Eacute" unicode="&#xc9;" horiz-adv-x="568" 
d="M94 700h415v-104h-305v-172h246v-104h-246v-216h315v-104h-425v700zM227 756l68 148h141l-129 -148h-80z" />
    <glyph glyph-name="Ecircumflex" unicode="&#xca;" horiz-adv-x="568" 
d="M94 700h415v-104h-305v-172h246v-104h-246v-216h315v-104h-425v700zM127 762l162 176h30l162 -176h-100l-77 80l-77 -80h-100z" />
    <glyph glyph-name="Edieresis" unicode="&#xcb;" horiz-adv-x="568" 
d="M94 700h415v-104h-305v-172h246v-104h-246v-216h315v-104h-425v700zM149 847c0 36 27 63 63 63s63 -27 63 -63s-27 -63 -63 -63s-63 27 -63 63zM335 847c0 36 27 63 63 63s63 -27 63 -63s-27 -63 -63 -63s-63 27 -63 63z" />
    <glyph glyph-name="Igrave" unicode="&#xcc;" horiz-adv-x="298" 
d="M94 0v700h110v-700h-110zM161 904l68 -148h-80l-129 148h141z" />
    <glyph glyph-name="Iacute" unicode="&#xcd;" horiz-adv-x="298" 
d="M94 0v700h110v-700h-110zM70 756l68 148h141l-129 -148h-80z" />
    <glyph glyph-name="Icircumflex" unicode="&#xce;" horiz-adv-x="298" 
d="M94 0v700h110v-700h-110zM-22 762l162 176h30l162 -176h-100l-77 80l-77 -80h-100z" />
    <glyph glyph-name="Idieresis" unicode="&#xcf;" horiz-adv-x="298" 
d="M94 0v700h110v-700h-110zM-7 847c0 36 27 63 63 63s63 -27 63 -63s-27 -63 -63 -63s-63 27 -63 63zM179 847c0 36 27 63 63 63s63 -27 63 -63s-27 -63 -63 -63s-63 27 -63 63z" />
    <glyph glyph-name="Eth" unicode="&#xd0;" horiz-adv-x="689" 
d="M28 304v92h82v304h206c168 0 322 -114 322 -350s-154 -350 -322 -350h-206v304h-82zM284 596h-64v-200h82v-92h-82v-200h64c122 0 242 55 242 246s-120 246 -242 246z" />
    <glyph glyph-name="Ntilde" unicode="&#xd1;" horiz-adv-x="703" 
d="M499 700h110v-700h-118l-287 502v-502h-110v700h118l287 -504v504zM224 773l-57 47c20 43 66 81 115 81c71 0 79 -41 131 -41c26 0 48 18 66 40l57 -47c-20 -43 -66 -81 -115 -81c-71 0 -79 41 -131 41c-26 0 -48 -18 -66 -40z" />
    <glyph glyph-name="Ograve" unicode="&#xd2;" horiz-adv-x="744" 
d="M372 708c171 0 321 -119 321 -358s-150 -358 -321 -358s-321 119 -321 358s150 358 321 358zM372 604c-113 0 -209 -81 -209 -254s96 -254 209 -254s209 81 209 254s-96 254 -209 254zM382 904l68 -148h-80l-129 148h141z" />
    <glyph glyph-name="Oacute" unicode="&#xd3;" horiz-adv-x="744" 
d="M372 708c171 0 321 -119 321 -358s-150 -358 -321 -358s-321 119 -321 358s150 358 321 358zM372 604c-113 0 -209 -81 -209 -254s96 -254 209 -254s209 81 209 254s-96 254 -209 254zM301 756l68 148h141l-129 -148h-80z" />
    <glyph glyph-name="Ocircumflex" unicode="&#xd4;" horiz-adv-x="744" 
d="M372 708c171 0 321 -119 321 -358s-150 -358 -321 -358s-321 119 -321 358s150 358 321 358zM372 604c-113 0 -209 -81 -209 -254s96 -254 209 -254s209 81 209 254s-96 254 -209 254zM195 762l162 176h30l162 -176h-100l-77 80l-77 -80h-100z" />
    <glyph glyph-name="Otilde" unicode="&#xd5;" horiz-adv-x="744" 
d="M372 708c171 0 321 -119 321 -358s-150 -358 -321 -358s-321 119 -321 358s150 358 321 358zM372 604c-113 0 -209 -81 -209 -254s96 -254 209 -254s209 81 209 254s-96 254 -209 254zM245 773l-57 47c20 43 66 81 115 81c71 0 79 -41 131 -41c26 0 48 18 66 40l57 -47
c-20 -43 -66 -81 -115 -81c-71 0 -79 41 -131 41c-26 0 -48 -18 -66 -40z" />
    <glyph glyph-name="Odieresis" unicode="&#xd6;" horiz-adv-x="744" 
d="M372 708c171 0 321 -119 321 -358s-150 -358 -321 -358s-321 119 -321 358s150 358 321 358zM372 604c-113 0 -209 -81 -209 -254s96 -254 209 -254s209 81 209 254s-96 254 -209 254zM217 847c0 36 27 63 63 63s63 -27 63 -63s-27 -63 -63 -63s-63 27 -63 63zM403 847
c0 36 27 63 63 63s63 -27 63 -63s-27 -63 -63 -63s-63 27 -63 63z" />
    <glyph glyph-name="multiply" unicode="&#xd7;" horiz-adv-x="564" 
d="M500 162l-65 -65l-153 153l-153 -153l-65 65l153 154l-153 154l65 65l153 -153l153 153l65 -65l-153 -154z" />
    <glyph glyph-name="Oslash" unicode="&#xd8;" horiz-adv-x="744" 
d="M612 735l72 -53l-67 -87c47 -59 76 -141 76 -245c0 -239 -150 -358 -321 -358c-65 0 -127 18 -179 52l-61 -79l-72 53l67 87c-47 59 -76 140 -76 245c0 239 150 358 321 358c65 0 127 -18 179 -52zM581 350c0 63 -13 114 -35 153l-287 -374c33 -22 72 -33 113 -33
c113 0 209 81 209 254zM372 604c-113 0 -209 -81 -209 -254c0 -63 14 -114 35 -153l287 374c-33 22 -72 33 -113 33z" />
    <glyph glyph-name="Ugrave" unicode="&#xd9;" horiz-adv-x="654" 
d="M75 252v448h110v-453c0 -95 48 -151 142 -151s142 56 142 151v453h110v-448c0 -169 -109 -260 -252 -260s-252 92 -252 260zM332 904l68 -148h-80l-129 148h141z" />
    <glyph glyph-name="Uacute" unicode="&#xda;" horiz-adv-x="654" 
d="M75 252v448h110v-453c0 -95 48 -151 142 -151s142 56 142 151v453h110v-448c0 -169 -109 -260 -252 -260s-252 92 -252 260zM251 756l68 148h141l-129 -148h-80z" />
    <glyph glyph-name="Ucircumflex" unicode="&#xdb;" horiz-adv-x="654" 
d="M75 252v448h110v-453c0 -95 48 -151 142 -151s142 56 142 151v453h110v-448c0 -169 -109 -260 -252 -260s-252 92 -252 260zM150 762l162 176h30l162 -176h-100l-77 80l-77 -80h-100z" />
    <glyph glyph-name="Udieresis" unicode="&#xdc;" horiz-adv-x="654" 
d="M75 252v448h110v-453c0 -95 48 -151 142 -151s142 56 142 151v453h110v-448c0 -169 -109 -260 -252 -260s-252 92 -252 260zM172 847c0 36 27 63 63 63s63 -27 63 -63s-27 -63 -63 -63s-63 27 -63 63zM358 847c0 36 27 63 63 63s63 -27 63 -63s-27 -63 -63 -63
s-63 27 -63 63z" />
    <glyph glyph-name="Yacute" unicode="&#xdd;" horiz-adv-x="514" 
d="M2 700h117l138 -291l138 291h117l-200 -400v-300h-110v300zM175 756l68 148h141l-129 -148h-80z" />
    <glyph glyph-name="Thorn" unicode="&#xde;" horiz-adv-x="589" 
d="M345 143h-141v-143h-110v700h110v-143h141c139 0 217 -89 217 -207s-78 -207 -217 -207zM350 247c63 0 100 38 100 103s-37 103 -100 103h-146v-206h146z" />
    <glyph glyph-name="germandbls" unicode="&#xdf;" horiz-adv-x="560" 
d="M35 337v92h48v85c0 132 89 194 196 194c132 0 189 -84 189 -182c0 -77 -47 -118 -85 -130c76 -23 136 -80 136 -184c0 -155 -88 -220 -219 -220c-26 0 -54 4 -69 8v92c20 -4 47 -8 69 -8c83 0 116 49 116 125c0 87 -46 128 -125 128h-39v92h27c59 0 91 36 91 94
c0 61 -38 93 -91 93c-55 0 -92 -37 -92 -109v-507h-104v337h-48z" />
    <glyph glyph-name="agrave" unicode="&#xe0;" horiz-adv-x="514" 
d="M44 145c0 104 89 165 218 165h87v22c0 63 -45 88 -98 88c-41 0 -77 -22 -94 -67l-95 20c21 85 93 139 190 139c117 0 201 -51 201 -199v-313h-88l-10 66c-33 -46 -85 -74 -156 -74c-84 0 -155 48 -155 153zM154 145c0 -34 19 -61 63 -61c64 0 132 41 132 128v11h-91
c-64 0 -104 -30 -104 -78zM259 708l68 -148h-80l-129 148h141z" />
    <glyph glyph-name="aacute" unicode="&#xe1;" horiz-adv-x="514" 
d="M44 145c0 104 89 165 218 165h87v22c0 63 -45 88 -98 88c-41 0 -77 -22 -94 -67l-95 20c21 85 93 139 190 139c117 0 201 -51 201 -199v-313h-88l-10 66c-33 -46 -85 -74 -156 -74c-84 0 -155 48 -155 153zM154 145c0 -34 19 -61 63 -61c64 0 132 41 132 128v11h-91
c-64 0 -104 -30 -104 -78zM175 560l68 148h141l-129 -148h-80z" />
    <glyph glyph-name="acircumflex" unicode="&#xe2;" horiz-adv-x="514" 
d="M44 145c0 104 89 165 218 165h87v22c0 63 -45 88 -98 88c-41 0 -77 -22 -94 -67l-95 20c21 85 93 139 190 139c117 0 201 -51 201 -199v-313h-88l-10 66c-33 -46 -85 -74 -156 -74c-84 0 -155 48 -155 153zM154 145c0 -34 19 -61 63 -61c64 0 132 41 132 128v11h-91
c-64 0 -104 -30 -104 -78zM80 566l162 176h30l162 -176h-100l-77 80l-77 -80h-100z" />
    <glyph glyph-name="atilde" unicode="&#xe3;" horiz-adv-x="514" 
d="M44 145c0 104 89 165 218 165h87v22c0 63 -45 88 -98 88c-41 0 -77 -22 -94 -67l-95 20c21 85 93 139 190 139c117 0 201 -51 201 -199v-313h-88l-10 66c-33 -46 -85 -74 -156 -74c-84 0 -155 48 -155 153zM154 145c0 -34 19 -61 63 -61c64 0 132 41 132 128v11h-91
c-64 0 -104 -30 -104 -78zM123 577l-57 47c20 43 66 81 115 81c71 0 79 -41 131 -41c26 0 48 18 66 40l57 -47c-20 -43 -66 -81 -115 -81c-71 0 -79 41 -131 41c-26 0 -48 -18 -66 -40z" />
    <glyph glyph-name="adieresis" unicode="&#xe4;" horiz-adv-x="514" 
d="M44 145c0 104 89 165 218 165h87v22c0 63 -45 88 -98 88c-41 0 -77 -22 -94 -67l-95 20c21 85 93 139 190 139c117 0 201 -51 201 -199v-313h-88l-10 66c-33 -46 -85 -74 -156 -74c-84 0 -155 48 -155 153zM154 145c0 -34 19 -61 63 -61c64 0 132 41 132 128v11h-91
c-64 0 -104 -30 -104 -78zM100 651c0 36 27 63 63 63s63 -27 63 -63s-27 -63 -63 -63s-63 27 -63 63zM286 651c0 36 27 63 63 63s63 -27 63 -63s-27 -63 -63 -63s-63 27 -63 63z" />
    <glyph glyph-name="aring" unicode="&#xe5;" horiz-adv-x="514" 
d="M44 145c0 104 89 165 218 165h87v22c0 63 -45 88 -98 88c-41 0 -77 -22 -94 -67l-95 20c21 85 93 139 190 139c117 0 201 -51 201 -199v-313h-88l-10 66c-33 -46 -85 -74 -156 -74c-84 0 -155 48 -155 153zM154 145c0 -34 19 -61 63 -61c64 0 132 41 132 128v11h-91
c-64 0 -104 -30 -104 -78zM151 653c0 57 44 102 101 102c59 0 101 -45 101 -102c0 -55 -42 -98 -101 -98c-57 0 -101 43 -101 98zM216 654c0 -21 15 -37 36 -37c22 0 36 16 36 37c0 22 -14 39 -36 39c-21 0 -36 -17 -36 -39z" />
    <glyph glyph-name="ae" unicode="&#xe6;" horiz-adv-x="859" 
d="M816 268v-45h-357c0 -74 43 -139 125 -139c54 0 106 30 132 85l89 -35c-49 -95 -106 -142 -221 -142c-98 0 -163 48 -199 113c-42 -87 -119 -113 -186 -113c-84 0 -155 48 -155 153c0 104 89 165 218 165h87v22c0 65 -48 88 -101 88c-41 0 -80 -19 -96 -66l-88 19
c18 85 86 139 184 139c72 0 133 -20 169 -69c38 41 93 69 167 69c161 0 232 -131 232 -244zM154 145c0 -34 19 -61 63 -61c64 0 132 41 132 128v15h-91c-64 0 -104 -34 -104 -82zM584 420c-69 0 -112 -47 -123 -110h245c-9 56 -47 110 -122 110z" />
    <glyph glyph-name="ccedilla" unicode="&#xe7;" horiz-adv-x="542" 
d="M411 171l93 -40c-40 -91 -111 -139 -218 -139c-160 0 -237 122 -237 260s77 260 237 260c107 0 178 -48 218 -139l-93 -40c-24 54 -65 87 -125 87c-89 0 -127 -73 -127 -168s38 -168 127 -168c60 0 101 33 125 87zM372 -60l-84 -191l-121 56l124 135h81z" />
    <glyph glyph-name="egrave" unicode="&#xe8;" horiz-adv-x="559" 
d="M284 420c-69 0 -112 -47 -123 -110h245c-9 56 -47 110 -122 110zM516 268v-45h-357c0 -74 43 -139 125 -139c54 0 106 30 132 85l89 -35c-49 -95 -106 -142 -221 -142c-166 0 -235 140 -235 260s69 260 235 260c161 0 232 -131 232 -244zM281 708l68 -148h-80l-129 148
h141z" />
    <glyph glyph-name="eacute" unicode="&#xe9;" horiz-adv-x="559" 
d="M284 420c-69 0 -112 -47 -123 -110h245c-9 56 -47 110 -122 110zM516 268v-45h-357c0 -74 43 -139 125 -139c54 0 106 30 132 85l89 -35c-49 -95 -106 -142 -221 -142c-166 0 -235 140 -235 260s69 260 235 260c161 0 232 -131 232 -244zM206 560l68 148h141l-129 -148
h-80z" />
    <glyph glyph-name="ecircumflex" unicode="&#xea;" horiz-adv-x="559" 
d="M284 420c-69 0 -112 -47 -123 -110h245c-9 56 -47 110 -122 110zM516 268v-45h-357c0 -74 43 -139 125 -139c54 0 106 30 132 85l89 -35c-49 -95 -106 -142 -221 -142c-166 0 -235 140 -235 260s69 260 235 260c161 0 232 -131 232 -244zM107 566l162 176h30l162 -176
h-100l-77 80l-77 -80h-100z" />
    <glyph glyph-name="edieresis" unicode="&#xeb;" horiz-adv-x="559" 
d="M284 420c-69 0 -112 -47 -123 -110h245c-9 56 -47 110 -122 110zM516 268v-45h-357c0 -74 43 -139 125 -139c54 0 106 30 132 85l89 -35c-49 -95 -106 -142 -221 -142c-166 0 -235 140 -235 260s69 260 235 260c161 0 232 -131 232 -244zM128 651c0 36 27 63 63 63
s63 -27 63 -63s-27 -63 -63 -63s-63 27 -63 63zM314 651c0 36 27 63 63 63s63 -27 63 -63s-27 -63 -63 -63s-63 27 -63 63z" />
    <glyph glyph-name="igrave" unicode="&#xec;" horiz-adv-x="266" 
d="M81 504h104v-504h-104v504zM140 708l68 -148h-80l-129 148h141z" />
    <glyph glyph-name="iacute" unicode="&#xed;" horiz-adv-x="266" 
d="M81 504h104v-504h-104v504zM59 560l68 148h141l-129 -148h-80z" />
    <glyph glyph-name="icircumflex" unicode="&#xee;" horiz-adv-x="266" 
d="M81 504h104v-504h-104v504zM-43 566l162 176h30l162 -176h-100l-77 80l-77 -80h-100z" />
    <glyph glyph-name="idieresis" unicode="&#xef;" horiz-adv-x="266" 
d="M81 504h104v-504h-104v504zM-23 651c0 36 27 63 63 63s63 -27 63 -63s-27 -63 -63 -63s-63 27 -63 63zM163 651c0 36 27 63 63 63s63 -27 63 -63s-27 -63 -63 -63s-63 27 -63 63z" />
    <glyph glyph-name="eth" unicode="&#xf0;" horiz-adv-x="582" 
d="M257 538l-68 48l33 48c-25 14 -53 27 -82 40l51 76c29 -13 57 -26 82 -41l35 52l68 -48l-34 -49c144 -111 191 -251 191 -412c0 -142 -86 -260 -242 -260s-242 118 -242 260s86 260 242 260c37 0 71 -11 92 -27c-18 40 -46 72 -91 105zM159 252c0 -85 41 -168 132 -168
s132 83 132 168s-41 168 -132 168s-132 -83 -132 -168z" />
    <glyph glyph-name="ntilde" unicode="&#xf1;" 
d="M86 504h104v-86c36 60 96 94 163 94c88 0 148 -53 148 -151v-361h-104v328c0 68 -31 92 -78 92c-65 0 -129 -77 -129 -216v-204h-104v504zM175 577l-57 47c20 43 66 81 115 81c71 0 79 -41 131 -41c26 0 48 18 66 40l57 -47c-20 -43 -66 -81 -115 -81
c-71 0 -79 41 -131 41c-26 0 -48 -18 -66 -40z" />
    <glyph glyph-name="ograve" unicode="&#xf2;" horiz-adv-x="594" 
d="M49 252c0 142 92 260 248 260s248 -118 248 -260s-92 -260 -248 -260s-248 118 -248 260zM159 252c0 -85 47 -168 138 -168s138 83 138 168s-47 168 -138 168s-138 -83 -138 -168zM313 708l68 -148h-80l-129 148h141z" />
    <glyph glyph-name="oacute" unicode="&#xf3;" horiz-adv-x="594" 
d="M49 252c0 142 92 260 248 260s248 -118 248 -260s-92 -260 -248 -260s-248 118 -248 260zM159 252c0 -85 47 -168 138 -168s138 83 138 168s-47 168 -138 168s-138 -83 -138 -168zM220 560l68 148h141l-129 -148h-80z" />
    <glyph glyph-name="ocircumflex" unicode="&#xf4;" horiz-adv-x="594" 
d="M49 252c0 142 92 260 248 260s248 -118 248 -260s-92 -260 -248 -260s-248 118 -248 260zM159 252c0 -85 47 -168 138 -168s138 83 138 168s-47 168 -138 168s-138 -83 -138 -168zM120 566l162 176h30l162 -176h-100l-77 80l-77 -80h-100z" />
    <glyph glyph-name="otilde" unicode="&#xf5;" horiz-adv-x="594" 
d="M49 252c0 142 92 260 248 260s248 -118 248 -260s-92 -260 -248 -260s-248 118 -248 260zM159 252c0 -85 47 -168 138 -168s138 83 138 168s-47 168 -138 168s-138 -83 -138 -168zM169 577l-57 47c20 43 66 81 115 81c71 0 79 -41 131 -41c26 0 48 18 66 40l57 -47
c-20 -43 -66 -81 -115 -81c-71 0 -79 41 -131 41c-26 0 -48 -18 -66 -40z" />
    <glyph glyph-name="odieresis" unicode="&#xf6;" horiz-adv-x="594" 
d="M49 252c0 142 92 260 248 260s248 -118 248 -260s-92 -260 -248 -260s-248 118 -248 260zM159 252c0 -85 47 -168 138 -168s138 83 138 168s-47 168 -138 168s-138 -83 -138 -168zM141 651c0 36 27 63 63 63s63 -27 63 -63s-27 -63 -63 -63s-63 27 -63 63zM327 651
c0 36 27 63 63 63s63 -27 63 -63s-27 -63 -63 -63s-63 27 -63 63z" />
    <glyph glyph-name="divide" unicode="&#xf7;" horiz-adv-x="535" 
d="M267 202c41 0 74 -32 74 -74s-33 -74 -74 -74s-74 32 -74 74s33 74 74 74zM267 574c41 0 74 -32 74 -74s-33 -74 -74 -74s-74 32 -74 74s33 74 74 74zM45 271v92h445v-92h-445z" />
    <glyph glyph-name="oslash" unicode="&#xf8;" horiz-adv-x="594" 
d="M118 -50l-73 54l60 77c-36 46 -56 106 -56 171c0 142 92 260 248 260c47 0 88 -11 123 -30l56 72l73 -54l-60 -77c36 -46 56 -106 56 -171c0 -142 -92 -260 -248 -260c-47 0 -88 11 -123 30zM435 252c0 29 -6 57 -16 82l-184 -234c18 -10 39 -16 62 -16
c91 0 138 83 138 168zM159 252c0 -29 6 -57 16 -82l184 234c-18 10 -39 16 -62 16c-91 0 -138 -83 -138 -168z" />
    <glyph glyph-name="ugrave" unicode="&#xf9;" 
d="M494 0h-104v86c-36 -60 -96 -94 -163 -94c-88 0 -148 53 -148 151v361h104v-328c0 -68 31 -92 78 -92c65 0 129 77 129 216v204h104v-504zM302 708l68 -148h-80l-129 148h141z" />
    <glyph glyph-name="uacute" unicode="&#xfa;" 
d="M494 0h-104v86c-36 -60 -96 -94 -163 -94c-88 0 -148 53 -148 151v361h104v-328c0 -68 31 -92 78 -92c65 0 129 77 129 216v204h104v-504zM202 560l68 148h141l-129 -148h-80z" />
    <glyph glyph-name="ucircumflex" unicode="&#xfb;" 
d="M494 0h-104v86c-36 -60 -96 -94 -163 -94c-88 0 -148 53 -148 151v361h104v-328c0 -68 31 -92 78 -92c65 0 129 77 129 216v204h104v-504zM97 566l162 176h30l162 -176h-100l-77 80l-77 -80h-100z" />
    <glyph glyph-name="udieresis" unicode="&#xfc;" 
d="M494 0h-104v86c-36 -60 -96 -94 -163 -94c-88 0 -148 53 -148 151v361h104v-328c0 -68 31 -92 78 -92c65 0 129 77 129 216v204h104v-504zM134 651c0 36 27 63 63 63s63 -27 63 -63s-27 -63 -63 -63s-63 27 -63 63zM320 651c0 36 27 63 63 63s63 -27 63 -63
s-27 -63 -63 -63s-63 27 -63 63z" />
    <glyph glyph-name="yacute" unicode="&#xfd;" horiz-adv-x="469" 
d="M8 504h110l119 -339l115 339h110l-255 -708h-104l82 229zM160 560l68 148h141l-129 -148h-80z" />
    <glyph glyph-name="thorn" unicode="&#xfe;" horiz-adv-x="601" 
d="M552 252c0 -161 -76 -260 -225 -260c-66 0 -120 37 -137 66v-262h-104v912h104v-260c23 33 85 64 135 64c151 0 227 -104 227 -260zM442 252c0 104 -54 168 -129 168s-129 -64 -129 -168s54 -168 129 -168s129 64 129 168z" />
    <glyph glyph-name="ydieresis" unicode="&#xff;" horiz-adv-x="469" 
d="M8 504h110l119 -339l115 339h110l-255 -708h-104l82 229zM82 651c0 36 27 63 63 63s63 -27 63 -63s-27 -63 -63 -63s-63 27 -63 63zM268 651c0 36 27 63 63 63s63 -27 63 -63s-27 -63 -63 -63s-63 27 -63 63z" />
    <glyph glyph-name="dotlessi" unicode="&#x131;" horiz-adv-x="266" 
d="M81 504h104v-504h-104v504z" />
    <glyph glyph-name="Lslash" unicode="&#x141;" horiz-adv-x="534" 
d="M44 216l-45 81l107 60v343h110v-282l107 60l45 -82l-152 -85v-207h302v-104h-412v250z" />
    <glyph glyph-name="lslash" unicode="&#x142;" horiz-adv-x="355" 
d="M123 708h104v-265l60 33l43 -81l-103 -56v-339h-104v282l-60 -33l-43 81l103 56v322z" />
    <glyph glyph-name="OE" unicode="&#x152;" horiz-adv-x="1057" 
d="M583 700h415v-104h-305v-172h246v-104h-246v-216h315v-104h-425v69c-58 -51 -132 -77 -211 -77c-171 0 -321 119 -321 358s150 358 321 358c79 0 153 -26 211 -77v69zM372 604c-113 0 -209 -81 -209 -254s96 -254 209 -254s209 81 209 254s-96 254 -209 254z" />
    <glyph glyph-name="oe" unicode="&#x153;" horiz-adv-x="945" 
d="M902 268v-45h-357c0 -74 43 -139 125 -139c54 0 106 30 132 85l89 -35c-49 -95 -106 -142 -221 -142c-85 0 -144 36 -182 88c-42 -54 -107 -88 -191 -88c-156 0 -248 118 -248 260s92 260 248 260c84 0 149 -34 191 -88c38 52 97 88 182 88c161 0 232 -131 232 -244z
M159 252c0 -85 47 -168 138 -168s138 83 138 168s-47 168 -138 168s-138 -83 -138 -168zM670 420c-69 0 -112 -47 -123 -110h245c-9 56 -47 110 -122 110z" />
    <glyph glyph-name="Scaron" unicode="&#x160;" horiz-adv-x="530" 
d="M454 590l-89 -59c-28 53 -63 77 -104 77c-45 0 -73 -35 -73 -76c0 -138 300 -111 300 -327c0 -128 -93 -213 -219 -213c-123 0 -206 83 -231 195l90 57c20 -78 61 -148 141 -148c63 0 107 43 107 105c0 137 -298 107 -298 323c0 106 81 184 183 184
c96 0 156 -52 193 -118zM247 762l-162 176h100l77 -80l77 80h100l-162 -176h-30z" />
    <glyph glyph-name="scaron" unicode="&#x161;" horiz-adv-x="453" 
d="M234 512c61 0 117 -30 149 -80l-66 -58c-25 32 -56 46 -88 46c-26 0 -50 -17 -50 -50c0 -36 38 -52 90 -72c68 -26 141 -56 141 -146c0 -87 -67 -160 -175 -160c-104 0 -169 72 -195 135l88 48c20 -45 55 -91 111 -91c40 0 68 20 68 66c0 44 -61 56 -120 81
c-58 24 -108 61 -108 138c0 78 64 143 155 143zM220 566l-162 176h100l77 -80l77 80h100l-162 -176h-30z" />
    <glyph glyph-name="Ydieresis" unicode="&#x178;" horiz-adv-x="514" 
d="M2 700h117l138 -291l138 291h117l-200 -400v-300h-110v300zM102 847c0 36 27 63 63 63s63 -27 63 -63s-27 -63 -63 -63s-63 27 -63 63zM288 847c0 36 27 63 63 63s63 -27 63 -63s-27 -63 -63 -63s-63 27 -63 63z" />
    <glyph glyph-name="Zcaron" unicode="&#x17d;" horiz-adv-x="558" 
d="M53 596v104h452v-54l-315 -542h328v-104h-480v54l319 542h-304zM264 762l-162 176h100l77 -80l77 80h100l-162 -176h-30z" />
    <glyph glyph-name="zcaron" unicode="&#x17e;" horiz-adv-x="461" 
d="M61 412v92h347v-42l-227 -370h238v-92h-373v42l227 370h-212zM215 566l-162 176h100l77 -80l77 80h100l-162 -176h-30z" />
    <glyph glyph-name="florin" unicode="&#x192;" horiz-adv-x="478" 
d="M102 412l18 92h85l5 26c24 123 97 178 203 178c37 0 67 -9 80 -18l-38 -88c-19 11 -38 14 -57 14c-44 0 -73 -24 -83 -79l-6 -33h111l-18 -92h-111l-88 -446c-24 -123 -97 -178 -203 -178c-37 0 -67 9 -80 18l38 88c19 -11 38 -14 57 -14c44 0 72 24 83 79l89 453h-85z
" />
    <glyph glyph-name="circumflex" unicode="&#x2c6;" horiz-adv-x="412" 
d="M29 566l162 176h30l162 -176h-100l-77 80l-77 -80h-100z" />
    <glyph glyph-name="caron" unicode="&#x2c7;" horiz-adv-x="412" 
d="M191 566l-162 176h100l77 -80l77 80h100l-162 -176h-30z" />
    <glyph glyph-name="breve" unicode="&#x2d8;" horiz-adv-x="256" 
d="M158 700h81c0 -58 -46 -109 -115 -109s-115 51 -115 109h81c0 -21 15 -35 34 -35c20 0 34 14 34 35z" />
    <glyph glyph-name="dotaccent" unicode="&#x2d9;" horiz-adv-x="279" 
d="M67 646c0 40 31 73 72 73s72 -33 72 -73s-31 -71 -72 -71s-72 31 -72 71z" />
    <glyph glyph-name="ring" unicode="&#x2da;" horiz-adv-x="234" 
d="M16 653c0 57 44 102 101 102c59 0 101 -45 101 -102c0 -55 -42 -98 -101 -98c-57 0 -101 43 -101 98zM81 654c0 -21 15 -37 36 -37c22 0 36 16 36 37c0 22 -14 39 -36 39c-21 0 -36 -17 -36 -39z" />
    <glyph glyph-name="ogonek" unicode="&#x2db;" horiz-adv-x="240" 
d="M81 0h69c-34 -30 -56 -57 -56 -79c0 -18 11 -28 28 -28c22 0 32 13 52 40l48 -39c-32 -48 -61 -74 -113 -74c-56 0 -91 32 -91 85c0 39 25 70 63 95z" />
    <glyph glyph-name="tilde" unicode="&#x2dc;" horiz-adv-x="403" 
d="M74 577l-57 47c20 43 66 81 115 81c71 0 79 -41 131 -41c26 0 48 18 66 40l57 -47c-20 -43 -66 -81 -115 -81c-71 0 -79 41 -131 41c-26 0 -48 -18 -66 -40z" />
    <glyph glyph-name="hungarumlaut" unicode="&#x2dd;" horiz-adv-x="450" 
d="M20 560l68 140h141l-129 -140h-80zM228 560l68 140h141l-129 -140h-80z" />
    <glyph glyph-name="Delta" unicode="&#x2206;" horiz-adv-x="682" 
d="M52 0v26l245 674h88l245 -674v-26h-578zM341 560l-162 -466h324z" />
    <glyph glyph-name="Omega" unicode="&#x2126;" horiz-adv-x="692" 
d="M72 0v94h128s-102 162 -102 346c0 150 97 268 248 268s248 -118 248 -268c0 -184 -102 -346 -102 -346h128v-94h-233v36s102 197 102 404c0 104 -41 174 -143 174s-143 -70 -143 -174c0 -207 102 -404 102 -404v-36h-233z" />
    <glyph glyph-name="endash" unicode="&#x2013;" horiz-adv-x="581" 
d="M68 271v92h445v-92h-445z" />
    <glyph glyph-name="emdash" unicode="&#x2014;" horiz-adv-x="779" 
d="M68 271v92h643v-92h-643z" />
    <glyph glyph-name="quoteleft" unicode="&#x2018;" horiz-adv-x="318" 
d="M197 708l74 -222h-78l-139 222h143z" />
    <glyph glyph-name="quoteright" unicode="&#x2019;" horiz-adv-x="318" 
d="M47 486l74 222h143l-139 -222h-78z" />
    <glyph glyph-name="quotesinglbase" unicode="&#x201a;" horiz-adv-x="318" 
d="M47 -14l74 222h143l-139 -222h-78z" />
    <glyph glyph-name="quotedblleft" unicode="&#x201c;" horiz-adv-x="516" 
d="M395 708l74 -222h-78l-139 222h143zM197 708l74 -222h-78l-139 222h143z" />
    <glyph glyph-name="quotedblright" unicode="&#x201d;" horiz-adv-x="516" 
d="M245 486l74 222h143l-139 -222h-78zM47 486l74 222h143l-139 -222h-78z" />
    <glyph glyph-name="quotedblbase" unicode="&#x201e;" horiz-adv-x="516" 
d="M47 -14l74 222h143l-139 -222h-78zM245 -14l74 222h143l-139 -222h-78z" />
    <glyph glyph-name="dagger" unicode="&#x2020;" horiz-adv-x="466" 
d="M56 412v92h127v246h100v-246h127v-92h-127v-462h-100v462h-127z" />
    <glyph glyph-name="daggerdbl" unicode="&#x2021;" horiz-adv-x="466" 
d="M56 412v92h127v246h100v-246h127v-92h-127v-124h127v-92h-127v-246h-100v246h-127v92h127v124h-127z" />
    <glyph glyph-name="bullet" unicode="&#x2022;" horiz-adv-x="372" 
d="M81 330c0 59 46 105 105 105s105 -46 105 -105s-46 -105 -105 -105s-105 46 -105 105z" />
    <glyph glyph-name="perthousand" unicode="&#x2030;" horiz-adv-x="1240" 
d="M55 548c0 89 71 160 162 160s162 -71 162 -160s-71 -160 -162 -160s-162 71 -162 160zM143 548c0 -44 28 -77 74 -77s74 33 74 77s-28 77 -74 77s-74 -33 -74 -77zM461 152c0 89 71 160 162 160s162 -71 162 -160s-71 -160 -162 -160s-162 71 -162 160zM549 152
c0 -44 28 -77 74 -77s74 33 74 77s-28 77 -74 77s-74 -33 -74 -77zM861 152c0 89 71 160 162 160s162 -71 162 -160s-71 -160 -162 -160s-162 71 -162 160zM949 152c0 -44 28 -77 74 -77s74 33 74 77s-28 77 -74 77s-74 -33 -74 -77zM663 733l58 -45l-539 -720l-58 45z" />
    <glyph glyph-name="guilsinglleft" unicode="&#x2039;" horiz-adv-x="392" 
d="M46 274v72l293 206v-107l-189 -135l189 -135v-107z" />
    <glyph glyph-name="guilsinglright" unicode="&#x203a;" horiz-adv-x="392" 
d="M346 346v-72l-293 -206v107l189 135l-189 135v107z" />
    <glyph glyph-name="fraction" unicode="&#x2044;" horiz-adv-x="611" 
d="M546 733l58 -45l-539 -720l-58 45z" />
    <glyph glyph-name="Euro" unicode="&#x20ac;" horiz-adv-x="633" 
d="M29 380l46 92h52c29 158 131 236 263 236c95 0 166 -43 204 -114l-88 -50c-27 44 -59 70 -116 70c-80 0 -136 -43 -156 -142h213l-46 -92h-176v-60h222l-46 -92h-167c20 -100 76 -142 156 -142c57 0 89 26 116 70l88 -50c-38 -71 -109 -114 -204 -114
c-132 0 -234 78 -263 236h-98l46 92h44v60h-90z" />
    <glyph glyph-name="trademark" unicode="&#x2122;" horiz-adv-x="832" 
d="M25 624v76h294v-76h-105v-324h-84v324h-105zM381 300v400h85l101 -244l101 244h85v-400h-84v226l-75 -189h-54l-75 189v-226h-84z" />
    <glyph glyph-name="partialdiff" unicode="&#x2202;" horiz-adv-x="609" 
d="M46 213c0 166 109 299 293 299c41 0 79 -13 98 -30c-12 85 -56 134 -132 134c-42 0 -87 -26 -107 -81l-103 31c27 82 112 142 209 142c181 0 245 -115 245 -346c0 -190 -77 -370 -301 -370c-128 0 -202 92 -202 221zM327 420c-105 0 -171 -104 -171 -202
c0 -76 32 -134 106 -134c107 0 170 108 170 207c0 85 -32 129 -105 129z" />
    <glyph glyph-name="product" unicode="&#x220f;" horiz-adv-x="567" 
d="M90 0v700h387v-700h-104v606h-179v-606h-104z" />
    <glyph glyph-name="summation" unicode="&#x2211;" horiz-adv-x="547" 
d="M485 0h-430v45l192 305l-192 305v45h430v-94h-288l154 -244v-24l-154 -244h288v-94z" />
    <glyph glyph-name="minus" unicode="&#x2212;" horiz-adv-x="571" 
d="M64 271v92h445v-92h-445z" />
    <glyph glyph-name="radical" unicode="&#x221a;" horiz-adv-x="586" 
d="M465 708h98l-217 -708h-83l-98 295h-110v94h168l80 -241z" />
    <glyph glyph-name="infinity" unicode="&#x221e;" horiz-adv-x="884" 
d="M640 168c-67 0 -148 29 -198 99c-50 -70 -131 -99 -198 -99c-120 0 -189 78 -189 191s69 191 189 191c67 0 148 -29 198 -99c50 70 131 99 198 99c120 0 189 -78 189 -191s-69 -191 -189 -191zM259 260c39 0 93 26 131 99c-38 73 -92 99 -131 99c-58 0 -100 -33 -100 -99
s42 -99 100 -99zM625 260c58 0 100 33 100 99s-42 99 -100 99c-39 0 -93 -26 -131 -99c38 -73 92 -99 131 -99z" />
    <glyph glyph-name="integral" unicode="&#x222b;" horiz-adv-x="478" 
d="M98 -41l112 571c24 123 97 178 203 178c37 0 67 -9 80 -18l-38 -88c-19 11 -38 14 -57 14c-44 0 -72 -24 -83 -79l-112 -571c-24 -123 -97 -178 -203 -178c-37 0 -67 9 -80 18l38 88c19 -11 38 -14 57 -14c44 0 72 24 83 79z" />
    <glyph glyph-name="approxequal" unicode="&#x2248;" horiz-adv-x="617" 
d="M121 357l-56 60c24 54 81 101 142 101c85 0 129 -52 198 -52c35 0 69 19 92 47l56 -60c-24 -54 -81 -101 -142 -101c-85 0 -128 52 -198 52c-35 0 -69 -19 -92 -47zM120 157l-56 60c24 54 81 101 142 101c85 0 129 -52 198 -52c35 0 69 19 92 47l56 -60
c-24 -54 -81 -101 -142 -101c-85 0 -128 52 -198 52c-35 0 -69 -19 -92 -47z" />
    <glyph glyph-name="notequal" unicode="&#x2260;" horiz-adv-x="565" 
d="M75 347v92h228l61 107l80 -46l-35 -61h81v-92h-134l-42 -74h176v-92h-228l-61 -107l-80 46l35 61h-81v92h134l42 74h-176z" />
    <glyph glyph-name="pi" unicode="&#x3c0;" horiz-adv-x="608" 
d="M53 410v94h501v-94h-85v-410h-104v410h-123v-410h-104v410h-85z" />
    <glyph glyph-name="lessequal" unicode="&#x2264;" horiz-adv-x="565" 
d="M98 350v104l364 192v-111l-254 -133l254 -133v-111zM52 0v92h457v-92h-457z" />
    <glyph glyph-name="greaterequal" unicode="&#x2265;" horiz-adv-x="565" 
d="M467 454v-104l-364 -192v111l254 133l-254 133v111zM513 92v-92h-457v92h457z" />
    <glyph glyph-name="lozenge" unicode="&#x25ca;" horiz-adv-x="590" 
d="M245 0l-181 350l181 350h100l181 -350l-181 -350h-100zM295 90l128 260l-128 259l-128 -259z" />
    <glyph glyph-name="apple" unicode="&#xf8ff;" horiz-adv-x="780" 
d="M686 617v-595c0 -11 -9 -22 -22 -22c-2 0 -3 0 -7 1l-267 77l-267 -77c-4 -1 -5 -1 -7 -1c-13 0 -22 11 -22 22v595c0 10 7 19 16 22l270 78c3 1 8 2 10 2s7 -1 10 -2l270 -78c9 -3 16 -12 16 -22zM368 366v303l-230 -67c8 -125 106 -225 230 -236zM412 669v-303
c124 11 222 111 230 236zM137 463v-412l231 67v204c-98 8 -183 62 -231 141zM643 51v412c-49 -79 -133 -133 -231 -141v-204z" />
    <glyph glyph-name="No" horiz-adv-x="1250" 
d="M499 700h110v-700h-118l-287 502v-502h-110v700h118l287 -504v504zM705 448c0 142 92 260 248 260s248 -118 248 -260s-92 -260 -248 -260s-248 118 -248 260zM815 448c0 -85 47 -168 138 -168s138 83 138 168s-47 168 -138 168s-138 -83 -138 -168zM731 0v92h445v-92
h-445z" />
    <glyph glyph-name="foursuperior" unicode="&#x2074;" horiz-adv-x="344" 
d="M197 300v71h-167v35l160 294h84v-257h44v-72h-44v-71h-77zM123 443h74v143z" />
    <glyph glyph-name="fivesuperior" unicode="&#x2075;" horiz-adv-x="345" 
d="M45 409l75 10c7 -36 28 -51 58 -51c41 0 61 24 61 63c0 42 -20 69 -61 69c-26 0 -46 -10 -64 -29l-61 13l22 216h217v-72h-152l-12 -82c16 12 42 19 66 19c77 0 125 -56 125 -134c0 -83 -59 -135 -141 -135c-68 0 -126 46 -133 113z" />
    <glyph glyph-name="sixsuperior" unicode="&#x2076;" horiz-adv-x="366" 
d="M200 559c70 0 121 -50 121 -132c0 -77 -56 -131 -137 -131c-82 0 -137 55 -137 131c0 27 6 55 19 78l111 199h88l-89 -149c5 2 15 4 24 4zM184 487c-33 0 -57 -23 -57 -60c0 -34 24 -59 57 -59s57 25 57 59c0 37 -24 60 -57 60z" />
    <glyph glyph-name="sevensuperior" unicode="&#x2077;" horiz-adv-x="338" 
d="M293 700v-30l-152 -370h-80l135 328h-153v72h250z" />
    <glyph glyph-name="eightsuperior" unicode="&#x2078;" horiz-adv-x="356" 
d="M178 704c74 0 120 -49 120 -108c0 -31 -18 -65 -45 -80c30 -16 58 -44 58 -93c0 -78 -54 -127 -133 -127s-133 49 -133 127c0 49 28 77 58 93c-27 15 -45 49 -45 80c0 59 46 108 120 108zM178 478c-35 0 -53 -23 -53 -55s18 -55 53 -55s53 23 53 55s-18 55 -53 55z
M178 646c-29 0 -49 -21 -49 -50s20 -50 49 -50s49 21 49 50s-20 50 -49 50z" />
    <glyph glyph-name="ninesuperior" unicode="&#x2079;" horiz-adv-x="366" 
d="M166 441c-70 0 -121 50 -121 132c0 77 56 131 137 131c82 0 137 -55 137 -131c0 -27 -6 -55 -19 -78l-111 -199h-88l87 147c-5 -2 -15 -2 -22 -2zM182 513c33 0 57 23 57 60c0 34 -24 59 -57 59s-57 -25 -57 -59c0 -37 24 -60 57 -60z" />
    <glyph glyph-name="zerosuperior" unicode="&#x2070;" horiz-adv-x="406" 
d="M203 704c99 0 159 -76 159 -204s-60 -204 -159 -204s-159 76 -159 204s60 204 159 204zM203 632c-43 0 -79 -39 -79 -132s36 -132 79 -132s79 39 79 132s-36 132 -79 132z" />
    <glyph glyph-name="zero.tn" horiz-adv-x="566" 
d="M283 708c165 0 252 -137 252 -358s-87 -358 -252 -358s-252 137 -252 358s87 358 252 358zM283 612c-99 0 -146 -98 -146 -262s47 -262 146 -262s146 98 146 262s-47 262 -146 262z" />
    <glyph glyph-name="one.tn" horiz-adv-x="566" 
d="M320 700h43v-700h-106v550l-131 -78v112z" />
    <glyph glyph-name="two.tn" horiz-adv-x="566" 
d="M61 0v44l258 331c45 57 56 88 56 130c0 64 -32 107 -96 107c-61 0 -96 -44 -104 -107l-100 19c7 104 91 184 204 184c118 0 203 -74 203 -199c0 -54 -18 -109 -58 -160l-199 -253h270v-96h-434z" />
    <glyph glyph-name="three.tn" horiz-adv-x="566" 
d="M56 193l103 13c12 -74 53 -118 126 -118c72 0 125 47 125 135c0 91 -54 137 -125 137c-21 0 -39 -4 -61 -14l-42 56l145 202h-237v96h390v-36l-170 -232c8 2 20 3 29 3c108 0 177 -90 177 -212c0 -134 -102 -231 -231 -231c-120 0 -221 84 -229 201z" />
    <glyph glyph-name="four.tn" horiz-adv-x="566" 
d="M340 0v140h-302v48l296 512h112v-464h82v-96h-82v-140h-106zM170 236h170v304z" />
    <glyph glyph-name="five.tn" horiz-adv-x="566" 
d="M65 183l103 19c12 -83 59 -114 115 -114c76 0 117 57 117 140c0 82 -38 140 -117 140c-53 0 -101 -28 -134 -72l-69 14l39 390h348v-96h-259l-21 -175c24 20 64 35 102 35c141 0 217 -101 217 -236c0 -136 -85 -236 -223 -236c-116 0 -204 69 -218 191z" />
    <glyph glyph-name="six.tn" horiz-adv-x="566" 
d="M287 448c129 0 218 -96 218 -228c0 -128 -94 -228 -224 -228s-224 100 -224 228c0 47 13 90 34 127l208 361h118l-153 -264c6 3 16 4 23 4zM281 352c-70 0 -118 -50 -118 -132c0 -77 49 -132 118 -132c70 0 118 55 118 132c0 82 -48 132 -118 132z" />
    <glyph glyph-name="seven.tn" horiz-adv-x="566" 
d="M489 700v-48l-268 -652h-106l249 604h-289v96h414z" />
    <glyph glyph-name="eight.tn" horiz-adv-x="566" 
d="M283 708c117 0 198 -85 198 -189c0 -58 -28 -108 -70 -142c57 -33 96 -91 96 -171c0 -135 -104 -214 -224 -214s-224 79 -224 214c0 80 39 138 96 171c-43 34 -70 84 -70 142c0 104 81 189 198 189zM283 320c-65 0 -118 -40 -118 -114s53 -118 118 -118s118 44 118 118
s-53 114 -118 114zM283 616c-55 0 -95 -42 -95 -98c0 -57 40 -99 95 -99s95 42 95 99c0 56 -40 98 -95 98z" />
    <glyph glyph-name="nine.tn" horiz-adv-x="566" 
d="M279 252c-129 0 -218 96 -218 228c0 128 94 228 224 228s224 -100 224 -228c0 -47 -13 -90 -34 -127l-208 -361h-118l153 264c-6 -3 -16 -4 -23 -4zM285 348c70 0 118 50 118 132c0 77 -49 132 -118 132c-70 0 -118 -55 -118 -132c0 -82 48 -132 118 -132z" />
    <glyph glyph-name="zeroinferior" unicode="&#x2080;" horiz-adv-x="406" 
d="M203 200c99 0 159 -76 159 -204s-60 -204 -159 -204s-159 76 -159 204s60 204 159 204zM203 128c-43 0 -79 -39 -79 -132s36 -132 79 -132s79 39 79 132s-36 132 -79 132z" />
    <glyph glyph-name="oneinferior" unicode="&#x2081;" horiz-adv-x="298" 
d="M185 196h30v-400h-77v292l-84 -40v85z" />
    <glyph glyph-name="twoinferior" unicode="&#x2082;" horiz-adv-x="381" 
d="M58 -204v30l151 186c20 25 25 44 25 67c0 31 -19 49 -45 49s-50 -15 -54 -60l-73 20c7 65 59 112 127 112c76 0 125 -45 125 -119c0 -40 -15 -72 -39 -101l-92 -112h139v-72h-264z" />
    <glyph glyph-name="threeinferior" unicode="&#x2083;" horiz-adv-x="388" 
d="M58 -87l70 10c6 -39 33 -59 65 -59c37 0 56 25 56 67c0 40 -22 61 -56 61c-14 0 -28 -5 -38 -12l-36 47l73 97h-117v72h230v-29l-91 -120c68 0 115 -51 115 -119c0 -80 -46 -136 -136 -136c-78 0 -131 52 -135 121z" />
    <glyph glyph-name="fourinferior" unicode="&#x2084;" horiz-adv-x="344" 
d="M197 -204v71h-167v35l160 294h84v-257h44v-72h-44v-71h-77zM123 -61h74v143z" />
    <glyph glyph-name="fiveinferior" unicode="&#x2085;" horiz-adv-x="345" 
d="M45 -95l75 10c7 -36 28 -51 58 -51c41 0 61 24 61 63c0 42 -20 69 -61 69c-26 0 -46 -10 -64 -29l-61 13l22 216h217v-72h-152l-12 -82c16 12 42 19 66 19c77 0 125 -56 125 -134c0 -83 -59 -135 -141 -135c-68 0 -126 46 -133 113z" />
    <glyph glyph-name="sixinferior" unicode="&#x2086;" horiz-adv-x="366" 
d="M200 55c70 0 121 -50 121 -132c0 -77 -56 -131 -137 -131c-82 0 -137 55 -137 131c0 27 6 55 19 78l111 199h88l-89 -149c5 2 15 4 24 4zM184 -17c-33 0 -57 -23 -57 -60c0 -34 24 -59 57 -59s57 25 57 59c0 37 -24 60 -57 60z" />
    <glyph glyph-name="seveninferior" unicode="&#x2087;" horiz-adv-x="338" 
d="M293 196v-30l-152 -370h-80l135 328h-153v72h250z" />
    <glyph glyph-name="eightinferior" unicode="&#x2088;" horiz-adv-x="356" 
d="M178 200c74 0 120 -49 120 -108c0 -31 -18 -65 -45 -80c30 -16 58 -44 58 -93c0 -78 -54 -127 -133 -127s-133 49 -133 127c0 49 28 77 58 93c-27 15 -45 49 -45 80c0 59 46 108 120 108zM178 -26c-35 0 -53 -23 -53 -55s18 -55 53 -55s53 23 53 55s-18 55 -53 55z
M178 142c-29 0 -49 -21 -49 -50s20 -50 49 -50s49 21 49 50s-20 50 -49 50z" />
    <glyph glyph-name="nineinferior" unicode="&#x2089;" horiz-adv-x="366" 
d="M166 -59c-70 0 -121 50 -121 132c0 77 56 131 137 131c82 0 137 -55 137 -131c0 -27 -6 -55 -19 -78l-111 -199h-88l87 148c-5 -2 -15 -3 -22 -3zM182 13c33 0 57 23 57 60c0 34 -24 59 -57 59s-57 -25 -57 -59c0 -37 24 -60 57 -60z" />
    <glyph glyph-name="onethird" unicode="&#x2153;" horiz-adv-x="908" 
d="M663 733l58 -45l-539 -720l-58 45zM205 700h30v-400h-77v292l-84 -40v85zM561 117l70 10c6 -39 33 -59 65 -59c37 0 56 25 56 67c0 40 -22 61 -56 61c-14 0 -28 -5 -38 -12l-36 47l73 97h-117v72h230v-29l-91 -120c68 0 115 -51 115 -119c0 -80 -46 -136 -136 -136
c-78 0 -131 52 -135 121z" />
    <glyph glyph-name="twothirds" unicode="&#x2154;" horiz-adv-x="935" 
d="M588 117l70 10c6 -39 33 -59 65 -59c37 0 56 25 56 67c0 40 -22 61 -56 61c-14 0 -28 -5 -38 -12l-36 47l73 97h-117v72h230v-29l-91 -120c68 0 115 -51 115 -119c0 -80 -46 -136 -136 -136c-78 0 -131 52 -135 121zM694 733l58 -45l-539 -720l-58 45zM38 300v30l151 186
c20 25 25 44 25 67c0 31 -19 49 -45 49s-50 -15 -54 -60l-73 20c7 65 59 112 127 112c76 0 125 -45 125 -119c0 -40 -15 -72 -39 -101l-92 -112h139v-72h-264z" />
    <glyph glyph-name="oneeighth" unicode="&#x215b;" horiz-adv-x="880" 
d="M205 700h30v-400h-77v292l-84 -40v85zM663 733l58 -45l-539 -720l-58 45zM678 404c74 0 120 -49 120 -108c0 -31 -18 -65 -45 -80c30 -16 58 -44 58 -93c0 -78 -54 -127 -133 -127s-133 49 -133 127c0 49 28 77 58 93c-27 15 -45 49 -45 80c0 59 46 108 120 108zM678 178
c-35 0 -53 -23 -53 -55s18 -55 53 -55s53 23 53 55s-18 55 -53 55zM678 346c-29 0 -49 -21 -49 -50s20 -50 49 -50s49 21 49 50s-20 50 -49 50z" />
    <glyph glyph-name="threeeighths" unicode="&#x215c;" horiz-adv-x="907" 
d="M705 404c74 0 120 -49 120 -108c0 -31 -18 -65 -45 -80c30 -16 58 -44 58 -93c0 -78 -54 -127 -133 -127s-133 49 -133 127c0 49 28 77 58 93c-27 15 -45 49 -45 80c0 59 46 108 120 108zM705 178c-35 0 -53 -23 -53 -55s18 -55 53 -55s53 23 53 55s-18 55 -53 55z
M705 346c-29 0 -49 -21 -49 -50s20 -50 49 -50s49 21 49 50s-20 50 -49 50zM690 733l58 -45l-539 -720l-58 45zM58 417l70 10c6 -39 33 -59 65 -59c37 0 56 25 56 67c0 40 -22 61 -56 61c-14 0 -28 -5 -38 -12l-36 47l73 97h-117v72h230v-29l-91 -120c68 0 115 -51 115 -119
c0 -80 -46 -136 -136 -136c-78 0 -131 52 -135 121z" />
    <glyph glyph-name="fiveeighths" unicode="&#x215d;" horiz-adv-x="907" 
d="M705 404c74 0 120 -49 120 -108c0 -31 -18 -65 -45 -80c30 -16 58 -44 58 -93c0 -78 -54 -127 -133 -127s-133 49 -133 127c0 49 28 77 58 93c-27 15 -45 49 -45 80c0 59 46 108 120 108zM705 178c-35 0 -53 -23 -53 -55s18 -55 53 -55s53 23 53 55s-18 55 -53 55z
M705 346c-29 0 -49 -21 -49 -50s20 -50 49 -50s49 21 49 50s-20 50 -49 50zM690 733l58 -45l-539 -720l-58 45zM45 409l75 10c7 -36 28 -51 58 -51c41 0 61 24 61 63c0 42 -20 69 -61 69c-26 0 -46 -10 -64 -29l-61 13l22 216h217v-72h-152l-12 -82c16 12 42 19 66 19
c77 0 125 -56 125 -134c0 -83 -59 -135 -141 -135c-68 0 -126 46 -133 113z" />
    <glyph glyph-name="seveneighths" unicode="&#x215e;" horiz-adv-x="843" 
d="M641 404c74 0 120 -49 120 -108c0 -31 -18 -65 -45 -80c30 -16 58 -44 58 -93c0 -78 -54 -127 -133 -127s-133 49 -133 127c0 49 28 77 58 93c-27 15 -45 49 -45 80c0 59 46 108 120 108zM641 178c-35 0 -53 -23 -53 -55s18 -55 53 -55s53 23 53 55s-18 55 -53 55z
M641 346c-29 0 -49 -21 -49 -50s20 -50 49 -50s49 21 49 50s-20 50 -49 50zM626 733l58 -45l-539 -720l-58 45zM306 700v-30l-152 -370h-80l135 328h-153v72h250z" />
    <glyph glyph-name="ellipsis" unicode="&#x2026;" horiz-adv-x="854" 
d="M159 143c41 0 74 -32 74 -74s-33 -74 -74 -74s-74 32 -74 74s33 74 74 74zM427 143c41 0 74 -32 74 -74s-33 -74 -74 -74s-74 32 -74 74s33 74 74 74zM695 143c41 0 74 -32 74 -74s-33 -74 -74 -74s-74 32 -74 74s33 74 74 74z" />
    <glyph glyph-name="quotedblleft.alt" horiz-adv-x="490" 
d="M396 708l24 -29c-40 -34 -71 -67 -71 -108c38 -14 52 -41 52 -68c0 -38 -28 -68 -69 -68c-46 0 -73 33 -73 72c0 86 63 152 137 201zM196 708l24 -29c-40 -34 -71 -67 -71 -108c38 -14 52 -41 52 -68c0 -38 -28 -68 -69 -68c-46 0 -73 33 -73 72c0 86 63 152 137 201z
" />
    <glyph glyph-name="quotedblright.alt" horiz-adv-x="490" 
d="M94 435l-24 29c40 34 71 67 71 108c-38 14 -52 41 -52 68c0 38 28 68 69 68c46 0 73 -33 73 -72c0 -86 -63 -152 -137 -201zM294 435l-24 29c40 34 71 67 71 108c-38 14 -52 41 -52 68c0 38 28 68 69 68c46 0 73 -33 73 -72c0 -86 -63 -152 -137 -201z" />
    <glyph glyph-name="quoteleft.alt" horiz-adv-x="290" 
d="M196 708l24 -29c-40 -34 -71 -67 -71 -108c38 -14 52 -41 52 -68c0 -38 -28 -68 -69 -68c-46 0 -73 33 -73 72c0 86 63 152 137 201z" />
    <glyph glyph-name="quoteright.alt" horiz-adv-x="290" 
d="M94 435l-24 29c40 34 71 67 71 108c-38 14 -52 41 -52 68c0 38 28 68 69 68c46 0 73 -33 73 -72c0 -86 -63 -152 -137 -201z" />
    <glyph glyph-name="quotesinglbase.alt" horiz-adv-x="290" 
d="M94 -111l-24 29c40 34 71 67 71 108c-38 14 -52 41 -52 68c0 38 28 68 69 68c46 0 73 -33 73 -72c0 -86 -63 -152 -137 -201z" />
    <glyph glyph-name="quotedblbase.alt" horiz-adv-x="490" 
d="M94 -111l-24 29c40 34 71 67 71 108c-38 14 -52 41 -52 68c0 38 28 68 69 68c46 0 73 -33 73 -72c0 -86 -63 -152 -137 -201zM294 -111l-24 29c40 34 71 67 71 108c-38 14 -52 41 -52 68c0 38 28 68 69 68c46 0 73 -33 73 -72c0 -86 -63 -152 -137 -201z" />
    <glyph glyph-name="quotedbl" unicode="&#x22;" horiz-adv-x="469" 
d="M114 469l-30 239h130l-30 -239h-70zM285 469l-30 239h130l-30 -239h-70z" />
    <glyph glyph-name="exclam" unicode="!" horiz-adv-x="351" 
d="M107 700h142l-27 -479h-88zM102 71c0 43 32 75 76 75s76 -32 76 -75s-32 -75 -76 -75s-76 32 -76 75z" />
    <glyph glyph-name="Amacron" unicode="&#x100;" horiz-adv-x="608" 
d="M252 700h104l243 -700h-112l-58 174h-250l-58 -174h-112zM304 561l-92 -283h184zM176 804v92h257v-92h-257z" />
    <glyph glyph-name="amacron" unicode="&#x101;" horiz-adv-x="514" 
d="M44 145c0 104 89 165 218 165h87v22c0 63 -45 88 -98 88c-41 0 -77 -22 -94 -67l-95 20c21 85 93 139 190 139c117 0 201 -51 201 -199v-313h-88l-10 66c-33 -46 -85 -74 -156 -74c-84 0 -155 48 -155 153zM154 145c0 -34 19 -61 63 -61c64 0 132 41 132 128v11h-91
c-64 0 -104 -30 -104 -78zM132 608v92h257v-92h-257z" />
    <glyph glyph-name="Abreve" unicode="&#x102;" horiz-adv-x="608" 
d="M252 700h104l243 -700h-112l-58 174h-250l-58 -174h-112zM304 561l-92 -283h184zM338 896h81c0 -58 -46 -109 -115 -109s-115 51 -115 109h81c0 -21 15 -35 34 -35c20 0 34 14 34 35z" />
    <glyph glyph-name="abreve" unicode="&#x103;" horiz-adv-x="514" 
d="M44 145c0 104 89 165 218 165h87v22c0 63 -45 88 -98 88c-41 0 -77 -22 -94 -67l-95 20c21 85 93 139 190 139c117 0 201 -51 201 -199v-313h-88l-10 66c-33 -46 -85 -74 -156 -74c-84 0 -155 48 -155 153zM154 145c0 -34 19 -61 63 -61c64 0 132 41 132 128v11h-91
c-64 0 -104 -30 -104 -78zM294 700h81c0 -58 -46 -109 -115 -109s-115 51 -115 109h81c0 -21 15 -35 34 -35c20 0 34 14 34 35z" />
    <glyph glyph-name="Aogonek" unicode="&#x104;" horiz-adv-x="608" 
d="M530 0h-43l-58 174h-250l-58 -174h-112l243 700h104l243 -700c-34 -30 -56 -57 -56 -79c0 -18 11 -29 28 -29c22 0 32 14 52 41l48 -39c-32 -48 -61 -74 -113 -74c-56 0 -91 32 -91 85c0 39 25 70 63 95zM304 561l-92 -283h184z" />
    <glyph glyph-name="aogonek" unicode="&#x105;" horiz-adv-x="514" 
d="M378 0l-23 66c-33 -46 -85 -74 -156 -74c-84 0 -155 48 -155 153c0 104 89 165 218 165h87v22c0 63 -45 88 -98 88c-41 0 -77 -22 -94 -67l-95 20c21 85 93 139 190 139c117 0 201 -51 201 -199v-313c-34 -30 -56 -57 -56 -79c0 -18 11 -29 28 -29c22 0 32 14 52 41
l48 -39c-32 -48 -61 -74 -113 -74c-56 0 -91 32 -91 85c0 39 21 70 57 95zM154 145c0 -34 19 -61 63 -61c64 0 132 41 132 128v11h-91c-64 0 -104 -30 -104 -78z" />
    <glyph glyph-name="AEacute" unicode="&#x1fc;" horiz-adv-x="848" 
d="M312 700h477v-104h-305v-172h246v-104h-246v-216h315v-104h-425v174h-179l-73 -174h-112zM357 561l-118 -283h135v283h-17zM469 756l68 148h141l-129 -148h-80z" />
    <glyph glyph-name="aeacute" unicode="&#x1fd;" horiz-adv-x="859" 
d="M816 268v-45h-357c0 -74 43 -139 125 -139c54 0 106 30 132 85l89 -35c-49 -95 -106 -142 -221 -142c-98 0 -163 48 -199 113c-42 -87 -119 -113 -186 -113c-84 0 -155 48 -155 153c0 104 89 165 218 165h87v22c0 65 -48 88 -101 88c-41 0 -80 -19 -96 -66l-88 19
c18 85 86 139 184 139c72 0 133 -20 169 -69c38 41 93 69 167 69c161 0 232 -131 232 -244zM154 145c0 -34 19 -61 63 -61c64 0 132 41 132 128v15h-91c-64 0 -104 -34 -104 -82zM584 420c-69 0 -112 -47 -123 -110h245c-9 56 -47 110 -122 110zM353 560l68 148h141
l-129 -148h-80z" />
    <glyph glyph-name="Aringacute" unicode="&#x1fa;" horiz-adv-x="608" 
d="M252 700h104l243 -700h-112l-58 174h-250l-58 -174h-112zM304 561l-92 -283h184zM232 956l68 148h141l-129 -148h-80zM203 823c0 57 44 102 101 102c59 0 101 -45 101 -102c0 -55 -42 -98 -101 -98c-57 0 -101 43 -101 98zM268 824c0 -21 15 -37 36 -37c22 0 36 16 36 37
c0 22 -14 39 -36 39c-21 0 -36 -17 -36 -39z" />
    <glyph glyph-name="aringacute" unicode="&#x1fb;" horiz-adv-x="514" 
d="M44 145c0 104 89 165 218 165h87v22c0 63 -45 88 -98 88c-41 0 -77 -22 -94 -67l-95 20c21 85 93 139 190 139c117 0 201 -51 201 -199v-313h-88l-10 66c-33 -46 -85 -74 -156 -74c-84 0 -155 48 -155 153zM154 145c0 -34 19 -61 63 -61c64 0 132 41 132 128v11h-91
c-64 0 -104 -30 -104 -78zM150 653c0 57 44 102 101 102c59 0 101 -45 101 -102c0 -55 -42 -98 -101 -98c-57 0 -101 43 -101 98zM215 654c0 -21 15 -37 36 -37c22 0 36 16 36 37c0 22 -14 39 -36 39c-21 0 -36 -17 -36 -39zM182 786l68 148h141l-129 -148h-80z" />
    <glyph glyph-name="Cacute" unicode="&#x106;" horiz-adv-x="695" 
d="M658 496l-104 -26c-35 89 -84 134 -179 134c-118 0 -212 -83 -212 -254s94 -254 212 -254c95 0 144 45 179 134l104 -26c-36 -132 -134 -212 -283 -212c-169 0 -324 121 -324 358s155 358 324 358c149 0 247 -80 283 -212zM305 756l68 148h141l-129 -148h-80z" />
    <glyph glyph-name="cacute" unicode="&#x107;" horiz-adv-x="542" 
d="M411 171l93 -40c-40 -91 -111 -139 -218 -139c-160 0 -237 122 -237 260s77 260 237 260c107 0 178 -48 218 -139l-93 -40c-24 54 -65 87 -125 87c-89 0 -127 -73 -127 -168s38 -168 127 -168c60 0 101 33 125 87zM206 560l68 148h141l-129 -148h-80z" />
    <glyph glyph-name="Ccircumflex" unicode="&#x108;" horiz-adv-x="695" 
d="M658 496l-104 -26c-35 89 -84 134 -179 134c-118 0 -212 -83 -212 -254s94 -254 212 -254c95 0 144 45 179 134l104 -26c-36 -132 -134 -212 -283 -212c-169 0 -324 121 -324 358s155 358 324 358c149 0 247 -80 283 -212zM201 762l162 176h30l162 -176h-100l-77 80
l-77 -80h-100z" />
    <glyph glyph-name="ccircumflex" unicode="&#x109;" horiz-adv-x="542" 
d="M411 171l93 -40c-40 -91 -111 -139 -218 -139c-160 0 -237 122 -237 260s77 260 237 260c107 0 178 -48 218 -139l-93 -40c-24 54 -65 87 -125 87c-89 0 -127 -73 -127 -168s38 -168 127 -168c60 0 101 33 125 87zM109 566l162 176h30l162 -176h-100l-77 80l-77 -80h-100
z" />
    <glyph glyph-name="Cdotaccent" unicode="&#x10a;" horiz-adv-x="695" 
d="M658 496l-104 -26c-35 89 -84 134 -179 134c-118 0 -212 -83 -212 -254s94 -254 212 -254c95 0 144 45 179 134l104 -26c-36 -132 -134 -212 -283 -212c-169 0 -324 121 -324 358s155 358 324 358c149 0 247 -80 283 -212zM303 842c0 40 31 73 72 73s72 -33 72 -73
s-31 -71 -72 -71s-72 31 -72 71z" />
    <glyph glyph-name="cdotaccent" unicode="&#x10b;" horiz-adv-x="542" 
d="M411 171l93 -40c-40 -91 -111 -139 -218 -139c-160 0 -237 122 -237 260s77 260 237 260c107 0 178 -48 218 -139l-93 -40c-24 54 -65 87 -125 87c-89 0 -127 -73 -127 -168s38 -168 127 -168c60 0 101 33 125 87zM214 646c0 40 31 73 72 73s72 -33 72 -73
s-31 -71 -72 -71s-72 31 -72 71z" />
    <glyph glyph-name="Ccaron" unicode="&#x10c;" horiz-adv-x="695" 
d="M658 496l-104 -26c-35 89 -84 134 -179 134c-118 0 -212 -83 -212 -254s94 -254 212 -254c95 0 144 45 179 134l104 -26c-36 -132 -134 -212 -283 -212c-169 0 -324 121 -324 358s155 358 324 358c149 0 247 -80 283 -212zM360 762l-162 176h100l77 -80l77 80h100
l-162 -176h-30z" />
    <glyph glyph-name="ccaron" unicode="&#x10d;" horiz-adv-x="542" 
d="M411 171l93 -40c-40 -91 -111 -139 -218 -139c-160 0 -237 122 -237 260s77 260 237 260c107 0 178 -48 218 -139l-93 -40c-24 54 -65 87 -125 87c-89 0 -127 -73 -127 -168s38 -168 127 -168c60 0 101 33 125 87zM271 566l-162 176h100l77 -80l77 80h100l-162 -176h-30z
" />
    <glyph glyph-name="Dcaron" unicode="&#x10e;" horiz-adv-x="673" 
d="M94 700h206c168 0 322 -114 322 -350s-154 -350 -322 -350h-206v700zM268 596h-64v-492h64c122 0 242 55 242 246s-120 246 -242 246zM268 762l-162 176h100l77 -80l77 80h100l-162 -176h-30z" />
    <glyph glyph-name="dcaron" unicode="&#x10f;" horiz-adv-x="787" 
d="M49 252c0 156 76 260 227 260c50 0 112 -31 135 -64v260h104v-708h-104v58c-17 -29 -71 -66 -137 -66c-149 0 -225 99 -225 260zM159 252c0 -104 54 -168 129 -168s129 64 129 168s-54 168 -129 168s-129 -64 -129 -168zM563 486l74 222h143l-139 -222h-78z" />
    <glyph glyph-name="Dcroat" unicode="&#x110;" horiz-adv-x="673" 
d="M28 304v92h82v304h206c168 0 322 -114 322 -350s-154 -350 -322 -350h-206v304h-82zM284 596h-64v-200h82v-92h-82v-200h64c122 0 242 55 242 246s-120 246 -242 246z" />
    <glyph glyph-name="dcroat" unicode="&#x111;" horiz-adv-x="601" 
d="M290 563v84h121v61h104v-61h71v-84h-71v-563h-104v58c-17 -29 -71 -66 -137 -66c-149 0 -225 99 -225 260c0 156 76 260 227 260c50 0 112 -31 135 -64v115h-121zM159 252c0 -104 54 -168 129 -168s129 64 129 168s-54 168 -129 168s-129 -64 -129 -168z" />
    <glyph glyph-name="Emacron" unicode="&#x112;" horiz-adv-x="568" 
d="M94 700h415v-104h-305v-172h246v-104h-246v-216h315v-104h-425v700zM176 804v92h257v-92h-257z" />
    <glyph glyph-name="emacron" unicode="&#x113;" horiz-adv-x="559" 
d="M284 420c-69 0 -112 -47 -123 -110h245c-9 56 -47 110 -122 110zM516 268v-45h-357c0 -74 43 -139 125 -139c54 0 106 30 132 85l89 -35c-49 -95 -106 -142 -221 -142c-166 0 -235 140 -235 260s69 260 235 260c161 0 232 -131 232 -244zM157 608v92h257v-92h-257z" />
    <glyph glyph-name="Ebreve" unicode="&#x114;" horiz-adv-x="568" 
d="M94 700h415v-104h-305v-172h246v-104h-246v-216h315v-104h-425v700zM328 896h81c0 -58 -46 -109 -115 -109s-115 51 -115 109h81c0 -21 15 -35 34 -35c20 0 34 14 34 35z" />
    <glyph glyph-name="ebreve" unicode="&#x115;" horiz-adv-x="559" 
d="M284 420c-69 0 -112 -47 -123 -110h245c-9 56 -47 110 -122 110zM516 268v-45h-357c0 -74 43 -139 125 -139c54 0 106 30 132 85l89 -35c-49 -95 -106 -142 -221 -142c-166 0 -235 140 -235 260s69 260 235 260c161 0 232 -131 232 -244zM318 700h81
c0 -58 -46 -109 -115 -109s-115 51 -115 109h81c0 -21 15 -35 34 -35c20 0 34 14 34 35z" />
    <glyph glyph-name="Edotaccent" unicode="&#x116;" horiz-adv-x="568" 
d="M94 700h415v-104h-305v-172h246v-104h-246v-216h315v-104h-425v700zM233 842c0 40 31 73 72 73s72 -33 72 -73s-31 -71 -72 -71s-72 31 -72 71z" />
    <glyph glyph-name="edotaccent" unicode="&#x117;" horiz-adv-x="559" 
d="M284 420c-69 0 -112 -47 -123 -110h245c-9 56 -47 110 -122 110zM516 268v-45h-357c0 -74 43 -139 125 -139c54 0 106 30 132 85l89 -35c-49 -95 -106 -142 -221 -142c-166 0 -235 140 -235 260s69 260 235 260c161 0 232 -131 232 -244zM212 646c0 40 31 73 72 73
s72 -33 72 -73s-31 -71 -72 -71s-72 31 -72 71z" />
    <glyph glyph-name="Eogonek" unicode="&#x118;" horiz-adv-x="568" 
d="M450 0h-356v700h415v-104h-305v-172h246v-104h-246v-216h315v-104c-34 -30 -56 -57 -56 -79c0 -18 11 -29 28 -29c22 0 32 14 52 41l48 -39c-32 -48 -61 -74 -113 -74c-56 0 -91 32 -91 85c0 39 25 70 63 95z" />
    <glyph glyph-name="eogonek" unicode="&#x119;" horiz-adv-x="559" 
d="M516 268v-45h-357c0 -74 43 -139 125 -139c54 0 106 30 132 85l89 -35c-38 -73 -80 -117 -148 -134c-34 -30 -56 -57 -56 -79c0 -18 11 -29 28 -29c22 0 32 14 52 41l48 -39c-32 -48 -61 -74 -113 -74c-56 0 -91 32 -91 85c0 35 20 63 51 87c-162 6 -227 142 -227 260
c0 120 69 260 235 260c161 0 232 -131 232 -244zM284 420c-69 0 -112 -47 -123 -110h245c-9 56 -47 110 -122 110z" />
    <glyph glyph-name="Ecaron" unicode="&#x11a;" horiz-adv-x="568" 
d="M94 700h415v-104h-305v-172h246v-104h-246v-216h315v-104h-425v700zM279 762l-162 176h100l77 -80l77 80h100l-162 -176h-30z" />
    <glyph glyph-name="ecaron" unicode="&#x11b;" horiz-adv-x="559" 
d="M284 420c-69 0 -112 -47 -123 -110h245c-9 56 -47 110 -122 110zM516 268v-45h-357c0 -74 43 -139 125 -139c54 0 106 30 132 85l89 -35c-49 -95 -106 -142 -221 -142c-166 0 -235 140 -235 260s69 260 235 260c161 0 232 -131 232 -244zM269 566l-162 176h100l77 -80
l77 80h100l-162 -176h-30z" />
    <glyph glyph-name="uni018E" unicode="&#x18e;" horiz-adv-x="568" 
d="M474 0h-415v104h305v172h-246v104h246v216h-315v104h425v-700z" />
    <glyph glyph-name="uni018F" unicode="&#x18f;" horiz-adv-x="559" 
d="M275 84c69 0 112 47 123 110h-245c9 -56 47 -110 122 -110zM43 236v45h357c0 74 -43 139 -125 139c-54 0 -106 -30 -132 -85l-89 35c49 95 106 142 221 142c166 0 235 -140 235 -260s-69 -260 -235 -260c-161 0 -232 131 -232 244z" />
    <glyph glyph-name="Gcircumflex" unicode="&#x11c;" horiz-adv-x="720" 
d="M561 0l-8 87c-25 -43 -85 -95 -184 -95c-164 0 -318 112 -318 358s156 358 324 358c150 0 251 -90 279 -216l-101 -31c-34 97 -95 143 -178 143c-120 0 -212 -84 -212 -254c0 -175 92 -254 212 -254c110 0 163 75 172 160h-136v97h246v-353h-96zM198 762l162 176h30
l162 -176h-100l-77 80l-77 -80h-100z" />
    <glyph glyph-name="gcircumflex" unicode="&#x11d;" horiz-adv-x="511" 
d="M87 343c0 105 78 169 180 169c34 0 65 -8 92 -22l93 50l42 -75l-68 -38c14 -24 22 -52 22 -84c0 -106 -79 -169 -181 -169c-30 0 -58 6 -81 15c-18 -10 -27 -25 -27 -44c0 -27 17 -39 52 -39h111c99 0 167 -49 167 -144c0 -125 -108 -174 -221 -174
c-127 0 -222 56 -222 166c0 43 17 78 43 102c-18 18 -29 44 -29 79c0 45 24 81 61 102c-22 27 -34 63 -34 106zM300 18h-81c-18 0 -35 1 -51 3c-15 -16 -22 -35 -22 -61c0 -50 45 -82 122 -82c72 0 115 27 115 76c0 48 -34 64 -83 64zM188 343c0 -50 33 -82 79 -82
c47 0 80 32 80 82s-33 82 -80 82c-46 0 -79 -32 -79 -82zM90 566l162 176h30l162 -176h-100l-77 80l-77 -80h-100z" />
    <glyph glyph-name="Gbreve" unicode="&#x11e;" horiz-adv-x="720" 
d="M561 0l-8 87c-25 -43 -85 -95 -184 -95c-164 0 -318 112 -318 358s156 358 324 358c150 0 251 -90 279 -216l-101 -31c-34 97 -95 143 -178 143c-120 0 -212 -84 -212 -254c0 -175 92 -254 212 -254c110 0 163 75 172 160h-136v97h246v-353h-96zM409 896h81
c0 -58 -46 -109 -115 -109s-115 51 -115 109h81c0 -21 15 -35 34 -35c20 0 34 14 34 35z" />
    <glyph glyph-name="gbreve" unicode="&#x11f;" horiz-adv-x="511" 
d="M87 343c0 105 78 169 180 169c34 0 65 -8 92 -22l93 50l42 -75l-68 -38c14 -24 22 -52 22 -84c0 -106 -79 -169 -181 -169c-30 0 -58 6 -81 15c-18 -10 -27 -25 -27 -44c0 -27 17 -39 52 -39h111c99 0 167 -49 167 -144c0 -125 -108 -174 -221 -174
c-127 0 -222 56 -222 166c0 43 17 78 43 102c-18 18 -29 44 -29 79c0 45 24 81 61 102c-22 27 -34 63 -34 106zM300 18h-81c-18 0 -35 1 -51 3c-15 -16 -22 -35 -22 -61c0 -50 45 -82 122 -82c72 0 115 27 115 76c0 48 -34 64 -83 64zM188 343c0 -50 33 -82 79 -82
c47 0 80 32 80 82s-33 82 -80 82c-46 0 -79 -32 -79 -82zM301 700h81c0 -58 -46 -109 -115 -109s-115 51 -115 109h81c0 -21 15 -35 34 -35c20 0 34 14 34 35z" />
    <glyph glyph-name="Gdotaccent" unicode="&#x120;" horiz-adv-x="720" 
d="M561 0l-8 87c-25 -43 -85 -95 -184 -95c-164 0 -318 112 -318 358s156 358 324 358c150 0 251 -90 279 -216l-101 -31c-34 97 -95 143 -178 143c-120 0 -212 -84 -212 -254c0 -175 92 -254 212 -254c110 0 163 75 172 160h-136v97h246v-353h-96zM303 842
c0 40 31 73 72 73s72 -33 72 -73s-31 -71 -72 -71s-72 31 -72 71z" />
    <glyph glyph-name="gdotaccent" unicode="&#x121;" horiz-adv-x="511" 
d="M87 343c0 105 78 169 180 169c34 0 65 -8 92 -22l93 50l42 -75l-68 -38c14 -24 22 -52 22 -84c0 -106 -79 -169 -181 -169c-30 0 -58 6 -81 15c-18 -10 -27 -25 -27 -44c0 -27 17 -39 52 -39h111c99 0 167 -49 167 -144c0 -125 -108 -174 -221 -174
c-127 0 -222 56 -222 166c0 43 17 78 43 102c-18 18 -29 44 -29 79c0 45 24 81 61 102c-22 27 -34 63 -34 106zM300 18h-81c-18 0 -35 1 -51 3c-15 -16 -22 -35 -22 -61c0 -50 45 -82 122 -82c72 0 115 27 115 76c0 48 -34 64 -83 64zM188 343c0 -50 33 -82 79 -82
c47 0 80 32 80 82s-33 82 -80 82c-46 0 -79 -32 -79 -82zM195 646c0 40 31 73 72 73s72 -33 72 -73s-31 -71 -72 -71s-72 31 -72 71z" />
    <glyph glyph-name="uni0122" unicode="&#x122;" horiz-adv-x="720" 
d="M561 0l-8 87c-25 -43 -85 -95 -184 -95c-164 0 -318 112 -318 358s156 358 324 358c150 0 251 -90 279 -216l-101 -31c-34 97 -95 143 -178 143c-120 0 -212 -84 -212 -254c0 -175 92 -254 212 -254c110 0 163 75 172 160h-136v97h246v-353h-96zM239 -312l71 260h143
l-136 -260h-78z" />
    <glyph glyph-name="uni0123" unicode="&#x123;" horiz-adv-x="511" 
d="M87 343c0 105 78 169 180 169c34 0 65 -8 92 -22l93 50l42 -75l-68 -38c14 -24 22 -52 22 -84c0 -106 -79 -169 -181 -169c-30 0 -58 6 -81 15c-18 -10 -27 -25 -27 -44c0 -27 17 -39 52 -39h111c99 0 167 -49 167 -144c0 -125 -108 -174 -221 -174
c-127 0 -222 56 -222 166c0 43 17 78 43 102c-18 18 -29 44 -29 79c0 45 24 81 61 102c-22 27 -34 63 -34 106zM300 18h-81c-18 0 -35 1 -51 3c-15 -16 -22 -35 -22 -61c0 -50 45 -82 122 -82c72 0 115 27 115 76c0 48 -34 64 -83 64zM188 343c0 -50 33 -82 79 -82
c47 0 80 32 80 82s-33 82 -80 82c-46 0 -79 -32 -79 -82zM240 798l74 -222h-78l-139 222h143z" />
    <glyph glyph-name="Hcircumflex" unicode="&#x124;" horiz-adv-x="692" 
d="M94 0v700h110v-274h284v274h110v-700h-110v322h-284v-322h-110zM169 762l162 176h30l162 -176h-100l-77 80l-77 -80h-100z" />
    <glyph glyph-name="hcircumflex" unicode="&#x125;" horiz-adv-x="588" 
d="M86 708h104v-290c36 52 94 94 170 94c93 0 149 -50 149 -157v-355h-104v328c0 77 -32 92 -79 92c-57 0 -136 -73 -136 -207v-213h-104v708zM100 762l162 176h30l162 -176h-100l-77 80l-77 -80h-100z" />
    <glyph glyph-name="Hbar" unicode="&#x126;" horiz-adv-x="692" 
d="M18 504v92h76v104h110v-104h284v104h110v-104h76v-92h-76v-504h-110v322h-284v-322h-110v504h-76zM204 426h284v78h-284v-78z" />
    <glyph glyph-name="hbar" unicode="&#x127;" horiz-adv-x="588" 
d="M86 708h104v-61h122v-84h-122v-145c36 52 94 94 170 94c93 0 149 -50 149 -157v-355h-104v328c0 61 -27 92 -79 92c-57 0 -136 -73 -136 -207v-213h-104v563h-68v84h68v61z" />
    <glyph glyph-name="Itilde" unicode="&#x128;" horiz-adv-x="298" 
d="M94 0v700h110v-700h-110zM22 773l-57 47c20 43 66 81 115 81c71 0 79 -41 131 -41c26 0 48 18 66 40l57 -47c-20 -43 -66 -81 -115 -81c-71 0 -79 41 -131 41c-26 0 -48 -18 -66 -40z" />
    <glyph glyph-name="itilde" unicode="&#x129;" horiz-adv-x="266" 
d="M81 504h104v-504h-104v504zM6 577l-57 47c20 43 66 81 115 81c71 0 79 -41 131 -41c26 0 48 18 66 40l57 -47c-20 -43 -66 -81 -115 -81c-71 0 -79 41 -131 41c-26 0 -48 -18 -66 -40z" />
    <glyph glyph-name="Imacron" unicode="&#x12a;" horiz-adv-x="298" 
d="M94 0v700h110v-700h-110zM20 804v92h257v-92h-257z" />
    <glyph glyph-name="imacron" unicode="&#x12b;" horiz-adv-x="266" 
d="M81 504h104v-504h-104v504zM5 608v92h257v-92h-257z" />
    <glyph glyph-name="Ibreve" unicode="&#x12c;" horiz-adv-x="298" 
d="M94 0v700h110v-700h-110zM183 896h81c0 -58 -46 -109 -115 -109s-115 51 -115 109h81c0 -21 15 -35 34 -35c20 0 34 14 34 35z" />
    <glyph glyph-name="ibreve" unicode="&#x12d;" horiz-adv-x="266" 
d="M81 504h104v-504h-104v504zM167 700h81c0 -58 -46 -109 -115 -109s-115 51 -115 109h81c0 -21 15 -35 34 -35c20 0 34 14 34 35z" />
    <glyph glyph-name="Iogonek" unicode="&#x12e;" horiz-adv-x="298" 
d="M94 0v700h110v-700c-34 -30 -56 -57 -56 -79c0 -18 11 -29 28 -29c22 0 32 14 52 41l48 -39c-32 -48 -61 -74 -113 -74c-56 0 -91 32 -91 85c0 39 25 70 63 95h-41z" />
    <glyph glyph-name="iogonek" unicode="&#x12f;" horiz-adv-x="266" 
d="M116 0h-35v504h104v-504c-34 -30 -56 -57 -56 -79c0 -18 11 -29 28 -29c22 0 32 14 52 41l48 -39c-32 -48 -61 -74 -113 -74c-56 0 -91 32 -91 85c0 39 25 70 63 95zM61 646c0 40 31 73 72 73s72 -33 72 -73s-31 -71 -72 -71s-72 31 -72 71z" />
    <glyph glyph-name="Idotaccent" unicode="&#x130;" horiz-adv-x="298" 
d="M94 0v700h110v-700h-110zM77 842c0 40 31 73 72 73s72 -33 72 -73s-31 -71 -72 -71s-72 31 -72 71z" />
    <glyph glyph-name="IJ" unicode="&#x132;" horiz-adv-x="810" 
d="M94 0v700h110v-700h-110zM622 222v478h110v-473c0 -169 -98 -235 -214 -235c-125 0 -199 84 -214 184l111 23c12 -64 47 -103 103 -103c63 0 104 30 104 126z" />
    <glyph glyph-name="ij" unicode="&#x133;" horiz-adv-x="495" 
d="M61 646c0 40 31 73 72 73s72 -33 72 -73s-31 -71 -72 -71s-72 31 -72 71zM81 504h104v-504h-104v504zM290 646c0 40 31 73 72 73s72 -33 72 -73s-31 -71 -72 -71s-72 31 -72 71zM230 -212l-26 91c66 20 106 53 106 134v491h104v-481c0 -137 -65 -208 -184 -235z" />
    <glyph glyph-name="Jcircumflex" unicode="&#x134;" horiz-adv-x="512" 
d="M324 222v478h110v-473c0 -169 -98 -235 -214 -235c-125 0 -199 84 -214 184l111 23c12 -64 47 -103 103 -103c63 0 104 30 104 126zM201 762l162 176h30l162 -176h-100l-77 80l-77 -80h-100z" />
    <glyph glyph-name="jcircumflex" unicode="&#x135;" horiz-adv-x="266" 
d="M1 -212l-26 91c66 20 106 53 106 134v491h104v-481c0 -137 -65 -208 -184 -235zM-44 566l162 176h30l162 -176h-100l-77 80l-77 -80h-100z" />
    <glyph glyph-name="uni0136" unicode="&#x136;" horiz-adv-x="621" 
d="M94 700h110v-269l250 269h134l-282 -313l305 -387h-141l-266 343v-343h-110v700zM209 -312l71 260h143l-136 -260h-78z" />
    <glyph glyph-name="uni0137" unicode="&#x137;" horiz-adv-x="525" 
d="M86 708h104v-405l182 201h132l-211 -232l224 -272h-132l-195 241v-241h-104v708zM169 -312l71 260h143l-136 -260h-78z" />
    <glyph glyph-name="kgreenlandic" unicode="&#x138;" horiz-adv-x="525" 
d="M86 504h104v-201l189 201h132l-218 -232l224 -272h-132l-195 241v-241h-104v504z" />
    <glyph glyph-name="Lacute" unicode="&#x139;" horiz-adv-x="522" 
d="M94 700h110v-596h302v-104h-412v700zM101 756l68 148h141l-129 -148h-80z" />
    <glyph glyph-name="lacute" unicode="&#x13a;" horiz-adv-x="271" 
d="M84 708h104v-708h-104v708zM84 756l68 148h141l-129 -148h-80z" />
    <glyph glyph-name="uni013B" unicode="&#x13b;" horiz-adv-x="522" 
d="M94 700h110v-596h302v-104h-412v700zM179 -312l71 260h143l-136 -260h-78z" />
    <glyph glyph-name="uni013C" unicode="&#x13c;" horiz-adv-x="271" 
d="M84 708h104v-708h-104v708zM-5 -312l71 260h143l-136 -260h-78z" />
    <glyph glyph-name="Lcaron" unicode="&#x13d;" horiz-adv-x="522" 
d="M94 700h110v-596h302v-104h-412v700zM335 486l74 222h143l-139 -222h-78z" />
    <glyph glyph-name="lcaron" unicode="&#x13e;" horiz-adv-x="520" 
d="M84 708h104v-708h-104v708zM249 486l74 222h143l-139 -222h-78z" />
    <glyph glyph-name="Ldot" unicode="&#x13f;" horiz-adv-x="522" 
d="M94 700h110v-596h302v-104h-412v700zM391 443c41 0 74 -32 74 -74s-33 -74 -74 -74s-74 32 -74 74s33 74 74 74z" />
    <glyph glyph-name="ldot" unicode="&#x140;" horiz-adv-x="506" 
d="M84 708h104v-708h-104v708zM350 443c41 0 74 -32 74 -74s-33 -74 -74 -74s-74 32 -74 74s33 74 74 74z" />
    <glyph glyph-name="Nacute" unicode="&#x143;" horiz-adv-x="703" 
d="M499 700h110v-700h-118l-287 502v-502h-110v700h118l287 -504v504zM274 756l68 148h141l-129 -148h-80z" />
    <glyph glyph-name="nacute" unicode="&#x144;" 
d="M86 504h104v-86c36 60 96 94 163 94c88 0 148 -53 148 -151v-361h-104v328c0 68 -31 92 -78 92c-65 0 -129 -77 -129 -216v-204h-104v504zM235 560l68 148h141l-129 -148h-80z" />
    <glyph glyph-name="uni0145" unicode="&#x145;" horiz-adv-x="703" 
d="M499 700h110v-700h-118l-287 502v-502h-110v700h118l287 -504v504zM223 -312l71 260h143l-136 -260h-78z" />
    <glyph glyph-name="uni0146" unicode="&#x146;" 
d="M86 504h104v-86c36 60 96 94 163 94c88 0 148 -53 148 -151v-361h-104v328c0 68 -31 92 -78 92c-65 0 -129 -77 -129 -216v-204h-104v504zM169 -312l71 260h143l-136 -260h-78z" />
    <glyph glyph-name="Ncaron" unicode="&#x147;" horiz-adv-x="703" 
d="M499 700h110v-700h-118l-287 502v-502h-110v700h118l287 -504v504zM332 762l-162 176h100l77 -80l77 80h100l-162 -176h-30z" />
    <glyph glyph-name="ncaron" unicode="&#x148;" 
d="M86 504h104v-86c36 60 96 94 163 94c88 0 148 -53 148 -151v-361h-104v328c0 68 -31 92 -78 92c-65 0 -129 -77 -129 -216v-204h-104v504zM292 566l-162 176h100l77 -80l77 80h100l-162 -176h-30z" />
    <glyph glyph-name="napostrophe" unicode="&#x149;" horiz-adv-x="729" 
d="M238 504h104v-86c36 60 96 94 163 94c88 0 148 -53 148 -151v-361h-104v328c0 68 -31 92 -78 92c-65 0 -129 -77 -129 -216v-204h-104v504zM24 486l74 222h143l-139 -222h-78z" />
    <glyph glyph-name="Eng" unicode="&#x14a;" horiz-adv-x="703" 
d="M499 700h110v-700c0 -157 -98 -212 -214 -212v104c63 0 104 24 104 108l-295 502v-502h-110v700h118l287 -498v498z" />
    <glyph glyph-name="eng" unicode="&#x14b;" 
d="M317 -212l-26 91c66 20 106 53 106 134v315c0 68 -31 92 -78 92c-65 0 -129 -77 -129 -216v-204h-104v504h104v-86c36 60 96 94 163 94c88 0 148 -53 148 -151v-338c0 -137 -65 -208 -184 -235z" />
    <glyph glyph-name="Omacron" unicode="&#x14c;" horiz-adv-x="744" 
d="M372 708c171 0 321 -119 321 -358s-150 -358 -321 -358s-321 119 -321 358s150 358 321 358zM372 604c-113 0 -209 -81 -209 -254s96 -254 209 -254s209 81 209 254s-96 254 -209 254zM244 804v92h257v-92h-257z" />
    <glyph glyph-name="omacron" unicode="&#x14d;" horiz-adv-x="594" 
d="M49 252c0 142 92 260 248 260s248 -118 248 -260s-92 -260 -248 -260s-248 118 -248 260zM159 252c0 -85 47 -168 138 -168s138 83 138 168s-47 168 -138 168s-138 -83 -138 -168zM169 608v92h257v-92h-257z" />
    <glyph glyph-name="Obreve" unicode="&#x14e;" horiz-adv-x="744" 
d="M372 708c171 0 321 -119 321 -358s-150 -358 -321 -358s-321 119 -321 358s150 358 321 358zM372 604c-113 0 -209 -81 -209 -254s96 -254 209 -254s209 81 209 254s-96 254 -209 254zM406 896h81c0 -58 -46 -109 -115 -109s-115 51 -115 109h81c0 -21 15 -35 34 -35
c20 0 34 14 34 35z" />
    <glyph glyph-name="obreve" unicode="&#x14f;" horiz-adv-x="594" 
d="M49 252c0 142 92 260 248 260s248 -118 248 -260s-92 -260 -248 -260s-248 118 -248 260zM159 252c0 -85 47 -168 138 -168s138 83 138 168s-47 168 -138 168s-138 -83 -138 -168zM331 700h81c0 -58 -46 -109 -115 -109s-115 51 -115 109h81c0 -21 15 -35 34 -35
c20 0 34 14 34 35z" />
    <glyph glyph-name="Ohungarumlaut" unicode="&#x150;" horiz-adv-x="744" 
d="M372 708c171 0 321 -119 321 -358s-150 -358 -321 -358s-321 119 -321 358s150 358 321 358zM372 604c-113 0 -209 -81 -209 -254s96 -254 209 -254s209 81 209 254s-96 254 -209 254zM200 756l68 140h141l-129 -140h-80zM408 756l68 140h141l-129 -140h-80z" />
    <glyph glyph-name="ohungarumlaut" unicode="&#x151;" horiz-adv-x="594" 
d="M49 252c0 142 92 260 248 260s248 -118 248 -260s-92 -260 -248 -260s-248 118 -248 260zM159 252c0 -85 47 -168 138 -168s138 83 138 168s-47 168 -138 168s-138 -83 -138 -168zM116 560l68 140h141l-129 -140h-80zM324 560l68 140h141l-129 -140h-80z" />
    <glyph glyph-name="Racute" unicode="&#x154;" horiz-adv-x="649" 
d="M546 507c0 -96 -49 -162 -136 -185l202 -322h-130l-197 314h-81v-314h-110v700h245c132 0 207 -74 207 -193zM342 418c53 0 92 27 92 89s-39 89 -92 89h-138v-178h138zM227 756l68 148h141l-129 -148h-80z" />
    <glyph glyph-name="racute" unicode="&#x155;" horiz-adv-x="417" 
d="M190 0h-104v504h104v-84c35 60 95 92 149 92c27 0 49 -6 64 -12l-18 -95c-16 10 -38 15 -59 15c-67 0 -136 -74 -136 -233v-187zM174 560l68 148h141l-129 -148h-80z" />
    <glyph glyph-name="uni0156" unicode="&#x156;" horiz-adv-x="649" 
d="M546 507c0 -96 -49 -162 -136 -185l202 -322h-130l-197 314h-81v-314h-110v700h245c132 0 207 -74 207 -193zM342 418c53 0 92 27 92 89s-39 89 -92 89h-138v-178h138zM199 -312l71 260h143l-136 -260h-78z" />
    <glyph glyph-name="uni0157" unicode="&#x157;" horiz-adv-x="417" 
d="M190 0h-104v504h104v-84c35 60 95 92 149 92c27 0 49 -6 64 -12l-18 -95c-16 10 -38 15 -59 15c-67 0 -136 -74 -136 -233v-187zM69 -312l71 260h143l-136 -260h-78z" />
    <glyph glyph-name="Rcaron" unicode="&#x158;" horiz-adv-x="649" 
d="M546 507c0 -96 -49 -162 -136 -185l202 -322h-130l-197 314h-81v-314h-110v700h245c132 0 207 -74 207 -193zM342 418c53 0 92 27 92 89s-39 89 -92 89h-138v-178h138zM285 762l-162 176h100l77 -80l77 80h100l-162 -176h-30z" />
    <glyph glyph-name="rcaron" unicode="&#x159;" horiz-adv-x="417" 
d="M190 0h-104v504h104v-84c35 60 95 92 149 92c27 0 49 -6 64 -12l-18 -95c-16 10 -38 15 -59 15c-67 0 -136 -74 -136 -233v-187zM229 566l-162 176h100l77 -80l77 80h100l-162 -176h-30z" />
    <glyph glyph-name="Sacute" unicode="&#x15a;" horiz-adv-x="530" 
d="M454 590l-89 -59c-28 53 -63 77 -104 77c-45 0 -73 -35 -73 -76c0 -138 300 -111 300 -327c0 -128 -93 -213 -219 -213c-123 0 -206 83 -231 195l90 57c20 -78 61 -148 141 -148c63 0 107 43 107 105c0 137 -298 107 -298 323c0 106 81 184 183 184
c96 0 156 -52 193 -118zM189 756l68 148h141l-129 -148h-80z" />
    <glyph glyph-name="sacute" unicode="&#x15b;" horiz-adv-x="450" 
d="M234 512c61 0 117 -30 149 -80l-66 -58c-25 32 -56 46 -88 46c-26 0 -50 -17 -50 -50c0 -36 38 -52 90 -72c68 -26 141 -56 141 -146c0 -87 -67 -160 -175 -160c-104 0 -169 72 -195 135l88 48c20 -45 55 -91 111 -91c40 0 68 20 68 66c0 44 -61 56 -120 81
c-58 24 -108 61 -108 138c0 78 64 143 155 143zM158 560l68 148h141l-129 -148h-80z" />
    <glyph glyph-name="Scircumflex" unicode="&#x15c;" horiz-adv-x="530" 
d="M454 590l-89 -59c-28 53 -63 77 -104 77c-45 0 -73 -35 -73 -76c0 -138 300 -111 300 -327c0 -128 -93 -213 -219 -213c-123 0 -206 83 -231 195l90 57c20 -78 61 -148 141 -148c63 0 107 43 107 105c0 137 -298 107 -298 323c0 106 81 184 183 184
c96 0 156 -52 193 -118zM86 762l162 176h30l162 -176h-100l-77 80l-77 -80h-100z" />
    <glyph glyph-name="scircumflex" unicode="&#x15d;" horiz-adv-x="450" 
d="M234 512c61 0 117 -30 149 -80l-66 -58c-25 32 -56 46 -88 46c-26 0 -50 -17 -50 -50c0 -36 38 -52 90 -72c68 -26 141 -56 141 -146c0 -87 -67 -160 -175 -160c-104 0 -169 72 -195 135l88 48c20 -45 55 -91 111 -91c40 0 68 20 68 66c0 44 -61 56 -120 81
c-58 24 -108 61 -108 138c0 78 64 143 155 143zM57 566l162 176h30l162 -176h-100l-77 80l-77 -80h-100z" />
    <glyph glyph-name="Scedilla" unicode="&#x15e;" horiz-adv-x="530" 
d="M454 590l-89 -59c-28 53 -63 77 -104 77c-45 0 -73 -35 -73 -76c0 -138 300 -111 300 -327c0 -128 -93 -213 -219 -213c-123 0 -206 83 -231 195l90 57c20 -78 61 -148 141 -148c63 0 107 43 107 105c0 137 -298 107 -298 323c0 106 81 184 183 184
c96 0 156 -52 193 -118zM335 -60l-84 -191l-121 56l124 135h81z" />
    <glyph glyph-name="scedilla" unicode="&#x15f;" horiz-adv-x="450" 
d="M234 512c61 0 117 -30 149 -80l-66 -58c-25 32 -56 46 -88 46c-26 0 -50 -17 -50 -50c0 -36 38 -52 90 -72c68 -26 141 -56 141 -146c0 -87 -67 -160 -175 -160c-104 0 -169 72 -195 135l88 48c20 -45 55 -91 111 -91c40 0 68 20 68 66c0 44 -61 56 -120 81
c-58 24 -108 61 -108 138c0 78 64 143 155 143zM309 -60l-84 -191l-121 56l124 135h81z" />
    <glyph glyph-name="uni0162" unicode="&#x162;" horiz-adv-x="524" 
d="M11 596v104h502v-104h-196v-596h-110v596h-196zM125 -312l71 260h143l-136 -260h-78z" />
    <glyph glyph-name="uni0163" unicode="&#x163;" horiz-adv-x="385" 
d="M21 412v92h84v139l104 65v-204h131v-92h-131v-246c0 -57 21 -82 67 -82c18 0 30 3 48 14l27 -88c-27 -13 -53 -18 -81 -18c-95 0 -165 56 -165 180v240h-84zM109 -312l71 260h143l-136 -260h-78z" />
    <glyph glyph-name="Tcaron" unicode="&#x164;" horiz-adv-x="524" 
d="M11 596v104h502v-104h-196v-596h-110v596h-196zM247 762l-162 176h100l77 -80l77 80h100l-162 -176h-30z" />
    <glyph glyph-name="tcaron" unicode="&#x165;" horiz-adv-x="591" 
d="M21 412v92h84v139l104 65v-204h131v-92h-131v-246c0 -57 21 -82 67 -82c18 0 30 3 48 14l27 -88c-27 -13 -53 -18 -81 -18c-95 0 -165 56 -165 180v240h-84zM377 486l74 222h143l-139 -222h-78z" />
    <glyph glyph-name="Tbar" unicode="&#x166;" horiz-adv-x="524" 
d="M11 596v104h502v-104h-196v-120h173v-92h-173v-384h-110v384h-173v92h173v120h-196z" />
    <glyph glyph-name="tbar" unicode="&#x167;" horiz-adv-x="385" 
d="M21 412v92h84v139l104 65v-204h131v-92h-131v-82h118v-84h-118v-80c0 -57 21 -82 67 -82c18 0 30 3 48 14l27 -88c-27 -13 -53 -18 -81 -18c-95 0 -165 56 -165 180v74h-67v84h67v82h-84z" />
    <glyph glyph-name="Utilde" unicode="&#x168;" horiz-adv-x="654" 
d="M75 252v448h110v-453c0 -95 48 -151 142 -151s142 56 142 151v453h110v-448c0 -169 -109 -260 -252 -260s-252 92 -252 260zM200 773l-57 47c20 43 66 81 115 81c71 0 79 -41 131 -41c26 0 48 18 66 40l57 -47c-20 -43 -66 -81 -115 -81c-71 0 -79 41 -131 41
c-26 0 -48 -18 -66 -40z" />
    <glyph glyph-name="utilde" unicode="&#x169;" 
d="M494 0h-104v86c-36 -60 -96 -94 -163 -94c-88 0 -148 53 -148 151v361h104v-328c0 -68 31 -92 78 -92c65 0 129 77 129 216v204h104v-504zM162 577l-57 47c20 43 66 81 115 81c71 0 79 -41 131 -41c26 0 48 18 66 40l57 -47c-20 -43 -66 -81 -115 -81
c-71 0 -79 41 -131 41c-26 0 -48 -18 -66 -40z" />
    <glyph glyph-name="Umacron" unicode="&#x16a;" horiz-adv-x="654" 
d="M75 252v448h110v-453c0 -95 48 -151 142 -151s142 56 142 151v453h110v-448c0 -169 -109 -260 -252 -260s-252 92 -252 260zM199 804v92h257v-92h-257z" />
    <glyph glyph-name="umacron" unicode="&#x16b;" 
d="M494 0h-104v86c-36 -60 -96 -94 -163 -94c-88 0 -148 53 -148 151v361h104v-328c0 -68 31 -92 78 -92c65 0 129 77 129 216v204h104v-504zM161 608v92h257v-92h-257z" />
    <glyph glyph-name="Ubreve" unicode="&#x16c;" horiz-adv-x="654" 
d="M75 252v448h110v-453c0 -95 48 -151 142 -151s142 56 142 151v453h110v-448c0 -169 -109 -260 -252 -260s-252 92 -252 260zM361 896h81c0 -58 -46 -109 -115 -109s-115 51 -115 109h81c0 -21 15 -35 34 -35c20 0 34 14 34 35z" />
    <glyph glyph-name="ubreve" unicode="&#x16d;" 
d="M494 0h-104v86c-36 -60 -96 -94 -163 -94c-88 0 -148 53 -148 151v361h104v-328c0 -68 31 -92 78 -92c65 0 129 77 129 216v204h104v-504zM322 700h81c0 -58 -46 -109 -115 -109s-115 51 -115 109h81c0 -21 15 -35 34 -35c20 0 34 14 34 35z" />
    <glyph glyph-name="Uring" unicode="&#x16e;" horiz-adv-x="654" 
d="M75 252v448h110v-453c0 -95 48 -151 142 -151s142 56 142 151v453h110v-448c0 -169 -109 -260 -252 -260s-252 92 -252 260zM226 849c0 57 44 102 101 102c59 0 101 -45 101 -102c0 -55 -42 -98 -101 -98c-57 0 -101 43 -101 98zM291 850c0 -21 15 -37 36 -37
c22 0 36 16 36 37c0 22 -14 39 -36 39c-21 0 -36 -17 -36 -39z" />
    <glyph glyph-name="uring" unicode="&#x16f;" 
d="M494 0h-104v86c-36 -60 -96 -94 -163 -94c-88 0 -148 53 -148 151v361h104v-328c0 -68 31 -92 78 -92c65 0 129 77 129 216v204h104v-504zM189 653c0 57 44 102 101 102c59 0 101 -45 101 -102c0 -55 -42 -98 -101 -98c-57 0 -101 43 -101 98zM254 654
c0 -21 15 -37 36 -37c22 0 36 16 36 37c0 22 -14 39 -36 39c-21 0 -36 -17 -36 -39z" />
    <glyph glyph-name="Uhungarumlaut" unicode="&#x170;" horiz-adv-x="654" 
d="M75 252v448h110v-453c0 -95 48 -151 142 -151s142 56 142 151v453h110v-448c0 -169 -109 -260 -252 -260s-252 92 -252 260zM145 756l68 140h141l-129 -140h-80zM353 756l68 140h141l-129 -140h-80z" />
    <glyph glyph-name="uhungarumlaut" unicode="&#x171;" 
d="M494 0h-104v86c-36 -60 -96 -94 -163 -94c-88 0 -148 53 -148 151v361h104v-328c0 -68 31 -92 78 -92c65 0 129 77 129 216v204h104v-504zM96 560l68 140h141l-129 -140h-80zM304 560l68 140h141l-129 -140h-80z" />
    <glyph glyph-name="Uogonek" unicode="&#x172;" horiz-adv-x="654" 
d="M75 252v448h110v-453c0 -95 48 -151 142 -151s142 56 142 151v453h110v-448c0 -141 -75 -227 -182 -252c-34 -30 -56 -57 -56 -79c0 -18 11 -29 28 -29c22 0 32 14 52 41l48 -39c-32 -48 -61 -74 -113 -74c-56 0 -91 32 -91 85c0 35 20 64 51 87c-137 5 -241 96 -241 260
z" />
    <glyph glyph-name="uogonek" unicode="&#x173;" 
d="M425 0h-35v86c-36 -60 -96 -94 -163 -94c-88 0 -148 53 -148 151v361h104v-328c0 -68 31 -92 78 -92c65 0 129 77 129 216v204h104v-504c-34 -30 -56 -57 -56 -79c0 -18 11 -29 28 -29c22 0 32 14 52 41l48 -39c-32 -48 -61 -74 -113 -74c-56 0 -91 32 -91 85
c0 39 25 70 63 95z" />
    <glyph glyph-name="Wcircumflex" unicode="&#x174;" horiz-adv-x="912" 
d="M773 700h116l-185 -700h-112l-136 444l-136 -444h-112l-185 700h116l128 -544l139 470h100l139 -470zM279 762l162 176h30l162 -176h-100l-77 80l-77 -80h-100z" />
    <glyph glyph-name="wcircumflex" unicode="&#x175;" horiz-adv-x="754" 
d="M613 504h110l-160 -504h-95l-91 356l-91 -356h-95l-160 504h110l97 -368l89 368h100l89 -368zM200 566l162 176h30l162 -176h-100l-77 80l-77 -80h-100z" />
    <glyph glyph-name="Ycircumflex" unicode="&#x176;" horiz-adv-x="514" 
d="M2 700h117l138 -291l138 291h117l-200 -400v-300h-110v300zM80 762l162 176h30l162 -176h-100l-77 80l-77 -80h-100z" />
    <glyph glyph-name="ycircumflex" unicode="&#x177;" horiz-adv-x="469" 
d="M8 504h110l119 -339l115 339h110l-255 -708h-104l82 229zM60 566l162 176h30l162 -176h-100l-77 80l-77 -80h-100z" />
    <glyph glyph-name="Zacute" unicode="&#x179;" horiz-adv-x="558" 
d="M53 596v104h452v-54l-315 -542h328v-104h-480v54l319 542h-304zM193 756l68 148h141l-129 -148h-80z" />
    <glyph glyph-name="zacute" unicode="&#x17a;" horiz-adv-x="461" 
d="M61 412v92h347v-42l-227 -370h238v-92h-373v42l227 370h-212zM156 560l68 148h141l-129 -148h-80z" />
    <glyph glyph-name="Zdotaccent" unicode="&#x17b;" horiz-adv-x="558" 
d="M53 596v104h452v-54l-315 -542h328v-104h-480v54l319 542h-304zM202 842c0 40 31 73 72 73s72 -33 72 -73s-31 -71 -72 -71s-72 31 -72 71z" />
    <glyph glyph-name="zdotaccent" unicode="&#x17c;" horiz-adv-x="461" 
d="M61 412v92h347v-42l-227 -370h238v-92h-373v42l227 370h-212zM164 646c0 40 31 73 72 73s72 -33 72 -73s-31 -71 -72 -71s-72 31 -72 71z" />
    <glyph glyph-name="uni01B5" unicode="&#x1b5;" horiz-adv-x="558" 
d="M53 596v104h452v-54l-146 -250h125v-92h-178l-116 -200h328v-104h-480v54l147 250h-107v92h161l118 200h-304z" />
    <glyph glyph-name="uni01B6" unicode="&#x1b6;" horiz-adv-x="461" 
d="M61 412v92h347v-42l-96 -156h75v-84h-126l-80 -130h238v-92h-373v42l110 180h-84v84h136l65 106h-212z" />
    <glyph glyph-name="longs" unicode="&#x17f;" horiz-adv-x="362" 
d="M38 412v92h65v17c0 123 73 187 179 187c37 0 70 -10 91 -21l-21 -88c-21 11 -43 17 -65 17c-50 0 -80 -30 -80 -91v-525h-104v412h-65z" />
    <glyph glyph-name="uni0410" unicode="&#x410;" horiz-adv-x="608" 
d="M252 700h104l243 -700h-112l-58 174h-250l-58 -174h-112zM304 561l-92 -283h184z" />
    <glyph glyph-name="uni0411" unicode="&#x411;" horiz-adv-x="623" 
d="M508 700v-104h-304v-172h150c138 0 220 -78 220 -212s-82 -212 -220 -212h-260v700h414zM339 320h-135v-216h135c81 0 123 38 123 108s-42 108 -123 108z" />
    <glyph glyph-name="uni0412" unicode="&#x412;" horiz-adv-x="623" 
d="M94 700h248c116 0 196 -62 196 -183c0 -54 -30 -113 -71 -135c66 -28 107 -95 107 -176c0 -131 -82 -206 -220 -206h-260v700zM332 596h-128v-172h128c62 0 96 29 96 86s-34 86 -96 86zM339 320h-135v-216h135c81 0 123 38 123 108s-42 108 -123 108z" />
    <glyph glyph-name="uni0413" unicode="&#x413;" horiz-adv-x="529" 
d="M94 700h426v-104h-316v-596h-110v700z" />
    <glyph glyph-name="uni0414" unicode="&#x414;" horiz-adv-x="691" 
d="M70 -124l-13 228h54l100 596h390v-596h60l-12 -228h-94v124h-391v-124h-94zM491 596h-186l-84 -492h270v492z" />
    <glyph glyph-name="uni0415" unicode="&#x415;" horiz-adv-x="568" 
d="M94 700h415v-104h-305v-172h246v-104h-246v-216h315v-104h-425v700z" />
    <glyph glyph-name="uni0416" unicode="&#x416;" horiz-adv-x="946" 
d="M418 700h110v-269l250 269h134l-282 -313l306 -387h-142l-266 343v-343h-110v343l-266 -343h-142l306 387l-282 313h134l250 -269v269z" />
    <glyph glyph-name="uni0417" unicode="&#x417;" 
d="M59 193l103 13c12 -74 53 -118 126 -118c72 0 125 47 125 135c0 91 -54 137 -125 137c-21 0 -39 -4 -61 -14l-42 56l145 202h-237v96h390v-36l-170 -232c8 2 20 3 29 3c108 0 177 -90 177 -212c0 -134 -102 -231 -231 -231c-120 0 -221 84 -229 201z" />
    <glyph glyph-name="uni0418" unicode="&#x418;" horiz-adv-x="703" 
d="M94 700h110v-504l287 504h118v-700h-110v502l-287 -502h-118v700z" />
    <glyph glyph-name="uni0419" unicode="&#x419;" horiz-adv-x="703" 
d="M94 700h110v-504l287 504h118v-700h-110v502l-287 -502h-118v700zM385 896h81c0 -58 -46 -109 -115 -109s-115 51 -115 109h81c0 -21 15 -35 34 -35c20 0 34 14 34 35z" />
    <glyph glyph-name="uni041A" unicode="&#x41a;" horiz-adv-x="621" 
d="M94 700h110v-269l250 269h134l-282 -313l305 -387h-141l-266 343v-343h-110v700z" />
    <glyph glyph-name="uni041B" unicode="&#x41b;" horiz-adv-x="646" 
d="M110 200l37 500h405v-700h-110v596h-197l-28 -406c-9 -127 -73 -190 -207 -190v104c56 0 95 23 100 96z" />
    <glyph glyph-name="uni041C" unicode="&#x41c;" horiz-adv-x="796" 
d="M94 0v700h130l174 -466l174 466h130v-700h-110v472l-155 -408h-78l-155 408v-472h-110z" />
    <glyph glyph-name="uni041D" unicode="&#x41d;" horiz-adv-x="692" 
d="M94 0v700h110v-274h284v274h110v-700h-110v322h-284v-322h-110z" />
    <glyph glyph-name="uni041E" unicode="&#x41e;" horiz-adv-x="744" 
d="M372 708c171 0 321 -119 321 -358s-150 -358 -321 -358s-321 119 -321 358s150 358 321 358zM372 604c-113 0 -209 -81 -209 -254s96 -254 209 -254s209 81 209 254s-96 254 -209 254z" />
    <glyph glyph-name="uni041F" unicode="&#x41f;" horiz-adv-x="692" 
d="M94 0v700h504v-700h-110v596h-284v-596h-110z" />
    <glyph glyph-name="uni0420" unicode="&#x420;" horiz-adv-x="589" 
d="M345 286h-141v-286h-110v700h251c139 0 217 -89 217 -207s-78 -207 -217 -207zM350 390c63 0 100 38 100 103s-37 103 -100 103h-146v-206h146z" />
    <glyph glyph-name="uni0421" unicode="&#x421;" horiz-adv-x="695" 
d="M658 496l-104 -26c-35 89 -84 134 -179 134c-118 0 -212 -83 -212 -254s94 -254 212 -254c95 0 144 45 179 134l104 -26c-36 -132 -134 -212 -283 -212c-169 0 -324 121 -324 358s155 358 324 358c149 0 247 -80 283 -212z" />
    <glyph glyph-name="uni0422" unicode="&#x422;" horiz-adv-x="524" 
d="M11 596v104h502v-104h-196v-596h-110v596h-196z" />
    <glyph glyph-name="uni0423" unicode="&#x423;" horiz-adv-x="510" 
d="M2 700h110l145 -363l147 363h104l-286 -708h-104l85 211z" />
    <glyph glyph-name="uni0424" unicode="&#x424;" horiz-adv-x="782" 
d="M446 72v-72h-110v72h-6c-157 0 -281 112 -281 278s124 278 281 278h6v72h110v-72h6c157 0 281 -112 281 -278s-124 -278 -281 -278h-6zM454 536h-8v-372h8c98 0 169 81 169 186s-71 186 -169 186zM336 164v372h-8c-98 0 -169 -81 -169 -186s71 -186 169 -186h8z" />
    <glyph glyph-name="uni0425" unicode="&#x425;" 
d="M414 700h123l-185 -324l216 -376h-125l-153 267l-153 -267h-125l216 376l-185 324h123l124 -216z" />
    <glyph glyph-name="uni0426" unicode="&#x426;" horiz-adv-x="695" 
d="M94 0v700h110v-596h284v596h110v-596h67l-12 -228h-94v124h-465z" />
    <glyph glyph-name="uni0427" unicode="&#x427;" horiz-adv-x="663" 
d="M459 0v246c-44 -36 -115 -50 -168 -50c-126 0 -213 73 -213 247v257h110v-249c0 -104 44 -151 123 -151c67 0 110 22 148 65v335h110v-700h-110z" />
    <glyph glyph-name="uni0428" unicode="&#x428;" horiz-adv-x="982" 
d="M436 104v596h110v-596h232v596h110v-700h-794v700h110v-596h232z" />
    <glyph glyph-name="uni0429" unicode="&#x429;" horiz-adv-x="985" 
d="M436 104v596h110v-596h232v596h110v-596h67l-12 -228h-94v124h-755v700h110v-596h232z" />
    <glyph glyph-name="uni042A" unicode="&#x42a;" horiz-adv-x="669" 
d="M14 596v104h236v-276h150c138 0 220 -78 220 -212s-82 -212 -220 -212h-260v596h-126zM385 320h-135v-216h135c81 0 123 38 123 108s-42 108 -123 108z" />
    <glyph glyph-name="uni042B" unicode="&#x42b;" horiz-adv-x="862" 
d="M94 0v700h110v-276h150c138 0 220 -78 220 -212s-82 -212 -220 -212h-260zM339 320h-135v-216h135c81 0 123 38 123 108s-42 108 -123 108zM664 708h104v-708h-104v708z" />
    <glyph glyph-name="uni042C" unicode="&#x42c;" horiz-adv-x="623" 
d="M204 700v-276h150c138 0 220 -78 220 -212s-82 -212 -220 -212h-260v700h110zM339 320h-135v-216h135c81 0 123 38 123 108s-42 108 -123 108z" />
    <glyph glyph-name="uni042D" unicode="&#x42d;" horiz-adv-x="683" 
d="M191 298v104h326c-15 135 -87 202 -192 202c-86 0 -156 -59 -184 -138l-104 30c36 132 154 212 288 212c169 0 307 -121 307 -358s-138 -358 -307 -358c-134 0 -252 80 -288 212l104 30c28 -79 98 -138 184 -138c105 0 177 66 192 202h-326z" />
    <glyph glyph-name="uni042E" unicode="&#x42e;" horiz-adv-x="1026" 
d="M654 708c171 0 321 -119 321 -358s-150 -358 -321 -358c-158 0 -299 101 -319 306h-131v-298h-110v700h110v-298h131c20 205 161 306 319 306zM654 604c-113 0 -209 -81 -209 -254s96 -254 209 -254s209 81 209 254s-96 254 -209 254z" />
    <glyph glyph-name="uni042F" unicode="&#x42f;" horiz-adv-x="649" 
d="M103 507c0 119 75 193 207 193h245v-700h-110v314h-81l-197 -314h-130l202 322c-87 23 -136 89 -136 185zM307 418h138v178h-138c-53 0 -92 -27 -92 -89s39 -89 92 -89z" />
    <glyph glyph-name="uni0430" unicode="&#x430;" horiz-adv-x="514" 
d="M44 145c0 104 89 165 218 165h87v22c0 63 -45 88 -98 88c-41 0 -77 -22 -94 -67l-95 20c21 85 93 139 190 139c117 0 201 -51 201 -199v-313h-88l-10 66c-33 -46 -85 -74 -156 -74c-84 0 -155 48 -155 153zM154 145c0 -34 19 -61 63 -61c64 0 132 41 132 128v11h-91
c-64 0 -104 -30 -104 -78z" />
    <glyph glyph-name="uni0431" unicode="&#x431;" horiz-adv-x="594" 
d="M49 310c0 290 103 390 258 390h41c39 0 61 13 75 47h65c0 -103 -54 -139 -140 -139h-44c-81 0 -139 -56 -145 -158c31 28 87 62 157 62c143 0 229 -118 229 -260s-92 -260 -248 -260c-152 0 -248 118 -248 318zM159 252c0 -85 47 -168 138 -168s138 83 138 168
s-47 168 -138 168s-138 -83 -138 -168z" />
    <glyph glyph-name="uni0432" unicode="&#x432;" horiz-adv-x="514" 
d="M86 504h192c92 0 160 -45 160 -132c0 -39 -22 -81 -51 -97c41 -21 77 -64 77 -127c0 -94 -63 -148 -168 -148h-210v504zM266 412h-76v-100h76c44 0 69 15 69 50s-25 50 -69 50zM271 220h-81v-128h81c58 0 88 18 88 64s-30 64 -88 64z" />
    <glyph glyph-name="uni0433" unicode="&#x433;" horiz-adv-x="431" 
d="M86 0v504h331v-92h-227v-412h-104z" />
    <glyph glyph-name="uni0434" unicode="&#x434;" horiz-adv-x="576" 
d="M424 -114v114h-278v-114h-94l-13 206h36l68 412h352v-412h35l-12 -206h-94zM227 412l-54 -320h218v320h-164z" />
    <glyph glyph-name="uni0435" unicode="&#x435;" horiz-adv-x="559" 
d="M284 420c-69 0 -112 -47 -123 -110h245c-9 56 -47 110 -122 110zM516 268v-45h-357c0 -74 43 -139 125 -139c54 0 106 30 132 85l89 -35c-49 -95 -106 -142 -221 -142c-166 0 -235 140 -235 260s69 260 235 260c161 0 232 -131 232 -244z" />
    <glyph glyph-name="uni0436" unicode="&#x436;" horiz-adv-x="774" 
d="M335 504h104v-201l182 201h132l-211 -232l224 -272h-132l-195 241v-241h-104v241l-195 -241h-132l224 272l-211 232h132l182 -201v201z" />
    <glyph glyph-name="uni0437" unicode="&#x437;" horiz-adv-x="445" 
d="M48 140l100 15c8 -47 40 -75 79 -75c47 0 75 34 75 79c0 48 -28 81 -72 81c-17 0 -33 -4 -45 -11l-49 62l91 123h-152v90h299v-33l-125 -160c7 1 11 1 15 1c76 0 136 -59 136 -155c0 -104 -78 -165 -173 -165c-92 0 -170 59 -179 148z" />
    <glyph glyph-name="uni0438" unicode="&#x438;" horiz-adv-x="592" 
d="M86 504h104v-341l201 341h115v-504h-104v341l-201 -341h-115v504z" />
    <glyph glyph-name="uni0439" unicode="&#x439;" horiz-adv-x="592" 
d="M86 504h104v-341l201 341h115v-504h-104v341l-201 -341h-115v504zM335 700h81c0 -58 -46 -109 -115 -109s-115 51 -115 109h81c0 -21 15 -35 34 -35c20 0 34 14 34 35z" />
    <glyph glyph-name="uni043A" unicode="&#x43a;" horiz-adv-x="525" 
d="M86 504h104v-201l182 201h132l-211 -232l224 -272h-132l-195 241v-241h-104v504z" />
    <glyph glyph-name="uni043B" unicode="&#x43b;" horiz-adv-x="599" 
d="M132 168l33 336h350v-504h-104v412h-154l-30 -280c-12 -113 -80 -132 -190 -132v92c58 0 90 23 95 76z" />
    <glyph glyph-name="uni043C" unicode="&#x43c;" horiz-adv-x="648" 
d="M86 0v504h115l123 -308l123 308h115v-504h-104v303l-98 -257h-72l-98 257v-303h-104z" />
    <glyph glyph-name="uni043D" unicode="&#x43d;" horiz-adv-x="572" 
d="M86 0v504h104v-190h192v190h104v-504h-104v222h-192v-222h-104z" />
    <glyph glyph-name="uni043E" unicode="&#x43e;" horiz-adv-x="594" 
d="M49 252c0 142 92 260 248 260s248 -118 248 -260s-92 -260 -248 -260s-248 118 -248 260zM159 252c0 -85 47 -168 138 -168s138 83 138 168s-47 168 -138 168s-138 -83 -138 -168z" />
    <glyph glyph-name="uni043F" unicode="&#x43f;" horiz-adv-x="569" 
d="M86 0v504h397v-504h-104v412h-189v-412h-104z" />
    <glyph glyph-name="uni0440" unicode="&#x440;" horiz-adv-x="601" 
d="M552 252c0 -156 -76 -260 -227 -260c-62 0 -112 31 -135 64v-260h-104v708h104v-58c17 29 71 66 137 66c149 0 225 -99 225 -260zM442 252c0 104 -54 168 -129 168s-129 -64 -129 -168s54 -168 129 -168s129 64 129 168z" />
    <glyph glyph-name="uni0441" unicode="&#x441;" horiz-adv-x="542" 
d="M411 171l93 -40c-40 -91 -111 -139 -218 -139c-160 0 -237 122 -237 260s77 260 237 260c107 0 178 -48 218 -139l-93 -40c-24 54 -65 87 -125 87c-89 0 -127 -73 -127 -168s38 -168 127 -168c60 0 101 33 125 87z" />
    <glyph glyph-name="uni0442" unicode="&#x442;" horiz-adv-x="445" 
d="M35 412v92h375v-92h-136v-412h-104v412h-135z" />
    <glyph glyph-name="uni0443" unicode="&#x443;" horiz-adv-x="469" 
d="M8 504h110l119 -339l115 339h110l-255 -708h-104l82 229z" />
    <glyph glyph-name="uni0444" unicode="&#x444;" horiz-adv-x="718" 
d="M411 -8v-196h-104v196c-156 0 -258 116 -258 260s102 260 258 260v196h104v-196c156 0 258 -116 258 -260s-102 -260 -258 -260zM417 420h-6v-336h6c90 0 142 79 142 168s-52 168 -142 168zM307 84v336h-6c-90 0 -142 -79 -142 -168s52 -168 142 -168h6z" />
    <glyph glyph-name="uni0445" unicode="&#x445;" horiz-adv-x="470" 
d="M327 504h112l-148 -238l166 -266h-112l-110 176l-110 -176h-112l166 266l-148 238h112l92 -148z" />
    <glyph glyph-name="uni0446" unicode="&#x446;" horiz-adv-x="564" 
d="M483 92h35l-12 -206h-94v114h-326v504h104v-412h189v412h104v-412z" />
    <glyph glyph-name="uni0447" unicode="&#x447;" horiz-adv-x="576" 
d="M490 0h-104v159c-53 -49 -91 -67 -158 -67c-88 0 -148 53 -148 151v261h104v-228c0 -68 32 -92 78 -92s88 30 124 99v221h104v-504z" />
    <glyph glyph-name="uni0448" unicode="&#x448;" horiz-adv-x="826" 
d="M361 92v412h104v-412h171v412h104v-504h-654v504h104v-412h171z" />
    <glyph glyph-name="uni0449" unicode="&#x449;" horiz-adv-x="821" 
d="M740 92h35l-12 -206h-94v114h-583v504h104v-412h171v412h104v-412h171v412h104v-412z" />
    <glyph glyph-name="uni044A" unicode="&#x44a;" horiz-adv-x="550" 
d="M35 412v92h191v-192h106c105 0 168 -62 168 -156s-63 -156 -168 -156h-210v412h-87zM307 220h-81v-128h81c58 0 88 18 88 64s-30 64 -88 64z" />
    <glyph glyph-name="uni044B" unicode="&#x44b;" horiz-adv-x="773" 
d="M86 0v504h104v-192h106c105 0 168 -62 168 -156s-63 -156 -168 -156h-210zM271 220h-81v-128h81c58 0 88 18 88 64s-30 64 -88 64zM583 504h104v-504h-104v504z" />
    <glyph glyph-name="uni044C" unicode="&#x44c;" horiz-adv-x="514" 
d="M86 0v504h104v-192h106c105 0 168 -62 168 -156s-63 -156 -168 -156h-210zM271 220h-81v-128h81c58 0 88 18 88 64s-30 64 -88 64z" />
    <glyph glyph-name="uni044D" unicode="&#x44d;" horiz-adv-x="546" 
d="M38 118l89 47c26 -49 69 -81 126 -81c78 0 120 50 132 122h-229v92h229c-12 71 -54 122 -132 122c-57 0 -100 -32 -126 -81l-89 47c38 72 108 126 215 126c160 0 244 -118 244 -260s-84 -260 -244 -260c-107 0 -177 54 -215 126z" />
    <glyph glyph-name="uni044E" unicode="&#x44e;" horiz-adv-x="845" 
d="M86 504h104v-206h80c17 120 106 214 245 214c156 0 248 -118 248 -260s-92 -260 -248 -260c-139 0 -228 93 -245 214h-80v-206h-104v504zM377 252c0 -85 47 -168 138 -168s138 83 138 168s-47 168 -138 168s-138 -83 -138 -168z" />
    <glyph glyph-name="uni044F" unicode="&#x44f;" horiz-adv-x="488" 
d="M55 365c0 85 65 139 160 139h187v-504h-104v226h-41l-121 -226h-112l130 232c-60 18 -99 64 -99 133zM212 318h86v94h-86c-36 0 -59 -14 -59 -47s23 -47 59 -47z" />
    <glyph glyph-name="uni0400" unicode="&#x400;" horiz-adv-x="568" 
d="M94 700h415v-104h-305v-172h246v-104h-246v-216h315v-104h-425v700zM307 904l68 -148h-80l-129 148h141z" />
    <glyph glyph-name="uni0401" unicode="&#x401;" horiz-adv-x="568" 
d="M94 700h415v-104h-305v-172h246v-104h-246v-216h315v-104h-425v700zM148 847c0 36 27 63 63 63s63 -27 63 -63s-27 -63 -63 -63s-63 27 -63 63zM334 847c0 36 27 63 63 63s63 -27 63 -63s-27 -63 -63 -63s-63 27 -63 63z" />
    <glyph glyph-name="uni0402" unicode="&#x402;" horiz-adv-x="713" 
d="M450 -8l-26 91c66 20 106 53 106 134v111c0 77 -32 92 -79 92c-57 0 -136 -73 -136 -207v-213h-110v596h-196v104h502v-104h-196v-178c36 52 94 94 170 94c93 0 149 -50 149 -157v-128c0 -137 -65 -208 -184 -235z" />
    <glyph glyph-name="uni0403" unicode="&#x403;" horiz-adv-x="529" 
d="M94 700h426v-104h-316v-596h-110v700zM216 756l68 148h141l-129 -148h-80z" />
    <glyph glyph-name="uni0404" unicode="&#x404;" horiz-adv-x="683" 
d="M492 402v-104h-326c15 -136 87 -202 192 -202c86 0 156 59 184 138l104 -30c-36 -132 -154 -212 -288 -212c-169 0 -307 121 -307 358s138 358 307 358c134 0 252 -80 288 -212l-104 -30c-28 79 -98 138 -184 138c-105 0 -177 -67 -192 -202h326z" />
    <glyph glyph-name="uni0405" unicode="&#x405;" horiz-adv-x="530" 
d="M454 590l-89 -59c-28 53 -63 77 -104 77c-45 0 -73 -35 -73 -76c0 -138 300 -111 300 -327c0 -128 -93 -213 -219 -213c-123 0 -206 83 -231 195l90 57c20 -78 61 -148 141 -148c63 0 107 43 107 105c0 137 -298 107 -298 323c0 106 81 184 183 184
c96 0 156 -52 193 -118z" />
    <glyph glyph-name="uni0406" unicode="&#x406;" horiz-adv-x="298" 
d="M94 0v700h110v-700h-110z" />
    <glyph glyph-name="uni0407" unicode="&#x407;" horiz-adv-x="298" 
d="M94 0v700h110v-700h-110zM-7 847c0 36 27 63 63 63s63 -27 63 -63s-27 -63 -63 -63s-63 27 -63 63zM179 847c0 36 27 63 63 63s63 -27 63 -63s-27 -63 -63 -63s-63 27 -63 63z" />
    <glyph glyph-name="uni0408" unicode="&#x408;" horiz-adv-x="512" 
d="M324 222v478h110v-473c0 -169 -98 -235 -214 -235c-125 0 -199 84 -214 184l111 23c12 -64 47 -103 103 -103c63 0 104 30 104 126z" />
    <glyph glyph-name="uni0409" unicode="&#x409;" horiz-adv-x="908" 
d="M110 200l37 500h342v-276h150c138 0 220 -78 220 -212s-82 -212 -220 -212h-260v596h-134l-28 -406c-9 -127 -73 -190 -207 -190v104c56 0 95 23 100 96zM624 320h-135v-216h135c81 0 123 38 123 108s-42 108 -123 108z" />
    <glyph glyph-name="uni040A" unicode="&#x40a;" horiz-adv-x="955" 
d="M94 0v700h110v-276h222v276h110v-276h150c138 0 220 -78 220 -212s-82 -212 -220 -212h-260v320h-222v-320h-110zM671 320h-135v-216h135c81 0 123 38 123 108s-42 108 -123 108z" />
    <glyph glyph-name="uni040B" unicode="&#x40b;" horiz-adv-x="715" 
d="M636 0h-104v328c0 77 -32 92 -79 92c-57 0 -136 -73 -136 -207v-213h-110v596h-196v104h502v-104h-196v-178c36 52 94 94 170 94c93 0 149 -50 149 -157v-355z" />
    <glyph glyph-name="uni040C" unicode="&#x40c;" horiz-adv-x="621" 
d="M94 700h110v-269l250 269h134l-282 -313l305 -387h-141l-266 343v-343h-110v700zM256 756l68 148h141l-129 -148h-80z" />
    <glyph glyph-name="uni040D" unicode="&#x40d;" horiz-adv-x="703" 
d="M94 700h110v-504l287 504h118v-700h-110v502l-287 -502h-118v700zM351 904l68 -148h-80l-129 148h141z" />
    <glyph glyph-name="uni040E" unicode="&#x40e;" horiz-adv-x="510" 
d="M2 700h110l145 -363l147 363h104l-286 -708h-104l85 211zM288 896h81c0 -58 -46 -109 -115 -109s-115 51 -115 109h81c0 -21 15 -35 34 -35c20 0 34 14 34 35z" />
    <glyph glyph-name="uni040F" unicode="&#x40f;" horiz-adv-x="692" 
d="M94 0v700h110v-596h284v596h110v-700h-197v-124h-110v124h-197z" />
    <glyph glyph-name="uni0450" unicode="&#x450;" horiz-adv-x="559" 
d="M284 420c-69 0 -112 -47 -123 -110h245c-9 56 -47 110 -122 110zM516 268v-45h-357c0 -74 43 -139 125 -139c54 0 106 30 132 85l89 -35c-49 -95 -106 -142 -221 -142c-166 0 -235 140 -235 260s69 260 235 260c161 0 232 -131 232 -244zM276 708l68 -148h-80l-129 148
h141z" />
    <glyph glyph-name="uni0451" unicode="&#x451;" horiz-adv-x="559" 
d="M284 420c-69 0 -112 -47 -123 -110h245c-9 56 -47 110 -122 110zM516 268v-45h-357c0 -74 43 -139 125 -139c54 0 106 30 132 85l89 -35c-49 -95 -106 -142 -221 -142c-166 0 -235 140 -235 260s69 260 235 260c161 0 232 -131 232 -244zM128 651c0 36 27 63 63 63
s63 -27 63 -63s-27 -63 -63 -63s-63 27 -63 63zM314 651c0 36 27 63 63 63s63 -27 63 -63s-27 -63 -63 -63s-63 27 -63 63z" />
    <glyph glyph-name="uni0452" unicode="&#x452;" horiz-adv-x="588" 
d="M86 708h104v-61h122v-84h-122v-145c36 52 94 94 170 94c93 0 149 -50 149 -157v-332c0 -137 -65 -208 -184 -235l-26 91c66 20 106 53 106 134v315c0 77 -32 92 -79 92c-57 0 -136 -73 -136 -207v-213h-104v563h-68v84h68v61z" />
    <glyph glyph-name="uni0453" unicode="&#x453;" horiz-adv-x="431" 
d="M86 0v504h331v-92h-227v-412h-104zM164 560l68 148h141l-129 -148h-80z" />
    <glyph glyph-name="uni0454" unicode="&#x454;" horiz-adv-x="546" 
d="M419 165l89 -47c-38 -72 -108 -126 -215 -126c-160 0 -244 118 -244 260s84 260 244 260c107 0 177 -54 215 -126l-89 -47c-26 49 -69 81 -126 81c-78 0 -120 -51 -132 -122h229v-92h-229c12 -72 54 -122 132 -122c57 0 100 32 126 81z" />
    <glyph glyph-name="uni0455" unicode="&#x455;" horiz-adv-x="450" 
d="M234 512c61 0 117 -30 149 -80l-66 -58c-25 32 -56 46 -88 46c-26 0 -50 -17 -50 -50c0 -36 38 -52 90 -72c68 -26 141 -56 141 -146c0 -87 -67 -160 -175 -160c-104 0 -169 72 -195 135l88 48c20 -45 55 -91 111 -91c40 0 68 20 68 66c0 44 -61 56 -120 81
c-58 24 -108 61 -108 138c0 78 64 143 155 143z" />
    <glyph glyph-name="uni0456" unicode="&#x456;" horiz-adv-x="266" 
d="M61 646c0 40 31 73 72 73s72 -33 72 -73s-31 -71 -72 -71s-72 31 -72 71zM81 504h104v-504h-104v504z" />
    <glyph glyph-name="uni0457" unicode="&#x457;" horiz-adv-x="266" 
d="M-23 651c0 36 27 63 63 63s63 -27 63 -63s-27 -63 -63 -63s-63 27 -63 63zM163 651c0 36 27 63 63 63s63 -27 63 -63s-27 -63 -63 -63s-63 27 -63 63zM81 504h104v-504h-104v504z" />
    <glyph glyph-name="uni0458" unicode="&#x458;" horiz-adv-x="266" 
d="M61 646c0 40 31 73 72 73s72 -33 72 -73s-31 -71 -72 -71s-72 31 -72 71zM1 -212l-26 91c66 20 106 53 106 134v491h104v-481c0 -137 -65 -208 -184 -235z" />
    <glyph glyph-name="uni0459" unicode="&#x459;" horiz-adv-x="796" 
d="M257 412l-30 -280c-12 -113 -80 -132 -190 -132v92c58 0 90 23 95 76l33 336h307v-192h106c105 0 168 -62 168 -156s-63 -156 -168 -156h-210v412h-111zM553 220h-81v-128h81c58 0 88 18 88 64s-30 64 -88 64z" />
    <glyph glyph-name="uni045A" unicode="&#x45a;" horiz-adv-x="815" 
d="M84 504h104v-192h199v192h104v-192h106c105 0 168 -62 168 -156s-63 -156 -168 -156h-210v220h-199v-220h-104v504zM572 220h-81v-128h81c58 0 88 18 88 64s-30 64 -88 64z" />
    <glyph glyph-name="uni045B" unicode="&#x45b;" horiz-adv-x="588" 
d="M86 708h104v-61h122v-84h-122v-145c36 52 94 94 170 94c93 0 149 -50 149 -157v-355h-104v328c0 61 -27 92 -79 92c-57 0 -136 -73 -136 -207v-213h-104v563h-68v84h68v61z" />
    <glyph glyph-name="uni045C" unicode="&#x45c;" horiz-adv-x="525" 
d="M86 504h104v-201l182 201h132l-211 -232l224 -272h-132l-195 241v-241h-104v504zM209 560l68 148h141l-129 -148h-80z" />
    <glyph glyph-name="uni045D" unicode="&#x45d;" horiz-adv-x="592" 
d="M86 504h104v-341l201 341h115v-504h-104v341l-201 -341h-115v504zM302 708l68 -148h-80l-129 148h141z" />
    <glyph glyph-name="uni045E" unicode="&#x45e;" horiz-adv-x="469" 
d="M8 504h110l119 -339l115 339h110l-255 -708h-104l82 229zM271 700h81c0 -58 -46 -109 -115 -109s-115 51 -115 109h81c0 -21 15 -35 34 -35c20 0 34 14 34 35z" />
    <glyph glyph-name="uni045F" unicode="&#x45f;" horiz-adv-x="570" 
d="M484 504v-504h-147v-114h-104v114h-147v504h104v-412h190v412h104z" />
    <glyph glyph-name="arrow.l" horiz-adv-x="654" 
d="M286 103l-246 247l246 247l63 -65l-134 -136h389v-92h-389l134 -136z" />
    <glyph glyph-name="arrow.r" horiz-adv-x="654" 
d="M614 350l-246 -247l-63 65l134 136h-389v92h389l-134 136l63 65z" />
    <glyph glyph-name="arrow.u" horiz-adv-x="646" 
d="M323 634l247 -246l-65 -63l-136 134v-389h-92v389l-136 -134l-65 63z" />
    <glyph glyph-name="arrow.d" horiz-adv-x="646" 
d="M570 316l-247 -246l-247 246l65 63l136 -134v389h92v-389l136 134z" />
    <glyph glyph-name="arrow.ul" horiz-adv-x="647" 
d="M105 566h348v-92h-191l274 -275l-65 -65l-274 275v-192h-92v349z" />
    <glyph glyph-name="arrow.ur" horiz-adv-x="647" 
d="M194 566h348v-349h-92v192l-274 -275l-65 65l274 275h-191v92z" />
    <glyph glyph-name="arrow.dl" horiz-adv-x="647" 
d="M453 134h-348v349h92v-192l274 275l65 -65l-274 -275h191v-92z" />
    <glyph glyph-name="arrow.dr" horiz-adv-x="647" 
d="M542 134h-348v92h191l-274 275l65 65l274 -275v192h92v-349z" />
    <glyph glyph-name="arrow.l.xl" horiz-adv-x="774" 
d="M286 103l-246 247l246 247l63 -65l-134 -136h509v-92h-509l134 -136z" />
    <glyph glyph-name="arrow.r.xl" horiz-adv-x="774" 
d="M734 350l-246 -247l-63 65l134 136h-509v92h509l-134 136l63 65z" />
    <glyph glyph-name="arrow.u.xl" horiz-adv-x="646" 
d="M323 692l247 -246l-65 -63l-136 134v-509h-92v509l-136 -134l-65 63z" />
    <glyph glyph-name="arrow.d.xl" horiz-adv-x="646" 
d="M570 254l-247 -246l-247 246l65 63l136 -134v509h92v-509l136 134z" />
    <glyph glyph-name="arrow.ul.xl" horiz-adv-x="732" 
d="M105 608h349v-92h-191l358 -359l-65 -65l-359 358v-191h-92v349z" />
    <glyph glyph-name="arrow.ur.xl" horiz-adv-x="732" 
d="M278 608h349v-349h-92v191l-359 -358l-65 65l358 359h-191v92z" />
    <glyph glyph-name="arrow.dl.xl" horiz-adv-x="732" 
d="M454 92h-349v349h92v-191l359 358l65 -65l-358 -359h191v-92z" />
    <glyph glyph-name="arrow.dr.xl" horiz-adv-x="732" 
d="M627 92h-349v92h191l-358 359l65 65l359 -358v191h92v-349z" />
    <glyph glyph-name="dcaron.alt" horiz-adv-x="783" 
d="M49 252c0 156 76 260 227 260c50 0 112 -31 135 -64v260h104v-708h-104v58c-17 -29 -71 -66 -137 -66c-149 0 -225 99 -225 260zM159 252c0 -104 54 -168 129 -168s129 64 129 168s-54 168 -129 168s-129 -64 -129 -168zM601 435l-24 29c40 34 71 67 71 108
c-38 14 -52 41 -52 68c0 38 28 68 69 68c46 0 73 -33 73 -72c0 -86 -63 -152 -137 -201z" />
    <glyph glyph-name="uni0123.alt" horiz-adv-x="511" 
d="M87 343c0 105 78 169 180 169c34 0 65 -8 92 -22l93 50l42 -75l-68 -38c14 -24 22 -52 22 -84c0 -106 -79 -169 -181 -169c-30 0 -58 6 -81 15c-18 -10 -27 -25 -27 -44c0 -27 17 -39 52 -39h111c99 0 167 -49 167 -144c0 -125 -108 -174 -221 -174
c-127 0 -222 56 -222 166c0 43 17 78 43 102c-18 18 -29 44 -29 79c0 45 24 81 61 102c-22 27 -34 63 -34 106zM300 18h-81c-18 0 -35 1 -51 3c-15 -16 -22 -35 -22 -61c0 -50 45 -82 122 -82c72 0 115 27 115 76c0 48 -34 64 -83 64zM188 343c0 -50 33 -82 79 -82
c47 0 80 32 80 82s-33 82 -80 82c-46 0 -79 -32 -79 -82zM301 835l24 -29c-40 -34 -71 -67 -71 -108c38 -14 52 -41 52 -68c0 -38 -28 -68 -69 -68c-46 0 -73 33 -73 72c0 86 63 152 137 201z" />
    <glyph glyph-name="lcaron.alt" horiz-adv-x="446" 
d="M84 708h104v-708h-104v708zM264 435l-24 29c40 34 71 67 71 108c-38 14 -52 41 -52 68c0 38 28 68 69 68c46 0 73 -33 73 -72c0 -86 -63 -152 -137 -201z" />
    <glyph glyph-name="napostrophe.alt" horiz-adv-x="729" 
d="M239 504h104v-86c36 60 96 94 163 94c88 0 148 -53 148 -151v-361h-104v328c0 68 -31 92 -78 92c-65 0 -129 -77 -129 -216v-204h-104v504zM94 435l-24 29c40 34 71 67 71 108c-38 14 -52 41 -52 68c0 38 28 68 69 68c46 0 73 -33 73 -72c0 -86 -63 -152 -137 -201z" />
    <glyph glyph-name="tcaron.alt" horiz-adv-x="568" 
d="M21 412v92h84v139l104 65v-204h131v-92h-131v-246c0 -57 21 -82 67 -82c18 0 30 3 48 14l27 -88c-27 -13 -53 -18 -81 -18c-95 0 -165 56 -165 180v240h-84zM399 435l-24 29c40 34 71 67 71 108c-38 14 -52 41 -52 68c0 38 28 68 69 68c46 0 73 -33 73 -72
c0 -86 -63 -152 -137 -201z" />
    <glyph glyph-name="nbspace" unicode="&#xa0;" horiz-adv-x="258" 
 />
    </font>
</defs>
</svg>
