<?xml version="1.0" standalone="no"?>
<!DOCTYPE svg PUBLIC "-//W3C//DTD SVG 1.1//EN" "http://www.w3.org/Graphics/SVG/1.1/DTD/svg11.dtd" >
<svg xmlns="http://www.w3.org/2000/svg" xmlns:xlink="http://www.w3.org/1999/xlink" version="1.1">
<metadata>
Created by FontForge 20201107 at Sun Oct  3 19:18:22 2010
 By Jimmy Wärting
Copyright (c) 2009 by The Entente (AS &#38; EH). Apercu is a trademark of The Entente (AS &#38; EH). All rights reserved. // wf-rip
</metadata>
<defs>
<font id="Apercu-Bold" horiz-adv-x="572" >
  <font-face 
    font-family="Apercu"
    font-weight="700"
    font-stretch="normal"
    units-per-em="1000"
    panose-1="2 0 8 3 4 0 0 2 0 4"
    ascent="800"
    descent="-200"
    x-height="504"
    cap-height="700"
    bbox="-75 -266 1227 953"
    underline-thickness="50"
    underline-position="-100"
    unicode-range="U+000D-FB02"
  />
<missing-glyph horiz-adv-x="651" 
d="M561 0h-471v700h471v-700zM441 106v488h-231v-488h231z" />
    <glyph glyph-name="fi" unicode="fi" 
d="M96 398h-64v106h64v6c0 131 90 198 234 198c59 0 108 -10 145 -29l-39 -94c-28 11 -61 17 -99 17c-73 0 -117 -33 -117 -93v-5h283v-504h-124v398h-159v-398h-124v398z" />
    <glyph glyph-name="fl" unicode="fl" horiz-adv-x="623" 
d="M96 398h-64v106h64v26c0 119 66 178 174 178h277v-708h-124v602h-146c-38 0 -57 -21 -57 -63v-35h106v-106h-106v-398h-124v398z" />
    <glyph glyph-name=".notdef" horiz-adv-x="651" 
d="M561 0h-471v700h471v-700zM441 106v488h-231v-488h231z" />
    <glyph glyph-name=".null" horiz-adv-x="0" 
 />
    <glyph glyph-name=".null" horiz-adv-x="0" 
 />
    <glyph glyph-name="space" unicode=" " horiz-adv-x="248" 
 />
    <glyph glyph-name="exclam" unicode="!" horiz-adv-x="360" 
d="M129 242l-28 458h164l-28 -458h-108zM100 76c0 47 38 84 83 84s83 -37 83 -84c0 -45 -36 -82 -83 -82s-83 37 -83 82z" />
    <glyph glyph-name="quotedbl" unicode="&#x22;" horiz-adv-x="491" 
d="M190 459h-79l-31 249h141zM380 459h-79l-31 249h141z" />
    <glyph glyph-name="numbersign" unicode="#" horiz-adv-x="736" 
d="M223 409h-118v98h138l40 193h100l-40 -193h114l39 193h100l-39 -193h114v-98h-134l-24 -118h118v-98h-138l-40 -193h-100l40 193h-114l-39 -193h-100l39 193h-114v98h134zM437 409h-114l-24 -118h114z" />
    <glyph glyph-name="dollar" unicode="$" horiz-adv-x="537" 
d="M470 581l-105 -67c-25 49 -58 74 -97 74s-67 -27 -67 -64c0 -44 48 -77 105 -104c84 -37 195 -89 194 -210c0 -115 -63 -191 -164 -212v-88h-122v90c-93 23 -160 97 -179 188l105 66c27 -95 73 -142 139 -142c61 0 91 30 91 91c0 41 -45 73 -104 98
c-83 35 -191 88 -189 217c0 88 54 160 137 183v89h122v-91c61 -17 105 -57 134 -118z" />
    <glyph glyph-name="percent" unicode="%" horiz-adv-x="838" 
d="M98 434c-31 31 -46 69 -46 114s15 83 46 114s71 46 118 46s86 -15 117 -46s47 -69 47 -114s-16 -83 -47 -114s-70 -46 -117 -46s-87 15 -118 46zM170 594c-21 -24 -21 -68 0 -93c11 -12 27 -18 46 -18s34 6 45 18c23 25 23 69 0 93c-11 13 -26 19 -45 19s-35 -6 -46 -19z
M504 38c-31 31 -46 69 -46 114s15 83 46 114s71 46 118 46s86 -15 117 -46s47 -69 47 -114s-16 -83 -47 -114s-70 -46 -117 -46s-87 15 -118 46zM576 198c-21 -24 -21 -68 0 -93c11 -12 27 -18 46 -18s34 6 45 18c23 25 23 69 0 93c-11 13 -26 19 -45 19s-35 -6 -46 -19z
M117 20l538 718l72 -57l-538 -719z" />
    <glyph glyph-name="ampersand" unicode="&#x26;" horiz-adv-x="696" 
d="M288 -8c-64 0 -117 19 -159 57c-42 39 -63 91 -63 157c0 97 56 172 133 216c-32 45 -48 90 -48 137c0 42 15 77 45 106s69 43 118 43s89 -14 118 -42c29 -27 44 -60 44 -98c0 -79 -49 -143 -114 -178l115 -151c19 35 36 77 51 126l72 -84c-12 -51 -29 -96 -52 -135
l112 -146h-147l-41 54c-52 -41 -113 -62 -184 -62zM289 107c44 0 82 13 114 39l-141 188c-51 -31 -76 -73 -76 -126c0 -57 42 -101 103 -101zM314 602c-31 0 -53 -20 -53 -51c0 -25 11 -50 32 -77c47 21 71 48 71 81c0 28 -21 47 -50 47z" />
    <glyph glyph-name="quotesingle" unicode="'" horiz-adv-x="301" 
d="M190 459h-79l-31 249h141z" />
    <glyph glyph-name="parenleft" unicode="(" horiz-adv-x="300" 
d="M169 750h107c-61 -112 -92 -245 -92 -400c0 -89 7 -163 22 -223s39 -119 70 -177h-107c-22 40 -39 74 -52 103s-25 70 -36 123s-17 111 -17 174s6 120 17 173s23 94 36 123s30 64 52 104z" />
    <glyph glyph-name="parenright" unicode=")" horiz-adv-x="300" 
d="M24 750h107c22 -40 39 -75 52 -104c25 -57 53 -171 53 -296c0 -63 -6 -121 -17 -174s-23 -94 -36 -123s-30 -63 -52 -103h-107c31 58 54 117 69 177s23 134 23 223c0 155 -31 288 -92 400z" />
    <glyph glyph-name="asterisk" unicode="*" horiz-adv-x="486" 
d="M192 708h102v-113l109 36l33 -99l-109 -37l67 -91l-85 -63l-66 93l-66 -93l-85 63l67 91l-109 37l33 99l109 -36v113z" />
    <glyph glyph-name="plus" unicode="+" horiz-adv-x="584" 
d="M239 371v184h108v-184h184v-108h-184v-184h-108v184h-184v108h184z" />
    <glyph glyph-name="comma" unicode="," horiz-adv-x="363" 
d="M144 -156h-87l75 302h167z" />
    <glyph glyph-name="hyphen" unicode="-" horiz-adv-x="503" 
d="M438 263h-373v108h373v-108z" />
    <glyph glyph-name="period" unicode="." horiz-adv-x="328" 
d="M104 18c-32 32 -32 88 0 120s88 32 120 0s32 -88 0 -120s-88 -32 -120 0z" />
    <glyph glyph-name="slash" unicode="/" horiz-adv-x="550" 
d="M8 -50l436 800h120l-436 -800h-120z" />
    <glyph glyph-name="zero" unicode="0" horiz-adv-x="640" 
d="M129 613c45 63 108 95 191 95s146 -32 191 -95s67 -150 67 -263s-22 -201 -67 -264s-108 -94 -191 -94s-146 31 -191 94s-67 151 -67 264s22 200 67 263zM454 350c0 161 -45 242 -134 242s-134 -81 -134 -242s45 -242 134 -242s134 81 134 242z" />
    <glyph glyph-name="one" unicode="1" horiz-adv-x="414" 
d="M68 580l205 120h55v-700h-126v524l-134 -80v136z" />
    <glyph glyph-name="two" unicode="2" horiz-adv-x="579" 
d="M509 0h-445v50l250 323c36 45 54 88 54 127c0 57 -30 92 -86 92c-51 0 -83 -33 -91 -92l-116 22c3 53 25 98 64 133s88 53 146 53c131 0 209 -82 209 -203c0 -58 -20 -113 -60 -166l-171 -223h246v-116z" />
    <glyph glyph-name="three" unicode="3" horiz-adv-x="589" 
d="M56 194l121 16c17 -68 54 -102 113 -102c65 0 111 46 111 117c0 79 -45 123 -110 123c-21 0 -42 -5 -61 -15l-50 70l132 181h-223v116h401v-44l-165 -223c12 1 21 2 28 2c107 0 174 -84 174 -208c0 -71 -22 -128 -67 -171s-101 -64 -170 -64c-64 0 -118 19 -161 56
c-43 38 -67 87 -73 146z" />
    <glyph glyph-name="four" unicode="4" horiz-adv-x="615" 
d="M486 0h-126v130h-301v64l295 506h132v-454h78v-116h-78v-130zM360 513l-148 -267h148v267z" />
    <glyph glyph-name="five" unicode="5" horiz-adv-x="583" 
d="M72 183l119 22c13 -65 48 -97 105 -97c68 0 104 44 104 124c0 79 -39 121 -110 121c-45 0 -87 -21 -124 -63l-79 16l39 394h360v-116h-257l-16 -146c29 17 62 26 99 26c141 0 214 -89 214 -232c0 -71 -21 -129 -63 -174c-42 -44 -98 -66 -167 -66c-60 0 -111 17 -153 52
c-41 35 -65 82 -71 139z" />
    <glyph glyph-name="six" unicode="6" horiz-adv-x="593" 
d="M448 708l-152 -260h16c65 0 118 -21 161 -64c43 -42 65 -97 65 -164c0 -65 -22 -120 -67 -163s-100 -65 -167 -65c-66 0 -122 22 -167 65s-67 98 -67 163c0 43 11 84 34 123l204 365h140zM196 220c0 -67 48 -112 108 -112c61 0 108 45 108 112c0 69 -45 112 -108 112
s-108 -43 -108 -112z" />
    <glyph glyph-name="seven" unicode="7" horiz-adv-x="497" 
d="M49 700h424v-52l-264 -648h-124l239 584h-275v116z" />
    <glyph glyph-name="eight" unicode="8" horiz-adv-x="594" 
d="M498 517c0 -59 -22 -105 -66 -140c62 -35 93 -91 93 -168c0 -66 -22 -119 -67 -158c-44 -39 -98 -59 -161 -59s-117 20 -162 59c-44 39 -66 92 -66 158c0 77 31 133 92 168c-43 34 -65 81 -65 140c0 53 19 98 56 135c38 37 86 56 145 56s107 -19 144 -56
c38 -37 57 -82 57 -135zM370 283c-19 18 -44 27 -73 27s-54 -9 -73 -27s-29 -43 -29 -74s10 -56 29 -74s44 -27 73 -27s54 9 73 27s29 43 29 74s-10 56 -29 74zM213 515c0 -53 33 -89 84 -89s84 36 84 89c0 52 -33 87 -84 87s-84 -35 -84 -87z" />
    <glyph glyph-name="nine" unicode="9" horiz-adv-x="593" 
d="M161 -8l152 260h-16c-65 0 -119 21 -162 63c-43 43 -64 98 -64 165c0 65 22 120 67 163s100 65 167 65c66 0 121 -22 166 -65s68 -98 68 -163c0 -43 -11 -84 -34 -123l-204 -365h-140zM413 480c0 67 -48 112 -108 112c-61 0 -108 -45 -108 -112c0 -69 45 -112 108 -112
s108 43 108 112z" />
    <glyph glyph-name="colon" unicode=":" horiz-adv-x="338" 
d="M106 18c-32 32 -32 88 0 120s88 32 120 0s32 -88 0 -120s-88 -32 -120 0zM106 368c-32 32 -32 88 0 120s88 32 120 0s32 -88 0 -120s-88 -32 -120 0z" />
    <glyph glyph-name="semicolon" unicode=";" horiz-adv-x="338" 
d="M99 -156h-87l75 302h167zM105 368c-32 32 -32 88 0 120s88 32 120 0s32 -88 0 -120s-88 -32 -120 0z" />
    <glyph glyph-name="less" unicode="&#x3c;" horiz-adv-x="487" 
d="M436 48l-391 204v116l391 204v-131l-252 -131l252 -131v-131z" />
    <glyph glyph-name="equal" unicode="=" horiz-adv-x="617" 
d="M527 346h-437v108h437v-108zM527 166h-437v108h437v-108z" />
    <glyph glyph-name="greater" unicode="&#x3e;" horiz-adv-x="487" 
d="M51 572l391 -204v-116l-391 -204v131l252 131l-252 131v131z" />
    <glyph glyph-name="question" unicode="?" horiz-adv-x="460" 
d="M288 349l88 -33c-23 -64 -74 -103 -145 -103c-81 0 -138 52 -138 128c0 59 36 103 108 130c77 29 100 50 100 83s-26 50 -65 50c-43 0 -72 -22 -85 -67l-109 18c16 88 87 153 191 153c112 0 185 -62 185 -158c0 -37 -11 -66 -33 -87c-21 -21 -56 -40 -105 -59
c-67 -27 -85 -39 -85 -66c0 -21 16 -35 36 -35c27 0 46 15 57 46zM148 76c0 47 38 84 83 84s83 -37 83 -84c0 -45 -36 -82 -83 -82s-83 37 -83 82z" />
    <glyph glyph-name="at" unicode="@" horiz-adv-x="906" 
d="M247 296c0 61 19 113 58 156s92 64 158 64c41 0 75 -13 104 -38l11 31h83l-20 -219c-1 -19 -2 -28 -2 -29c0 -34 13 -51 39 -51c40 0 60 49 60 147c0 171 -106 259 -267 259c-79 0 -147 -28 -205 -83c-57 -55 -86 -132 -86 -232c0 -199 155 -293 290 -293c25 0 47 1 66 2
c37 4 105 21 172 53l39 -97c-47 -22 -91 -37 -133 -46s-90 -14 -144 -14c-121 0 -220 37 -296 111c-76 75 -114 169 -114 284c0 126 39 227 116 303s177 114 300 114c122 0 216 -34 282 -101c67 -67 100 -155 100 -265c0 -73 -18 -132 -53 -177s-80 -67 -137 -67
c-51 0 -93 30 -109 69c-37 -46 -82 -69 -134 -69c-111 0 -178 76 -178 188zM362 291c0 -54 24 -81 72 -81c60 0 105 52 105 120c0 53 -29 84 -81 84s-96 -48 -96 -123z" />
    <glyph glyph-name="A" unicode="A" horiz-adv-x="614" 
d="M609 0h-140l-51 165h-222l-51 -165h-140l237 700h130zM381 285l-74 243l-74 -243h148z" />
    <glyph glyph-name="B" unicode="B" horiz-adv-x="624" 
d="M90 0v700h256c123 0 200 -65 200 -189c0 -57 -25 -106 -69 -129c70 -29 105 -86 105 -171c0 -135 -87 -211 -231 -211h-261zM336 580h-116v-152h119c55 0 82 21 82 76s-28 76 -85 76zM339 308h-119v-188h119c75 0 113 31 113 94s-38 94 -113 94z" />
    <glyph glyph-name="C" unicode="C" horiz-adv-x="700" 
d="M669 496l-117 -30c-31 81 -88 122 -173 122c-57 0 -105 -20 -143 -61c-37 -41 -56 -100 -56 -177s19 -136 56 -177c38 -41 86 -61 143 -61c85 0 142 41 173 122l117 -30c-33 -135 -138 -212 -290 -212c-93 0 -171 32 -235 95s-96 151 -96 263s32 200 96 263
s142 95 235 95c152 0 257 -77 290 -212z" />
    <glyph glyph-name="D" unicode="D" horiz-adv-x="683" 
d="M309 0h-219v700h219c165 0 326 -106 326 -350s-161 -350 -326 -350zM220 580v-460h48c61 0 111 13 158 45c48 32 77 96 77 185s-29 153 -77 185c-47 32 -97 45 -158 45h-48z" />
    <glyph glyph-name="E" unicode="E" horiz-adv-x="575" 
d="M90 0v700h433v-120h-303v-147h243v-120h-243v-193h313v-120h-443z" />
    <glyph glyph-name="F" unicode="F" horiz-adv-x="562" 
d="M90 0v700h443v-120h-313v-160h252v-120h-252v-300h-130z" />
    <glyph glyph-name="G" unicode="G" horiz-adv-x="732" 
d="M661 0h-109l-11 75c-37 -55 -93 -83 -170 -83c-90 0 -166 31 -229 94s-94 151 -94 264s32 201 97 264s143 94 236 94c151 0 254 -88 291 -221l-119 -31c-36 88 -93 132 -172 132c-119 0 -201 -82 -201 -238c0 -160 81 -238 198 -238c95 0 148 61 157 133h-130v108h256
v-353z" />
    <glyph glyph-name="H" unicode="H" horiz-adv-x="720" 
d="M220 0h-130v700h130v-266h280v266h130v-700h-130v314h-280v-314z" />
    <glyph glyph-name="I" unicode="I" horiz-adv-x="310" 
d="M90 700h130v-700h-130v700z" />
    <glyph glyph-name="J" unicode="J" horiz-adv-x="515" 
d="M2 173l128 27c11 -59 41 -88 88 -88c60 0 93 32 93 120v468h130v-454c0 -181 -78 -254 -223 -254c-121 0 -201 68 -216 181z" />
    <glyph glyph-name="K" unicode="K" horiz-adv-x="643" 
d="M90 0v700h130v-260l239 260h160l-284 -313l304 -387h-165l-254 334v-334h-130z" />
    <glyph glyph-name="L" unicode="L" horiz-adv-x="531" 
d="M90 0v700h130v-580h297v-120h-427z" />
    <glyph glyph-name="M" unicode="M" horiz-adv-x="802" 
d="M220 0h-130v700h146l165 -437l165 437h146v-700h-130v432l-134 -368h-94l-134 368v-432z" />
    <glyph glyph-name="N" unicode="N" horiz-adv-x="704" 
d="M484 238v462h130v-700h-137l-257 462v-462h-130v700h137z" />
    <glyph glyph-name="O" unicode="O" horiz-adv-x="756" 
d="M214 670c49 25 103 38 164 38c121 0 222 -47 283 -158c31 -55 47 -122 47 -200c0 -156 -69 -270 -166 -321c-49 -25 -103 -37 -164 -37c-121 0 -221 47 -284 158c-31 55 -46 122 -46 200c0 156 69 271 166 320zM519 528c-37 40 -84 60 -141 60s-104 -20 -142 -60
c-37 -40 -56 -99 -56 -178s19 -138 56 -178c38 -40 85 -60 142 -60s104 20 141 60c38 40 57 99 57 178s-19 138 -57 178z" />
    <glyph glyph-name="P" unicode="P" horiz-adv-x="592" 
d="M354 274h-134v-274h-130v700h264c143 0 219 -85 219 -213s-76 -213 -219 -213zM220 394h129c61 0 92 31 92 93s-31 93 -92 93h-129v-186z" />
    <glyph glyph-name="Q" unicode="Q" horiz-adv-x="756" 
d="M708 350c0 -79 -16 -147 -47 -202l67 -66l-91 -90l-61 60c-55 -40 -121 -60 -198 -60c-121 0 -221 47 -284 158c-31 55 -46 122 -46 200s15 145 46 200c63 111 163 158 284 158c61 0 115 -13 164 -38c97 -49 166 -164 166 -320zM485 142l-91 92l91 90l76 -77
c10 29 15 63 15 103c0 79 -19 138 -57 178c-37 40 -84 60 -141 60s-104 -20 -142 -60c-37 -40 -56 -99 -56 -178s19 -138 56 -178c38 -40 85 -60 142 -60c40 0 76 10 107 30z" />
    <glyph glyph-name="R" unicode="R" horiz-adv-x="653" 
d="M558 501c0 -93 -47 -163 -131 -188l194 -313h-145l-188 302h-68v-302h-130v700h255c136 0 213 -79 213 -199zM220 422h126c55 0 82 26 82 79s-27 79 -82 79h-126v-158z" />
    <glyph glyph-name="S" unicode="S" horiz-adv-x="537" 
d="M470 581l-105 -67c-25 49 -58 74 -97 74s-67 -27 -67 -64c0 -44 48 -77 105 -104c84 -37 195 -89 194 -210c0 -136 -88 -218 -224 -218c-61 0 -114 19 -158 56c-44 38 -72 85 -83 140l105 66c27 -95 73 -142 139 -142c61 0 91 30 91 91c0 41 -45 73 -104 98
c-83 35 -191 88 -189 217c0 53 18 98 54 135c37 37 82 55 137 55c95 0 162 -42 202 -127z" />
    <glyph glyph-name="T" unicode="T" horiz-adv-x="534" 
d="M202 580h-194v120h518v-120h-194v-580h-130v580z" />
    <glyph glyph-name="U" unicode="U" horiz-adv-x="656" 
d="M459 700h130v-434c0 -181 -101 -274 -261 -274s-261 93 -261 274v434h130v-436c0 -101 44 -152 131 -152s131 51 131 152v436z" />
    <glyph glyph-name="V" unicode="V" horiz-adv-x="604" 
d="M603 700l-235 -700h-132l-235 700h144l157 -518l157 518h144z" />
    <glyph glyph-name="W" unicode="W" horiz-adv-x="920" 
d="M647 185l117 515h138l-183 -700h-132l-127 412l-127 -412h-132l-183 700h138l117 -515l131 441h112z" />
    <glyph glyph-name="X" unicode="X" horiz-adv-x="592" 
d="M296 502l114 198h142l-185 -322l218 -378h-144l-145 253l-145 -253h-144l218 378l-185 322h142z" />
    <glyph glyph-name="Y" unicode="Y" horiz-adv-x="534" 
d="M202 298l-202 402h140l127 -272l127 272h140l-202 -402v-298h-130v298z" />
    <glyph glyph-name="Z" unicode="Z" horiz-adv-x="558" 
d="M333 580h-286v120h464v-60l-300 -520h314v-120h-495v60z" />
    <glyph glyph-name="bracketleft" unicode="[" horiz-adv-x="352" 
d="M320 -50h-230v800h230v-108h-110v-584h110v-108z" />
    <glyph glyph-name="backslash" unicode="\" horiz-adv-x="550" 
d="M422 -50l-436 800h120l436 -800h-120z" />
    <glyph glyph-name="bracketright" unicode="]" horiz-adv-x="352" 
d="M32 750h230v-800h-230v108h110v584h-110v108z" />
    <glyph glyph-name="asciicircum" unicode="^" horiz-adv-x="599" 
d="M51 403l195 297h107l195 -297h-120l-128 189l-129 -189h-120z" />
    <glyph glyph-name="underscore" unicode="_" horiz-adv-x="505" 
d="M480 -108h-455v108h455v-108z" />
    <glyph glyph-name="grave" unicode="`" horiz-adv-x="260" 
d="M13 708h168l64 -148h-95z" />
    <glyph glyph-name="a" unicode="a" horiz-adv-x="514" 
d="M162 348l-105 24c16 84 91 140 192 140c141 0 212 -70 212 -211v-301h-102l-13 64c-39 -48 -91 -72 -155 -72c-89 0 -153 56 -153 153c0 100 87 165 215 165h84v22c0 49 -29 74 -88 74c-45 0 -74 -19 -87 -58zM168 147c0 -27 19 -49 52 -49c31 0 58 10 81 29
c24 19 36 44 36 75v10h-83c-57 0 -86 -22 -86 -65z" />
    <glyph glyph-name="b" unicode="b" horiz-adv-x="599" 
d="M326 -8c-57 0 -106 31 -122 60v-52h-124v708h124v-250c23 29 73 54 122 54c148 0 230 -101 230 -260s-82 -260 -230 -260zM393 139c22 27 33 65 33 113s-11 86 -33 113s-50 41 -84 41s-62 -14 -84 -41c-21 -27 -32 -64 -32 -113s11 -87 32 -114c22 -27 50 -40 84 -40
s62 14 84 41z" />
    <glyph glyph-name="c" unicode="c" horiz-adv-x="551" 
d="M407 181l111 -45c-39 -96 -115 -144 -229 -144c-79 0 -139 25 -182 74s-64 111 -64 186s21 137 64 186s103 74 182 74c114 0 190 -48 229 -144l-111 -45c-27 55 -67 83 -118 83c-76 0 -116 -62 -116 -154s40 -154 116 -154c51 0 91 28 118 83z" />
    <glyph glyph-name="d" unicode="d" horiz-adv-x="599" 
d="M273 512c49 0 99 -25 122 -54v250h124v-708h-124v52c-16 -29 -65 -60 -122 -60c-148 0 -230 101 -230 260s82 260 230 260zM206 365c-22 -27 -33 -65 -33 -113s11 -86 33 -113s50 -41 84 -41s62 13 83 40c22 27 33 65 33 114s-11 86 -33 113c-21 27 -49 41 -83 41
s-62 -14 -84 -41z" />
    <glyph glyph-name="e" unicode="e" horiz-adv-x="556" 
d="M520 263v-51h-347c3 -61 47 -114 119 -114c51 0 92 26 122 78l100 -37c-43 -98 -119 -147 -229 -147c-173 0 -242 140 -242 260s69 260 242 260c80 0 145 -33 181 -84c36 -49 54 -108 54 -165zM285 406c-59 0 -100 -43 -109 -96h217c-14 64 -50 96 -108 96z" />
    <glyph glyph-name="f" unicode="f" horiz-adv-x="368" 
d="M96 398h-64v106h64v26c0 119 66 178 174 178c38 0 69 -7 94 -20l-27 -100c-22 9 -42 14 -60 14c-38 0 -57 -21 -57 -63v-35h106v-106h-106v-398h-124v398z" />
    <glyph glyph-name="g" unicode="g" horiz-adv-x="515" 
d="M81 342c0 51 18 92 53 123s79 47 132 47c33 0 64 -7 93 -22l95 50l49 -82l-72 -36c13 -23 20 -50 20 -80c0 -51 -18 -92 -53 -123c-35 -30 -79 -45 -132 -45c-25 0 -50 4 -73 11c-16 -9 -24 -22 -24 -38c0 -25 16 -37 47 -37h103c108 0 177 -53 177 -148
c0 -39 -12 -72 -35 -99c-47 -55 -114 -75 -194 -75c-67 0 -122 14 -165 43c-42 29 -63 70 -63 123c0 41 14 75 41 100c-17 21 -26 47 -26 78c0 46 21 81 62 106c-23 29 -35 63 -35 104zM291 6h-68c-23 0 -42 1 -58 4c-7 -11 -11 -26 -11 -46c0 -47 45 -72 113 -72
c70 0 105 21 105 62c0 35 -27 52 -81 52zM197 342c0 -40 29 -68 69 -68s69 28 69 68c0 41 -29 70 -69 70s-69 -29 -69 -70z" />
    <glyph glyph-name="h" unicode="h" horiz-adv-x="593" 
d="M80 0v708h124v-285c37 59 91 89 160 89c97 0 157 -52 157 -152v-360h-124v316c0 60 -25 90 -75 90c-64 0 -118 -66 -118 -193v-213h-124z" />
    <glyph glyph-name="i" unicode="i" horiz-adv-x="260" 
d="M73 592c-31 31 -31 83 0 114s83 31 114 0s31 -83 0 -114s-83 -31 -114 0zM68 0v504h124v-504h-124z" />
    <glyph glyph-name="j" unicode="j" horiz-adv-x="260" 
d="M68 43v461h124v-446c0 -157 -67 -237 -211 -270l-30 109c79 20 117 57 117 146zM73 592c-31 31 -31 83 0 114s83 31 114 0s31 -83 0 -114s-83 -31 -114 0z" />
    <glyph glyph-name="k" unicode="k" horiz-adv-x="537" 
d="M80 0v708h124v-402l164 198h153l-202 -232l215 -272h-152l-178 238v-238h-124z" />
    <glyph glyph-name="l" unicode="l" horiz-adv-x="278" 
d="M78 0v708h124v-708h-124z" />
    <glyph glyph-name="m" unicode="m" horiz-adv-x="866" 
d="M499 196v-196h-124v336c0 47 -21 70 -62 70c-64 0 -109 -77 -109 -221v-185h-124v504h124v-81c39 59 88 89 145 89c65 0 120 -35 141 -104c39 69 90 104 154 104c93 0 150 -58 150 -155v-357h-124v336c0 47 -21 70 -62 70c-64 0 -109 -74 -109 -210z" />
    <glyph glyph-name="n" unicode="n" horiz-adv-x="587" 
d="M80 0v504h124v-81c41 59 93 89 156 89c93 0 155 -53 155 -152v-360h-124v323c0 55 -24 83 -72 83c-64 0 -115 -78 -115 -205v-201h-124z" />
    <glyph glyph-name="o" unicode="o" horiz-adv-x="598" 
d="M112 65c-46 49 -69 112 -69 187s23 137 69 186s108 74 187 74s141 -25 187 -74s69 -111 69 -186s-23 -138 -69 -187s-108 -73 -187 -73s-141 24 -187 73zM207 361c-23 -29 -34 -66 -34 -109s11 -80 34 -110c23 -29 53 -44 92 -44s69 15 92 44c23 30 34 67 34 110
s-11 80 -34 109c-23 30 -53 45 -92 45s-69 -15 -92 -45z" />
    <glyph glyph-name="p" unicode="p" horiz-adv-x="599" 
d="M326 -8c-49 0 -99 25 -122 54v-250h-124v708h124v-52c16 29 65 60 122 60c148 0 230 -101 230 -260s-82 -260 -230 -260zM393 139c22 27 33 65 33 113s-11 86 -33 113s-50 41 -84 41s-62 -14 -84 -41c-21 -27 -32 -64 -32 -113s11 -87 32 -114c22 -27 50 -40 84 -40
s62 14 84 41z" />
    <glyph glyph-name="q" unicode="q" horiz-adv-x="599" 
d="M273 512c57 0 106 -31 122 -60v52h124v-708h-124v250c-23 -29 -73 -54 -122 -54c-148 0 -230 101 -230 260s82 260 230 260zM206 365c-22 -27 -33 -65 -33 -113s11 -86 33 -113s50 -41 84 -41s62 13 83 40c22 27 33 65 33 114s-11 86 -33 113c-21 27 -49 41 -83 41
s-62 -14 -84 -41z" />
    <glyph glyph-name="r" unicode="r" horiz-adv-x="422" 
d="M204 179v-179h-124v504h124v-82c36 57 90 90 149 90c19 0 39 -3 61 -10l-23 -115c-15 9 -33 14 -52 14c-79 0 -135 -69 -135 -222z" />
    <glyph glyph-name="s" unicode="s" horiz-adv-x="456" 
d="M231 512c67 0 126 -33 158 -82l-74 -68c-23 29 -51 44 -84 44c-25 0 -46 -15 -46 -42c0 -21 16 -37 48 -49l36 -13l43 -15c8 -3 20 -10 36 -19c17 -9 29 -17 36 -26c15 -17 31 -47 31 -82c0 -47 -17 -86 -50 -119s-76 -49 -129 -49c-48 0 -90 14 -125 41s-60 59 -75 95
l99 53c20 -55 54 -83 101 -83c41 0 62 18 62 54c0 16 -8 29 -27 38c-9 5 -19 9 -28 12c-17 8 -52 19 -71 27c-64 27 -102 64 -102 136c0 41 15 75 45 104s69 43 116 43z" />
    <glyph glyph-name="t" unicode="t" horiz-adv-x="392" 
d="M334 110l29 -100c-26 -12 -53 -18 -82 -18c-116 0 -185 63 -185 186v220h-78v106h78v126l124 78v-204h133v-106h-133v-218c0 -60 22 -82 66 -82c17 0 33 4 48 12z" />
    <glyph glyph-name="u" unicode="u" horiz-adv-x="587" 
d="M507 504v-504h-124v81c-41 -59 -93 -89 -156 -89c-93 0 -155 53 -155 152v360h124v-323c0 -55 24 -83 72 -83c64 0 115 78 115 205v201h124z" />
    <glyph glyph-name="v" unicode="v" horiz-adv-x="464" 
d="M176 0l-171 504h125l102 -351l102 351h125l-171 -504h-112z" />
    <glyph glyph-name="w" unicode="w" horiz-adv-x="766" 
d="M526 158l90 346h125l-161 -504h-110l-87 326l-87 -326h-110l-161 504h125l90 -346l85 346h116z" />
    <glyph glyph-name="x" unicode="x" horiz-adv-x="482" 
d="M241 373l82 131h130l-146 -235l167 -269h-130l-103 164l-103 -164h-130l167 269l-146 235h130z" />
    <glyph glyph-name="y" unicode="y" horiz-adv-x="481" 
d="M186 32l-183 472h125l117 -316l110 316h124l-260 -708h-120z" />
    <glyph glyph-name="z" unicode="z" horiz-adv-x="465" 
d="M259 398h-202v106h356v-48l-216 -350h230v-106h-386v48z" />
    <glyph glyph-name="braceleft" unicode="{" horiz-adv-x="346" 
d="M136 50v166c0 61 -20 80 -80 80v108c60 0 80 19 80 80v166c0 60 40 100 100 100h88v-108h-27c-32 0 -41 -10 -41 -45v-149c0 -72 -26 -91 -74 -98c48 -7 74 -26 74 -98v-149c0 -35 9 -45 41 -45h27v-108h-88c-60 0 -100 40 -100 100z" />
    <glyph glyph-name="bar" unicode="|" horiz-adv-x="302" 
d="M90 -50v800h122v-800h-122z" />
    <glyph glyph-name="braceright" unicode="}" horiz-adv-x="346" 
d="M210 216v-166c0 -60 -40 -100 -100 -100h-88v108h27c32 0 41 10 41 45v149c0 72 26 91 74 98c-48 7 -74 26 -74 98v149c0 35 -9 45 -41 45h-27v108h88c60 0 100 -40 100 -100v-166c0 -61 20 -80 80 -80v-108c-60 0 -80 -19 -80 -80z" />
    <glyph glyph-name="asciitilde" unicode="~" horiz-adv-x="654" 
d="M138 249l-64 69c25 61 86 111 151 111c30 0 65 -10 106 -30c41 -19 72 -29 94 -29c34 0 64 17 91 51l64 -69c-25 -61 -86 -111 -151 -111c-30 0 -65 10 -106 29c-41 20 -72 30 -94 30c-34 0 -64 -17 -91 -51z" />
    <glyph glyph-name="nbspace" unicode="&#xa0;" horiz-adv-x="248" 
 />
    <glyph glyph-name="exclamdown" unicode="&#xa1;" horiz-adv-x="360" 
d="M231 254l28 -458h-164l28 458h108zM94 420c0 45 36 82 83 82s83 -37 83 -82c0 -47 -38 -84 -83 -84s-83 37 -83 84z" />
    <glyph glyph-name="cent" unicode="&#xa2;" horiz-adv-x="583" 
d="M418 279l111 -45c-31 -77 -87 -123 -168 -138v-146h-122v146c-120 25 -185 126 -185 254s65 229 185 254v146h122v-146c81 -15 137 -61 168 -138l-111 -45c-27 55 -67 83 -118 83c-76 0 -116 -62 -116 -154s40 -154 116 -154c51 0 91 28 118 83z" />
    <glyph glyph-name="sterling" unicode="&#xa3;" horiz-adv-x="557" 
d="M136 306h-83v116h48c-11 31 -16 57 -16 78c0 60 19 110 58 149s91 59 155 59c104 0 176 -51 207 -138l-103 -49c-22 47 -57 71 -104 71c-49 0 -89 -32 -89 -99c0 -27 3 -51 8 -71h173v-116h-138c2 -12 3 -25 3 -38c0 -76 -29 -119 -81 -163c35 21 68 32 99 32
c17 0 35 -5 55 -15s38 -15 53 -15c27 0 47 12 72 56l86 -54c-45 -80 -96 -117 -165 -117c-25 0 -51 6 -80 18c-29 13 -53 19 -72 19c-35 0 -73 -12 -116 -37l-69 76l54 53c25 28 54 77 54 124c0 18 -3 38 -9 61z" />
    <glyph glyph-name="currency" unicode="&#xa4;" horiz-adv-x="570" 
d="M117 42l-97 97l89 69c-33 60 -33 138 0 198l-89 69l97 97l69 -89c59 35 139 35 198 0l69 89l97 -97l-89 -69c33 -60 33 -138 0 -198l89 -69l-97 -97l-69 89c-59 -35 -139 -35 -198 0zM225 371c-14 -16 -21 -37 -21 -64s7 -48 21 -65c15 -16 35 -24 60 -24s45 8 59 24
c15 17 22 38 22 65s-7 48 -22 64c-14 17 -34 25 -59 25s-45 -8 -60 -25z" />
    <glyph glyph-name="yen" unicode="&#xa5;" horiz-adv-x="538" 
d="M152 406l-144 294h140l121 -272l121 272h140l-144 -294h91v-108h-143v-72h143v-108h-143v-118h-130v118h-143v108h143v72h-143v108h91z" />
    <glyph glyph-name="brokenbar" unicode="&#xa6;" horiz-adv-x="302" 
d="M90 -50v349h122v-349h-122zM212 750v-349h-122v349h122z" />
    <glyph glyph-name="section" unicode="&#xa7;" horiz-adv-x="549" 
d="M490 222c0 -59 -20 -105 -59 -139c17 -29 25 -62 25 -100c0 -58 -18 -105 -53 -141s-78 -54 -128 -54c-107 0 -173 50 -200 151l110 36c17 -47 47 -71 90 -71c37 0 61 25 61 72c0 29 -14 49 -35 68c-11 11 -41 27 -57 35l-38 19l-41 21c-70 35 -105 87 -105 155
c0 59 20 105 59 139c-17 29 -25 62 -25 100c0 58 18 105 53 141s78 54 128 54c107 0 173 -50 200 -151l-110 -36c-17 47 -47 71 -90 71c-37 0 -61 -25 -61 -72c0 -29 15 -49 34 -68c12 -11 42 -27 57 -35l39 -20c18 -9 32 -15 41 -20c70 -35 105 -87 105 -155zM382 213
c0 23 -13 43 -41 60c-14 9 -28 16 -41 22c-25 13 -77 36 -102 49c-20 -15 -30 -36 -30 -61c0 -23 13 -43 41 -60c14 -9 27 -16 40 -23l52 -24c21 -9 38 -17 51 -24c20 16 30 36 30 61z" />
    <glyph glyph-name="dieresis" unicode="&#xa8;" horiz-adv-x="381" 
d="M36 600c-27 27 -27 75 0 102s75 27 102 0s27 -75 0 -102s-75 -27 -102 0zM243 600c-27 27 -27 75 0 102s75 27 102 0s27 -75 0 -102s-75 -27 -102 0z" />
    <glyph glyph-name="copyright" unicode="&#xa9;" horiz-adv-x="890" 
d="M170 72c-73 75 -110 167 -110 278s37 203 110 278c74 75 166 112 275 112s201 -37 274 -112c74 -75 111 -167 111 -278s-37 -203 -111 -278c-73 -75 -165 -112 -274 -112s-201 37 -275 112zM247 554c-51 -53 -77 -121 -77 -204s26 -151 77 -204s117 -80 198 -80
s147 27 198 80s77 121 77 204s-26 151 -77 204s-117 80 -198 80s-147 -27 -198 -80zM533 294l97 -19c-7 -45 -27 -79 -62 -104s-76 -37 -123 -37c-56 0 -104 19 -143 57s-58 91 -58 159s19 121 58 159s87 57 143 57c47 0 88 -12 123 -37s55 -59 62 -104l-97 -19
c-14 43 -43 65 -88 65c-53 0 -91 -50 -91 -121s38 -121 91 -121c45 0 74 22 88 65z" />
    <glyph glyph-name="ordfeminine" unicode="&#xaa;" horiz-adv-x="449" 
d="M155 575l-82 19c12 65 71 110 151 110c111 0 166 -55 166 -166v-238h-81l-9 52c-32 -37 -73 -56 -122 -56c-68 0 -120 45 -120 120c0 79 69 130 169 130h66v17c0 39 -23 58 -69 58c-35 0 -58 -15 -69 -46zM160 416c0 -21 14 -37 41 -37c48 0 92 34 92 82v11h-66
c-41 0 -67 -21 -67 -56z" />
    <glyph glyph-name="guillemotleft" unicode="&#xab;" horiz-adv-x="703" 
d="M353 51l-309 218v82l309 218v-128l-185 -131l185 -131v-128zM653 51l-309 218v82l309 218v-128l-185 -131l185 -131v-128z" />
    <glyph glyph-name="logicalnot" unicode="&#xac;" horiz-adv-x="596" 
d="M402 295h-342v112h466v-265h-124v153z" />
    <glyph glyph-name="uni00AD" unicode="&#xad;" horiz-adv-x="503" 
d="M438 263h-373v108h373v-108z" />
    <glyph glyph-name="registered" unicode="&#xae;" horiz-adv-x="890" 
d="M170 72c-73 75 -110 167 -110 278s37 203 110 278c74 75 166 112 275 112s201 -37 274 -112c74 -75 111 -167 111 -278s-37 -203 -111 -278c-73 -75 -165 -112 -274 -112s-201 37 -275 112zM247 554c-51 -53 -77 -121 -77 -204s26 -151 77 -204s117 -80 198 -80
s147 27 198 80s77 121 77 204s-26 151 -77 204s-117 80 -198 80s-147 -27 -198 -80zM628 137h-113l-109 182h-12v-182h-105v426h169c93 0 140 -41 140 -122c0 -67 -34 -106 -87 -117zM448 480h-54v-78h54c32 0 48 13 48 39s-16 39 -48 39z" />
    <glyph glyph-name="overscore" unicode="&#xaf;" horiz-adv-x="287" 
d="M278 618h-269v110h269v-110z" />
    <glyph glyph-name="degree" unicode="&#xb0;" horiz-adv-x="364" 
d="M95 506c-23 23 -35 52 -35 87s12 63 35 86s52 35 87 35s64 -12 87 -35s35 -51 35 -86s-12 -64 -35 -87s-52 -34 -87 -34s-64 11 -87 34zM153 622c-13 -15 -13 -43 0 -58c15 -15 44 -15 57 0c15 15 15 43 0 58c-13 15 -42 15 -57 0z" />
    <glyph glyph-name="plusminus" unicode="&#xb1;" horiz-adv-x="591" 
d="M242 453v184h108v-184h184v-108h-184v-184h-108v184h-184v108h184zM534 0h-476v108h476v-108z" />
    <glyph glyph-name="twosuperior" unicode="&#xb2;" horiz-adv-x="379" 
d="M324 300h-271v35l145 177c18 21 27 44 27 68c0 27 -15 41 -38 41c-27 0 -44 -18 -51 -53l-80 23c8 67 62 113 131 113c79 0 131 -47 131 -122c0 -33 -13 -66 -40 -99l-82 -100h128v-83z" />
    <glyph glyph-name="threesuperior" unicode="&#xb3;" horiz-adv-x="388" 
d="M53 422l80 10c7 -35 30 -53 58 -53c33 0 49 20 49 59c0 35 -19 53 -48 53c-12 0 -24 -3 -37 -10l-40 50l66 86h-110v83h237v-35l-89 -114c65 0 114 -52 114 -116c0 -85 -48 -139 -140 -139c-80 0 -136 54 -140 126z" />
    <glyph glyph-name="acute" unicode="&#xb4;" horiz-adv-x="260" 
d="M110 560h-95l64 148h168z" />
    <glyph glyph-name="mu" unicode="&#xb5;" horiz-adv-x="587" 
d="M507 504v-504h-124v81c-41 -59 -93 -89 -156 -89c-11 0 -21 1 -31 3v-199h-124v708h124v-323c0 -55 24 -83 72 -83c64 0 115 78 115 205v201h124z" />
    <glyph glyph-name="paragraph" unicode="&#xb6;" horiz-adv-x="744" 
d="M281 700h403v-108h-62v-796h-120v796h-101v-796h-120v450c-63 0 -116 22 -161 66c-44 45 -66 98 -66 161s22 116 66 160c45 45 98 67 161 67z" />
    <glyph glyph-name="middot" unicode="&#xb7;" horiz-adv-x="328" 
d="M104 308c-32 32 -32 88 0 120s88 32 120 0s32 -88 0 -120s-88 -32 -120 0z" />
    <glyph glyph-name="cedilla" unicode="&#xb8;" horiz-adv-x="241" 
d="M146 -60h90l-83 -206l-148 66z" />
    <glyph glyph-name="onesuperior" unicode="&#xb9;" horiz-adv-x="306" 
d="M52 635l137 65h37v-400h-89v278l-85 -38v95z" />
    <glyph glyph-name="ordmasculine" unicode="&#xba;" horiz-adv-x="522" 
d="M114 353c-36 39 -54 88 -54 147s18 108 54 146c36 39 85 58 147 58s111 -19 147 -58c36 -38 54 -87 54 -146s-18 -108 -54 -147c-36 -38 -85 -57 -147 -57s-111 19 -147 57zM188 586c-17 -23 -26 -52 -26 -86s9 -63 26 -86c18 -23 42 -35 73 -35s55 12 72 35
c18 23 27 52 27 86s-9 63 -27 86c-17 23 -41 35 -72 35s-55 -12 -73 -35z" />
    <glyph glyph-name="guillemotright" unicode="&#xbb;" horiz-adv-x="703" 
d="M350 569l309 -218v-82l-309 -218v128l185 131l-185 131v128zM50 569l309 -218v-82l-309 -218v128l185 131l-185 131v128z" />
    <glyph glyph-name="onequarter" unicode="&#xbc;" horiz-adv-x="863" 
d="M131 20l538 718l72 -57l-538 -719zM70 635l137 65h37v-400h-89v278l-85 -38v95zM740 0h-89v65h-167v45l161 290h95v-252h43v-83h-43v-65zM651 270l-63 -122h63v122z" />
    <glyph glyph-name="onehalf" unicode="&#xbd;" horiz-adv-x="918" 
d="M131 20l538 718l72 -57l-538 -719zM70 635l137 65h37v-400h-89v278l-85 -38v95zM838 0h-271v35l145 177c18 21 27 44 27 68c0 27 -15 41 -38 41c-27 0 -44 -18 -51 -53l-80 23c8 67 62 113 131 113c79 0 131 -47 131 -122c0 -33 -13 -66 -40 -99l-82 -100h128v-83z" />
    <glyph glyph-name="threequarters" unicode="&#xbe;" horiz-adv-x="841" 
d="M153 20l538 718l72 -57l-538 -719zM53 422l80 10c7 -35 30 -53 58 -53c33 0 49 20 49 59c0 35 -19 53 -48 53c-12 0 -24 -3 -37 -10l-40 50l66 86h-110v83h237v-35l-89 -114c65 0 114 -52 114 -116c0 -85 -48 -139 -140 -139c-80 0 -136 54 -140 126zM743 0h-89v65h-167
v45l161 290h95v-252h43v-83h-43v-65zM654 270l-63 -122h63v122z" />
    <glyph glyph-name="questiondown" unicode="&#xbf;" horiz-adv-x="472" 
d="M178 147l-88 33c23 64 74 103 145 103c81 0 138 -52 138 -128c0 -59 -36 -103 -108 -130c-77 -29 -100 -50 -100 -83s26 -50 65 -50c43 0 72 22 85 67l109 -18c-16 -88 -87 -153 -191 -153c-112 0 -185 62 -185 158c0 37 11 66 32 87c22 21 57 40 106 59
c67 27 85 39 85 66c0 21 -16 35 -36 35c-27 0 -46 -15 -57 -46zM318 420c0 -47 -38 -84 -83 -84s-83 37 -83 84c0 45 36 82 83 82s83 -37 83 -82z" />
    <glyph glyph-name="Agrave" unicode="&#xc0;" horiz-adv-x="614" 
d="M609 0h-140l-51 165h-222l-51 -165h-140l237 700h130zM381 285l-74 243l-74 -243h148zM150 904h168l64 -148h-95z" />
    <glyph glyph-name="Aacute" unicode="&#xc1;" horiz-adv-x="614" 
d="M609 0h-140l-51 165h-222l-51 -165h-140l237 700h130zM381 285l-74 243l-74 -243h148zM316 756h-95l64 148h168z" />
    <glyph glyph-name="Acircumflex" unicode="&#xc2;" horiz-adv-x="614" 
d="M609 0h-140l-51 165h-222l-51 -165h-140l237 700h130zM381 285l-74 243l-74 -243h148zM239 762h-120l171 186h34l171 -186h-120l-68 74z" />
    <glyph glyph-name="Atilde" unicode="&#xc3;" horiz-adv-x="614" 
d="M609 0h-140l-51 165h-222l-51 -165h-140l237 700h130zM381 285l-74 243l-74 -243h148zM180 765l-65 55c23 52 72 87 123 87c23 0 48 -7 73 -21c25 -13 45 -20 60 -20c22 0 43 14 64 43l65 -55c-23 -52 -72 -87 -123 -87c-23 0 -48 7 -73 20c-25 14 -45 21 -60 21
c-22 0 -43 -14 -64 -43z" />
    <glyph glyph-name="Adieresis" unicode="&#xc4;" horiz-adv-x="614" 
d="M609 0h-140l-51 165h-222l-51 -165h-140l237 700h130zM381 285l-74 243l-74 -243h148zM153 796c-27 27 -27 75 0 102s75 27 102 0s27 -75 0 -102s-75 -27 -102 0zM360 796c-27 27 -27 75 0 102s75 27 102 0s27 -75 0 -102s-75 -27 -102 0z" />
    <glyph glyph-name="Aring" unicode="&#xc5;" horiz-adv-x="614" 
d="M609 0h-140l-51 165h-222l-51 -165h-140l237 700h130zM381 285l-74 243l-74 -243h148zM233 778c-19 19 -29 44 -29 73s10 54 29 73s44 29 74 29s55 -10 74 -29s29 -44 29 -73s-10 -54 -29 -73s-44 -29 -74 -29s-55 10 -74 29zM307 883c-20 0 -30 -11 -30 -32
s10 -32 30 -32s30 11 30 32s-10 32 -30 32z" />
    <glyph glyph-name="AE" unicode="&#xc6;" horiz-adv-x="859" 
d="M8 0l306 700h493v-120h-303v-147h243v-120h-243v-193h313v-120h-443v165h-160l-66 -165h-140zM374 528h-13l-98 -243h111v243z" />
    <glyph glyph-name="Ccedilla" unicode="&#xc7;" horiz-adv-x="700" 
d="M669 496l-117 -30c-31 81 -88 122 -173 122c-57 0 -105 -20 -143 -61c-37 -41 -56 -100 -56 -177s19 -136 56 -177c38 -41 86 -61 143 -61c85 0 142 41 173 122l117 -30c-33 -135 -138 -212 -290 -212c-93 0 -171 32 -235 95s-96 151 -96 263s32 200 96 263
s142 95 235 95c152 0 257 -77 290 -212zM374 -60h90l-83 -206l-148 66z" />
    <glyph glyph-name="Egrave" unicode="&#xc8;" horiz-adv-x="575" 
d="M90 0v700h433v-120h-303v-147h243v-120h-243v-193h313v-120h-443zM158 904h168l64 -148h-95z" />
    <glyph glyph-name="Eacute" unicode="&#xc9;" horiz-adv-x="575" 
d="M90 0v700h433v-120h-303v-147h243v-120h-243v-193h313v-120h-443zM313 756h-95l64 148h168z" />
    <glyph glyph-name="Ecircumflex" unicode="&#xca;" horiz-adv-x="575" 
d="M90 0v700h433v-120h-303v-147h243v-120h-243v-193h313v-120h-443zM244 762h-120l171 186h34l171 -186h-120l-68 74z" />
    <glyph glyph-name="Edieresis" unicode="&#xcb;" horiz-adv-x="575" 
d="M90 0v700h433v-120h-303v-147h243v-120h-243v-193h313v-120h-443zM159 796c-27 27 -27 75 0 102s75 27 102 0s27 -75 0 -102s-75 -27 -102 0zM366 796c-27 27 -27 75 0 102s75 27 102 0s27 -75 0 -102s-75 -27 -102 0z" />
    <glyph glyph-name="Igrave" unicode="&#xcc;" horiz-adv-x="310" 
d="M90 700h130v-700h-130v700zM-1 904h168l64 -148h-95z" />
    <glyph glyph-name="Iacute" unicode="&#xcd;" horiz-adv-x="310" 
d="M90 700h130v-700h-130v700zM174 756h-95l64 148h168z" />
    <glyph glyph-name="Icircumflex" unicode="&#xce;" horiz-adv-x="310" 
d="M90 700h130v-700h-130v700zM87 762h-120l171 186h34l171 -186h-120l-68 74z" />
    <glyph glyph-name="Idieresis" unicode="&#xcf;" horiz-adv-x="310" 
d="M90 700h130v-700h-130v700zM1 796c-27 27 -27 75 0 102s75 27 102 0s27 -75 0 -102s-75 -27 -102 0zM208 796c-27 27 -27 75 0 102s75 27 102 0s27 -75 0 -102s-75 -27 -102 0z" />
    <glyph glyph-name="Eth" unicode="&#xd0;" horiz-adv-x="708" 
d="M115 296h-93v108h93v296h219c165 0 326 -106 326 -350s-161 -350 -326 -350h-219v296zM293 580h-48v-176h93v-108h-93v-176h48c61 0 111 13 158 45c48 32 77 96 77 185s-29 153 -77 185c-47 32 -97 45 -158 45z" />
    <glyph glyph-name="Ntilde" unicode="&#xd1;" horiz-adv-x="704" 
d="M484 238v462h130v-700h-137l-257 462v-462h-130v700h137zM219 765l-65 55c23 52 72 87 123 87c23 0 48 -7 73 -21c25 -13 45 -20 60 -20c22 0 43 14 64 43l65 -55c-23 -52 -72 -87 -123 -87c-23 0 -48 7 -73 20c-25 14 -45 21 -60 21c-22 0 -43 -14 -64 -43z" />
    <glyph glyph-name="Ograve" unicode="&#xd2;" horiz-adv-x="756" 
d="M214 670c49 25 103 38 164 38c121 0 222 -47 283 -158c31 -55 47 -122 47 -200c0 -156 -69 -270 -166 -321c-49 -25 -103 -37 -164 -37c-121 0 -221 47 -284 158c-31 55 -46 122 -46 200c0 156 69 271 166 320zM519 528c-37 40 -84 60 -141 60s-104 -20 -142 -60
c-37 -40 -56 -99 -56 -178s19 -138 56 -178c38 -40 85 -60 142 -60s104 20 141 60c38 40 57 99 57 178s-19 138 -57 178zM212 904h168l64 -148h-95z" />
    <glyph glyph-name="Oacute" unicode="&#xd3;" horiz-adv-x="756" 
d="M214 670c49 25 103 38 164 38c121 0 222 -47 283 -158c31 -55 47 -122 47 -200c0 -156 -69 -270 -166 -321c-49 -25 -103 -37 -164 -37c-121 0 -221 47 -284 158c-31 55 -46 122 -46 200c0 156 69 271 166 320zM519 528c-37 40 -84 60 -141 60s-104 -20 -142 -60
c-37 -40 -56 -99 -56 -178s19 -138 56 -178c38 -40 85 -60 142 -60s104 20 141 60c38 40 57 99 57 178s-19 138 -57 178zM387 756h-95l64 148h168z" />
    <glyph glyph-name="Ocircumflex" unicode="&#xd4;" horiz-adv-x="756" 
d="M214 670c49 25 103 38 164 38c121 0 222 -47 283 -158c31 -55 47 -122 47 -200c0 -156 -69 -270 -166 -321c-49 -25 -103 -37 -164 -37c-121 0 -221 47 -284 158c-31 55 -46 122 -46 200c0 156 69 271 166 320zM519 528c-37 40 -84 60 -141 60s-104 -20 -142 -60
c-37 -40 -56 -99 -56 -178s19 -138 56 -178c38 -40 85 -60 142 -60s104 20 141 60c38 40 57 99 57 178s-19 138 -57 178zM310 762h-120l171 186h34l171 -186h-120l-68 74z" />
    <glyph glyph-name="Otilde" unicode="&#xd5;" horiz-adv-x="756" 
d="M214 670c49 25 103 38 164 38c121 0 222 -47 283 -158c31 -55 47 -122 47 -200c0 -156 -69 -270 -166 -321c-49 -25 -103 -37 -164 -37c-121 0 -221 47 -284 158c-31 55 -46 122 -46 200c0 156 69 271 166 320zM519 528c-37 40 -84 60 -141 60s-104 -20 -142 -60
c-37 -40 -56 -99 -56 -178s19 -138 56 -178c38 -40 85 -60 142 -60s104 20 141 60c38 40 57 99 57 178s-19 138 -57 178zM251 765l-65 55c23 52 72 87 123 87c23 0 48 -7 73 -21c25 -13 45 -20 60 -20c22 0 43 14 64 43l65 -55c-23 -52 -72 -87 -123 -87c-23 0 -48 7 -73 20
c-25 14 -45 21 -60 21c-22 0 -43 -14 -64 -43z" />
    <glyph glyph-name="Odieresis" unicode="&#xd6;" horiz-adv-x="756" 
d="M214 670c49 25 103 38 164 38c121 0 222 -47 283 -158c31 -55 47 -122 47 -200c0 -156 -69 -270 -166 -321c-49 -25 -103 -37 -164 -37c-121 0 -221 47 -284 158c-31 55 -46 122 -46 200c0 156 69 271 166 320zM519 528c-37 40 -84 60 -141 60s-104 -20 -142 -60
c-37 -40 -56 -99 -56 -178s19 -138 56 -178c38 -40 85 -60 142 -60s104 20 141 60c38 40 57 99 57 178s-19 138 -57 178zM224 796c-27 27 -27 75 0 102s75 27 102 0s27 -75 0 -102s-75 -27 -102 0zM431 796c-27 27 -27 75 0 102s75 27 102 0s27 -75 0 -102s-75 -27 -102 0z
" />
    <glyph glyph-name="multiply" unicode="&#xd7;" horiz-adv-x="590" 
d="M371 317l159 -158l-77 -77l-158 159l-158 -159l-77 77l159 158l-159 158l77 77l158 -159l158 159l77 -77z" />
    <glyph glyph-name="Oslash" unicode="&#xd8;" horiz-adv-x="756" 
d="M553 663l61 78l86 -63l-66 -85c49 -62 74 -143 74 -243c0 -78 -16 -145 -47 -200c-61 -111 -162 -158 -283 -158c-65 0 -124 15 -175 45l-61 -78l-86 63l66 85c-49 62 -74 143 -74 243c0 78 15 145 46 200c63 111 163 158 284 158c65 0 124 -15 175 -45zM576 350
c0 52 -9 97 -27 134l-269 -347c29 -17 62 -25 98 -25c57 0 104 20 141 60c38 40 57 99 57 178zM378 588c-57 0 -104 -20 -142 -60c-37 -40 -56 -99 -56 -178c0 -52 9 -97 27 -134l269 347c-29 17 -62 25 -98 25z" />
    <glyph glyph-name="Ugrave" unicode="&#xd9;" horiz-adv-x="656" 
d="M459 700h130v-434c0 -181 -101 -274 -261 -274s-261 93 -261 274v434h130v-436c0 -101 44 -152 131 -152s131 51 131 152v436zM168 904h168l64 -148h-95z" />
    <glyph glyph-name="Uacute" unicode="&#xda;" horiz-adv-x="656" 
d="M459 700h130v-434c0 -181 -101 -274 -261 -274s-261 93 -261 274v434h130v-436c0 -101 44 -152 131 -152s131 51 131 152v436zM349 756h-95l64 148h168z" />
    <glyph glyph-name="Ucircumflex" unicode="&#xdb;" horiz-adv-x="656" 
d="M459 700h130v-434c0 -181 -101 -274 -261 -274s-261 93 -261 274v434h130v-436c0 -101 44 -152 131 -152s131 51 131 152v436zM260 762h-120l171 186h34l171 -186h-120l-68 74z" />
    <glyph glyph-name="Udieresis" unicode="&#xdc;" horiz-adv-x="656" 
d="M459 700h130v-434c0 -181 -101 -274 -261 -274s-261 93 -261 274v434h130v-436c0 -101 44 -152 131 -152s131 51 131 152v436zM174 796c-27 27 -27 75 0 102s75 27 102 0s27 -75 0 -102s-75 -27 -102 0zM381 796c-27 27 -27 75 0 102s75 27 102 0s27 -75 0 -102
s-75 -27 -102 0z" />
    <glyph glyph-name="Yacute" unicode="&#xdd;" horiz-adv-x="534" 
d="M202 298l-202 402h140l127 -272l127 272h140l-202 -402v-298h-130v298zM286 756h-95l64 148h168z" />
    <glyph glyph-name="Thorn" unicode="&#xde;" horiz-adv-x="592" 
d="M354 137h-134v-137h-130v700h130v-137h134c143 0 219 -85 219 -213s-76 -213 -219 -213zM220 257h129c61 0 92 31 92 93s-31 93 -92 93h-129v-186z" />
    <glyph glyph-name="germandbls" unicode="&#xdf;" horiz-adv-x="570" 
d="M84 326h-52v112h52v62c0 133 80 208 201 208s190 -69 190 -177c0 -64 -35 -114 -80 -130c79 -21 136 -85 136 -182c0 -151 -74 -227 -223 -227c-23 0 -45 3 -65 8v108c27 -5 48 -8 63 -8c70 0 105 37 105 112c0 76 -40 114 -120 114h-33v112h20c56 0 84 27 84 82
c0 52 -29 82 -77 82c-49 0 -81 -35 -81 -99v-503h-120v326z" />
    <glyph glyph-name="agrave" unicode="&#xe0;" horiz-adv-x="514" 
d="M162 348l-105 24c16 84 91 140 192 140c141 0 212 -70 212 -211v-301h-102l-13 64c-39 -48 -91 -72 -155 -72c-89 0 -153 56 -153 153c0 100 87 165 215 165h84v22c0 49 -29 74 -88 74c-45 0 -74 -19 -87 -58zM168 147c0 -27 19 -49 52 -49c31 0 58 10 81 29
c24 19 36 44 36 75v10h-83c-57 0 -86 -22 -86 -65zM102 708h168l64 -148h-95z" />
    <glyph glyph-name="aacute" unicode="&#xe1;" horiz-adv-x="514" 
d="M162 348l-105 24c16 84 91 140 192 140c141 0 212 -70 212 -211v-301h-102l-13 64c-39 -48 -91 -72 -155 -72c-89 0 -153 56 -153 153c0 100 87 165 215 165h84v22c0 49 -29 74 -88 74c-45 0 -74 -19 -87 -58zM168 147c0 -27 19 -49 52 -49c31 0 58 10 81 29
c24 19 36 44 36 75v10h-83c-57 0 -86 -22 -86 -65zM268 560h-95l64 148h168z" />
    <glyph glyph-name="acircumflex" unicode="&#xe2;" horiz-adv-x="514" 
d="M162 348l-105 24c16 84 91 140 192 140c141 0 212 -70 212 -211v-301h-102l-13 64c-39 -48 -91 -72 -155 -72c-89 0 -153 56 -153 153c0 100 87 165 215 165h84v22c0 49 -29 74 -88 74c-45 0 -74 -19 -87 -58zM168 147c0 -27 19 -49 52 -49c31 0 58 10 81 29
c24 19 36 44 36 75v10h-83c-57 0 -86 -22 -86 -65zM188 566h-120l171 186h34l171 -186h-120l-68 74z" />
    <glyph glyph-name="atilde" unicode="&#xe3;" horiz-adv-x="514" 
d="M162 348l-105 24c16 84 91 140 192 140c141 0 212 -70 212 -211v-301h-102l-13 64c-39 -48 -91 -72 -155 -72c-89 0 -153 56 -153 153c0 100 87 165 215 165h84v22c0 49 -29 74 -88 74c-45 0 -74 -19 -87 -58zM168 147c0 -27 19 -49 52 -49c31 0 58 10 81 29
c24 19 36 44 36 75v10h-83c-57 0 -86 -22 -86 -65zM131 569l-65 55c23 52 72 87 123 87c23 0 48 -7 73 -21c25 -13 45 -20 60 -20c22 0 43 14 64 43l65 -55c-23 -52 -72 -87 -123 -87c-23 0 -48 7 -73 20c-25 14 -45 21 -60 21c-22 0 -43 -14 -64 -43z" />
    <glyph glyph-name="adieresis" unicode="&#xe4;" horiz-adv-x="514" 
d="M162 348l-105 24c16 84 91 140 192 140c141 0 212 -70 212 -211v-301h-102l-13 64c-39 -48 -91 -72 -155 -72c-89 0 -153 56 -153 153c0 100 87 165 215 165h84v22c0 49 -29 74 -88 74c-45 0 -74 -19 -87 -58zM168 147c0 -27 19 -49 52 -49c31 0 58 10 81 29
c24 19 36 44 36 75v10h-83c-57 0 -86 -22 -86 -65zM99 600c-27 27 -27 75 0 102s75 27 102 0s27 -75 0 -102s-75 -27 -102 0zM306 600c-27 27 -27 75 0 102s75 27 102 0s27 -75 0 -102s-75 -27 -102 0z" />
    <glyph glyph-name="aring" unicode="&#xe5;" horiz-adv-x="514" 
d="M162 348l-105 24c16 84 91 140 192 140c141 0 212 -70 212 -211v-301h-102l-13 64c-39 -48 -91 -72 -155 -72c-89 0 -153 56 -153 153c0 100 87 165 215 165h84v22c0 49 -29 74 -88 74c-45 0 -74 -19 -87 -58zM168 147c0 -27 19 -49 52 -49c31 0 58 10 81 29
c24 19 36 44 36 75v10h-83c-57 0 -86 -22 -86 -65zM177 582c-19 19 -29 44 -29 73s10 54 29 73s44 29 74 29s55 -10 74 -29s29 -44 29 -73s-10 -54 -29 -73s-44 -29 -74 -29s-55 10 -74 29zM251 687c-20 0 -30 -11 -30 -32s10 -32 30 -32s30 11 30 32s-10 32 -30 32z" />
    <glyph glyph-name="ae" unicode="&#xe6;" horiz-adv-x="850" 
d="M814 263v-51h-347c3 -61 47 -114 119 -114c51 0 92 26 122 78l100 -37c-43 -98 -119 -147 -229 -147c-89 0 -155 35 -200 105c-47 -70 -109 -105 -188 -105c-89 0 -153 57 -153 153c0 100 87 165 215 165h84v22c0 49 -29 74 -88 74c-45 0 -74 -19 -87 -58l-105 24
c16 84 91 140 192 140c75 0 131 -20 166 -61c43 41 97 61 164 61c80 0 145 -33 181 -84c36 -49 54 -108 54 -165zM168 147c0 -27 19 -49 52 -49c31 0 58 10 81 29c24 19 36 44 36 75v10h-83c-57 0 -86 -22 -86 -65zM579 406c-59 0 -101 -44 -110 -96h218
c-14 64 -50 96 -108 96z" />
    <glyph glyph-name="ccedilla" unicode="&#xe7;" horiz-adv-x="551" 
d="M407 181l111 -45c-39 -96 -115 -144 -229 -144c-79 0 -139 25 -182 74s-64 111 -64 186s21 137 64 186s103 74 182 74c114 0 190 -48 229 -144l-111 -45c-27 55 -67 83 -118 83c-76 0 -116 -62 -116 -154s40 -154 116 -154c51 0 91 28 118 83zM283 -60h90l-83 -206
l-148 66z" />
    <glyph glyph-name="egrave" unicode="&#xe8;" horiz-adv-x="556" 
d="M520 263v-51h-347c3 -61 47 -114 119 -114c51 0 92 26 122 78l100 -37c-43 -98 -119 -147 -229 -147c-173 0 -242 140 -242 260s69 260 242 260c80 0 145 -33 181 -84c36 -49 54 -108 54 -165zM285 406c-59 0 -100 -43 -109 -96h217c-14 64 -50 96 -108 96zM120 708h168
l64 -148h-95z" />
    <glyph glyph-name="eacute" unicode="&#xe9;" horiz-adv-x="556" 
d="M520 263v-51h-347c3 -61 47 -114 119 -114c51 0 92 26 122 78l100 -37c-43 -98 -119 -147 -229 -147c-173 0 -242 140 -242 260s69 260 242 260c80 0 145 -33 181 -84c36 -49 54 -108 54 -165zM285 406c-59 0 -100 -43 -109 -96h217c-14 64 -50 96 -108 96zM293 560h-95
l64 148h168z" />
    <glyph glyph-name="ecircumflex" unicode="&#xea;" horiz-adv-x="556" 
d="M520 263v-51h-347c3 -61 47 -114 119 -114c51 0 92 26 122 78l100 -37c-43 -98 -119 -147 -229 -147c-173 0 -242 140 -242 260s69 260 242 260c80 0 145 -33 181 -84c36 -49 54 -108 54 -165zM285 406c-59 0 -100 -43 -109 -96h217c-14 64 -50 96 -108 96zM217 566h-120
l171 186h34l171 -186h-120l-68 74z" />
    <glyph glyph-name="edieresis" unicode="&#xeb;" horiz-adv-x="556" 
d="M520 263v-51h-347c3 -61 47 -114 119 -114c51 0 92 26 122 78l100 -37c-43 -98 -119 -147 -229 -147c-173 0 -242 140 -242 260s69 260 242 260c80 0 145 -33 181 -84c36 -49 54 -108 54 -165zM285 406c-59 0 -100 -43 -109 -96h217c-14 64 -50 96 -108 96zM131 600
c-27 27 -27 75 0 102s75 27 102 0s27 -75 0 -102s-75 -27 -102 0zM338 600c-27 27 -27 75 0 102s75 27 102 0s27 -75 0 -102s-75 -27 -102 0z" />
    <glyph glyph-name="igrave" unicode="&#xec;" horiz-adv-x="260" 
d="M68 0v504h124v-504h-124zM-16 708h168l64 -148h-95z" />
    <glyph glyph-name="iacute" unicode="&#xed;" horiz-adv-x="260" 
d="M68 0v504h124v-504h-124zM139 560h-95l64 148h168z" />
    <glyph glyph-name="icircumflex" unicode="&#xee;" horiz-adv-x="260" 
d="M68 0v504h124v-504h-124zM63 566h-120l171 186h34l171 -186h-120l-68 74z" />
    <glyph glyph-name="idieresis" unicode="&#xef;" horiz-adv-x="260" 
d="M68 0v504h124v-504h-124zM-24 600c-27 27 -27 75 0 102s75 27 102 0s27 -75 0 -102s-75 -27 -102 0zM183 600c-27 27 -27 75 0 102s75 27 102 0s27 -75 0 -102s-75 -27 -102 0z" />
    <glyph glyph-name="eth" unicode="&#xf0;" horiz-adv-x="584" 
d="M291 581l-32 -47l-75 53l29 42c-33 17 -62 30 -86 39l62 91c30 -13 58 -27 84 -42l33 48l76 -52l-32 -47c129 -92 191 -213 191 -390c0 -85 -22 -154 -66 -206c-43 -52 -104 -78 -183 -78s-140 24 -184 73c-43 49 -65 111 -65 187s22 138 65 187c44 49 105 73 184 73
c29 0 56 -7 81 -20c-19 34 -47 64 -82 89zM411 252c-1 88 -43 154 -119 154s-119 -66 -119 -154s43 -154 119 -154s119 66 119 154z" />
    <glyph glyph-name="ntilde" unicode="&#xf1;" horiz-adv-x="587" 
d="M80 0v504h124v-81c41 59 93 89 156 89c93 0 155 -53 155 -152v-360h-124v323c0 55 -24 83 -72 83c-64 0 -115 -78 -115 -205v-201h-124zM178 569l-65 55c23 52 72 87 123 87c23 0 48 -7 73 -21c25 -13 45 -20 60 -20c22 0 43 14 64 43l65 -55c-23 -52 -72 -87 -123 -87
c-23 0 -48 7 -73 20c-25 14 -45 21 -60 21c-22 0 -43 -14 -64 -43z" />
    <glyph glyph-name="ograve" unicode="&#xf2;" horiz-adv-x="598" 
d="M112 65c-46 49 -69 112 -69 187s23 137 69 186s108 74 187 74s141 -25 187 -74s69 -111 69 -186s-23 -138 -69 -187s-108 -73 -187 -73s-141 24 -187 73zM207 361c-23 -29 -34 -66 -34 -109s11 -80 34 -110c23 -29 53 -44 92 -44s69 15 92 44c23 30 34 67 34 110
s-11 80 -34 109c-23 30 -53 45 -92 45s-69 -15 -92 -45zM143 708h168l64 -148h-95z" />
    <glyph glyph-name="oacute" unicode="&#xf3;" horiz-adv-x="598" 
d="M112 65c-46 49 -69 112 -69 187s23 137 69 186s108 74 187 74s141 -25 187 -74s69 -111 69 -186s-23 -138 -69 -187s-108 -73 -187 -73s-141 24 -187 73zM207 361c-23 -29 -34 -66 -34 -109s11 -80 34 -110c23 -29 53 -44 92 -44s69 15 92 44c23 30 34 67 34 110
s-11 80 -34 109c-23 30 -53 45 -92 45s-69 -15 -92 -45zM308 560h-95l64 148h168z" />
    <glyph glyph-name="ocircumflex" unicode="&#xf4;" horiz-adv-x="598" 
d="M112 65c-46 49 -69 112 -69 187s23 137 69 186s108 74 187 74s141 -25 187 -74s69 -111 69 -186s-23 -138 -69 -187s-108 -73 -187 -73s-141 24 -187 73zM207 361c-23 -29 -34 -66 -34 -109s11 -80 34 -110c23 -29 53 -44 92 -44s69 15 92 44c23 30 34 67 34 110
s-11 80 -34 109c-23 30 -53 45 -92 45s-69 -15 -92 -45zM231 566h-120l171 186h34l171 -186h-120l-68 74z" />
    <glyph glyph-name="otilde" unicode="&#xf5;" horiz-adv-x="598" 
d="M112 65c-46 49 -69 112 -69 187s23 137 69 186s108 74 187 74s141 -25 187 -74s69 -111 69 -186s-23 -138 -69 -187s-108 -73 -187 -73s-141 24 -187 73zM207 361c-23 -29 -34 -66 -34 -109s11 -80 34 -110c23 -29 53 -44 92 -44s69 15 92 44c23 30 34 67 34 110
s-11 80 -34 109c-23 30 -53 45 -92 45s-69 -15 -92 -45zM172 569l-65 55c23 52 72 87 123 87c23 0 48 -7 73 -21c25 -13 45 -20 60 -20c22 0 43 14 64 43l65 -55c-23 -52 -72 -87 -123 -87c-23 0 -48 7 -73 20c-25 14 -45 21 -60 21c-22 0 -43 -14 -64 -43z" />
    <glyph glyph-name="odieresis" unicode="&#xf6;" horiz-adv-x="598" 
d="M112 65c-46 49 -69 112 -69 187s23 137 69 186s108 74 187 74s141 -25 187 -74s69 -111 69 -186s-23 -138 -69 -187s-108 -73 -187 -73s-141 24 -187 73zM207 361c-23 -29 -34 -66 -34 -109s11 -80 34 -110c23 -29 53 -44 92 -44s69 15 92 44c23 30 34 67 34 110
s-11 80 -34 109c-23 30 -53 45 -92 45s-69 -15 -92 -45zM145 600c-27 27 -27 75 0 102s75 27 102 0s27 -75 0 -102s-75 -27 -102 0zM352 600c-27 27 -27 75 0 102s75 27 102 0s27 -75 0 -102s-75 -27 -102 0z" />
    <glyph glyph-name="divide" unicode="&#xf7;" horiz-adv-x="560" 
d="M220 64c-32 32 -32 88 0 120s88 32 120 0s32 -88 0 -120s-88 -32 -120 0zM220 446c-32 32 -32 88 0 120s88 32 120 0s32 -88 0 -120s-88 -32 -120 0zM518 261h-476v108h476v-108z" />
    <glyph glyph-name="oslash" unicode="&#xf8;" horiz-adv-x="598" 
d="M43 252c0 75 23 137 69 186s108 74 187 74c43 0 82 -8 117 -24l60 76l86 -63l-62 -79c37 -46 55 -103 55 -170c0 -75 -23 -138 -69 -187s-108 -73 -187 -73c-43 0 -82 8 -117 24l-60 -76l-86 63l62 79c-37 46 -55 103 -55 170zM425 252c0 23 -3 44 -10 62l-162 -207
c14 -6 29 -9 46 -9c39 0 69 15 92 44c23 30 34 67 34 110zM173 252c0 -23 3 -44 10 -62l162 207c-14 6 -29 9 -46 9c-39 0 -69 -15 -92 -45c-23 -29 -34 -66 -34 -109z" />
    <glyph glyph-name="ugrave" unicode="&#xf9;" horiz-adv-x="587" 
d="M507 504v-504h-124v81c-41 -59 -93 -89 -156 -89c-93 0 -155 53 -155 152v360h124v-323c0 -55 24 -83 72 -83c64 0 115 78 115 205v201h124zM121 708h168l64 -148h-95z" />
    <glyph glyph-name="uacute" unicode="&#xfa;" horiz-adv-x="587" 
d="M507 504v-504h-124v81c-41 -59 -93 -89 -156 -89c-93 0 -155 53 -155 152v360h124v-323c0 -55 24 -83 72 -83c64 0 115 78 115 205v201h124zM317 560h-95l64 148h168z" />
    <glyph glyph-name="ucircumflex" unicode="&#xfb;" horiz-adv-x="587" 
d="M507 504v-504h-124v81c-41 -59 -93 -89 -156 -89c-93 0 -155 53 -155 152v360h124v-323c0 -55 24 -83 72 -83c64 0 115 78 115 205v201h124zM223 566h-120l171 186h34l171 -186h-120l-68 74z" />
    <glyph glyph-name="udieresis" unicode="&#xfc;" horiz-adv-x="587" 
d="M507 504v-504h-124v81c-41 -59 -93 -89 -156 -89c-93 0 -155 53 -155 152v360h124v-323c0 -55 24 -83 72 -83c64 0 115 78 115 205v201h124zM144 600c-27 27 -27 75 0 102s75 27 102 0s27 -75 0 -102s-75 -27 -102 0zM351 600c-27 27 -27 75 0 102s75 27 102 0
s27 -75 0 -102s-75 -27 -102 0z" />
    <glyph glyph-name="yacute" unicode="&#xfd;" horiz-adv-x="481" 
d="M186 32l-183 472h125l117 -316l110 316h124l-260 -708h-120zM262 560h-95l64 148h168z" />
    <glyph glyph-name="thorn" unicode="&#xfe;" horiz-adv-x="599" 
d="M326 -8c-57 0 -106 31 -122 60v-256h-124v912h124v-250c23 29 73 54 122 54c148 0 230 -101 230 -260s-82 -260 -230 -260zM393 139c22 27 33 65 33 113s-11 86 -33 113s-50 41 -84 41s-62 -14 -84 -41c-21 -27 -32 -64 -32 -113s11 -87 32 -114c22 -27 50 -40 84 -40
s62 14 84 41z" />
    <glyph glyph-name="ydieresis" unicode="&#xff;" horiz-adv-x="481" 
d="M186 32l-183 472h125l117 -316l110 316h124l-260 -708h-120zM89 600c-27 27 -27 75 0 102s75 27 102 0s27 -75 0 -102s-75 -27 -102 0zM296 600c-27 27 -27 75 0 102s75 27 102 0s27 -75 0 -102s-75 -27 -102 0z" />
    <glyph glyph-name="dotlessi" unicode="&#x131;" horiz-adv-x="260" 
d="M68 0v504h124v-504h-124z" />
    <glyph glyph-name="Lslash" unicode="&#x141;" horiz-adv-x="551" 
d="M110 360v340h130v-268l101 56l53 -95l-154 -85v-188h297v-120h-427v236l-54 -30l-53 95z" />
    <glyph glyph-name="lslash" unicode="&#x142;" horiz-adv-x="368" 
d="M120 391v317h124v-249l49 27l53 -95l-102 -56v-335h-124v267l-49 -26l-53 95z" />
    <glyph glyph-name="OE" unicode="&#x152;" horiz-adv-x="1062" 
d="M577 647v53h433v-120h-303v-147h243v-120h-243v-193h313v-120h-443v52c-56 -40 -122 -60 -199 -60c-61 0 -115 12 -164 37c-97 51 -166 165 -166 321c0 78 15 145 46 200c63 111 163 158 284 158c77 0 144 -20 199 -61zM520 528c-38 40 -85 60 -142 60s-104 -20 -142 -60
c-37 -40 -56 -99 -56 -178s19 -138 56 -178c38 -40 85 -60 142 -60s104 20 142 60s57 99 57 178s-19 138 -57 178z" />
    <glyph glyph-name="oe" unicode="&#x153;" horiz-adv-x="938" 
d="M902 263v-51h-347c3 -61 47 -114 119 -114c51 0 92 26 122 78l100 -37c-43 -98 -119 -147 -229 -147c-75 0 -135 25 -179 76c-47 -51 -110 -76 -189 -76s-141 24 -187 73s-69 112 -69 187s23 137 69 186s108 74 187 74s143 -25 190 -76c44 51 103 76 178 76
c80 0 145 -33 181 -84c36 -49 54 -108 54 -165zM425 252c0 43 -12 79 -35 109s-53 45 -91 45c-39 0 -69 -15 -92 -45c-23 -29 -34 -66 -34 -109s11 -80 34 -110c23 -29 53 -44 92 -44s69 15 92 44c23 30 34 67 34 110zM667 406c-59 0 -100 -43 -109 -96h217
c-14 64 -50 96 -108 96z" />
    <glyph glyph-name="Scaron" unicode="&#x160;" horiz-adv-x="537" 
d="M470 581l-105 -67c-25 49 -58 74 -97 74s-67 -27 -67 -64c0 -44 48 -77 105 -104c84 -37 195 -89 194 -210c0 -136 -88 -218 -224 -218c-61 0 -114 19 -158 56c-44 38 -72 85 -83 140l105 66c27 -95 73 -142 139 -142c61 0 91 30 91 91c0 41 -45 73 -104 98
c-83 35 -191 88 -189 217c0 53 18 98 54 135c37 37 82 55 137 55c95 0 162 -42 202 -127zM285 762h-34l-171 186h120l68 -74l68 74h120z" />
    <glyph glyph-name="scaron" unicode="&#x161;" horiz-adv-x="462" 
d="M231 512c67 0 126 -33 158 -82l-74 -68c-23 29 -51 44 -84 44c-25 0 -46 -15 -46 -42c0 -21 16 -37 48 -49l36 -13l43 -15c8 -3 20 -10 36 -19c17 -9 29 -17 36 -26c15 -17 31 -47 31 -82c0 -47 -17 -86 -50 -119s-76 -49 -129 -49c-48 0 -90 14 -125 41s-60 59 -75 95
l99 53c20 -55 54 -83 101 -83c41 0 62 18 62 54c0 16 -8 29 -27 38c-9 5 -19 9 -28 12c-17 8 -52 19 -71 27c-64 27 -102 64 -102 136c0 41 15 75 45 104s69 43 116 43zM249 566h-34l-171 186h120l68 -74l68 74h120z" />
    <glyph glyph-name="Ydieresis" unicode="&#x178;" horiz-adv-x="534" 
d="M202 298l-202 402h140l127 -272l127 272h140l-202 -402v-298h-130v298zM113 796c-27 27 -27 75 0 102s75 27 102 0s27 -75 0 -102s-75 -27 -102 0zM320 796c-27 27 -27 75 0 102s75 27 102 0s27 -75 0 -102s-75 -27 -102 0z" />
    <glyph glyph-name="Zcaron" unicode="&#x17d;" horiz-adv-x="558" 
d="M333 580h-286v120h464v-60l-300 -520h314v-120h-495v60zM306 762h-34l-171 186h120l68 -74l68 74h120z" />
    <glyph glyph-name="zcaron" unicode="&#x17e;" horiz-adv-x="465" 
d="M259 398h-202v106h356v-48l-216 -350h230v-106h-386v48zM258 566h-34l-171 186h120l68 -74l68 74h120z" />
    <glyph glyph-name="florin" unicode="&#x192;" horiz-adv-x="483" 
d="M183 398h-79l21 106h80l5 26c23 119 100 178 208 178c39 0 69 -7 90 -20l-46 -100c-20 9 -39 14 -57 14c-38 0 -61 -21 -70 -63l-6 -35h108l-21 -106h-108l-85 -432c-23 -119 -100 -178 -208 -178c-39 0 -69 7 -90 20l46 100c20 -9 39 -14 57 -14c38 0 61 21 70 63z" />
    <glyph glyph-name="circumflex" unicode="&#x2c6;" horiz-adv-x="428" 
d="M146 566h-120l171 186h34l171 -186h-120l-68 74z" />
    <glyph glyph-name="caron" unicode="&#x2c7;" horiz-adv-x="428" 
d="M231 566h-34l-171 186h120l68 -74l68 74h120z" />
    <glyph glyph-name="breve" unicode="&#x2d8;" horiz-adv-x="259" 
d="M8 700h91c0 -36 54 -36 54 0h91c0 -60 -47 -109 -118 -109s-118 49 -118 109z" />
    <glyph glyph-name="dotaccent" unicode="&#x2d9;" horiz-adv-x="288" 
d="M87 592c-31 31 -31 83 0 114s83 31 114 0s31 -83 0 -114s-83 -31 -114 0z" />
    <glyph glyph-name="ring" unicode="&#x2da;" horiz-adv-x="234" 
d="M43 582c-19 19 -29 44 -29 73s10 54 29 73s44 29 74 29s55 -10 74 -29s29 -44 29 -73s-10 -54 -29 -73s-44 -29 -74 -29s-55 10 -74 29zM117 687c-20 0 -30 -11 -30 -32s10 -32 30 -32s30 11 30 32s-10 32 -30 32z" />
    <glyph glyph-name="ogonek" unicode="&#x2db;" horiz-adv-x="229" 
d="M71 -60h80c-39 -33 -58 -59 -58 -78c0 -17 9 -26 26 -26s26 8 49 39l53 -43c-32 -52 -64 -77 -116 -77c-59 0 -97 34 -97 90c0 37 27 74 63 95z" />
    <glyph glyph-name="tilde" unicode="&#x2dc;" horiz-adv-x="415" 
d="M80 569l-65 55c23 52 72 87 123 87c23 0 48 -7 73 -21c25 -13 45 -20 60 -20c22 0 43 14 64 43l65 -55c-23 -52 -72 -87 -123 -87c-23 0 -48 7 -73 20c-25 14 -45 21 -60 21c-22 0 -43 -14 -64 -43z" />
    <glyph glyph-name="hungarumlaut" unicode="&#x2dd;" horiz-adv-x="463" 
d="M113 560h-95l64 148h168zM316 560h-95l64 148h168z" />
    <glyph glyph-name="Delta" unicode="&#x2206;" horiz-adv-x="696" 
d="M647 0h-598v32l248 668h102l248 -668v-32zM501 108l-153 440l-153 -440h306z" />
    <glyph glyph-name="Omega" unicode="&#x3a9;" horiz-adv-x="696" 
d="M497 108h130v-108h-245v40l27 61c11 26 26 74 44 144c19 71 28 136 28 195c0 100 -48 160 -133 160s-133 -60 -133 -160c0 -75 15 -164 34 -228c20 -64 42 -121 55 -150l10 -22v-40h-245v108h130c-5 8 -13 18 -38 66c-12 25 -23 49 -33 74c-19 49 -37 127 -37 192
c0 79 23 143 69 193c47 50 109 75 188 75s141 -25 187 -75c47 -50 70 -114 70 -193c0 -51 -9 -105 -27 -160s-36 -98 -54 -128z" />
    <glyph glyph-name="pi" unicode="&#x3c0;" horiz-adv-x="620" 
d="M133 396h-83v108h519v-108h-83v-396h-124v396h-105v-396h-124v396z" />
    <glyph glyph-name="endash" unicode="&#x2013;" horiz-adv-x="585" 
d="M520 263h-455v108h455v-108z" />
    <glyph glyph-name="emdash" unicode="&#x2014;" horiz-adv-x="771" 
d="M706 263h-641v108h641v-108z" />
    <glyph glyph-name="quoteleft" unicode="&#x2018;" horiz-adv-x="334" 
d="M50 708h163l78 -244h-92z" />
    <glyph glyph-name="quoteright" unicode="&#x2019;" horiz-adv-x="334" 
d="M135 464h-92l78 244h163z" />
    <glyph glyph-name="quotesinglbase" unicode="&#x201a;" horiz-adv-x="334" 
d="M135 -14h-92l78 244h163z" />
    <glyph glyph-name="quotedblleft" unicode="&#x201c;" horiz-adv-x="554" 
d="M270 708h163l78 -244h-92zM50 708h163l78 -244h-92z" />
    <glyph glyph-name="quotedblright" unicode="&#x201d;" horiz-adv-x="554" 
d="M135 464h-92l78 244h163zM355 464h-92l78 244h163z" />
    <glyph glyph-name="quotedblbase" unicode="&#x201e;" horiz-adv-x="554" 
d="M135 -14h-92l78 244h163zM355 -14h-92l78 244h163z" />
    <glyph glyph-name="dagger" unicode="&#x2020;" horiz-adv-x="524" 
d="M201 396h-149v108h149v246h122v-246h149v-108h-149v-446h-122v446z" />
    <glyph glyph-name="daggerdbl" unicode="&#x2021;" horiz-adv-x="524" 
d="M201 396h-149v108h149v246h122v-246h149v-108h-149v-92h149v-108h-149v-246h-122v246h-149v108h149v92z" />
    <glyph glyph-name="bullet" unicode="&#x2022;" horiz-adv-x="392" 
d="M112 246c-23 23 -34 51 -34 84s11 60 34 83s51 35 84 35s60 -12 83 -35s35 -50 35 -83s-12 -61 -35 -84s-50 -34 -83 -34s-61 11 -84 34z" />
    <glyph glyph-name="ellipsis" unicode="&#x2026;" horiz-adv-x="972" 
d="M104 18c-32 32 -32 88 0 120s88 32 120 0s32 -88 0 -120s-88 -32 -120 0zM426 18c-32 32 -32 88 0 120s88 32 120 0s32 -88 0 -120s-88 -32 -120 0zM748 18c-32 32 -32 88 0 120s88 32 120 0s32 -88 0 -120s-88 -32 -120 0z" />
    <glyph glyph-name="perthousand" unicode="&#x2030;" horiz-adv-x="1237" 
d="M98 434c-31 31 -46 69 -46 114s15 83 46 114s71 46 118 46s86 -15 117 -46s47 -69 47 -114s-16 -83 -47 -114s-70 -46 -117 -46s-87 15 -118 46zM170 594c-21 -24 -21 -68 0 -93c11 -12 27 -18 46 -18s34 6 45 18c23 25 23 69 0 93c-11 13 -26 19 -45 19s-35 -6 -46 -19z
M504 38c-31 31 -46 69 -46 114s15 83 46 114s71 46 118 46s86 -15 117 -46s47 -69 47 -114s-16 -83 -47 -114s-70 -46 -117 -46s-87 15 -118 46zM576 198c-21 -24 -21 -68 0 -93c11 -12 27 -18 46 -18s34 6 45 18c23 25 23 69 0 93c-11 13 -26 19 -45 19s-35 -6 -46 -19z
M903 38c-31 31 -46 69 -46 114s15 83 46 114s71 46 118 46s86 -15 117 -46s47 -69 47 -114s-16 -83 -47 -114s-70 -46 -117 -46s-87 15 -118 46zM975 198c-21 -24 -21 -68 0 -93c11 -12 27 -18 46 -18s34 6 45 18c23 25 23 69 0 93c-11 13 -26 19 -45 19s-35 -6 -46 -19z
M120 20l538 718l72 -57l-538 -719z" />
    <glyph glyph-name="guilsinglleft" unicode="&#x2039;" horiz-adv-x="403" 
d="M353 51l-309 218v82l309 218v-128l-185 -131l185 -131v-128z" />
    <glyph glyph-name="guilsinglright" unicode="&#x203a;" horiz-adv-x="403" 
d="M50 569l309 -218v-82l-309 -218v128l185 131l-185 131v128z" />
    <glyph glyph-name="fraction" unicode="&#x2044;" horiz-adv-x="616" 
d="M3 20l538 718l72 -57l-538 -719z" />
    <glyph glyph-name="zerosuperior" unicode="&#x2070;" horiz-adv-x="414" 
d="M85 650c30 36 71 54 122 54s92 -18 121 -54c30 -35 45 -85 45 -150s-15 -115 -45 -151c-29 -35 -70 -53 -121 -53s-92 18 -122 53c-29 36 -44 86 -44 151s15 115 44 150zM260 591c-28 40 -78 40 -106 0c-14 -19 -21 -50 -21 -91s7 -72 21 -92c28 -39 78 -39 106 0
c14 20 21 51 21 92s-7 72 -21 91z" />
    <glyph glyph-name="foursuperior" unicode="&#x2074;" horiz-adv-x="351" 
d="M284 300h-89v65h-167v45l161 290h95v-252h43v-83h-43v-65zM195 570l-63 -122h63v122z" />
    <glyph glyph-name="fivesuperior" unicode="&#x2075;" horiz-adv-x="355" 
d="M42 414l87 10c7 -30 24 -45 51 -45c36 0 54 20 54 59c0 37 -18 55 -54 55c-21 0 -41 -8 -58 -23l-71 15l21 215h230v-83h-155l-10 -67c18 10 39 15 63 15c81 0 127 -52 127 -127c0 -88 -58 -142 -147 -142c-72 0 -131 50 -138 118z" />
    <glyph glyph-name="sixsuperior" unicode="&#x2076;" horiz-adv-x="374" 
d="M180 704h100l-89 -148c5 2 11 3 18 3c68 0 121 -44 121 -131c0 -77 -58 -132 -141 -132s-140 53 -140 132c0 29 6 54 18 75zM189 476c-27 0 -47 -19 -47 -48c-3 -44 54 -65 80 -36c29 29 9 89 -33 84z" />
    <glyph glyph-name="sevensuperior" unicode="&#x2077;" horiz-adv-x="316" 
d="M40 700h261v-35l-150 -365h-95l132 317h-148v83z" />
    <glyph glyph-name="eightsuperior" unicode="&#x2078;" horiz-adv-x="362" 
d="M306 596c0 -37 -15 -63 -45 -80c39 -18 58 -48 58 -90c0 -79 -55 -130 -138 -130s-138 51 -138 130c0 42 19 72 58 90c-30 17 -45 43 -45 80c0 59 49 108 125 108s125 -49 125 -108zM214 460c-16 17 -50 17 -66 0s-16 -51 0 -68s50 -17 66 0s16 51 0 68zM211 625
c-15 16 -45 16 -60 0s-15 -48 0 -64s45 -16 60 0s15 48 0 64z" />
    <glyph glyph-name="ninesuperior" unicode="&#x2079;" horiz-adv-x="374" 
d="M194 296h-100l89 148c-5 -2 -11 -3 -18 -3c-68 0 -121 44 -121 131c0 77 58 132 141 132s140 -53 140 -132c0 -29 -6 -54 -18 -75zM185 524c27 0 47 19 47 48c0 43 -51 65 -81 35c-28 -28 -9 -88 34 -83z" />
    <glyph glyph-name="Euro" unicode="&#x20ac;" horiz-adv-x="644" 
d="M114 376h-89l50 108h50c33 145 134 224 267 224c102 0 174 -39 216 -117l-108 -64c-23 43 -59 65 -108 65c-72 0 -119 -36 -140 -108h210l-50 -108h-174v-52h224l-50 -108h-160c21 -72 68 -108 140 -108c49 0 85 22 108 65l108 -64c-42 -78 -114 -117 -216 -117
c-133 0 -234 79 -267 224h-100l50 108h39v52z" />
    <glyph glyph-name="trademark" unicode="&#x2122;" horiz-adv-x="852" 
d="M127 610h-104v90h305v-90h-104v-310h-97v310zM485 300h-97v400h97l97 -233l97 233h97v-400h-97v193l-65 -156h-64l-65 156v-193z" />
    <glyph glyph-name="partialdiff" unicode="&#x2202;" horiz-adv-x="630" 
d="M215 528l-113 35c13 41 40 76 81 103c41 28 86 42 135 42c179 0 255 -112 255 -340c0 -105 -21 -191 -68 -263c-47 -71 -131 -113 -243 -113c-64 0 -116 20 -157 60s-61 92 -61 157c0 87 29 160 88 217s133 86 223 86c32 0 61 -7 87 -22c-12 76 -47 112 -112 112
c-53 0 -91 -25 -115 -74zM344 406c-47 0 -86 -19 -117 -58s-46 -82 -46 -131c0 -68 33 -119 101 -119c47 0 83 18 110 55s41 82 41 134c0 80 -26 119 -89 119z" />
    <glyph glyph-name="product" unicode="&#x220f;" horiz-adv-x="585" 
d="M212 0h-124v700h409v-700h-124v592h-161v-592z" />
    <glyph glyph-name="summation" unicode="&#x2211;" horiz-adv-x="553" 
d="M493 108v-108h-441v55l186 295l-186 295v55h441v-108h-272l141 -228v-28l-141 -228h272z" />
    <glyph glyph-name="minus" unicode="&#x2212;" horiz-adv-x="594" 
d="M536 263h-476v108h476v-108z" />
    <glyph glyph-name="radical" unicode="&#x221a;" horiz-adv-x="601" 
d="M168 277h-116v112h184l71 -226l155 545h120l-220 -708h-102z" />
    <glyph glyph-name="infinity" unicode="&#x221e;" horiz-adv-x="884" 
d="M640 168c-75 0 -154 30 -198 95c-44 -65 -123 -95 -198 -95c-123 0 -193 75 -193 191s70 191 193 191c75 0 154 -30 198 -95c44 65 123 95 198 95c123 0 193 -75 193 -191s-70 -191 -193 -191zM261 272c47 0 85 29 116 87c-31 58 -69 87 -116 87c-55 0 -90 -30 -90 -87
s35 -87 90 -87zM623 272c55 0 90 30 90 87s-35 87 -90 87c-47 0 -85 -29 -116 -87c31 -58 69 -87 116 -87z" />
    <glyph glyph-name="integral" unicode="&#x222b;" horiz-adv-x="483" 
d="M98 -43l112 573c23 119 91 178 204 178c41 0 73 -7 94 -20l-46 -100c-20 9 -39 14 -57 14c-38 0 -61 -21 -70 -63l-112 -573c-23 -119 -90 -178 -201 -178c-43 0 -76 7 -97 20l46 100c20 -9 39 -14 57 -14c38 0 61 21 70 63z" />
    <glyph glyph-name="approxequal" unicode="&#x2248;" horiz-adv-x="629" 
d="M127 144l-64 69c25 61 86 111 151 111c29 0 65 -10 106 -30c41 -19 73 -29 94 -29c34 0 64 17 91 51l64 -69c-25 -61 -86 -111 -151 -111c-29 0 -65 10 -106 29c-41 20 -73 30 -94 30c-34 0 -64 -17 -91 -51zM124 351l-64 69c25 61 86 111 151 111c30 0 65 -10 106 -30
c41 -19 72 -29 94 -29c34 0 64 17 91 51l64 -69c-25 -61 -86 -111 -151 -111c-30 0 -65 10 -106 29c-41 20 -72 30 -94 30c-34 0 -64 -17 -91 -51z" />
    <glyph glyph-name="notequal" unicode="&#x2260;" horiz-adv-x="577" 
d="M247 346h-177v108h238l59 103l94 -52l-29 -51h75v-108h-136l-41 -72h177v-108h-238l-59 -103l-94 52l29 51h-75v108h136z" />
    <glyph glyph-name="lessequal" unicode="&#x2264;" horiz-adv-x="575" 
d="M482 140l-391 204v116l391 204v-131l-252 -131l252 -131v-131zM525 0h-476v108h476v-108z" />
    <glyph glyph-name="greaterequal" unicode="&#x2265;" horiz-adv-x="575" 
d="M93 664l391 -204v-116l-391 -204v131l252 131l-252 131v131zM50 108h476v-108h-476v108z" />
    <glyph glyph-name="lozenge" unicode="&#x25ca;" horiz-adv-x="606" 
d="M363 0h-120l-182 350l182 350h120l182 -350zM185 350l118 -244l118 244l-118 244z" />
    <glyph glyph-name="CR" unicode="&#xd;" horiz-adv-x="248" 
 />
    <glyph glyph-name="apple" unicode="&#xf8ff;" horiz-adv-x="772" 
d="M682 617v-595c0 -12 -10 -22 -22 -22c-2 0 -4 0 -7 1l-267 77l-267 -77c-3 -1 -5 -1 -7 -1c-12 0 -22 10 -22 22v595c0 11 5 19 16 22l270 78c8 3 12 3 20 0l270 -78c11 -3 16 -11 16 -22zM364 366v303l-230 -67c4 -63 28 -116 71 -161c44 -45 97 -70 159 -75zM638 602
l-230 67v-303c62 5 115 30 158 75c44 45 68 98 72 161zM133 463v-412l231 67v204c-97 8 -183 61 -231 141zM408 118l231 -67v412c-49 -80 -134 -133 -231 -141v-204z" />
    <glyph glyph-name="No" horiz-adv-x="1270" 
d="M484 238v462h130v-700h-137l-257 462v-462h-130v700h137zM1199 0h-455v108h455v-108zM784 261c-46 49 -69 112 -69 187s23 137 69 186s108 74 187 74s141 -25 187 -74s69 -111 69 -186s-23 -138 -69 -187s-108 -73 -187 -73s-141 24 -187 73zM879 557
c-23 -29 -34 -66 -34 -109s11 -80 34 -110c23 -29 53 -44 92 -44s69 15 92 44c23 30 34 67 34 110s-11 80 -34 109c-23 30 -53 45 -92 45s-69 -15 -92 -45z" />
    <glyph glyph-name="zero.tn" 
d="M95 613c45 63 108 95 191 95s146 -32 191 -95s67 -150 67 -263s-22 -201 -67 -264s-108 -94 -191 -94s-146 31 -191 94s-67 151 -67 264s22 200 67 263zM420 350c0 161 -45 242 -134 242s-134 -81 -134 -242s45 -242 134 -242s134 81 134 242z" />
    <glyph glyph-name="one.tn" 
d="M112 580l205 120h55v-700h-126v524l-134 -80v136z" />
    <glyph glyph-name="two.tn" 
d="M507 0h-445v50l250 323c36 45 54 88 54 127c0 57 -30 92 -86 92c-51 0 -83 -33 -91 -92l-116 22c3 53 25 98 64 133s88 53 146 53c131 0 209 -82 209 -203c0 -58 -20 -113 -60 -166l-171 -223h246v-116z" />
    <glyph glyph-name="three.tn" 
d="M54 194l121 16c17 -68 54 -102 113 -102c65 0 111 46 111 117c0 79 -45 123 -110 123c-21 0 -42 -5 -61 -15l-50 70l132 181h-223v116h401v-44l-165 -223c12 1 21 2 28 2c107 0 174 -84 174 -208c0 -71 -22 -128 -67 -171s-101 -64 -170 -64c-64 0 -118 19 -161 56
c-43 38 -67 87 -73 146z" />
    <glyph glyph-name="four.tn" 
d="M460 0h-126v130h-301v64l295 506h132v-454h78v-116h-78v-130zM334 513l-148 -267h148v267z" />
    <glyph glyph-name="five.tn" 
d="M61 183l119 22c13 -65 48 -97 105 -97c68 0 104 44 104 124c0 79 -39 121 -110 121c-45 0 -87 -21 -124 -63l-79 16l39 394h360v-116h-257l-16 -146c29 17 62 26 99 26c141 0 214 -89 214 -232c0 -71 -21 -129 -63 -174c-42 -44 -98 -66 -167 -66c-60 0 -111 17 -153 52
c-41 35 -65 82 -71 139z" />
    <glyph glyph-name="six.tn" 
d="M434 708l-152 -260h16c65 0 118 -21 161 -64c43 -42 65 -97 65 -164c0 -65 -22 -120 -67 -163s-100 -65 -167 -65c-66 0 -122 22 -167 65s-67 98 -67 163c0 43 11 84 34 123l204 365h140zM182 220c0 -67 48 -112 108 -112c61 0 108 45 108 112c0 69 -45 112 -108 112
s-108 -43 -108 -112z" />
    <glyph glyph-name="seven.tn" 
d="M72 700h424v-52l-264 -648h-124l239 584h-275v116z" />
    <glyph glyph-name="eight.tn" 
d="M487 517c0 -59 -22 -105 -66 -140c62 -35 93 -91 93 -168c0 -66 -22 -119 -67 -158c-44 -39 -98 -59 -161 -59s-117 20 -162 59c-44 39 -66 92 -66 158c0 77 31 133 92 168c-43 34 -65 81 -65 140c0 53 19 98 56 135c38 37 86 56 145 56s107 -19 144 -56
c38 -37 57 -82 57 -135zM359 283c-19 18 -44 27 -73 27s-54 -9 -73 -27s-29 -43 -29 -74s10 -56 29 -74s44 -27 73 -27s54 9 73 27s29 43 29 74s-10 56 -29 74zM202 515c0 -53 33 -89 84 -89s84 36 84 89c0 52 -33 87 -84 87s-84 -35 -84 -87z" />
    <glyph glyph-name="nine.tn" 
d="M138 -8l152 260h-16c-65 0 -119 21 -162 63c-43 43 -64 98 -64 165c0 65 22 120 67 163s100 65 167 65c66 0 121 -22 166 -65s68 -98 68 -163c0 -43 -11 -84 -34 -123l-204 -365h-140zM390 480c0 67 -48 112 -108 112c-61 0 -108 -45 -108 -112c0 -69 45 -112 108 -112
s108 43 108 112z" />
    </font>
</defs>
</svg>
