<?xml version="1.0" standalone="no"?>
<!DOCTYPE svg PUBLIC "-//W3C//DTD SVG 1.1//EN" "http://www.w3.org/Graphics/SVG/1.1/DTD/svg11.dtd" >
<svg xmlns="http://www.w3.org/2000/svg" xmlns:xlink="http://www.w3.org/1999/xlink" version="1.1">
<metadata>
Created by FontForge 20170924 at Thu Mar 15 18:21:36 2018
 By www-data
Copyright (c) 2018 by Ahmet Altun. All rights reserved.
</metadata>
<defs>
<font id="Narin-Regular" horiz-adv-x="524" >
  <font-face 
    font-family="Narin Regular"
    font-weight="400"
    font-stretch="normal"
    units-per-em="1000"
    panose-1="2 0 5 3 0 0 0 2 0 3"
    ascent="700"
    descent="-300"
    x-height="400"
    cap-height="700"
    bbox="-126.201 -305 1089 1044"
    underline-thickness="50"
    underline-position="-100"
    stemh="64"
    stemv="74"
    unicode-range="U+000D-FB03"
  />
<missing-glyph horiz-adv-x="716" 
d="M100 770h516v-875h-516v875zM132 -82h453l-227 392zM585 747h-453l226 -391zM123 716v-766l222 383zM593 -50v766l-221 -383z" />
    <glyph glyph-name="f_b" unicode="fb" horiz-adv-x="803" 
d="M765 200c0 -122 -84 -209 -200 -209c-53 0 -118 28 -150 73v-50c0 -8 -6 -14 -14 -14h-42c-8 0 -14 6 -14 14v566c-27 24 -61 35 -95 35c-52 0 -89 -44 -89 -109v-106h103c8 0 14 -6 14 -14v-32c0 -8 -6 -14 -14 -14h-103v-326c0 -8 -6 -14 -14 -14h-42
c-8 0 -14 6 -14 14v326h-67c-8 0 -14 6 -14 14v32c0 8 6 14 14 14h67v112c0 108 72 162 158 162c35 0 66 -9 96 -28v40c0 8 6 14 14 14h42c8 0 14 -6 14 -14v-350c32 45 97 73 150 73c116 0 200 -87 200 -209zM693 200c0 88 -61 153 -139 153c-84 0 -145 -65 -145 -153
s61 -153 145 -153c78 0 139 65 139 153z" />
    <glyph glyph-name="f_h" unicode="fh" horiz-adv-x="774" 
d="M359 0c-8 0 -14 6 -14 14v566c-26 24 -61 36 -95 36c-52 0 -89 -45 -89 -110v-106h103c8 0 14 -6 14 -14v-32c0 -8 -6 -14 -14 -14h-103v-326c0 -8 -6 -14 -14 -14h-42c-8 0 -14 6 -14 14v326h-67c-8 0 -14 6 -14 14v32c0 8 6 14 14 14h67v112c0 108 72 162 158 162
c35 0 66 -9 96 -28v40c0 8 6 14 14 14h42c8 0 14 -6 14 -14v-350c30 47 77 73 134 73c86 0 164 -47 164 -167v-228c0 -8 -6 -14 -14 -14h-42c-8 0 -14 6 -14 14v215c0 96 -55 124 -110 124c-61 0 -118 -51 -118 -126v-213c0 -8 -6 -14 -14 -14h-42z" />
    <glyph glyph-name="f_j" unicode="fj" horiz-adv-x="481" 
d="M415 551v-14c0 -7 -5 -13 -12 -14l-43 -7c-8 -1 -14 4 -14 12v14c0 69 -37 105 -93 105c-53 0 -92 -36 -92 -105v-142h240c8 0 14 -6 14 -14v-484c0 -110 -64 -161 -146 -161c-34 0 -72 12 -107 40c-6 4 -7 12 -2 18l18 24c6 8 14 8 22 3c22 -17 48 -24 69 -24
c47 0 76 31 76 93v445h-184v-326c0 -8 -6 -14 -14 -14h-42c-8 0 -14 6 -14 14v326h-67c-8 0 -14 6 -14 14v32c0 8 6 14 14 14h67v149c0 102 72 160 162 160s162 -56 162 -158z" />
    <glyph glyph-name="f_k" unicode="fk" horiz-adv-x="715" 
d="M401 700c8 0 14 -6 14 -14v-476l177 186c2 2 6 4 10 4h51c20 0 24 -10 10 -24l-179 -176l179 -176c14 -14 10 -24 -10 -24h-51c-4 0 -8 2 -10 4l-177 185v-175c0 -8 -6 -14 -14 -14h-42c-8 0 -14 6 -14 14v566c-26 24 -61 36 -95 36c-52 0 -89 -45 -89 -110v-106h103
c8 0 14 -6 14 -14v-32c0 -8 -6 -14 -14 -14h-103v-326c0 -8 -6 -14 -14 -14h-42c-8 0 -14 6 -14 14v326h-67c-8 0 -14 6 -14 14v32c0 8 6 14 14 14h67v112c0 108 72 162 158 162c35 0 67 -8 96 -28v40c0 8 6 14 14 14h42z" />
    <glyph glyph-name="ff" unicode="ff" horiz-adv-x="557" 
d="M415 555v-155h114c8 0 14 -6 14 -14v-32c0 -8 -6 -14 -14 -14h-114v-326c0 -8 -6 -14 -14 -14h-42c-8 0 -14 6 -14 14v326h-184v-326c0 -8 -6 -14 -14 -14h-42c-8 0 -14 6 -14 14v326h-67c-8 0 -14 6 -14 14v32c0 8 6 14 14 14h67v112c0 108 72 162 158 162
c42 0 84 -14 114 -39c24 51 72 74 129 74c34 0 73 -11 108 -38c6 -5 7 -12 3 -18l-17 -24c-6 -8 -14 -8 -22 -3c-23 17 -52 23 -73 23c-47 0 -76 -35 -76 -94zM345 548c0 8 0 22 1 30c-25 26 -60 39 -95 39c-52 0 -90 -49 -90 -111v-106h184v148z" />
    <glyph glyph-name="ffi" unicode="ffi" horiz-adv-x="735" 
d="M10 386c0 8 6 14 14 14h67v114c0 102 72 160 162 160c44 0 83 -13 112 -41c28 49 81 76 142 76c90 0 162 -56 162 -158v-14c0 -7 -5 -13 -12 -14l-43 -7c-8 -1 -14 4 -14 12v14c0 69 -37 105 -93 105c-53 0 -92 -36 -92 -105v-142h240c8 0 14 -6 14 -14v-372
c0 -8 -6 -14 -14 -14h-42c-8 0 -14 6 -14 14v326h-184v-326c0 -8 -6 -14 -14 -14h-42c-8 0 -14 6 -14 14v326h-184v-326c0 -8 -6 -14 -14 -14h-42c-8 0 -14 6 -14 14v326h-67c-8 0 -14 6 -14 14v32zM345 400v172c-19 27 -57 42 -92 42c-53 0 -92 -38 -92 -107v-107h184z" />
    <glyph glyph-name="fi" unicode="fi" horiz-adv-x="481" 
d="M415 551v-14c0 -7 -5 -13 -12 -14l-43 -7c-8 -1 -14 4 -14 12v14c0 69 -37 105 -93 105c-53 0 -92 -36 -92 -105v-142h240c8 0 14 -6 14 -14v-372c0 -8 -6 -14 -14 -14h-42c-8 0 -14 6 -14 14v326h-184v-326c0 -8 -6 -14 -14 -14h-42c-8 0 -14 6 -14 14v326h-67
c-8 0 -14 6 -14 14v32c0 8 6 14 14 14h67v149c0 102 72 160 162 160s162 -56 162 -158z" />
    <glyph glyph-name="fl" unicode="fl" horiz-adv-x="481" 
d="M401 700c8 0 14 -6 14 -14v-672c0 -8 -6 -14 -14 -14h-42c-8 0 -14 6 -14 14v566c-26 24 -61 33 -95 33c-52 0 -89 -42 -89 -107v-106h103c8 0 14 -6 14 -14v-32c0 -8 -6 -14 -14 -14h-103v-326c0 -8 -6 -14 -14 -14h-42c-8 0 -14 6 -14 14v326h-67c-8 0 -14 6 -14 14v32
c0 8 6 14 14 14h67v112c0 108 72 162 158 162c35 0 67 -9 96 -28v40c0 8 6 14 14 14h42z" />
    <glyph glyph-name=".notdef" horiz-adv-x="716" 
d="M100 770h516v-875h-516v875zM132 -82h453l-227 392zM585 747h-453l226 -391zM123 716v-766l222 383zM593 -50v766l-221 -383z" />
    <glyph glyph-name=".null" horiz-adv-x="0" 
 />
    <glyph glyph-name=".null" horiz-adv-x="0" 
 />
    <glyph glyph-name="A" unicode="A" horiz-adv-x="678" 
d="M591 0c-6 0 -11 4 -13 9l-82 207h-315l-81 -207c-2 -5 -7 -9 -13 -9h-47c-13 0 -18 8 -13 19l271 672c3 5 8 9 13 9h56c5 0 10 -4 13 -9l271 -672c5 -11 0 -19 -13 -19h-47zM339 618l-134 -341h267z" />
    <glyph glyph-name="AE" unicode="&#xc6;" horiz-adv-x="840" 
d="M793 14c0 -8 -6 -14 -14 -14h-380c-8 0 -14 6 -14 14v202h-209l-81 -207c-2 -5 -7 -9 -13 -9h-47c-13 0 -18 8 -13 19l271 672c3 5 8 9 13 9h473c8 0 14 -6 14 -14v-38c0 -8 -6 -14 -14 -14h-320v-251h275c8 0 14 -6 14 -14v-38c0 -8 -6 -14 -14 -14h-275v-251h320
c8 0 14 -6 14 -14v-38zM341 634l-141 -357h185v357h-44z" />
    <glyph glyph-name="AEacute" unicode="&#x1fc;" horiz-adv-x="840" 
d="M793 14c0 -8 -6 -14 -14 -14h-380c-8 0 -14 6 -14 14v202h-209l-81 -207c-2 -5 -7 -9 -13 -9h-47c-13 0 -18 8 -13 19l271 672c3 5 8 9 13 9h473c8 0 14 -6 14 -14v-38c0 -8 -6 -14 -14 -14h-320v-251h275c8 0 14 -6 14 -14v-38c0 -8 -6 -14 -14 -14h-275v-251h320
c8 0 14 -6 14 -14v-38zM341 634l-141 -357h185v357h-44zM501 898c14 0 19 -8 12 -21l-62 -110c-2 -4 -7 -7 -12 -7h-31c-13 0 -18 8 -13 19l44 110c3 6 8 9 13 9h49z" />
    <glyph glyph-name="Aacute" unicode="&#xc1;" horiz-adv-x="678" 
d="M591 0c-6 0 -11 4 -13 9l-82 207h-315l-81 -207c-2 -5 -7 -9 -13 -9h-47c-13 0 -18 8 -13 19l271 672c3 5 8 9 13 9h56c5 0 10 -4 13 -9l271 -672c5 -11 0 -19 -13 -19h-47zM339 618l-134 -341h267zM424 898c14 0 19 -8 12 -21l-62 -110c-2 -4 -7 -7 -12 -7h-31
c-13 0 -18 8 -13 19l44 110c3 6 8 9 13 9h49z" />
    <glyph glyph-name="Abreve" unicode="&#x102;" horiz-adv-x="678" 
d="M224 857c-1 8 5 14 13 14h30c8 0 14 -6 15 -14c5 -23 21 -45 57 -45c24 0 51 17 58 45c1 8 7 14 15 14h29c8 0 14 -6 13 -14c-7 -58 -57 -98 -115 -98s-108 40 -115 98zM591 0c-6 0 -11 4 -13 9l-82 207h-315l-81 -207c-2 -5 -7 -9 -13 -9h-47c-13 0 -18 8 -13 19
l271 672c3 5 8 9 13 9h56c5 0 10 -4 13 -9l271 -672c5 -11 0 -19 -13 -19h-47zM339 618l-134 -341h267z" />
    <glyph glyph-name="Acircumflex" unicode="&#xc2;" horiz-adv-x="678" 
d="M591 0c-6 0 -11 4 -13 9l-82 207h-315l-81 -207c-2 -5 -7 -9 -13 -9h-47c-13 0 -18 8 -13 19l271 672c3 5 8 9 13 9h56c5 0 10 -4 13 -9l271 -672c5 -11 0 -19 -13 -19h-47zM339 618l-134 -341h267zM282 775c-2 -3 -7 -5 -10 -5h-28c-15 0 -20 9 -11 22l71 106
c2 4 7 6 11 6h47c4 0 9 -2 11 -6l72 -106c9 -13 4 -22 -11 -22h-28c-3 0 -8 2 -10 5l-57 67z" />
    <glyph glyph-name="Adieresis" unicode="&#xc4;" horiz-adv-x="678" 
d="M591 0c-6 0 -11 4 -13 9l-82 207h-315l-81 -207c-2 -5 -7 -9 -13 -9h-47c-13 0 -18 8 -13 19l271 672c3 5 8 9 13 9h56c5 0 10 -4 13 -9l271 -672c5 -11 0 -19 -13 -19h-47zM339 618l-134 -341h267zM244 760c-26 0 -47 21 -47 47c0 27 21 48 47 48c27 0 48 -21 48 -48
c0 -26 -21 -47 -48 -47zM433 760c-26 0 -47 21 -47 47c0 27 21 48 47 48c27 0 48 -21 48 -48c0 -26 -21 -47 -48 -47z" />
    <glyph glyph-name="Agrave" unicode="&#xc0;" horiz-adv-x="678" 
d="M591 0c-6 0 -11 4 -13 9l-82 207h-315l-81 -207c-2 -5 -7 -9 -13 -9h-47c-13 0 -18 8 -13 19l271 672c3 5 8 9 13 9h56c5 0 10 -4 13 -9l271 -672c5 -11 0 -19 -13 -19h-47zM339 618l-134 -341h267zM314 760c-5 0 -10 3 -12 7l-62 110c-7 13 -2 21 12 21h49
c5 0 10 -3 13 -9l44 -110c5 -11 0 -19 -13 -19h-31z" />
    <glyph glyph-name="Amacron" unicode="&#x100;" horiz-adv-x="678" 
d="M591 0c-6 0 -11 4 -13 9l-82 207h-315l-81 -207c-2 -5 -7 -9 -13 -9h-47c-13 0 -18 8 -13 19l271 672c3 5 8 9 13 9h56c5 0 10 -4 13 -9l271 -672c5 -11 0 -19 -13 -19h-47zM339 618l-134 -341h267zM249 770c-8 0 -14 6 -14 14v27c0 8 6 14 14 14h179c8 0 14 -6 14 -14
v-27c0 -8 -6 -14 -14 -14h-179z" />
    <glyph glyph-name="Aogonek" unicode="&#x104;" horiz-adv-x="679" 
d="M581 0l-85 216h-315l-81 -207c-2 -5 -7 -9 -13 -9h-47c-13 0 -18 8 -13 19l271 672c3 5 8 9 13 9h56c5 0 10 -4 13 -9l273 -676c4 -9 0 -16 -9 -20c-44 -16 -67 -52 -67 -83c0 -27 18 -49 57 -49c8 0 16 1 26 3c12 2 19 -3 19 -14v-19c0 -6 -4 -11 -10 -13
c-17 -5 -34 -8 -48 -8c-62 0 -97 43 -97 91c0 35 18 72 57 97zM339 618l-134 -341h267z" />
    <glyph glyph-name="Aring" unicode="&#xc5;" horiz-adv-x="678" 
d="M247 784c0 51 41 92 92 92s92 -41 92 -92c0 -38 -23 -71 -55 -85l275 -680c5 -11 0 -19 -13 -19h-47c-6 0 -11 4 -13 9l-82 207h-315l-81 -207c-2 -5 -7 -9 -13 -9h-47c-13 0 -18 8 -13 19l275 680c-33 14 -55 47 -55 85zM339 618l-134 -341h267zM289 784
c0 -27 23 -50 50 -50s50 23 50 50s-23 50 -50 50s-50 -23 -50 -50z" />
    <glyph glyph-name="Aringacute" unicode="&#x1fa;" horiz-adv-x="678" 
d="M591 0c-6 0 -11 4 -13 9l-82 207h-315l-81 -207c-2 -5 -7 -9 -13 -9h-47c-13 0 -18 8 -13 19l276 681c-33 14 -56 46 -56 85c0 51 41 92 92 92s92 -41 92 -92c0 -39 -22 -71 -55 -85l275 -681c5 -11 0 -19 -13 -19h-47zM339 618l-134 -341h267zM289 785
c0 -27 23 -50 50 -50s50 23 50 50s-23 50 -50 50s-50 -23 -50 -50zM423 1044c14 0 19 -8 12 -21l-62 -110c-2 -4 -7 -7 -12 -7h-31c-13 0 -18 8 -13 19l44 110c3 6 8 9 13 9h49z" />
    <glyph glyph-name="Atilde" unicode="&#xc3;" horiz-adv-x="678" 
d="M591 0c-6 0 -11 4 -13 9l-82 207h-315l-81 -207c-2 -5 -7 -9 -13 -9h-47c-13 0 -18 8 -13 19l271 672c3 5 8 9 13 9h56c5 0 10 -4 13 -9l271 -672c5 -11 0 -19 -13 -19h-47zM339 618l-134 -341h267zM293 857c47 -3 62 -36 94 -39c26 -1 38 14 43 26c3 8 4 13 19 8l25 -8
c7 -2 11 -9 9 -16c-8 -23 -32 -73 -100 -68c-42 5 -67 38 -92 41c-27 2 -40 -15 -45 -27c-3 -7 -3 -12 -19 -7l-24 7c-7 2 -11 8 -9 15c8 23 32 70 99 68z" />
    <glyph glyph-name="B" unicode="B" horiz-adv-x="591" 
d="M339 700c99 0 180 -76 180 -178c0 -60 -36 -116 -87 -145c67 -30 112 -99 112 -174c0 -116 -92 -203 -205 -203h-241c-8 0 -14 6 -14 14v672c0 8 6 14 14 14h241zM158 343v-277h181c71 0 131 60 131 137s-60 140 -127 140h-185zM339 634h-181v-229h181
c58 0 106 52 106 116s-48 113 -106 113z" />
    <glyph glyph-name="C" unicode="C" horiz-adv-x="720" 
d="M406 647c-158 0 -285 -127 -285 -297c0 -173 127 -297 285 -297c83 0 157 36 212 93c6 7 14 7 21 1l25 -28c5 -5 6 -13 0 -18c-65 -68 -157 -110 -258 -110c-198 0 -359 158 -359 359s161 359 359 359c101 0 193 -42 258 -109c6 -6 5 -14 0 -19l-25 -26
c-7 -7 -15 -6 -21 0c-55 58 -129 92 -212 92z" />
    <glyph glyph-name="CR" unicode="&#xd;" horiz-adv-x="240" 
 />
    <glyph glyph-name="Cacute" unicode="&#x106;" horiz-adv-x="720" 
d="M516 898l-78 -138h-60l56 138h82zM406 647c83 0 157 -34 212 -92c6 -6 14 -7 21 0l25 26c5 5 6 13 0 19c-65 67 -157 109 -258 109c-198 0 -359 -158 -359 -359s161 -359 359 -359c101 0 193 42 258 110c6 5 5 13 0 18l-25 28c-7 6 -15 6 -21 -1
c-55 -57 -129 -93 -212 -93c-158 0 -285 124 -285 297c0 170 127 297 285 297z" />
    <glyph glyph-name="Ccaron" unicode="&#x10c;" horiz-adv-x="720" 
d="M406 647c83 0 157 -34 212 -92c6 -6 14 -7 21 0l25 26c5 5 6 13 0 19c-65 67 -157 109 -258 109c-198 0 -359 -158 -359 -359s161 -359 359 -359c101 0 193 42 258 110c6 5 5 13 0 18l-25 28c-7 6 -15 6 -21 -1c-55 -57 -129 -93 -212 -93c-158 0 -285 124 -285 297
c0 170 127 297 285 297zM301 872c-9 13 -5 22 11 22h27c4 0 9 -2 11 -5l57 -67l57 67c2 3 7 5 10 5h28c15 0 20 -9 11 -22l-72 -106c-2 -4 -7 -6 -11 -6h-47c-4 0 -9 2 -11 6z" />
    <glyph glyph-name="Ccedilla" unicode="&#xc7;" horiz-adv-x="720" 
d="M407 -73h-11c-7 0 -12 5 -12 11v54c-188 10 -337 164 -337 358c0 201 161 359 359 359c101 0 193 -42 258 -109c6 -6 5 -14 0 -19l-25 -26c-7 -7 -15 -6 -21 0c-55 58 -129 92 -212 92c-158 0 -285 -127 -285 -297c0 -173 127 -297 285 -297c83 0 157 36 212 93
c6 7 14 7 21 1l25 -28c5 -5 6 -13 0 -18c-62 -65 -149 -105 -244 -109v-29c55 -1 82 -38 82 -76c0 -56 -50 -81 -92 -81c-23 0 -46 6 -65 16c-6 4 -7 11 -4 18l7 12c5 8 13 9 21 6c14 -7 28 -9 39 -9c23 0 46 13 46 38c0 24 -17 40 -47 40z" />
    <glyph glyph-name="Ccircumflex" unicode="&#x108;" horiz-adv-x="720" 
d="M406 647c83 0 157 -34 212 -92c6 -6 14 -7 21 0l25 26c5 5 6 13 0 19c-65 67 -157 109 -258 109c-198 0 -359 -158 -359 -359s161 -359 359 -359c101 0 193 42 258 110c6 5 5 13 0 18l-25 28c-7 6 -15 6 -21 -1c-55 -57 -129 -93 -212 -93c-158 0 -285 124 -285 297
c0 170 127 297 285 297zM345 775c-2 -3 -7 -5 -11 -5h-27c-16 0 -20 9 -11 22l71 106c2 3 7 6 11 6h47c4 0 9 -3 11 -6l72 -106c9 -13 4 -22 -11 -22h-28c-3 0 -8 2 -10 5l-57 67z" />
    <glyph glyph-name="Cdotaccent" unicode="&#x10a;" horiz-adv-x="720" 
d="M405 760c-26 0 -47 21 -47 47c0 27 21 48 47 48c27 0 48 -21 48 -48c0 -26 -21 -47 -48 -47zM406 647c83 0 157 -34 212 -92c6 -6 14 -7 21 0l25 26c5 5 6 13 0 19c-65 67 -157 109 -258 109c-198 0 -359 -158 -359 -359s161 -359 359 -359c101 0 193 42 258 110
c6 5 5 13 0 18l-25 28c-7 6 -15 6 -21 -1c-55 -57 -129 -93 -212 -93c-158 0 -285 124 -285 297c0 170 127 297 285 297z" />
    <glyph glyph-name="D" unicode="D" horiz-adv-x="692" 
d="M645 350c0 -202 -157 -350 -350 -350h-197c-8 0 -14 6 -14 14v672c0 8 6 14 14 14h197c193 0 350 -148 350 -350zM295 634h-137v-568h137c152 0 276 120 276 284s-124 284 -276 284z" />
    <glyph glyph-name="Dcaron" unicode="&#x10e;" horiz-adv-x="692" 
d="M645 350c0 -202 -157 -350 -350 -350h-197c-8 0 -14 6 -14 14v672c0 8 6 14 14 14h197c193 0 350 -148 350 -350zM295 634h-137v-568h137c152 0 276 120 276 284s-124 284 -276 284zM163 872c-9 13 -4 22 11 22h28c3 0 8 -2 10 -5l57 -67l57 67c2 3 7 5 10 5h28
c15 0 20 -9 11 -22l-72 -106c-2 -4 -7 -6 -11 -6h-47c-4 0 -9 2 -11 6z" />
    <glyph glyph-name="Dcroat" unicode="&#x110;" horiz-adv-x="698" 
d="M14 320c-8 0 -14 6 -14 14v32c0 8 6 14 14 14h76v306c0 8 6 14 14 14h197c193 0 350 -148 350 -350s-157 -350 -350 -350h-197c-8 0 -14 6 -14 14v306h-76zM164 634v-254h225c8 0 14 -6 14 -14v-32c0 -8 -6 -14 -14 -14h-225v-254h137c152 0 276 120 276 284
s-124 284 -276 284h-137z" />
    <glyph glyph-name="Delta" unicode="&#x2206;" horiz-adv-x="684" 
d="M301 691c3 6 8 9 13 9h56c5 0 10 -3 13 -9l253 -624c1 -2 1 -4 1 -6v-47c0 -8 -6 -14 -14 -14h-562c-8 0 -14 6 -14 14v47c0 2 0 4 1 6zM342 618l-217 -552h434z" />
    <glyph glyph-name="E" unicode="E" horiz-adv-x="559" 
d="M512 14c0 -8 -6 -14 -14 -14h-400c-8 0 -14 6 -14 14v672c0 8 6 14 14 14h400c8 0 14 -6 14 -14v-38c0 -8 -6 -14 -14 -14h-340v-251h295c8 0 14 -6 14 -14v-38c0 -8 -6 -14 -14 -14h-295v-251h340c8 0 14 -6 14 -14v-38z" />
    <glyph glyph-name="Eacute" unicode="&#xc9;" horiz-adv-x="559" 
d="M512 14c0 -8 -6 -14 -14 -14h-400c-8 0 -14 6 -14 14v672c0 8 6 14 14 14h400c8 0 14 -6 14 -14v-38c0 -8 -6 -14 -14 -14h-340v-251h295c8 0 14 -6 14 -14v-38c0 -8 -6 -14 -14 -14h-295v-251h340c8 0 14 -6 14 -14v-38zM375 898c14 0 19 -8 12 -21l-62 -110
c-2 -4 -7 -7 -12 -7h-31c-13 0 -18 8 -13 19l44 110c3 6 8 9 13 9h49z" />
    <glyph glyph-name="Ebreve" unicode="&#x114;" horiz-adv-x="559" 
d="M192 858c-1 8 5 14 13 14h30c8 0 14 -6 15 -14c5 -23 21 -45 57 -45c24 0 51 17 58 45c1 8 7 14 15 14h29c8 0 14 -6 13 -14c-7 -58 -57 -98 -115 -98s-108 40 -115 98zM512 14c0 -8 -6 -14 -14 -14h-400c-8 0 -14 6 -14 14v672c0 8 6 14 14 14h400c8 0 14 -6 14 -14v-38
c0 -8 -6 -14 -14 -14h-340v-251h295c8 0 14 -6 14 -14v-38c0 -8 -6 -14 -14 -14h-295v-251h340c8 0 14 -6 14 -14v-38z" />
    <glyph glyph-name="Ecaron" unicode="&#x11a;" horiz-adv-x="559" 
d="M200 872c-9 13 -4 22 11 22h28c3 0 8 -2 10 -5l57 -67l57 67c2 3 7 5 10 5h28c15 0 20 -9 11 -22l-72 -106c-2 -4 -7 -6 -11 -6h-47c-4 0 -9 2 -11 6zM512 14c0 -8 -6 -14 -14 -14h-400c-8 0 -14 6 -14 14v672c0 8 6 14 14 14h400c8 0 14 -6 14 -14v-38
c0 -8 -6 -14 -14 -14h-340v-251h295c8 0 14 -6 14 -14v-38c0 -8 -6 -14 -14 -14h-295v-251h340c8 0 14 -6 14 -14v-38z" />
    <glyph glyph-name="Ecircumflex" unicode="&#xca;" horiz-adv-x="559" 
d="M512 14c0 -8 -6 -14 -14 -14h-400c-8 0 -14 6 -14 14v672c0 8 6 14 14 14h400c8 0 14 -6 14 -14v-38c0 -8 -6 -14 -14 -14h-340v-251h295c8 0 14 -6 14 -14v-38c0 -8 -6 -14 -14 -14h-295v-251h340c8 0 14 -6 14 -14v-38zM231 775c-2 -3 -7 -5 -10 -5h-28
c-15 0 -20 9 -11 22l71 106c2 4 7 6 11 6h47c4 0 9 -2 11 -6l72 -106c9 -13 4 -22 -11 -22h-28c-3 0 -8 2 -10 5l-57 67z" />
    <glyph glyph-name="Edieresis" unicode="&#xcb;" horiz-adv-x="559" 
d="M224 760c-26 0 -47 21 -47 47c0 27 21 48 47 48c27 0 48 -21 48 -48c0 -26 -21 -47 -48 -47zM387 760c-26 0 -47 21 -47 47c0 27 21 48 47 48c27 0 48 -21 48 -48c0 -26 -21 -47 -48 -47zM512 14c0 -8 -6 -14 -14 -14h-400c-8 0 -14 6 -14 14v672c0 8 6 14 14 14h400
c8 0 14 -6 14 -14v-38c0 -8 -6 -14 -14 -14h-340v-251h295c8 0 14 -6 14 -14v-38c0 -8 -6 -14 -14 -14h-295v-251h340c8 0 14 -6 14 -14v-38z" />
    <glyph glyph-name="Edotaccent" unicode="&#x116;" horiz-adv-x="559" 
d="M307 760c-26 0 -47 21 -47 47c0 27 21 48 47 48c27 0 48 -21 48 -48c0 -26 -21 -47 -48 -47zM512 14c0 -8 -6 -14 -14 -14h-400c-8 0 -14 6 -14 14v672c0 8 6 14 14 14h400c8 0 14 -6 14 -14v-38c0 -8 -6 -14 -14 -14h-340v-251h295c8 0 14 -6 14 -14v-38
c0 -8 -6 -14 -14 -14h-295v-251h340c8 0 14 -6 14 -14v-38z" />
    <glyph glyph-name="Egrave" unicode="&#xc8;" horiz-adv-x="559" 
d="M512 14c0 -8 -6 -14 -14 -14h-400c-8 0 -14 6 -14 14v672c0 8 6 14 14 14h400c8 0 14 -6 14 -14v-38c0 -8 -6 -14 -14 -14h-340v-251h295c8 0 14 -6 14 -14v-38c0 -8 -6 -14 -14 -14h-295v-251h340c8 0 14 -6 14 -14v-38zM286 760c-5 0 -10 3 -12 7l-62 110
c-7 13 -2 21 12 21h49c5 0 10 -3 13 -9l44 -110c5 -11 0 -19 -13 -19h-31z" />
    <glyph glyph-name="Emacron" unicode="&#x112;" horiz-adv-x="559" 
d="M217 770c-8 0 -14 6 -14 14v27c0 8 6 14 14 14h179c8 0 14 -6 14 -14v-27c0 -8 -6 -14 -14 -14h-179zM512 14c0 -8 -6 -14 -14 -14h-400c-8 0 -14 6 -14 14v672c0 8 6 14 14 14h400c8 0 14 -6 14 -14v-38c0 -8 -6 -14 -14 -14h-340v-251h295c8 0 14 -6 14 -14v-38
c0 -8 -6 -14 -14 -14h-295v-251h340c8 0 14 -6 14 -14v-38z" />
    <glyph glyph-name="Eng" unicode="&#x14a;" horiz-adv-x="729" 
d="M571 -86v86l-413 582v-568c0 -8 -6 -14 -14 -14h-46c-8 0 -14 6 -14 14v672c0 8 6 14 14 14h53c4 0 9 -2 11 -6l409 -576v568c0 8 6 14 14 14h46c8 0 14 -6 14 -14v-769c0 -110 -64 -161 -146 -161c-34 0 -78 13 -113 40c-6 5 -7 12 -3 18l21 30c6 9 15 9 23 3
c22 -17 51 -25 72 -25c47 0 72 36 72 92z" />
    <glyph glyph-name="Eogonek" unicode="&#x118;" horiz-adv-x="559" 
d="M512 14c0 -8 -6 -14 -14 -14h-97c-53 -13 -82 -54 -82 -88c0 -27 18 -49 57 -49c8 0 16 1 26 3c12 2 19 -3 19 -14v-19c0 -6 -4 -11 -10 -13c-17 -5 -34 -8 -48 -8c-62 0 -97 43 -97 91c0 35 19 72 57 97h-225c-8 0 -14 6 -14 14v672c0 8 6 14 14 14h400
c8 0 14 -6 14 -14v-38c0 -8 -6 -14 -14 -14h-340v-251h295c8 0 14 -6 14 -14v-38c0 -8 -6 -14 -14 -14h-295v-251h340c8 0 14 -6 14 -14v-38z" />
    <glyph glyph-name="Eth" unicode="&#xd0;" horiz-adv-x="698" 
d="M14 320c-8 0 -14 6 -14 14v32c0 8 6 14 14 14h76v306c0 8 6 14 14 14h197c193 0 350 -148 350 -350s-157 -350 -350 -350h-197c-8 0 -14 6 -14 14v306h-76zM389 320h-225v-254h137c152 0 276 120 276 284s-124 284 -276 284h-137v-254h225c8 0 14 -6 14 -14v-32
c0 -8 -6 -14 -14 -14z" />
    <glyph glyph-name="Euro" unicode="&#x20ac;" horiz-adv-x="627" 
d="M433 279c-2 -6 -7 -10 -13 -10h-242c15 -102 61 -209 183 -215c58 0 107 23 143 65c6 7 14 8 20 3l27 -21c6 -5 7 -12 2 -19c-47 -59 -113 -89 -192 -89c-164 4 -234 133 -254 276h-69c-11 0 -17 7 -13 18l8 26c2 6 7 10 13 10h56c-1 9 -1 18 -1 28c0 9 0 19 1 29h-64
c-11 0 -17 7 -13 18l8 26c2 6 7 10 13 10h61c20 142 90 271 254 275c79 0 145 -29 192 -89c5 -6 4 -14 -3 -19l-28 -20c-6 -5 -14 -3 -20 3c-34 40 -85 64 -141 64c-121 -7 -168 -112 -183 -214h284c11 0 17 -7 13 -18l-8 -26c-2 -6 -7 -10 -13 -10h-281v-29v-28h255
c11 0 17 -7 13 -18z" />
    <glyph glyph-name="F" unicode="F" horiz-adv-x="540" 
d="M158 317v-303c0 -8 -6 -14 -14 -14h-46c-8 0 -14 6 -14 14v672c0 8 6 14 14 14h400c8 0 14 -6 14 -14v-38c0 -8 -6 -14 -14 -14h-340v-251h295c8 0 14 -6 14 -14v-38c0 -8 -6 -14 -14 -14h-295z" />
    <glyph glyph-name="G" unicode="G" horiz-adv-x="812" 
d="M406 647c-158 0 -285 -127 -285 -297c0 -173 127 -297 285 -297c150 0 272 114 284 272h-231c-8 0 -14 6 -14 14v35c0 8 6 14 14 14h299c4 0 7 -3 7 -7v-7c0 -231 -161 -383 -359 -383s-359 158 -359 359s161 359 359 359c101 0 193 -41 259 -108c5 -6 5 -14 -1 -19
l-26 -27c-7 -6 -15 -5 -21 1c-54 57 -128 91 -211 91z" />
    <glyph glyph-name="Gbreve" unicode="&#x11e;" horiz-adv-x="812" 
d="M291 858c-1 8 5 14 13 14h30c8 0 14 -6 15 -14c5 -23 21 -45 57 -45c24 0 51 17 58 45c1 8 7 14 15 14h29c8 0 14 -6 13 -14c-7 -58 -57 -98 -115 -98s-108 40 -115 98zM406 647c-158 0 -285 -127 -285 -297c0 -173 127 -297 285 -297c150 0 272 114 284 272h-231
c-8 0 -14 6 -14 14v35c0 8 6 14 14 14h299c4 0 7 -3 7 -7v-7c0 -231 -161 -383 -359 -383s-359 158 -359 359s161 359 359 359c101 0 193 -41 259 -108c5 -6 5 -14 -1 -19l-26 -27c-7 -6 -15 -5 -21 1c-54 57 -128 91 -211 91z" />
    <glyph glyph-name="Gcircumflex" unicode="&#x11c;" horiz-adv-x="812" 
d="M346 775c-2 -3 -7 -5 -10 -5h-28c-15 0 -20 9 -11 22l71 106c2 4 7 6 11 6h47c4 0 9 -2 11 -6l72 -106c9 -13 4 -22 -11 -22h-28c-3 0 -8 2 -10 5l-57 67zM406 647c-158 0 -285 -127 -285 -297c0 -173 127 -297 285 -297c150 0 272 114 284 272h-231c-8 0 -14 6 -14 14
v35c0 8 6 14 14 14h299c4 0 7 -3 7 -7v-7c0 -231 -161 -383 -359 -383s-359 158 -359 359s161 359 359 359c101 0 193 -41 259 -108c5 -6 5 -14 -1 -19l-26 -27c-7 -6 -15 -5 -21 1c-54 57 -128 91 -211 91z" />
    <glyph glyph-name="Gcommaaccent" unicode="&#x122;" horiz-adv-x="812" 
d="M425 -60c13 0 18 -8 12 -20l-54 -112c-2 -5 -8 -8 -13 -8h-23c-12 0 -17 7 -13 19l39 112c2 5 7 9 13 9h39zM406 647c-158 0 -285 -127 -285 -297c0 -173 127 -297 285 -297c150 0 272 114 284 272h-231c-8 0 -14 6 -14 14v35c0 8 6 14 14 14h299c4 0 7 -3 7 -7v-7
c0 -231 -161 -383 -359 -383s-359 158 -359 359s161 359 359 359c101 0 193 -41 259 -108c5 -6 5 -14 -1 -19l-26 -27c-7 -6 -15 -5 -21 1c-54 57 -128 91 -211 91z" />
    <glyph glyph-name="Gdotaccent" unicode="&#x120;" horiz-adv-x="812" 
d="M404 759c-26 0 -47 21 -47 47c0 27 21 48 47 48c27 0 48 -21 48 -48c0 -26 -21 -47 -48 -47zM406 647c-158 0 -285 -127 -285 -297c0 -173 127 -297 285 -297c150 0 272 114 284 272h-231c-8 0 -14 6 -14 14v35c0 8 6 14 14 14h299c4 0 7 -3 7 -7v-7
c0 -231 -161 -383 -359 -383s-359 158 -359 359s161 359 359 359c101 0 193 -41 259 -108c5 -6 5 -14 -1 -19l-26 -27c-7 -6 -15 -5 -21 1c-54 57 -128 91 -211 91z" />
    <glyph glyph-name="H" unicode="H" horiz-adv-x="724" 
d="M626 700c8 0 14 -6 14 -14v-672c0 -8 -6 -14 -14 -14h-46c-8 0 -14 6 -14 14v311h-408v-311c0 -8 -6 -14 -14 -14h-46c-8 0 -14 6 -14 14v672c0 8 6 14 14 14h46c8 0 14 -6 14 -14v-295h408v295c0 8 6 14 14 14h46z" />
    <glyph glyph-name="Hbar" unicode="&#x126;" horiz-adv-x="734" 
d="M40 515c-8 0 -14 6 -14 14v27c0 8 6 14 14 14h49v116c0 8 6 14 14 14h46c8 0 14 -6 14 -14v-116h408v116c0 8 6 14 14 14h46c8 0 14 -6 14 -14v-116h49c8 0 14 -6 14 -14v-27c0 -8 -6 -14 -14 -14h-49v-501c0 -8 -6 -14 -14 -14h-46c-8 0 -14 6 -14 14v311h-408v-311
c0 -8 -6 -14 -14 -14h-46c-8 0 -14 6 -14 14v501h-49zM163 391h408v124h-408v-124z" />
    <glyph glyph-name="Hcircumflex" unicode="&#x124;" horiz-adv-x="724" 
d="M626 700c8 0 14 -6 14 -14v-672c0 -8 -6 -14 -14 -14h-46c-8 0 -14 6 -14 14v311h-408v-311c0 -8 -6 -14 -14 -14h-46c-8 0 -14 6 -14 14v672c0 8 6 14 14 14h46c8 0 14 -6 14 -14v-295h408v295c0 8 6 14 14 14h46zM305 775c-2 -3 -7 -5 -10 -5h-28c-15 0 -20 9 -11 22
l71 106c2 4 7 6 11 6h47c4 0 9 -2 11 -6l72 -106c9 -13 4 -22 -11 -22h-28c-3 0 -8 2 -10 5l-57 67z" />
    <glyph glyph-name="I" unicode="I" horiz-adv-x="242" 
d="M144 700c8 0 14 -6 14 -14v-672c0 -8 -6 -14 -14 -14h-46c-8 0 -14 6 -14 14v672c0 8 6 14 14 14h46z" />
    <glyph glyph-name="IJ" unicode="&#x132;" horiz-adv-x="731" 
d="M144 700c8 0 14 -6 14 -14v-672c0 -8 -6 -14 -14 -14h-46c-8 0 -14 6 -14 14v672c0 8 6 14 14 14h46zM252 142c-2 7 2 14 9 16l38 13c10 3 17 -2 19 -11c18 -65 72 -101 133 -101c73 0 131 48 131 139v488c0 8 6 14 14 14h46c8 0 14 -6 14 -14v-487
c0 -122 -92 -208 -206 -208c-96 0 -175 59 -198 151z" />
    <glyph glyph-name="Iacute" unicode="&#xcd;" horiz-adv-x="247" 
d="M144 700c8 0 14 -6 14 -14v-672c0 -8 -6 -14 -14 -14h-46c-8 0 -14 6 -14 14v672c0 8 6 14 14 14h46zM199 898c14 0 19 -8 12 -21l-62 -110c-2 -4 -7 -7 -12 -7h-31c-13 0 -18 8 -13 19l44 110c3 6 8 9 13 9h49z" />
    <glyph glyph-name="Ibreve" unicode="&#x12c;" horiz-adv-x="254" 
d="M150 700c8 0 14 -6 14 -14v-672c0 -8 -6 -14 -14 -14h-46c-8 0 -14 6 -14 14v672c0 8 6 14 14 14h46zM12 858c-1 8 5 14 13 14h30c8 0 14 -6 15 -14c5 -23 21 -45 57 -45c24 0 51 17 58 45c1 8 7 14 15 14h29c8 0 14 -6 13 -14c-7 -58 -57 -98 -115 -98s-108 40 -115 98z
" />
    <glyph glyph-name="Icircumflex" unicode="&#xce;" horiz-adv-x="254" 
d="M150 700c8 0 14 -6 14 -14v-672c0 -8 -6 -14 -14 -14h-46c-8 0 -14 6 -14 14v672c0 8 6 14 14 14h46zM70 775c-2 -3 -7 -5 -10 -5h-28c-15 0 -20 9 -11 22l71 106c2 4 7 6 11 6h47c4 0 9 -2 11 -6l72 -106c9 -13 4 -22 -11 -22h-28c-3 0 -8 2 -10 5l-57 67z" />
    <glyph glyph-name="Idieresis" unicode="&#xcf;" horiz-adv-x="254" 
d="M150 700c8 0 14 -6 14 -14v-672c0 -8 -6 -14 -14 -14h-46c-8 0 -14 6 -14 14v672c0 8 6 14 14 14h46zM45 760c-26 0 -47 21 -47 47c0 27 21 48 47 48c27 0 48 -21 48 -48c0 -26 -21 -47 -48 -47zM208 760c-26 0 -47 21 -47 47c0 27 21 48 47 48c27 0 48 -21 48 -48
c0 -26 -21 -47 -48 -47z" />
    <glyph glyph-name="Idotaccent" unicode="&#x130;" horiz-adv-x="244" 
d="M145 700c8 0 14 -6 14 -14v-672c0 -8 -6 -14 -14 -14h-46c-8 0 -14 6 -14 14v672c0 8 6 14 14 14h46zM121 760c-26 0 -47 21 -47 47c0 27 21 48 47 48c27 0 48 -21 48 -48c0 -26 -21 -47 -48 -47z" />
    <glyph glyph-name="Igrave" unicode="&#xcc;" horiz-adv-x="246" 
d="M148 700c8 0 14 -6 14 -14v-672c0 -8 -6 -14 -14 -14h-46c-8 0 -14 6 -14 14v672c0 8 6 14 14 14h46zM114 760c-5 0 -10 3 -12 7l-62 110c-7 13 -2 21 12 21h49c5 0 10 -3 13 -9l44 -110c5 -11 0 -19 -13 -19h-31z" />
    <glyph glyph-name="Imacron" unicode="&#x12a;" horiz-adv-x="252" 
d="M149 700c8 0 14 -6 14 -14v-672c0 -8 -6 -14 -14 -14h-46c-8 0 -14 6 -14 14v672c0 8 6 14 14 14h46zM36 770c-8 0 -14 6 -14 14v27c0 8 6 14 14 14h179c8 0 14 -6 14 -14v-27c0 -8 -6 -14 -14 -14h-179z" />
    <glyph glyph-name="Iogonek" unicode="&#x12e;" horiz-adv-x="248" 
d="M148 700c8 0 14 -6 14 -14v-676c0 -7 -4 -12 -10 -14c-45 -16 -69 -52 -69 -84c0 -27 18 -49 57 -49c8 0 16 1 26 3c12 2 19 -3 19 -14v-19c0 -6 -4 -11 -10 -13c-17 -5 -34 -8 -48 -8c-62 0 -97 43 -97 91c0 35 19 72 58 97v686c0 8 6 14 14 14h46z" />
    <glyph glyph-name="Itilde" unicode="&#x128;" horiz-adv-x="252" 
d="M149 700c8 0 14 -6 14 -14v-672c0 -8 -6 -14 -14 -14h-46c-8 0 -14 6 -14 14v672c0 8 6 14 14 14h46zM81 857c47 -3 62 -36 94 -39c23 -1 36 11 42 22c5 9 5 17 21 12l24 -8c7 -2 11 -9 9 -16c-8 -23 -32 -73 -100 -68c-42 5 -67 38 -92 41c-27 2 -40 -15 -45 -27
c-3 -7 -3 -12 -24 -6l-19 6c-7 2 -11 8 -9 15c8 23 32 70 99 68z" />
    <glyph glyph-name="J" unicode="J" horiz-adv-x="482" 
d="M3 142c-2 7 2 14 9 16l38 13c10 3 17 -2 19 -11c18 -65 72 -101 133 -101c73 0 131 48 131 139v488c0 8 6 14 14 14h46c8 0 14 -6 14 -14v-487c0 -122 -92 -208 -206 -208c-96 0 -175 59 -198 151z" />
    <glyph glyph-name="Jcircumflex" unicode="&#x134;" horiz-adv-x="489" 
d="M311 775c-2 -3 -7 -5 -10 -5h-28c-15 0 -20 9 -11 22l71 106c2 4 7 6 11 6h47c4 0 9 -2 11 -6l72 -106c9 -13 4 -22 -11 -22h-28c-3 0 -8 2 -10 5l-57 67zM2 151c-1 7 3 13 10 15l34 10c10 3 17 -1 19 -11c17 -70 76 -112 138 -112c73 0 132 54 132 145v488
c0 8 6 14 14 14h46c8 0 14 -6 14 -14v-487c0 -122 -92 -208 -206 -208c-99 0 -181 63 -201 160z" />
    <glyph glyph-name="K" unicode="K" horiz-adv-x="616" 
d="M544 700c20 0 24 -10 10 -24l-327 -326l327 -326c14 -14 10 -24 -10 -24h-57c-4 0 -8 2 -10 4l-319 325v-315c0 -8 -6 -14 -14 -14h-46c-8 0 -14 6 -14 14v672c0 8 6 14 14 14h46c8 0 14 -6 14 -14v-315l319 325c2 2 6 4 10 4h57z" />
    <glyph glyph-name="Kcommaaccent" unicode="&#x136;" horiz-adv-x="616" 
d="M544 700c20 0 24 -10 10 -24l-327 -326l327 -326c14 -14 10 -24 -10 -24h-57c-4 0 -8 2 -10 4l-319 325v-315c0 -8 -6 -14 -14 -14h-46c-8 0 -14 6 -14 14v672c0 8 6 14 14 14h46c8 0 14 -6 14 -14v-315l319 325c2 2 6 4 10 4h57zM318 -60c13 0 18 -8 12 -20l-54 -112
c-2 -5 -8 -8 -13 -8h-23c-12 0 -17 7 -13 19l39 112c2 5 7 9 13 9h39z" />
    <glyph glyph-name="L" unicode="L" horiz-adv-x="491" 
d="M158 66h300c8 0 14 -6 14 -14v-38c0 -8 -6 -14 -14 -14h-360c-8 0 -14 6 -14 14v672c0 8 6 14 14 14h46c8 0 14 -6 14 -14v-620z" />
    <glyph glyph-name="Lacute" unicode="&#x139;" horiz-adv-x="491" 
d="M205 898c14 0 19 -8 12 -21l-62 -110c-2 -4 -7 -7 -12 -7h-31c-13 0 -18 8 -13 19l44 110c3 6 8 9 13 9h49zM158 66h300c8 0 14 -6 14 -14v-38c0 -8 -6 -14 -14 -14h-360c-8 0 -14 6 -14 14v672c0 8 6 14 14 14h46c8 0 14 -6 14 -14v-620z" />
    <glyph glyph-name="Lcaron" unicode="&#x13d;" horiz-adv-x="491" 
d="M158 66h300c8 0 14 -6 14 -14v-38c0 -8 -6 -14 -14 -14h-360c-8 0 -14 6 -14 14v672c0 8 6 14 14 14h46c8 0 14 -6 14 -14v-620zM342 700c11 0 16 -7 13 -17l-48 -189c-2 -7 -7 -11 -14 -11h-28c-9 0 -15 6 -14 16l29 189c1 7 7 12 14 12h48z" />
    <glyph glyph-name="Lcommaaccent" unicode="&#x13b;" horiz-adv-x="491" 
d="M158 66h300c8 0 14 -6 14 -14v-38c0 -8 -6 -14 -14 -14h-360c-8 0 -14 6 -14 14v672c0 8 6 14 14 14h46c8 0 14 -6 14 -14v-620zM281 -60c13 0 18 -8 12 -20l-54 -112c-2 -5 -8 -8 -13 -8h-23c-12 0 -17 7 -13 19l39 112c2 5 7 9 13 9h39z" />
    <glyph glyph-name="Ldot" unicode="&#x13f;" horiz-adv-x="491" 
d="M158 66h300c8 0 14 -6 14 -14v-38c0 -8 -6 -14 -14 -14h-360c-8 0 -14 6 -14 14v672c0 8 6 14 14 14h46c8 0 14 -6 14 -14v-620zM353 307c-26 0 -47 21 -47 47c0 27 21 48 47 48c27 0 48 -21 48 -48c0 -26 -21 -47 -48 -47z" />
    <glyph glyph-name="Lslash" unicode="&#x141;" horiz-adv-x="496" 
d="M17 160c-8 -4 -15 -1 -19 7l-14 28c-4 8 -1 15 7 19l98 47v425c0 8 6 14 14 14h46c8 0 14 -6 14 -14v-391l222 105c8 4 15 1 19 -7l14 -28c4 -8 1 -15 -7 -19l-248 -117v-163h300c8 0 14 -6 14 -14v-38c0 -8 -6 -14 -14 -14h-360c-8 0 -14 6 -14 14v181z" />
    <glyph glyph-name="M" unicode="M" horiz-adv-x="834" 
d="M84 686c0 8 6 14 14 14h51c5 0 11 -3 13 -8l255 -537l255 537c2 5 8 8 13 8h51c8 0 14 -6 14 -14v-672c0 -8 -6 -14 -14 -14h-46c-8 0 -14 6 -14 14v527l-229 -476c-2 -5 -8 -8 -13 -8h-34c-5 0 -11 3 -13 8l-229 476v-527c0 -8 -6 -14 -14 -14h-46c-8 0 -14 6 -14 14
v672z" />
    <glyph glyph-name="N" unicode="N" horiz-adv-x="729" 
d="M98 0c-8 0 -14 6 -14 14v672c0 8 6 14 14 14h53c4 0 9 -2 11 -6l409 -576v568c0 8 6 14 14 14h46c8 0 14 -6 14 -14v-672c0 -8 -6 -14 -14 -14h-53c-4 0 -9 2 -11 6l-409 576v-568c0 -8 -6 -14 -14 -14h-46z" />
    <glyph glyph-name="Nacute" unicode="&#x143;" horiz-adv-x="729" 
d="M98 0c-8 0 -14 6 -14 14v672c0 8 6 14 14 14h53c4 0 9 -2 11 -6l409 -576v568c0 8 6 14 14 14h46c8 0 14 -6 14 -14v-672c0 -8 -6 -14 -14 -14h-53c-4 0 -9 2 -11 6l-409 576v-568c0 -8 -6 -14 -14 -14h-46zM449 898c14 0 19 -8 12 -21l-62 -110c-2 -4 -7 -7 -12 -7h-31
c-13 0 -18 8 -13 19l44 110c3 6 8 9 13 9h49z" />
    <glyph glyph-name="Ncaron" unicode="&#x147;" horiz-adv-x="729" 
d="M98 0c-8 0 -14 6 -14 14v672c0 8 6 14 14 14h53c4 0 9 -2 11 -6l409 -576v568c0 8 6 14 14 14h46c8 0 14 -6 14 -14v-672c0 -8 -6 -14 -14 -14h-53c-4 0 -9 2 -11 6l-409 576v-568c0 -8 -6 -14 -14 -14h-46zM262 872c-9 13 -4 22 11 22h28c3 0 8 -2 10 -5l57 -67l57 67
c2 3 7 5 10 5h28c15 0 20 -9 11 -22l-72 -106c-2 -4 -7 -6 -11 -6h-47c-4 0 -9 2 -11 6z" />
    <glyph glyph-name="Ncommaaccent" unicode="&#x145;" horiz-adv-x="729" 
d="M98 0c-8 0 -14 6 -14 14v672c0 8 6 14 14 14h53c4 0 9 -2 11 -6l409 -576v568c0 8 6 14 14 14h46c8 0 14 -6 14 -14v-672c0 -8 -6 -14 -14 -14h-53c-4 0 -9 2 -11 6l-409 576v-568c0 -8 -6 -14 -14 -14h-46zM367 -60c13 0 18 -8 12 -20l-54 -112c-2 -5 -8 -8 -13 -8h-23
c-12 0 -17 7 -13 19l39 112c2 5 7 9 13 9h39z" />
    <glyph glyph-name="Ntilde" unicode="&#xd1;" horiz-adv-x="729" 
d="M98 0c-8 0 -14 6 -14 14v672c0 8 6 14 14 14h53c4 0 9 -2 11 -6l409 -576v568c0 8 6 14 14 14h46c8 0 14 -6 14 -14v-672c0 -8 -6 -14 -14 -14h-53c-4 0 -9 2 -11 6l-409 576v-568c0 -8 -6 -14 -14 -14h-46zM319 857c47 -3 62 -36 94 -39c25 -1 37 12 43 24
c4 8 4 15 25 8l19 -6c7 -2 11 -9 9 -16c-8 -23 -32 -73 -100 -68c-42 5 -67 38 -92 41c-27 2 -40 -15 -45 -27c-3 -7 -3 -12 -19 -7l-24 7c-7 2 -11 8 -9 15c8 23 32 70 99 68z" />
    <glyph glyph-name="O" unicode="O" horiz-adv-x="812" 
d="M765 350c0 -201 -161 -359 -359 -359s-359 158 -359 359s161 359 359 359s359 -158 359 -359zM691 350c0 170 -127 297 -285 297s-285 -127 -285 -297c0 -173 127 -297 285 -297s285 127 285 297z" />
    <glyph glyph-name="OE" unicode="&#x152;" horiz-adv-x="1136" 
d="M681 573v113c0 8 6 14 14 14h380c8 0 14 -6 14 -14v-38c0 -8 -6 -14 -14 -14h-320v-251h275c8 0 14 -6 14 -14v-38c0 -8 -6 -14 -14 -14h-275v-251h320c8 0 14 -6 14 -14v-38c0 -8 -6 -14 -14 -14h-380c-8 0 -14 6 -14 14v113c-67 -89 -166 -136 -275 -136
c-198 0 -359 158 -359 359s161 359 359 359c109 0 208 -47 275 -136zM691 350c0 170 -127 297 -285 297s-285 -127 -285 -297c0 -173 127 -297 285 -297s285 127 285 297z" />
    <glyph glyph-name="Oacute" unicode="&#xd3;" horiz-adv-x="812" 
d="M765 350c0 -201 -161 -359 -359 -359s-359 158 -359 359s161 359 359 359s359 -158 359 -359zM486 887c14 0 19 -8 13 -20l-49 -99c-2 -5 -7 -8 -13 -8h-28c-13 0 -18 8 -13 19l40 99c3 6 8 9 13 9h37zM691 350c0 170 -127 297 -285 297s-285 -127 -285 -297
c0 -173 127 -297 285 -297s285 127 285 297z" />
    <glyph glyph-name="Obreve" unicode="&#x14e;" horiz-adv-x="812" 
d="M291 857c-1 8 5 14 13 14h30c8 0 14 -6 15 -14c5 -23 21 -45 57 -45c24 0 51 17 58 45c1 8 7 14 15 14h29c8 0 14 -6 13 -14c-7 -58 -57 -98 -115 -98s-108 40 -115 98zM765 350c0 -201 -161 -359 -359 -359s-359 158 -359 359s161 359 359 359s359 -158 359 -359z
M691 350c0 167 -127 293 -285 293s-285 -126 -285 -293c0 -170 127 -293 285 -293s285 126 285 293z" />
    <glyph glyph-name="Ocircumflex" unicode="&#xd4;" horiz-adv-x="812" 
d="M765 350c0 -201 -161 -359 -359 -359s-359 158 -359 359s161 359 359 359s359 -158 359 -359zM431 897c4 0 9 -2 11 -6l70 -99c9 -13 4 -22 -12 -22h-25c-3 0 -8 2 -10 5l-60 69l-59 -69c-2 -3 -7 -5 -10 -5h-25c-16 0 -21 9 -12 22l70 99c2 4 7 6 11 6h51zM691 350
c0 170 -127 297 -285 297s-285 -127 -285 -297c0 -173 127 -297 285 -297s285 127 285 297z" />
    <glyph glyph-name="Odieresis" unicode="&#xd6;" horiz-adv-x="812" 
d="M765 350c0 -201 -161 -359 -359 -359s-359 158 -359 359s161 359 359 359s359 -158 359 -359zM324 759c-26 0 -47 21 -47 47c0 27 21 48 47 48c27 0 48 -21 48 -48c0 -26 -21 -47 -48 -47zM487 759c-26 0 -47 21 -47 47c0 27 21 48 47 48c27 0 48 -21 48 -48
c0 -26 -21 -47 -48 -47zM691 350c0 170 -127 297 -285 297s-285 -127 -285 -297c0 -173 127 -297 285 -297s285 127 285 297z" />
    <glyph glyph-name="Ograve" unicode="&#xd2;" horiz-adv-x="812" 
d="M765 350c0 -201 -161 -359 -359 -359s-359 158 -359 359s161 359 359 359s359 -158 359 -359zM377 760c-6 0 -11 3 -13 8l-49 99c-6 12 -1 20 13 20h37c5 0 10 -3 13 -9l40 -99c5 -11 0 -19 -13 -19h-28zM691 350c0 170 -127 297 -285 297s-285 -127 -285 -297
c0 -173 127 -297 285 -297s285 127 285 297z" />
    <glyph glyph-name="Ohungarumlaut" unicode="&#x150;" horiz-adv-x="812" 
d="M765 350c0 -201 -161 -359 -359 -359s-359 158 -359 359s161 359 359 359s359 -158 359 -359zM691 350c0 167 -127 293 -285 293s-285 -126 -285 -293c0 -170 127 -293 285 -293s285 126 285 293zM427 898c14 0 19 -8 12 -21l-62 -110c-2 -4 -7 -7 -12 -7h-31
c-13 0 -18 8 -13 19l44 110c3 6 8 9 13 9h49zM564 898c14 0 19 -8 12 -21l-62 -110c-2 -4 -7 -7 -12 -7h-31c-13 0 -18 8 -13 19l44 110c3 6 8 9 13 9h49z" />
    <glyph glyph-name="Omacron" unicode="&#x14c;" horiz-adv-x="812" 
d="M316 770c-8 0 -14 6 -14 14v27c0 8 6 14 14 14h179c8 0 14 -6 14 -14v-27c0 -8 -6 -14 -14 -14h-179zM765 350c0 -201 -161 -359 -359 -359s-359 158 -359 359s161 359 359 359s359 -158 359 -359zM691 350c0 167 -127 293 -285 293s-285 -126 -285 -293
c0 -170 127 -293 285 -293s285 126 285 293z" />
    <glyph glyph-name="Omega" unicode="&#x2126;" horiz-adv-x="812" 
d="M121 350c0 -130 78 -244 187 -286c5 -2 9 -7 9 -13v-37c0 -8 -6 -14 -14 -14h-242c-8 0 -14 6 -14 14v38c0 8 6 14 14 14h137c-94 61 -151 165 -151 284c0 201 161 359 359 359s359 -158 359 -359c0 -119 -57 -223 -151 -284h137c8 0 14 -6 14 -14v-38
c0 -8 -6 -14 -14 -14h-242c-8 0 -14 6 -14 14v37c0 6 4 11 9 13c109 42 187 156 187 286c0 173 -127 298 -285 298s-285 -125 -285 -298z" />
    <glyph glyph-name="Oslash" unicode="&#xd8;" horiz-adv-x="813" 
d="M766 350c0 -201 -161 -359 -359 -359c-90 0 -172 32 -235 87l-84 -84c-6 -6 -14 -6 -20 0l-19 20c-6 6 -6 14 0 20l83 83c-53 63 -84 143 -84 233c0 201 161 359 359 359c88 0 170 -32 232 -85l81 81c6 6 14 6 20 0l20 -19c6 -6 6 -14 0 -20l-81 -81
c54 -63 87 -145 87 -235zM692 350c0 72 -23 136 -62 186l-412 -412c50 -45 116 -71 189 -71c158 0 285 127 285 297zM122 350c0 -72 22 -135 58 -185l412 412c-50 44 -114 70 -185 70c-158 0 -285 -127 -285 -297z" />
    <glyph glyph-name="Oslashacute" unicode="&#x1fe;" horiz-adv-x="813" 
d="M494 898c14 0 19 -8 12 -21l-62 -110c-2 -4 -7 -7 -12 -7h-31c-13 0 -18 8 -13 19l44 110c3 6 8 9 13 9h49zM766 350c0 -201 -161 -359 -359 -359c-90 0 -172 32 -235 87l-84 -84c-6 -6 -14 -6 -20 0l-19 20c-6 6 -6 14 0 20l83 83c-53 63 -84 143 -84 233
c0 201 161 359 359 359c88 0 170 -32 232 -85l81 81c6 6 14 6 20 0l20 -19c6 -6 6 -14 0 -20l-81 -81c54 -63 87 -145 87 -235zM692 350c0 72 -23 136 -62 186l-412 -412c50 -45 116 -71 189 -71c158 0 285 127 285 297zM122 350c0 -72 22 -135 58 -185l412 412
c-50 44 -114 70 -185 70c-158 0 -285 -127 -285 -297z" />
    <glyph glyph-name="Otilde" unicode="&#xd5;" horiz-adv-x="812" 
d="M765 350c0 -201 -161 -359 -359 -359s-359 158 -359 359s161 359 359 359s359 -158 359 -359zM360 857c47 -3 62 -36 94 -39c26 -1 39 14 44 26c3 7 3 13 22 7l21 -7c7 -2 11 -9 9 -16c-8 -23 -32 -73 -100 -68c-42 5 -67 38 -92 41c-28 2 -40 -16 -45 -28
c-3 -6 -3 -11 -18 -6l-25 7c-7 2 -11 8 -9 15c8 23 32 70 99 68zM691 350c0 170 -127 297 -285 297s-285 -127 -285 -297c0 -173 127 -297 285 -297s285 127 285 297z" />
    <glyph glyph-name="P" unicode="P" horiz-adv-x="562" 
d="M98 0c-8 0 -14 6 -14 14v672c0 8 6 14 14 14h217c118 0 214 -92 214 -213s-96 -214 -214 -214h-157v-259c0 -8 -6 -14 -14 -14h-46zM315 634h-157v-296h157c78 0 140 59 140 149s-62 147 -140 147z" />
    <glyph glyph-name="Q" unicode="Q" horiz-adv-x="812" 
d="M765 350c0 -154 -95 -282 -227 -334l127 -157c12 -14 7 -23 -10 -23h-53c-4 0 -9 2 -11 5l-124 155c-20 -3 -40 -5 -61 -5c-198 0 -359 158 -359 359s161 359 359 359s359 -158 359 -359zM691 350c0 170 -127 297 -285 297s-285 -127 -285 -297c0 -173 127 -297 285 -297
s285 127 285 297z" />
    <glyph glyph-name="R" unicode="R" horiz-adv-x="595" 
d="M98 0c-8 0 -14 6 -14 14v672c0 8 6 14 14 14h227c118 0 214 -92 214 -213c0 -118 -91 -209 -204 -214l203 -250c12 -14 7 -23 -10 -23h-53c-4 0 -9 2 -11 5l-214 268h-92v-259c0 -8 -6 -14 -14 -14h-46zM325 634h-167v-296h167c78 0 140 59 140 149s-62 147 -140 147z
" />
    <glyph glyph-name="Racute" unicode="&#x154;" horiz-adv-x="595" 
d="M98 0c-8 0 -14 6 -14 14v672c0 8 6 14 14 14h227c118 0 214 -92 214 -213c0 -118 -91 -209 -204 -214l203 -250c12 -14 7 -23 -10 -23h-53c-4 0 -9 2 -11 5l-214 268h-92v-259c0 -8 -6 -14 -14 -14h-46zM325 634h-167v-296h167c78 0 140 59 140 149s-62 147 -140 147z
M313 898c14 0 19 -8 12 -21l-62 -110c-2 -4 -7 -7 -12 -7h-31c-13 0 -18 8 -13 19l44 110c3 6 8 9 13 9h49z" />
    <glyph glyph-name="Rcaron" unicode="&#x158;" horiz-adv-x="595" 
d="M150 872c-9 13 -4 22 11 22h28c3 0 8 -2 10 -5l57 -67l57 67c2 3 7 5 10 5h28c15 0 20 -9 11 -22l-72 -106c-2 -4 -7 -6 -11 -6h-47c-4 0 -9 2 -11 6zM98 0c-8 0 -14 6 -14 14v672c0 8 6 14 14 14h227c118 0 214 -92 214 -213c0 -118 -91 -209 -204 -214l203 -250
c12 -14 7 -23 -10 -23h-53c-4 0 -9 2 -11 5l-214 268h-92v-259c0 -8 -6 -14 -14 -14h-46zM325 634h-167v-296h167c78 0 140 59 140 149s-62 147 -140 147z" />
    <glyph glyph-name="Rcommaaccent" unicode="&#x156;" horiz-adv-x="595" 
d="M98 0c-8 0 -14 6 -14 14v672c0 8 6 14 14 14h227c118 0 214 -92 214 -213c0 -118 -91 -209 -204 -214l203 -250c12 -14 7 -23 -10 -23h-53c-4 0 -9 2 -11 5l-214 268h-92v-259c0 -8 -6 -14 -14 -14h-46zM325 634h-167v-296h167c78 0 140 59 140 149s-62 147 -140 147z
M312 -60c13 0 18 -8 12 -20l-54 -112c-2 -5 -8 -8 -13 -8h-23c-12 0 -17 7 -13 19l39 112c2 5 7 9 13 9h39z" />
    <glyph glyph-name="S" unicode="S" horiz-adv-x="553" 
d="M267 -9c-79 0 -145 28 -214 77c-7 5 -8 12 -3 19l23 32c5 7 13 8 20 3c54 -39 112 -66 175 -66c86 -1 164 48 164 128c0 81 -89 117 -178 151c-92 35 -184 81 -184 191s85 183 199 183c81 0 140 -20 202 -64c7 -5 8 -12 3 -19l-22 -31c-5 -7 -13 -9 -20 -4
c-49 34 -98 54 -163 54c-47 0 -124 -21 -124 -117c0 -62 54 -96 119 -121c50 -19 104 -43 142 -64c57 -32 100 -85 100 -157c0 -126 -112 -195 -239 -195z" />
    <glyph glyph-name="Sacute" unicode="&#x15a;" horiz-adv-x="553" 
d="M267 -9c127 0 239 69 239 195c0 72 -43 125 -100 157c-38 21 -92 45 -142 64c-65 25 -119 59 -119 121c0 96 77 117 124 117c65 0 114 -20 163 -54c7 -5 15 -3 20 4l22 31c5 7 4 14 -3 19c-62 44 -121 64 -202 64c-114 0 -199 -73 -199 -183s92 -156 184 -191
c89 -34 178 -70 178 -151c0 -80 -78 -129 -164 -128c-63 0 -121 27 -175 66c-7 5 -15 4 -20 -3l-23 -32c-5 -7 -4 -14 3 -19c69 -49 135 -77 214 -77zM353 898c14 0 19 -8 12 -21l-62 -110c-2 -4 -7 -7 -12 -7h-31c-13 0 -18 8 -13 19l44 110c3 5 8 9 13 9h49z" />
    <glyph glyph-name="Scaron" unicode="&#x160;" horiz-adv-x="553" 
d="M267 -9c127 0 239 69 239 195c0 72 -43 125 -100 157c-38 21 -92 45 -142 64c-65 25 -119 59 -119 121c0 96 77 117 124 117c65 0 114 -20 163 -54c7 -5 15 -3 20 4l22 31c5 7 4 14 -3 19c-62 44 -121 64 -202 64c-114 0 -199 -73 -199 -183s92 -156 184 -191
c89 -34 178 -70 178 -151c0 -80 -78 -129 -164 -128c-63 0 -121 27 -175 66c-7 5 -15 4 -20 -3l-23 -32c-5 -7 -4 -14 3 -19c69 -49 135 -77 214 -77zM173 872c-9 13 -5 22 11 22h27c4 0 9 -2 11 -5l57 -67l57 67c2 3 7 5 10 5h28c15 0 20 -9 11 -22l-72 -106
c-2 -4 -7 -6 -11 -6h-47c-4 0 -9 2 -11 6z" />
    <glyph glyph-name="Scedilla" unicode="&#x15e;" horiz-adv-x="553" 
d="M271 -73h-11c-7 0 -12 5 -12 11v54c-71 4 -132 31 -195 76c-7 5 -8 12 -3 19l23 32c5 7 13 8 20 3c54 -39 112 -66 175 -66c86 -1 164 48 164 128c0 81 -89 117 -178 151c-92 35 -184 81 -184 191s85 183 199 183c81 0 140 -20 202 -64c7 -5 8 -12 3 -19l-22 -31
c-5 -7 -13 -9 -20 -4c-49 34 -98 54 -163 54c-47 0 -124 -21 -124 -117c0 -62 54 -96 119 -121c50 -19 104 -43 142 -64c57 -32 100 -85 100 -157c0 -121 -102 -188 -222 -194v-29c55 -1 82 -38 82 -76c0 -56 -50 -81 -92 -81c-23 0 -46 6 -65 17c-6 4 -7 11 -4 18l7 11
c5 8 13 9 21 6c14 -7 28 -9 39 -9c23 0 46 13 46 38c0 24 -17 40 -47 40z" />
    <glyph glyph-name="Scircumflex" unicode="&#x15c;" horiz-adv-x="553" 
d="M267 -9c127 0 239 69 239 195c0 72 -43 125 -100 157c-38 21 -92 45 -142 64c-65 25 -119 59 -119 121c0 96 77 117 124 117c65 0 114 -20 163 -54c7 -5 15 -3 20 4l22 31c5 7 4 14 -3 19c-62 44 -121 64 -202 64c-114 0 -199 -73 -199 -183s92 -156 184 -191
c89 -34 178 -70 178 -151c0 -80 -78 -129 -164 -128c-63 0 -121 27 -175 66c-7 5 -15 4 -20 -3l-23 -32c-5 -7 -4 -14 3 -19c69 -49 135 -77 214 -77zM215 775c-2 -3 -7 -5 -11 -5h-27c-16 0 -20 9 -11 22l71 106c2 3 7 6 11 6h47c4 0 9 -3 11 -6l72 -106
c9 -13 4 -22 -11 -22h-28c-3 0 -8 2 -10 5l-57 67z" />
    <glyph glyph-name="Scommaaccent" unicode="&#x218;" horiz-adv-x="553" 
d="M286 -60c13 0 18 -8 12 -20l-54 -112c-2 -5 -8 -8 -13 -8h-23c-12 0 -17 7 -13 19l39 112c2 5 7 9 13 9h39zM267 -9c-79 0 -145 28 -214 77c-7 5 -8 12 -3 19l23 32c5 7 13 8 20 3c54 -39 112 -66 175 -66c86 -1 164 48 164 128c0 81 -89 117 -178 151
c-92 35 -184 81 -184 191s85 183 199 183c81 0 140 -20 202 -64c7 -5 8 -12 3 -19l-22 -31c-5 -7 -13 -9 -20 -4c-49 34 -98 54 -163 54c-47 0 -124 -21 -124 -117c0 -62 54 -96 119 -121c50 -19 104 -43 142 -64c57 -32 100 -85 100 -157c0 -126 -112 -195 -239 -195z" />
    <glyph glyph-name="T" unicode="T" horiz-adv-x="496" 
d="M225 0c-8 0 -14 6 -14 14v620h-178c-8 0 -14 6 -14 14v38c0 8 6 14 14 14h430c8 0 14 -6 14 -14v-38c0 -8 -6 -14 -14 -14h-178v-620c0 -8 -6 -14 -14 -14h-46z" />
    <glyph glyph-name="Tbar" unicode="&#x166;" horiz-adv-x="496" 
d="M128 344c-8 0 -14 6 -14 14v27c0 8 6 14 14 14h83v235h-178c-8 0 -14 6 -14 14v38c0 8 6 14 14 14h430c8 0 14 -6 14 -14v-38c0 -8 -6 -14 -14 -14h-178v-235h82c8 0 14 -6 14 -14v-27c0 -8 -6 -14 -14 -14h-82v-330c0 -8 -6 -14 -14 -14h-46c-8 0 -14 6 -14 14v330h-83z
" />
    <glyph glyph-name="Tcaron" unicode="&#x164;" horiz-adv-x="496" 
d="M211 634v-620c0 -8 6 -14 14 -14h46c8 0 14 6 14 14v620h178c8 0 14 6 14 14v38c0 8 -6 14 -14 14h-430c-8 0 -14 -6 -14 -14v-38c0 -8 6 -14 14 -14h178zM142 872c-9 13 -5 22 11 22h27c4 0 9 -2 11 -5l57 -67l57 67c2 3 7 5 10 5h28c15 0 20 -9 11 -22l-72 -106
c-2 -4 -7 -6 -11 -6h-47c-4 0 -9 2 -11 6z" />
    <glyph glyph-name="Tcommaaccent" unicode="&#x162;" horiz-adv-x="496" 
d="M225 0c-8 0 -14 6 -14 14v620h-178c-8 0 -14 6 -14 14v38c0 8 6 14 14 14h430c8 0 14 -6 14 -14v-38c0 -8 -6 -14 -14 -14h-178v-620c0 -8 -6 -14 -14 -14h-46zM259 -60c13 0 18 -8 12 -20l-54 -112c-2 -5 -8 -8 -13 -8h-23c-12 0 -17 7 -13 19l39 112c2 5 7 9 13 9h39z
" />
    <glyph glyph-name="Thorn" unicode="&#xde;" horiz-adv-x="556" 
d="M158 563h137c118 0 214 -90 214 -214c0 -121 -96 -212 -214 -212h-137v-123c0 -8 -6 -14 -14 -14h-46c-8 0 -14 6 -14 14v672c0 8 6 14 14 14h46c8 0 14 -6 14 -14v-123zM158 203h137c78 0 140 56 140 146c0 93 -62 148 -140 148h-137v-294z" />
    <glyph glyph-name="U" unicode="U" horiz-adv-x="646" 
d="M126 700c8 0 14 -6 14 -14v-445c0 -113 79 -188 183 -188s183 75 183 188v445c0 8 6 14 14 14h46c8 0 14 -6 14 -14v-438c0 -151 -112 -257 -257 -257s-257 106 -257 257v438c0 8 6 14 14 14h46z" />
    <glyph glyph-name="Uacute" unicode="&#xda;" horiz-adv-x="646" 
d="M376 887c14 0 19 -8 13 -20l-49 -99c-2 -5 -7 -8 -13 -8h-28c-13 0 -18 8 -13 19l40 99c3 6 8 9 13 9h37zM126 700c8 0 14 -6 14 -14v-445c0 -113 79 -187 183 -187s183 74 183 187v445c0 8 6 14 14 14h46c8 0 14 -6 14 -14v-438c0 -151 -112 -257 -257 -257
s-257 106 -257 257v438c0 8 6 14 14 14h46z" />
    <glyph glyph-name="Ubreve" unicode="&#x16c;" horiz-adv-x="646" 
d="M208 858c-1 8 5 14 13 14h30c8 0 14 -6 15 -14c5 -23 21 -45 57 -45c24 0 51 17 58 45c1 8 7 14 15 14h29c8 0 14 -6 13 -14c-7 -58 -57 -98 -115 -98s-108 40 -115 98zM126 700c8 0 14 -6 14 -14v-445c0 -113 79 -188 183 -188s183 75 183 188v445c0 8 6 14 14 14h46
c8 0 14 -6 14 -14v-438c0 -151 -112 -257 -257 -257s-257 106 -257 257v438c0 8 6 14 14 14h46z" />
    <glyph glyph-name="Ucircumflex" unicode="&#xdb;" horiz-adv-x="646" 
d="M348 897c4 0 9 -2 11 -6l70 -99c9 -13 4 -22 -12 -22h-25c-3 0 -8 2 -10 5l-60 69l-59 -69c-2 -3 -7 -5 -10 -5h-25c-16 0 -21 9 -12 22l70 99c2 4 7 6 11 6h51zM126 700c8 0 14 -6 14 -14v-445c0 -113 79 -187 183 -187s183 74 183 187v445c0 8 6 14 14 14h46
c8 0 14 -6 14 -14v-438c0 -151 -112 -257 -257 -257s-257 106 -257 257v438c0 8 6 14 14 14h46z" />
    <glyph glyph-name="Udieresis" unicode="&#xdc;" horiz-adv-x="646" 
d="M241 759c-26 0 -47 21 -47 47c0 27 21 48 47 48c27 0 48 -21 48 -48c0 -26 -21 -47 -48 -47zM404 759c-26 0 -47 21 -47 47c0 27 21 48 47 48c27 0 48 -21 48 -48c0 -26 -21 -47 -48 -47zM126 700c8 0 14 -6 14 -14v-445c0 -113 79 -187 183 -187s183 74 183 187v445
c0 8 6 14 14 14h46c8 0 14 -6 14 -14v-438c0 -151 -112 -257 -257 -257s-257 106 -257 257v438c0 8 6 14 14 14h46z" />
    <glyph glyph-name="Ugrave" unicode="&#xd9;" horiz-adv-x="646" 
d="M303 760c-6 0 -11 3 -13 8l-49 99c-6 12 -1 20 13 20h37c5 0 10 -3 13 -9l40 -99c5 -11 0 -19 -13 -19h-28zM126 700c8 0 14 -6 14 -14v-445c0 -113 79 -187 183 -187s183 74 183 187v445c0 8 6 14 14 14h46c8 0 14 -6 14 -14v-438c0 -151 -112 -257 -257 -257
s-257 106 -257 257v438c0 8 6 14 14 14h46z" />
    <glyph glyph-name="Uhungarumlaut" unicode="&#x170;" horiz-adv-x="646" 
d="M329 898c14 0 19 -8 12 -21l-62 -110c-2 -4 -7 -7 -12 -7h-31c-13 0 -18 8 -13 19l44 110c3 6 8 9 13 9h49zM466 898c14 0 19 -8 12 -21l-62 -110c-2 -4 -7 -7 -12 -7h-31c-13 0 -18 8 -13 19l44 110c3 6 8 9 13 9h49zM126 700c8 0 14 -6 14 -14v-445
c0 -113 79 -188 183 -188s183 75 183 188v445c0 8 6 14 14 14h46c8 0 14 -6 14 -14v-438c0 -151 -112 -257 -257 -257s-257 106 -257 257v438c0 8 6 14 14 14h46z" />
    <glyph glyph-name="Umacron" unicode="&#x16a;" horiz-adv-x="646" 
d="M233 770c-8 0 -14 6 -14 14v27c0 8 6 14 14 14h179c8 0 14 -6 14 -14v-27c0 -8 -6 -14 -14 -14h-179zM126 700c8 0 14 -6 14 -14v-445c0 -113 79 -188 183 -188s183 75 183 188v445c0 8 6 14 14 14h46c8 0 14 -6 14 -14v-438c0 -151 -112 -257 -257 -257
s-257 106 -257 257v438c0 8 6 14 14 14h46z" />
    <glyph glyph-name="Uogonek" unicode="&#x172;" horiz-adv-x="646" 
d="M126 700c8 0 14 -6 14 -14v-445c0 -113 79 -188 183 -188s183 75 183 188v445c0 8 6 14 14 14h46c8 0 14 -6 14 -14v-438c0 -130 -83 -227 -199 -251c-46 -15 -71 -53 -71 -85c0 -27 18 -49 57 -49c8 0 16 1 26 3c12 2 19 -3 19 -14v-19c0 -6 -4 -11 -10 -13
c-17 -5 -34 -8 -48 -8c-62 0 -97 43 -97 91c0 31 15 64 46 89c-135 9 -237 112 -237 256v438c0 8 6 14 14 14h46z" />
    <glyph glyph-name="Uring" unicode="&#x16e;" horiz-adv-x="646" 
d="M231 852c0 51 41 92 92 92s92 -41 92 -92s-41 -92 -92 -92s-92 41 -92 92zM273 852c0 -27 23 -50 50 -50s50 23 50 50s-23 50 -50 50s-50 -23 -50 -50zM126 700c8 0 14 -6 14 -14v-445c0 -113 79 -188 183 -188s183 75 183 188v445c0 8 6 14 14 14h46c8 0 14 -6 14 -14
v-438c0 -151 -112 -257 -257 -257s-257 106 -257 257v438c0 8 6 14 14 14h46z" />
    <glyph glyph-name="Utilde" unicode="&#x168;" horiz-adv-x="646" 
d="M277 857c47 -3 62 -36 94 -39c24 -1 36 13 42 24c4 8 5 15 23 9l22 -7c7 -2 11 -9 9 -16c-8 -23 -32 -73 -100 -68c-42 5 -67 38 -92 41c-26 2 -39 -14 -44 -26c-3 -7 -4 -13 -22 -8l-22 7c-7 2 -11 8 -9 15c8 23 32 70 99 68zM126 700c8 0 14 -6 14 -14v-445
c0 -113 79 -188 183 -188s183 75 183 188v445c0 8 6 14 14 14h46c8 0 14 -6 14 -14v-438c0 -151 -112 -257 -257 -257s-257 106 -257 257v438c0 8 6 14 14 14h46z" />
    <glyph glyph-name="V" unicode="V" horiz-adv-x="678" 
d="M87 700c6 0 11 -4 13 -9l239 -609l239 609c2 5 7 9 13 9h47c13 0 18 -8 13 -19l-271 -672c-3 -5 -8 -9 -13 -9h-56c-5 0 -10 4 -13 9l-271 672c-5 11 0 19 13 19h47z" />
    <glyph glyph-name="W" unicode="W" horiz-adv-x="969" 
d="M511 700c6 0 11 -4 13 -10l173 -581l173 581c2 6 7 10 13 10h48c11 0 17 -7 13 -18l-206 -672c-2 -6 -7 -10 -13 -10h-56c-6 0 -11 4 -13 10l-172 575l-171 -575c-2 -6 -7 -10 -13 -10h-56c-6 0 -11 4 -13 10l-206 672c-4 11 2 18 13 18h48c6 0 11 -4 13 -10l173 -581
l173 581c2 6 7 10 13 10h53z" />
    <glyph glyph-name="Wacute" unicode="&#x1e82;" horiz-adv-x="969" 
d="M511 700c6 0 11 -4 13 -10l173 -581l173 581c2 6 7 10 13 10h48c11 0 17 -7 13 -18l-206 -672c-2 -6 -7 -10 -13 -10h-56c-6 0 -11 4 -13 10l-172 575l-171 -575c-2 -6 -7 -10 -13 -10h-56c-6 0 -11 4 -13 10l-206 672c-4 11 2 18 13 18h48c6 0 11 -4 13 -10l173 -581
l173 581c2 6 7 10 13 10h53zM572 898c14 0 19 -8 12 -21l-62 -110c-2 -4 -7 -7 -12 -7h-31c-13 0 -18 8 -13 19l44 110c3 6 8 9 13 9h49z" />
    <glyph glyph-name="Wcircumflex" unicode="&#x174;" horiz-adv-x="969" 
d="M511 700c6 0 11 -4 13 -10l173 -581l173 581c2 6 7 10 13 10h48c11 0 17 -7 13 -18l-206 -672c-2 -6 -7 -10 -13 -10h-56c-6 0 -11 4 -13 10l-172 575l-171 -575c-2 -6 -7 -10 -13 -10h-56c-6 0 -11 4 -13 10l-206 672c-4 11 2 18 13 18h48c6 0 11 -4 13 -10l173 -581
l173 581c2 6 7 10 13 10h53zM427 775c-2 -3 -7 -5 -10 -5h-28c-15 0 -20 9 -11 22l71 106c2 4 7 6 11 6h47c4 0 9 -2 11 -6l72 -106c9 -13 4 -22 -11 -22h-28c-3 0 -8 2 -10 5l-57 67z" />
    <glyph glyph-name="Wdieresis" unicode="&#x1e84;" horiz-adv-x="969" 
d="M511 700c6 0 11 -4 13 -10l173 -581l173 581c2 6 7 10 13 10h48c11 0 17 -7 13 -18l-206 -672c-2 -6 -7 -10 -13 -10h-56c-6 0 -11 4 -13 10l-172 575l-171 -575c-2 -6 -7 -10 -13 -10h-56c-6 0 -11 4 -13 10l-206 672c-4 11 2 18 13 18h48c6 0 11 -4 13 -10l173 -581
l173 581c2 6 7 10 13 10h53zM402 760c-26 0 -47 21 -47 47c0 27 21 48 47 48c27 0 48 -21 48 -48c0 -26 -21 -47 -48 -47zM565 760c-26 0 -47 21 -47 47c0 27 21 48 47 48c27 0 48 -21 48 -48c0 -26 -21 -47 -48 -47z" />
    <glyph glyph-name="Wgrave" unicode="&#x1e80;" horiz-adv-x="969" 
d="M511 700c6 0 11 -4 13 -10l173 -581l173 581c2 6 7 10 13 10h48c11 0 17 -7 13 -18l-206 -672c-2 -6 -7 -10 -13 -10h-56c-6 0 -11 4 -13 10l-172 575l-171 -575c-2 -6 -7 -10 -13 -10h-56c-6 0 -11 4 -13 10l-206 672c-4 11 2 18 13 18h48c6 0 11 -4 13 -10l173 -581
l173 581c2 6 7 10 13 10h53zM459 760c-5 0 -10 3 -12 7l-62 110c-7 13 -2 21 12 21h49c5 0 10 -3 13 -9l44 -110c5 -11 0 -19 -13 -19h-31z" />
    <glyph glyph-name="X" unicode="X" horiz-adv-x="580" 
d="M119 7c-2 -4 -7 -7 -12 -7h-54c-15 0 -20 9 -11 21l208 329l-208 329c-9 12 -4 21 11 21h54c5 0 10 -3 12 -7l171 -281l171 281c2 4 7 7 12 7h53c16 0 21 -9 12 -22l-209 -328l209 -328c9 -13 4 -22 -12 -22h-53c-5 0 -10 3 -12 7l-171 280z" />
    <glyph glyph-name="Y" unicode="Y" horiz-adv-x="620" 
d="M93 700c5 0 10 -3 12 -7l205 -340l205 340c2 4 7 7 12 7h54c15 0 20 -9 11 -21l-245 -390v-275c0 -8 -6 -14 -14 -14h-46c-8 0 -14 6 -14 14v275l-245 390c-9 12 -4 21 11 21h54z" />
    <glyph glyph-name="Yacute" unicode="&#xdd;" horiz-adv-x="620" 
d="M93 700c5 0 10 -3 12 -7l205 -340l205 340c2 4 7 7 12 7h54c15 0 20 -9 11 -21l-245 -390v-275c0 -8 -6 -14 -14 -14h-46c-8 0 -14 6 -14 14v275l-245 390c-9 12 -4 21 11 21h54zM370 887c14 0 19 -8 13 -20l-49 -99c-2 -5 -7 -8 -13 -8h-28c-13 0 -18 8 -13 19l40 99
c3 6 8 9 13 9h37z" />
    <glyph glyph-name="Ycircumflex" unicode="&#x176;" horiz-adv-x="620" 
d="M93 700c5 0 10 -3 12 -7l205 -340l205 340c2 4 7 7 12 7h54c15 0 20 -9 11 -21l-245 -390v-275c0 -8 -6 -14 -14 -14h-46c-8 0 -14 6 -14 14v275l-245 390c-9 12 -4 21 11 21h54zM253 775c-2 -3 -7 -5 -10 -5h-28c-15 0 -20 9 -11 22l71 106c2 4 7 6 11 6h47
c4 0 9 -2 11 -6l72 -106c9 -13 4 -22 -11 -22h-28c-3 0 -8 2 -10 5l-57 67z" />
    <glyph glyph-name="Ydieresis" unicode="&#x178;" horiz-adv-x="620" 
d="M93 700c5 0 10 -3 12 -7l205 -340l205 340c2 4 7 7 12 7h54c15 0 20 -9 11 -21l-245 -390v-275c0 -8 -6 -14 -14 -14h-46c-8 0 -14 6 -14 14v275l-245 390c-9 12 -4 21 11 21h54zM216 753c-26 0 -47 21 -47 47c0 27 21 48 47 48c27 0 48 -21 48 -48
c0 -26 -21 -47 -48 -47zM405 753c-26 0 -47 21 -47 47c0 27 21 48 47 48c27 0 48 -21 48 -48c0 -26 -21 -47 -48 -47z" />
    <glyph glyph-name="Ygrave" unicode="&#x1ef2;" horiz-adv-x="620" 
d="M93 700c5 0 10 -3 12 -7l205 -340l205 340c2 4 7 7 12 7h54c15 0 20 -9 11 -21l-245 -390v-275c0 -8 -6 -14 -14 -14h-46c-8 0 -14 6 -14 14v275l-245 390c-9 12 -4 21 11 21h54zM292 760c-5 0 -10 3 -12 7l-62 110c-7 13 -2 21 12 21h49c5 0 10 -3 13 -9l44 -110
c5 -11 0 -19 -13 -19h-31z" />
    <glyph glyph-name="Z" unicode="Z" horiz-adv-x="533" 
d="M494 638c0 -2 -1 -5 -2 -7l-369 -565h358c8 0 14 -6 14 -14v-38c0 -8 -6 -14 -14 -14h-429c-8 0 -14 6 -14 14v48c0 2 1 5 2 7l369 565h-342c-8 0 -14 6 -14 14v38c0 8 6 14 14 14h413c8 0 14 -6 14 -14v-48z" />
    <glyph glyph-name="Zacute" unicode="&#x179;" horiz-adv-x="533" 
d="M494 638c0 -2 -1 -5 -2 -7l-369 -565h358c8 0 14 -6 14 -14v-38c0 -8 -6 -14 -14 -14h-429c-8 0 -14 6 -14 14v48c0 2 1 5 2 7l369 565h-342c-8 0 -14 6 -14 14v38c0 8 6 14 14 14h413c8 0 14 -6 14 -14v-48zM347 898c14 0 19 -8 12 -21l-62 -110c-2 -4 -7 -7 -12 -7h-31
c-13 0 -18 8 -13 19l44 110c3 6 8 9 13 9h49z" />
    <glyph glyph-name="Zcaron" unicode="&#x17d;" horiz-adv-x="533" 
d="M173 872c-9 13 -4 22 11 22h28c3 0 8 -2 10 -5l57 -67l57 67c2 3 7 5 10 5h28c15 0 20 -9 11 -22l-72 -106c-2 -4 -7 -6 -11 -6h-47c-4 0 -9 2 -11 6zM494 638c0 -2 -1 -5 -2 -7l-369 -565h358c8 0 14 -6 14 -14v-38c0 -8 -6 -14 -14 -14h-429c-8 0 -14 6 -14 14v48
c0 2 1 5 2 7l369 565h-342c-8 0 -14 6 -14 14v38c0 8 6 14 14 14h413c8 0 14 -6 14 -14v-48z" />
    <glyph glyph-name="Zdotaccent" unicode="&#x17b;" horiz-adv-x="533" 
d="M266 760c-26 0 -47 21 -47 47c0 27 21 48 47 48c27 0 48 -21 48 -48c0 -26 -21 -47 -48 -47zM494 638c0 -2 -1 -5 -2 -7l-369 -565h358c8 0 14 -6 14 -14v-38c0 -8 -6 -14 -14 -14h-429c-8 0 -14 6 -14 14v48c0 2 1 5 2 7l369 565h-342c-8 0 -14 6 -14 14v38
c0 8 6 14 14 14h413c8 0 14 -6 14 -14v-48z" />
    <glyph glyph-name="a" unicode="a" 
d="M38 200c0 122 84 209 200 209c53 0 118 -28 150 -73v50c0 8 6 14 14 14h42c8 0 14 -6 14 -14v-372c0 -8 -6 -14 -14 -14h-42c-8 0 -14 6 -14 14v50c-32 -45 -97 -73 -150 -73c-116 0 -200 87 -200 209zM110 200c0 -88 61 -153 139 -153c84 0 145 65 145 153
s-61 153 -145 153c-78 0 -139 -65 -139 -153z" />
    <glyph glyph-name="a.alt1" horiz-adv-x="475" 
d="M228 409c102 0 181 -39 181 -151v-244c0 -8 -6 -14 -14 -14h-42c-8 0 -14 6 -14 14v50c-36 -41 -86 -73 -149 -73c-108 0 -148 67 -148 135s54 128 169 128c24 0 73 -5 128 -32v36c0 65 -42 94 -113 94c-38 0 -80 -17 -113 -36c-7 -5 -15 -3 -20 4l-15 24
c-4 7 -3 14 3 19c44 30 93 46 147 46zM113 125c0 -27 11 -78 85 -78c83 0 130 72 141 88v35c-20 12 -74 30 -125 30c-64 0 -101 -34 -101 -75z" />
    <glyph glyph-name="aacute" unicode="&#xe1;" 
d="M331 598c14 0 19 -8 12 -21l-62 -110c-2 -4 -7 -7 -12 -7h-31c-13 0 -18 8 -13 19l44 110c3 6 8 9 13 9h49zM38 200c0 122 84 209 200 209c53 0 118 -28 150 -73v50c0 8 6 14 14 14h42c8 0 14 -6 14 -14v-372c0 -8 -6 -14 -14 -14h-42c-8 0 -14 6 -14 14v50
c-32 -45 -97 -73 -150 -73c-116 0 -200 87 -200 209zM110 200c0 -88 61 -153 139 -153c84 0 145 65 145 153s-61 153 -145 153c-78 0 -139 -65 -139 -153z" />
    <glyph glyph-name="aacute.alt1" horiz-adv-x="475" 
d="M319 598c14 0 19 -8 12 -21l-62 -110c-2 -4 -7 -7 -12 -7h-31c-13 0 -18 8 -13 19l44 110c3 6 8 9 13 9h49zM228 409c102 0 181 -39 181 -151v-244c0 -8 -6 -14 -14 -14h-42c-8 0 -14 6 -14 14v50c-36 -41 -86 -73 -149 -73c-108 0 -148 67 -148 135s54 128 169 128
c24 0 73 -5 128 -32v36c0 65 -42 94 -113 94c-38 0 -80 -17 -113 -36c-7 -5 -15 -3 -20 4l-15 24c-4 7 -3 14 3 19c44 30 93 46 147 46zM113 125c0 -27 11 -78 85 -78c83 0 130 72 141 88v35c-20 12 -74 30 -125 30c-64 0 -101 -34 -101 -75z" />
    <glyph glyph-name="abreve" unicode="&#x103;" 
d="M131 557c-1 8 5 14 13 14h30c8 0 14 -6 15 -14c5 -23 21 -45 57 -45c24 0 51 17 58 45c1 8 7 14 15 14h29c8 0 14 -6 13 -14c-7 -58 -57 -98 -115 -98s-108 40 -115 98zM38 200c0 122 84 209 200 209c53 0 118 -28 150 -73v50c0 8 6 14 14 14h42c8 0 14 -6 14 -14v-372
c0 -8 -6 -14 -14 -14h-42c-8 0 -14 6 -14 14v50c-32 -45 -97 -73 -150 -73c-116 0 -200 87 -200 209zM110 200c0 -88 61 -153 139 -153c84 0 145 65 145 153s-61 153 -145 153c-78 0 -139 -65 -139 -153z" />
    <glyph glyph-name="abreve.alt1" horiz-adv-x="475" 
d="M117 558c-1 8 5 14 13 14h30c8 0 14 -6 15 -14c5 -23 21 -45 57 -45c24 0 51 17 58 45c1 8 7 14 15 14h29c8 0 14 -6 13 -14c-7 -58 -57 -98 -115 -98s-108 40 -115 98zM228 409c102 0 181 -39 181 -151v-244c0 -8 -6 -14 -14 -14h-42c-8 0 -14 6 -14 14v50
c-36 -41 -86 -73 -149 -73c-108 0 -148 67 -148 135s54 128 169 128c24 0 73 -5 128 -32v36c0 65 -42 94 -113 94c-38 0 -80 -17 -113 -36c-7 -5 -15 -3 -20 4l-15 24c-4 7 -3 14 3 19c44 30 93 46 147 46zM113 125c0 -27 11 -78 85 -78c83 0 130 72 141 88v35
c-20 12 -74 30 -125 30c-64 0 -101 -34 -101 -75z" />
    <glyph glyph-name="acircumflex" unicode="&#xe2;" 
d="M188 475c-2 -3 -7 -5 -10 -5h-28c-15 0 -20 9 -11 22l71 106c2 4 7 6 11 6h47c4 0 9 -2 11 -6l72 -106c9 -13 4 -22 -11 -22h-28c-3 0 -8 2 -10 5l-57 67zM38 200c0 122 84 209 200 209c53 0 118 -28 150 -73v50c0 8 6 14 14 14h42c8 0 14 -6 14 -14v-372
c0 -8 -6 -14 -14 -14h-42c-8 0 -14 6 -14 14v50c-32 -45 -97 -73 -150 -73c-116 0 -200 87 -200 209zM110 200c0 -88 61 -153 139 -153c84 0 145 65 145 153s-61 153 -145 153c-78 0 -139 -65 -139 -153z" />
    <glyph glyph-name="acircumflex.alt1" horiz-adv-x="475" 
d="M174 475c-2 -3 -7 -5 -10 -5h-28c-15 0 -20 9 -11 22l71 106c2 4 7 6 11 6h47c4 0 9 -2 11 -6l72 -106c9 -13 4 -22 -11 -22h-28c-3 0 -8 2 -10 5l-57 67zM228 409c102 0 181 -39 181 -151v-244c0 -8 -6 -14 -14 -14h-42c-8 0 -14 6 -14 14v50c-36 -41 -86 -73 -149 -73
c-108 0 -148 67 -148 135s54 128 169 128c24 0 73 -5 128 -32v36c0 65 -42 94 -113 94c-38 0 -80 -17 -113 -36c-7 -5 -15 -3 -20 4l-15 24c-4 7 -3 14 3 19c44 30 93 46 147 46zM113 125c0 -27 11 -78 85 -78c83 0 130 72 141 88v35c-20 12 -74 30 -125 30
c-64 0 -101 -34 -101 -75z" />
    <glyph glyph-name="acute" unicode="&#xb4;" horiz-adv-x="138" 
d="M114 598c14 0 19 -8 12 -21l-62 -110c-2 -4 -7 -7 -12 -7h-31c-13 0 -18 8 -13 19l44 110c3 6 8 9 13 9h49z" />
    <glyph glyph-name="adieresis" unicode="&#xe4;" 
d="M175 460c-26 0 -47 21 -47 47c0 27 21 48 47 48c27 0 48 -21 48 -48c0 -26 -21 -47 -48 -47zM338 460c-26 0 -47 21 -47 47c0 27 21 48 47 48c27 0 48 -21 48 -48c0 -26 -21 -47 -48 -47zM38 200c0 122 84 209 200 209c53 0 118 -28 150 -73v50c0 8 6 14 14 14h42
c8 0 14 -6 14 -14v-372c0 -8 -6 -14 -14 -14h-42c-8 0 -14 6 -14 14v50c-32 -45 -97 -73 -150 -73c-116 0 -200 87 -200 209zM110 200c0 -88 61 -153 139 -153c84 0 145 65 145 153s-61 153 -145 153c-78 0 -139 -65 -139 -153z" />
    <glyph glyph-name="adieresis.alt1" horiz-adv-x="475" 
d="M156 459c-26 0 -47 21 -47 47c0 27 21 48 47 48c27 0 48 -21 48 -48c0 -26 -21 -47 -48 -47zM319 459c-26 0 -47 21 -47 47c0 27 21 48 47 48c27 0 48 -21 48 -48c0 -26 -21 -47 -48 -47zM228 409c102 0 181 -39 181 -151v-244c0 -8 -6 -14 -14 -14h-42
c-8 0 -14 6 -14 14v50c-36 -41 -86 -73 -149 -73c-108 0 -148 67 -148 135s54 128 169 128c24 0 73 -5 128 -32v36c0 65 -42 94 -113 94c-38 0 -80 -17 -113 -36c-7 -5 -15 -3 -20 4l-15 24c-4 7 -3 14 3 19c44 30 93 46 147 46zM113 125c0 -27 11 -78 85 -78
c83 0 130 72 141 88v35c-20 12 -74 30 -125 30c-64 0 -101 -34 -101 -75z" />
    <glyph glyph-name="ae" unicode="&#xe6;" horiz-adv-x="818" 
d="M595 -9c-51 0 -102 19 -136 58v-35c0 -8 -6 -14 -14 -14h-43c-8 0 -14 6 -14 14v50c-32 -45 -97 -73 -150 -73c-116 0 -200 87 -200 209s84 209 200 209c53 0 118 -28 150 -73v50c0 8 6 14 14 14h43c8 0 14 -6 14 -14v-37c30 38 87 60 136 60c115 0 185 -79 185 -209
c0 -4 0 -8 -1 -11c0 -7 -5 -11 -12 -11h-313c5 -78 70 -129 141 -129c42 0 84 17 114 45c7 6 15 6 22 0l19 -21c5 -6 5 -14 0 -19c-44 -43 -94 -63 -155 -63zM455 231h257c-4 79 -51 121 -119 121c-69 0 -128 -49 -138 -121zM249 47c84 0 145 65 145 153s-61 153 -145 153
c-78 0 -139 -65 -139 -153s61 -153 139 -153z" />
    <glyph glyph-name="aeacute" unicode="&#x1fd;" horiz-adv-x="818" 
d="M595 -9c61 0 111 20 155 63c5 5 5 13 0 19l-19 21c-7 6 -15 6 -22 0c-30 -28 -72 -45 -114 -45c-71 0 -136 51 -141 129h313c7 0 12 4 12 11c1 3 1 7 1 11c0 130 -70 209 -185 209c-49 0 -106 -22 -136 -60v37c0 8 -6 14 -14 14h-43c-8 0 -14 -6 -14 -14v-50
c-32 45 -97 73 -150 73c-116 0 -200 -87 -200 -209s84 -209 200 -209c53 0 118 28 150 73v-50c0 -8 6 -14 14 -14h43c8 0 14 6 14 14v35c34 -39 85 -58 136 -58zM712 231h-257c10 72 69 121 138 121c68 0 115 -42 119 -121zM249 47c-78 0 -139 65 -139 153s61 153 139 153
c84 0 145 -65 145 -153s-61 -153 -145 -153zM510 598c14 0 19 -8 12 -21l-62 -110c-2 -4 -7 -7 -12 -7h-31c-13 0 -18 8 -13 19l44 110c3 5 8 9 13 9h49z" />
    <glyph glyph-name="afii61352" unicode="&#x2116;" horiz-adv-x="1015" 
d="M98 0c-8 0 -14 6 -14 14v672c0 8 6 14 14 14h53c4 0 9 -2 11 -6l409 -576v568c0 8 6 14 14 14h46c8 0 14 -6 14 -14v-672c0 -8 -6 -14 -14 -14h-53c-4 0 -9 2 -11 6l-409 576v-568c0 -8 -6 -14 -14 -14h-46zM849 708c71 0 128 -52 128 -126s-57 -126 -128 -126
s-128 52 -128 126s57 126 128 126zM849 504c40 0 73 32 73 78c0 45 -33 78 -73 78s-73 -33 -73 -78c0 -46 33 -78 73 -78zM741 347c-8 0 -14 6 -14 14v23c0 8 6 14 14 14h217c8 0 14 -6 14 -14v-23c0 -8 -6 -14 -14 -14h-217z" />
    <glyph glyph-name="agrave" unicode="&#xe0;" 
d="M227 460c-5 0 -10 3 -12 7l-62 110c-7 13 -2 21 12 21h49c5 0 10 -3 13 -9l44 -110c5 -11 0 -19 -13 -19h-31zM38 200c0 122 84 209 200 209c53 0 118 -28 150 -73v50c0 8 6 14 14 14h42c8 0 14 -6 14 -14v-372c0 -8 -6 -14 -14 -14h-42c-8 0 -14 6 -14 14v50
c-32 -45 -97 -73 -150 -73c-116 0 -200 87 -200 209zM110 200c0 -88 61 -153 139 -153c84 0 145 65 145 153s-61 153 -145 153c-78 0 -139 -65 -139 -153z" />
    <glyph glyph-name="agrave.alt1" horiz-adv-x="475" 
d="M205 460c-5 0 -10 3 -12 7l-62 110c-7 13 -2 21 12 21h49c5 0 10 -3 13 -9l44 -110c5 -11 0 -19 -13 -19h-31zM228 409c102 0 181 -39 181 -151v-244c0 -8 -6 -14 -14 -14h-42c-8 0 -14 6 -14 14v50c-36 -41 -86 -73 -149 -73c-108 0 -148 67 -148 135s54 128 169 128
c24 0 73 -5 128 -32v36c0 65 -42 94 -113 94c-38 0 -80 -17 -113 -36c-7 -5 -15 -3 -20 4l-15 24c-4 7 -3 14 3 19c44 30 93 46 147 46zM113 125c0 -27 11 -78 85 -78c83 0 130 72 141 88v35c-20 12 -74 30 -125 30c-64 0 -101 -34 -101 -75z" />
    <glyph glyph-name="amacron" unicode="&#x101;" 
d="M163 470c-8 0 -14 6 -14 14v27c0 8 6 14 14 14h179c8 0 14 -6 14 -14v-27c0 -8 -6 -14 -14 -14h-179zM38 200c0 122 84 209 200 209c53 0 118 -28 150 -73v50c0 8 6 14 14 14h42c8 0 14 -6 14 -14v-372c0 -8 -6 -14 -14 -14h-42c-8 0 -14 6 -14 14v50
c-32 -45 -97 -73 -150 -73c-116 0 -200 87 -200 209zM110 200c0 -88 61 -153 139 -153c84 0 145 65 145 153s-61 153 -145 153c-78 0 -139 -65 -139 -153z" />
    <glyph glyph-name="amacron.alt1" horiz-adv-x="475" 
d="M142 470c-8 0 -14 6 -14 14v27c0 8 6 14 14 14h179c8 0 14 -6 14 -14v-27c0 -8 -6 -14 -14 -14h-179zM228 409c102 0 181 -39 181 -151v-244c0 -8 -6 -14 -14 -14h-42c-8 0 -14 6 -14 14v50c-36 -41 -86 -73 -149 -73c-108 0 -148 67 -148 135s54 128 169 128
c24 0 73 -5 128 -32v36c0 65 -42 94 -113 94c-38 0 -80 -17 -113 -36c-7 -5 -15 -3 -20 4l-15 24c-4 7 -3 14 3 19c44 30 93 46 147 46zM113 125c0 -27 11 -78 85 -78c83 0 130 72 141 88v35c-20 12 -74 30 -125 30c-64 0 -101 -34 -101 -75z" />
    <glyph glyph-name="ampersand" unicode="&#x26;" horiz-adv-x="721" 
d="M176 414c-57 57 -71 93 -71 143c0 87 73 152 160 152s160 -66 160 -152c0 -69 -54 -126 -120 -178l165 -165l119 129c6 6 14 6 20 0l28 -25c6 -6 6 -14 1 -20l-122 -131l143 -143c14 -14 10 -24 -10 -24h-55c-4 0 -8 2 -10 4l-113 113c-87 -93 -158 -126 -231 -126
c-88 0 -184 54 -184 176c0 99 74 161 152 216zM241 54c60 0 113 33 183 110l-173 175c-56 -42 -123 -89 -123 -174c0 -84 68 -111 113 -111zM227 459l35 -37c50 38 95 84 95 137c0 55 -42 89 -92 89c-47 0 -91 -33 -91 -90c0 -27 11 -55 53 -99z" />
    <glyph glyph-name="aogonek" unicode="&#x105;" horiz-adv-x="525" 
d="M38 200c0 122 84 209 200 209c53 0 118 -28 150 -73v50c0 8 6 14 14 14h42c8 0 14 -6 14 -14v-376c0 -6 -4 -11 -10 -13c-43 -17 -65 -54 -65 -85c0 -27 18 -49 57 -49c8 0 16 1 26 3c12 2 19 -3 19 -14v-19c0 -6 -4 -11 -10 -13c-17 -5 -34 -8 -48 -8
c-62 0 -97 43 -97 91c0 35 19 72 58 97v64c-32 -45 -97 -73 -150 -73c-116 0 -200 87 -200 209zM110 200c0 -88 61 -153 139 -153c84 0 145 65 145 153s-61 153 -145 153c-78 0 -139 -65 -139 -153z" />
    <glyph glyph-name="aogonek.alt1" horiz-adv-x="476" 
d="M339 64c-36 -41 -86 -73 -149 -73c-108 0 -148 67 -148 135s54 128 169 128c24 0 73 -5 128 -32v36c0 65 -42 94 -113 94c-38 0 -80 -17 -113 -36c-7 -5 -15 -3 -20 4l-15 24c-4 7 -3 14 3 19c44 30 93 46 147 46c102 0 181 -39 181 -151v-248c0 -6 -4 -11 -10 -13
c-42 -17 -65 -54 -65 -85c0 -27 18 -49 57 -49c8 0 16 1 26 3c12 2 19 -3 19 -14v-19c0 -6 -4 -11 -10 -13c-17 -5 -34 -8 -48 -8c-62 0 -97 43 -97 91c0 35 19 72 58 97v64zM113 125c0 -27 11 -78 85 -78c83 0 130 72 141 88v35c-20 12 -74 30 -125 30
c-64 0 -101 -34 -101 -75z" />
    <glyph glyph-name="approxequal" unicode="&#x2248;" horiz-adv-x="564" 
d="M456 163c4 9 12 13 21 9l28 -12c7 -3 11 -10 8 -17c-20 -45 -68 -96 -137 -96c-95 0 -125 85 -189 85c-41 0 -65 -21 -79 -50c-4 -9 -12 -12 -20 -8l-28 13c-8 3 -11 10 -7 18c21 41 65 91 134 91c95 0 125 -85 189 -85c43 0 69 30 80 52zM456 329c4 9 12 13 21 9l28 -12
c7 -3 11 -10 8 -17c-20 -45 -68 -96 -137 -96c-95 0 -125 85 -189 85c-41 0 -65 -21 -79 -50c-4 -9 -12 -12 -20 -8l-28 13c-8 3 -11 10 -7 18c21 41 65 91 134 91c95 0 125 -85 189 -85c43 0 69 30 80 52z" />
    <glyph glyph-name="aring" unicode="&#xe5;" 
d="M156 552c0 51 41 92 92 92s92 -41 92 -92s-41 -92 -92 -92s-92 41 -92 92zM198 552c0 -27 23 -50 50 -50s50 23 50 50s-23 50 -50 50s-50 -23 -50 -50zM38 200c0 122 84 209 200 209c53 0 118 -28 150 -73v50c0 8 6 14 14 14h42c8 0 14 -6 14 -14v-372
c0 -8 -6 -14 -14 -14h-42c-8 0 -14 6 -14 14v50c-32 -45 -97 -73 -150 -73c-116 0 -200 87 -200 209zM110 200c0 -88 61 -153 139 -153c84 0 145 65 145 153s-61 153 -145 153c-78 0 -139 -65 -139 -153z" />
    <glyph glyph-name="aring.alt1" horiz-adv-x="475" 
d="M141 550c0 51 41 92 92 92s92 -41 92 -92s-41 -92 -92 -92s-92 41 -92 92zM183 550c0 -27 23 -50 50 -50s50 23 50 50s-23 50 -50 50s-50 -23 -50 -50zM228 409c102 0 181 -39 181 -151v-244c0 -8 -6 -14 -14 -14h-42c-8 0 -14 6 -14 14v50c-36 -41 -86 -73 -149 -73
c-108 0 -148 67 -148 135s54 128 169 128c24 0 73 -5 128 -32v36c0 65 -42 94 -113 94c-38 0 -80 -17 -113 -36c-7 -5 -15 -3 -20 4l-15 24c-4 7 -3 14 3 19c44 30 93 46 147 46zM113 125c0 -27 11 -78 85 -78c83 0 130 72 141 88v35c-20 12 -74 30 -125 30
c-64 0 -101 -34 -101 -75z" />
    <glyph glyph-name="aringacute" unicode="&#x1fb;" 
d="M155 535c0 51 41 92 92 92s92 -41 92 -92s-41 -92 -92 -92s-92 41 -92 92zM197 535c0 -27 23 -50 50 -50s50 23 50 50s-23 50 -50 50s-50 -23 -50 -50zM330 798c14 0 19 -8 12 -21l-62 -110c-2 -4 -7 -7 -12 -7h-31c-13 0 -18 8 -13 19l44 110c3 6 8 9 13 9h49zM38 200
c0 122 84 209 200 209c53 0 118 -28 150 -73v50c0 8 6 14 14 14h42c8 0 14 -6 14 -14v-372c0 -8 -6 -14 -14 -14h-42c-8 0 -14 6 -14 14v50c-32 -45 -97 -73 -150 -73c-116 0 -200 87 -200 209zM110 200c0 -88 61 -153 139 -153c84 0 145 65 145 153s-61 153 -145 153
c-78 0 -139 -65 -139 -153z" />
    <glyph glyph-name="aringacute.alt1" horiz-adv-x="475" 
d="M137 535c0 51 41 92 92 92s92 -41 92 -92s-41 -92 -92 -92s-92 41 -92 92zM179 535c0 -27 23 -50 50 -50s50 23 50 50s-23 50 -50 50s-50 -23 -50 -50zM312 798c14 0 19 -8 12 -21l-62 -110c-2 -4 -7 -7 -12 -7h-31c-13 0 -18 8 -13 19l44 110c3 6 8 9 13 9h49zM228 409
c102 0 181 -39 181 -151v-244c0 -8 -6 -14 -14 -14h-42c-8 0 -14 6 -14 14v50c-36 -41 -86 -73 -149 -73c-108 0 -148 67 -148 135s54 128 169 128c24 0 73 -5 128 -32v36c0 65 -42 94 -113 94c-38 0 -80 -17 -113 -36c-7 -5 -15 -3 -20 4l-15 24c-4 7 -3 14 3 19
c44 30 93 46 147 46zM113 125c0 -27 11 -78 85 -78c83 0 130 72 141 88v35c-20 12 -74 30 -125 30c-64 0 -101 -34 -101 -75z" />
    <glyph glyph-name="arrowdown" unicode="&#x2193;" horiz-adv-x="780" 
d="M355 114v396c0 8 6 14 14 14h42c8 0 14 -6 14 -14v-396l156 156c6 6 14 6 20 0l22 -23c6 -6 6 -14 0 -20l-223 -223c-6 -6 -14 -6 -20 0l-224 223c-6 6 -6 14 0 20l22 23c6 6 14 6 20 0z" />
    <glyph glyph-name="arrowleft" unicode="&#x2190;" horiz-adv-x="782" 
d="M656 239c0 -8 -6 -14 -14 -14h-396l156 -157c6 -6 6 -14 0 -20l-23 -22c-6 -6 -14 -6 -20 0l-223 224c-6 6 -6 14 0 20l223 223c6 6 14 6 20 0l23 -22c6 -6 6 -14 0 -20l-156 -156h396c8 0 14 -6 14 -14v-42z" />
    <glyph glyph-name="arrowright" unicode="&#x2192;" horiz-adv-x="782" 
d="M536 225h-396c-8 0 -14 6 -14 14v42c0 8 6 14 14 14h396l-156 156c-6 6 -6 14 0 20l23 22c6 6 14 6 20 0l223 -223c6 -6 6 -14 0 -20l-223 -224c-6 -6 -14 -6 -20 0l-23 22c-6 6 -6 14 0 20z" />
    <glyph glyph-name="arrowup" unicode="&#x2191;" horiz-adv-x="780" 
d="M369 -6c-8 0 -14 6 -14 14v396l-157 -156c-6 -6 -14 -6 -20 0l-22 23c-6 6 -6 14 0 20l224 223c6 6 14 6 20 0l223 -223c6 -6 6 -14 0 -20l-22 -23c-6 -6 -14 -6 -20 0l-156 156v-396c0 -8 -6 -14 -14 -14h-42z" />
    <glyph glyph-name="asciicircum" unicode="^" horiz-adv-x="462" 
d="M197 693c2 4 7 7 12 7h44c5 0 10 -3 12 -7l147 -253c7 -13 2 -21 -12 -21h-37c-5 0 -10 3 -12 7l-121 207l-119 -207c-2 -4 -7 -7 -12 -7h-37c-14 0 -19 8 -12 21z" />
    <glyph glyph-name="asciitilde" unicode="~" horiz-adv-x="564" 
d="M456 232c4 9 12 13 21 9l28 -12c7 -3 11 -10 8 -17c-20 -45 -68 -96 -137 -96c-95 0 -125 85 -189 85c-41 0 -65 -21 -79 -50c-4 -9 -12 -12 -20 -8l-28 13c-8 3 -11 10 -7 18c21 41 65 91 134 91c95 0 125 -85 189 -85c43 0 69 30 80 52z" />
    <glyph glyph-name="asciitilde.case" horiz-adv-x="564" 
d="M456 312c4 9 12 13 21 9l28 -12c7 -3 11 -10 8 -17c-20 -45 -68 -96 -137 -96c-95 0 -125 85 -189 85c-41 0 -65 -21 -79 -50c-4 -9 -12 -12 -20 -8l-28 13c-8 3 -11 10 -7 18c21 41 65 91 134 91c95 0 125 -85 189 -85c43 0 69 30 80 52z" />
    <glyph glyph-name="asterisk" unicode="*" horiz-adv-x="453" 
d="M61 599c3 8 11 12 19 8l126 -50l-8 137c-1 9 5 15 14 15h30c9 0 15 -6 14 -15l-8 -137l126 51c8 4 16 0 19 -8l9 -29c2 -8 -2 -16 -10 -18l-132 -36l87 -103c6 -7 5 -16 -2 -21l-25 -17c-7 -6 -15 -4 -20 3l-73 113l-73 -113c-5 -7 -13 -9 -20 -3l-24 17
c-7 5 -8 14 -2 20l85 103l-132 36c-8 2 -12 10 -9 18z" />
    <glyph glyph-name="at" unicode="@" horiz-adv-x="913" 
d="M257 243c0 112 78 192 185 192c49 0 108 -25 138 -67v45c0 8 6 14 14 14h35c8 0 14 -6 14 -14v-289c0 -19 7 -65 52 -66c86 0 106 136 106 186c0 207 -162 348 -344 348c-189 0 -345 -152 -345 -348c0 -215 169 -351 345 -351h22c8 0 14 -6 14 -14v-22
c0 -8 -6 -14 -14 -14h-22c-221 0 -401 176 -401 401s180 400 401 400c222 0 400 -172 400 -400c0 -104 -50 -234 -161 -234c-50 0 -113 32 -113 112c-35 -46 -87 -71 -141 -71c-107 0 -185 80 -185 192zM323 243c0 -81 57 -141 129 -141c77 0 133 60 133 141
s-56 141 -133 141c-72 0 -129 -60 -129 -141z" />
    <glyph glyph-name="atilde" unicode="&#xe3;" 
d="M210 557c47 -3 62 -36 94 -39c27 -1 39 15 44 27c3 7 3 12 17 7l26 -8c7 -2 11 -9 9 -16c-8 -23 -32 -73 -100 -68c-42 5 -67 38 -92 41c-30 2 -42 -19 -46 -31c-2 -5 -2 -8 -17 -4l-25 8c-7 2 -11 8 -9 15c8 23 32 70 99 68zM38 200c0 122 84 209 200 209
c53 0 118 -28 150 -73v50c0 8 6 14 14 14h42c8 0 14 -6 14 -14v-372c0 -8 -6 -14 -14 -14h-42c-8 0 -14 6 -14 14v50c-32 -45 -97 -73 -150 -73c-116 0 -200 87 -200 209zM110 200c0 -88 61 -153 139 -153c84 0 145 65 145 153s-61 153 -145 153c-78 0 -139 -65 -139 -153z
" />
    <glyph glyph-name="atilde.alt1" horiz-adv-x="475" 
d="M195 558c47 -3 62 -36 94 -39c26 -1 39 14 44 26c3 7 3 13 16 9l27 -9c7 -2 11 -9 9 -16c-8 -23 -32 -73 -100 -68c-42 5 -67 38 -92 41c-29 2 -41 -18 -46 -30c-2 -6 -2 -9 -12 -6l-30 9c-7 2 -11 8 -9 15c8 23 32 70 99 68zM228 409c102 0 181 -39 181 -151v-244
c0 -8 -6 -14 -14 -14h-42c-8 0 -14 6 -14 14v50c-36 -41 -86 -73 -149 -73c-108 0 -148 67 -148 135s54 128 169 128c24 0 73 -5 128 -32v36c0 65 -42 94 -113 94c-38 0 -80 -17 -113 -36c-7 -5 -15 -3 -20 4l-15 24c-4 7 -3 14 3 19c44 30 93 46 147 46zM113 125
c0 -27 11 -78 85 -78c83 0 130 72 141 88v35c-20 12 -74 30 -125 30c-64 0 -101 -34 -101 -75z" />
    <glyph glyph-name="b" unicode="b" 
d="M486 200c0 -122 -84 -209 -200 -209c-53 0 -118 28 -150 73v-50c0 -8 -6 -14 -14 -14h-42c-8 0 -14 6 -14 14v672c0 8 6 14 14 14h42c8 0 14 -6 14 -14v-350c32 45 97 73 150 73c116 0 200 -87 200 -209zM414 200c0 88 -61 153 -139 153c-84 0 -145 -65 -145 -153
s61 -153 145 -153c78 0 139 65 139 153z" />
    <glyph glyph-name="backslash" unicode="\" horiz-adv-x="337" 
d="M279 0c-6 0 -11 4 -13 9l-259 672c-4 11 1 19 13 19h39c6 0 11 -4 13 -9l258 -672c4 -11 -1 -19 -13 -19h-38z" />
    <glyph glyph-name="bar" unicode="|" horiz-adv-x="228" 
d="M130 700c8 0 14 -6 14 -14v-854c0 -8 -6 -14 -14 -14h-32c-8 0 -14 6 -14 14v854c0 8 6 14 14 14h32z" />
    <glyph glyph-name="bar.case" horiz-adv-x="228" 
d="M130 780c8 0 14 -6 14 -14v-854c0 -8 -6 -14 -14 -14h-32c-8 0 -14 6 -14 14v854c0 8 6 14 14 14h32z" />
    <glyph glyph-name="braceleft" unicode="{" horiz-adv-x="331" 
d="M206 157c0 -55 -33 -143 -33 -198c0 -59 34 -79 72 -79c12 0 25 2 39 6c8 2 15 -2 18 -11l7 -29c2 -7 -2 -14 -9 -16c-18 -6 -44 -11 -67 -11c-96 0 -130 63 -130 148c0 54 29 138 29 192c0 57 -27 83 -66 83h-10c-5 0 -9 4 -9 10v37c0 5 4 9 10 9h9c39 0 66 26 66 83
c0 54 -29 138 -29 192c0 85 34 148 130 148c23 0 49 -5 67 -11c7 -2 11 -9 9 -16l-7 -29c-3 -9 -10 -13 -18 -11c-14 4 -27 6 -39 6c-38 0 -72 -20 -72 -79c0 -55 33 -143 33 -198c0 -51 -30 -93 -70 -113c40 -19 70 -62 70 -113z" />
    <glyph glyph-name="braceleft.case" horiz-adv-x="331" 
d="M206 463c0 -51 -30 -94 -70 -113c40 -20 70 -62 70 -113c0 -55 -33 -143 -33 -198c0 -59 34 -79 72 -79c12 0 25 2 39 6c8 2 15 -2 18 -11l7 -29c2 -7 -2 -14 -9 -16c-18 -6 -44 -11 -67 -11c-96 0 -130 63 -130 148c0 54 29 138 29 192c0 57 -27 83 -66 83h-10
c-5 0 -9 4 -9 10v37c0 5 4 9 10 9h9c39 0 66 26 66 83c0 54 -29 138 -29 192c0 85 34 148 130 148c23 0 49 -5 67 -11c7 -2 11 -9 9 -16l-7 -29c-3 -9 -10 -13 -18 -11c-14 4 -27 6 -39 6c-38 0 -72 -20 -72 -79c0 -55 33 -143 33 -198z" />
    <glyph glyph-name="braceright" unicode="}" horiz-adv-x="331" 
d="M125 157c0 51 30 94 70 113c-40 20 -70 62 -70 113c0 55 33 143 33 198c0 59 -34 79 -72 79c-12 0 -25 -2 -39 -6c-8 -2 -15 2 -18 11l-7 29c-2 7 2 14 9 16c18 6 44 11 67 11c96 0 130 -63 130 -148c0 -54 -29 -138 -29 -192c0 -57 27 -83 66 -83h10c5 0 9 -4 9 -10v-37
c0 -5 -4 -9 -9 -9h-10c-39 0 -66 -26 -66 -83c0 -54 29 -138 29 -192c0 -85 -34 -148 -130 -148c-23 0 -49 5 -67 11c-7 2 -11 9 -9 16l7 29c3 9 10 13 18 11c14 -4 27 -6 39 -6c38 0 72 20 72 79c0 55 -33 143 -33 198z" />
    <glyph glyph-name="braceright.case" horiz-adv-x="331" 
d="M126 463c0 55 33 143 33 198c0 59 -34 79 -72 79c-12 0 -25 -2 -39 -6c-8 -2 -15 2 -18 11l-7 29c-2 7 2 14 9 16c18 6 44 11 67 11c96 0 130 -63 130 -148c0 -54 -29 -138 -29 -192c0 -57 27 -83 66 -83h10c5 0 9 -4 9 -10v-37c0 -5 -4 -9 -9 -9h-10
c-39 0 -66 -26 -66 -83c0 -54 29 -138 29 -192c0 -85 -34 -148 -130 -148c-23 0 -49 5 -67 11c-7 2 -11 9 -9 16l7 29c3 9 10 13 18 11c14 -4 27 -6 39 -6c38 0 72 20 72 79c0 55 -33 143 -33 198c0 51 30 93 70 113c-40 19 -70 62 -70 113z" />
    <glyph glyph-name="bracketleft" unicode="[" horiz-adv-x="229" 
d="M130 655v-771h66c8 0 14 -6 14 -14v-38c0 -8 -6 -14 -14 -14h-126c-8 0 -14 6 -14 14v875c0 8 6 14 14 14h126c8 0 14 -6 14 -14v-38c0 -8 -6 -14 -14 -14h-66z" />
    <glyph glyph-name="bracketleft.case" horiz-adv-x="229" 
d="M130 735v-771h66c8 0 14 -6 14 -14v-38c0 -8 -6 -14 -14 -14h-126c-8 0 -14 6 -14 14v875c0 8 6 14 14 14h126c8 0 14 -6 14 -14v-38c0 -8 -6 -14 -14 -14h-66z" />
    <glyph glyph-name="bracketright" unicode="]" horiz-adv-x="229" 
d="M99 -116v771h-66c-8 0 -14 6 -14 14v38c0 8 6 14 14 14h126c8 0 14 -6 14 -14v-875c0 -8 -6 -14 -14 -14h-126c-8 0 -14 6 -14 14v38c0 8 6 14 14 14h66z" />
    <glyph glyph-name="bracketright.case" horiz-adv-x="229" 
d="M99 -36v771h-66c-8 0 -14 6 -14 14v38c0 8 6 14 14 14h126c8 0 14 -6 14 -14v-875c0 -8 -6 -14 -14 -14h-126c-8 0 -14 6 -14 14v38c0 8 6 14 14 14h66z" />
    <glyph glyph-name="breve" unicode="&#x2d8;" horiz-adv-x="232" 
d="M173 558c1 8 7 14 15 14h30c8 0 14 -6 13 -14c-7 -58 -57 -98 -115 -98s-108 40 -115 98c-1 8 5 14 13 14h30c8 0 14 -6 15 -14c5 -23 21 -45 57 -45s52 22 57 45z" />
    <glyph glyph-name="brokenbar" unicode="&#xa6;" horiz-adv-x="228" 
d="M130 700c8 0 14 -6 14 -14v-350c0 -8 -6 -14 -14 -14h-32c-8 0 -14 6 -14 14v350c0 8 6 14 14 14h32zM144 -168c0 -8 -6 -14 -14 -14h-32c-8 0 -14 6 -14 14v350c0 8 6 14 14 14h32c8 0 14 -6 14 -14v-350z" />
    <glyph glyph-name="brokenbar.case" horiz-adv-x="228" 
d="M130 780c8 0 14 -6 14 -14v-350c0 -8 -6 -14 -14 -14h-32c-8 0 -14 6 -14 14v350c0 8 6 14 14 14h32zM144 -88c0 -8 -6 -14 -14 -14h-32c-8 0 -14 6 -14 14v350c0 8 6 14 14 14h32c8 0 14 -6 14 -14v-350z" />
    <glyph glyph-name="bullet" unicode="&#x2022;" horiz-adv-x="329" 
d="M164 121c-45 0 -80 35 -80 80c0 46 35 81 80 81c46 0 81 -35 81 -81c0 -45 -35 -80 -81 -80z" />
    <glyph glyph-name="bullet.case" horiz-adv-x="329" 
d="M164 201c-45 0 -80 35 -80 80c0 46 35 81 80 81c46 0 81 -35 81 -81c0 -45 -35 -80 -81 -80z" />
    <glyph glyph-name="c" unicode="c" horiz-adv-x="450" 
d="M244 49c42 0 84 20 114 48c7 6 15 7 22 0l19 -21c6 -5 6 -13 1 -18c-40 -42 -95 -67 -156 -67c-115 0 -206 85 -206 209s91 209 206 209c61 0 116 -25 156 -67c5 -5 5 -13 -1 -18l-19 -21c-7 -7 -15 -6 -22 0c-30 28 -72 48 -114 48c-78 0 -136 -58 -136 -151
s58 -151 136 -151z" />
    <glyph glyph-name="cacute" unicode="&#x107;" horiz-adv-x="450" 
d="M334 598c14 0 19 -8 12 -21l-62 -110c-2 -4 -7 -7 -12 -7h-31c-13 0 -18 8 -13 19l44 110c3 6 8 9 13 9h49zM244 49c42 0 84 20 114 48c7 6 15 7 22 0l19 -21c6 -5 6 -13 1 -18c-40 -42 -95 -67 -156 -67c-115 0 -206 85 -206 209s91 209 206 209c61 0 116 -25 156 -67
c5 -5 5 -13 -1 -18l-19 -21c-7 -7 -15 -6 -22 0c-30 28 -72 48 -114 48c-78 0 -136 -58 -136 -151s58 -151 136 -151z" />
    <glyph glyph-name="caron" unicode="&#x2c7;" horiz-adv-x="242" 
d="M15 572c-9 13 -4 22 11 22h28c3 0 8 -2 10 -5l57 -67l57 67c2 3 7 5 10 5h28c15 0 20 -9 11 -22l-72 -106c-2 -4 -7 -6 -11 -6h-47c-4 0 -9 2 -11 6z" />
    <glyph glyph-name="ccaron" unicode="&#x10d;" horiz-adv-x="450" 
d="M138 572c-9 13 -4 22 11 22h28c3 0 8 -2 10 -5l57 -67l57 67c2 3 7 5 10 5h28c15 0 20 -9 11 -22l-72 -106c-2 -4 -7 -6 -11 -6h-47c-4 0 -9 2 -11 6zM244 49c42 0 84 20 114 48c7 6 15 7 22 0l19 -21c6 -5 6 -13 1 -18c-40 -42 -95 -67 -156 -67
c-115 0 -206 85 -206 209s91 209 206 209c61 0 116 -25 156 -67c5 -5 5 -13 -1 -18l-19 -21c-7 -7 -15 -6 -22 0c-30 28 -72 48 -114 48c-78 0 -136 -58 -136 -151s58 -151 136 -151z" />
    <glyph glyph-name="ccedilla" unicode="&#xe7;" horiz-adv-x="450" 
d="M245 -73h-11c-7 0 -12 5 -12 11v54c-105 10 -184 92 -184 208c0 124 91 209 206 209c61 0 116 -25 156 -67c5 -5 5 -13 -1 -18l-19 -21c-7 -7 -15 -6 -22 0c-30 28 -72 48 -114 48c-78 0 -136 -58 -136 -151s58 -151 136 -151c42 0 84 20 114 48c7 6 15 7 22 0l19 -21
c6 -5 6 -13 1 -18c-37 -39 -87 -62 -142 -66v-29c55 -1 82 -38 82 -76c0 -56 -50 -81 -92 -81c-23 0 -46 6 -65 17c-6 4 -7 11 -4 18l7 11c5 8 13 9 21 6c14 -7 28 -9 39 -9c23 0 46 13 46 38c0 24 -17 40 -47 40z" />
    <glyph glyph-name="ccircumflex" unicode="&#x109;" horiz-adv-x="450" 
d="M187 475c-2 -3 -7 -5 -10 -5h-28c-15 0 -20 9 -11 22l71 106c2 4 7 6 11 6h47c4 0 9 -2 11 -6l72 -106c9 -13 4 -22 -11 -22h-28c-3 0 -8 2 -10 5l-57 67zM244 49c42 0 84 20 114 48c7 6 15 7 22 0l19 -21c6 -5 6 -13 1 -18c-40 -42 -95 -67 -156 -67
c-115 0 -206 85 -206 209s91 209 206 209c61 0 116 -25 156 -67c5 -5 5 -13 -1 -18l-19 -21c-7 -7 -15 -6 -22 0c-30 28 -72 48 -114 48c-78 0 -136 -58 -136 -151s58 -151 136 -151z" />
    <glyph glyph-name="cdotaccent" unicode="&#x10b;" horiz-adv-x="450" 
d="M244 49c42 0 84 20 114 48c7 6 15 7 22 0l19 -21c6 -5 6 -13 1 -18c-40 -42 -95 -67 -156 -67c-115 0 -206 85 -206 209s91 209 206 209c61 0 116 -25 156 -67c5 -5 5 -13 -1 -18l-19 -21c-7 -7 -15 -6 -22 0c-30 28 -72 48 -114 48c-78 0 -136 -58 -136 -151
s58 -151 136 -151zM242 459c-26 0 -47 21 -47 47c0 27 21 48 47 48c27 0 48 -21 48 -48c0 -26 -21 -47 -48 -47z" />
    <glyph glyph-name="cedilla" unicode="&#xb8;" horiz-adv-x="167" 
d="M72 -73h-11c-7 0 -12 5 -12 11v76h36v-51c55 -1 82 -38 82 -76c0 -56 -50 -81 -92 -81c-23 0 -46 6 -65 17c-6 4 -7 11 -4 18l7 11c5 8 13 9 21 6c14 -7 28 -9 39 -9c23 0 46 13 46 38c0 24 -17 40 -47 40z" />
    <glyph glyph-name="cent" unicode="&#xa2;" horiz-adv-x="445" 
d="M259 96v-82c0 -8 -6 -14 -14 -14h-22c-8 0 -14 6 -14 14v85c-88 14 -153 91 -153 185s65 170 153 185v77c0 8 6 14 14 14h22c8 0 14 -6 14 -14v-75c47 -4 89 -25 121 -58c6 -5 5 -13 0 -18l-20 -21c-7 -7 -15 -6 -22 0c-21 19 -50 33 -79 37v-254c28 3 57 18 79 37
c6 6 14 7 21 0l21 -21c5 -5 6 -13 0 -19c-32 -32 -74 -53 -121 -58zM125 284c0 -67 34 -111 84 -124v248c-50 -13 -84 -61 -84 -124z" />
    <glyph glyph-name="circumflex" unicode="&#x2c6;" horiz-adv-x="242" 
d="M64 475c-2 -3 -7 -5 -10 -5h-28c-15 0 -20 9 -11 22l71 106c2 4 7 6 11 6h47c4 0 9 -2 11 -6l72 -106c9 -13 4 -22 -11 -22h-28c-3 0 -8 2 -10 5l-57 67z" />
    <glyph glyph-name="colon" unicode=":" horiz-adv-x="198" 
d="M94 -6c-26 0 -47 21 -47 47c0 27 21 48 47 48c27 0 48 -21 48 -48c0 -26 -21 -47 -48 -47zM94 312c-26 0 -47 21 -47 47c0 27 21 48 47 48c27 0 48 -21 48 -48c0 -26 -21 -47 -48 -47z" />
    <glyph glyph-name="comma" unicode="," horiz-adv-x="214" 
d="M140 100c11 0 16 -7 13 -17l-48 -189c-2 -7 -7 -11 -14 -11h-28c-9 0 -15 6 -14 16l29 189c1 7 7 12 14 12h48z" />
    <glyph glyph-name="commaaccent" unicode="&#xf6c3;" horiz-adv-x="120" 
d="M98 -60c13 0 18 -8 12 -20l-54 -112c-2 -5 -8 -8 -13 -8h-23c-12 0 -17 7 -13 19l39 112c2 5 7 9 13 9h39z" />
    <glyph glyph-name="copyright" unicode="&#xa9;" horiz-adv-x="830" 
d="M56 351c0 198 161 359 359 359s359 -161 359 -359s-161 -359 -359 -359s-359 161 -359 359zM101 351c0 -176 141 -316 314 -316s314 140 314 316s-141 316 -314 316s-314 -140 -314 -316zM412 160c53 0 108 25 143 60c5 5 5 13 0 18l-18 20c-7 6 -15 6 -22 0
c-27 -25 -65 -42 -103 -42c-71 0 -121 55 -121 134s53 132 124 132c38 0 74 -13 101 -37c6 -6 14 -7 21 0l18 18c5 5 6 13 0 18c-35 38 -85 59 -139 59c-105 0 -188 -83 -188 -190s79 -190 184 -190z" />
    <glyph glyph-name="d" unicode="d" 
d="M38 200c0 122 84 209 200 209c53 0 118 -28 150 -73v350c0 8 6 14 14 14h42c8 0 14 -6 14 -14v-672c0 -8 -6 -14 -14 -14h-42c-8 0 -14 6 -14 14v50c-32 -45 -97 -73 -150 -73c-116 0 -200 87 -200 209zM110 200c0 -88 61 -153 139 -153c84 0 145 65 145 153
s-61 153 -145 153c-78 0 -139 -65 -139 -153z" />
    <glyph glyph-name="dagger" unicode="&#x2020;" horiz-adv-x="329" 
d="M187 600l89 4c9 1 15 -5 15 -14v-23c0 -9 -6 -15 -15 -14l-89 4l6 -226c0 -8 -6 -14 -14 -14h-29c-8 0 -14 6 -14 14l6 226l-89 -4c-9 -1 -15 5 -15 14v23c0 9 6 15 15 14l89 -4l-5 85c-1 9 5 15 14 15h27c9 0 15 -6 14 -15z" />
    <glyph glyph-name="daggerdbl" unicode="&#x2021;" horiz-adv-x="329" 
d="M187 600l89 4c9 1 15 -5 15 -14v-23c0 -9 -6 -15 -15 -14l-89 4v-97l89 4c9 1 15 -5 15 -14v-23c0 -9 -6 -15 -15 -14l-89 4l5 -85c1 -9 -5 -15 -14 -15h-27c-9 0 -15 6 -14 15l5 85l-89 -4c-9 -1 -15 5 -15 14v23c0 9 6 15 15 14l89 -4v97l-89 -4c-9 -1 -15 5 -15 14v23
c0 9 6 15 15 14l89 -4l-5 85c-1 9 5 15 14 15h27c9 0 15 -6 14 -15z" />
    <glyph glyph-name="dcaron" unicode="&#x10f;" horiz-adv-x="663" 
d="M645 700c11 0 16 -7 13 -17l-48 -189c-2 -7 -7 -11 -14 -11h-28c-9 0 -15 6 -14 16l29 189c1 7 7 12 14 12h48zM38 200c0 122 84 209 200 209c53 0 118 -28 150 -73v350c0 8 6 14 14 14h42c8 0 14 -6 14 -14v-672c0 -8 -6 -14 -14 -14h-42c-8 0 -14 6 -14 14v50
c-32 -45 -97 -73 -150 -73c-116 0 -200 87 -200 209zM110 200c0 -88 61 -153 139 -153c84 0 145 65 145 153s-61 153 -145 153c-78 0 -139 -65 -139 -153z" />
    <glyph glyph-name="dcroat" unicode="&#x111;" horiz-adv-x="528" 
d="M38 200c0 122 84 209 200 209c53 0 118 -28 150 -73v190h-127c-8 0 -14 6 -14 14v22c0 8 6 14 14 14h127v110c0 8 6 14 14 14h42c8 0 14 -6 14 -14v-110h56c8 0 14 -6 14 -14v-22c0 -8 -6 -14 -14 -14h-56v-512c0 -8 -6 -14 -14 -14h-42c-8 0 -14 6 -14 14v50
c-32 -45 -97 -73 -150 -73c-116 0 -200 87 -200 209zM110 200c0 -88 61 -153 139 -153c84 0 145 65 145 153s-61 153 -145 153c-78 0 -139 -65 -139 -153z" />
    <glyph glyph-name="degree" unicode="&#xb0;" horiz-adv-x="305" 
d="M28 595c0 63 52 115 115 115s115 -52 115 -115s-52 -115 -115 -115s-115 52 -115 115zM77 595c0 -36 30 -66 66 -66s66 30 66 66s-30 66 -66 66s-66 -30 -66 -66z" />
    <glyph glyph-name="dieresis" unicode="&#xa8;" horiz-adv-x="258" 
d="M47 460c-26 0 -47 21 -47 47c0 27 21 48 47 48c27 0 48 -21 48 -48c0 -26 -21 -47 -48 -47zM210 460c-26 0 -47 21 -47 47c0 27 21 48 47 48c27 0 48 -21 48 -48c0 -26 -21 -47 -48 -47z" />
    <glyph glyph-name="divide" unicode="&#xf7;" horiz-adv-x="449" 
d="M225 14c-27 0 -48 21 -48 47c0 27 21 48 48 48c26 0 47 -21 47 -48c0 -26 -21 -47 -47 -47zM225 292c-27 0 -48 21 -48 47c0 27 21 48 48 48c26 0 47 -21 47 -48c0 -26 -21 -47 -47 -47zM369 230c8 0 14 -6 14 -14v-32c0 -8 -6 -14 -14 -14h-289c-8 0 -14 6 -14 14v32
c0 8 6 14 14 14h289z" />
    <glyph glyph-name="divide.case" horiz-adv-x="449" 
d="M225 94c-27 0 -48 21 -48 47c0 27 21 48 48 48c26 0 47 -21 47 -48c0 -26 -21 -47 -47 -47zM225 372c-27 0 -48 21 -48 47c0 27 21 48 48 48c26 0 47 -21 47 -48c0 -26 -21 -47 -47 -47zM369 310c8 0 14 -6 14 -14v-32c0 -8 -6 -14 -14 -14h-289c-8 0 -14 6 -14 14v32
c0 8 6 14 14 14h289z" />
    <glyph glyph-name="dollar" unicode="$" horiz-adv-x="547" 
d="M303 -85c0 -8 -6 -14 -14 -14h-22c-8 0 -14 6 -14 14v77c-69 4 -124 29 -186 74c-7 5 -8 12 -3 19l23 31c6 7 14 8 20 3c50 -39 92 -58 146 -63v283c-90 35 -175 81 -175 189c0 103 72 171 175 180v77c0 8 6 14 14 14h22c8 0 14 -6 14 -14v-77c66 -5 118 -25 172 -63
c7 -5 9 -13 3 -19l-24 -32c-5 -7 -12 -8 -19 -3c-42 29 -81 49 -132 54v-254c93 -39 188 -93 188 -205c0 -108 -77 -182 -188 -193v-78zM417 185c0 65 -47 103 -114 134v-262c69 11 114 62 114 128zM151 530c0 -54 45 -94 102 -119v234c-46 -6 -102 -33 -102 -115z" />
    <glyph glyph-name="dotaccent" unicode="&#x2d9;" horiz-adv-x="95" 
d="M47 460c-26 0 -47 21 -47 47c0 27 21 48 47 48c27 0 48 -21 48 -48c0 -26 -21 -47 -48 -47z" />
    <glyph glyph-name="dotlessi" unicode="&#x131;" horiz-adv-x="202" 
d="M122 400c8 0 14 -6 14 -14v-372c0 -8 -6 -14 -14 -14h-42c-8 0 -14 6 -14 14v372c0 8 6 14 14 14h42z" />
    <glyph glyph-name="e" unicode="e" horiz-adv-x="461" 
d="M240 -9c-121 0 -202 88 -202 209c0 118 85 209 200 209s185 -79 185 -209c0 -4 0 -8 -1 -11c0 -7 -5 -11 -12 -11h-303c5 -78 62 -129 133 -129c42 0 83 17 112 45c7 6 15 6 22 0l19 -21c5 -6 5 -14 0 -19c-44 -43 -92 -63 -153 -63zM236 352c-69 0 -118 -49 -128 -121
h247c-4 79 -51 121 -119 121z" />
    <glyph glyph-name="eacute" unicode="&#xe9;" horiz-adv-x="461" 
d="M240 -9c-121 0 -202 88 -202 209c0 118 85 209 200 209s185 -79 185 -209c0 -4 0 -8 -1 -11c0 -7 -5 -11 -12 -11h-303c5 -78 62 -129 133 -129c42 0 83 17 112 45c7 6 15 6 22 0l19 -21c5 -6 5 -14 0 -19c-44 -43 -92 -63 -153 -63zM236 352c-69 0 -118 -49 -128 -121
h247c-4 79 -51 121 -119 121zM324 598c14 0 19 -8 12 -21l-62 -110c-2 -4 -7 -7 -12 -7h-31c-13 0 -18 8 -13 19l44 110c3 6 8 9 13 9h49z" />
    <glyph glyph-name="ebreve" unicode="&#x115;" horiz-adv-x="461" 
d="M240 -9c61 0 109 20 153 63c5 5 5 13 0 19l-19 21c-7 6 -15 6 -22 0c-29 -28 -70 -45 -112 -45c-71 0 -128 51 -133 129h303c7 0 12 4 12 11c1 3 1 7 1 11c0 130 -70 209 -185 209s-200 -91 -200 -209c0 -121 81 -209 202 -209zM236 352c68 0 115 -42 119 -121h-247
c10 72 59 121 128 121zM122 558c-1 8 5 14 13 14h30c8 0 14 -6 15 -14c5 -23 21 -45 57 -45c24 0 51 17 57 45c2 8 8 14 16 14h29c8 0 14 -6 13 -14c-7 -58 -57 -98 -115 -98c-59 0 -108 40 -115 98z" />
    <glyph glyph-name="ecaron" unicode="&#x11b;" horiz-adv-x="461" 
d="M240 -9c61 0 109 20 153 63c5 5 5 13 0 19l-19 21c-7 6 -15 6 -22 0c-29 -28 -70 -45 -112 -45c-71 0 -128 51 -133 129h303c7 0 12 4 12 11c1 3 1 7 1 11c0 130 -70 209 -185 209s-200 -91 -200 -209c0 -121 81 -209 202 -209zM236 352c68 0 115 -42 119 -121h-247
c10 72 59 121 128 121zM134 572c-9 13 -5 22 11 22h27c4 0 9 -2 11 -5l57 -67l57 67c2 3 7 5 10 5h28c15 0 20 -9 11 -22l-72 -106c-2 -4 -7 -6 -11 -6h-47c-4 0 -9 2 -11 6z" />
    <glyph glyph-name="ecircumflex" unicode="&#xea;" horiz-adv-x="461" 
d="M240 -9c61 0 109 20 153 63c5 5 5 13 0 19l-19 21c-7 6 -15 6 -22 0c-29 -28 -70 -45 -112 -45c-71 0 -128 51 -133 129h303c7 0 12 4 12 11c1 3 1 7 1 11c0 130 -70 209 -185 209s-200 -91 -200 -209c0 -121 81 -209 202 -209zM236 352c68 0 115 -42 119 -121h-247
c10 72 59 121 128 121zM181 475c-2 -3 -7 -5 -11 -5h-27c-16 0 -20 9 -11 22l71 106c2 3 7 6 11 6h47c4 0 9 -3 11 -6l72 -106c9 -13 4 -22 -11 -22h-28c-3 0 -8 2 -10 5l-57 67z" />
    <glyph glyph-name="edieresis" unicode="&#xeb;" horiz-adv-x="461" 
d="M240 -9c-121 0 -202 88 -202 209c0 118 85 209 200 209s185 -79 185 -209c0 -4 0 -8 -1 -11c0 -7 -5 -11 -12 -11h-303c5 -78 62 -129 133 -129c42 0 83 17 112 45c7 6 15 6 22 0l19 -21c5 -6 5 -14 0 -19c-44 -43 -92 -63 -153 -63zM236 352c-69 0 -118 -49 -128 -121
h247c-4 79 -51 121 -119 121zM158 460c-26 0 -47 21 -47 47c0 27 21 48 47 48c27 0 48 -21 48 -48c0 -26 -21 -47 -48 -47zM321 460c-26 0 -47 21 -47 47c0 27 21 48 47 48c27 0 48 -21 48 -48c0 -26 -21 -47 -48 -47z" />
    <glyph glyph-name="edotaccent" unicode="&#x117;" horiz-adv-x="461" 
d="M240 459c-26 0 -47 21 -47 47c0 27 21 48 47 48c27 0 48 -21 48 -48c0 -26 -21 -47 -48 -47zM240 -9c61 0 109 20 153 63c5 5 5 13 0 19l-19 21c-7 6 -15 6 -22 0c-29 -28 -70 -45 -112 -45c-71 0 -128 51 -133 129h303c7 0 12 4 12 11c1 3 1 7 1 11
c0 130 -70 209 -185 209s-200 -91 -200 -209c0 -121 81 -209 202 -209zM236 352c68 0 115 -42 119 -121h-247c10 72 59 121 128 121z" />
    <glyph glyph-name="egrave" unicode="&#xe8;" horiz-adv-x="461" 
d="M240 -9c-121 0 -202 88 -202 209c0 118 85 209 200 209s185 -79 185 -209c0 -4 0 -8 -1 -11c0 -7 -5 -11 -12 -11h-303c5 -78 62 -129 133 -129c42 0 83 17 112 45c7 6 15 6 22 0l19 -21c5 -6 5 -14 0 -19c-44 -43 -92 -63 -153 -63zM236 352c-69 0 -118 -49 -128 -121
h247c-4 79 -51 121 -119 121zM216 460c-5 0 -10 3 -12 7l-62 110c-7 13 -2 21 12 21h49c5 0 10 -3 13 -9l44 -110c5 -11 0 -19 -13 -19h-31z" />
    <glyph glyph-name="eight" unicode="8" horiz-adv-x="576" 
d="M520 200c0 -136 -114 -209 -233 -209s-231 74 -231 209c0 81 47 149 119 179c-60 33 -94 90 -94 150c0 123 100 180 209 180c103 0 205 -59 205 -180c0 -60 -34 -117 -94 -150c72 -30 119 -98 119 -179zM289 347c-86 0 -161 -55 -161 -144c0 -92 77 -150 160 -150
s160 58 160 150c0 89 -75 144 -159 144zM153 526c0 -64 51 -122 136 -122c83 0 134 58 134 122c0 80 -65 121 -134 122c-70 0 -136 -41 -136 -122z" />
    <glyph glyph-name="eight.dnom" horiz-adv-x="301" 
d="M259 88c0 -61 -52 -94 -109 -94c-58 0 -108 33 -108 94c0 34 24 63 52 75c-22 11 -41 33 -41 62c0 53 46 81 98 81c49 0 96 -28 96 -80c0 -29 -18 -52 -41 -63c32 -13 53 -43 53 -75zM150 142c-34 0 -61 -24 -61 -55c0 -36 27 -53 61 -53s62 20 62 53c0 31 -27 55 -62 55
zM100 226c0 -23 17 -47 50 -47s50 24 50 47c0 25 -23 41 -50 41s-50 -15 -50 -41z" />
    <glyph glyph-name="eight.numr" horiz-adv-x="301" 
d="M259 488c0 -61 -52 -94 -109 -94c-58 0 -108 33 -108 94c0 34 24 63 52 75c-22 11 -41 33 -41 62c0 53 46 81 98 81c49 0 96 -28 96 -80c0 -29 -18 -52 -41 -63c32 -13 53 -43 53 -75zM150 543c-34 0 -61 -25 -61 -56c0 -36 27 -55 61 -55s62 22 62 55
c0 31 -27 56 -62 56zM100 626c0 -23 17 -48 50 -48s50 25 50 48c0 25 -23 43 -50 43s-50 -17 -50 -43z" />
    <glyph glyph-name="eight.onum" horiz-adv-x="576" 
d="M520 200c0 -136 -114 -209 -233 -209s-231 74 -231 209c0 81 47 149 119 179c-60 33 -94 90 -94 150c0 123 100 180 209 180c103 0 205 -59 205 -180c0 -60 -34 -117 -94 -150c72 -30 119 -98 119 -179zM289 347c-86 0 -161 -55 -161 -144c0 -92 77 -150 160 -150
s160 58 160 150c0 89 -75 144 -159 144zM153 526c0 -64 51 -122 136 -122c83 0 134 58 134 122c0 80 -65 121 -134 122c-70 0 -136 -41 -136 -122z" />
    <glyph glyph-name="eight.tnum" horiz-adv-x="600" 
d="M532 200c0 -136 -114 -209 -233 -209s-231 74 -231 209c0 81 47 149 119 179c-60 33 -94 90 -94 150c0 123 100 180 209 180c103 0 205 -59 205 -180c0 -60 -34 -117 -94 -150c72 -30 119 -98 119 -179zM301 347c-86 0 -161 -55 -161 -144c0 -92 77 -150 160 -150
s160 58 160 150c0 89 -75 144 -159 144zM165 526c0 -64 51 -122 136 -122c83 0 134 58 134 122c0 80 -65 121 -134 122c-70 0 -136 -41 -136 -122z" />
    <glyph glyph-name="eight.tonum" horiz-adv-x="600" 
d="M532 200c0 -136 -114 -209 -233 -209s-231 74 -231 209c0 81 47 149 119 179c-60 33 -94 90 -94 150c0 123 100 180 209 180c103 0 205 -59 205 -180c0 -60 -34 -117 -94 -150c72 -30 119 -98 119 -179zM301 347c-86 0 -161 -55 -161 -144c0 -92 77 -150 160 -150
s160 58 160 150c0 89 -75 144 -159 144zM165 526c0 -64 51 -122 136 -122c83 0 134 58 134 122c0 80 -65 121 -134 122c-70 0 -136 -41 -136 -122z" />
    <glyph glyph-name="eightinferior" unicode="&#x2088;" horiz-adv-x="301" 
d="M259 -52c0 -61 -52 -94 -109 -94c-58 0 -108 33 -108 94c0 34 24 63 52 75c-22 11 -41 33 -41 62c0 53 46 81 98 81c49 0 96 -28 96 -80c0 -29 -18 -52 -41 -63c32 -13 53 -43 53 -75zM150 3c-34 0 -61 -25 -61 -56c0 -36 27 -56 61 -56s62 23 62 56c0 31 -27 56 -62 56z
M100 86c0 -23 17 -48 50 -48s50 25 50 48c0 25 -23 43 -50 43s-50 -17 -50 -43z" />
    <glyph glyph-name="eightsuperior" unicode="&#x2078;" horiz-adv-x="301" 
d="M259 598c0 -61 -52 -94 -109 -94c-58 0 -108 33 -108 94c0 34 24 63 52 75c-22 11 -41 33 -41 62c0 53 46 81 98 81c49 0 96 -28 96 -80c0 -29 -18 -52 -41 -63c32 -13 53 -43 53 -75zM150 653c-34 0 -61 -25 -61 -56c0 -36 27 -54 61 -54s62 21 62 54
c0 31 -27 56 -62 56zM100 736c0 -23 17 -48 50 -48s50 25 50 48c0 25 -23 42 -50 42s-50 -16 -50 -42z" />
    <glyph glyph-name="ellipsis" unicode="&#x2026;" horiz-adv-x="608" 
d="M94 -6c-26 0 -47 21 -47 47c0 27 21 48 47 48c27 0 48 -21 48 -48c0 -26 -21 -47 -48 -47zM299 -6c-26 0 -47 21 -47 47c0 27 21 48 47 48c27 0 48 -21 48 -48c0 -26 -21 -47 -48 -47zM504 -6c-26 0 -47 21 -47 47c0 27 21 48 47 48c27 0 48 -21 48 -48
c0 -26 -21 -47 -48 -47z" />
    <glyph glyph-name="emacron" unicode="&#x113;" horiz-adv-x="461" 
d="M240 -9c-121 0 -202 88 -202 209c0 118 85 209 200 209s185 -79 185 -209c0 -4 0 -8 -1 -11c0 -7 -5 -11 -12 -11h-303c5 -78 62 -129 133 -129c42 0 83 17 112 45c7 6 15 6 22 0l19 -21c5 -6 5 -14 0 -19c-44 -43 -92 -63 -153 -63zM236 352c-69 0 -118 -49 -128 -121
h247c-4 79 -51 121 -119 121zM147 470c-8 0 -14 6 -14 14v27c0 8 6 14 14 14h179c8 0 14 -6 14 -14v-27c0 -8 -6 -14 -14 -14h-179z" />
    <glyph glyph-name="emdash" unicode="&#x2014;" horiz-adv-x="593" 
d="M80 170c-8 0 -14 6 -14 14v32c0 8 6 14 14 14h433c8 0 14 -6 14 -14v-32c0 -8 -6 -14 -14 -14h-433z" />
    <glyph glyph-name="emdash.case" horiz-adv-x="593" 
d="M80 250c-8 0 -14 6 -14 14v32c0 8 6 14 14 14h433c8 0 14 -6 14 -14v-32c0 -8 -6 -14 -14 -14h-433z" />
    <glyph glyph-name="endash" unicode="&#x2013;" horiz-adv-x="513" 
d="M80 170c-8 0 -14 6 -14 14v32c0 8 6 14 14 14h353c8 0 14 -6 14 -14v-32c0 -8 -6 -14 -14 -14h-353z" />
    <glyph glyph-name="endash.case" horiz-adv-x="513" 
d="M80 250c-8 0 -14 6 -14 14v32c0 8 6 14 14 14h353c8 0 14 -6 14 -14v-32c0 -8 -6 -14 -14 -14h-353z" />
    <glyph glyph-name="eng" unicode="&#x14b;" horiz-adv-x="501" 
d="M370 -93v319c0 90 -55 122 -110 122c-61 0 -124 -41 -124 -122v-212c0 -8 -6 -14 -14 -14h-42c-8 0 -14 6 -14 14v372c0 8 6 14 14 14h42c8 0 14 -6 14 -14v-40c33 42 83 62 133 62c86 0 171 -47 171 -167v-327c0 -110 -64 -161 -146 -161c-34 0 -72 12 -107 40
c-6 4 -7 12 -2 18l18 24c6 8 14 8 22 3c22 -17 48 -24 69 -24c47 0 76 31 76 93z" />
    <glyph glyph-name="eogonek" unicode="&#x119;" horiz-adv-x="461" 
d="M306 0c-53 -13 -82 -54 -82 -88c0 -27 18 -49 57 -49c8 0 16 1 26 3c12 2 19 -3 19 -14v-19c0 -6 -4 -11 -10 -13c-17 -5 -34 -8 -48 -8c-62 0 -97 43 -97 91c0 31 15 64 46 89c-108 10 -179 94 -179 208c0 118 85 209 200 209s185 -79 185 -209c0 -4 0 -8 -1 -11
c0 -7 -5 -11 -12 -11h-303c5 -78 62 -129 133 -129c42 0 83 17 112 45c7 6 15 6 22 0l19 -21c5 -6 5 -14 0 -19c-27 -26 -56 -44 -87 -54zM236 352c-69 0 -118 -49 -128 -121h247c-4 79 -51 121 -119 121z" />
    <glyph glyph-name="equal" unicode="=" horiz-adv-x="459" 
d="M80 250c-8 0 -14 6 -14 14v32c0 8 6 14 14 14h299c8 0 14 -6 14 -14v-32c0 -8 -6 -14 -14 -14h-299zM80 70c-8 0 -14 6 -14 14v32c0 8 6 14 14 14h299c8 0 14 -6 14 -14v-32c0 -8 -6 -14 -14 -14h-299z" />
    <glyph glyph-name="equal.case" horiz-adv-x="459" 
d="M80 330c-8 0 -14 6 -14 14v32c0 8 6 14 14 14h299c8 0 14 -6 14 -14v-32c0 -8 -6 -14 -14 -14h-299zM80 150c-8 0 -14 6 -14 14v32c0 8 6 14 14 14h299c8 0 14 -6 14 -14v-32c0 -8 -6 -14 -14 -14h-299z" />
    <glyph glyph-name="estimated" unicode="&#x212e;" horiz-adv-x="812" 
d="M635 122c6 7 14 7 20 1l6 -6c6 -5 6 -13 1 -19c-66 -67 -156 -107 -256 -107c-198 0 -359 158 -359 359s161 359 359 359s359 -158 359 -359c0 -3 0 -5 -1 -8c0 -4 -3 -7 -8 -7h-592v-202c59 -66 145 -108 240 -108c90 0 172 38 231 97zM404 675
c-95 0 -181 -43 -240 -108v-201h480v201c-59 65 -145 108 -240 108z" />
    <glyph glyph-name="eth" unicode="&#xf0;" horiz-adv-x="544" 
d="M433 664c5 -7 3 -14 -3 -19l-79 -59c81 -102 146 -234 146 -375c0 -124 -103 -220 -225 -220c-121 0 -225 95 -225 219c0 134 99 221 220 221c23 0 84 -9 129 -56c-17 57 -60 123 -98 171l-73 -55c-7 -5 -14 -4 -19 3l-17 22c-5 6 -3 14 3 19l70 52c-23 25 -45 47 -69 67
c-6 5 -7 13 -1 20l24 29c5 6 13 7 19 1c27 -22 53 -48 80 -77l82 62c7 5 14 4 19 -3zM272 369c-79 0 -153 -64 -153 -159c0 -93 73 -158 153 -158c81 0 153 63 153 159c0 97 -71 158 -153 158z" />
    <glyph glyph-name="exclam" unicode="!" horiz-adv-x="228" 
d="M103 200c-8 0 -13 5 -14 13l-20 472c-1 9 5 15 14 15h62c9 0 15 -6 14 -15l-20 -472c-1 -8 -6 -13 -14 -13h-22zM61 44c0 30 23 53 53 53s53 -23 53 -53s-23 -53 -53 -53s-53 23 -53 53z" />
    <glyph glyph-name="exclamdown" unicode="&#xa1;" horiz-adv-x="228" 
d="M86 -296c-8 0 -14 6 -14 14l10 472c0 9 5 14 14 14h36c9 0 14 -5 14 -14l10 -472c0 -8 -6 -14 -14 -14h-56zM66 362c0 27 21 48 48 48s48 -21 48 -48s-21 -48 -48 -48s-48 21 -48 48z" />
    <glyph glyph-name="f" unicode="f" horiz-adv-x="303" 
d="M161 555v-155h114c8 0 14 -6 14 -14v-32c0 -8 -6 -14 -14 -14h-114v-326c0 -8 -6 -14 -14 -14h-42c-8 0 -14 6 -14 14v326h-67c-8 0 -14 6 -14 14v32c0 8 6 14 14 14h67v148c0 116 64 161 146 161c34 0 74 -11 109 -38c6 -5 7 -12 2 -18l-18 -25c-6 -8 -14 -8 -22 -3
c-23 17 -50 23 -71 23c-47 0 -76 -34 -76 -93z" />
    <glyph glyph-name="five" unicode="5" horiz-adv-x="517" 
d="M151 636v-219h89c121 0 230 -73 230 -207c0 -133 -119 -219 -241 -219c-64 0 -135 26 -182 65c-5 5 -6 13 -1 19l21 27c6 7 14 7 22 1c35 -29 88 -50 141 -50c83 0 168 58 168 156c0 107 -94 144 -161 144h-144c-8 0 -14 6 -14 14v319c0 8 6 14 14 14h309
c8 0 14 -6 14 -14v-36c0 -8 -6 -14 -14 -14h-251z" />
    <glyph glyph-name="five.dnom" horiz-adv-x="297" 
d="M114 259v-74h32c57 0 109 -28 109 -94c0 -60 -56 -97 -115 -97c-28 0 -62 12 -88 29c-6 5 -7 12 -3 18l8 12c6 8 15 8 22 2c19 -13 41 -20 62 -20c33 0 67 15 67 55c0 44 -38 55 -63 55h-63c-8 0 -14 6 -14 14v127c0 8 6 14 14 14h137c8 0 14 -6 14 -14v-13
c0 -8 -6 -14 -14 -14h-105z" />
    <glyph glyph-name="five.numr" horiz-adv-x="297" 
d="M114 659v-74h32c57 0 109 -28 109 -94c0 -60 -56 -97 -115 -97c-28 0 -62 12 -88 29c-6 5 -7 12 -3 18l8 12c6 8 15 8 22 2c19 -13 41 -20 62 -20c33 0 67 15 67 55c0 44 -38 55 -63 55h-63c-8 0 -14 6 -14 14v127c0 8 6 14 14 14h137c8 0 14 -6 14 -14v-13
c0 -8 -6 -14 -14 -14h-105z" />
    <glyph glyph-name="five.onum" horiz-adv-x="526" 
d="M151 428v-219h89c121 0 230 -73 230 -207c0 -133 -119 -219 -241 -219c-64 0 -135 26 -182 65c-5 5 -6 13 -1 19l21 27c6 7 14 7 22 1c35 -29 88 -50 141 -50c83 0 168 58 168 156c0 107 -94 144 -161 144h-144c-8 0 -14 6 -14 14v319c0 8 6 14 14 14h309
c8 0 14 -6 14 -14v-36c0 -8 -6 -14 -14 -14h-251z" />
    <glyph glyph-name="five.tnum" horiz-adv-x="599" 
d="M202 636v-219h89c121 0 230 -73 230 -207c0 -133 -119 -219 -241 -219c-64 0 -135 26 -182 65c-5 5 -6 13 -1 19l21 27c6 7 14 7 22 1c35 -29 88 -50 141 -50c83 0 168 58 168 156c0 107 -94 144 -161 144h-144c-8 0 -14 6 -14 14v319c0 8 6 14 14 14h309
c8 0 14 -6 14 -14v-36c0 -8 -6 -14 -14 -14h-251z" />
    <glyph glyph-name="five.tonum" horiz-adv-x="599" 
d="M202 428v-219h89c121 0 230 -73 230 -207c0 -133 -119 -219 -241 -219c-64 0 -135 26 -182 65c-5 5 -6 13 -1 19l21 27c6 7 14 7 22 1c35 -29 88 -50 141 -50c83 0 168 58 168 156c0 107 -94 144 -161 144h-144c-8 0 -14 6 -14 14v319c0 8 6 14 14 14h309
c8 0 14 -6 14 -14v-36c0 -8 -6 -14 -14 -14h-251z" />
    <glyph glyph-name="fiveinferior" unicode="&#x2085;" horiz-adv-x="297" 
d="M114 119v-74h32c57 0 109 -28 109 -94c0 -60 -56 -97 -115 -97c-28 0 -62 12 -88 29c-6 5 -7 12 -3 18l8 12c6 8 15 8 22 2c19 -13 41 -20 62 -20c33 0 67 15 67 55c0 44 -38 55 -63 55h-63c-8 0 -14 6 -14 14v127c0 8 6 14 14 14h137c8 0 14 -6 14 -14v-13
c0 -8 -6 -14 -14 -14h-105z" />
    <glyph glyph-name="fivesuperior" unicode="&#x2075;" horiz-adv-x="297" 
d="M114 769v-74h32c57 0 109 -28 109 -94c0 -60 -56 -97 -115 -97c-28 0 -62 12 -88 29c-6 5 -7 12 -3 18l8 12c6 8 15 8 22 2c19 -13 41 -20 62 -20c33 0 67 15 67 55c0 44 -38 55 -63 55h-63c-8 0 -14 6 -14 14v127c0 8 6 14 14 14h137c8 0 14 -6 14 -14v-13
c0 -8 -6 -14 -14 -14h-105z" />
    <glyph glyph-name="florin" unicode="&#x192;" horiz-adv-x="532" 
d="M231 145v195h-99c-8 0 -14 6 -14 14v32c0 8 6 14 14 14h99v148c0 110 64 161 146 161c34 0 72 -12 107 -40c6 -4 7 -12 2 -18l-18 -24c-6 -8 -14 -8 -22 -3c-22 17 -48 24 -69 24c-47 0 -76 -31 -76 -93v-155h114c8 0 14 -6 14 -14v-32c0 -8 -6 -14 -14 -14h-114v-188
c0 -110 -64 -161 -146 -161c-34 0 -72 12 -107 40c-6 4 -7 12 -2 18l18 24c6 8 14 8 22 3c22 -17 48 -24 69 -24c47 0 76 31 76 93z" />
    <glyph glyph-name="four" unicode="4" horiz-adv-x="540" 
d="M418 14c0 -8 -6 -14 -14 -14h-44c-8 0 -14 6 -14 14v140h-313c-8 0 -14 6 -14 14v47c0 2 1 4 2 6l239 471c2 5 7 8 13 8h49c14 0 19 -8 13 -20l-238 -462h249v168c0 8 6 14 14 14h44c8 0 14 -6 14 -14v-168h70c8 0 14 -6 14 -14v-36c0 -8 -6 -14 -14 -14h-70v-140z" />
    <glyph glyph-name="four.dnom" horiz-adv-x="302" 
d="M227 14c0 -8 -6 -14 -14 -14h-19c-8 0 -14 6 -14 14v51h-133c-8 0 -14 6 -14 14v22c0 3 1 5 2 7l106 185c2 4 7 7 12 7h23c14 0 19 -8 12 -21l-99 -173h91v53c0 8 6 14 14 14h19c8 0 14 -6 14 -14v-53h23c8 0 14 -6 14 -14v-13c0 -8 -6 -14 -14 -14h-23v-51z" />
    <glyph glyph-name="four.numr" horiz-adv-x="302" 
d="M227 414c0 -8 -6 -14 -14 -14h-19c-8 0 -14 6 -14 14v51h-133c-8 0 -14 6 -14 14v22c0 3 1 5 2 7l106 185c2 4 7 7 12 7h23c14 0 19 -8 12 -21l-99 -173h91v53c0 8 6 14 14 14h19c8 0 14 -6 14 -14v-53h23c8 0 14 -6 14 -14v-13c0 -8 -6 -14 -14 -14h-23v-51z" />
    <glyph glyph-name="four.onum" horiz-adv-x="540" 
d="M418 -194c0 -8 -6 -14 -14 -14h-44c-8 0 -14 6 -14 14v140h-313c-8 0 -14 6 -14 14v47c0 2 1 4 2 6l239 471c2 5 7 8 13 8h49c14 0 19 -8 13 -20l-238 -462h249v168c0 8 6 14 14 14h44c8 0 14 -6 14 -14v-168h70c8 0 14 -6 14 -14v-36c0 -8 -6 -14 -14 -14h-70v-140z" />
    <glyph glyph-name="four.tnum" horiz-adv-x="603" 
d="M453 14c0 -8 -6 -14 -14 -14h-44c-8 0 -14 6 -14 14v140h-313c-8 0 -14 6 -14 14v47c0 2 1 4 2 6l239 471c2 5 7 8 13 8h49c14 0 19 -8 13 -20l-238 -462h249v168c0 8 6 14 14 14h44c8 0 14 -6 14 -14v-168h70c8 0 14 -6 14 -14v-36c0 -8 -6 -14 -14 -14h-70v-140z" />
    <glyph glyph-name="four.tonum" horiz-adv-x="603" 
d="M453 -194c0 -8 -6 -14 -14 -14h-44c-8 0 -14 6 -14 14v140h-313c-8 0 -14 6 -14 14v47c0 2 1 4 2 6l239 471c2 5 7 8 13 8h49c14 0 19 -8 13 -20l-238 -462h249v168c0 8 6 14 14 14h44c8 0 14 -6 14 -14v-168h70c8 0 14 -6 14 -14v-36c0 -8 -6 -14 -14 -14h-70v-140z" />
    <glyph glyph-name="fourinferior" unicode="&#x2084;" horiz-adv-x="302" 
d="M227 -126c0 -8 -6 -14 -14 -14h-19c-8 0 -14 6 -14 14v51h-133c-8 0 -14 6 -14 14v22c0 3 1 5 2 7l106 185c2 4 7 7 12 7h23c14 0 19 -8 12 -21l-99 -173h91v53c0 8 6 14 14 14h19c8 0 14 -6 14 -14v-53h23c8 0 14 -6 14 -14v-13c0 -8 -6 -14 -14 -14h-23v-51z" />
    <glyph glyph-name="foursuperior" unicode="&#x2074;" horiz-adv-x="302" 
d="M227 524c0 -8 -6 -14 -14 -14h-19c-8 0 -14 6 -14 14v51h-133c-8 0 -14 6 -14 14v22c0 3 1 5 2 7l106 185c2 4 7 7 12 7h23c14 0 19 -8 12 -21l-99 -173h91v53c0 8 6 14 14 14h19c8 0 14 -6 14 -14v-53h23c8 0 14 -6 14 -14v-13c0 -8 -6 -14 -14 -14h-23v-51z" />
    <glyph glyph-name="fraction" unicode="&#x2044;" horiz-adv-x="46" 
d="M175 700c12 0 17 -8 13 -19l-259 -672c-2 -5 -7 -9 -13 -9h-24c-12 0 -17 8 -13 19l258 672c2 5 7 9 13 9h25z" />
    <glyph glyph-name="g" unicode="g" 
d="M458 -47c0 -135 -103 -211 -215 -211c-60 0 -123 21 -173 65c-6 5 -7 13 -2 19l22 26c6 7 14 7 21 1c36 -32 84 -48 130 -48c76 0 147 48 147 148v111c-32 -45 -97 -73 -150 -73c-116 0 -200 87 -200 209s84 209 200 209c53 0 118 -28 150 -73v50c0 8 6 14 14 14h42
c8 0 14 -6 14 -14v-433zM110 200c0 -88 61 -153 139 -153c84 0 145 65 145 153s-61 153 -145 153c-78 0 -139 -65 -139 -153z" />
    <glyph glyph-name="gbreve" unicode="&#x11f;" 
d="M135 558c-1 8 5 14 13 14h30c8 0 14 -6 15 -14c5 -23 21 -45 57 -45c24 0 51 17 58 45c1 8 7 14 15 14h29c8 0 14 -6 13 -14c-7 -58 -57 -98 -115 -98s-108 40 -115 98zM458 -47c0 -135 -103 -211 -215 -211c-60 0 -123 21 -173 65c-6 5 -7 13 -2 19l22 26c6 7 14 7 21 1
c36 -32 84 -48 130 -48c76 0 147 48 147 148v111c-32 -45 -97 -73 -150 -73c-116 0 -200 87 -200 209s84 209 200 209c53 0 118 -28 150 -73v50c0 8 6 14 14 14h42c8 0 14 -6 14 -14v-433zM110 200c0 -88 61 -153 139 -153c84 0 145 65 145 153s-61 153 -145 153
c-78 0 -139 -65 -139 -153z" />
    <glyph glyph-name="gcircumflex" unicode="&#x11d;" 
d="M198 475c-2 -3 -7 -5 -10 -5h-28c-15 0 -20 9 -11 22l71 106c2 4 7 6 11 6h47c4 0 9 -2 11 -6l72 -106c9 -13 4 -22 -11 -22h-28c-3 0 -8 2 -10 5l-57 67zM458 -47c0 -135 -103 -211 -215 -211c-60 0 -123 21 -173 65c-6 5 -7 13 -2 19l22 26c6 7 14 7 21 1
c36 -32 84 -48 130 -48c76 0 147 48 147 148v111c-32 -45 -97 -73 -150 -73c-116 0 -200 87 -200 209s84 209 200 209c53 0 118 -28 150 -73v50c0 8 6 14 14 14h42c8 0 14 -6 14 -14v-433zM110 200c0 -88 61 -153 139 -153c84 0 145 65 145 153s-61 153 -145 153
c-78 0 -139 -65 -139 -153z" />
    <glyph glyph-name="gcommaaccent" unicode="&#x123;" 
d="M236 460c-13 0 -18 8 -12 20l54 112c2 5 8 8 13 8h23c12 0 17 -7 13 -19l-39 -112c-2 -5 -7 -9 -13 -9h-39zM458 -47c0 -135 -103 -211 -215 -211c-60 0 -123 21 -173 65c-6 5 -7 13 -2 19l22 26c6 7 14 7 21 1c36 -32 84 -48 130 -48c76 0 147 48 147 148v111
c-32 -45 -97 -73 -150 -73c-116 0 -200 87 -200 209s84 209 200 209c53 0 118 -28 150 -73v50c0 8 6 14 14 14h42c8 0 14 -6 14 -14v-433zM110 200c0 -88 61 -153 139 -153c84 0 145 65 145 153s-61 153 -145 153c-78 0 -139 -65 -139 -153z" />
    <glyph glyph-name="gdotaccent" unicode="&#x121;" 
d="M243 459c-26 0 -47 21 -47 47c0 27 21 48 47 48c27 0 48 -21 48 -48c0 -26 -21 -47 -48 -47zM458 -47c0 -135 -103 -211 -215 -211c-60 0 -123 21 -173 65c-6 5 -7 13 -2 19l22 26c6 7 14 7 21 1c36 -32 84 -48 130 -48c76 0 147 48 147 148v111
c-32 -45 -97 -73 -150 -73c-116 0 -200 87 -200 209s84 209 200 209c53 0 118 -28 150 -73v50c0 8 6 14 14 14h42c8 0 14 -6 14 -14v-433zM110 200c0 -88 61 -153 139 -153c84 0 145 65 145 153s-61 153 -145 153c-78 0 -139 -65 -139 -153z" />
    <glyph glyph-name="germandbls" unicode="&#xdf;" horiz-adv-x="548" 
d="M284 709c99 0 188 -69 188 -180c0 -57 -39 -126 -92 -152c75 -30 121 -99 121 -181c0 -122 -86 -204 -199 -204c-26 0 -54 4 -81 12c-7 2 -11 9 -8 17l8 29c2 8 9 12 18 10c21 -7 38 -10 63 -10c71 0 126 66 126 146c0 77 -59 149 -132 149h-39c-9 0 -15 6 -13 16l4 30
c1 7 7 12 14 12h30c67 0 106 63 106 127s-46 117 -116 117c-29 0 -124 -10 -124 -148v-485c0 -8 -6 -14 -14 -14h-46c-8 0 -14 6 -14 14v484c0 86 39 211 200 211z" />
    <glyph glyph-name="grave" unicode="`" horiz-adv-x="138" 
d="M86 460c-5 0 -10 3 -12 7l-62 110c-7 13 -2 21 12 21h49c5 0 10 -3 13 -9l44 -110c5 -11 0 -19 -13 -19h-31z" />
    <glyph glyph-name="greater" unicode="&#x3e;" horiz-adv-x="384" 
d="M330 233c4 -2 7 -7 7 -12v-44c0 -5 -3 -10 -7 -12l-262 -152c-13 -7 -21 -2 -21 12v37c0 5 3 10 7 12l216 126l-216 124c-4 2 -7 7 -7 12v37c0 14 8 19 21 12z" />
    <glyph glyph-name="greater.case" horiz-adv-x="384" 
d="M330 313c4 -2 7 -7 7 -12v-44c0 -5 -3 -10 -7 -12l-262 -152c-13 -7 -21 -2 -21 12v37c0 5 3 10 7 12l216 126l-216 124c-4 2 -7 7 -7 12v37c0 14 8 19 21 12z" />
    <glyph glyph-name="greaterequal" unicode="&#x2265;" horiz-adv-x="384" 
d="M329 292c5 -3 8 -8 8 -13v-42c0 -5 -3 -10 -8 -13l-262 -115c-12 -6 -20 0 -20 12v35c0 5 3 10 9 13l217 90l-217 88c-6 3 -9 8 -9 13v35c0 12 8 18 20 12zM61 0c-8 0 -14 6 -14 14v32c0 8 6 14 14 14h262c8 0 14 -6 14 -14v-32c0 -8 -6 -14 -14 -14h-262z" />
    <glyph glyph-name="guillemotleft" unicode="&#xab;" horiz-adv-x="428" 
d="M162 13c-5 0 -10 3 -12 7l-99 173c-2 4 -2 10 0 14l99 173c2 4 7 7 12 7h37c14 0 19 -8 12 -21l-95 -166l95 -166c7 -13 2 -21 -12 -21h-37zM320 13c-5 0 -10 3 -12 7l-99 173c-2 4 -2 10 0 14l99 173c2 4 7 7 12 7h37c14 0 19 -8 12 -21l-95 -166l95 -166
c7 -13 2 -21 -12 -21h-37z" />
    <glyph glyph-name="guillemotleft.case" horiz-adv-x="428" 
d="M162 93c-5 0 -10 3 -12 7l-99 173c-2 4 -2 10 0 14l99 173c2 4 7 7 12 7h37c14 0 19 -8 12 -21l-95 -166l95 -166c7 -13 2 -21 -12 -21h-37zM320 93c-5 0 -10 3 -12 7l-99 173c-2 4 -2 10 0 14l99 173c2 4 7 7 12 7h37c14 0 19 -8 12 -21l-95 -166l95 -166
c7 -13 2 -21 -12 -21h-37z" />
    <glyph glyph-name="guillemotright" unicode="&#xbb;" horiz-adv-x="428" 
d="M219 207c2 -4 2 -10 0 -14l-99 -173c-2 -4 -7 -7 -12 -7h-37c-14 0 -19 8 -12 21l95 166l-95 166c-7 13 -2 21 12 21h37c5 0 10 -3 12 -7zM377 207c2 -4 2 -10 0 -14l-99 -173c-2 -4 -7 -7 -12 -7h-37c-14 0 -19 8 -12 21l95 166l-95 166c-7 13 -2 21 12 21h37
c5 0 10 -3 12 -7z" />
    <glyph glyph-name="guillemotright.case" horiz-adv-x="428" 
d="M219 287c2 -4 2 -10 0 -14l-99 -173c-2 -4 -7 -7 -12 -7h-37c-14 0 -19 8 -12 21l95 166l-95 166c-7 13 -2 21 12 21h37c5 0 10 -3 12 -7zM377 287c2 -4 2 -10 0 -14l-99 -173c-2 -4 -7 -7 -12 -7h-37c-14 0 -19 8 -12 21l95 166l-95 166c-7 13 -2 21 12 21h37
c5 0 10 -3 12 -7z" />
    <glyph glyph-name="guilsinglleft" unicode="&#x2039;" horiz-adv-x="270" 
d="M162 13c-5 0 -10 3 -12 7l-99 173c-2 4 -2 10 0 14l99 173c2 4 7 7 12 7h37c14 0 19 -8 12 -21l-95 -166l95 -166c7 -13 2 -21 -12 -21h-37z" />
    <glyph glyph-name="guilsinglleft.case" horiz-adv-x="270" 
d="M162 93c-5 0 -10 3 -12 7l-99 173c-2 4 -2 10 0 14l99 173c2 4 7 7 12 7h37c14 0 19 -8 12 -21l-95 -166l95 -166c7 -13 2 -21 -12 -21h-37z" />
    <glyph glyph-name="guilsinglright" unicode="&#x203a;" horiz-adv-x="270" 
d="M219 207c2 -4 2 -10 0 -14l-99 -173c-2 -4 -7 -7 -12 -7h-37c-14 0 -19 8 -12 21l95 166l-95 166c-7 13 -2 21 12 21h37c5 0 10 -3 12 -7z" />
    <glyph glyph-name="guilsinglright.case" horiz-adv-x="270" 
d="M219 287c2 -4 2 -10 0 -14l-99 -173c-2 -4 -7 -7 -12 -7h-37c-14 0 -19 8 -12 21l95 166l-95 166c-7 13 -2 21 12 21h37c5 0 10 -3 12 -7z" />
    <glyph glyph-name="h" unicode="h" horiz-adv-x="495" 
d="M80 0c-8 0 -14 6 -14 14v672c0 8 6 14 14 14h42c8 0 14 -6 14 -14v-350c30 47 77 73 134 73c86 0 164 -47 164 -167v-228c0 -8 -6 -14 -14 -14h-42c-8 0 -14 6 -14 14v215c0 96 -55 124 -110 124c-61 0 -118 -51 -118 -126v-213c0 -8 -6 -14 -14 -14h-42z" />
    <glyph glyph-name="hbar" unicode="&#x127;" horiz-adv-x="499" 
d="M84 0c-8 0 -14 6 -14 14v512h-56c-8 0 -14 6 -14 14v22c0 8 6 14 14 14h56v110c0 8 6 14 14 14h42c8 0 14 -6 14 -14v-110h127c8 0 14 -6 14 -14v-22c0 -8 -6 -14 -14 -14h-127v-190c30 47 77 73 134 73c86 0 164 -47 164 -167v-228c0 -8 -6 -14 -14 -14h-42
c-8 0 -14 6 -14 14v215c0 96 -55 124 -110 124c-61 0 -118 -51 -118 -126v-213c0 -8 -6 -14 -14 -14h-42z" />
    <glyph glyph-name="hcircumflex" unicode="&#x125;" horiz-adv-x="498" 
d="M48 775c-2 -3 -7 -5 -10 -5h-28c-15 0 -20 9 -11 22l71 106c2 4 7 6 11 6h47c4 0 9 -2 11 -6l72 -106c9 -13 4 -22 -11 -22h-28c-3 0 -8 2 -10 5l-57 67zM83 0c-8 0 -14 6 -14 14v672c0 8 6 14 14 14h42c8 0 14 -6 14 -14v-350c30 47 77 73 134 73c86 0 164 -47 164 -167
v-228c0 -8 -6 -14 -14 -14h-42c-8 0 -14 6 -14 14v215c0 96 -55 124 -110 124c-61 0 -118 -51 -118 -126v-213c0 -8 -6 -14 -14 -14h-42z" />
    <glyph glyph-name="hungarumlaut" unicode="&#x2dd;" horiz-adv-x="275" 
d="M114 598c14 0 19 -8 12 -21l-62 -110c-2 -4 -7 -7 -12 -7h-31c-13 0 -18 8 -13 19l44 110c3 6 8 9 13 9h49zM251 598c14 0 19 -8 12 -21l-62 -110c-2 -4 -7 -7 -12 -7h-31c-13 0 -18 8 -13 19l44 110c3 6 8 9 13 9h49z" />
    <glyph glyph-name="hyphen" unicode="-" horiz-adv-x="413" 
d="M80 170c-8 0 -14 6 -14 14v32c0 8 6 14 14 14h253c8 0 14 -6 14 -14v-32c0 -8 -6 -14 -14 -14h-253z" />
    <glyph glyph-name="hyphen.case" horiz-adv-x="413" 
d="M80 250c-8 0 -14 6 -14 14v32c0 8 6 14 14 14h253c8 0 14 -6 14 -14v-32c0 -8 -6 -14 -14 -14h-253z" />
    <glyph glyph-name="i" unicode="i" horiz-adv-x="203" 
d="M122 400c8 0 14 -6 14 -14v-372c0 -8 -6 -14 -14 -14h-42c-8 0 -14 6 -14 14v372c0 8 6 14 14 14h42zM101 460c-26 0 -47 21 -47 47c0 27 21 48 47 48c27 0 48 -21 48 -48c0 -26 -21 -47 -48 -47z" />
    <glyph glyph-name="iacute" unicode="&#xed;" horiz-adv-x="206" 
d="M122 400c8 0 14 -6 14 -14v-372c0 -8 -6 -14 -14 -14h-42c-8 0 -14 6 -14 14v372c0 8 6 14 14 14h42zM184 598c14 0 19 -8 12 -21l-62 -110c-2 -4 -7 -7 -12 -7h-31c-13 0 -18 8 -13 19l44 110c3 6 8 9 13 9h49z" />
    <glyph glyph-name="ibreve" unicode="&#x12d;" horiz-adv-x="210" 
d="M126 400c8 0 14 -6 14 -14v-372c0 -8 -6 -14 -14 -14h-42c-8 0 -14 6 -14 14v372c0 8 6 14 14 14h42zM-10 558c-1 8 5 14 13 14h30c8 0 14 -6 15 -14c5 -23 21 -45 57 -45c24 0 51 17 58 45c1 8 7 14 15 14h29c8 0 14 -6 13 -14c-7 -58 -57 -98 -115 -98s-108 40 -115 98
z" />
    <glyph glyph-name="icircumflex" unicode="&#xee;" horiz-adv-x="208" 
d="M125 400c8 0 14 -6 14 -14v-372c0 -8 -6 -14 -14 -14h-42c-8 0 -14 6 -14 14v372c0 8 6 14 14 14h42zM47 475c-2 -3 -7 -5 -10 -5h-28c-15 0 -20 9 -11 22l71 106c2 4 7 6 11 6h47c4 0 9 -2 11 -6l72 -106c9 -13 4 -22 -11 -22h-28c-3 0 -8 2 -10 5l-57 67z" />
    <glyph glyph-name="idieresis" unicode="&#xef;" horiz-adv-x="208" 
d="M125 400c8 0 14 -6 14 -14v-372c0 -8 -6 -14 -14 -14h-42c-8 0 -14 6 -14 14v372c0 8 6 14 14 14h42zM22 459c-26 0 -47 21 -47 47c0 27 21 48 47 48c27 0 48 -21 48 -48c0 -26 -21 -47 -48 -47zM185 459c-26 0 -47 21 -47 47c0 27 21 48 47 48c27 0 48 -21 48 -48
c0 -26 -21 -47 -48 -47z" />
    <glyph glyph-name="igrave" unicode="&#xec;" horiz-adv-x="206" 
d="M126 400c8 0 14 -6 14 -14v-372c0 -8 -6 -14 -14 -14h-42c-8 0 -14 6 -14 14v372c0 8 6 14 14 14h42zM83 460c-5 0 -10 3 -12 7l-62 110c-7 13 -2 21 12 21h49c5 0 10 -3 13 -9l44 -110c5 -11 0 -19 -13 -19h-31z" />
    <glyph glyph-name="ij" unicode="&#x133;" horiz-adv-x="413" 
d="M122 400c8 0 14 -6 14 -14v-372c0 -8 -6 -14 -14 -14h-42c-8 0 -14 6 -14 14v372c0 8 6 14 14 14h42zM101 460c-26 0 -47 21 -47 47c0 27 21 48 47 48c27 0 48 -21 48 -48c0 -26 -21 -47 -48 -47zM276 -104v490c0 8 6 14 14 14h42c8 0 14 -6 14 -14v-483
c0 -110 -64 -161 -146 -161c-34 0 -72 12 -107 40c-6 4 -7 12 -2 18l18 24c6 8 14 8 22 3c22 -17 48 -24 69 -24c47 0 76 31 76 93zM311 460c-26 0 -47 21 -47 47c0 27 21 48 47 48c27 0 48 -21 48 -48c0 -26 -21 -47 -48 -47z" />
    <glyph glyph-name="imacron" unicode="&#x12b;" horiz-adv-x="207" 
d="M83 0c-8 0 -14 6 -14 14v372c0 8 6 14 14 14h42c8 0 14 -6 14 -14v-372c0 -8 -6 -14 -14 -14h-42zM193 525c8 0 14 -6 14 -14v-27c0 -8 -6 -14 -14 -14h-179c-8 0 -14 6 -14 14v27c0 8 6 14 14 14h179z" />
    <glyph glyph-name="infinity" unicode="&#x221e;" horiz-adv-x="735" 
d="M66 192c0 73 60 135 136 135c37 0 86 -10 166 -96c80 86 129 96 166 96c74 0 135 -61 135 -135s-61 -136 -135 -136c-37 0 -86 11 -167 98c-79 -87 -128 -98 -165 -98c-74 0 -136 62 -136 136zM331 193c-69 64 -105 72 -124 72c-38 0 -71 -27 -71 -73
c0 -45 34 -74 70 -74c20 0 55 9 125 75zM405 192c69 -65 104 -74 124 -74c37 0 73 29 73 74c0 43 -35 73 -73 73c-20 0 -55 -8 -124 -73z" />
    <glyph glyph-name="integral" unicode="&#x222b;" horiz-adv-x="318" 
d="M95 -147v695c0 116 64 161 146 161c34 0 74 -11 109 -38c6 -5 7 -12 2 -18l-19 -27c-6 -8 -14 -8 -22 -2c-22 16 -49 23 -70 23c-47 0 -76 -33 -76 -92v-695c0 -116 -64 -161 -146 -161c-34 0 -74 11 -109 38c-6 5 -7 12 -2 18l19 27c6 8 14 8 22 2c22 -16 49 -23 70 -23
c47 0 76 33 76 92z" />
    <glyph glyph-name="iogonek" unicode="&#x12f;" horiz-adv-x="207" 
d="M126 400c8 0 14 -6 14 -14v-375c0 -7 -4 -12 -10 -14c-43 -16 -65 -54 -65 -85c0 -27 18 -49 57 -49c8 0 16 1 26 3c12 2 19 -3 19 -14v-19c0 -6 -4 -11 -10 -13c-17 -5 -34 -8 -48 -8c-62 0 -97 43 -97 91c0 35 19 72 58 97v386c0 8 6 14 14 14h42zM105 460
c-26 0 -47 21 -47 47c0 27 21 48 47 48c27 0 48 -21 48 -48c0 -26 -21 -47 -48 -47z" />
    <glyph glyph-name="itilde" unicode="&#x129;" horiz-adv-x="205" 
d="M124 400c8 0 14 -6 14 -14v-372c0 -8 -6 -14 -14 -14h-42c-8 0 -14 6 -14 14v372c0 8 6 14 14 14h42zM58 557c47 -3 62 -36 94 -39c26 -1 38 14 43 26c3 7 4 13 14 10l30 -10c7 -2 11 -9 9 -16c-8 -23 -32 -73 -100 -68c-42 5 -67 38 -92 41c-26 2 -38 -13 -44 -25
c-4 -8 -4 -14 -18 -10l-26 8c-7 2 -11 8 -9 15c8 23 32 70 99 68z" />
    <glyph glyph-name="j" unicode="j" horiz-adv-x="199" 
d="M62 -105v491c0 8 6 14 14 14h42c8 0 14 -6 14 -14v-484c0 -110 -64 -161 -146 -161c-34 0 -72 12 -107 40c-6 4 -7 12 -2 18l18 24c6 8 14 8 22 3c22 -17 48 -24 69 -24c47 0 76 31 76 93zM97 460c-26 0 -47 21 -47 47c0 27 21 48 47 48c27 0 48 -21 48 -48
c0 -26 -21 -47 -48 -47z" />
    <glyph glyph-name="jcircumflex" unicode="&#x135;" horiz-adv-x="201" 
d="M62 -145v531c0 8 6 14 14 14h42c8 0 14 -6 14 -14v-524c0 -110 -64 -161 -146 -161c-34 0 -72 12 -107 40c-6 4 -7 12 -2 18l18 24c6 8 14 8 22 3c22 -17 48 -24 69 -24c47 0 76 31 76 93zM40 475c-2 -3 -7 -5 -10 -5h-28c-15 0 -20 9 -11 22l71 106c2 4 7 6 11 6h47
c4 0 9 -2 11 -6l72 -106c9 -13 4 -22 -11 -22h-28c-3 0 -8 2 -10 5l-57 67z" />
    <glyph glyph-name="k" unicode="k" horiz-adv-x="438" 
d="M122 700c8 0 14 -6 14 -14v-476l177 186c2 2 6 4 10 4h53c20 0 24 -10 10 -24l-179 -176l179 -176c14 -14 10 -24 -10 -24h-53c-4 0 -8 2 -10 4l-177 185v-175c0 -8 -6 -14 -14 -14h-42c-8 0 -14 6 -14 14v672c0 8 6 14 14 14h42z" />
    <glyph glyph-name="kcommaaccent" unicode="&#x137;" horiz-adv-x="438" 
d="M232 -60c13 0 18 -8 12 -20l-54 -112c-2 -5 -8 -8 -13 -8h-23c-12 0 -17 7 -13 19l39 112c2 5 7 9 13 9h39zM122 700c8 0 14 -6 14 -14v-476l177 186c2 2 6 4 10 4h53c20 0 24 -10 10 -24l-179 -176l179 -176c14 -14 10 -24 -10 -24h-53c-4 0 -8 2 -10 4l-177 185v-175
c0 -8 -6 -14 -14 -14h-42c-8 0 -14 6 -14 14v672c0 8 6 14 14 14h42z" />
    <glyph glyph-name="kgreenlandic" unicode="&#x138;" horiz-adv-x="438" 
d="M122 400c8 0 14 -6 14 -14v-176l177 186c2 2 6 4 10 4h53c20 0 24 -10 10 -24l-179 -176l179 -176c14 -14 10 -24 -10 -24h-53c-4 0 -8 2 -10 4l-177 185v-175c0 -8 -6 -14 -14 -14h-42c-8 0 -14 6 -14 14v372c0 8 6 14 14 14h42z" />
    <glyph glyph-name="l" unicode="l" horiz-adv-x="202" 
d="M122 700c8 0 14 -6 14 -14v-672c0 -8 -6 -14 -14 -14h-42c-8 0 -14 6 -14 14v672c0 8 6 14 14 14h42z" />
    <glyph glyph-name="lacute" unicode="&#x13a;" horiz-adv-x="206" 
d="M122 700c8 0 14 -6 14 -14v-672c0 -8 -6 -14 -14 -14h-42c-8 0 -14 6 -14 14v672c0 8 6 14 14 14h42zM187 898c14 0 19 -8 12 -21l-62 -110c-2 -4 -7 -7 -12 -7h-31c-13 0 -18 8 -13 19l44 110c3 6 8 9 13 9h49z" />
    <glyph glyph-name="lcaron" unicode="&#x13e;" horiz-adv-x="342" 
d="M122 700c8 0 14 -6 14 -14v-672c0 -8 -6 -14 -14 -14h-42c-8 0 -14 6 -14 14v672c0 8 6 14 14 14h42zM324 699c11 0 16 -7 13 -17l-48 -189c-2 -7 -7 -11 -14 -11h-28c-9 0 -15 6 -14 16l29 189c1 7 7 12 14 12h48z" />
    <glyph glyph-name="lcommaaccent" unicode="&#x13c;" horiz-adv-x="205" 
d="M125 700c8 0 14 -6 14 -14v-672c0 -8 -6 -14 -14 -14h-42c-8 0 -14 6 -14 14v672c0 8 6 14 14 14h42zM116 -60c13 0 18 -8 12 -20l-54 -112c-2 -5 -8 -8 -13 -8h-23c-12 0 -17 7 -13 19l39 112c2 5 7 9 13 9h39z" />
    <glyph glyph-name="ldot" unicode="&#x140;" horiz-adv-x="308" 
d="M122 700c8 0 14 -6 14 -14v-672c0 -8 -6 -14 -14 -14h-42c-8 0 -14 6 -14 14v672c0 8 6 14 14 14h42zM260 313c-26 0 -47 21 -47 47c0 27 21 48 47 48c27 0 48 -21 48 -48c0 -26 -21 -47 -48 -47z" />
    <glyph glyph-name="less" unicode="&#x3c;" horiz-adv-x="384" 
d="M54 165c-4 2 -7 7 -7 12v44c0 5 3 10 7 12l262 152c13 7 21 2 21 -12v-37c0 -5 -3 -10 -7 -12l-216 -124l216 -126c4 -2 7 -7 7 -12v-37c0 -14 -8 -19 -21 -12z" />
    <glyph glyph-name="less.case" horiz-adv-x="384" 
d="M54 245c-4 2 -7 7 -7 12v44c0 5 3 10 7 12l262 152c13 7 21 2 21 -12v-37c0 -5 -3 -10 -7 -12l-216 -124l216 -126c4 -2 7 -7 7 -12v-37c0 -14 -8 -19 -21 -12z" />
    <glyph glyph-name="lessequal" unicode="&#x2264;" horiz-adv-x="384" 
d="M323 60c8 0 14 -6 14 -14v-32c0 -8 -6 -14 -14 -14h-262c-8 0 -14 6 -14 14v32c0 8 6 14 14 14h262zM55 224c-5 3 -8 8 -8 13v42c0 5 3 10 8 13l262 115c12 6 20 0 20 -12v-35c0 -5 -3 -10 -9 -13l-217 -88l217 -90c6 -3 9 -8 9 -13v-35c0 -12 -8 -18 -20 -12z" />
    <glyph glyph-name="litre" unicode="&#x2113;" horiz-adv-x="448" 
d="M86 232c-6 -4 -14 -3 -19 4l-3 5c-5 6 -4 14 3 19l69 50v250c0 99 54 149 126 149c64 0 115 -40 115 -123c0 -61 -24 -153 -200 -289v-186c0 -68 54 -84 88 -84c32 0 65 13 94 33c7 6 15 5 21 -3l5 -7c4 -7 3 -14 -4 -19c-41 -29 -77 -40 -122 -40
c-65 0 -123 33 -123 128v147c-16 -11 -32 -22 -50 -34zM177 559v-216c139 114 161 179 161 242c0 69 -46 90 -76 90c-31 0 -85 -21 -85 -116z" />
    <glyph glyph-name="logicalnot" unicode="&#xac;" horiz-adv-x="449" 
d="M61 200c-8 0 -14 6 -14 14v72c0 8 6 14 14 14h308c8 0 14 -6 14 -14v-186c0 -8 -6 -14 -14 -14h-85c-8 0 -14 6 -14 14v100h-209z" />
    <glyph glyph-name="lozenge" unicode="&#x25ca;" horiz-adv-x="627" 
d="M342 700c5 0 10 -3 12 -7l212 -336c3 -4 3 -10 0 -14l-212 -336c-2 -4 -7 -7 -12 -7h-57c-5 0 -10 3 -12 7l-212 336c-3 4 -3 10 0 14l212 336c2 4 7 7 12 7h57zM313 642l-180 -292l180 -292l181 292z" />
    <glyph glyph-name="lslash" unicode="&#x142;" horiz-adv-x="237" 
d="M138 700c8 0 14 -6 14 -14v-383l65 31c12 5 20 0 20 -13v-35c0 -5 -3 -11 -8 -13l-77 -36v-223c0 -8 -6 -14 -14 -14h-42c-8 0 -14 6 -14 14v190l-62 -29c-12 -5 -20 0 -20 13v35c0 5 3 11 8 13l74 35v415c0 8 6 14 14 14h42z" />
    <glyph glyph-name="m" unicode="m" horiz-adv-x="755" 
d="M359 0c-8 0 -14 6 -14 14v228c0 81 -42 111 -97 111c-63 0 -112 -60 -112 -120v-219c0 -8 -6 -14 -14 -14h-42c-8 0 -14 6 -14 14v372c0 8 6 14 14 14h42c8 0 14 -6 14 -14v-50c27 42 68 73 128 73c65 0 114 -29 136 -90c25 51 81 90 143 90c86 0 151 -49 151 -157v-238
c0 -8 -6 -14 -14 -14h-42c-8 0 -14 6 -14 14v228c0 81 -42 111 -97 111c-62 0 -110 -57 -112 -116v-223c0 -8 -6 -14 -14 -14h-42z" />
    <glyph glyph-name="macron" unicode="&#xaf;" horiz-adv-x="207" 
d="M14 470c-8 0 -14 6 -14 14v27c0 8 6 14 14 14h179c8 0 14 -6 14 -14v-27c0 -8 -6 -14 -14 -14h-179z" />
    <glyph glyph-name="mu" unicode="&#xb5;" horiz-adv-x="495" 
d="M131 -230c0 -8 -6 -14 -14 -14h-42c-8 0 -14 6 -14 14v616c0 8 6 14 14 14h42c8 0 14 -6 14 -14v-215c0 -96 55 -124 110 -124c61 0 118 51 118 126v213c0 8 6 14 14 14h42c8 0 14 -6 14 -14v-372c0 -8 -6 -14 -14 -14h-42c-8 0 -14 6 -14 14v50
c-30 -47 -77 -73 -134 -73c-34 0 -72 13 -94 36v-257z" />
    <glyph glyph-name="multiply" unicode="&#xd7;" horiz-adv-x="446" 
d="M127 62c-6 -6 -14 -6 -20 0l-22 22c-6 6 -6 14 0 20l95 95l-95 96c-6 6 -6 14 0 20l22 22c6 6 14 6 20 0l96 -95l96 96c6 6 14 6 20 0l22 -22c6 -6 6 -14 0 -20l-96 -97l96 -96c6 -6 6 -14 0 -20l-22 -22c-6 -6 -14 -6 -20 0l-96 96z" />
    <glyph glyph-name="multiply.case" horiz-adv-x="446" 
d="M127 142c-6 -6 -14 -6 -20 0l-22 22c-6 6 -6 14 0 20l95 95l-95 96c-6 6 -6 14 0 20l22 22c6 6 14 6 20 0l96 -95l96 96c6 6 14 6 20 0l22 -22c6 -6 6 -14 0 -20l-96 -97l96 -96c6 -6 6 -14 0 -20l-22 -22c-6 -6 -14 -6 -20 0l-96 96z" />
    <glyph glyph-name="n" unicode="n" horiz-adv-x="495" 
d="M80 0c-8 0 -14 6 -14 14v372c0 8 6 14 14 14h42c8 0 14 -6 14 -14v-50c30 47 77 73 134 73c86 0 164 -47 164 -167v-228c0 -8 -6 -14 -14 -14h-42c-8 0 -14 6 -14 14v215c0 96 -55 124 -110 124c-61 0 -118 -51 -118 -126v-213c0 -8 -6 -14 -14 -14h-42z" />
    <glyph glyph-name="nacute" unicode="&#x144;" horiz-adv-x="495" 
d="M342 598c14 0 19 -8 12 -21l-62 -110c-2 -4 -7 -7 -12 -7h-31c-13 0 -18 8 -13 19l44 110c3 6 8 9 13 9h49zM80 0c-8 0 -14 6 -14 14v372c0 8 6 14 14 14h42c8 0 14 -6 14 -14v-50c30 47 77 73 134 73c86 0 164 -47 164 -167v-228c0 -8 -6 -14 -14 -14h-42
c-8 0 -14 6 -14 14v215c0 96 -55 124 -110 124c-61 0 -118 -51 -118 -126v-213c0 -8 -6 -14 -14 -14h-42z" />
    <glyph glyph-name="napostrophe" unicode="&#x149;" horiz-adv-x="610" 
d="M112 700c11 0 16 -7 13 -17l-48 -189c-2 -7 -7 -11 -14 -11h-28c-9 0 -15 6 -14 16l29 189c1 7 7 12 14 12h48zM195 0c-8 0 -14 6 -14 14v372c0 8 6 14 14 14h42c8 0 14 -6 14 -14v-50c30 47 77 73 134 73c86 0 164 -47 164 -167v-228c0 -8 -6 -14 -14 -14h-42
c-8 0 -14 6 -14 14v215c0 96 -55 124 -110 124c-61 0 -118 -51 -118 -126v-213c0 -8 -6 -14 -14 -14h-42z" />
    <glyph glyph-name="ncaron" unicode="&#x148;" horiz-adv-x="495" 
d="M153 572c-9 13 -4 22 11 22h28c3 0 8 -2 10 -5l57 -67l57 67c2 3 7 5 10 5h28c15 0 20 -9 11 -22l-72 -106c-2 -4 -7 -6 -11 -6h-47c-4 0 -9 2 -11 6zM80 0c-8 0 -14 6 -14 14v372c0 8 6 14 14 14h42c8 0 14 -6 14 -14v-50c30 47 77 73 134 73c86 0 164 -47 164 -167
v-228c0 -8 -6 -14 -14 -14h-42c-8 0 -14 6 -14 14v215c0 96 -55 124 -110 124c-61 0 -118 -51 -118 -126v-213c0 -8 -6 -14 -14 -14h-42z" />
    <glyph glyph-name="ncommaaccent" unicode="&#x146;" horiz-adv-x="495" 
d="M258 -60c13 0 18 -8 12 -20l-54 -112c-2 -5 -8 -8 -13 -8h-23c-12 0 -17 7 -13 19l39 112c2 5 7 9 13 9h39zM80 0c-8 0 -14 6 -14 14v372c0 8 6 14 14 14h42c8 0 14 -6 14 -14v-50c30 47 77 73 134 73c86 0 164 -47 164 -167v-228c0 -8 -6 -14 -14 -14h-42
c-8 0 -14 6 -14 14v215c0 96 -55 124 -110 124c-61 0 -118 -51 -118 -126v-213c0 -8 -6 -14 -14 -14h-42z" />
    <glyph glyph-name="nine" unicode="9" horiz-adv-x="545" 
d="M272 709c122 0 226 -93 225 -219c0 -30 -10 -75 -43 -139l-192 -344c-2 -4 -7 -7 -12 -7h-50c-14 0 -19 8 -12 21l155 266c-20 -13 -56 -18 -76 -18c-121 0 -220 87 -220 221c0 124 104 219 225 219zM272 331c82 0 153 65 153 159c0 96 -72 157 -153 157
c-80 0 -153 -64 -153 -157c0 -95 74 -159 153 -159z" />
    <glyph glyph-name="nine.dnom" horiz-adv-x="290" 
d="M145 306c58 0 103 -42 103 -98c0 -13 -1 -33 -16 -61l-84 -140c-2 -4 -7 -7 -12 -7h-19c-15 0 -20 8 -12 21l56 93c-7 -3 -18 -3 -23 -3c-57 0 -96 43 -96 97c0 56 46 98 103 98zM145 149c32 0 57 22 57 59c0 34 -25 57 -57 57c-31 0 -57 -25 -57 -57
c0 -33 23 -59 57 -59z" />
    <glyph glyph-name="nine.numr" horiz-adv-x="290" 
d="M145 706c58 0 103 -42 103 -98c0 -13 -1 -33 -16 -61l-84 -140c-2 -4 -7 -7 -12 -7h-19c-15 0 -20 8 -12 21l56 93c-7 -3 -18 -3 -23 -3c-57 0 -96 43 -96 97c0 56 46 98 103 98zM145 549c32 0 57 22 57 59c0 34 -25 57 -57 57c-31 0 -57 -25 -57 -57
c0 -33 23 -59 57 -59z" />
    <glyph glyph-name="nine.onum" horiz-adv-x="545" 
d="M272 501c122 0 226 -93 225 -219c0 -30 -10 -75 -43 -139l-192 -344c-2 -4 -7 -7 -12 -7h-50c-14 0 -19 8 -12 21l155 266c-20 -13 -56 -18 -76 -18c-121 0 -220 87 -220 221c0 124 104 219 225 219zM272 123c82 0 153 65 153 159c0 96 -72 157 -153 157
c-80 0 -153 -64 -153 -157c0 -95 74 -159 153 -159z" />
    <glyph glyph-name="nine.tnum" horiz-adv-x="600" 
d="M300 709c122 0 225 -95 225 -219c0 -30 -10 -75 -43 -139l-192 -344c-2 -4 -7 -7 -12 -7h-50c-14 0 -19 8 -12 21l155 266c-20 -13 -56 -18 -76 -18c-121 0 -220 87 -220 221c0 124 104 219 225 219zM300 332c82 0 153 61 153 158c0 96 -72 157 -153 157
c-80 0 -153 -64 -153 -157c0 -92 71 -158 153 -158z" />
    <glyph glyph-name="nine.tonum" horiz-adv-x="600" 
d="M300 501c122 0 225 -95 225 -219c0 -30 -10 -75 -43 -139l-192 -344c-2 -4 -7 -7 -12 -7h-50c-14 0 -19 8 -12 21l155 266c-20 -13 -56 -18 -76 -18c-121 0 -220 87 -220 221c0 124 104 219 225 219zM300 124c82 0 153 61 153 158c0 96 -72 157 -153 157
c-80 0 -153 -64 -153 -157c0 -92 71 -158 153 -158z" />
    <glyph glyph-name="nineinferior" unicode="&#x2089;" horiz-adv-x="290" 
d="M145 166c58 0 103 -42 103 -98c0 -13 -1 -33 -16 -61l-84 -140c-2 -4 -7 -7 -12 -7h-19c-15 0 -20 8 -12 21l56 93c-7 -3 -18 -3 -23 -3c-57 0 -96 43 -96 97c0 56 46 98 103 98zM145 9c32 0 57 22 57 59c0 34 -25 57 -57 57c-31 0 -57 -25 -57 -57c0 -33 23 -59 57 -59z
" />
    <glyph glyph-name="ninesuperior" unicode="&#x2079;" horiz-adv-x="290" 
d="M145 816c58 0 103 -42 103 -98c0 -13 -1 -33 -16 -61l-84 -140c-2 -4 -7 -7 -12 -7h-19c-15 0 -20 8 -12 21l56 93c-7 -3 -18 -3 -23 -3c-57 0 -96 43 -96 97c0 56 46 98 103 98zM145 659c32 0 57 22 57 59c0 34 -25 57 -57 57c-31 0 -57 -25 -57 -57
c0 -33 23 -59 57 -59z" />
    <glyph glyph-name="notequal" unicode="&#x2260;" horiz-adv-x="459" 
d="M80 340c-8 0 -14 6 -14 14v32c0 8 6 14 14 14h156l48 124c2 5 7 9 13 9h38c12 0 17 -8 13 -19l-44 -114h75c8 0 14 -6 14 -14v-32c0 -8 -6 -14 -14 -14h-98l-46 -120h144c8 0 14 -6 14 -14v-32c0 -8 -6 -14 -14 -14h-167l-58 -151c-2 -5 -7 -9 -13 -9h-38
c-12 0 -17 8 -13 19l54 141h-64c-8 0 -14 6 -14 14v32c0 8 6 14 14 14h87l46 120h-133z" />
    <glyph glyph-name="ntilde" unicode="&#xf1;" horiz-adv-x="495" 
d="M203 557c47 -3 62 -36 94 -39c26 -1 38 14 43 26c3 7 4 13 19 8l25 -8c7 -2 11 -9 9 -16c-8 -23 -32 -73 -100 -68c-42 5 -67 38 -92 41c-27 2 -40 -15 -45 -27c-3 -7 -3 -12 -17 -8l-26 8c-7 2 -11 8 -9 15c8 23 32 70 99 68zM80 0c-8 0 -14 6 -14 14v372
c0 8 6 14 14 14h42c8 0 14 -6 14 -14v-50c30 47 77 73 134 73c86 0 164 -47 164 -167v-228c0 -8 -6 -14 -14 -14h-42c-8 0 -14 6 -14 14v215c0 96 -55 124 -110 124c-61 0 -118 -51 -118 -126v-213c0 -8 -6 -14 -14 -14h-42z" />
    <glyph glyph-name="numbersign" unicode="#" horiz-adv-x="576" 
d="M186 12c-1 -7 -7 -12 -14 -12h-12c-10 0 -15 6 -14 16l20 159h-84c-10 0 -15 6 -14 16l1 12c1 7 7 12 14 12h88l24 201h-84c-10 0 -15 6 -14 16l1 12c1 7 7 12 14 12h88l21 172c1 7 7 12 14 12h12c10 0 15 -6 14 -16l-21 -168h130l21 172c1 7 7 12 14 12h12
c10 0 15 -6 14 -16l-21 -168h84c10 0 15 -6 14 -16l-1 -12c-1 -7 -7 -12 -14 -12h-88l-24 -201h84c10 0 15 -6 14 -16l-1 -12c-1 -7 -7 -12 -14 -12h-88l-20 -163c-1 -7 -7 -12 -14 -12h-12c-10 0 -15 6 -14 16l20 159h-130zM235 416l-24 -201h130l24 201h-130z" />
    <glyph glyph-name="o" unicode="o" horiz-adv-x="494" 
d="M247 409c115 0 209 -88 209 -209s-94 -209 -209 -209s-209 88 -209 209s94 209 209 209zM247 48c78 0 139 59 139 152s-61 152 -139 152s-139 -59 -139 -152s61 -152 139 -152z" />
    <glyph glyph-name="oacute" unicode="&#xf3;" horiz-adv-x="494" 
d="M335 598c14 0 19 -8 12 -21l-62 -110c-2 -4 -7 -7 -12 -7h-31c-13 0 -18 8 -13 19l44 110c3 6 8 9 13 9h49zM247 409c115 0 209 -88 209 -209s-94 -209 -209 -209s-209 88 -209 209s94 209 209 209zM247 48c78 0 139 59 139 152s-61 152 -139 152s-139 -59 -139 -152
s61 -152 139 -152z" />
    <glyph glyph-name="obreve" unicode="&#x14f;" horiz-adv-x="494" 
d="M132 558c-1 8 5 14 13 14h30c8 0 14 -6 15 -14c5 -23 21 -45 57 -45c24 0 51 17 58 45c1 8 7 14 15 14h29c8 0 14 -6 13 -14c-7 -58 -57 -98 -115 -98s-108 40 -115 98zM247 409c115 0 209 -88 209 -209s-94 -209 -209 -209s-209 88 -209 209s94 209 209 209zM247 48
c78 0 139 59 139 152s-61 152 -139 152s-139 -59 -139 -152s61 -152 139 -152z" />
    <glyph glyph-name="ocircumflex" unicode="&#xf4;" horiz-adv-x="494" 
d="M190 475c-2 -3 -7 -5 -10 -5h-28c-15 0 -20 9 -11 22l71 106c2 4 7 6 11 6h47c4 0 9 -2 11 -6l72 -106c9 -13 4 -22 -11 -22h-28c-3 0 -8 2 -10 5l-57 67zM247 409c115 0 209 -88 209 -209s-94 -209 -209 -209s-209 88 -209 209s94 209 209 209zM247 48
c78 0 139 59 139 152s-61 152 -139 152s-139 -59 -139 -152s61 -152 139 -152z" />
    <glyph glyph-name="odieresis" unicode="&#xf6;" horiz-adv-x="494" 
d="M165 459c-26 0 -47 21 -47 47c0 27 21 48 47 48c27 0 48 -21 48 -48c0 -26 -21 -47 -48 -47zM328 459c-26 0 -47 21 -47 47c0 27 21 48 47 48c27 0 48 -21 48 -48c0 -26 -21 -47 -48 -47zM247 409c115 0 209 -88 209 -209s-94 -209 -209 -209s-209 88 -209 209
s94 209 209 209zM247 48c78 0 139 59 139 152s-61 152 -139 152s-139 -59 -139 -152s61 -152 139 -152z" />
    <glyph glyph-name="oe" unicode="&#x153;" horiz-adv-x="809" 
d="M588 -9c-76 0 -137 35 -170 93c-36 -58 -100 -93 -171 -93c-115 0 -209 91 -209 209s94 209 209 209c71 0 136 -38 172 -96c34 58 95 96 167 96c115 0 185 -79 185 -209c0 -4 0 -8 -1 -11c0 -7 -5 -11 -12 -11h-302c5 -78 61 -127 132 -127c42 0 81 16 111 43
c6 6 14 7 21 0l21 -21c5 -6 5 -14 0 -20c-44 -42 -92 -62 -153 -62zM584 353c-69 0 -117 -50 -127 -122h245c-4 79 -50 122 -118 122zM247 48c78 0 140 59 140 152s-62 152 -140 152s-139 -59 -139 -152s61 -152 139 -152z" />
    <glyph glyph-name="ogonek" unicode="&#x2db;" horiz-adv-x="155" 
d="M53 -88c0 -27 18 -49 57 -49c8 0 16 1 26 3c12 2 19 -3 19 -14v-19c0 -6 -4 -11 -10 -13c-17 -5 -34 -8 -48 -8c-62 0 -97 43 -97 91c0 40 25 83 77 108h53l5 -11c-53 -13 -82 -54 -82 -88z" />
    <glyph glyph-name="ograve" unicode="&#xf2;" horiz-adv-x="494" 
d="M226 460c-5 0 -10 3 -12 7l-62 110c-7 13 -2 21 12 21h49c5 0 10 -3 13 -9l44 -110c5 -11 0 -19 -13 -19h-31zM247 409c115 0 209 -88 209 -209s-94 -209 -209 -209s-209 88 -209 209s94 209 209 209zM247 48c78 0 139 59 139 152s-61 152 -139 152s-139 -59 -139 -152
s61 -152 139 -152z" />
    <glyph glyph-name="ohungarumlaut" unicode="&#x151;" horiz-adv-x="494" 
d="M266 598c14 0 19 -8 12 -21l-62 -110c-2 -4 -7 -7 -12 -7h-31c-13 0 -18 8 -13 19l44 110c3 6 8 9 13 9h49zM403 598c14 0 19 -8 12 -21l-62 -110c-2 -4 -7 -7 -12 -7h-31c-13 0 -18 8 -13 19l44 110c3 6 8 9 13 9h49zM247 409c115 0 209 -88 209 -209
s-94 -209 -209 -209s-209 88 -209 209s94 209 209 209zM247 48c78 0 139 59 139 152s-61 152 -139 152s-139 -59 -139 -152s61 -152 139 -152z" />
    <glyph glyph-name="omacron" unicode="&#x14d;" horiz-adv-x="494" 
d="M157 470c-8 0 -14 6 -14 14v27c0 8 6 14 14 14h179c8 0 14 -6 14 -14v-27c0 -8 -6 -14 -14 -14h-179zM247 409c115 0 209 -88 209 -209s-94 -209 -209 -209s-209 88 -209 209s94 209 209 209zM247 48c78 0 139 59 139 152s-61 152 -139 152s-139 -59 -139 -152
s61 -152 139 -152z" />
    <glyph glyph-name="one" unicode="1" horiz-adv-x="345" 
d="M36 551c-5 7 -4 14 2 20l147 126c2 2 6 3 9 3h53c8 0 14 -6 14 -14v-672c0 -8 -6 -14 -14 -14h-44c-8 0 -14 6 -14 14v592l-116 -80c-7 -5 -14 -4 -19 3z" />
    <glyph glyph-name="one.dnom" horiz-adv-x="228" 
d="M40 216c-4 7 -3 14 3 19l82 62c2 2 6 3 9 3h28c8 0 14 -6 14 -14v-272c0 -8 -6 -14 -14 -14h-19c-8 0 -14 6 -14 14v230l-64 -40c-7 -4 -15 -2 -20 4z" />
    <glyph glyph-name="one.numr" horiz-adv-x="228" 
d="M40 616c-4 7 -3 14 3 19l82 62c2 2 6 3 9 3h28c8 0 14 -6 14 -14v-272c0 -8 -6 -14 -14 -14h-19c-8 0 -14 6 -14 14v230l-64 -40c-7 -4 -15 -2 -20 4z" />
    <glyph glyph-name="one.onum" horiz-adv-x="428" 
d="M47 52c0 8 6 14 14 14h133v339l-121 -83c-7 -5 -14 -4 -19 2l-18 23c-5 7 -4 14 2 20l152 129c2 2 6 3 9 3h53c8 0 14 -6 14 -14v-419h120c8 0 14 -6 14 -14v-38c0 -8 -6 -14 -14 -14h-325c-8 0 -14 6 -14 14v38z" />
    <glyph glyph-name="one.tnum" horiz-adv-x="594" 
d="M126 52c0 8 6 14 14 14h133v540l-121 -83c-7 -5 -14 -4 -19 2l-18 23c-5 7 -4 14 2 20l152 129c2 2 6 3 9 3h53c8 0 14 -6 14 -14v-620h120c8 0 14 -6 14 -14v-38c0 -8 -6 -14 -14 -14h-325c-8 0 -14 6 -14 14v38z" />
    <glyph glyph-name="one.tonum" horiz-adv-x="594" 
d="M126 52c0 8 6 14 14 14h133v339l-121 -83c-7 -5 -14 -4 -19 2l-18 23c-5 7 -4 14 2 20l152 129c2 2 6 3 9 3h53c8 0 14 -6 14 -14v-419h120c8 0 14 -6 14 -14v-38c0 -8 -6 -14 -14 -14h-325c-8 0 -14 6 -14 14v38z" />
    <glyph glyph-name="onehalf" unicode="&#xbd;" horiz-adv-x="575" 
d="M398 700c12 0 17 -8 13 -19l-259 -672c-2 -5 -7 -9 -13 -9h-24c-12 0 -17 8 -13 19l258 672c2 5 7 9 13 9h25zM45 629c-4 6 -3 13 2 18l60 50c2 2 6 3 9 3h28c8 0 14 -6 14 -14v-272c0 -8 -6 -14 -14 -14h-19c-8 0 -14 6 -14 14v230l-43 -26c-7 -4 -15 -2 -19 4zM368 233
c-5 -7 -12 -9 -19 -5l-14 7c-7 4 -9 11 -6 17c15 26 48 54 98 54c68 0 98 -40 98 -89c0 -33 -17 -60 -42 -86c-31 -33 -57 -56 -88 -89h119c8 0 14 -6 14 -14v-14c0 -8 -6 -14 -14 -14h-166c-8 0 -14 6 -14 14v21c0 4 2 8 4 10l109 111c19 20 31 41 31 61
c0 23 -11 50 -51 50c-26 0 -46 -16 -59 -34z" />
    <glyph glyph-name="oneinferior" unicode="&#x2081;" horiz-adv-x="228" 
d="M40 76c-4 7 -3 14 3 19l82 62c2 2 6 3 9 3h28c8 0 14 -6 14 -14v-272c0 -8 -6 -14 -14 -14h-19c-8 0 -14 6 -14 14v230l-64 -40c-7 -4 -15 -2 -20 4z" />
    <glyph glyph-name="onequarter" unicode="&#xbc;" horiz-adv-x="562" 
d="M398 700c12 0 17 -8 13 -19l-259 -672c-2 -5 -7 -9 -13 -9h-24c-12 0 -17 8 -13 19l258 672c2 5 7 9 13 9h25zM45 629c-4 6 -3 13 2 18l60 50c2 2 6 3 9 3h28c8 0 14 -6 14 -14v-272c0 -8 -6 -14 -14 -14h-19c-8 0 -14 6 -14 14v230l-43 -26c-7 -4 -15 -2 -19 4zM478 14
c0 -8 -6 -14 -14 -14h-19c-8 0 -14 6 -14 14v51h-133c-8 0 -14 6 -14 14v22c0 3 1 5 2 7l106 185c2 4 7 7 12 7h23c14 0 19 -8 12 -21l-99 -173h91v53c0 8 6 14 14 14h19c8 0 14 -6 14 -14v-53h23c8 0 14 -6 14 -14v-13c0 -8 -6 -14 -14 -14h-23v-51z" />
    <glyph glyph-name="onesuperior" unicode="&#xb9;" horiz-adv-x="228" 
d="M40 726c-4 7 -3 14 3 19l82 62c2 2 6 3 9 3h28c8 0 14 -6 14 -14v-272c0 -8 -6 -14 -14 -14h-19c-8 0 -14 6 -14 14v230l-64 -40c-7 -4 -15 -2 -20 4z" />
    <glyph glyph-name="ordfeminine" unicode="&#xaa;" horiz-adv-x="304" 
d="M148 708c66 0 118 -26 118 -97v-149c0 -8 -6 -14 -14 -14h-23c-8 0 -14 6 -14 14v24c-19 -21 -53 -44 -93 -44c-70 0 -94 44 -94 86c0 44 34 83 109 83c15 0 45 -5 78 -21v21c0 41 -25 57 -68 57c-21 0 -47 -9 -68 -20c-7 -5 -15 -3 -20 4l-6 10c-4 7 -3 14 3 18
c28 19 58 28 92 28zM72 528c0 -16 9 -50 54 -50c48 0 81 35 89 47v33c-15 8 -47 21 -77 21c-39 0 -66 -22 -66 -51z" />
    <glyph glyph-name="ordmasculine" unicode="&#xba;" horiz-adv-x="318" 
d="M152 702c71 0 128 -52 128 -126s-57 -126 -128 -126s-128 52 -128 126s57 126 128 126zM152 498c40 0 73 32 73 78c0 45 -33 78 -73 78s-73 -33 -73 -78c0 -46 33 -78 73 -78z" />
    <glyph glyph-name="oslash" unicode="&#xf8;" horiz-adv-x="497" 
d="M247 409c50 0 96 -17 132 -45l43 43c6 6 14 6 20 0l19 -20c6 -6 6 -14 0 -20l-44 -44c25 -34 39 -76 39 -123c0 -121 -94 -209 -209 -209c-46 0 -89 13 -124 38l-40 -40c-6 -6 -14 -6 -20 0l-19 20c-6 6 -6 14 0 20l39 39c-28 35 -45 81 -45 132c0 121 94 209 209 209z
M108 200c0 -34 8 -62 21 -86l206 206c-24 21 -54 32 -88 32c-78 0 -139 -59 -139 -152zM247 48c78 0 139 59 139 152c0 28 -6 54 -17 75l-202 -202c22 -16 50 -25 80 -25z" />
    <glyph glyph-name="oslashacute" unicode="&#x1ff;" horiz-adv-x="497" 
d="M333 598c14 0 19 -8 12 -21l-62 -110c-2 -4 -7 -7 -12 -7h-31c-13 0 -18 8 -13 19l44 110c3 6 8 9 13 9h49zM247 409c50 0 96 -17 132 -45l43 43c6 6 14 6 20 0l19 -20c6 -6 6 -14 0 -20l-44 -44c25 -34 39 -76 39 -123c0 -121 -94 -209 -209 -209c-46 0 -89 13 -124 38
l-40 -40c-6 -6 -14 -6 -20 0l-19 20c-6 6 -6 14 0 20l39 39c-28 35 -45 81 -45 132c0 121 94 209 209 209zM108 200c0 -34 8 -62 21 -86l206 206c-24 21 -54 32 -88 32c-78 0 -139 -59 -139 -152zM247 48c78 0 139 59 139 152c0 28 -6 54 -17 75l-202 -202
c22 -16 50 -25 80 -25z" />
    <glyph glyph-name="otilde" unicode="&#xf5;" horiz-adv-x="494" 
d="M201 557c47 -3 62 -36 94 -39c27 -1 39 15 44 27c3 7 3 12 20 7l23 -8c7 -2 11 -9 9 -16c-8 -23 -32 -73 -100 -68c-42 5 -67 38 -92 41c-26 2 -39 -14 -44 -26c-3 -7 -4 -13 -18 -9l-26 8c-7 2 -11 8 -9 15c8 23 32 70 99 68zM247 409c115 0 209 -88 209 -209
s-94 -209 -209 -209s-209 88 -209 209s94 209 209 209zM247 48c78 0 139 59 139 152s-61 152 -139 152s-139 -59 -139 -152s61 -152 139 -152z" />
    <glyph glyph-name="p" unicode="p" 
d="M486 200c0 -122 -84 -209 -200 -209c-53 0 -118 28 -150 73v-308c0 -8 -6 -14 -14 -14h-42c-8 0 -14 6 -14 14v630c0 8 6 14 14 14h42c8 0 14 -6 14 -14v-50c32 45 97 73 150 73c116 0 200 -87 200 -209zM414 200c0 88 -61 153 -139 153c-84 0 -145 -65 -145 -153
s61 -153 145 -153c78 0 139 65 139 153z" />
    <glyph glyph-name="paragraph" unicode="&#xb6;" horiz-adv-x="583" 
d="M494 700c8 0 14 -6 14 -14v-29c0 -8 -6 -14 -14 -14h-51v-629c0 -8 -6 -14 -14 -14h-32c-8 0 -14 6 -14 14v629h-78v-629c0 -8 -6 -14 -14 -14h-32c-8 0 -14 6 -14 14v367h-31c-88 0 -158 62 -158 159s70 160 158 160h280z" />
    <glyph glyph-name="parenleft" unicode="(" horiz-adv-x="298" 
d="M269 -129c6 -7 6 -15 -1 -21l-29 -26c-6 -5 -14 -5 -19 1c-108 119 -173 273 -173 445s65 326 173 445c5 6 13 6 19 1l29 -26c7 -6 7 -14 1 -21c-95 -105 -148 -247 -148 -399s53 -294 148 -399z" />
    <glyph glyph-name="parenleft.case" horiz-adv-x="298" 
d="M269 -49c6 -7 6 -15 -1 -21l-29 -26c-6 -5 -14 -5 -19 1c-108 119 -173 273 -173 445s65 326 173 445c5 6 13 6 19 1l29 -26c7 -6 7 -14 1 -21c-95 -105 -148 -247 -148 -399s53 -294 148 -399z" />
    <glyph glyph-name="parenright" unicode=")" horiz-adv-x="298" 
d="M78 -175c-5 -6 -13 -6 -19 -1l-29 26c-7 6 -7 14 -1 21c95 105 148 247 148 399s-53 294 -148 399c-6 7 -6 15 1 21l29 26c6 5 14 5 19 -1c108 -119 173 -273 173 -445s-65 -326 -173 -445z" />
    <glyph glyph-name="parenright.case" horiz-adv-x="298" 
d="M78 -95c-5 -6 -13 -6 -19 -1l-29 26c-7 6 -7 14 -1 21c95 105 148 247 148 399s-53 294 -148 399c-6 7 -6 15 1 21l29 26c6 5 14 5 19 -1c108 -119 173 -273 173 -445s-65 -326 -173 -445z" />
    <glyph glyph-name="partialdiff" unicode="&#x2202;" horiz-adv-x="544" 
d="M272 -9c-121 0 -225 95 -225 219c0 134 99 221 220 221c20 0 56 -5 76 -18l-155 266c-7 13 -2 21 12 21h50c5 0 10 -3 12 -7l192 -344c33 -64 43 -109 43 -139c0 -124 -103 -219 -225 -219zM272 368c-82 0 -153 -66 -153 -158c0 -93 73 -157 153 -157
c81 0 153 61 153 157c0 97 -71 158 -153 158z" />
    <glyph glyph-name="percent" unicode="%" horiz-adv-x="658" 
d="M167 7c-2 -4 -7 -7 -12 -7h-40c-14 0 -19 8 -12 21l388 672c2 4 7 7 12 7h40c14 0 19 -8 12 -21zM182 705c75 0 136 -61 136 -136s-61 -135 -136 -135s-135 60 -135 135s60 136 135 136zM182 490c45 0 80 34 80 79c0 44 -36 80 -80 80c-45 0 -79 -35 -79 -80
s34 -79 79 -79zM475 265c75 0 136 -61 136 -136s-61 -135 -136 -135s-135 60 -135 135s60 136 135 136zM475 50c45 0 80 34 80 79c0 44 -36 80 -80 80c-45 0 -79 -35 -79 -80s34 -79 79 -79z" />
    <glyph glyph-name="period" unicode="." horiz-adv-x="198" 
d="M94 -6c-26 0 -47 21 -47 47c0 27 21 48 47 48c27 0 48 -21 48 -48c0 -26 -21 -47 -48 -47z" />
    <glyph glyph-name="periodcentered" unicode="&#xb7;" horiz-adv-x="263" 
d="M131 154c-26 0 -47 21 -47 47c0 27 21 48 47 48c27 0 48 -21 48 -48c0 -26 -21 -47 -48 -47z" />
    <glyph glyph-name="periodcentered.case" horiz-adv-x="263" 
d="M131 234c-26 0 -47 21 -47 47c0 27 21 48 47 48c27 0 48 -21 48 -48c0 -26 -21 -47 -48 -47z" />
    <glyph glyph-name="perthousand" unicode="&#x2030;" horiz-adv-x="979" 
d="M167 7c-2 -4 -7 -7 -12 -7h-40c-14 0 -19 8 -12 21l388 672c2 4 7 7 12 7h40c14 0 19 -8 12 -21zM182 705c75 0 136 -61 136 -136s-61 -135 -136 -135s-135 60 -135 135s60 136 135 136zM182 490c45 0 80 34 80 79c0 44 -36 80 -80 80c-45 0 -79 -35 -79 -80
s34 -79 79 -79zM475 265c75 0 136 -61 136 -136s-61 -135 -136 -135s-135 60 -135 135s60 136 135 136zM475 50c45 0 80 34 80 79c0 44 -36 80 -80 80c-45 0 -79 -35 -79 -80s34 -79 79 -79zM796 265c75 0 136 -61 136 -136s-61 -135 -136 -135s-135 60 -135 135
s60 136 135 136zM796 50c45 0 80 34 80 79c0 44 -36 80 -80 80c-45 0 -79 -35 -79 -80s34 -79 79 -79z" />
    <glyph glyph-name="pi" unicode="&#x3c0;" horiz-adv-x="547" 
d="M473 53c9 2 16 -2 18 -11l5 -26c1 -7 -3 -14 -10 -15c-17 -4 -36 -7 -47 -7c-82 0 -115 42 -115 122v224h-111v-326c0 -8 -6 -14 -14 -14h-42c-8 0 -14 6 -14 14v326h-91c-8 0 -14 6 -14 14v32c0 8 6 14 14 14h434c8 0 14 -6 14 -14v-32c0 -8 -6 -14 -14 -14h-92v-227
c0 -14 -2 -63 45 -63c7 0 21 1 34 3z" />
    <glyph glyph-name="plus" unicode="+" horiz-adv-x="491" 
d="M80 170c-8 0 -14 6 -14 14v32c0 8 6 14 14 14h135v135c0 8 6 14 14 14h32c8 0 14 -6 14 -14v-135h136c8 0 14 -6 14 -14v-32c0 -8 -6 -14 -14 -14h-136v-136c0 -8 -6 -14 -14 -14h-32c-8 0 -14 6 -14 14v136h-135z" />
    <glyph glyph-name="plus.case" horiz-adv-x="491" 
d="M80 250c-8 0 -14 6 -14 14v32c0 8 6 14 14 14h135v135c0 8 6 14 14 14h32c8 0 14 -6 14 -14v-135h136c8 0 14 -6 14 -14v-32c0 -8 -6 -14 -14 -14h-136v-136c0 -8 -6 -14 -14 -14h-32c-8 0 -14 6 -14 14v136h-135z" />
    <glyph glyph-name="plusminus" unicode="&#xb1;" horiz-adv-x="491" 
d="M80 223c-8 0 -14 6 -14 14v32c0 8 6 14 14 14h135v103c0 8 6 14 14 14h32c8 0 14 -6 14 -14v-103h136c8 0 14 -6 14 -14v-32c0 -8 -6 -14 -14 -14h-136v-104c0 -8 -6 -14 -14 -14h-32c-8 0 -14 6 -14 14v104h-135zM425 14c0 -8 -6 -14 -14 -14h-331c-8 0 -14 6 -14 14v32
c0 8 6 14 14 14h331c8 0 14 -6 14 -14v-32z" />
    <glyph glyph-name="plusminus.case" horiz-adv-x="491" 
d="M80 303c-8 0 -14 6 -14 14v32c0 8 6 14 14 14h135v103c0 8 6 14 14 14h32c8 0 14 -6 14 -14v-103h136c8 0 14 -6 14 -14v-32c0 -8 -6 -14 -14 -14h-136v-104c0 -8 -6 -14 -14 -14h-32c-8 0 -14 6 -14 14v104h-135zM425 94c0 -8 -6 -14 -14 -14h-331c-8 0 -14 6 -14 14v32
c0 8 6 14 14 14h331c8 0 14 -6 14 -14v-32z" />
    <glyph glyph-name="product" unicode="&#x220f;" horiz-adv-x="618" 
d="M142 0c-8 0 -14 6 -14 14v620h-86c-8 0 -14 6 -14 14v38c0 8 6 14 14 14h534c8 0 14 -6 14 -14v-38c0 -8 -6 -14 -14 -14h-86v-620c0 -8 -6 -14 -14 -14h-46c-8 0 -14 6 -14 14v620h-214v-620c0 -8 -6 -14 -14 -14h-46z" />
    <glyph glyph-name="q" unicode="q" 
d="M38 200c0 122 84 209 200 209c53 0 118 -28 150 -73v50c0 8 6 14 14 14h42c8 0 14 -6 14 -14v-630c0 -8 -6 -14 -14 -14h-42c-8 0 -14 6 -14 14v308c-32 -45 -97 -73 -150 -73c-116 0 -200 87 -200 209zM110 200c0 -88 61 -153 139 -153c84 0 145 65 145 153
s-61 153 -145 153c-78 0 -139 -65 -139 -153z" />
    <glyph glyph-name="question" unicode="?" horiz-adv-x="476" 
d="M112 561c-4 -7 -12 -9 -19 -5l-35 19c-6 3 -9 11 -5 18c28 53 87 117 188 117c133 0 188 -83 188 -163c0 -173 -182 -147 -182 -294v-39c0 -8 -6 -14 -14 -14h-46c-8 0 -14 6 -14 14v34c0 186 181 159 181 299c0 51 -38 100 -114 100c-65 0 -103 -42 -128 -86zM162 42
c0 27 21 48 48 48s48 -21 48 -48s-21 -48 -48 -48s-48 21 -48 48z" />
    <glyph glyph-name="questiondown" unicode="&#xbf;" horiz-adv-x="476" 
d="M364 -160c5 7 12 10 19 6l34 -16c7 -4 10 -11 6 -18c-28 -53 -87 -117 -188 -117c-133 0 -188 83 -188 163c0 176 182 150 182 294v39c0 8 6 14 14 14h46c8 0 14 -6 14 -14v-34c0 -186 -180 -159 -180 -299c0 -51 37 -101 113 -101c65 0 103 40 128 83zM314 363
c0 -27 -21 -48 -48 -48s-48 21 -48 48s21 48 48 48s48 -21 48 -48z" />
    <glyph glyph-name="quotedbl" unicode="&#x22;" horiz-adv-x="304" 
d="M111 443c0 -9 -5 -14 -14 -14h-30c-9 0 -14 5 -14 14l-6 243c0 8 6 14 14 14h42c8 0 14 -6 14 -14zM251 443c0 -9 -5 -14 -14 -14h-30c-9 0 -14 5 -14 14l-6 243c0 8 6 14 14 14h42c8 0 14 -6 14 -14z" />
    <glyph glyph-name="quotedblbase" unicode="&#x201e;" horiz-adv-x="366" 
d="M140 100c11 0 16 -7 13 -17l-48 -189c-2 -7 -7 -11 -14 -11h-28c-9 0 -15 6 -14 16l29 189c1 7 7 12 14 12h48zM292 100c11 0 16 -7 13 -17l-48 -189c-2 -7 -7 -11 -14 -11h-28c-9 0 -15 6 -14 16l29 189c1 7 7 12 14 12h48z" />
    <glyph glyph-name="quotedblleft" unicode="&#x201c;" horiz-adv-x="366" 
d="M226 489c-11 0 -16 7 -13 17l48 189c2 7 7 11 14 11h28c9 0 15 -6 14 -16l-29 -189c-1 -7 -7 -12 -14 -12h-48zM74 489c-11 0 -16 7 -13 17l48 189c2 7 7 11 14 11h28c9 0 15 -6 14 -16l-29 -189c-1 -7 -7 -12 -14 -12h-48z" />
    <glyph glyph-name="quotedblright" unicode="&#x201d;" horiz-adv-x="366" 
d="M140 706c11 0 16 -7 13 -17l-48 -189c-2 -7 -7 -11 -14 -11h-28c-9 0 -15 6 -14 16l29 189c1 7 7 12 14 12h48zM292 706c11 0 16 -7 13 -17l-48 -189c-2 -7 -7 -11 -14 -11h-28c-9 0 -15 6 -14 16l29 189c1 7 7 12 14 12h48z" />
    <glyph glyph-name="quoteleft" unicode="&#x2018;" horiz-adv-x="214" 
d="M74 489c-11 0 -16 7 -13 17l48 189c2 7 7 11 14 11h28c9 0 15 -6 14 -16l-29 -189c-1 -7 -7 -12 -14 -12h-48z" />
    <glyph glyph-name="quoteright" unicode="&#x2019;" horiz-adv-x="214" 
d="M140 706c11 0 16 -7 13 -17l-48 -189c-2 -7 -7 -11 -14 -11h-28c-9 0 -15 6 -14 16l29 189c1 7 7 12 14 12h48z" />
    <glyph glyph-name="quotesinglbase" unicode="&#x201a;" horiz-adv-x="214" 
d="M140 100c11 0 16 -7 13 -17l-48 -189c-2 -7 -7 -11 -14 -11h-28c-9 0 -15 6 -14 16l29 189c1 7 7 12 14 12h48z" />
    <glyph glyph-name="quotesingle" unicode="'" horiz-adv-x="164" 
d="M111 443c0 -9 -5 -14 -14 -14h-30c-9 0 -14 5 -14 14l-6 243c0 8 6 14 14 14h42c8 0 14 -6 14 -14z" />
    <glyph glyph-name="r" unicode="r" horiz-adv-x="301" 
d="M80 0c-8 0 -14 6 -14 14v372c0 8 6 14 14 14h42c8 0 14 -6 14 -14v-50c33 47 81 71 133 71h9c5 -1 9 -5 9 -10v-45c0 -5 -4 -9 -9 -8h-9c-69 0 -133 -39 -133 -122v-208c0 -8 -6 -14 -14 -14h-42z" />
    <glyph glyph-name="racute" unicode="&#x155;" horiz-adv-x="301" 
d="M80 0c-8 0 -14 6 -14 14v372c0 8 6 14 14 14h42c8 0 14 -6 14 -14v-50c33 47 82 71 133 71h9c5 -1 9 -5 9 -10v-45c0 -5 -4 -9 -9 -8h-9c-69 0 -133 -38 -133 -121v-209c0 -8 -6 -14 -14 -14h-42zM240 598c14 0 19 -8 12 -21l-62 -110c-2 -4 -7 -7 -12 -7h-31
c-13 0 -18 8 -13 19l44 110c3 6 8 9 13 9h49z" />
    <glyph glyph-name="radical" unicode="&#x221a;" horiz-adv-x="518" 
d="M207 0c-6 0 -11 4 -13 9l-140 372c-4 11 1 19 13 19h50c6 0 11 -4 13 -9l103 -300l203 627c2 6 7 10 13 10h49c12 0 17 -7 14 -18l-238 -700c-2 -6 -7 -10 -13 -10h-54z" />
    <glyph glyph-name="rcaron" unicode="&#x159;" horiz-adv-x="303" 
d="M81 0c-8 0 -14 6 -14 14v372c0 8 6 14 14 14h42c8 0 14 -6 14 -14v-51c33 47 81 72 133 72h9c5 -1 9 -5 9 -10v-45c0 -5 -4 -9 -9 -8h-9c-69 0 -133 -39 -133 -122v-208c0 -8 -6 -14 -14 -14h-42zM62 572c-9 13 -4 22 11 22h28c3 0 8 -2 10 -5l57 -67l57 67c2 3 7 5 10 5
h28c15 0 20 -9 11 -22l-72 -106c-2 -4 -7 -6 -11 -6h-47c-4 0 -9 2 -11 6z" />
    <glyph glyph-name="rcommaaccent" unicode="&#x157;" horiz-adv-x="304" 
d="M83 0c-8 0 -14 6 -14 14v372c0 8 6 14 14 14h42c8 0 14 -6 14 -14v-51c33 47 81 72 133 72h9c5 -1 9 -5 9 -10v-45c0 -5 -4 -9 -9 -8h-9c-69 0 -133 -38 -133 -121v-209c0 -8 -6 -14 -14 -14h-42zM118 -60c13 0 18 -8 12 -20l-54 -112c-2 -5 -8 -8 -13 -8h-23
c-12 0 -17 7 -13 19l39 112c2 5 7 9 13 9h39z" />
    <glyph glyph-name="registered" unicode="&#xae;" horiz-adv-x="830" 
d="M56 351c0 198 161 359 359 359s359 -161 359 -359s-161 -359 -359 -359s-359 161 -359 359zM101 351c0 -176 141 -316 314 -316s314 140 314 316s-141 316 -314 316s-314 -140 -314 -316zM305 185c-8 0 -14 6 -14 14v322c0 8 6 14 14 14h149c59 0 107 -40 107 -107
c0 -59 -46 -104 -102 -107l89 -113c11 -14 6 -23 -11 -23h-41c-4 0 -9 2 -11 6l-96 130h-35v-122c0 -8 -6 -14 -14 -14h-35zM438 479h-84v-104h84c39 0 61 23 61 53s-22 51 -61 51z" />
    <glyph glyph-name="ring" unicode="&#x2da;" horiz-adv-x="184" 
d="M0 552c0 51 41 92 92 92s92 -41 92 -92s-41 -92 -92 -92s-92 41 -92 92zM42 552c0 -27 23 -50 50 -50s50 23 50 50s-23 50 -50 50s-50 -23 -50 -50z" />
    <glyph glyph-name="s" unicode="s" horiz-adv-x="370" 
d="M49 32c-7 4 -8 11 -4 18l16 25c5 8 13 9 21 4c25 -16 64 -29 102 -29c42 0 79 21 79 55c0 41 -41 57 -88 75c-57 22 -116 45 -116 119s57 110 128 110c42 0 89 -11 125 -32c7 -4 9 -11 5 -18l-15 -27c-4 -8 -12 -10 -20 -5c-25 14 -55 25 -86 25c-38 0 -70 -17 -70 -52
c0 -26 17 -42 78 -64c72 -26 128 -64 128 -128c0 -78 -70 -117 -150 -117c-42 0 -94 15 -133 41z" />
    <glyph glyph-name="sacute" unicode="&#x15b;" horiz-adv-x="370" 
d="M45 50c-4 -7 -3 -14 4 -18c39 -26 91 -41 133 -41c80 0 150 39 150 117c0 64 -56 102 -128 128c-61 22 -78 38 -78 64c0 35 32 52 70 52c31 0 61 -11 86 -25c8 -5 16 -3 20 5l15 27c4 7 2 14 -5 18c-36 21 -83 32 -125 32c-71 0 -128 -36 -128 -110s59 -97 116 -119
c47 -18 88 -34 88 -75c0 -34 -37 -55 -79 -55c-38 0 -77 13 -102 29c-8 5 -16 4 -21 -4zM277 598c14 0 19 -8 12 -21l-62 -110c-2 -4 -7 -7 -12 -7h-31c-13 0 -18 8 -13 19l44 110c3 5 8 9 13 9h49z" />
    <glyph glyph-name="scaron" unicode="&#x161;" horiz-adv-x="370" 
d="M45 50c-4 -7 -3 -14 4 -18c39 -26 91 -41 133 -41c80 0 150 39 150 117c0 64 -56 102 -128 128c-61 22 -78 38 -78 64c0 35 32 52 70 52c31 0 61 -11 86 -25c8 -5 16 -3 20 5l15 27c4 7 2 14 -5 18c-36 21 -83 32 -125 32c-71 0 -128 -36 -128 -110s59 -97 116 -119
c47 -18 88 -34 88 -75c0 -34 -37 -55 -79 -55c-38 0 -77 13 -102 29c-8 5 -16 4 -21 -4zM86 572c-9 13 -5 22 11 22h27c4 0 9 -2 11 -5l57 -67l57 67c2 3 7 5 10 5h28c15 0 20 -9 11 -22l-72 -106c-2 -4 -7 -6 -11 -6h-47c-4 0 -9 2 -11 6z" />
    <glyph glyph-name="scedilla" unicode="&#x15f;" horiz-adv-x="370" 
d="M187 -73h-11c-7 0 -12 5 -12 11v54c-39 4 -82 18 -115 40c-7 4 -8 11 -4 18l16 25c5 8 13 9 21 4c25 -16 64 -29 102 -29c42 0 79 21 79 55c0 41 -41 57 -88 75c-57 22 -116 45 -116 119s57 110 128 110c42 0 89 -11 125 -32c7 -4 9 -11 5 -18l-15 -27
c-4 -8 -12 -10 -20 -5c-25 14 -55 25 -86 25c-38 0 -70 -17 -70 -52c0 -26 17 -42 78 -64c72 -26 128 -64 128 -128c0 -72 -60 -111 -132 -116v-29c55 -1 82 -38 82 -76c0 -56 -50 -81 -92 -81c-23 0 -46 6 -65 17c-6 4 -7 11 -4 18l7 11c5 8 13 9 21 6c14 -7 28 -9 39 -9
c23 0 46 13 46 38c0 24 -17 40 -47 40z" />
    <glyph glyph-name="scircumflex" unicode="&#x15d;" horiz-adv-x="370" 
d="M45 50c-4 -7 -3 -14 4 -18c39 -26 91 -41 133 -41c80 0 150 39 150 117c0 64 -56 102 -128 128c-61 22 -78 38 -78 64c0 35 32 52 70 52c31 0 61 -11 86 -25c8 -5 16 -3 20 5l15 27c4 7 2 14 -5 18c-36 21 -83 32 -125 32c-71 0 -128 -36 -128 -110s59 -97 116 -119
c47 -18 88 -34 88 -75c0 -34 -37 -55 -79 -55c-38 0 -77 13 -102 29c-8 5 -16 4 -21 -4zM134 475c-2 -3 -7 -5 -11 -5h-27c-16 0 -20 9 -11 22l71 106c2 3 7 6 11 6h47c4 0 9 -3 11 -6l72 -106c9 -13 4 -22 -11 -22h-28c-3 0 -8 2 -10 5l-57 67z" />
    <glyph glyph-name="scommaaccent" unicode="&#x219;" horiz-adv-x="370" 
d="M201 -60c13 0 18 -8 12 -20l-54 -112c-2 -5 -8 -8 -13 -8h-23c-12 0 -17 7 -13 19l39 112c2 5 7 9 13 9h39zM49 32c-7 4 -8 11 -4 18l16 25c5 8 13 9 21 4c25 -16 64 -29 102 -29c42 0 79 21 79 55c0 41 -41 57 -88 75c-57 22 -116 45 -116 119s57 110 128 110
c42 0 89 -11 125 -32c7 -4 9 -11 5 -18l-15 -27c-4 -8 -12 -10 -20 -5c-25 14 -55 25 -86 25c-38 0 -70 -17 -70 -52c0 -26 17 -42 78 -64c72 -26 128 -64 128 -128c0 -78 -70 -117 -150 -117c-42 0 -94 15 -133 41z" />
    <glyph glyph-name="section" unicode="&#xa7;" horiz-adv-x="483" 
d="M76 -91c-4 6 -2 14 5 18l33 21c9 5 16 2 22 -6c22 -34 62 -54 95 -54c40 0 84 29 84 85c0 120 -268 129 -268 328c0 75 33 132 93 167c-29 30 -46 63 -46 108c0 91 69 154 155 154c74 0 127 -31 158 -89c4 -6 2 -14 -5 -17l-34 -22c-9 -5 -16 -2 -22 6
c-22 34 -63 54 -96 54c-40 0 -82 -30 -82 -85c0 -120 268 -129 268 -328c0 -75 -33 -134 -94 -166c30 -31 47 -65 47 -109c0 -91 -71 -155 -157 -155c-73 0 -126 34 -156 90zM361 247c0 94 -100 133 -169 177c-57 -32 -71 -85 -71 -121c0 -71 50 -103 169 -178
c58 33 71 84 71 122z" />
    <glyph glyph-name="semicolon" unicode=";" horiz-adv-x="223" 
d="M119 312c-26 0 -47 21 -47 47c0 27 21 48 47 48c27 0 48 -21 48 -48c0 -26 -21 -47 -48 -47zM140 100c11 0 16 -7 13 -17l-48 -189c-2 -7 -7 -11 -14 -11h-28c-9 0 -15 6 -14 16l29 189c1 7 7 12 14 12h48z" />
    <glyph glyph-name="seven" unicode="7" horiz-adv-x="462" 
d="M410 700c8 0 14 -6 14 -14v-47c0 -2 0 -4 -1 -6l-264 -624c-3 -6 -8 -9 -13 -9h-47c-13 0 -18 8 -13 19l262 617h-306c-8 0 -14 6 -14 14v36c0 8 6 14 14 14h368z" />
    <glyph glyph-name="seven.dnom" horiz-adv-x="275" 
d="M223 300c8 0 14 -6 14 -14v-20c0 -2 -1 -4 -1 -6l-117 -252c-2 -5 -8 -8 -13 -8h-19c-13 0 -18 8 -13 20l111 239h-124c-8 0 -14 6 -14 14v13c0 8 6 14 14 14h162z" />
    <glyph glyph-name="seven.numr" horiz-adv-x="270" 
d="M218 700c8 0 14 -6 14 -14v-20c0 -2 -1 -4 -1 -6l-117 -252c-2 -5 -8 -8 -13 -8h-19c-13 0 -18 8 -13 20l111 239h-124c-8 0 -14 6 -14 14v13c0 8 6 14 14 14h162z" />
    <glyph glyph-name="seven.onum" horiz-adv-x="462" 
d="M410 492c8 0 14 -6 14 -14v-47c0 -2 0 -4 -1 -6l-264 -624c-3 -6 -8 -9 -13 -9h-47c-13 0 -18 8 -13 19l262 617h-306c-8 0 -14 6 -14 14v36c0 8 6 14 14 14h368z" />
    <glyph glyph-name="seven.tnum" horiz-adv-x="596" 
d="M479 700c8 0 14 -6 14 -14v-47c0 -2 0 -4 -1 -6l-264 -624c-3 -6 -8 -9 -13 -9h-47c-13 0 -18 8 -13 19l262 617h-306c-8 0 -14 6 -14 14v36c0 8 6 14 14 14h368z" />
    <glyph glyph-name="seven.tonum" horiz-adv-x="596" 
d="M479 492c8 0 14 -6 14 -14v-47c0 -2 0 -4 -1 -6l-264 -624c-3 -6 -8 -9 -13 -9h-47c-13 0 -18 8 -13 19l262 617h-306c-8 0 -14 6 -14 14v36c0 8 6 14 14 14h368z" />
    <glyph glyph-name="seveninferior" unicode="&#x2087;" horiz-adv-x="270" 
d="M218 160c8 0 14 -6 14 -14v-20c0 -2 -1 -4 -1 -6l-117 -252c-2 -5 -8 -8 -13 -8h-19c-13 0 -18 8 -13 20l111 239h-124c-8 0 -14 6 -14 14v13c0 8 6 14 14 14h162z" />
    <glyph glyph-name="sevensuperior" unicode="&#x2077;" horiz-adv-x="270" 
d="M218 810c8 0 14 -6 14 -14v-20c0 -2 -1 -4 -1 -6l-117 -252c-2 -5 -8 -8 -13 -8h-19c-13 0 -18 8 -13 20l111 239h-124c-8 0 -14 6 -14 14v13c0 8 6 14 14 14h162z" />
    <glyph glyph-name="six" unicode="6" horiz-adv-x="544" 
d="M272 -9c-122 0 -225 95 -225 219c0 30 10 75 43 139l192 344c2 4 7 7 12 7h50c14 0 19 -8 12 -21l-155 -266c20 13 56 18 76 18c121 0 220 -87 220 -221c0 -124 -104 -219 -225 -219zM272 368c-82 0 -153 -61 -153 -158c0 -96 72 -157 153 -157c80 0 153 64 153 157
c0 92 -71 158 -153 158z" />
    <glyph glyph-name="six.dnom" horiz-adv-x="290" 
d="M145 -6c-58 0 -103 42 -103 98c0 13 1 33 16 61l84 140c2 4 7 7 12 7h19c15 0 20 -8 12 -21l-56 -93c7 3 18 3 23 3c57 0 96 -43 96 -97c0 -56 -46 -98 -103 -98zM145 151c-32 0 -57 -22 -57 -59c0 -34 25 -57 57 -57c31 0 57 25 57 57c0 33 -23 59 -57 59z" />
    <glyph glyph-name="six.numr" horiz-adv-x="290" 
d="M145 394c-58 0 -103 42 -103 98c0 13 1 33 16 61l84 140c2 4 7 7 12 7h19c15 0 20 -8 12 -21l-56 -93c7 3 18 3 23 3c57 0 96 -43 96 -97c0 -56 -46 -98 -103 -98zM145 551c-32 0 -57 -22 -57 -59c0 -34 25 -57 57 -57c31 0 57 25 57 57c0 33 -23 59 -57 59z" />
    <glyph glyph-name="six.onum" horiz-adv-x="544" 
d="M272 -9c-122 0 -225 95 -225 219c0 30 10 75 43 139l192 344c2 4 7 7 12 7h50c14 0 19 -8 12 -21l-155 -266c20 13 56 18 76 18c121 0 220 -87 220 -221c0 -124 -104 -219 -225 -219zM272 368c-82 0 -153 -61 -153 -158c0 -96 72 -157 153 -157c80 0 153 64 153 157
c0 92 -71 158 -153 158z" />
    <glyph glyph-name="six.tnum" horiz-adv-x="600" 
d="M300 -9c-122 0 -225 95 -225 219c0 30 10 75 43 139l192 344c2 4 7 7 12 7h50c14 0 19 -8 12 -21l-155 -266c20 13 56 18 76 18c121 0 220 -87 220 -221c0 -124 -104 -219 -225 -219zM300 368c-82 0 -153 -61 -153 -158c0 -96 72 -157 153 -157c80 0 153 64 153 157
c0 92 -71 158 -153 158z" />
    <glyph glyph-name="six.tonum" horiz-adv-x="600" 
d="M300 -9c-122 0 -225 95 -225 219c0 30 10 75 43 139l192 344c2 4 7 7 12 7h50c14 0 19 -8 12 -21l-155 -266c20 13 56 18 76 18c121 0 220 -87 220 -221c0 -124 -104 -219 -225 -219zM300 368c-82 0 -153 -61 -153 -158c0 -96 72 -157 153 -157c80 0 153 64 153 157
c0 92 -71 158 -153 158z" />
    <glyph glyph-name="sixinferior" unicode="&#x2086;" horiz-adv-x="290" 
d="M145 -146c-58 0 -103 42 -103 98c0 13 1 33 16 61l84 140c2 4 7 7 12 7h19c15 0 20 -8 12 -21l-56 -93c7 3 18 3 23 3c57 0 96 -43 96 -97c0 -56 -46 -98 -103 -98zM145 11c-32 0 -57 -22 -57 -59c0 -34 25 -57 57 -57c31 0 57 25 57 57c0 33 -23 59 -57 59z" />
    <glyph glyph-name="sixsuperior" unicode="&#x2076;" horiz-adv-x="290" 
d="M145 504c-58 0 -103 42 -103 98c0 13 1 33 16 61l84 140c2 4 7 7 12 7h19c15 0 20 -8 12 -21l-56 -93c7 3 18 3 23 3c57 0 96 -43 96 -97c0 -56 -46 -98 -103 -98zM145 661c-32 0 -57 -22 -57 -59c0 -34 25 -57 57 -57c31 0 57 25 57 57c0 33 -23 59 -57 59z" />
    <glyph glyph-name="slash" unicode="/" horiz-adv-x="337" 
d="M317 700c12 0 17 -8 13 -19l-259 -672c-2 -5 -7 -9 -13 -9h-38c-12 0 -17 8 -13 19l258 672c2 5 7 9 13 9h39z" />
    <glyph glyph-name="space" unicode=" " horiz-adv-x="240" 
 />
    <glyph glyph-name="sterling" unicode="&#xa3;" horiz-adv-x="468" 
d="M386 302c0 -8 -6 -14 -14 -14h-141c0 -76 -50 -160 -103 -222h279c8 0 14 -6 14 -14v-38c0 -8 -6 -14 -14 -14h-337c-8 0 -14 6 -14 14v45c0 3 1 7 3 9c51 63 101 148 101 220h-90c-8 0 -14 6 -14 14v32c0 8 6 14 14 14h90c-11 70 -59 140 -59 211c0 96 69 150 156 150
c65 0 112 -23 145 -85c4 -7 1 -14 -6 -18l-30 -16c-8 -5 -16 -2 -21 6c-18 32 -54 51 -88 51c-47 0 -82 -34 -82 -87c0 -73 46 -131 56 -212h141c8 0 14 -6 14 -14v-32z" />
    <glyph glyph-name="summation" unicode="&#x2211;" horiz-adv-x="553" 
d="M257 350l-198 280c-2 3 -3 6 -3 8v48c0 8 6 14 14 14h413c8 0 14 -6 14 -14v-38c0 -8 -6 -14 -14 -14h-342l190 -276c3 -5 3 -11 0 -16l-190 -276h342c8 0 14 -6 14 -14v-38c0 -8 -6 -14 -14 -14h-413c-8 0 -14 6 -14 14v48c0 2 1 5 3 8z" />
    <glyph glyph-name="t" unicode="t" horiz-adv-x="335" 
d="M28 340c-8 0 -14 6 -14 14v32c0 8 6 14 14 14h62v136c0 8 6 14 14 14h42c8 0 14 -6 14 -14v-136h114c8 0 14 -6 14 -14v-32c0 -8 -6 -14 -14 -14h-114v-211c0 -62 31 -75 73 -75c18 0 36 3 57 8c8 2 15 -2 17 -11l7 -31c1 -7 -2 -14 -9 -16c-22 -6 -58 -13 -82 -13
c-96 0 -133 56 -133 144v205h-62z" />
    <glyph glyph-name="tbar" unicode="&#x167;" horiz-adv-x="335" 
d="M35 211c-8 0 -14 6 -14 14v27c0 8 6 14 14 14h55v74h-62c-8 0 -14 6 -14 14v32c0 8 6 14 14 14h62v136c0 8 6 14 14 14h42c8 0 14 -6 14 -14v-136h114c8 0 14 -6 14 -14v-32c0 -8 -6 -14 -14 -14h-114v-74h87c8 0 14 -6 14 -14v-27c0 -8 -6 -14 -14 -14h-87v-82
c0 -62 31 -75 73 -75c18 0 36 3 57 8c8 2 15 -2 17 -11l7 -31c1 -7 -2 -14 -9 -16c-22 -6 -58 -13 -82 -13c-96 0 -133 56 -133 144v76h-55z" />
    <glyph glyph-name="tcaron" unicode="&#x165;" horiz-adv-x="469" 
d="M28 340c-8 0 -14 6 -14 14v32c0 8 6 14 14 14h62v136c0 8 6 14 14 14h42c8 0 14 -6 14 -14v-136h114c8 0 14 -6 14 -14v-32c0 -8 -6 -14 -14 -14h-114v-211c0 -62 31 -75 73 -75c18 0 36 3 57 8c8 2 15 -2 17 -11l7 -31c1 -7 -2 -14 -9 -16c-22 -6 -58 -13 -82 -13
c-96 0 -133 56 -133 144v205h-62zM451 700c11 0 16 -7 13 -17l-48 -189c-2 -7 -7 -11 -14 -11h-28c-9 0 -15 6 -14 16l29 189c1 7 7 12 14 12h48z" />
    <glyph glyph-name="tcommaaccent" unicode="&#x163;" horiz-adv-x="335" 
d="M28 340c-8 0 -14 6 -14 14v32c0 8 6 14 14 14h62v136c0 8 6 14 14 14h42c8 0 14 -6 14 -14v-136h114c8 0 14 -6 14 -14v-32c0 -8 -6 -14 -14 -14h-114v-211c0 -62 31 -75 73 -75c18 0 36 3 57 8c8 2 15 -2 17 -11l7 -31c1 -7 -2 -14 -9 -16c-22 -6 -58 -13 -82 -13
c-96 0 -133 56 -133 144v205h-62zM214 -60c13 0 18 -8 12 -20l-54 -112c-2 -5 -8 -8 -13 -8h-23c-12 0 -17 7 -13 19l39 112c2 5 7 9 13 9h39z" />
    <glyph glyph-name="thorn" unicode="&#xfe;" 
d="M486 200c0 -122 -84 -209 -200 -209c-53 0 -118 28 -150 73v-308c0 -8 -6 -14 -14 -14h-42c-8 0 -14 6 -14 14v930c0 8 6 14 14 14h42c8 0 14 -6 14 -14v-350c32 45 97 73 150 73c116 0 200 -87 200 -209zM414 200c0 88 -61 153 -139 153c-84 0 -145 -65 -145 -153
s61 -153 145 -153c78 0 139 65 139 153z" />
    <glyph glyph-name="three" unicode="3" horiz-adv-x="518" 
d="M365 529c0 81 -66 118 -136 118c-47 0 -89 -18 -123 -47c-7 -5 -15 -5 -21 1l-21 23c-5 6 -5 14 0 19c43 41 104 66 168 66c103 0 205 -58 205 -179c0 -60 -33 -117 -92 -151c71 -31 117 -98 117 -179c0 -136 -114 -209 -233 -209c-64 0 -135 25 -181 64
c-6 5 -7 13 -2 19l22 27c5 7 13 8 20 2c36 -28 87 -50 142 -50c83 0 160 55 160 147c0 89 -75 144 -142 144h-99c-8 0 -14 6 -14 14v35c0 8 6 14 14 14h101c64 0 115 58 115 122z" />
    <glyph glyph-name="three.dnom" horiz-adv-x="287" 
d="M188 223c0 33 -28 44 -50 44c-20 0 -39 -8 -56 -20c-7 -5 -15 -4 -20 2l-6 8c-5 6 -5 14 1 18c24 20 54 32 86 32c44 0 92 -21 92 -79c0 -23 -16 -53 -43 -65c34 -13 53 -42 53 -76c0 -56 -48 -93 -110 -93c-28 0 -59 12 -83 30c-6 5 -7 12 -2 18l6 9c6 8 14 8 22 3
c17 -12 40 -20 57 -20c38 0 64 22 64 55s-28 52 -54 52h-39c-8 0 -14 6 -14 14v11c0 8 6 14 14 14h37c24 0 45 21 45 43z" />
    <glyph glyph-name="three.numr" horiz-adv-x="287" 
d="M188 623c0 33 -28 44 -50 44c-20 0 -39 -8 -56 -20c-7 -5 -15 -4 -20 2l-6 8c-5 6 -5 14 1 18c24 20 54 32 86 32c44 0 92 -21 92 -79c0 -23 -16 -53 -43 -65c34 -13 53 -42 53 -76c0 -56 -48 -93 -110 -93c-28 0 -59 12 -83 30c-6 5 -7 12 -2 18l6 9c6 8 14 8 22 3
c17 -12 40 -20 57 -20c38 0 64 22 64 55s-28 52 -54 52h-39c-8 0 -14 6 -14 14v11c0 8 6 14 14 14h37c24 0 45 21 45 43z" />
    <glyph glyph-name="three.onum" horiz-adv-x="518" 
d="M365 329c0 81 -66 119 -136 119c-47 0 -89 -19 -123 -48c-7 -5 -15 -5 -21 1l-21 23c-5 6 -5 14 0 19c43 41 104 66 168 66c103 0 205 -58 205 -179c0 -60 -33 -116 -92 -150c71 -31 117 -98 117 -179c0 -136 -114 -209 -233 -209c-64 0 -135 25 -182 65
c-5 5 -6 12 -1 18l23 31c5 7 13 8 21 2c36 -29 91 -52 140 -52c83 0 160 53 160 145c0 89 -75 144 -142 144h-99c-8 0 -14 6 -14 14v35c0 8 6 14 14 14h101c64 0 115 57 115 121z" />
    <glyph glyph-name="three.tnum" horiz-adv-x="598" 
d="M433 529c0 81 -66 119 -136 119c-47 0 -89 -19 -123 -48c-7 -5 -15 -5 -21 1l-21 23c-5 6 -5 14 0 19c43 41 104 66 168 66c103 0 205 -58 205 -179c0 -60 -33 -116 -92 -150c71 -31 117 -98 117 -179c0 -136 -114 -209 -233 -209c-64 0 -135 25 -182 65
c-5 4 -6 12 -1 18l23 29c5 7 13 8 21 2c35 -28 88 -51 140 -51c83 0 160 54 160 146c0 89 -75 144 -142 144h-99c-8 0 -14 6 -14 14v35c0 8 6 14 14 14h101c64 0 115 57 115 121z" />
    <glyph glyph-name="three.tonum" horiz-adv-x="598" 
d="M433 329c0 81 -66 119 -136 119c-47 0 -89 -19 -123 -48c-7 -5 -15 -5 -21 1l-21 23c-5 6 -5 14 0 19c43 41 104 66 168 66c103 0 205 -58 205 -179c0 -60 -33 -116 -92 -150c71 -31 117 -98 117 -179c0 -136 -114 -209 -233 -209c-64 0 -135 25 -182 65
c-5 5 -6 12 -1 18l23 31c5 7 13 8 21 2c36 -29 91 -52 140 -52c83 0 160 53 160 145c0 89 -75 144 -142 144h-99c-8 0 -14 6 -14 14v35c0 8 6 14 14 14h101c64 0 115 57 115 121z" />
    <glyph glyph-name="threeinferior" unicode="&#x2083;" horiz-adv-x="287" 
d="M188 83c0 33 -28 44 -50 44c-20 0 -39 -8 -56 -20c-7 -5 -15 -4 -20 2l-6 8c-5 6 -5 14 1 18c24 20 54 32 86 32c44 0 92 -21 92 -79c0 -23 -16 -53 -43 -65c34 -13 53 -42 53 -76c0 -56 -48 -93 -110 -93c-28 0 -59 12 -83 30c-6 5 -7 12 -2 18l6 9c6 8 14 8 22 3
c17 -12 40 -20 57 -20c38 0 64 22 64 55s-28 52 -54 52h-39c-8 0 -14 6 -14 14v11c0 8 6 14 14 14h37c24 0 45 21 45 43z" />
    <glyph glyph-name="threequarters" unicode="&#xbe;" horiz-adv-x="612" 
d="M448 700c12 0 17 -8 13 -19l-259 -672c-2 -5 -7 -9 -13 -9h-24c-12 0 -17 8 -13 19l258 672c2 5 7 9 13 9h25zM528 14c0 -8 -6 -14 -14 -14h-19c-8 0 -14 6 -14 14v51h-133c-8 0 -14 6 -14 14v22c0 3 1 5 2 7l106 185c2 4 7 7 12 7h23c14 0 19 -8 12 -21l-99 -173h91v53
c0 8 6 14 14 14h19c8 0 14 -6 14 -14v-53h23c8 0 14 -6 14 -14v-13c0 -8 -6 -14 -14 -14h-23v-51zM184 623c0 33 -28 44 -50 44c-20 0 -39 -8 -56 -20c-7 -5 -15 -4 -20 2l-6 8c-5 6 -5 14 1 18c24 20 54 32 86 32c44 0 92 -21 92 -79c0 -23 -16 -53 -43 -65
c34 -13 53 -42 53 -76c0 -56 -48 -93 -110 -93c-28 0 -59 12 -83 30c-6 5 -7 12 -2 18l6 9c6 8 14 8 22 3c17 -12 40 -20 57 -20c38 0 64 22 64 55s-28 52 -54 52h-39c-8 0 -14 6 -14 14v11c0 8 6 14 14 14h37c24 0 45 21 45 43z" />
    <glyph glyph-name="threesuperior" unicode="&#xb3;" horiz-adv-x="287" 
d="M188 733c0 33 -28 44 -50 44c-20 0 -39 -8 -56 -20c-7 -5 -15 -4 -20 2l-6 8c-5 6 -5 14 1 18c24 20 54 32 86 32c44 0 92 -21 92 -79c0 -23 -16 -53 -43 -65c34 -13 53 -42 53 -76c0 -56 -48 -93 -110 -93c-28 0 -59 12 -83 30c-6 5 -7 12 -2 18l6 9c6 8 14 8 22 3
c17 -12 40 -20 57 -20c38 0 64 22 64 55s-28 52 -54 52h-39c-8 0 -14 6 -14 14v11c0 8 6 14 14 14h37c24 0 45 21 45 43z" />
    <glyph glyph-name="tilde" unicode="&#x2dc;" horiz-adv-x="295" 
d="M102 557c47 -3 62 -36 94 -39c26 -1 38 14 43 26c3 7 4 13 17 9l27 -9c7 -2 11 -9 9 -16c-8 -23 -32 -73 -100 -68c-42 5 -67 38 -92 41c-26 2 -38 -14 -44 -26c-4 -8 -4 -13 -21 -8l-23 7c-7 2 -11 8 -9 15c8 23 32 70 99 68z" />
    <glyph glyph-name="trademark" unicode="&#x2122;" horiz-adv-x="621" 
d="M436 521l88 171c2 5 7 8 13 8h23c8 0 14 -6 14 -14v-247c0 -8 -6 -14 -14 -14h-18c-8 0 -14 6 -14 14v171l-73 -138c-2 -4 -7 -7 -12 -7h-14c-5 0 -10 3 -12 8l-72 137v-171c0 -8 -6 -14 -14 -14h-18c-8 0 -14 6 -14 14v247c0 8 6 14 14 14h23c6 0 11 -3 13 -8zM124 425
c-8 0 -14 6 -14 14v217h-68c-8 0 -14 6 -14 14v16c0 8 6 14 14 14h183c8 0 14 -6 14 -14v-16c0 -8 -6 -14 -14 -14h-68v-217c0 -8 -6 -14 -14 -14h-19z" />
    <glyph glyph-name="two" unicode="2" horiz-adv-x="503" 
d="M108 555c-4 -8 -11 -10 -19 -6l-31 15c-7 4 -9 11 -6 18c25 55 88 127 200 127c142 0 204 -89 204 -198c0 -75 -36 -140 -88 -200l-223 -247h306c8 0 14 -6 14 -14v-36c0 -8 -6 -14 -14 -14h-376c-8 0 -14 6 -14 14v45c0 3 1 7 4 9l246 279c45 50 73 108 73 162
c0 63 -28 138 -133 138c-73 0 -116 -44 -143 -92z" />
    <glyph glyph-name="two.dnom" horiz-adv-x="288" 
d="M86 233c-5 -7 -12 -9 -19 -5l-14 7c-7 4 -9 11 -6 17c15 26 48 54 98 54c68 0 98 -40 98 -89c0 -33 -17 -60 -42 -86c-31 -33 -57 -56 -88 -89h119c8 0 14 -6 14 -14v-14c0 -8 -6 -14 -14 -14h-166c-8 0 -14 6 -14 14v21c0 4 2 8 4 10l109 111c19 20 31 41 31 61
c0 23 -11 50 -51 50c-26 0 -46 -16 -59 -34z" />
    <glyph glyph-name="two.numr" horiz-adv-x="288" 
d="M86 633c-5 -7 -12 -9 -19 -5l-14 7c-7 4 -9 11 -6 17c15 26 48 54 98 54c68 0 98 -40 98 -89c0 -33 -17 -60 -42 -86c-31 -33 -57 -56 -88 -89h119c8 0 14 -6 14 -14v-14c0 -8 -6 -14 -14 -14h-166c-8 0 -14 6 -14 14v21c0 4 2 8 4 10l109 111c19 20 31 41 31 61
c0 23 -11 50 -51 50c-26 0 -46 -16 -59 -34z" />
    <glyph glyph-name="two.onum" horiz-adv-x="476" 
d="M106 368c-4 -7 -12 -9 -19 -5l-29 17c-7 3 -9 11 -5 18c28 50 86 111 185 111c142 0 196 -78 196 -163c0 -65 -33 -121 -100 -166l-166 -116h256c8 0 14 -6 14 -14v-36c0 -8 -6 -14 -14 -14h-356c-8 0 -14 6 -14 14v37c0 4 2 9 6 11l226 164c54 38 77 75 77 121
c0 70 -57 102 -120 102c-67 0 -106 -33 -137 -81z" />
    <glyph glyph-name="two.tnum" horiz-adv-x="598" 
d="M153 555c-4 -8 -11 -10 -19 -6l-31 15c-7 4 -9 11 -6 18c25 55 88 127 200 127c142 0 204 -89 204 -198c0 -75 -36 -140 -88 -200l-221 -247h304c8 0 14 -6 14 -14v-36c0 -8 -6 -14 -14 -14h-376c-8 0 -14 6 -14 14v45c0 3 1 7 4 9l246 279c45 50 73 108 73 162
c0 63 -28 138 -133 138c-73 0 -116 -44 -143 -92z" />
    <glyph glyph-name="two.tonum" horiz-adv-x="596" 
d="M166 368c-4 -7 -12 -9 -19 -5l-29 17c-7 3 -9 11 -5 18c28 50 86 111 185 111c142 0 196 -78 196 -163c0 -65 -33 -121 -100 -166l-166 -116h256c8 0 14 -6 14 -14v-36c0 -8 -6 -14 -14 -14h-356c-8 0 -14 6 -14 14v37c0 4 2 9 6 11l226 164c54 38 77 75 77 121
c0 70 -57 102 -120 102c-67 0 -106 -33 -137 -81z" />
    <glyph glyph-name="twoinferior" unicode="&#x2082;" horiz-adv-x="288" 
d="M86 93c-5 -7 -12 -9 -19 -5l-14 7c-7 4 -9 11 -6 17c15 26 48 54 98 54c68 0 98 -40 98 -89c0 -33 -17 -60 -42 -86c-31 -33 -57 -56 -88 -89h119c8 0 14 -6 14 -14v-14c0 -8 -6 -14 -14 -14h-166c-8 0 -14 6 -14 14v21c0 4 2 8 4 10l109 111c19 20 31 41 31 61
c0 23 -11 50 -51 50c-26 0 -46 -16 -59 -34z" />
    <glyph glyph-name="twosuperior" unicode="&#xb2;" horiz-adv-x="288" 
d="M86 743c-5 -7 -12 -9 -19 -5l-14 7c-7 4 -9 11 -6 17c15 26 48 54 98 54c68 0 98 -40 98 -89c0 -33 -17 -60 -42 -86c-31 -33 -57 -56 -88 -89h119c8 0 14 -6 14 -14v-14c0 -8 -6 -14 -14 -14h-166c-8 0 -14 6 -14 14v21c0 4 2 8 4 10l109 111c19 20 31 41 31 61
c0 23 -11 50 -51 50c-26 0 -46 -16 -59 -34z" />
    <glyph glyph-name="u" unicode="u" horiz-adv-x="495" 
d="M415 400c8 0 14 -6 14 -14v-372c0 -8 -6 -14 -14 -14h-42c-8 0 -14 6 -14 14v50c-30 -47 -77 -73 -134 -73c-86 0 -164 47 -164 167v228c0 8 6 14 14 14h42c8 0 14 -6 14 -14v-215c0 -96 55 -124 110 -124c61 0 118 51 118 126v213c0 8 6 14 14 14h42z" />
    <glyph glyph-name="uacute" unicode="&#xfa;" horiz-adv-x="495" 
d="M325 598c14 0 19 -8 12 -21l-62 -110c-2 -4 -7 -7 -12 -7h-31c-13 0 -18 8 -13 19l44 110c3 6 8 9 13 9h49zM415 400c8 0 14 -6 14 -14v-372c0 -8 -6 -14 -14 -14h-42c-8 0 -14 6 -14 14v50c-30 -47 -77 -73 -134 -73c-86 0 -164 47 -164 167v228c0 8 6 14 14 14h42
c8 0 14 -6 14 -14v-215c0 -96 55 -124 110 -124c61 0 118 51 118 126v213c0 8 6 14 14 14h42z" />
    <glyph glyph-name="ubreve" unicode="&#x16d;" horiz-adv-x="495" 
d="M134 558c-1 8 5 14 13 14h30c8 0 14 -6 15 -14c5 -23 21 -45 57 -45c24 0 51 17 58 45c1 8 7 14 15 14h29c8 0 14 -6 13 -14c-7 -58 -57 -98 -115 -98s-108 40 -115 98zM415 400c8 0 14 -6 14 -14v-372c0 -8 -6 -14 -14 -14h-42c-8 0 -14 6 -14 14v50
c-30 -47 -77 -73 -134 -73c-86 0 -164 47 -164 167v228c0 8 6 14 14 14h42c8 0 14 -6 14 -14v-215c0 -96 55 -124 110 -124c61 0 118 51 118 126v213c0 8 6 14 14 14h42z" />
    <glyph glyph-name="ucircumflex" unicode="&#xfb;" horiz-adv-x="495" 
d="M191 475c-2 -3 -7 -5 -10 -5h-28c-15 0 -20 9 -11 22l71 106c2 4 7 6 11 6h47c4 0 9 -2 11 -6l72 -106c9 -13 4 -22 -11 -22h-28c-3 0 -8 2 -10 5l-57 67zM415 400c8 0 14 -6 14 -14v-372c0 -8 -6 -14 -14 -14h-42c-8 0 -14 6 -14 14v50c-30 -47 -77 -73 -134 -73
c-86 0 -164 47 -164 167v228c0 8 6 14 14 14h42c8 0 14 -6 14 -14v-215c0 -96 55 -124 110 -124c61 0 118 51 118 126v213c0 8 6 14 14 14h42z" />
    <glyph glyph-name="udieresis" unicode="&#xfc;" horiz-adv-x="495" 
d="M167 460c-26 0 -47 21 -47 47c0 27 21 48 47 48c27 0 48 -21 48 -48c0 -26 -21 -47 -48 -47zM330 460c-26 0 -47 21 -47 47c0 27 21 48 47 48c27 0 48 -21 48 -48c0 -26 -21 -47 -48 -47zM415 400c8 0 14 -6 14 -14v-372c0 -8 -6 -14 -14 -14h-42c-8 0 -14 6 -14 14v50
c-30 -47 -77 -73 -134 -73c-86 0 -164 47 -164 167v228c0 8 6 14 14 14h42c8 0 14 -6 14 -14v-215c0 -96 55 -124 110 -124c61 0 118 51 118 126v213c0 8 6 14 14 14h42z" />
    <glyph glyph-name="ugrave" unicode="&#xf9;" horiz-adv-x="495" 
d="M228 460c-5 0 -10 3 -12 7l-62 110c-7 13 -2 21 12 21h49c5 0 10 -3 13 -9l44 -110c5 -11 0 -19 -13 -19h-31zM415 400c8 0 14 -6 14 -14v-372c0 -8 -6 -14 -14 -14h-42c-8 0 -14 6 -14 14v50c-30 -47 -77 -73 -134 -73c-86 0 -164 47 -164 167v228c0 8 6 14 14 14h42
c8 0 14 -6 14 -14v-215c0 -96 55 -124 110 -124c61 0 118 51 118 126v213c0 8 6 14 14 14h42z" />
    <glyph glyph-name="uhungarumlaut" unicode="&#x171;" horiz-adv-x="495" 
d="M257 598c14 0 19 -8 12 -21l-62 -110c-2 -4 -7 -7 -12 -7h-31c-13 0 -18 8 -13 19l44 110c3 6 8 9 13 9h49zM394 598c14 0 19 -8 12 -21l-62 -110c-2 -4 -7 -7 -12 -7h-31c-13 0 -18 8 -13 19l44 110c3 6 8 9 13 9h49zM415 400c8 0 14 -6 14 -14v-372
c0 -8 -6 -14 -14 -14h-42c-8 0 -14 6 -14 14v50c-30 -47 -77 -73 -134 -73c-86 0 -164 47 -164 167v228c0 8 6 14 14 14h42c8 0 14 -6 14 -14v-215c0 -96 55 -124 110 -124c61 0 118 51 118 126v213c0 8 6 14 14 14h42z" />
    <glyph glyph-name="umacron" unicode="&#x16b;" horiz-adv-x="495" 
d="M153 470c-8 0 -14 6 -14 14v27c0 8 6 14 14 14h179c8 0 14 -6 14 -14v-27c0 -8 -6 -14 -14 -14h-179zM415 400c8 0 14 -6 14 -14v-372c0 -8 -6 -14 -14 -14h-42c-8 0 -14 6 -14 14v50c-30 -47 -77 -73 -134 -73c-86 0 -164 47 -164 167v228c0 8 6 14 14 14h42
c8 0 14 -6 14 -14v-215c0 -96 55 -124 110 -124c61 0 118 51 118 126v213c0 8 6 14 14 14h42z" />
    <glyph glyph-name="underscore" unicode="_" horiz-adv-x="365" 
d="M14 -47c-8 0 -14 6 -14 14v19c0 8 6 14 14 14h337c8 0 14 -6 14 -14v-19c0 -8 -6 -14 -14 -14h-337z" />
    <glyph glyph-name="uni20BA" unicode="&#x20ba;" horiz-adv-x="606" 
d="M490 279c0 8 6 14 14 14h41c8 0 14 -6 14 -14c-8 -163 -145 -279 -303 -279h-56c-8 0 -14 6 -14 14v314l-101 -37c-11 -4 -19 1 -19 13v25c0 6 4 11 9 13l111 41v53l-101 -37c-11 -4 -19 1 -19 13v25c0 6 4 11 9 13l111 42v194c0 8 6 14 14 14h42c8 0 14 -6 14 -14v-169
l190 69c11 4 19 -1 19 -13v-25c0 -6 -4 -11 -9 -13l-200 -73v-53l190 69c11 4 19 -1 19 -13v-25c0 -6 -4 -11 -9 -13l-200 -73v-288c119 0 226 84 234 213z" />
    <glyph glyph-name="uni2196" unicode="&#x2196;" horiz-adv-x="773" 
d="M559 58c-6 -6 -14 -6 -20 0l-280 280v-221c0 -8 -6 -14 -14 -14h-33c-8 0 -14 6 -14 14l1 316c0 8 6 14 14 14h316c8 0 14 -6 14 -14v-32c0 -8 -6 -14 -14 -14h-220l279 -280c6 -6 6 -14 0 -20z" />
    <glyph glyph-name="uni2197" unicode="&#x2197;" horiz-adv-x="773" 
d="M208 86c-6 6 -6 14 0 20l280 280h-221c-8 0 -14 6 -14 14v33c0 8 6 14 14 14l316 -1c8 0 14 -6 14 -14v-316c0 -8 -6 -14 -14 -14h-32c-8 0 -14 6 -14 14v220l-280 -279c-6 -6 -14 -6 -20 0z" />
    <glyph glyph-name="uni2198" unicode="&#x2198;" horiz-adv-x="773" 
d="M488 108l-280 280c-6 6 -6 14 0 20l29 29c6 6 14 6 20 0l280 -279v220c0 8 6 14 14 14h32c8 0 14 -6 14 -14v-316c0 -8 -6 -14 -14 -14h-316c-8 0 -14 6 -14 14v32c0 8 6 14 14 14h221z" />
    <glyph glyph-name="uni2199" unicode="&#x2199;" horiz-adv-x="773" 
d="M587 408c6 -6 6 -14 0 -20l-280 -280h221c8 0 14 -6 14 -14v-32c0 -8 -6 -14 -14 -14h-316c-8 0 -14 6 -14 14v316c0 8 6 14 14 14h32c8 0 14 -6 14 -14v-220l280 279c6 6 14 6 20 0z" />
    <glyph glyph-name="uogonek" unicode="&#x173;" horiz-adv-x="497" 
d="M415 400c8 0 14 -6 14 -14v-375c0 -7 -4 -12 -10 -14c-42 -16 -64 -54 -64 -85c0 -27 18 -49 57 -49c8 0 16 1 26 3c12 2 19 -3 19 -14v-19c0 -6 -4 -11 -10 -13c-17 -5 -34 -8 -48 -8c-62 0 -97 43 -97 91c0 35 19 72 57 97v64c-30 -47 -77 -73 -134 -73
c-86 0 -164 47 -164 167v228c0 8 6 14 14 14h42c8 0 14 -6 14 -14v-215c0 -96 55 -124 110 -124c61 0 118 51 118 126v213c0 8 6 14 14 14h42z" />
    <glyph glyph-name="uring" unicode="&#x16f;" horiz-adv-x="495" 
d="M152 552c0 51 41 92 92 92s92 -41 92 -92s-41 -92 -92 -92s-92 41 -92 92zM194 552c0 -27 23 -50 50 -50s50 23 50 50s-23 50 -50 50s-50 -23 -50 -50zM415 400c8 0 14 -6 14 -14v-372c0 -8 -6 -14 -14 -14h-42c-8 0 -14 6 -14 14v50c-30 -47 -77 -73 -134 -73
c-86 0 -164 47 -164 167v228c0 8 6 14 14 14h42c8 0 14 -6 14 -14v-215c0 -96 55 -124 110 -124c61 0 118 51 118 126v213c0 8 6 14 14 14h42z" />
    <glyph glyph-name="utilde" unicode="&#x169;" horiz-adv-x="495" 
d="M205 557c47 -3 62 -36 94 -39c23 -1 36 11 42 22c5 9 5 17 20 12l25 -8c7 -2 11 -9 9 -16c-8 -23 -32 -73 -100 -68c-42 5 -67 38 -92 41c-27 2 -40 -15 -45 -27c-3 -7 -3 -12 -23 -6l-20 6c-7 2 -11 8 -9 15c8 23 32 70 99 68zM415 400c8 0 14 -6 14 -14v-372
c0 -8 -6 -14 -14 -14h-42c-8 0 -14 6 -14 14v50c-30 -47 -77 -73 -134 -73c-86 0 -164 47 -164 167v228c0 8 6 14 14 14h42c8 0 14 -6 14 -14v-215c0 -96 55 -124 110 -124c61 0 118 51 118 126v213c0 8 6 14 14 14h42z" />
    <glyph glyph-name="v" unicode="v" horiz-adv-x="452" 
d="M226 73l132 318c3 6 8 9 13 9h45c13 0 19 -8 13 -20l-164 -372c-3 -5 -8 -8 -13 -8h-52c-5 0 -10 3 -13 8l-164 372c-6 12 0 20 13 20h45c5 0 10 -3 13 -9z" />
    <glyph glyph-name="w" unicode="w" horiz-adv-x="672" 
d="M638 400c12 0 17 -8 13 -19l-136 -372c-2 -5 -7 -9 -13 -9h-50c-6 0 -11 4 -13 10l-103 308l-103 -308c-2 -6 -7 -10 -13 -10h-50c-6 0 -11 4 -13 9l-136 372c-4 11 1 19 13 19h45c6 0 11 -4 13 -10l103 -303l103 303c2 6 7 10 13 10h50c6 0 11 -4 13 -10l103 -303
l103 303c2 6 7 10 13 10h45z" />
    <glyph glyph-name="wacute" unicode="&#x1e83;" horiz-adv-x="672" 
d="M638 400c12 0 17 -8 13 -19l-136 -372c-2 -5 -7 -9 -13 -9h-50c-6 0 -11 4 -13 10l-103 308l-103 -308c-2 -6 -7 -10 -13 -10h-50c-6 0 -11 4 -13 9l-136 372c-4 11 1 19 13 19h45c6 0 11 -4 13 -10l103 -303l103 303c2 6 7 10 13 10h50c6 0 11 -4 13 -10l103 -303
l103 303c2 6 7 10 13 10h45zM419 598c14 0 19 -8 12 -21l-62 -110c-2 -4 -7 -7 -12 -7h-31c-13 0 -18 8 -13 19l44 110c3 6 8 9 13 9h49z" />
    <glyph glyph-name="wcircumflex" unicode="&#x175;" horiz-adv-x="672" 
d="M638 400c12 0 17 -8 13 -19l-136 -372c-2 -5 -7 -9 -13 -9h-50c-6 0 -11 4 -13 10l-103 308l-103 -308c-2 -6 -7 -10 -13 -10h-50c-6 0 -11 4 -13 9l-136 372c-4 11 1 19 13 19h45c6 0 11 -4 13 -10l103 -303l103 303c2 6 7 10 13 10h50c6 0 11 -4 13 -10l103 -303
l103 303c2 6 7 10 13 10h45zM279 475c-2 -3 -7 -5 -10 -5h-28c-15 0 -20 9 -11 22l71 106c2 4 7 6 11 6h47c4 0 9 -2 11 -6l72 -106c9 -13 4 -22 -11 -22h-28c-3 0 -8 2 -10 5l-57 67z" />
    <glyph glyph-name="wdieresis" unicode="&#x1e85;" horiz-adv-x="672" 
d="M638 400c12 0 17 -8 13 -19l-136 -372c-2 -5 -7 -9 -13 -9h-50c-6 0 -11 4 -13 10l-103 308l-103 -308c-2 -6 -7 -10 -13 -10h-50c-6 0 -11 4 -13 9l-136 372c-4 11 1 19 13 19h45c6 0 11 -4 13 -10l103 -303l103 303c2 6 7 10 13 10h50c6 0 11 -4 13 -10l103 -303
l103 303c2 6 7 10 13 10h45zM254 459c-26 0 -47 21 -47 47c0 27 21 48 47 48c27 0 48 -21 48 -48c0 -26 -21 -47 -48 -47zM417 459c-26 0 -47 21 -47 47c0 27 21 48 47 48c27 0 48 -21 48 -48c0 -26 -21 -47 -48 -47z" />
    <glyph glyph-name="wgrave" unicode="&#x1e81;" horiz-adv-x="672" 
d="M638 400c12 0 17 -8 13 -19l-136 -372c-2 -5 -7 -9 -13 -9h-50c-6 0 -11 4 -13 10l-103 308l-103 -308c-2 -6 -7 -10 -13 -10h-50c-6 0 -11 4 -13 9l-136 372c-4 11 1 19 13 19h45c6 0 11 -4 13 -10l103 -303l103 303c2 6 7 10 13 10h50c6 0 11 -4 13 -10l103 -303
l103 303c2 6 7 10 13 10h45zM310 460c-5 0 -10 3 -12 7l-62 110c-7 13 -2 21 12 21h49c5 0 10 -3 13 -9l44 -110c5 -11 0 -19 -13 -19h-31z" />
    <glyph glyph-name="x" unicode="x" horiz-adv-x="421" 
d="M366 400c16 0 21 -9 11 -22l-127 -178l127 -178c10 -13 5 -22 -11 -22h-51c-4 0 -9 2 -11 6l-94 138l-93 -138c-2 -4 -7 -6 -11 -6h-51c-16 0 -21 9 -11 22l127 178l-127 178c-10 13 -5 22 11 22h51c4 0 9 -2 11 -6l93 -139l94 139c2 4 7 6 11 6h51z" />
    <glyph glyph-name="y" unicode="y" horiz-adv-x="476" 
d="M200 0l-177 380c-5 12 0 20 13 20h46c5 0 10 -3 13 -8l142 -317l145 317c3 5 8 8 13 8h45c13 0 18 -8 13 -20l-297 -630c-2 -5 -8 -8 -13 -8h-42c-13 0 -18 8 -13 20z" />
    <glyph glyph-name="yacute" unicode="&#xfd;" horiz-adv-x="476" 
d="M200 0l-177 380c-5 12 0 20 13 20h46c5 0 10 -3 13 -8l142 -317l145 317c3 5 8 8 13 8h45c13 0 18 -8 13 -20l-297 -630c-2 -5 -8 -8 -13 -8h-42c-13 0 -18 8 -13 20zM326 598c14 0 19 -8 12 -21l-62 -110c-2 -4 -7 -7 -12 -7h-31c-13 0 -18 8 -13 19l44 110
c3 6 8 9 13 9h49z" />
    <glyph glyph-name="ycircumflex" unicode="&#x177;" horiz-adv-x="476" 
d="M200 0l-177 380c-5 12 0 20 13 20h46c5 0 10 -3 13 -8l142 -317l145 317c3 5 8 8 13 8h45c13 0 18 -8 13 -20l-317 -672c-2 -5 -8 -8 -13 -8h-41c-13 0 -18 8 -13 20zM192 475c-2 -3 -7 -5 -10 -5h-28c-15 0 -20 9 -11 22l71 106c2 4 7 6 11 6h47c4 0 9 -2 11 -6l72 -106
c9 -13 4 -22 -11 -22h-28c-3 0 -8 2 -10 5l-57 67z" />
    <glyph glyph-name="ydieresis" unicode="&#xff;" horiz-adv-x="476" 
d="M200 0l-177 380c-5 12 0 20 13 20h46c5 0 10 -3 13 -8l142 -317l145 317c3 5 8 8 13 8h45c13 0 18 -8 13 -20l-297 -630c-2 -5 -8 -8 -13 -8h-42c-13 0 -18 8 -13 20zM160 478c-26 0 -47 21 -47 47c0 27 21 48 47 48c27 0 48 -21 48 -48c0 -26 -21 -47 -48 -47zM323 478
c-26 0 -47 21 -47 47c0 27 21 48 47 48c27 0 48 -21 48 -48c0 -26 -21 -47 -48 -47z" />
    <glyph glyph-name="yen" unicode="&#xa5;" horiz-adv-x="686" 
d="M158 270c-8 0 -14 6 -14 14v28c0 8 6 14 14 14h124l-222 353c-8 12 -3 21 12 21h54c5 0 10 -3 12 -7l205 -340l205 340c2 4 7 7 12 7h54c15 0 20 -9 11 -21l-222 -353h124c8 0 14 -6 14 -14v-28c0 -8 -6 -14 -14 -14h-147v-70h147c8 0 14 -6 14 -14v-28
c0 -8 -6 -14 -14 -14h-147v-130c0 -8 -6 -14 -14 -14h-46c-8 0 -14 6 -14 14v130h-148c-8 0 -14 6 -14 14v28c0 8 6 14 14 14h148v70h-148z" />
    <glyph glyph-name="ygrave" unicode="&#x1ef3;" horiz-adv-x="476" 
d="M200 0l-177 380c-5 12 0 20 13 20h46c5 0 10 -3 13 -8l142 -317l145 317c3 5 8 8 13 8h45c13 0 18 -8 13 -20l-297 -630c-2 -5 -8 -8 -13 -8h-42c-13 0 -18 8 -13 20zM234 460c-5 0 -10 3 -12 7l-62 110c-7 13 -2 21 12 21h49c5 0 10 -3 13 -9l44 -110
c5 -11 0 -19 -13 -19h-31z" />
    <glyph glyph-name="z" unicode="z" horiz-adv-x="375" 
d="M254 340h-202c-8 0 -14 6 -14 14v32c0 8 6 14 14 14h271c8 0 14 -6 14 -14v-40c0 -3 -1 -7 -3 -9l-213 -277h202c8 0 14 -6 14 -14v-32c0 -8 -6 -14 -14 -14h-271c-8 0 -14 6 -14 14v40c0 3 1 7 3 9z" />
    <glyph glyph-name="zacute" unicode="&#x17a;" horiz-adv-x="375" 
d="M254 340h-202c-8 0 -14 6 -14 14v32c0 8 6 14 14 14h271c8 0 14 -6 14 -14v-40c0 -3 -1 -7 -3 -9l-213 -277h202c8 0 14 -6 14 -14v-32c0 -8 -6 -14 -14 -14h-271c-8 0 -14 6 -14 14v40c0 3 1 7 3 9zM266 598c14 0 19 -8 12 -21l-62 -110c-2 -4 -7 -7 -12 -7h-31
c-13 0 -18 8 -13 19l44 110c3 6 8 9 13 9h49z" />
    <glyph glyph-name="zcaron" unicode="&#x17e;" horiz-adv-x="375" 
d="M254 340h-202c-8 0 -14 6 -14 14v32c0 8 6 14 14 14h271c8 0 14 -6 14 -14v-40c0 -3 -1 -7 -3 -9l-213 -277h202c8 0 14 -6 14 -14v-32c0 -8 -6 -14 -14 -14h-271c-8 0 -14 6 -14 14v40c0 3 1 7 3 9zM91 592c-9 13 -4 22 11 22h28c3 0 8 -2 10 -5l57 -67l57 67
c2 3 7 5 10 5h28c15 0 20 -9 11 -22l-72 -106c-2 -4 -7 -6 -11 -6h-47c-4 0 -9 2 -11 6z" />
    <glyph glyph-name="zdotaccent" unicode="&#x17c;" horiz-adv-x="375" 
d="M254 340h-202c-8 0 -14 6 -14 14v32c0 8 6 14 14 14h271c8 0 14 -6 14 -14v-40c0 -3 -1 -7 -3 -9l-213 -277h202c8 0 14 -6 14 -14v-32c0 -8 -6 -14 -14 -14h-271c-8 0 -14 6 -14 14v40c0 3 1 7 3 9zM187 460c-26 0 -47 21 -47 47c0 27 21 48 47 48c27 0 48 -21 48 -48
c0 -26 -21 -47 -48 -47z" />
    <glyph glyph-name="zero" unicode="0" horiz-adv-x="632" 
d="M316 -9c-159 0 -260 132 -260 359s101 359 260 359s260 -132 260 -359s-101 -359 -260 -359zM316 647c-153 0 -188 -166 -188 -297s35 -297 188 -297s188 166 188 297s-35 297 -188 297z" />
    <glyph glyph-name="zero.dnom" horiz-adv-x="316" 
d="M158 -6c-70 0 -116 56 -116 156s46 156 116 156s116 -56 116 -156s-46 -156 -116 -156zM158 267c-48 0 -69 -51 -69 -117s21 -117 69 -117s69 51 69 117s-21 117 -69 117z" />
    <glyph glyph-name="zero.numr" horiz-adv-x="316" 
d="M158 394c-70 0 -116 56 -116 156s46 156 116 156s116 -56 116 -156s-46 -156 -116 -156zM158 667c-48 0 -69 -51 -69 -117s21 -117 69 -117s69 51 69 117s-21 117 -69 117z" />
    <glyph glyph-name="zero.onum" horiz-adv-x="514" 
d="M257 509c128 0 210 -95 210 -259s-82 -259 -210 -259s-210 95 -210 259s82 259 210 259zM257 53c88 0 138 79 138 197s-50 197 -138 197s-138 -79 -138 -197s50 -197 138 -197z" />
    <glyph glyph-name="zero.tnum" horiz-adv-x="604" 
d="M302 -9c-159 0 -260 132 -260 359s101 359 260 359s260 -132 260 -359s-101 -359 -260 -359zM302 647c-153 0 -188 -166 -188 -297s35 -297 188 -297s188 166 188 297s-35 297 -188 297z" />
    <glyph glyph-name="zero.tonum" horiz-adv-x="598" 
d="M299 509c128 0 210 -95 210 -259s-82 -259 -210 -259s-210 95 -210 259s82 259 210 259zM299 53c88 0 138 79 138 197s-50 197 -138 197s-138 -79 -138 -197s50 -197 138 -197z" />
    <glyph glyph-name="zeroinferior" unicode="&#x2080;" horiz-adv-x="316" 
d="M158 -146c-70 0 -116 56 -116 156s46 156 116 156s116 -56 116 -156s-46 -156 -116 -156zM158 127c-48 0 -69 -51 -69 -117s21 -117 69 -117s69 51 69 117s-21 117 -69 117z" />
    <glyph glyph-name="zerosuperior" unicode="&#x2070;" horiz-adv-x="316" 
d="M158 504c-70 0 -116 56 -116 156s46 156 116 156s116 -56 116 -156s-46 -156 -116 -156zM158 777c-48 0 -69 -51 -69 -117s21 -117 69 -117s69 51 69 117s-21 117 -69 117z" />
    <glyph glyph-name="a.smcp" horiz-adv-x="512" 
d="M217 491c3 5 8 9 13 9h52c5 0 10 -4 13 -9l190 -472c5 -11 0 -19 -13 -19h-47c-6 0 -11 4 -13 9l-44 115h-224l-44 -115c-2 -5 -7 -9 -13 -9h-47c-13 0 -18 8 -13 19zM256 417l-89 -233h178z" />
    <glyph glyph-name="b.smcp" horiz-adv-x="445" 
d="M256 500c74 0 133 -47 133 -128c0 -36 -21 -81 -68 -104c51 -17 86 -69 86 -120c0 -88 -69 -148 -152 -148h-171c-8 0 -14 6 -14 14v472c0 8 6 14 14 14h172zM142 236v-172h110c45 0 86 32 86 84c0 51 -37 88 -82 88h-114zM253 436h-111v-140h110c35 0 70 28 70 75
c0 45 -34 65 -69 65z" />
    <glyph glyph-name="c.smcp" horiz-adv-x="534" 
d="M296 53c50 0 109 25 144 60c6 7 14 8 21 1l26 -26c5 -5 6 -13 0 -19c-48 -50 -117 -78 -190 -78c-143 0 -259 110 -259 259s116 259 259 259c73 0 142 -28 190 -78c6 -6 5 -14 0 -19l-26 -26c-7 -7 -15 -6 -21 1c-35 35 -94 60 -144 60c-103 0 -186 -87 -186 -197
s83 -197 186 -197z" />
    <glyph glyph-name="d.smcp" horiz-adv-x="513" 
d="M225 0h-141c-8 0 -14 6 -14 14v472c0 8 6 14 14 14h141c138 0 250 -99 250 -249c0 -151 -112 -251 -250 -251zM220 436h-78v-372h78c98 0 184 64 184 187c0 116 -86 185 -184 185z" />
    <glyph glyph-name="e.smcp" horiz-adv-x="430" 
d="M392 450c0 -8 -6 -14 -14 -14h-236v-154h204c8 0 14 -6 14 -14v-36c0 -8 -6 -14 -14 -14h-204v-154h236c8 0 14 -6 14 -14v-36c0 -8 -6 -14 -14 -14h-294c-8 0 -14 6 -14 14v472c0 8 6 14 14 14h294c8 0 14 -6 14 -14v-36z" />
    <glyph glyph-name="f.smcp" horiz-adv-x="420" 
d="M392 450c0 -8 -6 -14 -14 -14h-236v-154h204c8 0 14 -6 14 -14v-36c0 -8 -6 -14 -14 -14h-204v-204c0 -8 -6 -14 -14 -14h-44c-8 0 -14 6 -14 14v472c0 8 6 14 14 14h294c8 0 14 -6 14 -14v-36z" />
    <glyph glyph-name="g.smcp" horiz-adv-x="594" 
d="M297 445c-101 0 -185 -79 -185 -195s84 -195 185 -195c92 0 172 68 183 167h-157c-8 0 -14 6 -14 14v30c0 8 6 14 14 14h218c8 0 14 -5 14 -12c1 -7 1 -13 1 -18c0 -146 -116 -259 -259 -259s-259 113 -259 259s116 259 259 259c73 0 142 -28 190 -78c6 -6 5 -14 0 -19
l-28 -28c-7 -7 -15 -6 -21 1c-35 35 -91 60 -141 60z" />
    <glyph glyph-name="h.smcp" horiz-adv-x="550" 
d="M142 14c0 -8 -6 -14 -14 -14h-44c-8 0 -14 6 -14 14v472c0 8 6 14 14 14h44c8 0 14 -6 14 -14v-204h266v204c0 8 6 14 14 14h44c8 0 14 -6 14 -14v-472c0 -8 -6 -14 -14 -14h-44c-8 0 -14 6 -14 14v204h-266v-204z" />
    <glyph glyph-name="i.smcp" horiz-adv-x="212" 
d="M128 500c8 0 14 -6 14 -14v-472c0 -8 -6 -14 -14 -14h-44c-8 0 -14 6 -14 14v472c0 8 6 14 14 14h44z" />
    <glyph glyph-name="j.smcp" horiz-adv-x="379" 
d="M2 106c-1 7 3 13 10 16l35 10c9 3 16 -1 19 -10c13 -43 47 -66 87 -66c47 0 84 34 84 95v335c0 8 6 14 14 14h44c8 0 14 -6 14 -14v-338c0 -96 -70 -157 -154 -157c-69 0 -135 42 -153 115z" />
    <glyph glyph-name="k.smcp" horiz-adv-x="489" 
d="M359 496c2 2 6 4 10 4h58c20 0 24 -10 10 -24l-227 -226l227 -226c14 -14 10 -24 -10 -24h-58c-4 0 -8 2 -10 4l-217 231v-221c0 -8 -6 -14 -14 -14h-44c-8 0 -14 6 -14 14v472c0 8 6 14 14 14h44c8 0 14 -6 14 -14v-221z" />
    <glyph glyph-name="l.smcp" horiz-adv-x="367" 
d="M142 64h192c8 0 14 -6 14 -14v-36c0 -8 -6 -14 -14 -14h-250c-8 0 -14 6 -14 14v472c0 8 6 14 14 14h44c8 0 14 -6 14 -14v-422z" />
    <glyph glyph-name="m.smcp" horiz-adv-x="646" 
d="M500 492c2 5 8 8 13 8h49c8 0 14 -6 14 -14v-472c0 -8 -6 -14 -14 -14h-44c-8 0 -14 6 -14 14v336l-149 -301c-2 -5 -7 -8 -13 -8h-38c-6 0 -11 3 -13 8l-149 301v-336c0 -8 -6 -14 -14 -14h-44c-8 0 -14 6 -14 14v472c0 8 6 14 14 14h49c5 0 11 -3 13 -8l177 -369z" />
    <glyph glyph-name="n.smcp" horiz-adv-x="549" 
d="M84 0c-8 0 -14 6 -14 14v472c0 8 6 14 14 14h51c4 0 9 -2 11 -6l261 -378v370c0 8 6 14 14 14h44c8 0 14 -6 14 -14v-472c0 -8 -6 -14 -14 -14h-51c-4 0 -9 2 -11 6l-261 378v-370c0 -8 -6 -14 -14 -14h-44z" />
    <glyph glyph-name="o.smcp" horiz-adv-x="594" 
d="M297 509c143 0 259 -113 259 -259s-116 -259 -259 -259s-259 113 -259 259s116 259 259 259zM297 55c101 0 185 79 185 195s-84 195 -185 195s-185 -79 -185 -195s84 -195 185 -195z" />
    <glyph glyph-name="p.smcp" horiz-adv-x="427" 
d="M84 0c-8 0 -14 6 -14 14v472c0 8 6 14 14 14h160c85 0 155 -67 155 -155c0 -89 -70 -156 -155 -156h-102v-175c0 -8 -6 -14 -14 -14h-44zM241 436h-99v-184h99c50 0 88 36 88 93s-38 91 -88 91z" />
    <glyph glyph-name="q.smcp" horiz-adv-x="594" 
d="M297 509c143 0 259 -113 259 -259c0 -110 -66 -201 -159 -240l110 -136c11 -14 6 -23 -11 -23h-44c-4 0 -9 2 -11 5l-109 138c-11 -2 -23 -3 -35 -3c-143 0 -259 113 -259 259s116 259 259 259zM297 55c101 0 185 79 185 195s-84 195 -185 195s-185 -79 -185 -195
s84 -195 185 -195z" />
    <glyph glyph-name="r.smcp" horiz-adv-x="452" 
d="M84 0c-8 0 -14 6 -14 14v472c0 8 6 14 14 14h160c85 0 155 -67 155 -155c0 -82 -59 -145 -135 -155l141 -167c11 -14 7 -23 -11 -23h-47c-4 0 -9 2 -11 5l-153 184h-41v-175c0 -8 -6 -14 -14 -14h-44zM241 436h-99v-184h99c50 0 88 36 88 93s-38 91 -88 91z" />
    <glyph glyph-name="s.smcp" horiz-adv-x="420" 
d="M203 -9c-57 0 -109 22 -159 59c-7 5 -8 12 -3 19l24 32c5 7 14 8 21 3c37 -29 79 -47 118 -47c52 -1 100 23 100 77c0 42 -60 74 -114 96c-61 25 -134 63 -134 142c0 81 64 137 149 137c57 0 99 -16 147 -50c7 -5 8 -12 3 -19l-22 -33c-5 -7 -13 -9 -20 -4
c-37 24 -69 39 -109 39c-28 0 -75 -11 -75 -69c0 -38 36 -57 76 -73c78 -31 173 -76 173 -166c0 -93 -83 -143 -175 -143z" />
    <glyph glyph-name="t.smcp" horiz-adv-x="382" 
d="M169 0c-8 0 -14 6 -14 14v422h-122c-8 0 -14 6 -14 14v36c0 8 6 14 14 14h316c8 0 14 -6 14 -14v-36c0 -8 -6 -14 -14 -14h-122v-422c0 -8 -6 -14 -14 -14h-44z" />
    <glyph glyph-name="u.smcp" horiz-adv-x="498" 
d="M370 192v294c0 8 6 14 14 14h44c8 0 14 -6 14 -14v-303c0 -115 -85 -192 -193 -192s-193 77 -193 192v303c0 8 6 14 14 14h44c8 0 14 -6 14 -14v-294c0 -87 53 -133 121 -133c71 0 121 50 121 133z" />
    <glyph glyph-name="v.smcp" horiz-adv-x="512" 
d="M295 9c-3 -5 -8 -9 -13 -9h-52c-5 0 -10 4 -13 9l-190 472c-5 11 0 19 13 19h47c6 0 11 -4 13 -9l156 -408l156 408c2 5 7 9 13 9h47c13 0 18 -8 13 -19z" />
    <glyph glyph-name="w.smcp" horiz-adv-x="708" 
d="M380 500c6 0 11 -4 13 -10l110 -377l107 377c2 6 7 10 14 10h46c11 0 17 -7 14 -18l-143 -472c-2 -6 -7 -10 -13 -10h-51c-7 0 -12 4 -14 10l-109 381l-109 -381c-2 -6 -7 -10 -14 -10h-51c-6 0 -11 4 -13 10l-143 472c-3 11 3 18 14 18h46c7 0 12 -4 14 -10l107 -377
l110 377c2 6 7 10 13 10h52z" />
    <glyph glyph-name="x.smcp" horiz-adv-x="444" 
d="M49 0c-15 0 -20 9 -11 21l144 229l-144 229c-9 12 -4 21 11 21h51c5 0 10 -3 12 -7l110 -180l110 180c2 4 7 7 12 7h51c15 0 20 -9 11 -21l-144 -229l144 -229c9 -12 4 -21 -11 -21h-50c-5 0 -10 3 -12 7l-111 180l-111 -180c-2 -4 -7 -7 -12 -7h-50z" />
    <glyph glyph-name="y.smcp" horiz-adv-x="468" 
d="M86 500c5 0 10 -3 12 -7l136 -227l136 227c2 4 7 7 12 7h47c15 0 20 -9 12 -21l-171 -274v-191c0 -8 -6 -14 -14 -14h-44c-8 0 -14 6 -14 14v191l-171 274c-8 12 -3 21 12 21h47z" />
    <glyph glyph-name="z.smcp" horiz-adv-x="398" 
d="M28 60c0 2 1 5 3 8l257 368h-231c-8 0 -14 6 -14 14v36c0 8 6 14 14 14h299c8 0 14 -6 14 -14v-45c0 -2 -1 -5 -3 -8l-257 -369h246c8 0 14 -6 14 -14v-36c0 -8 -6 -14 -14 -14h-314c-8 0 -14 6 -14 14v46z" />
    <glyph glyph-name="scaron.smcp" horiz-adv-x="420" 
d="M203 -9c92 0 175 50 175 143c0 90 -95 135 -173 166c-40 16 -76 35 -76 73c0 58 47 69 75 69c40 0 72 -15 109 -39c7 -5 15 -3 20 4l22 33c5 7 4 14 -3 19c-48 34 -90 50 -147 50c-85 0 -149 -56 -149 -137c0 -79 73 -117 134 -142c54 -22 114 -54 114 -96
c0 -54 -48 -78 -100 -77c-39 0 -81 18 -118 47c-7 5 -16 4 -21 -3l-24 -32c-5 -7 -4 -14 3 -19c50 -37 102 -59 159 -59zM105 672c-9 13 -5 22 11 22h27c4 0 9 -2 11 -5l57 -67l57 67c2 3 7 5 10 5h28c15 0 20 -9 11 -22l-72 -106c-2 -4 -7 -6 -11 -6h-47c-4 0 -9 2 -11 6z
" />
    <glyph glyph-name="oe.smcp" horiz-adv-x="835" 
d="M797 450c0 -8 -6 -14 -14 -14h-236v-154h204c8 0 14 -6 14 -14v-36c0 -8 -6 -14 -14 -14h-204v-154h236c8 0 14 -6 14 -14v-36c0 -8 -6 -14 -14 -14h-294c-8 0 -14 6 -14 14v52c-44 -46 -110 -75 -178 -75c-143 0 -259 113 -259 259s116 259 259 259
c68 0 134 -29 178 -76v53c0 8 6 14 14 14h294c8 0 14 -6 14 -14v-36zM297 55c101 0 185 79 185 195s-84 195 -185 195s-185 -79 -185 -195s84 -195 185 -195z" />
    <glyph glyph-name="zcaron.smcp" horiz-adv-x="398" 
d="M28 60c0 2 1 5 3 8l257 368h-231c-8 0 -14 6 -14 14v36c0 8 6 14 14 14h299c8 0 14 -6 14 -14v-45c0 -2 -1 -5 -3 -8l-257 -369h246c8 0 14 -6 14 -14v-36c0 -8 -6 -14 -14 -14h-314c-8 0 -14 6 -14 14v46zM99 672c-9 13 -4 22 11 22h28c3 0 8 -2 10 -5l57 -67l57 67
c2 3 7 5 10 5h28c15 0 20 -9 11 -22l-72 -106c-2 -4 -7 -6 -11 -6h-47c-4 0 -9 2 -11 6z" />
    <glyph glyph-name="agrave.smcp" horiz-adv-x="512" 
d="M295 491c-3 5 -8 9 -13 9h-52c-5 0 -10 -4 -13 -9l-190 -472c-5 -11 0 -19 13 -19h47c6 0 11 4 13 9l44 115h224l44 -115c2 -5 7 -9 13 -9h47c13 0 18 8 13 19zM167 184l89 233l89 -233h-178zM224 560c-5 0 -10 3 -12 7l-62 110c-7 13 -2 21 12 21h49c5 0 10 -4 12 -9
l45 -110c5 -11 0 -19 -13 -19h-31z" />
    <glyph glyph-name="aacute.smcp" horiz-adv-x="512" 
d="M295 491c-3 5 -8 9 -13 9h-52c-5 0 -10 -4 -13 -9l-190 -472c-5 -11 0 -19 13 -19h47c6 0 11 4 13 9l44 115h224l44 -115c2 -5 7 -9 13 -9h47c13 0 18 8 13 19zM167 184l89 233l89 -233h-178zM346 698c14 0 19 -8 12 -21l-62 -110c-2 -4 -7 -7 -12 -7h-31
c-13 0 -18 8 -13 19l44 110c3 5 8 9 13 9h49z" />
    <glyph glyph-name="acircumflex.smcp" horiz-adv-x="512" 
d="M295 491c-3 5 -8 9 -13 9h-52c-5 0 -10 -4 -13 -9l-190 -472c-5 -11 0 -19 13 -19h47c6 0 11 4 13 9l44 115h224l44 -115c2 -5 7 -9 13 -9h47c13 0 18 8 13 19zM167 184l89 233l89 -233h-178zM198 575c-2 -3 -7 -5 -11 -5h-27c-16 0 -20 9 -11 22l71 106c2 3 7 6 11 6h47
c4 0 9 -3 11 -6l72 -106c9 -13 4 -22 -11 -22h-28c-3 0 -8 2 -10 5l-57 67z" />
    <glyph glyph-name="atilde.smcp" horiz-adv-x="512" 
d="M295 491c-3 5 -8 9 -13 9h-52c-5 0 -10 -4 -13 -9l-190 -472c-5 -11 0 -19 13 -19h47c6 0 11 4 13 9l44 115h224l44 -115c2 -5 7 -9 13 -9h47c13 0 18 8 13 19zM167 184l89 233l89 -233h-178zM211 656c47 -3 62 -36 94 -39c24 -1 36 12 42 23c4 9 5 16 27 9l18 -6
c7 -3 11 -9 9 -16c-8 -23 -32 -73 -100 -68c-42 5 -67 38 -92 41c-27 2 -40 -16 -45 -28c-3 -7 -3 -11 -16 -7l-27 7c-7 3 -11 9 -9 16c8 23 32 70 99 68z" />
    <glyph glyph-name="adieresis.smcp" horiz-adv-x="512" 
d="M295 491c-3 5 -8 9 -13 9h-52c-5 0 -10 -4 -13 -9l-190 -472c-5 -11 0 -19 13 -19h47c6 0 11 4 13 9l44 115h224l44 -115c2 -5 7 -9 13 -9h47c13 0 18 8 13 19zM167 184l89 233l89 -233h-178zM174 560c-26 0 -47 21 -47 47c0 27 21 48 47 48c27 0 48 -21 48 -48
c0 -26 -21 -47 -48 -47zM337 560c-26 0 -47 21 -47 47c0 27 21 48 47 48c27 0 48 -21 48 -48c0 -26 -21 -47 -48 -47z" />
    <glyph glyph-name="aring.smcp" horiz-adv-x="512" 
d="M295 491c-3 5 -8 9 -13 9h-52c-5 0 -10 -4 -13 -9l-190 -472c-5 -11 0 -19 13 -19h47c6 0 11 4 13 9l44 115h224l44 -115c2 -5 7 -9 13 -9h47c13 0 18 8 13 19zM167 184l89 233l89 -233h-178zM163 649c0 51 41 92 92 92s92 -41 92 -92s-41 -92 -92 -92s-92 41 -92 92z
M205 649c0 -27 23 -50 50 -50s50 23 50 50s-23 50 -50 50s-50 -23 -50 -50z" />
    <glyph glyph-name="ae.smcp" horiz-adv-x="661" 
d="M373 436v-154h204c8 0 14 -6 14 -14v-36c0 -8 -6 -14 -14 -14h-204v-154h236c8 0 14 -6 14 -14v-36c0 -8 -6 -14 -14 -14h-294c-8 0 -14 6 -14 14v110h-157l-44 -115c-2 -5 -7 -9 -13 -9h-47c-13 0 -18 8 -13 19l190 472c3 5 8 9 13 9h379c8 0 14 -6 14 -14v-36
c0 -8 -6 -14 -14 -14h-236zM265 436l-98 -252h134v252h-36z" />
    <glyph glyph-name="ccedilla.smcp" horiz-adv-x="534" 
d="M295 -73h-11c-7 0 -12 5 -12 11v55c-131 11 -234 117 -234 257c0 149 116 259 259 259c73 0 142 -28 190 -78c6 -6 5 -14 0 -19l-26 -26c-7 -7 -15 -6 -21 1c-35 35 -94 60 -144 60c-103 0 -186 -87 -186 -197s83 -197 186 -197c50 0 109 25 144 60c6 7 14 8 21 1l26 -26
c5 -5 6 -13 0 -19c-46 -48 -110 -75 -179 -78v-28c55 -1 82 -38 82 -76c0 -56 -50 -81 -92 -81c-23 0 -46 6 -65 17c-6 4 -7 11 -4 18l7 11c5 8 13 9 21 6c14 -7 28 -9 39 -9c23 0 46 13 46 38c0 24 -17 40 -47 40z" />
    <glyph glyph-name="egrave.smcp" horiz-adv-x="430" 
d="M392 450c0 -8 -6 -14 -14 -14h-236v-154h204c8 0 14 -6 14 -14v-36c0 -8 -6 -14 -14 -14h-204v-154h236c8 0 14 -6 14 -14v-36c0 -8 -6 -14 -14 -14h-294c-8 0 -14 6 -14 14v472c0 8 6 14 14 14h294c8 0 14 -6 14 -14v-36zM220 560c-5 0 -10 3 -12 7l-62 110
c-7 13 -2 21 12 21h49c5 0 10 -3 13 -9l44 -110c5 -11 0 -19 -13 -19h-31z" />
    <glyph glyph-name="eacute.smcp" horiz-adv-x="430" 
d="M392 450c0 -8 -6 -14 -14 -14h-236v-154h204c8 0 14 -6 14 -14v-36c0 -8 -6 -14 -14 -14h-204v-154h236c8 0 14 -6 14 -14v-36c0 -8 -6 -14 -14 -14h-294c-8 0 -14 6 -14 14v472c0 8 6 14 14 14h294c8 0 14 -6 14 -14v-36zM311 698c14 0 19 -8 12 -21l-62 -110
c-2 -4 -7 -7 -12 -7h-31c-13 0 -18 8 -13 19l44 110c3 6 8 9 13 9h49z" />
    <glyph glyph-name="ecircumflex.smcp" horiz-adv-x="430" 
d="M392 450c0 -8 -6 -14 -14 -14h-236v-154h204c8 0 14 -6 14 -14v-36c0 -8 -6 -14 -14 -14h-204v-154h236c8 0 14 -6 14 -14v-36c0 -8 -6 -14 -14 -14h-294c-8 0 -14 6 -14 14v472c0 8 6 14 14 14h294c8 0 14 -6 14 -14v-36zM168 575c-2 -3 -7 -5 -10 -5h-28
c-15 0 -20 9 -11 22l71 106c2 4 7 6 11 6h47c4 0 9 -2 11 -6l72 -106c9 -13 4 -22 -11 -22h-28c-3 0 -8 2 -10 5l-57 67z" />
    <glyph glyph-name="edieresis.smcp" horiz-adv-x="430" 
d="M392 450c0 -8 -6 -14 -14 -14h-236v-154h204c8 0 14 -6 14 -14v-36c0 -8 -6 -14 -14 -14h-204v-154h236c8 0 14 -6 14 -14v-36c0 -8 -6 -14 -14 -14h-294c-8 0 -14 6 -14 14v472c0 8 6 14 14 14h294c8 0 14 -6 14 -14v-36zM150 560c-26 0 -47 21 -47 47c0 27 21 48 47 48
c27 0 48 -21 48 -48c0 -26 -21 -47 -48 -47zM313 560c-26 0 -47 21 -47 47c0 27 21 48 47 48c27 0 48 -21 48 -48c0 -26 -21 -47 -48 -47z" />
    <glyph glyph-name="igrave.smcp" horiz-adv-x="217" 
d="M133 500c8 0 14 -6 14 -14v-472c0 -8 -6 -14 -14 -14h-44c-8 0 -14 6 -14 14v472c0 8 6 14 14 14h44zM94 560c-5 0 -10 3 -12 7l-62 110c-7 13 -2 21 12 21h49c5 0 10 -3 13 -9l44 -110c5 -11 0 -19 -13 -19h-31z" />
    <glyph glyph-name="iacute.smcp" horiz-adv-x="217" 
d="M128 500c8 0 14 -6 14 -14v-472c0 -8 -6 -14 -14 -14h-44c-8 0 -14 6 -14 14v472c0 8 6 14 14 14h44zM186 698c14 0 19 -8 12 -21l-62 -110c-2 -4 -7 -7 -12 -7h-31c-13 0 -18 8 -13 19l44 110c3 6 8 9 13 9h49z" />
    <glyph glyph-name="icircumflex.smcp" horiz-adv-x="222" 
d="M133 500c8 0 14 -6 14 -14v-472c0 -8 -6 -14 -14 -14h-44c-8 0 -14 6 -14 14v472c0 8 6 14 14 14h44zM54 575c-2 -3 -7 -5 -10 -5h-28c-15 0 -20 9 -11 22l71 106c2 4 7 6 11 6h47c4 0 9 -2 11 -6l72 -106c9 -13 4 -22 -11 -22h-28c-3 0 -8 2 -10 5l-57 67z" />
    <glyph glyph-name="idieresis.smcp" horiz-adv-x="220" 
d="M88 0c-8 0 -14 6 -14 14v472c0 8 6 14 14 14h44c8 0 14 -6 14 -14v-472c0 -8 -6 -14 -14 -14h-44zM192 560c-27 0 -48 21 -48 47c0 27 21 48 48 48c26 0 47 -21 47 -48c0 -26 -21 -47 -47 -47zM29 560c-27 0 -48 21 -48 47c0 27 21 48 48 48c26 0 47 -21 47 -48
c0 -26 -21 -47 -47 -47z" />
    <glyph glyph-name="eth.smcp" horiz-adv-x="518" 
d="M230 0h-141c-8 0 -14 6 -14 14v209h-61c-8 0 -14 6 -14 14v26c0 8 6 14 14 14h61v209c0 8 6 14 14 14h141c138 0 250 -99 250 -249c0 -151 -112 -251 -250 -251zM147 223v-159h78c98 0 184 64 184 187c0 116 -86 185 -184 185h-78v-159h142c8 0 14 -6 14 -14v-26
c0 -8 -6 -14 -14 -14h-142z" />
    <glyph glyph-name="ntilde.smcp" horiz-adv-x="549" 
d="M84 0c-8 0 -14 6 -14 14v472c0 8 6 14 14 14h51c4 0 9 -2 11 -6l261 -378v370c0 8 6 14 14 14h44c8 0 14 -6 14 -14v-472c0 -8 -6 -14 -14 -14h-51c-4 0 -9 2 -11 6l-261 378v-370c0 -8 -6 -14 -14 -14h-44zM228 656c47 -3 62 -36 94 -39c24 -1 36 12 42 23
c4 9 5 16 20 11l25 -8c7 -2 11 -9 9 -16c-8 -23 -32 -73 -100 -68c-42 5 -67 38 -92 41c-26 2 -39 -14 -44 -26c-3 -7 -4 -13 -24 -7l-20 6c-7 2 -11 8 -9 15c8 23 32 70 99 68z" />
    <glyph glyph-name="ograve.smcp" horiz-adv-x="594" 
d="M297 509c143 0 259 -113 259 -259s-116 -259 -259 -259s-259 113 -259 259s116 259 259 259zM297 55c101 0 185 79 185 195s-84 195 -185 195s-185 -79 -185 -195s84 -195 185 -195zM277 560c-5 0 -10 3 -12 7l-62 110c-7 13 -2 21 12 21h49c5 0 10 -3 13 -9l44 -110
c5 -11 0 -19 -13 -19h-31z" />
    <glyph glyph-name="oacute.smcp" horiz-adv-x="594" 
d="M297 509c143 0 259 -113 259 -259s-116 -259 -259 -259s-259 113 -259 259s116 259 259 259zM297 55c101 0 185 79 185 195s-84 195 -185 195s-185 -79 -185 -195s84 -195 185 -195zM381 698c14 0 19 -8 12 -21l-62 -110c-2 -4 -7 -7 -12 -7h-31c-13 0 -18 8 -13 19
l44 110c3 6 8 9 13 9h49z" />
    <glyph glyph-name="ocircumflex.smcp" horiz-adv-x="594" 
d="M297 509c143 0 259 -113 259 -259s-116 -259 -259 -259s-259 113 -259 259s116 259 259 259zM297 55c101 0 185 79 185 195s-84 195 -185 195s-185 -79 -185 -195s84 -195 185 -195zM239 575c-2 -3 -7 -5 -10 -5h-28c-15 0 -20 9 -11 22l71 106c2 4 7 6 11 6h47
c4 0 9 -2 11 -6l72 -106c9 -13 4 -22 -11 -22h-28c-3 0 -8 2 -10 5l-57 67z" />
    <glyph glyph-name="otilde.smcp" horiz-adv-x="594" 
d="M297 509c143 0 259 -113 259 -259s-116 -259 -259 -259s-259 113 -259 259s116 259 259 259zM297 55c101 0 185 79 185 195s-84 195 -185 195s-185 -79 -185 -195s84 -195 185 -195zM259 656c47 -3 62 -36 94 -39c26 -1 38 14 43 26c3 8 4 13 26 6l18 -6
c7 -2 11 -9 9 -16c-8 -23 -32 -73 -100 -68c-42 5 -67 38 -92 41c-26 2 -39 -14 -44 -26c-3 -7 -4 -13 -18 -9l-26 8c-7 2 -11 8 -9 15c8 23 32 70 99 68z" />
    <glyph glyph-name="odieresis.smcp" horiz-adv-x="594" 
d="M297 509c-143 0 -259 -113 -259 -259s116 -259 259 -259s259 113 259 259s-116 259 -259 259zM297 55c-101 0 -185 79 -185 195s84 195 185 195s185 -79 185 -195s-84 -195 -185 -195zM215 560c-26 0 -47 21 -47 47c0 27 21 48 47 48c27 0 48 -21 48 -48
c0 -26 -21 -47 -48 -47zM378 560c-26 0 -47 21 -47 47c0 27 21 48 47 48c27 0 48 -21 48 -48c0 -26 -21 -47 -48 -47z" />
    <glyph glyph-name="oslash.smcp" horiz-adv-x="603" 
d="M297 509c63 0 122 -23 167 -60l63 63c6 6 14 6 20 0l19 -20c6 -6 6 -14 0 -20l-64 -64c34 -43 54 -98 54 -158c0 -146 -116 -259 -259 -259c-60 0 -115 20 -159 53l-56 -55c-6 -6 -14 -6 -20 0l-19 20c-6 6 -6 14 0 20l55 54c-38 44 -60 102 -60 167
c0 146 116 259 259 259zM112 250c0 -46 13 -87 35 -118l269 269c-32 28 -74 44 -119 44c-101 0 -185 -79 -185 -195zM297 55c101 0 185 79 185 195c0 41 -11 78 -30 108l-266 -266c31 -24 69 -37 111 -37z" />
    <glyph glyph-name="ugrave.smcp" horiz-adv-x="498" 
d="M370 192v294c0 8 6 14 14 14h44c8 0 14 -6 14 -14v-303c0 -115 -85 -192 -193 -192s-193 77 -193 192v303c0 8 6 14 14 14h44c8 0 14 -6 14 -14v-294c0 -87 53 -133 121 -133c71 0 121 50 121 133zM234 560c-5 0 -10 3 -12 7l-62 110c-7 13 -2 21 12 21h49
c5 0 10 -3 13 -9l44 -110c5 -11 0 -19 -13 -19h-31z" />
    </font>
</defs>
</svg>
