<?xml version="1.0" standalone="no"?>
<!DOCTYPE svg PUBLIC "-//W3C//DTD SVG 1.1//EN" "http://www.w3.org/Graphics/SVG/1.1/DTD/svg11.dtd" >
<svg xmlns="http://www.w3.org/2000/svg" xmlns:xlink="http://www.w3.org/1999/xlink" version="1.1">
<metadata>
Created by FontForge 20170924 at Thu Mar 15 18:13:32 2018
 By www-data
Copyright (c) 2018 by Ahmet Altun. All rights reserved.
</metadata>
<defs>
<font id="Narin-Black" horiz-adv-x="570" >
  <font-face 
    font-family="Narin Black"
    font-weight="800"
    font-stretch="normal"
    units-per-em="1000"
    panose-1="2 0 5 3 3 0 0 2 0 3"
    ascent="700"
    descent="-300"
    x-height="400"
    cap-height="700"
    bbox="-136.857 -302 1059 1064"
    underline-thickness="50"
    underline-position="-100"
    stemh="140"
    stemv="142"
    unicode-range="U+000D-FB03"
  />
<missing-glyph horiz-adv-x="716" 
d="M100 770h516v-875h-516v875zM132 -82h453l-227 392zM585 747h-453l226 -391zM123 716v-766l222 383zM593 -50v766l-221 -383z" />
    <glyph glyph-name="ff" unicode="ff" horiz-adv-x="662" 
d="M696 673c9 -6 11 -16 6 -25l-37 -63c-7 -12 -18 -14 -30 -8c-15 7 -34 12 -51 12c-33 0 -64 -19 -64 -60v-129h100c12 0 20 -8 20 -20v-83c0 -12 -8 -20 -20 -20h-100v-257c0 -12 -8 -20 -20 -20h-102c-12 0 -20 8 -20 20v257h-147v-257c0 -12 -8 -20 -20 -20h-102
c-12 0 -20 8 -20 20v257h-60c-12 0 -20 8 -20 20v83c0 12 8 20 20 20h60v114c0 114 91 168 188 168c44 0 100 -10 138 -36c35 41 92 63 151 63c45 0 92 -12 130 -36zM231 400h147v137c-17 12 -52 24 -75 24c-33 0 -72 -18 -72 -59v-102z" />
    <glyph glyph-name="fi" unicode="fi" horiz-adv-x="574" 
d="M491 400c12 0 20 -8 20 -20v-360c0 -12 -8 -20 -20 -20h-102c-12 0 -20 8 -20 20v257h-138v-257c0 -12 -8 -20 -20 -20h-102c-12 0 -20 8 -20 20v257h-60c-12 0 -20 8 -20 20v83c0 12 8 20 20 20h60v131c0 117 108 178 209 178c93 0 213 -55 213 -178v-20
c0 -10 -7 -18 -17 -20l-102 -15c-14 -3 -23 5 -23 19v27c0 45 -44 60 -70 60s-68 -15 -68 -60v-122h260z" />
    <glyph glyph-name="fl" unicode="fl" horiz-adv-x="586" 
d="M503 700c12 0 20 -8 20 -20v-660c0 -12 -8 -20 -20 -20h-102c-12 0 -20 8 -20 20v516c-17 11 -43 24 -79 24c-33 0 -71 -17 -71 -61v-99h74c12 0 20 -8 20 -20v-83c0 -12 -8 -20 -20 -20h-74v-257c0 -12 -8 -20 -20 -20h-102c-12 0 -20 8 -20 20v257h-60
c-12 0 -20 8 -20 20v83c0 12 8 20 20 20h60v111c0 114 95 170 192 170c33 0 69 -9 100 -23v22c0 12 8 20 20 20h102z" />
    <glyph glyph-name="ffi" unicode="ffi" horiz-adv-x="859" 
d="M780 400c12 0 20 -8 20 -20v-360c0 -12 -8 -20 -20 -20h-102c-12 0 -20 8 -20 20v257h-142v-257c0 -12 -8 -20 -20 -20h-102c-12 0 -20 8 -20 20v257h-143v-257c0 -12 -8 -20 -20 -20h-102c-12 0 -20 8 -20 20v257h-60c-12 0 -20 8 -20 20v83c0 12 8 20 20 20h60v114
c0 114 91 168 188 168c43 0 105 -13 140 -40c41 43 105 67 166 67c93 0 217 -55 217 -178v-20c0 -10 -7 -18 -17 -20l-102 -15c-14 -3 -23 5 -23 19v28c0 45 -48 61 -74 61s-68 -17 -68 -62v-122h264zM231 400h143v136c-17 12 -51 24 -74 24c-33 0 -69 -17 -69 -58v-102z
" />
    <glyph glyph-name="f_k" unicode="fk" horiz-adv-x="871" 
d="M660 0c-5 0 -11 3 -15 7l-111 136v-123c0 -12 -8 -20 -20 -20h-102c-12 0 -20 8 -20 20v509c-17 11 -51 25 -87 25c-33 0 -74 -15 -74 -59v-95h73c12 0 20 -8 20 -20v-83c0 -12 -8 -20 -20 -20h-73v-257c0 -12 -8 -20 -20 -20h-102c-12 0 -20 8 -20 20v257h-60
c-12 0 -20 8 -20 20v83c0 12 8 20 20 20h60v111c0 114 97 170 194 170c33 0 78 -10 109 -25v24c0 12 8 20 20 20h102c12 0 20 -8 20 -20v-423l111 136c4 4 10 7 15 7h136c29 0 34 -14 14 -34l-165 -166l165 -166c20 -20 15 -34 -14 -34h-136z" />
    <glyph glyph-name="f_h" unicode="fh" horiz-adv-x="867" 
d="M412 0c-12 0 -20 8 -20 20v509c-17 11 -51 25 -87 25c-33 0 -74 -15 -74 -59v-95h74c12 0 20 -8 20 -20v-83c0 -12 -8 -20 -20 -20h-74v-257c0 -12 -8 -20 -20 -20h-102c-12 0 -20 8 -20 20v257h-60c-12 0 -20 8 -20 20v83c0 12 8 20 20 20h60v111c0 114 97 170 194 170
c33 0 78 -10 109 -25v24c0 12 8 20 20 20h102c12 0 20 -8 20 -20v-329c26 40 73 58 112 58c88 0 162 -43 162 -177v-212c0 -12 -8 -20 -20 -20h-102c-12 0 -20 8 -20 20v206c0 39 -22 66 -62 66c-46 0 -68 -36 -70 -61v-211c0 -12 -8 -20 -20 -20h-102z" />
    <glyph glyph-name="f_b" unicode="fb" horiz-adv-x="899" 
d="M863 200c0 -125 -84 -209 -203 -209c-39 0 -98 18 -126 51v-22c0 -12 -8 -20 -20 -20h-102c-12 0 -20 8 -20 20v509c-17 11 -51 25 -87 25c-33 0 -74 -15 -74 -59v-95h75c12 0 20 -8 20 -20v-83c0 -12 -8 -20 -20 -20h-75v-257c0 -12 -8 -20 -20 -20h-102
c-12 0 -20 8 -20 20v257h-60c-12 0 -20 8 -20 20v83c0 12 8 20 20 20h60v111c0 114 97 170 194 170c33 0 78 -10 109 -25v24c0 12 8 20 20 20h102c12 0 20 -8 20 -20v-322c28 33 87 51 126 51c119 0 203 -81 203 -209zM716 200c0 54 -41 89 -89 89c-59 0 -92 -45 -92 -89
s33 -89 92 -89c48 0 89 35 89 89z" />
    <glyph glyph-name="f_j" unicode="fj" horiz-adv-x="574" 
d="M511 -80c0 -128 -96 -178 -180 -178c-43 0 -97 9 -149 49c-8 6 -9 17 -3 26l45 66c8 11 20 12 32 6c18 -11 42 -19 64 -19c25 0 47 12 49 47v360h-138v-257c0 -12 -8 -20 -20 -20h-102c-12 0 -20 8 -20 20v257h-60c-12 0 -20 8 -20 20v83c0 12 8 20 20 20h60v131
c0 117 108 178 209 178c93 0 213 -55 213 -178v-20c0 -10 -7 -18 -17 -20l-102 -15c-14 -3 -23 5 -23 19v27c0 45 -44 60 -70 60s-68 -15 -68 -60v-122h260c12 0 20 -8 20 -20v-460z" />
    <glyph glyph-name=".notdef" horiz-adv-x="716" 
d="M100 770h516v-875h-516v875zM132 -82h453l-227 392zM585 747h-453l226 -391zM123 716v-766l222 383zM593 -50v766l-221 -383z" />
    <glyph glyph-name=".null" horiz-adv-x="0" 
 />
    <glyph glyph-name=".null" horiz-adv-x="0" 
 />
    <glyph glyph-name="CR" unicode="&#xd;" horiz-adv-x="240" 
 />
    <glyph glyph-name="space" unicode=" " horiz-adv-x="240" 
 />
    <glyph glyph-name="exclam" unicode="!" horiz-adv-x="288" 
d="M204 700c13 0 21 -8 20 -21l-21 -439c-1 -11 -9 -19 -20 -19h-78c-11 0 -19 8 -20 19l-21 439c-1 13 7 21 20 21h120zM222 70c0 -43 -35 -78 -78 -78s-78 35 -78 78s35 78 78 78s78 -35 78 -78z" />
    <glyph glyph-name="quotedbl" unicode="&#x22;" horiz-adv-x="439" 
d="M173 448c-1 -11 -9 -19 -20 -19h-77c-11 0 -19 8 -20 19l-10 231c-1 13 7 21 20 21h97c13 0 21 -8 20 -21zM383 448c-1 -11 -9 -19 -20 -19h-77c-11 0 -19 8 -20 19l-10 231c-1 13 7 21 20 21h97c13 0 21 -8 20 -21z" />
    <glyph glyph-name="numbersign" unicode="#" horiz-adv-x="641" 
d="M364 0c-14 0 -22 9 -20 22l18 145h-120l-19 -149c-1 -11 -9 -18 -20 -18h-38c-14 0 -22 9 -20 22l18 145h-78c-13 0 -21 9 -19 22l4 39c1 11 9 18 20 18h82l18 144h-77c-14 0 -22 9 -20 23l5 39c1 10 9 17 20 17h82l19 152c1 11 9 18 20 18h38c14 0 22 -9 20 -22
l-18 -148h120l19 152c1 11 9 18 20 18h38c14 0 22 -9 20 -22l-18 -148h77c14 0 22 -9 20 -23l-5 -39c-1 -10 -9 -17 -20 -17h-82l-18 -144h78c13 0 21 -9 19 -22l-4 -39c-1 -11 -9 -18 -20 -18h-82l-19 -149c-1 -11 -9 -18 -20 -18h-38zM269 390l-18 -144h120l18 144h-120z
" />
    <glyph glyph-name="percent" unicode="%" horiz-adv-x="726" 
d="M239 10c-4 -6 -11 -10 -18 -10h-97c-21 0 -28 12 -18 30l381 660c4 6 11 10 18 10h97c21 0 28 -12 18 -30zM180 705c75 0 136 -61 136 -136s-61 -135 -136 -135s-135 60 -135 135s60 136 135 136zM545 265c75 0 136 -61 136 -136s-61 -135 -136 -135s-135 60 -135 135
s60 136 135 136zM545 184c-30 0 -54 -25 -54 -55s24 -54 54 -54s55 24 55 54s-25 55 -55 55zM180 624c-30 0 -54 -25 -54 -55s24 -54 54 -54s55 24 55 54s-25 55 -55 55z" />
    <glyph glyph-name="ampersand" unicode="&#x26;" horiz-adv-x="784" 
d="M54 185c0 90 44 151 115 197c-58 54 -71 101 -71 153c0 105 85 173 184 173c96 0 183 -69 183 -173c0 -65 -35 -119 -90 -160c30 -30 58 -57 90 -90l94 102c8 8 19 9 28 1l69 -61c9 -9 9 -20 1 -29l-100 -108l157 -156c20 -20 15 -34 -14 -34h-142c-5 0 -10 2 -14 6
l-80 80c-74 -74 -139 -96 -205 -96c-96 0 -205 60 -205 195zM260 119c37 0 70 22 112 64l-110 108c-33 -27 -72 -64 -72 -110c0 -39 46 -62 70 -62zM233 537c0 -16 9 -47 49 -83c30 26 47 61 47 84c0 37 -22 55 -47 55s-49 -18 -49 -56z" />
    <glyph glyph-name="quotesingle" unicode="'" horiz-adv-x="229" 
d="M173 448c-1 -11 -9 -19 -20 -19h-77c-11 0 -19 8 -20 19l-10 231c-1 13 7 21 20 21h97c13 0 21 -8 20 -21z" />
    <glyph glyph-name="parenleft" unicode="(" horiz-adv-x="367" 
d="M334 -98c9 -10 8 -22 -2 -30l-71 -59c-8 -7 -19 -7 -27 1c-119 127 -188 294 -189 462c1 168 70 335 189 462c8 8 19 8 27 1l70 -60c10 -8 10 -20 1 -29c-98 -110 -144 -240 -144 -374s47 -265 146 -374z" />
    <glyph glyph-name="parenright" unicode=")" horiz-adv-x="367" 
d="M133 -186c-8 -8 -19 -8 -27 -1l-71 59c-10 8 -11 20 -2 30c99 109 146 240 146 374s-46 264 -144 374c-9 9 -9 21 1 29l70 60c8 7 19 7 27 -1c119 -127 188 -294 189 -462c-1 -168 -70 -335 -189 -462z" />
    <glyph glyph-name="asterisk" unicode="*" horiz-adv-x="458" 
d="M73 611c4 13 15 18 28 11l88 -45l-14 100c-2 14 6 23 20 23h68c14 0 22 -9 20 -23l-14 -100l88 45c13 7 24 2 28 -11l21 -65c4 -12 -2 -23 -15 -25l-98 -20l68 -67c10 -10 9 -23 -2 -31l-55 -40c-11 -8 -22 -5 -29 7l-46 84l-46 -84c-7 -12 -18 -15 -29 -7l-55 40
c-11 8 -12 21 -2 31l68 67l-98 20c-13 2 -19 13 -15 25z" />
    <glyph glyph-name="plus" unicode="+" horiz-adv-x="495" 
d="M312 264h100c12 0 20 -8 20 -20v-89c0 -12 -8 -20 -20 -20h-100v-100c0 -12 -8 -20 -20 -20h-89c-12 0 -20 8 -20 20v100h-100c-12 0 -20 8 -20 20v89c0 12 8 20 20 20h100v100c0 12 8 20 20 20h89c12 0 20 -8 20 -20v-100z" />
    <glyph glyph-name="comma" unicode="," horiz-adv-x="283" 
d="M202 100c16 0 24 -10 20 -26l-57 -194c-2 -8 -10 -14 -19 -14h-78c-14 0 -22 9 -19 23l29 194c2 10 10 17 20 17h104z" />
    <glyph glyph-name="hyphen" unicode="-" horiz-adv-x="426" 
d="M63 245c0 12 8 20 20 20h260c12 0 20 -8 20 -20v-92c0 -12 -8 -20 -20 -20h-260c-12 0 -20 8 -20 20v92z" />
    <glyph glyph-name="period" unicode="." horiz-adv-x="246" 
d="M201 69c0 -43 -35 -78 -78 -78s-78 35 -78 78s35 78 78 78s78 -35 78 -78z" />
    <glyph glyph-name="slash" unicode="/" horiz-adv-x="416" 
d="M387 700c17 0 25 -11 19 -27l-254 -660c-3 -8 -10 -13 -19 -13h-104c-17 0 -25 11 -19 27l253 660c3 8 11 13 19 13h105z" />
    <glyph glyph-name="zero" unicode="0" horiz-adv-x="644" 
d="M322 709c159 0 268 -132 268 -359s-109 -359 -268 -359s-268 132 -268 359s109 359 268 359zM322 124c94 0 122 123 122 226s-28 226 -122 226s-122 -123 -122 -226s28 -226 122 -226z" />
    <glyph glyph-name="one" unicode="1" horiz-adv-x="444" 
d="M37 524c-6 9 -4 20 4 27l170 144c4 3 9 5 13 5h119c12 0 20 -8 20 -20v-660c0 -12 -8 -20 -20 -20h-106c-12 0 -20 8 -20 20v505l-112 -66c-10 -5 -20 -3 -27 6z" />
    <glyph glyph-name="two" unicode="2" horiz-adv-x="539" 
d="M173 497c-6 -12 -17 -16 -29 -10l-83 43c-10 5 -14 15 -10 24c32 73 107 154 224 154c151 0 228 -101 228 -218c0 -78 -36 -138 -87 -196l-150 -161h217c12 0 20 -8 20 -20v-93c0 -12 -8 -20 -20 -20h-392c-12 0 -20 8 -20 20v90c0 5 2 10 5 14l231 253
c32 37 50 75 50 115c0 35 -22 81 -84 81c-45 0 -78 -31 -100 -76z" />
    <glyph glyph-name="three" unicode="3" horiz-adv-x="564" 
d="M263 307h-91c-12 0 -20 8 -20 20v86c0 12 8 20 20 20h92c48 0 79 42 79 78c0 48 -43 68 -86 68c-30 0 -68 -13 -94 -43c-9 -10 -21 -12 -32 -3l-62 54c-8 7 -10 18 -3 27c51 62 121 95 195 95c109 0 222 -60 222 -191c0 -50 -27 -112 -85 -140c68 -33 112 -95 112 -169
c0 -149 -128 -217 -251 -218c-80 1 -147 26 -211 95c-7 8 -6 19 2 27l64 60c9 9 21 8 30 -2c34 -34 78 -50 115 -50c52 0 107 32 107 93c0 62 -51 93 -103 93z" />
    <glyph glyph-name="four" unicode="4" horiz-adv-x="563" 
d="M309 384c0 12 8 20 20 20h102c12 0 20 -8 20 -20v-125h56c12 0 20 -8 20 -20v-93c0 -12 -8 -20 -20 -20h-56v-106c0 -12 -8 -20 -20 -20h-102c-12 0 -20 8 -20 20v106h-271c-12 0 -20 8 -20 20v89c0 3 1 7 2 9l232 445c4 7 11 11 18 11h113c20 0 27 -12 17 -29l-219 -412
h128v125z" />
    <glyph glyph-name="five" unicode="5" horiz-adv-x="547" 
d="M227 567v-129h34c123 0 241 -69 241 -218c0 -136 -114 -229 -244 -229c-75 0 -156 29 -209 74c-8 7 -9 18 -2 26l57 75c8 10 19 11 30 4c35 -26 77 -43 123 -43c69 0 101 54 101 90c0 69 -69 89 -99 89h-156c-12 0 -20 8 -20 20v354c0 12 8 20 20 20h338
c12 0 20 -8 20 -20v-93c0 -12 -8 -20 -20 -20h-214z" />
    <glyph glyph-name="six" unicode="6" horiz-adv-x="554" 
d="M403 700c20 0 27 -12 17 -30l-133 -235c7 1 11 1 20 1c127 -10 202 -91 202 -220c0 -136 -107 -225 -231 -225s-233 87 -233 225c0 31 10 75 43 139l186 335c4 6 11 10 18 10h111zM276 305c-46 0 -89 -34 -89 -89s43 -89 89 -89s92 33 92 89c0 52 -44 89 -92 89z" />
    <glyph glyph-name="seven" unicode="7" horiz-adv-x="497" 
d="M441 700c12 0 20 -8 20 -20v-106c0 -2 -1 -6 -2 -8l-261 -555c-3 -6 -10 -11 -18 -11h-111c-18 0 -26 11 -18 28l252 537h-256c-12 0 -20 8 -20 20v95c0 12 8 20 20 20h394z" />
    <glyph glyph-name="eight" unicode="8" horiz-adv-x="604" 
d="M79 515c0 131 110 193 223 193s223 -62 223 -193c0 -53 -24 -111 -83 -138c62 -36 108 -94 108 -169c0 -149 -123 -216 -248 -217c-125 1 -248 68 -248 217c0 75 46 133 108 169c-59 27 -83 85 -83 138zM302 307c-53 0 -105 -33 -105 -94c0 -59 52 -94 105 -94
s105 35 105 94c0 61 -52 94 -105 94zM302 434c50 0 80 35 80 73c0 46 -38 72 -80 72s-80 -26 -80 -72c0 -38 30 -73 80 -73z" />
    <glyph glyph-name="colon" unicode=":" horiz-adv-x="255" 
d="M201 69c0 -43 -35 -78 -78 -78s-78 35 -78 78s35 78 78 78s78 -35 78 -78zM201 333c0 -43 -35 -78 -78 -78s-78 35 -78 78s35 78 78 78s78 -35 78 -78z" />
    <glyph glyph-name="less" unicode="&#x3c;" horiz-adv-x="395" 
d="M350 286c0 -7 -4 -14 -11 -17l-136 -67l136 -66c6 -3 11 -10 11 -18v-106c0 -20 -12 -27 -30 -17l-265 150c-6 4 -10 11 -10 18v79c0 7 4 14 10 18l265 150c18 10 30 3 30 -17v-107z" />
    <glyph glyph-name="equal" unicode="=" horiz-adv-x="453" 
d="M63 143c0 12 8 20 20 20h287c12 0 20 -8 20 -20v-91c0 -12 -8 -20 -20 -20h-287c-12 0 -20 8 -20 20v91zM63 340c0 12 8 20 20 20h287c12 0 20 -8 20 -20v-91c0 -12 -8 -20 -20 -20h-287c-12 0 -20 8 -20 20v91z" />
    <glyph glyph-name="question" unicode="?" horiz-adv-x="521" 
d="M171 504c-7 -11 -18 -15 -29 -8l-81 46c-10 5 -13 16 -8 25c36 72 105 141 214 141c144 0 209 -94 209 -186c0 -90 -58 -136 -107 -172c-29 -20 -57 -49 -57 -94v-21c0 -12 -8 -20 -20 -20h-104c-10 0 -16 6 -16 16v15c0 106 49 159 103 191c28 18 51 46 51 85
c0 25 -18 51 -60 51c-37 0 -71 -28 -95 -69zM319 70c0 43 -35 78 -78 78s-78 -35 -78 -78s35 -78 78 -78s78 35 78 78z" />
    <glyph glyph-name="at" unicode="@" horiz-adv-x="925" 
d="M237 243c0 124 83 205 201 205c32 0 81 -11 117 -49l3 22c1 11 9 18 20 18h72c12 0 20 -8 20 -20v-310c0 -29 20 -36 37 -35c54 0 80 112 80 170c0 226 -171 328 -325 328c-170 0 -323 -120 -323 -328c0 -232 176 -326 324 -326h29c12 0 20 -8 20 -20l-1 -38
c0 -12 -8 -20 -20 -20h-28c-227 0 -409 168 -409 404c0 228 182 404 409 404c226 0 408 -165 408 -403c0 -91 -58 -247 -183 -247c-53 0 -108 21 -121 104c-31 -45 -84 -66 -128 -66c-117 0 -202 76 -202 207zM357 243c0 -61 51 -102 100 -102c55 0 100 43 100 102
c0 63 -47 102 -101 102c-50 0 -99 -33 -99 -102z" />
    <glyph glyph-name="A" unicode="A" horiz-adv-x="736" 
d="M568 0c-9 0 -16 5 -19 13l-57 147h-249l-56 -147c-3 -8 -11 -13 -19 -13h-120c-18 0 -26 11 -19 27l266 660c3 8 10 13 19 13h108c9 0 16 -5 19 -13l266 -660c7 -16 -1 -27 -19 -27h-120zM368 486l-72 -186h143z" />
    <glyph glyph-name="B" unicode="B" horiz-adv-x="616" 
d="M547 516c0 -54 -28 -112 -82 -139c68 -30 106 -95 106 -167c0 -126 -98 -210 -214 -210h-256c-12 0 -20 8 -20 20v660c0 12 8 20 20 20h256c106 0 190 -75 190 -184zM233 560v-125h95c34 0 70 22 70 66c0 41 -36 59 -63 59h-102zM339 140c43 0 82 29 82 80
c0 53 -42 80 -90 80h-98v-160h106z" />
    <glyph glyph-name="C" unicode="C" horiz-adv-x="740" 
d="M404 133c64 0 128 31 169 79c9 10 21 11 31 2l77 -67c8 -8 9 -19 2 -28c-69 -79 -166 -128 -279 -128c-198 0 -359 158 -359 359s161 359 359 359c113 0 210 -49 279 -128c7 -9 6 -20 -2 -28l-77 -67c-10 -9 -22 -8 -31 2c-41 48 -105 79 -169 79
c-117 0 -207 -90 -207 -217s90 -217 207 -217z" />
    <glyph glyph-name="D" unicode="D" horiz-adv-x="714" 
d="M318 700c193 0 351 -142 351 -350s-158 -350 -351 -350h-217c-12 0 -20 8 -20 20v660c0 12 8 20 20 20h217zM233 140h65c152 0 219 115 219 210s-67 210 -219 210h-65v-420z" />
    <glyph glyph-name="E" unicode="E" horiz-adv-x="581" 
d="M233 280v-140h283c12 0 20 -8 20 -20v-100c0 -12 -8 -20 -20 -20h-415c-12 0 -20 8 -20 20v660c0 12 8 20 20 20h415c12 0 20 -8 20 -20v-100c0 -12 -8 -20 -20 -20h-283v-140h238c12 0 20 -8 20 -20v-100c0 -12 -8 -20 -20 -20h-238z" />
    <glyph glyph-name="F" unicode="F" horiz-adv-x="561" 
d="M233 280v-260c0 -12 -8 -20 -20 -20h-112c-12 0 -20 8 -20 20v660c0 12 8 20 20 20h413c12 0 20 -8 20 -20v-100c0 -12 -8 -20 -20 -20h-281v-140h236c12 0 20 -8 20 -20v-100c0 -12 -8 -20 -20 -20h-236z" />
    <glyph glyph-name="G" unicode="G" horiz-adv-x="808" 
d="M404 567c-117 0 -207 -90 -207 -217s90 -217 207 -217c91 0 166 54 195 139h-187c-12 0 -20 8 -20 20v98c0 12 8 20 20 20h330c10 0 18 -7 19 -17c1 -14 2 -29 2 -43c0 -201 -161 -359 -359 -359s-359 158 -359 359s161 359 359 359c113 0 210 -49 279 -128
c7 -9 6 -20 -2 -28l-77 -67c-10 -9 -22 -8 -31 2c-41 48 -105 79 -169 79z" />
    <glyph glyph-name="H" unicode="H" horiz-adv-x="787" 
d="M686 700c12 0 20 -8 20 -20v-660c0 -12 -8 -20 -20 -20h-112c-12 0 -20 8 -20 20v268h-321v-268c0 -12 -8 -20 -20 -20h-112c-12 0 -20 8 -20 20v660c0 12 8 20 20 20h112c12 0 20 -8 20 -20v-252h321v252c0 12 8 20 20 20h112z" />
    <glyph glyph-name="I" unicode="I" horiz-adv-x="314" 
d="M213 700c12 0 20 -8 20 -20v-660c0 -12 -8 -20 -20 -20h-112c-12 0 -20 8 -20 20v660c0 12 8 20 20 20h112z" />
    <glyph glyph-name="J" unicode="J" horiz-adv-x="549" 
d="M5 179c-3 11 2 20 13 23l102 31c13 3 23 -3 27 -16c13 -46 45 -79 87 -79c52 0 92 36 92 88v454c0 12 8 20 20 20h111c12 0 20 -8 20 -20v-454c0 -145 -105 -235 -240 -235c-117 0 -200 71 -232 188z" />
    <glyph glyph-name="K" unicode="K" horiz-adv-x="709" 
d="M213 700c12 0 20 -8 20 -20v-259l228 272c4 4 10 7 15 7h151c28 0 33 -13 15 -34l-295 -316l295 -316c18 -21 13 -34 -15 -34h-151c-5 0 -11 3 -15 7l-228 270v-257c0 -12 -8 -20 -20 -20h-112c-12 0 -20 8 -20 20v660c0 12 8 20 20 20h112z" />
    <glyph glyph-name="L" unicode="L" horiz-adv-x="524" 
d="M233 140h253c12 0 20 -8 20 -20v-100c0 -12 -8 -20 -20 -20h-385c-12 0 -20 8 -20 20v660c0 12 8 20 20 20h112c12 0 20 -8 20 -20v-540z" />
    <glyph glyph-name="M" unicode="M" horiz-adv-x="904" 
d="M452 269l213 420c4 7 11 11 18 11h120c12 0 20 -8 20 -20v-660c0 -12 -8 -20 -20 -20h-112c-12 0 -20 8 -20 20v358l-154 -306c-4 -7 -11 -11 -18 -11h-94c-7 0 -14 4 -18 11l-154 306v-358c0 -12 -8 -20 -20 -20h-112c-12 0 -20 8 -20 20v660c0 12 8 20 20 20h120
c7 0 14 -4 18 -11z" />
    <glyph glyph-name="N" unicode="N" horiz-adv-x="787" 
d="M686 700c12 0 20 -8 20 -20v-660c0 -12 -8 -20 -20 -20h-122c-6 0 -12 3 -16 8l-315 431v-419c0 -12 -8 -20 -20 -20h-112c-12 0 -20 8 -20 20v660c0 12 8 20 20 20h122c6 0 12 -3 16 -8l315 -433v421c0 12 8 20 20 20h112z" />
    <glyph glyph-name="O" unicode="O" horiz-adv-x="808" 
d="M404 709c198 0 359 -158 359 -359s-161 -359 -359 -359s-359 158 -359 359s161 359 359 359zM404 133c116 0 207 90 207 217s-91 217 -207 217c-117 0 -207 -90 -207 -217s90 -217 207 -217z" />
    <glyph glyph-name="P" unicode="P" horiz-adv-x="590" 
d="M343 700c118 0 215 -87 215 -218s-97 -218 -215 -218h-110v-244c0 -12 -8 -20 -20 -20h-112c-12 0 -20 8 -20 20v660c0 12 8 20 20 20h242zM320 560h-87v-156h87c78 0 87 59 87 78s-9 78 -87 78z" />
    <glyph glyph-name="Q" unicode="Q" horiz-adv-x="808" 
d="M404 709c198 0 359 -158 359 -359c0 -140 -78 -259 -192 -319l131 -161c16 -20 10 -33 -15 -33h-111c-6 0 -12 3 -16 8l-117 148c-13 -1 -26 -2 -39 -2c-198 0 -359 158 -359 359s161 359 359 359zM404 133c116 0 207 90 207 217s-91 217 -207 217
c-117 0 -207 -90 -207 -217s90 -217 207 -217z" />
    <glyph glyph-name="R" unicode="R" horiz-adv-x="642" 
d="M443 0c-7 0 -13 4 -17 9l-161 255h-32v-244c0 -12 -8 -20 -20 -20h-112c-12 0 -20 8 -20 20v660c0 12 8 20 20 20h246c118 0 215 -87 215 -218c0 -103 -61 -182 -144 -206l170 -245c13 -18 7 -31 -16 -31h-129zM324 560h-91v-156h91c78 0 87 59 87 78s-9 78 -87 78z" />
    <glyph glyph-name="T" unicode="T" horiz-adv-x="528" 
d="M340 560v-540c0 -12 -8 -20 -20 -20h-112c-12 0 -20 8 -20 20v540h-150c-12 0 -20 8 -20 20v100c0 12 8 20 20 20h452c12 0 20 -8 20 -20v-100c0 -12 -8 -20 -20 -20h-150z" />
    <glyph glyph-name="U" unicode="U" horiz-adv-x="744" 
d="M511 283v397c0 12 8 20 20 20h112c12 0 20 -8 20 -20v-412c0 -169 -134 -277 -291 -277s-291 108 -291 277v412c0 12 8 20 20 20h112c12 0 20 -8 20 -20v-397c0 -81 47 -150 139 -150s139 69 139 150z" />
    <glyph glyph-name="V" unicode="V" horiz-adv-x="736" 
d="M368 214l181 473c3 8 11 13 19 13h120c18 0 26 -11 19 -27l-266 -660c-3 -8 -10 -13 -19 -13h-108c-9 0 -16 5 -19 13l-266 660c-7 16 1 27 19 27h120c8 0 16 -5 19 -13z" />
    <glyph glyph-name="W" unicode="W" horiz-adv-x="1036" 
d="M990 700c17 0 25 -10 19 -26l-215 -660c-2 -8 -10 -14 -19 -14h-114c-9 0 -17 6 -19 14l-124 422l-124 -422c-2 -8 -10 -14 -19 -14h-114c-9 0 -17 6 -19 14l-215 660c-6 16 2 26 19 26h117c9 0 17 -6 19 -14l133 -457l122 456c2 9 10 15 19 15h124c9 0 17 -6 19 -15
l122 -456l133 457c2 8 10 14 19 14h117z" />
    <glyph glyph-name="X" unicode="X" horiz-adv-x="671" 
d="M607 700c22 0 29 -12 17 -31l-208 -319l208 -319c12 -19 5 -31 -17 -31h-131c-6 0 -13 4 -17 10l-123 211l-124 -211c-4 -6 -11 -10 -17 -10h-131c-22 0 -29 12 -17 31l208 319l-208 319c-12 19 -5 31 17 31h131c6 0 13 -4 17 -10l124 -211l123 211c4 6 11 10 17 10h131z
" />
    <glyph glyph-name="Y" unicode="Y" horiz-adv-x="700" 
d="M183 700c7 0 14 -4 18 -10l149 -258l149 258c4 6 11 10 18 10h132c22 0 29 -12 17 -31l-240 -375v-274c0 -12 -8 -20 -20 -20h-112c-12 0 -20 8 -20 20v274l-240 375c-12 19 -5 31 17 31h132z" />
    <glyph glyph-name="Z" unicode="Z" horiz-adv-x="549" 
d="M37 134c0 3 1 8 4 11l288 415h-273c-12 0 -20 8 -20 20v100c0 12 8 20 20 20h437c12 0 20 -8 20 -20v-113c0 -3 -1 -8 -4 -11l-289 -416h273c12 0 20 -8 20 -20v-100c0 -12 -8 -20 -20 -20h-436c-12 0 -20 8 -20 20v114z" />
    <glyph glyph-name="bracketleft" unicode="[" horiz-adv-x="296" 
d="M195 587v-635h63c12 0 20 -8 20 -20v-94c0 -12 -8 -20 -20 -20h-184c-12 0 -20 8 -20 20v863c0 12 8 20 20 20h184c12 0 20 -8 20 -20v-94c0 -12 -8 -20 -20 -20h-63z" />
    <glyph glyph-name="backslash" unicode="\" horiz-adv-x="416" 
d="M283 0c-9 0 -16 5 -19 13l-254 660c-6 16 2 27 19 27h105c8 0 16 -5 19 -13l253 -660c6 -16 -2 -27 -19 -27h-104z" />
    <glyph glyph-name="bracketright" unicode="]" horiz-adv-x="296" 
d="M101 -48v635h-63c-12 0 -20 8 -20 20v94c0 12 8 20 20 20h184c12 0 20 -8 20 -20v-863c0 -12 -8 -20 -20 -20h-184c-12 0 -20 8 -20 20v94c0 12 8 20 20 20h63z" />
    <glyph glyph-name="asciicircum" unicode="^" horiz-adv-x="530" 
d="M305 700c6 0 13 -4 17 -10l154 -260c11 -18 4 -30 -17 -30h-106c-7 0 -14 4 -18 10l-70 127l-70 -127c-4 -6 -11 -10 -18 -10h-106c-21 0 -28 12 -17 30l154 260c4 6 11 10 17 10h80z" />
    <glyph glyph-name="underscore" unicode="_" horiz-adv-x="401" 
d="M20 -90c-12 0 -20 8 -20 20v50c0 12 8 20 20 20h361c12 0 20 -8 20 -20v-50c0 -12 -8 -20 -20 -20h-361z" />
    <glyph glyph-name="grave" unicode="`" horiz-adv-x="185" 
d="M98 460c-7 0 -14 4 -18 10l-63 113c-10 18 -3 30 17 30h84c8 0 16 -5 19 -13l39 -113c5 -16 -2 -27 -19 -27h-59z" />
    <glyph glyph-name="a" unicode="a" 
d="M36 200c0 128 84 209 203 209c39 0 98 -18 126 -51v22c0 12 8 20 20 20h102c12 0 20 -8 20 -20v-360c0 -12 -8 -20 -20 -20h-102c-12 0 -20 8 -20 20v22c-28 -33 -87 -51 -126 -51c-119 0 -203 81 -203 209zM183 200c0 -54 41 -89 89 -89c59 0 92 45 92 89s-33 89 -92 89
c-48 0 -89 -35 -89 -89z" />
    <glyph glyph-name="b" unicode="b" 
d="M534 200c0 -125 -84 -209 -203 -209c-39 0 -98 18 -126 51v-22c0 -12 -8 -20 -20 -20h-102c-12 0 -20 8 -20 20v660c0 12 8 20 20 20h102c12 0 20 -8 20 -20v-322c28 33 87 51 126 51c119 0 203 -81 203 -209zM387 200c0 54 -41 89 -89 89c-59 0 -92 -45 -92 -89
s33 -89 92 -89c48 0 89 35 89 89z" />
    <glyph glyph-name="c" unicode="c" horiz-adv-x="471" 
d="M248 120c23 0 49 9 68 28c10 9 21 11 31 3l69 -56c8 -7 10 -18 3 -27c-42 -52 -103 -77 -175 -77c-115 0 -208 82 -208 209s93 209 208 209c72 0 133 -25 175 -77c7 -9 5 -20 -3 -27l-69 -56c-10 -8 -21 -6 -31 3c-19 19 -45 28 -68 28c-38 0 -76 -26 -76 -80
s38 -80 76 -80z" />
    <glyph glyph-name="d" unicode="d" 
d="M36 200c0 128 84 209 203 209c39 0 98 -18 126 -51v322c0 12 8 20 20 20h102c12 0 20 -8 20 -20v-660c0 -12 -8 -20 -20 -20h-102c-12 0 -20 8 -20 20v22c-28 -33 -87 -51 -126 -51c-119 0 -203 84 -203 209zM183 200c0 -54 41 -89 89 -89c59 0 92 45 92 89
s-33 89 -92 89c-48 0 -89 -35 -89 -89z" />
    <glyph glyph-name="e" unicode="e" horiz-adv-x="475" 
d="M319 126c10 6 22 4 28 -6l41 -61c6 -8 5 -19 -3 -25c-39 -30 -87 -43 -142 -43c-115 0 -207 85 -207 209c0 130 95 209 210 209c118 0 193 -94 193 -209c0 -5 0 -10 -1 -15c-1 -8 -8 -14 -17 -14h-249c7 -40 48 -61 86 -61c21 0 42 7 61 16zM247 290
c-25 0 -59 -14 -71 -46h131c-5 28 -29 46 -60 46z" />
    <glyph glyph-name="f" unicode="f" horiz-adv-x="378" 
d="M407 673c9 -6 11 -16 6 -25l-37 -63c-7 -12 -18 -14 -30 -8c-15 7 -34 12 -51 12c-33 0 -64 -19 -64 -60v-129h100c12 0 20 -8 20 -20v-83c0 -12 -8 -20 -20 -20h-100v-257c0 -12 -8 -20 -20 -20h-102c-12 0 -20 8 -20 20v257h-60c-12 0 -20 8 -20 20v83c0 12 8 20 20 20
h60v141c0 114 91 168 188 168c45 0 92 -12 130 -36z" />
    <glyph glyph-name="g" unicode="g" 
d="M507 -30c-6 -144 -112 -224 -232 -224c-66 0 -136 20 -195 64c-9 7 -10 18 -4 27l53 72c8 11 20 12 32 3c28 -20 69 -34 106 -34c52 0 98 26 98 91v74c-29 -34 -87 -52 -126 -52c-119 0 -203 81 -203 209c0 125 84 209 203 209c39 0 98 -18 126 -51v22c0 12 8 20 20 20
h102c12 0 20 -8 20 -20v-410zM183 200c0 -54 41 -89 89 -89c59 0 92 45 92 89s-33 89 -92 89c-48 0 -89 -35 -89 -89z" />
    <glyph glyph-name="i" unicode="i" horiz-adv-x="270" 
d="M186 400c12 0 20 -8 20 -20v-360c0 -12 -8 -20 -20 -20h-102c-12 0 -20 8 -20 20v360c0 12 8 20 20 20h102zM57 538c0 42 36 78 78 78s78 -36 78 -78s-36 -78 -78 -78s-78 36 -78 78z" />
    <glyph glyph-name="j" unicode="j" horiz-adv-x="263" 
d="M199 -80c0 -128 -96 -178 -180 -178c-43 0 -97 9 -149 49c-8 6 -9 17 -3 26l45 66c8 11 20 12 32 6c18 -11 42 -19 64 -19c25 0 47 12 49 47v463c0 12 8 20 20 20h102c12 0 20 -8 20 -20v-460zM50 538c0 42 36 78 78 78s78 -36 78 -78s-36 -78 -78 -78s-78 36 -78 78z
" />
    <glyph glyph-name="k" unicode="k" horiz-adv-x="542" 
d="M331 0c-5 0 -11 3 -15 7l-111 136v-123c0 -12 -8 -20 -20 -20h-102c-12 0 -20 8 -20 20v660c0 12 8 20 20 20h102c12 0 20 -8 20 -20v-423l111 136c4 4 10 7 15 7h136c29 0 34 -14 14 -34l-165 -166l165 -166c20 -20 15 -34 -14 -34h-136z" />
    <glyph glyph-name="l" unicode="l" horiz-adv-x="268" 
d="M185 700c12 0 20 -8 20 -20v-660c0 -12 -8 -20 -20 -20h-102c-12 0 -20 8 -20 20v660c0 12 8 20 20 20h102z" />
    <glyph glyph-name="m" unicode="m" horiz-adv-x="796" 
d="M83 0c-12 0 -20 8 -20 20v360c0 12 8 20 20 20h102c12 0 20 -8 20 -20v-29c23 41 69 58 108 58c61 0 109 -23 136 -80c32 65 91 80 130 80c88 0 158 -46 158 -177v-212c0 -12 -8 -20 -20 -20h-102c-12 0 -20 8 -20 20v204c0 39 -20 66 -60 66c-46 0 -63 -39 -64 -66v-204
c0 -12 -8 -20 -20 -20h-102c-12 0 -20 8 -20 20v204c0 39 -20 66 -60 66c-48 0 -64 -43 -64 -68v-202c0 -12 -8 -20 -20 -20h-102z" />
    <glyph glyph-name="n" unicode="n" horiz-adv-x="538" 
d="M83 0c-12 0 -20 8 -20 20v360c0 12 8 20 20 20h102c12 0 20 -8 20 -20v-29c26 40 73 58 112 58c88 0 162 -43 162 -177v-212c0 -12 -8 -20 -20 -20h-102c-12 0 -20 8 -20 20v206c0 39 -22 66 -62 66c-48 0 -70 -40 -70 -65v-207c0 -12 -8 -20 -20 -20h-102z" />
    <glyph glyph-name="o" unicode="o" horiz-adv-x="492" 
d="M246 409c115 0 210 -85 210 -209s-95 -209 -210 -209s-210 85 -210 209s95 209 210 209zM246 121c38 0 74 28 74 79s-36 79 -74 79s-74 -28 -74 -79s36 -79 74 -79z" />
    <glyph glyph-name="p" unicode="p" 
d="M534 200c0 -128 -84 -209 -203 -209c-39 0 -98 18 -126 51v-279c0 -12 -8 -20 -20 -20h-102c-12 0 -20 8 -20 20v617c0 12 8 20 20 20h102c12 0 20 -8 20 -20v-22c28 33 87 51 126 51c119 0 203 -84 203 -209zM387 200c0 54 -41 89 -89 89c-59 0 -92 -45 -92 -89
s33 -89 92 -89c48 0 89 35 89 89z" />
    <glyph glyph-name="q" unicode="q" 
d="M36 200c0 125 84 209 203 209c39 0 98 -18 126 -51v22c0 12 8 20 20 20h102c12 0 20 -8 20 -20v-617c0 -12 -8 -20 -20 -20h-102c-12 0 -20 8 -20 20v279c-28 -33 -87 -51 -126 -51c-119 0 -203 81 -203 209zM183 200c0 -54 41 -89 89 -89c59 0 92 45 92 89
s-33 89 -92 89c-48 0 -89 -35 -89 -89z" />
    <glyph glyph-name="r" unicode="r" horiz-adv-x="360" 
d="M83 0c-12 0 -20 8 -20 20v360c0 12 8 20 20 20h102c12 0 20 -8 20 -20v-36c26 40 76 65 118 65c2 0 7 0 12 -1c7 0 11 -6 11 -13v-96c0 -13 -8 -18 -21 -15c-7 1 -14 2 -22 2c-48 0 -98 -31 -98 -86v-180c0 -12 -8 -20 -20 -20h-102z" />
    <glyph glyph-name="s" unicode="s" horiz-adv-x="399" 
d="M52 39c-10 7 -12 18 -5 27l42 64c6 11 18 13 28 6c27 -16 54 -25 84 -24c13 0 22 6 22 13c2 41 -164 34 -166 155c-2 81 62 128 142 129c44 1 96 -9 148 -38c10 -5 13 -16 8 -25l-36 -69c-6 -11 -17 -14 -29 -8c-32 16 -63 22 -79 22c-12 0 -15 -9 -15 -13
c0 -5 -1 -14 30 -24c69 -22 135 -55 136 -128c2 -83 -74 -133 -160 -135c-43 -1 -93 13 -150 48z" />
    <glyph glyph-name="t" unicode="t" horiz-adv-x="419" 
d="M99 141v136h-65c-12 0 -20 8 -20 20v83c0 12 8 20 20 20h65v130c0 12 8 20 20 20h102c12 0 20 -8 20 -20v-130h99c12 0 20 -8 20 -20v-83c0 -12 -8 -20 -20 -20h-99v-114c0 -38 27 -47 49 -47c13 0 33 3 59 12c14 4 24 -1 28 -15l20 -76c2 -10 -2 -19 -11 -22
c-37 -14 -96 -24 -121 -24c-105 0 -166 52 -166 150z" />
    <glyph glyph-name="u" unicode="u" horiz-adv-x="538" 
d="M455 400c12 0 20 -8 20 -20v-360c0 -12 -8 -20 -20 -20h-102c-12 0 -20 8 -20 20v29c-26 -40 -74 -58 -113 -58c-88 0 -161 43 -161 177v212c0 12 8 20 20 20h102c12 0 20 -8 20 -20v-206c0 -39 22 -66 62 -66c48 0 70 40 70 65v207c0 12 8 20 20 20h102z" />
    <glyph glyph-name="v" unicode="v" horiz-adv-x="512" 
d="M256 169l78 218c3 8 11 13 19 13h114c19 0 26 -11 18 -28l-161 -360c-3 -7 -10 -12 -18 -12h-100c-8 0 -15 5 -18 12l-161 360c-8 17 -1 28 18 28h114c8 0 16 -5 19 -13z" />
    <glyph glyph-name="w" unicode="w" horiz-adv-x="742" 
d="M699 400c17 0 25 -11 19 -27l-139 -360c-3 -8 -10 -13 -19 -13h-100c-8 0 -15 5 -18 13l-71 175l-71 -175c-3 -8 -10 -13 -18 -13h-100c-9 0 -16 5 -19 13l-139 360c-6 16 2 27 19 27h109c9 0 17 -6 19 -14l65 -214l72 214c3 9 11 14 19 14h88c8 0 16 -5 19 -14l71 -214
l66 214c2 8 10 14 19 14h109z" />
    <glyph glyph-name="x" unicode="x" horiz-adv-x="499" 
d="M433 400c23 0 30 -13 16 -32l-122 -168l122 -168c14 -19 7 -32 -16 -32h-122c-7 0 -14 4 -18 10l-43 76l-44 -76c-4 -6 -11 -10 -18 -10h-122c-23 0 -30 13 -16 32l122 168l-122 168c-14 19 -7 32 16 32h123c7 0 14 -4 18 -10l43 -75l42 75c4 6 11 10 18 10h123z" />
    <glyph glyph-name="y" unicode="y" horiz-adv-x="545" 
d="M500 400c18 0 26 -11 18 -29l-291 -618c-3 -6 -10 -11 -18 -11h-106c-19 0 -26 12 -18 29l114 230l-172 371c-8 17 0 28 18 28h115c8 0 15 -5 18 -12l94 -222l92 222c3 7 10 12 18 12h118z" />
    <glyph glyph-name="z" unicode="z" horiz-adv-x="381" 
d="M172 277h-116c-12 0 -20 8 -20 20v83c0 12 8 20 20 20h269c12 0 20 -8 20 -20v-87c0 -4 -2 -9 -5 -13l-131 -157h116c12 0 20 -8 20 -20v-83c0 -12 -8 -20 -20 -20h-269c-12 0 -20 8 -20 20v87c0 4 2 9 5 13z" />
    <glyph glyph-name="braceleft" unicode="{" horiz-adv-x="393" 
d="M273 170c0 -64 -35 -118 -35 -179c0 -35 29 -49 58 -49c8 0 17 1 24 3c14 3 25 -1 29 -15l21 -76c3 -10 -2 -20 -12 -23c-34 -10 -78 -13 -105 -13c-118 0 -158 83 -158 158c0 67 42 128 42 191c0 36 -32 45 -50 45h-22c-12 0 -20 8 -20 20v76c0 12 8 20 20 20h22
c18 0 50 9 50 45c0 63 -42 124 -42 191c0 75 40 158 158 158c27 0 71 -3 105 -13c10 -3 15 -13 12 -23l-21 -76c-4 -14 -15 -18 -29 -15c-7 2 -16 3 -24 3c-29 0 -58 -14 -58 -49c0 -61 35 -115 35 -179c0 -38 -23 -83 -60 -100c37 -17 60 -62 60 -100z" />
    <glyph glyph-name="bar" unicode="|" horiz-adv-x="286" 
d="M185 700c12 0 20 -8 20 -20v-842c0 -12 -8 -20 -20 -20h-84c-12 0 -20 8 -20 20v842c0 12 8 20 20 20h84z" />
    <glyph glyph-name="asciitilde" unicode="~" horiz-adv-x="628" 
d="M399 103c-90 0 -123 74 -175 74c-21 0 -41 -18 -56 -47c-5 -11 -16 -16 -28 -11l-78 34c-10 4 -15 14 -11 24c29 76 90 132 174 132c92 0 117 -73 174 -73c21 0 44 21 59 50c6 12 17 17 29 11l80 -35c10 -4 14 -14 11 -24c-28 -73 -94 -135 -179 -135z" />
    <glyph glyph-name="exclamdown" unicode="&#xa1;" horiz-adv-x="288" 
d="M183 183c11 0 19 -8 20 -19l21 -439c1 -13 -7 -21 -20 -21h-120c-13 0 -21 8 -20 21l21 439c1 11 9 19 20 19h78zM222 334c0 -43 -35 -78 -78 -78s-78 35 -78 78s35 78 78 78s78 -35 78 -78z" />
    <glyph glyph-name="cent" unicode="&#xa2;" horiz-adv-x="465" 
d="M265 551c12 0 20 -8 20 -20v-65c45 -7 82 -27 114 -62c7 -8 6 -19 -2 -27l-64 -57c-10 -10 -22 -8 -32 1c-16 15 -36 24 -54 24c-32 0 -64 -21 -64 -66s32 -66 64 -66c18 0 38 9 54 24c10 9 22 11 32 1l64 -58c9 -7 10 -18 2 -26c-31 -35 -69 -55 -114 -63v-75
c0 -12 -8 -20 -20 -20h-43c-12 0 -20 8 -20 20v76c-85 16 -148 86 -148 187c0 100 63 170 148 187v65c0 12 8 20 20 20h43z" />
    <glyph glyph-name="sterling" unicode="&#xa3;" horiz-adv-x="525" 
d="M285 573c-36 0 -48 -21 -48 -49c0 -47 34 -115 50 -142h109c12 0 20 -8 20 -20v-72c0 -12 -8 -20 -20 -20h-101c-6 -49 -28 -98 -63 -136h222c12 0 20 -8 20 -20v-94c0 -12 -8 -20 -20 -20h-380c-12 0 -20 8 -20 20v82c0 6 3 11 6 15c48 47 85 100 93 153h-77
c-12 0 -20 8 -20 20v72c0 12 8 20 20 20h58c-30 53 -45 99 -45 152c0 111 95 174 189 174c68 0 126 -13 190 -86c7 -8 7 -19 -2 -27l-68 -64c-11 -10 -23 -8 -32 2c-28 32 -59 40 -81 40z" />
    <glyph glyph-name="brokenbar" unicode="&#xa6;" horiz-adv-x="286" 
d="M185 700c12 0 20 -8 20 -20v-338c0 -12 -8 -20 -20 -20h-84c-12 0 -20 8 -20 20v338c0 12 8 20 20 20h84zM205 -162c0 -12 -8 -20 -20 -20h-84c-12 0 -20 8 -20 20v338c0 12 8 20 20 20h84c12 0 20 -8 20 -20v-338z" />
    <glyph glyph-name="section" unicode="&#xa7;" horiz-adv-x="568" 
d="M522 218c-2 -59 -34 -111 -77 -152c10 -21 16 -45 15 -74c-4 -117 -84 -182 -190 -179c-82 3 -146 44 -180 123c-5 11 0 21 11 25l92 38c13 5 24 0 30 -13c12 -25 32 -34 49 -35c21 -1 41 10 42 45c2 39 -56 63 -111 97c-91 57 -162 108 -157 232c2 58 33 110 76 151
c-10 21 -15 46 -14 75c4 117 84 182 190 179c82 -3 146 -44 180 -123c5 -11 0 -21 -11 -25l-92 -38c-13 -5 -24 0 -30 13c-12 25 -32 34 -49 35c-21 1 -41 -10 -42 -45c-2 -39 56 -63 111 -97c91 -57 162 -108 157 -232zM192 320c-3 -78 84 -112 159 -160c15 20 25 42 25 63
c3 78 -84 112 -160 159c-14 -19 -24 -41 -24 -62z" />
    <glyph glyph-name="dieresis" unicode="&#xa8;" horiz-adv-x="371" 
d="M0 538c0 42 36 78 78 78s78 -36 78 -78s-36 -78 -78 -78s-78 36 -78 78zM215 538c0 42 36 78 78 78s78 -36 78 -78s-36 -78 -78 -78s-78 36 -78 78z" />
    <glyph glyph-name="copyright" unicode="&#xa9;" horiz-adv-x="826" 
d="M54 351c0 198 161 359 359 359s359 -161 359 -359s-161 -359 -359 -359s-359 161 -359 359zM134 351c0 -156 126 -281 279 -281s279 125 279 281s-126 281 -279 281s-279 -125 -279 -281zM417 268c20 0 46 6 67 22c11 7 22 8 31 -1l45 -46c8 -8 8 -19 0 -27
c-41 -39 -90 -58 -143 -58c-106 0 -193 77 -193 191s87 191 193 191c53 0 103 -19 144 -58c8 -8 8 -19 0 -27l-46 -46c-9 -9 -20 -8 -30 -1c-22 16 -48 22 -68 22c-43 0 -78 -33 -78 -81s35 -81 78 -81z" />
    <glyph glyph-name="ordfeminine" unicode="&#xaa;" horiz-adv-x="306" 
d="M89 631c-11 -3 -21 1 -26 11l-12 27c-4 10 -1 21 9 25c32 14 62 16 90 16c64 0 120 -29 120 -105v-137c0 -12 -8 -20 -20 -20h-48c-7 0 -11 4 -11 11v11c-13 -16 -42 -28 -66 -28c-72 0 -98 45 -98 90c0 48 33 85 109 85c11 0 39 -4 55 -14v9c0 20 -21 27 -45 27
c-20 0 -41 -4 -57 -8zM106 531c0 -2 2 -21 28 -21c31 0 48 13 57 20v15c-12 5 -29 10 -49 10c-24 0 -36 -9 -36 -24z" />
    <glyph glyph-name="guillemotleft" unicode="&#xab;" horiz-adv-x="583" 
d="M164 13c-7 0 -14 4 -18 10l-95 167c-4 6 -4 14 0 20l95 167c4 6 11 10 18 10h102c20 0 27 -12 17 -30l-90 -157l90 -157c10 -18 3 -30 -17 -30h-102zM402 13c-7 0 -14 4 -18 10l-95 167c-4 6 -4 14 0 20l95 167c4 6 11 10 18 10h102c20 0 27 -12 17 -30l-90 -157l90 -157
c10 -18 3 -30 -17 -30h-102z" />
    <glyph glyph-name="registered" unicode="&#xae;" horiz-adv-x="826" 
d="M54 351c0 198 161 359 359 359s359 -161 359 -359s-161 -359 -359 -359s-359 161 -359 359zM378 303v-102c0 -12 -8 -20 -20 -20h-63c-12 0 -20 8 -20 20v309c0 12 8 20 20 20h154c61 0 113 -46 113 -114c0 -51 -28 -90 -73 -106l67 -98c12 -18 6 -31 -17 -31h-74
c-8 0 -15 5 -18 11l-54 111h-15zM425 440h-47v-58h47c25 0 30 23 30 31s-5 27 -30 27zM134 351c0 -156 126 -281 279 -281s279 125 279 281s-126 281 -279 281s-279 -125 -279 -281z" />
    <glyph glyph-name="macron" unicode="&#xaf;" horiz-adv-x="251" 
d="M20 470c-12 0 -20 8 -20 20v71c0 12 8 20 20 20h211c12 0 20 -8 20 -20v-71c0 -12 -8 -20 -20 -20h-211z" />
    <glyph glyph-name="degree" unicode="&#xb0;" horiz-adv-x="302" 
d="M27 595c0 63 52 115 115 115s115 -52 115 -115s-52 -115 -115 -115s-115 52 -115 115zM99 595c0 -23 20 -43 43 -43s43 20 43 43s-20 43 -43 43s-43 -20 -43 -43z" />
    <glyph glyph-name="plusminus" unicode="&#xb1;" horiz-adv-x="495" 
d="M430 20c0 -12 -8 -20 -20 -20h-327c-12 0 -20 8 -20 20v87c0 12 8 20 20 20h327c12 0 20 -8 20 -20v-87zM312 381h100c12 0 20 -8 20 -20v-89c0 -12 -8 -20 -20 -20h-100v-46c0 -12 -8 -20 -20 -20h-89c-12 0 -20 8 -20 20v46h-100c-12 0 -20 8 -20 20v89
c0 12 8 20 20 20h100v100c0 12 8 20 20 20h89c12 0 20 -8 20 -20v-100z" />
    <glyph glyph-name="twosuperior" unicode="&#xb2;" horiz-adv-x="306" 
d="M120 714c-8 -10 -18 -14 -29 -7l-34 19c-10 5 -13 16 -8 25c21 36 57 65 107 65c70 0 109 -46 109 -100c0 -41 -17 -61 -38 -86l-44 -45h62c12 0 20 -8 20 -20v-35c0 -12 -8 -20 -20 -20h-166c-12 0 -20 8 -20 20v35c0 5 2 10 5 14l98 103c8 8 16 22 16 30
c0 11 -6 24 -23 24c-11 0 -24 -7 -35 -22z" />
    <glyph glyph-name="threesuperior" unicode="&#xb3;" horiz-adv-x="304" 
d="M170 723c0 9 -7 19 -22 19c-12 0 -28 -5 -41 -11c-12 -6 -24 -4 -33 8l-16 23c-5 9 -4 19 3 25c28 21 63 29 95 29c47 0 97 -20 97 -82c0 -20 -15 -50 -40 -64c34 -14 50 -40 50 -70c0 -59 -51 -96 -115 -96c-28 0 -67 12 -94 33c-8 6 -9 16 -3 25l19 28c9 12 20 13 33 6
c14 -7 31 -12 45 -12c17 0 30 11 30 23c0 19 -21 23 -47 23h-15c-9 0 -15 6 -15 15v40c0 8 5 13 13 13h13c17 0 43 6 43 25z" />
    <glyph glyph-name="acute" unicode="&#xb4;" horiz-adv-x="184" 
d="M150 613c20 0 27 -12 17 -30l-63 -113c-4 -6 -11 -10 -18 -10h-47c-17 0 -24 11 -19 27l39 113c3 8 11 13 19 13h72z" />
    <glyph glyph-name="mu" unicode="&#xb5;" horiz-adv-x="538" 
d="M205 -225c0 -12 -8 -20 -20 -20h-102c-12 0 -20 8 -20 20v605c0 12 8 20 20 20h102c12 0 20 -8 20 -20v-206c0 -39 22 -66 62 -66c48 0 70 40 70 65v207c0 12 8 20 20 20h102c12 0 20 -8 20 -20v-360c0 -12 -8 -20 -20 -20h-102c-12 0 -20 8 -20 20v29
c-21 -41 -58 -58 -91 -58c-12 0 -30 4 -41 10v-226z" />
    <glyph glyph-name="paragraph" unicode="&#xb6;" horiz-adv-x="771" 
d="M250 325h-8c-103 0 -188 77 -188 187c0 111 85 188 188 188h437c12 0 20 -8 20 -20v-95c0 -12 -8 -20 -20 -20h-62v-545c0 -12 -8 -20 -20 -20h-101c-12 0 -20 8 -20 20v545h-85v-545c0 -12 -8 -20 -20 -20h-101c-12 0 -20 8 -20 20v305z" />
    <glyph glyph-name="periodcentered" unicode="&#xb7;" horiz-adv-x="318" 
d="M237 203c0 -43 -35 -78 -78 -78s-78 35 -78 78s35 78 78 78s78 -35 78 -78z" />
    <glyph glyph-name="cedilla" unicode="&#xb8;" horiz-adv-x="234" 
d="M112 -103h-17c-11 0 -18 7 -18 17v103h60v-51c68 -6 97 -50 97 -99c0 -77 -72 -106 -126 -106c-27 0 -61 7 -92 25c-9 6 -12 16 -6 25l18 33c7 12 18 15 30 10c16 -5 37 -10 52 -9c17 1 31 12 31 27c0 19 -15 25 -29 25z" />
    <glyph glyph-name="onesuperior" unicode="&#xb9;" horiz-adv-x="254" 
d="M42 716c-6 9 -4 20 4 27l75 62c4 3 9 5 13 5h50c12 0 20 -8 20 -20v-260c0 -12 -8 -20 -20 -20h-47c-12 0 -20 8 -20 20v171l-30 -18c-10 -5 -20 -3 -27 6z" />
    <glyph glyph-name="ordmasculine" unicode="&#xba;" horiz-adv-x="315" 
d="M151 702c71 0 128 -52 128 -126s-57 -126 -128 -126s-128 52 -128 126s57 126 128 126zM151 534c22 0 39 17 39 42c0 24 -17 42 -39 42s-39 -18 -39 -42c0 -25 17 -42 39 -42z" />
    <glyph glyph-name="onequarter" unicode="&#xbc;" horiz-adv-x="650" 
d="M46 606c-6 9 -4 20 4 27l75 62c4 3 9 5 13 5h50c12 0 20 -8 20 -20v-260c0 -12 -8 -20 -20 -20h-47c-12 0 -20 8 -20 20v171l-30 -18c-10 -5 -20 -3 -27 6zM466 700c17 0 25 -11 19 -27l-254 -660c-3 -8 -10 -13 -19 -13h-55c-17 0 -25 11 -19 27l253 660
c3 8 11 13 19 13h56zM570 20c0 -12 -8 -20 -20 -20h-39c-12 0 -20 8 -20 20v24h-130c-12 0 -20 8 -20 20v51c0 4 1 8 3 11l100 164c4 6 10 10 17 10h56c22 0 28 -12 17 -31l-89 -144h46v24c0 12 8 20 20 20h39c12 0 20 -8 20 -20v-24h18c10 0 17 -7 17 -17v-46
c0 -11 -7 -18 -17 -18h-18v-24z" />
    <glyph glyph-name="onehalf" unicode="&#xbd;" horiz-adv-x="658" 
d="M46 606c-6 9 -4 20 4 27l75 62c4 3 9 5 13 5h50c12 0 20 -8 20 -20v-260c0 -12 -8 -20 -20 -20h-47c-12 0 -20 8 -20 20v171l-30 -18c-10 -5 -20 -3 -27 6zM466 700c17 0 25 -11 19 -27l-254 -660c-3 -8 -10 -13 -19 -13h-55c-17 0 -25 11 -19 27l253 660
c3 8 11 13 19 13h56zM468 204c-8 -10 -18 -14 -29 -7l-34 19c-10 5 -13 16 -8 25c21 36 57 65 107 65c70 0 109 -46 109 -100c0 -41 -17 -61 -38 -86l-44 -45h62c12 0 20 -8 20 -20v-35c0 -12 -8 -20 -20 -20h-166c-12 0 -20 8 -20 20v35c0 5 2 10 5 14l98 103
c8 8 16 22 16 30c0 11 -6 24 -23 24c-11 0 -24 -7 -35 -22z" />
    <glyph glyph-name="threequarters" unicode="&#xbe;" horiz-adv-x="665" 
d="M481 700c17 0 25 -11 19 -27l-254 -660c-3 -8 -10 -13 -19 -13h-55c-17 0 -25 11 -19 27l253 660c3 8 11 13 19 13h56zM585 20c0 -12 -8 -20 -20 -20h-39c-12 0 -20 8 -20 20v24h-130c-12 0 -20 8 -20 20v51c0 4 1 8 3 11l100 164c4 6 10 10 17 10h56c22 0 28 -12 17 -31
l-89 -144h46v24c0 12 8 20 20 20h39c12 0 20 -8 20 -20v-24h18c10 0 17 -7 17 -17v-46c0 -11 -7 -18 -17 -18h-18v-24zM165 615c0 9 -7 19 -22 19c-12 0 -28 -5 -41 -11c-12 -6 -24 -4 -33 8l-16 23c-5 9 -4 19 3 25c28 21 63 29 95 29c47 0 97 -20 97 -82
c0 -20 -15 -50 -40 -64c34 -14 50 -40 50 -70c0 -59 -51 -96 -115 -96c-28 0 -67 12 -94 33c-8 6 -9 16 -3 25l19 28c9 12 20 13 33 6c14 -7 31 -12 45 -12c17 0 30 11 30 23c0 19 -21 23 -47 23h-15c-9 0 -15 6 -15 15v40c0 8 5 13 13 13h13c17 0 43 6 43 25z" />
    <glyph glyph-name="questiondown" unicode="&#xbf;" horiz-adv-x="521" 
d="M350 -98c7 11 18 15 29 8l81 -46c10 -5 13 -16 8 -25c-36 -72 -105 -141 -214 -141c-144 0 -209 94 -209 186c0 90 58 136 107 172c29 20 57 49 57 94v21c0 12 8 20 20 20h105c9 0 15 -6 15 -15v-16c0 -106 -49 -159 -103 -191c-28 -18 -51 -46 -51 -85
c0 -25 18 -51 60 -51c37 0 71 28 95 69zM202 336c0 43 35 78 78 78s78 -35 78 -78s-35 -78 -78 -78s-78 35 -78 78z" />
    <glyph glyph-name="Thorn" unicode="&#xde;" horiz-adv-x="589" 
d="M227 569h97c121 0 220 -89 220 -220c0 -128 -99 -218 -220 -218h-97v-111c0 -12 -8 -20 -20 -20h-106c-12 0 -20 8 -20 20v660c0 12 8 20 20 20h106c12 0 20 -8 20 -20v-111zM227 265h81c65 0 93 43 93 84c0 39 -26 86 -93 86h-81v-170z" />
    <glyph glyph-name="germandbls" unicode="&#xdf;" horiz-adv-x="612" 
d="M278 -1c-11 3 -17 13 -14 24l25 89c3 10 12 16 22 14c8 -1 16 -2 24 -2c42 0 84 31 84 90c0 65 -53 98 -102 98h-37c-14 0 -22 9 -20 23l11 71c1 10 9 17 19 17h23c28 0 73 26 73 83c0 54 -49 69 -76 69c-56 0 -83 -44 -83 -102v-453c0 -12 -8 -20 -20 -20h-106
c-12 0 -20 8 -20 20v451c0 57 11 238 242 238c103 0 209 -72 209 -190c0 -48 -20 -106 -79 -139c74 -29 114 -103 114 -171c0 -137 -105 -218 -221 -218c-18 0 -40 2 -68 8z" />
    <glyph glyph-name="eth" unicode="&#xf0;" horiz-adv-x="564" 
d="M409 696c8 -9 8 -20 -1 -29l-56 -50c95 -104 167 -233 167 -384c0 -135 -107 -242 -235 -242c-129 0 -239 102 -239 235c0 145 106 233 235 233c7 0 20 -1 32 -3c-16 26 -36 50 -58 73l-44 -40c-9 -8 -20 -7 -28 1l-19 20c-8 9 -8 20 1 29l41 37c-13 11 -26 22 -40 33
c-9 8 -10 19 -2 29l62 71c8 9 19 10 28 3c17 -15 35 -30 51 -46l57 52c9 8 20 7 28 -1zM284 327c-50 0 -98 -42 -98 -103s47 -100 98 -100c50 0 97 41 97 103c0 56 -47 100 -97 100z" />
    <glyph glyph-name="divide" unicode="&#xf7;" horiz-adv-x="426" 
d="M139 65c0 41 33 74 74 74s74 -33 74 -74s-33 -74 -74 -74s-74 33 -74 74zM139 433c0 41 33 74 74 74s74 -33 74 -74s-33 -74 -74 -74s-74 33 -74 74zM363 289c0 12 -8 20 -20 20h-260c-12 0 -20 -8 -20 -20v-80c0 -12 8 -20 20 -20h260c12 0 20 8 20 20v80z" />
    <glyph glyph-name="thorn" unicode="&#xfe;" 
d="M534 200c0 -125 -84 -209 -203 -209c-39 0 -98 18 -126 51v-280c0 -12 -8 -20 -20 -20h-102c-12 0 -20 8 -20 20v918c0 12 8 20 20 20h102c12 0 20 -8 20 -20v-322c28 33 87 51 126 51c119 0 203 -81 203 -209zM387 200c0 54 -41 89 -89 89c-59 0 -92 -45 -92 -89
s33 -89 92 -89c48 0 89 35 89 89z" />
    <glyph glyph-name="Dcroat" unicode="&#x110;" horiz-adv-x="723" 
d="M0 370c0 12 8 20 20 20h70v290c0 12 8 20 20 20h217c193 0 351 -142 351 -350s-158 -350 -351 -350h-217c-12 0 -20 8 -20 20v290h-70c-12 0 -20 8 -20 20v40zM242 310v-170h65c152 0 219 115 219 210s-67 210 -219 210h-65v-170h149c12 0 20 -8 20 -20v-40
c0 -12 -8 -20 -20 -20h-149z" />
    <glyph glyph-name="dotlessi" unicode="&#x131;" horiz-adv-x="268" 
d="M185 400c12 0 20 -8 20 -20v-360c0 -12 -8 -20 -20 -20h-102c-12 0 -20 8 -20 20v360c0 12 8 20 20 20h102z" />
    <glyph glyph-name="florin" unicode="&#x192;" horiz-adv-x="578" 
d="M209 277h-60c-12 0 -20 8 -20 20v83c0 12 8 20 20 20h60v141c0 114 91 168 188 168c45 0 92 -12 130 -36c9 -6 11 -16 6 -25l-37 -63c-7 -12 -18 -14 -30 -8c-15 7 -34 12 -51 12c-33 0 -64 -19 -64 -60v-129h100c12 0 20 -8 20 -20v-83c0 -12 -8 -20 -20 -20h-100v-118
c0 -114 -91 -168 -188 -168c-45 0 -92 12 -130 36c-9 6 -11 16 -6 25l37 63c7 12 18 14 30 8c15 -7 34 -12 51 -12c33 0 64 19 64 60v106z" />
    <glyph glyph-name="Aringacute" unicode="&#x1fa;" horiz-adv-x="736" 
d="M269 773c0 56 43 99 99 99s99 -43 99 -99c0 -30 -12 -55 -31 -73l271 -673c7 -16 -1 -27 -19 -27h-120c-9 0 -16 5 -19 13l-57 147h-249l-56 -147c-3 -8 -11 -13 -19 -13h-120c-18 0 -26 11 -19 27l271 673c-20 18 -31 43 -31 73zM368 486l-72 -186h143zM331 773
c0 -20 17 -37 37 -37s36 17 36 37s-16 36 -36 36s-37 -16 -37 -36zM479 1064c20 0 27 -12 17 -30l-63 -113c-4 -6 -11 -10 -18 -10h-71c-17 0 -24 11 -19 27l39 113c3 8 11 13 19 13h96z" />
    <glyph glyph-name="aringacute" unicode="&#x1fb;" horiz-adv-x="564" 
d="M36 200c0 128 84 209 203 209c39 0 98 -18 126 -51v22c0 12 8 20 20 20h102c12 0 20 -8 20 -20v-360c0 -12 -8 -20 -20 -20h-102c-12 0 -20 8 -20 20v22c-28 -33 -87 -51 -126 -51c-119 0 -203 81 -203 209zM183 200c0 -54 41 -89 89 -89c59 0 92 45 92 89s-33 89 -92 89
c-48 0 -89 -35 -89 -89zM164 545c0 56 43 99 99 99s99 -43 99 -99s-43 -99 -99 -99s-99 43 -99 99zM226 545c0 -20 17 -37 37 -37s36 17 36 37s-16 36 -36 36s-37 -16 -37 -36zM366 833c20 0 27 -12 17 -30l-63 -113c-4 -6 -11 -10 -18 -10h-59c-17 0 -24 11 -19 27l39 113
c3 8 11 13 19 13h84z" />
    <glyph glyph-name="aeacute" unicode="&#x1fd;" horiz-adv-x="824" 
d="M518 613c20 0 27 -12 17 -30l-63 -113c-4 -6 -11 -10 -18 -10h-59c-17 0 -24 11 -19 27l39 113c3 8 11 13 19 13h84zM36 200c0 131 81 209 200 209c39 0 97 -18 127 -62v33c0 12 8 20 20 20h61c12 0 20 -8 20 -20v-34c34 40 89 63 138 63c118 0 186 -85 186 -209
c0 -5 0 -10 -1 -15c-1 -8 -8 -14 -17 -14h-250c5 -41 51 -63 89 -63c21 0 42 6 61 15c11 6 22 4 29 -8l35 -59c6 -8 4 -18 -4 -25c-40 -29 -79 -40 -134 -40c-46 0 -102 21 -132 61v-32c0 -12 -8 -20 -20 -20h-61c-12 0 -20 8 -20 20v32c-27 -39 -91 -61 -130 -61
c-119 0 -197 78 -197 209zM183 200c0 -54 40 -90 88 -90c59 0 92 47 92 91s-33 89 -92 89c-48 0 -88 -36 -88 -90zM596 290c-25 0 -60 -14 -72 -46h132c-5 28 -29 46 -60 46z" />
    <glyph glyph-name="circumflex" unicode="&#x2c6;" horiz-adv-x="338" 
d="M225 616c6 0 12 -3 16 -8l75 -106c13 -19 6 -32 -17 -32h-80c-7 0 -14 4 -18 10l-32 61l-32 -61c-4 -6 -11 -10 -18 -10h-80c-23 0 -30 13 -17 32l75 106c4 5 10 8 16 8h112z" />
    <glyph glyph-name="caron" unicode="&#x2c7;" horiz-adv-x="338" 
d="M299 606c24 0 30 -13 17 -32l-75 -106c-4 -5 -10 -8 -16 -8h-112c-6 0 -12 3 -16 8l-75 106c-13 19 -7 32 17 32h80c7 0 14 -4 18 -10l32 -60l32 60c4 6 11 10 18 10h80z" />
    <glyph glyph-name="breve" unicode="&#x2d8;" horiz-adv-x="301" 
d="M196 594c3 11 10 19 22 19h63c12 0 20 -8 19 -20c-9 -86 -77 -134 -149 -134s-141 48 -150 134c-1 12 7 20 19 20h62c12 0 19 -8 22 -20c6 -27 25 -39 47 -39s39 15 45 40z" />
    <glyph glyph-name="dotaccent" unicode="&#x2d9;" horiz-adv-x="156" 
d="M0 538c0 42 36 78 78 78s78 -36 78 -78s-36 -78 -78 -78s-78 36 -78 78z" />
    <glyph glyph-name="ring" unicode="&#x2da;" horiz-adv-x="198" 
d="M0 559c0 56 43 99 99 99s99 -43 99 -99s-43 -99 -99 -99s-99 43 -99 99zM62 559c0 -20 15 -37 36 -37c20 0 37 17 37 37s-16 36 -36 36s-37 -16 -37 -36z" />
    <glyph glyph-name="ogonek" unicode="&#x2db;" horiz-adv-x="209" 
d="M110 -82c0 -18 11 -36 38 -36c11 0 21 0 32 3c18 5 29 -1 29 -20v-63c0 -7 -4 -14 -11 -17c-25 -10 -54 -14 -73 -14c-72 0 -125 48 -125 125c0 35 25 103 94 131h75l10 -21c-37 -10 -69 -55 -69 -88z" />
    <glyph glyph-name="tilde" unicode="&#x2dc;" horiz-adv-x="338" 
d="M210 459c-39 0 -67 38 -90 38c-15 0 -24 -7 -30 -15c-7 -10 -16 -16 -29 -13l-48 15c-7 2 -12 9 -11 16c7 30 39 95 119 95c50 -2 63 -38 94 -38c13 0 23 8 30 16c9 11 21 17 38 11l43 -18c7 -3 11 -10 9 -17c-11 -28 -47 -90 -125 -90z" />
    <glyph glyph-name="pi" unicode="&#x3c0;" horiz-adv-x="663" 
d="M569 121c13 4 23 -2 26 -15l18 -73c2 -11 -3 -20 -13 -23c-36 -11 -82 -19 -103 -19c-105 0 -160 48 -160 152v134h-75v-257c0 -12 -8 -20 -20 -20h-102c-12 0 -20 8 -20 20v257h-64c-12 0 -20 8 -20 20v83c0 12 8 20 20 20h495c12 0 20 -8 20 -20v-83
c0 -12 -8 -20 -20 -20h-72v-116c0 -38 27 -47 49 -47c10 0 24 2 41 7z" />
    <glyph glyph-name="endash" unicode="&#x2013;" horiz-adv-x="517" 
d="M63 245c0 12 8 20 20 20h351c12 0 20 -8 20 -20v-92c0 -12 -8 -20 -20 -20h-351c-12 0 -20 8 -20 20v92z" />
    <glyph glyph-name="emdash" unicode="&#x2014;" horiz-adv-x="608" 
d="M63 245c0 12 8 20 20 20h442c12 0 20 -8 20 -20v-92c0 -12 -8 -20 -20 -20h-442c-12 0 -20 8 -20 20v92z" />
    <glyph glyph-name="quoteleft" unicode="&#x2018;" horiz-adv-x="283" 
d="M81 466c-16 0 -24 10 -20 26l57 194c2 8 10 14 19 14h78c14 0 22 -9 19 -23l-29 -194c-2 -10 -10 -17 -20 -17h-104z" />
    <glyph glyph-name="quoteright" unicode="&#x2019;" horiz-adv-x="283" 
d="M202 700c16 0 24 -10 20 -26l-57 -194c-2 -8 -10 -14 -19 -14h-78c-14 0 -22 9 -19 23l29 194c2 10 10 17 20 17h104z" />
    <glyph glyph-name="quotedblleft" unicode="&#x201c;" horiz-adv-x="506" 
d="M304 466c-16 0 -24 10 -20 26l57 194c2 8 10 14 19 14h78c14 0 22 -9 19 -23l-29 -194c-2 -10 -10 -17 -20 -17h-104zM81 466c-16 0 -24 10 -20 26l57 194c2 8 10 14 19 14h78c14 0 22 -9 19 -23l-29 -194c-2 -10 -10 -17 -20 -17h-104z" />
    <glyph glyph-name="quotedblright" unicode="&#x201d;" horiz-adv-x="506" 
d="M202 700c16 0 24 -10 20 -26l-57 -194c-2 -8 -10 -14 -19 -14h-78c-14 0 -22 9 -19 23l29 194c2 10 10 17 20 17h104zM425 700c16 0 24 -10 20 -26l-57 -194c-2 -8 -10 -14 -19 -14h-78c-14 0 -22 9 -19 23l29 194c2 10 10 17 20 17h104z" />
    <glyph glyph-name="dagger" unicode="&#x2020;" horiz-adv-x="356" 
d="M215 603l83 7c13 1 22 -7 22 -20v-40c0 -13 -9 -21 -22 -20l-83 7l9 -199c1 -13 -7 -21 -20 -21h-52c-13 0 -21 8 -20 21l9 199l-83 -7c-13 -1 -22 7 -22 20v40c0 13 9 21 22 20l83 -7l-8 75c-1 13 7 22 20 22h50c13 0 21 -9 20 -22z" />
    <glyph glyph-name="daggerdbl" unicode="&#x2021;" horiz-adv-x="356" 
d="M215 603l83 7c13 1 22 -7 22 -20v-40c0 -13 -9 -21 -22 -20l-83 7v-57l83 7c13 1 22 -7 22 -20v-40c0 -13 -9 -21 -22 -20l-83 7l8 -75c1 -13 -7 -22 -20 -22h-50c-13 0 -21 9 -20 22l8 75l-83 -7c-13 -1 -22 7 -22 20v40c0 13 9 21 22 20l83 -7v57l-83 -7
c-13 -1 -22 7 -22 20v40c0 13 9 21 22 20l83 -7l-8 75c-1 13 7 22 20 22h50c13 0 21 -9 20 -22z" />
    <glyph glyph-name="bullet" unicode="&#x2022;" horiz-adv-x="411" 
d="M205 77c-70 0 -124 54 -124 124c0 71 54 125 124 125c71 0 125 -54 125 -125c0 -70 -54 -124 -125 -124z" />
    <glyph glyph-name="perthousand" unicode="&#x2030;" horiz-adv-x="1048" 
d="M239 10c-4 -6 -11 -10 -18 -10h-97c-21 0 -28 12 -18 30l381 660c4 6 11 10 18 10h97c21 0 28 -12 18 -30zM180 705c75 0 136 -61 136 -136s-61 -135 -136 -135s-135 60 -135 135s60 136 135 136zM867 265c75 0 136 -61 136 -136s-61 -135 -136 -135s-135 60 -135 135
s60 136 135 136zM545 265c75 0 136 -61 136 -136s-61 -135 -136 -135s-135 60 -135 135s60 136 135 136zM545 184c-30 0 -54 -25 -54 -55s24 -54 54 -54s55 24 55 54s-25 55 -55 55zM180 624c-30 0 -54 -25 -54 -55s24 -54 54 -54s55 24 55 54s-25 55 -55 55zM867 184
c-30 0 -54 -25 -54 -55s24 -54 54 -54s55 24 55 54s-25 55 -55 55z" />
    <glyph glyph-name="guilsinglleft" unicode="&#x2039;" horiz-adv-x="345" 
d="M164 13c-7 0 -14 4 -18 10l-95 167c-4 6 -4 14 0 20l95 167c4 6 11 10 18 10h102c20 0 27 -12 17 -30l-90 -157l90 -157c10 -18 3 -30 -17 -30h-102z" />
    <glyph glyph-name="fraction" unicode="&#x2044;" horiz-adv-x="81" 
d="M206 700c17 0 25 -11 19 -27l-254 -660c-3 -8 -10 -13 -19 -13h-55c-17 0 -25 11 -19 27l253 660c3 8 11 13 19 13h56z" />
    <glyph glyph-name="zerosuperior" unicode="&#x2070;" horiz-adv-x="326" 
d="M163 504c-71 0 -122 59 -122 156s51 156 122 156c72 0 122 -59 122 -156s-50 -156 -122 -156zM163 581c25 0 35 37 35 79c0 45 -10 79 -35 79s-36 -34 -36 -79c0 -42 11 -79 36 -79z" />
    <glyph glyph-name="foursuperior" unicode="&#x2074;" horiz-adv-x="332" 
d="M261 530c0 -12 -8 -20 -20 -20h-39c-12 0 -20 8 -20 20v24h-130c-12 0 -20 8 -20 20v51c0 4 1 8 3 11l100 164c4 6 10 10 17 10h56c22 0 28 -12 17 -31l-89 -144h46v24c0 12 8 20 20 20h39c12 0 20 -8 20 -20v-24h18c10 0 17 -7 17 -17v-46c0 -11 -7 -18 -17 -18h-18v-24
z" />
    <glyph glyph-name="fivesuperior" unicode="&#x2075;" horiz-adv-x="312" 
d="M161 733v-26h15c52 0 95 -39 95 -99c0 -68 -60 -104 -119 -104c-30 0 -70 10 -98 31c-8 6 -9 16 -2 25l26 34c9 10 20 11 31 5c16 -8 33 -11 44 -11c17 0 29 12 29 23c0 18 -16 24 -23 24h-69c-12 0 -20 8 -20 20v135c0 12 8 20 20 20h142c12 0 20 -8 20 -20v-37
c0 -12 -8 -20 -20 -20h-71z" />
    <glyph glyph-name="sixsuperior" unicode="&#x2076;" horiz-adv-x="298" 
d="M202 810c21 0 28 -12 18 -30l-46 -79c48 -4 83 -47 83 -95c0 -62 -51 -102 -108 -102c-56 0 -108 40 -108 103c0 14 7 37 22 63l72 130c4 6 11 10 18 10h49zM149 630c-11 0 -23 -9 -23 -24c0 -18 12 -24 23 -24c10 0 23 6 23 24c0 14 -12 24 -23 24z" />
    <glyph glyph-name="sevensuperior" unicode="&#x2077;" horiz-adv-x="290" 
d="M234 810c12 0 20 -8 20 -20v-44c0 -3 -1 -7 -2 -9l-106 -216c-4 -7 -11 -11 -18 -11h-51c-19 0 -26 12 -18 29l95 194h-93c-12 0 -20 8 -20 20v37c0 12 8 20 20 20h173z" />
    <glyph glyph-name="eightsuperior" unicode="&#x2078;" horiz-adv-x="308" 
d="M154 816c52 0 104 -28 104 -88c0 -22 -14 -48 -36 -57c24 -10 45 -42 45 -72c0 -65 -56 -95 -113 -95s-113 30 -113 95c0 30 21 62 45 72c-22 9 -36 35 -36 57c0 60 52 88 104 88zM154 635c-18 0 -32 -14 -32 -29c0 -13 14 -29 32 -29s31 16 31 29c0 15 -13 29 -31 29z
M154 703c17 0 25 10 25 24c0 15 -9 24 -25 24s-25 -9 -25 -24c0 -9 8 -24 25 -24z" />
    <glyph glyph-name="ninesuperior" unicode="&#x2079;" horiz-adv-x="298" 
d="M96 510c-21 0 -28 12 -18 30l46 79c-48 4 -83 47 -83 95c0 62 51 102 108 102c56 0 108 -40 108 -103c0 -14 -7 -37 -22 -63l-72 -130c-4 -6 -11 -10 -18 -10h-49zM149 690c11 0 23 9 23 24c0 18 -12 24 -23 24c-10 0 -23 -6 -23 -24c0 -14 12 -24 23 -24z" />
    <glyph glyph-name="zeroinferior" unicode="&#x2080;" horiz-adv-x="326" 
d="M163 -146c-71 0 -122 59 -122 156s51 156 122 156c72 0 122 -59 122 -156s-50 -156 -122 -156zM163 -69c25 0 35 37 35 79c0 45 -10 79 -35 79s-36 -34 -36 -79c0 -42 11 -79 36 -79z" />
    <glyph glyph-name="oneinferior" unicode="&#x2081;" horiz-adv-x="254" 
d="M42 66c-6 9 -4 20 4 27l75 62c4 3 9 5 13 5h50c12 0 20 -8 20 -20v-260c0 -12 -8 -20 -20 -20h-47c-12 0 -20 8 -20 20v171l-30 -18c-10 -5 -20 -3 -27 6z" />
    <glyph glyph-name="twoinferior" unicode="&#x2082;" horiz-adv-x="306" 
d="M120 64c-8 -10 -18 -14 -29 -7l-34 19c-10 5 -13 16 -8 25c21 36 57 65 107 65c70 0 109 -46 109 -100c0 -41 -17 -61 -38 -86l-44 -45h62c12 0 20 -8 20 -20v-35c0 -12 -8 -20 -20 -20h-166c-12 0 -20 8 -20 20v35c0 5 2 10 5 14l98 103c8 8 16 22 16 30
c0 11 -6 24 -23 24c-11 0 -24 -7 -35 -22z" />
    <glyph glyph-name="threeinferior" unicode="&#x2083;" horiz-adv-x="304" 
d="M170 73c0 9 -7 19 -22 19c-12 0 -28 -5 -41 -11c-12 -6 -24 -4 -33 8l-16 23c-5 9 -4 19 3 25c28 21 63 29 95 29c47 0 97 -20 97 -82c0 -20 -15 -50 -40 -64c34 -14 50 -40 50 -70c0 -59 -51 -96 -115 -96c-28 0 -67 12 -94 33c-8 6 -9 16 -3 25l19 28c9 12 20 13 33 6
c14 -7 31 -12 45 -12c17 0 30 11 30 23c0 19 -21 23 -47 23h-15c-9 0 -15 6 -15 15v40c0 8 5 13 13 13h13c17 0 43 6 43 25z" />
    <glyph glyph-name="fourinferior" unicode="&#x2084;" horiz-adv-x="332" 
d="M261 -120c0 -12 -8 -20 -20 -20h-39c-12 0 -20 8 -20 20v24h-130c-12 0 -20 8 -20 20v51c0 4 1 8 3 11l100 164c4 6 10 10 17 10h56c22 0 28 -12 17 -31l-89 -144h46v24c0 12 8 20 20 20h39c12 0 20 -8 20 -20v-24h18c10 0 17 -7 17 -18v-46c0 -10 -7 -17 -17 -17h-18
v-24z" />
    <glyph glyph-name="fiveinferior" unicode="&#x2085;" horiz-adv-x="312" 
d="M161 83v-26h15c52 0 95 -39 95 -99c0 -68 -60 -104 -119 -104c-30 0 -70 10 -98 31c-8 6 -9 16 -2 25l26 34c9 10 20 11 31 5c16 -8 33 -11 44 -11c17 0 29 12 29 23c0 18 -16 24 -23 24h-69c-12 0 -20 8 -20 20v135c0 12 8 20 20 20h142c12 0 20 -8 20 -20v-37
c0 -12 -8 -20 -20 -20h-71z" />
    <glyph glyph-name="sixinferior" unicode="&#x2086;" horiz-adv-x="298" 
d="M202 160c21 0 28 -12 18 -30l-46 -79c48 -4 83 -47 83 -95c0 -62 -51 -102 -108 -102c-56 0 -108 40 -108 103c0 14 7 37 22 63l72 130c4 6 11 10 18 10h49zM149 -20c-11 0 -23 -9 -23 -24c0 -18 12 -24 23 -24c10 0 23 6 23 24c0 14 -12 24 -23 24z" />
    <glyph glyph-name="seveninferior" unicode="&#x2087;" horiz-adv-x="290" 
d="M234 160c12 0 20 -8 20 -20v-44c0 -3 -1 -7 -2 -9l-106 -216c-4 -7 -11 -11 -18 -11h-51c-19 0 -26 12 -18 29l95 194h-93c-12 0 -20 8 -20 20v37c0 12 8 20 20 20h173z" />
    <glyph glyph-name="eightinferior" unicode="&#x2088;" horiz-adv-x="308" 
d="M154 166c52 0 104 -28 104 -88c0 -22 -14 -48 -36 -57c24 -10 45 -42 45 -72c0 -65 -56 -95 -113 -95s-113 30 -113 95c0 30 21 62 45 72c-22 9 -36 35 -36 57c0 60 52 88 104 88zM154 -15c-18 0 -32 -14 -32 -29c0 -13 14 -29 32 -29s31 16 31 29c0 15 -13 29 -31 29z
M154 53c17 0 25 10 25 24c0 15 -9 24 -25 24s-25 -9 -25 -24c0 -9 8 -24 25 -24z" />
    <glyph glyph-name="nineinferior" unicode="&#x2089;" horiz-adv-x="298" 
d="M96 -140c-21 0 -28 12 -18 30l46 79c-48 4 -83 47 -83 95c0 62 51 102 108 102c56 0 108 -40 108 -103c0 -14 -7 -37 -22 -63l-72 -130c-4 -6 -11 -10 -18 -10h-49zM149 40c11 0 23 9 23 24c0 18 -12 24 -23 24c-10 0 -23 -6 -23 -24c0 -14 12 -24 23 -24z" />
    <glyph glyph-name="Euro" unicode="&#x20ac;" horiz-adv-x="668" 
d="M584 596c6 -9 3 -19 -6 -25l-77 -56c-12 -8 -24 -5 -32 8c-20 32 -53 53 -92 53c-61 0 -94 -51 -110 -115h156c15 0 23 -10 20 -24l-11 -49c-2 -10 -9 -16 -19 -16h-158v-22v-23h134c15 0 23 -10 20 -24l-11 -49c-2 -10 -9 -16 -19 -16h-112c16 -64 49 -114 110 -114
c41 0 74 26 95 61c7 11 17 14 28 9l87 -43c11 -5 15 -16 9 -27c-49 -86 -123 -133 -219 -133c-131 0 -228 89 -258 247h-76c-15 0 -23 10 -20 24l11 49c2 10 9 16 19 16h56v23v22h-66c-15 0 -23 10 -20 24l11 49c2 10 9 16 19 16h65c30 158 128 248 259 248
c87 0 159 -39 207 -113z" />
    <glyph glyph-name="uni20BA" unicode="&#x20ba;" horiz-adv-x="697" 
d="M63 489c0 8 5 16 13 19l103 37v135c0 12 8 20 20 20h102c12 0 20 -8 20 -20v-83l158 58c16 6 27 -1 27 -19v-62c0 -8 -5 -16 -13 -19l-172 -63v-74l158 58c16 6 27 -1 27 -19v-62c0 -8 -5 -16 -13 -19l-172 -63v-173c98 0 183 74 195 169c1 12 9 20 21 20h95
c12 0 20 -8 19 -20c-11 -172 -155 -309 -330 -309h-122c-12 0 -20 8 -20 20v241l-89 -33c-16 -6 -27 1 -27 19v63c0 8 5 16 13 19l103 37v74l-89 -33c-16 -6 -27 1 -27 19v63z" />
    <glyph glyph-name="litre" unicode="&#x2113;" horiz-adv-x="483" 
d="M66 249c-7 9 -5 21 4 28c23 15 49 32 77 53v226c0 104 59 153 134 153c67 0 128 -44 128 -131c0 -109 -78 -194 -175 -269v-182c0 -42 26 -58 52 -58c25 0 58 8 89 26c11 7 22 4 29 -7l16 -27c5 -9 4 -19 -5 -25c-45 -32 -92 -45 -137 -45c-67 0 -131 33 -131 132v123
l-37 -25c-10 -7 -21 -5 -27 5zM234 557v-154c51 50 91 110 91 176c0 34 -21 53 -44 53c-24 0 -47 -14 -47 -75z" />
    <glyph glyph-name="afii61352" unicode="&#x2116;" horiz-adv-x="1067" 
d="M903 708c71 0 128 -52 128 -126s-57 -126 -128 -126s-128 52 -128 126s57 126 128 126zM903 548c18 0 31 14 31 34c0 19 -14 32 -32 32s-31 -13 -31 -32c0 -20 14 -34 32 -34zM801 294c-12 0 -20 8 -20 20v64c0 12 8 20 20 20h205c12 0 20 -8 20 -20v-64
c0 -12 -8 -20 -20 -20h-205zM686 700c12 0 20 -8 20 -20v-660c0 -12 -8 -20 -20 -20h-122c-6 0 -12 3 -16 8l-315 431v-419c0 -12 -8 -20 -20 -20h-112c-12 0 -20 8 -20 20v660c0 12 8 20 20 20h122c6 0 12 -3 16 -8l315 -433v421c0 12 8 20 20 20h112z" />
    <glyph glyph-name="trademark" unicode="&#x2122;" horiz-adv-x="695" 
d="M477 463c-7 0 -14 4 -18 11l-38 76v-105c0 -12 -8 -20 -20 -20h-49c-12 0 -20 8 -20 20v235c0 12 8 20 20 20h55c7 0 13 -4 17 -9l67 -104l67 104c4 5 10 9 17 9h55c12 0 20 -8 20 -20v-235c0 -12 -8 -20 -20 -20h-49c-12 0 -20 8 -20 20v105l-38 -76
c-4 -7 -11 -11 -18 -11h-28zM129 425c-12 0 -20 8 -20 20v171h-62c-12 0 -20 8 -20 20v44c0 12 8 20 20 20h213c12 0 20 -8 20 -20v-44c0 -12 -8 -20 -20 -20h-62v-171c0 -12 -8 -20 -20 -20h-49z" />
    <glyph glyph-name="Omega" unicode="&#x2126;" horiz-adv-x="808" 
d="M763 354c0 -83 -36 -169 -103 -219h83c12 0 20 -8 20 -20v-95c0 -12 -8 -20 -20 -20h-241c-12 0 -20 8 -20 20v99c0 9 5 16 12 19c71 34 117 116 117 214c0 127 -90 217 -207 217s-207 -90 -207 -217c0 -98 46 -180 117 -214c7 -3 12 -10 12 -19v-99
c0 -12 -8 -20 -20 -20h-241c-12 0 -20 8 -20 20v95c0 12 8 20 20 20h83c-67 50 -103 136 -103 219c0 201 161 355 359 355s359 -154 359 -355z" />
    <glyph glyph-name="estimated" unicode="&#x212e;" horiz-adv-x="808" 
d="M635 166c8 10 19 12 29 5l20 -15c10 -6 12 -18 4 -27c-66 -85 -169 -138 -284 -138c-198 0 -359 158 -359 359s161 359 359 359s359 -158 359 -359v-8c0 -6 -3 -9 -8 -9h-543v-209c52 -43 119 -68 192 -68c96 0 177 40 231 110zM404 648c-73 0 -140 -27 -192 -71v-179
h383v180c-51 44 -118 70 -191 70z" />
    <glyph glyph-name="arrowleft" unicode="&#x2190;" horiz-adv-x="777" 
d="M380 189l76 -76c8 -8 8 -20 0 -28l-66 -66c-8 -8 -20 -8 -28 0l-226 226c-8 8 -8 20 0 28l225 228c8 8 20 8 28 0l66 -66c8 -8 8 -20 0 -28l-76 -76h256c12 0 20 -8 20 -20v-102c0 -12 -8 -20 -20 -20h-255z" />
    <glyph glyph-name="arrowup" unicode="&#x2191;" horiz-adv-x="792" 
d="M571 190c-8 -8 -20 -8 -28 0l-76 76v-255c0 -12 -8 -20 -20 -20h-102c-12 0 -20 8 -20 20v255l-76 -76c-8 -8 -20 -8 -28 0l-66 66c-8 8 -8 20 0 28l227 226c8 8 20 8 28 0l227 -226c8 -8 8 -20 0 -28z" />
    <glyph glyph-name="arrowright" unicode="&#x2192;" horiz-adv-x="777" 
d="M321 85c-8 8 -8 20 0 28l76 76h-255c-12 0 -20 8 -20 20v102c0 12 8 20 20 20h256l-76 76c-8 8 -8 20 0 28l66 66c8 8 20 8 28 0l225 -228c8 -8 8 -20 0 -28l-226 -226c-8 -8 -20 -8 -28 0z" />
    <glyph glyph-name="arrowdown" unicode="&#x2193;" horiz-adv-x="792" 
d="M467 249l76 76c8 8 20 8 28 0l66 -66c8 -8 8 -20 0 -28l-227 -226c-8 -8 -20 -8 -28 0l-227 226c-8 8 -8 20 0 28l66 66c8 8 20 8 28 0l76 -76v255c0 12 8 20 20 20h102c12 0 20 -8 20 -20v-255z" />
    <glyph glyph-name="uni2196" unicode="&#x2196;" horiz-adv-x="784" 
d="M552 342c0 -12 -8 -20 -20 -20h-107l179 -180c8 -8 8 -20 0 -28l-71 -73c-8 -8 -20 -8 -28 0l-181 182v-108c0 -12 -8 -20 -20 -20h-93c-12 0 -20 8 -20 20l1 319c0 12 8 20 20 20h320c12 0 20 -8 20 -20v-92z" />
    <glyph glyph-name="uni2197" unicode="&#x2197;" horiz-adv-x="785" 
d="M381 322h-107c-12 0 -20 8 -20 20v92c0 12 8 20 20 20h320c12 0 20 -8 20 -20l1 -319c0 -12 -8 -20 -20 -20h-93c-12 0 -20 8 -20 20v108l-181 -182c-8 -8 -20 -8 -28 0l-71 73c-8 8 -8 20 0 28z" />
    <glyph glyph-name="uni2198" unicode="&#x2198;" horiz-adv-x="785" 
d="M254 160c0 12 8 20 20 20h107l-179 180c-8 8 -8 20 0 28l71 73c8 8 20 8 28 0l181 -182v108c0 12 8 20 20 20h93c12 0 20 -8 20 -20v-319c0 -12 -8 -20 -20 -20h-321c-12 0 -20 8 -20 20v92z" />
    <glyph glyph-name="uni2199" unicode="&#x2199;" horiz-adv-x="784" 
d="M425 180h107c12 0 20 -8 20 -20v-92c0 -12 -8 -20 -20 -20h-321c-12 0 -20 8 -20 20v319c0 12 8 20 20 20h93c12 0 20 -8 20 -20v-108l181 182c8 8 20 8 28 0l71 -73c8 -8 8 -20 0 -28z" />
    <glyph glyph-name="partialdiff" unicode="&#x2202;" horiz-adv-x="554" 
d="M267 435l-133 234c-10 18 -3 30 17 30h111c7 0 14 -4 18 -10l186 -334c33 -64 43 -108 43 -139c0 -138 -109 -225 -233 -225s-231 89 -231 225c0 129 74 209 201 220h2zM278 305c-48 0 -92 -37 -92 -89c0 -56 46 -89 92 -89s89 34 89 89s-43 89 -89 89z" />
    <glyph glyph-name="Delta" unicode="&#x2206;" horiz-adv-x="712" 
d="M297 689c3 7 10 12 18 12h82c8 0 15 -5 18 -12l250 -556c1 -2 2 -6 2 -8v-105c0 -12 -8 -20 -20 -20h-582c-12 0 -20 8 -20 20v105c0 2 1 6 2 8zM220 143h272l-136 322z" />
    <glyph glyph-name="product" unicode="&#x220f;" horiz-adv-x="671" 
d="M408 0c-12 0 -20 8 -20 20v540h-105v-540c0 -12 -8 -20 -20 -20h-112c-12 0 -20 8 -20 20v540h-84c-12 0 -20 8 -20 20v100c0 12 8 20 20 20h577c12 0 20 -8 20 -20v-100c0 -12 -8 -20 -20 -20h-84v-540c0 -12 -8 -20 -20 -20h-112z" />
    <glyph glyph-name="summation" unicode="&#x2211;" horiz-adv-x="584" 
d="M376 361c5 -6 5 -16 0 -22l-139 -199h273c12 0 20 -8 20 -20v-100c0 -12 -8 -20 -20 -20h-436c-12 0 -20 8 -20 20v113c0 4 2 9 4 12l155 205l-155 205c-2 3 -4 8 -4 12v113c0 12 8 20 20 20h436c12 0 20 -8 20 -20v-100c0 -12 -8 -20 -20 -20h-273z" />
    <glyph glyph-name="radical" unicode="&#x221a;" horiz-adv-x="641" 
d="M279 210l193 506c3 8 11 13 19 13h120c18 0 26 -11 19 -27l-278 -689c-3 -8 -10 -13 -18 -13h-110c-8 0 -15 5 -18 12l-150 360c-6 17 1 28 19 28h120c8 0 16 -5 19 -13z" />
    <glyph glyph-name="infinity" unicode="&#x221e;" horiz-adv-x="818" 
d="M755 203c0 -106 -79 -169 -171 -169c-54 0 -115 26 -175 87c-60 -61 -121 -87 -175 -87c-92 0 -171 63 -171 169s79 169 171 169c48 0 121 -30 175 -87c60 61 121 87 175 87c92 0 171 -63 171 -169zM634 203c0 34 -33 48 -57 48c-12 0 -67 -7 -101 -48
c34 -41 89 -48 101 -48c24 0 57 14 57 48zM184 203c0 -34 33 -48 57 -48c12 0 65 7 99 48c-34 41 -87 48 -99 48c-24 0 -57 -14 -57 -48z" />
    <glyph glyph-name="integral" unicode="&#x222b;" horiz-adv-x="340" 
d="M60 -121v653c0 117 79 177 169 177c35 0 100 -3 156 -43c8 -6 9 -17 4 -25l-44 -71c-8 -12 -20 -13 -33 -7c-19 10 -41 12 -56 12c-23 0 -49 -15 -49 -47v-653c0 -117 -79 -174 -169 -174c-34 0 -97 3 -153 43c-8 6 -9 17 -4 25l42 70c8 13 20 14 33 7
c19 -11 40 -14 56 -14c22 0 48 16 48 47z" />
    <glyph glyph-name="approxequal" unicode="&#x2248;" horiz-adv-x="628" 
d="M399 238c-90 0 -123 74 -175 74c-21 0 -41 -18 -56 -47c-5 -11 -16 -16 -28 -11l-78 34c-10 4 -15 14 -11 24c29 76 90 132 174 132c92 0 117 -73 174 -73c21 0 44 21 59 50c6 12 17 17 29 11l80 -35c10 -4 14 -14 11 -24c-28 -73 -94 -135 -179 -135zM399 0
c-90 0 -123 74 -175 74c-21 0 -41 -18 -56 -47c-5 -11 -16 -16 -28 -11l-78 34c-10 4 -15 14 -11 24c29 76 90 132 174 132c92 0 117 -73 174 -73c21 0 44 21 59 50c6 12 17 17 29 11l80 -35c10 -4 14 -14 11 -24c-28 -73 -94 -135 -179 -135z" />
    <glyph glyph-name="notequal" unicode="&#x2260;" horiz-adv-x="480" 
d="M63 218c0 12 8 20 20 20h88l23 61h-111c-12 0 -20 8 -20 20v91c0 12 8 20 20 20h161l35 90c3 8 10 13 19 13h78c17 0 25 -11 18 -27l-29 -76h32c12 0 20 -8 20 -20v-91c0 -12 -8 -20 -20 -20h-82l-23 -61h105c12 0 20 -8 20 -20v-91c0 -12 -8 -20 -20 -20h-156l-35 -94
c-3 -8 -11 -13 -19 -13h-78c-17 0 -25 11 -19 27l30 80h-37c-12 0 -20 8 -20 20v91z" />
    <glyph glyph-name="lessequal" unicode="&#x2264;" horiz-adv-x="380" 
d="M57 274c-7 3 -12 10 -12 18v100c0 8 5 15 12 18l250 107c17 7 28 0 28 -18v-107c0 -9 -6 -17 -15 -19l-119 -31l119 -31c9 -2 15 -10 15 -19v-107c0 -18 -11 -25 -28 -18zM315 125c12 0 20 -8 20 -20v-85c0 -12 -8 -20 -20 -20h-250c-12 0 -20 8 -20 20v85
c0 12 8 20 20 20h250z" />
    <glyph glyph-name="greaterequal" unicode="&#x2265;" horiz-adv-x="380" 
d="M323 410c7 -3 12 -10 12 -18v-100c0 -8 -5 -15 -12 -18l-250 -107c-17 -7 -28 0 -28 18v107c0 9 6 17 15 19l119 31l-119 31c-9 2 -15 10 -15 19v107c0 18 11 25 28 18zM65 0c-12 0 -20 8 -20 20v85c0 12 8 20 20 20h250c12 0 20 -8 20 -20v-85c0 -12 -8 -20 -20 -20
h-250z" />
    <glyph glyph-name="lozenge" unicode="&#x25ca;" horiz-adv-x="656" 
d="M384 700c6 0 13 -4 17 -10l195 -330c4 -6 4 -14 0 -20l-195 -330c-4 -6 -11 -10 -17 -10h-112c-6 0 -13 4 -17 10l-195 330c-4 6 -4 14 0 20l195 330c4 6 11 10 17 10h112zM328 541l-109 -191l109 -191l109 191z" />
    <glyph glyph-name="commaaccent" unicode="&#xf6c3;" horiz-adv-x="163" 
d="M134 -60c17 0 25 -11 19 -27l-53 -137c-3 -8 -10 -13 -19 -13h-57c-14 0 -22 10 -19 24l28 137c2 10 10 16 19 16h82z" />
    <glyph glyph-name="six.numr" horiz-adv-x="298" 
d="M202 700c21 0 28 -12 18 -30l-46 -79c48 -4 83 -47 83 -95c0 -62 -51 -102 -108 -102c-56 0 -108 40 -108 103c0 14 7 37 22 63l72 130c4 6 11 10 18 10h49zM149 520c-11 0 -23 -9 -23 -24c0 -18 12 -24 23 -24c10 0 23 6 23 24c0 14 -12 24 -23 24z" />
    <glyph glyph-name="six.onum" horiz-adv-x="554" 
d="M403 700c20 0 27 -12 17 -30l-133 -235c7 1 11 1 20 1c127 -10 202 -91 202 -220c0 -136 -107 -225 -231 -225s-233 87 -233 225c0 31 10 75 43 139l186 335c4 6 11 10 18 10h111zM276 305c-46 0 -89 -34 -89 -89s43 -89 89 -89s92 33 92 89c0 52 -44 89 -92 89z" />
    <glyph glyph-name="six.tnum" horiz-adv-x="630" 
d="M442 700c20 0 27 -12 17 -30l-133 -234c7 1 11 1 20 1c127 -10 202 -91 202 -220c0 -136 -107 -225 -231 -225s-233 87 -233 225c0 31 10 75 43 139l186 334c4 6 11 10 18 10h111zM315 306c-46 0 -89 -34 -89 -89s43 -89 89 -89s92 33 92 89c0 52 -44 89 -92 89z" />
    <glyph glyph-name="four.dnom" horiz-adv-x="332" 
d="M261 20c0 -12 -8 -20 -20 -20h-39c-12 0 -20 8 -20 20v24h-130c-12 0 -20 8 -20 20v51c0 4 1 8 3 11l100 164c4 6 10 10 17 10h56c22 0 28 -12 17 -31l-89 -144h46v24c0 12 8 20 20 20h39c12 0 20 -8 20 -20v-24h18c10 0 17 -7 17 -17v-46c0 -11 -7 -18 -17 -18h-18v-24z
" />
    <glyph glyph-name="seven.tnum" horiz-adv-x="627" 
d="M514 700c12 0 20 -8 20 -20v-106c0 -2 -1 -6 -2 -8l-261 -555c-3 -6 -10 -11 -18 -11h-111c-18 0 -26 11 -18 28l252 537h-256c-12 0 -20 8 -20 20v95c0 12 8 20 20 20h394z" />
    <glyph glyph-name="seven.onum" horiz-adv-x="497" 
d="M441 492c12 0 20 -8 20 -20v-106c0 -2 -1 -6 -2 -8l-261 -555c-3 -6 -10 -11 -18 -11h-111c-18 0 -26 11 -18 28l252 537h-256c-12 0 -20 8 -20 20v95c0 12 8 20 20 20h394z" />
    <glyph glyph-name="seven.numr" horiz-adv-x="290" 
d="M234 700c12 0 20 -8 20 -20v-44c0 -3 -1 -7 -2 -9l-106 -216c-4 -7 -11 -11 -18 -11h-51c-19 0 -26 12 -18 29l95 194h-93c-12 0 -20 8 -20 20v37c0 12 8 20 20 20h173z" />
    <glyph glyph-name="seven.dnom" horiz-adv-x="290" 
d="M234 300c12 0 20 -8 20 -20v-44c0 -3 -1 -7 -2 -9l-106 -216c-4 -7 -11 -11 -18 -11h-51c-19 0 -26 12 -18 29l95 194h-93c-12 0 -20 8 -20 20v37c0 12 8 20 20 20h173z" />
    <glyph glyph-name="six.dnom" horiz-adv-x="298" 
d="M202 300c21 0 28 -12 18 -30l-46 -79c48 -4 83 -47 83 -95c0 -62 -51 -102 -108 -102c-56 0 -108 40 -108 103c0 14 7 37 22 63l72 130c4 6 11 10 18 10h49zM149 120c-11 0 -23 -9 -23 -24c0 -18 12 -24 23 -24c10 0 23 6 23 24c0 14 -12 24 -23 24z" />
    <glyph glyph-name="five.onum" horiz-adv-x="547" 
d="M227 359v-129h34c123 0 241 -69 241 -218c0 -136 -114 -229 -244 -229c-75 0 -156 29 -209 74c-8 7 -9 18 -2 26l57 75c8 10 19 11 30 4c35 -26 77 -43 123 -43c69 0 101 54 101 90c0 69 -69 89 -99 89h-156c-12 0 -20 8 -20 20v354c0 12 8 20 20 20h338
c12 0 20 -8 20 -20v-93c0 -12 -8 -20 -20 -20h-214z" />
    <glyph glyph-name="five.numr" horiz-adv-x="312" 
d="M161 623v-26h15c52 0 95 -39 95 -99c0 -68 -60 -104 -119 -104c-30 0 -70 10 -98 31c-8 6 -9 16 -2 25l26 34c9 10 20 11 31 5c16 -8 33 -11 44 -11c17 0 29 12 29 23c0 18 -16 24 -23 24h-69c-12 0 -20 8 -20 20v135c0 12 8 20 20 20h142c12 0 20 -8 20 -20v-37
c0 -12 -8 -20 -20 -20h-71z" />
    <glyph glyph-name="four.numr" horiz-adv-x="332" 
d="M261 420c0 -12 -8 -20 -20 -20h-39c-12 0 -20 8 -20 20v24h-130c-12 0 -20 8 -20 20v51c0 4 1 8 3 11l100 164c4 6 10 10 17 10h56c22 0 28 -12 17 -31l-89 -144h46v24c0 12 8 20 20 20h39c12 0 20 -8 20 -20v-24h18c10 0 17 -7 17 -17v-46c0 -11 -7 -18 -17 -18h-18v-24
z" />
    <glyph glyph-name="five.tnum" horiz-adv-x="630" 
d="M282 567v-128h34c123 0 241 -69 241 -218c0 -136 -114 -229 -244 -229c-75 0 -156 29 -209 74c-8 7 -9 18 -2 26l57 75c8 10 19 11 30 4c35 -26 77 -43 123 -43c69 0 101 54 101 90c0 69 -69 89 -99 89h-156c-12 0 -20 8 -20 20v353c0 12 8 20 20 20h338
c12 0 20 -8 20 -20v-93c0 -12 -8 -20 -20 -20h-214z" />
    <glyph glyph-name="four.onum" horiz-adv-x="563" 
d="M309 177c0 12 8 20 20 20h102c12 0 20 -8 20 -20v-125h56c12 0 20 -8 20 -20v-93c0 -12 -8 -20 -20 -20h-56v-106c0 -12 -8 -20 -20 -20h-102c-12 0 -20 8 -20 20v106h-271c-12 0 -20 8 -20 20v89c0 3 1 7 2 9l232 445c4 7 11 11 18 11h113c20 0 27 -12 17 -29l-219 -412
h128v125z" />
    <glyph glyph-name="three.dnom" horiz-adv-x="304" 
d="M170 213c0 9 -7 19 -22 19c-12 0 -28 -5 -41 -11c-12 -6 -24 -4 -33 8l-16 23c-5 9 -4 19 3 25c28 21 63 29 95 29c47 0 97 -20 97 -82c0 -20 -15 -50 -40 -64c34 -14 50 -40 50 -70c0 -59 -51 -96 -115 -96c-28 0 -67 12 -94 33c-8 6 -9 16 -3 25l19 28c9 12 20 13 33 6
c14 -7 31 -12 45 -12c17 0 30 11 30 23c0 19 -21 23 -47 23h-15c-9 0 -15 6 -15 15v40c0 8 5 13 13 13h13c17 0 43 6 43 25z" />
    <glyph glyph-name="three.numr" horiz-adv-x="304" 
d="M170 613c0 9 -7 19 -22 19c-12 0 -28 -5 -41 -11c-12 -6 -24 -4 -33 8l-16 23c-5 9 -4 19 3 25c28 21 63 29 95 29c47 0 97 -20 97 -82c0 -20 -15 -50 -40 -64c34 -14 50 -40 50 -70c0 -59 -51 -96 -115 -96c-28 0 -67 12 -94 33c-8 6 -9 16 -3 25l19 28c9 12 20 13 33 6
c14 -7 31 -12 45 -12c17 0 30 11 30 23c0 19 -21 23 -47 23h-15c-9 0 -15 6 -15 15v40c0 8 5 13 13 13h13c17 0 43 6 43 25z" />
    <glyph glyph-name="three.onum" horiz-adv-x="564" 
d="M263 106h-91c-12 0 -20 8 -20 20v86c0 12 8 20 20 20h92c48 0 79 42 79 78c0 48 -43 68 -86 68c-30 0 -68 -13 -94 -43c-9 -10 -21 -12 -32 -3l-62 54c-8 7 -10 18 -3 27c51 62 121 95 195 95c109 0 222 -60 222 -191c0 -50 -27 -112 -85 -140c68 -33 112 -95 112 -169
c0 -149 -128 -217 -251 -218c-80 1 -147 26 -211 95c-7 8 -6 19 2 27l64 60c9 9 21 8 30 -2c34 -34 78 -50 115 -50c52 0 107 32 107 93c0 62 -51 93 -103 93z" />
    <glyph glyph-name="three.tnum" horiz-adv-x="632" 
d="M314 307h-91c-12 0 -20 8 -20 20v86c0 12 8 20 20 20h92c48 0 79 42 79 78c0 48 -43 68 -86 68c-30 0 -68 -13 -94 -43c-9 -10 -21 -12 -32 -3l-62 54c-8 7 -10 18 -3 27c51 62 121 95 195 95c109 0 222 -60 222 -191c0 -50 -27 -112 -85 -140c68 -33 112 -95 112 -169
c0 -149 -128 -217 -251 -218c-80 1 -147 26 -211 95c-7 8 -6 19 2 27l64 60c9 9 21 8 30 -2c34 -34 78 -50 115 -50c52 0 107 32 107 93c0 62 -51 93 -103 93z" />
    <glyph glyph-name="four.tnum" horiz-adv-x="635" 
d="M349 384c0 12 8 20 20 20h102c12 0 20 -8 20 -20v-125h56c12 0 20 -8 20 -20v-93c0 -12 -8 -20 -20 -20h-56v-106c0 -12 -8 -20 -20 -20h-102c-12 0 -20 8 -20 20v106h-271c-12 0 -20 8 -20 20v89c0 3 1 7 2 9l232 445c4 7 11 11 18 11h113c20 0 27 -12 17 -29l-219 -412
h128v125z" />
    <glyph glyph-name="greater.case" horiz-adv-x="395" 
d="M192 284l-136 67c-7 3 -11 10 -11 17v107c0 20 12 27 30 17l265 -150c6 -4 10 -11 10 -18v-79c0 -7 -4 -14 -10 -18l-265 -150c-18 -10 -30 -3 -30 17v106c0 8 5 15 11 18z" />
    <glyph glyph-name="two.dnom" horiz-adv-x="306" 
d="M120 204c-8 -10 -18 -14 -29 -7l-34 19c-10 5 -13 16 -8 25c21 36 57 65 107 65c70 0 109 -46 109 -100c0 -41 -17 -61 -38 -86l-44 -45h62c12 0 20 -8 20 -20v-35c0 -12 -8 -20 -20 -20h-166c-12 0 -20 8 -20 20v35c0 5 2 10 5 14l98 103c8 8 16 22 16 30
c0 11 -6 24 -23 24c-11 0 -24 -7 -35 -22z" />
    <glyph glyph-name="two.numr" horiz-adv-x="306" 
d="M120 604c-8 -10 -18 -14 -29 -7l-34 19c-10 5 -13 16 -8 25c21 36 57 65 107 65c70 0 109 -46 109 -100c0 -41 -17 -61 -38 -86l-44 -45h62c12 0 20 -8 20 -20v-35c0 -12 -8 -20 -20 -20h-166c-12 0 -20 8 -20 20v35c0 5 2 10 5 14l98 103c8 8 16 22 16 30
c0 11 -6 24 -23 24c-11 0 -24 -7 -35 -22z" />
    <glyph glyph-name="two.onum" horiz-adv-x="500" 
d="M166 323c-7 -11 -18 -14 -29 -8l-76 45c-10 5 -13 16 -7 25c35 60 102 124 200 124c145 0 204 -90 204 -177c0 -45 -12 -113 -90 -163l-64 -41h140c12 0 20 -8 20 -20v-88c0 -12 -8 -20 -20 -20h-359c-12 0 -20 8 -20 20v79c0 6 3 12 8 16l209 158c22 16 35 35 35 58
c0 27 -18 50 -60 50c-37 0 -69 -25 -91 -58z" />
    <glyph glyph-name="two.tnum" horiz-adv-x="630" 
d="M209 497c-6 -12 -17 -16 -29 -10l-83 43c-10 5 -14 15 -10 24c32 73 107 154 224 154c151 0 228 -101 228 -218c0 -78 -36 -138 -87 -196l-150 -161h217c12 0 20 -8 20 -20v-93c0 -12 -8 -20 -20 -20h-392c-12 0 -20 8 -20 20v90c0 5 2 10 5 14l231 253
c32 37 50 75 50 115c0 35 -22 81 -84 81c-45 0 -78 -31 -100 -76z" />
    <glyph glyph-name="guillemotleft.case" horiz-adv-x="583" 
d="M164 93c-7 0 -14 4 -18 10l-95 167c-4 6 -4 14 0 20l95 167c4 6 11 10 18 10h102c20 0 27 -12 17 -30l-90 -157l90 -157c10 -18 3 -30 -17 -30h-102zM402 93c-7 0 -14 4 -18 10l-95 167c-4 6 -4 14 0 20l95 167c4 6 11 10 18 10h102c20 0 27 -12 17 -30l-90 -157l90 -157
c10 -18 3 -30 -17 -30h-102z" />
    <glyph glyph-name="guillemotright.case" horiz-adv-x="583" 
d="M532 290c4 -6 4 -14 0 -20l-95 -167c-4 -6 -11 -10 -18 -10h-102c-20 0 -27 12 -17 30l90 157l-90 157c-10 18 -3 30 17 30h102c7 0 14 -4 18 -10zM294 290c4 -6 4 -14 0 -20l-95 -167c-4 -6 -11 -10 -18 -10h-102c-20 0 -27 12 -17 30l90 157l-90 157
c-10 18 -3 30 17 30h102c7 0 14 -4 18 -10z" />
    <glyph glyph-name="equal.case" horiz-adv-x="453" 
d="M63 217c0 12 8 20 20 20h287c12 0 20 -8 20 -20v-91c0 -12 -8 -20 -20 -20h-287c-12 0 -20 8 -20 20v91zM63 414c0 12 8 20 20 20h287c12 0 20 -8 20 -20v-91c0 -12 -8 -20 -20 -20h-287c-12 0 -20 8 -20 20v91z" />
    <glyph glyph-name="endash.case" horiz-adv-x="517" 
d="M63 324c0 12 8 20 20 20h351c12 0 20 -8 20 -20v-92c0 -12 -8 -20 -20 -20h-351c-12 0 -20 8 -20 20v92z" />
    <glyph glyph-name="emdash.case" horiz-adv-x="608" 
d="M63 322c0 12 8 20 20 20h442c12 0 20 -8 20 -20v-92c0 -12 -8 -20 -20 -20h-442c-12 0 -20 8 -20 20v92z" />
    <glyph glyph-name="guilsinglleft.case" horiz-adv-x="345" 
d="M164 95c-7 0 -14 4 -18 10l-95 167c-4 6 -4 14 0 20l95 167c4 6 11 10 18 10h102c20 0 27 -12 17 -30l-90 -157l90 -157c10 -18 3 -30 -17 -30h-102z" />
    <glyph glyph-name="guilsinglright.case" horiz-adv-x="345" 
d="M294 292c4 -6 4 -14 0 -20l-95 -167c-4 -6 -11 -10 -18 -10h-102c-20 0 -27 12 -17 30l90 157l-90 157c-10 18 -3 30 17 30h102c7 0 14 -4 18 -10z" />
    <glyph glyph-name="eight.tnum" horiz-adv-x="634" 
d="M94 515c0 131 110 193 223 193s223 -62 223 -193c0 -53 -24 -111 -83 -138c62 -36 108 -94 108 -169c0 -149 -123 -216 -248 -217c-125 1 -248 68 -248 217c0 75 46 133 108 169c-59 27 -83 85 -83 138zM317 307c-53 0 -105 -33 -105 -94c0 -59 52 -94 105 -94
s105 35 105 94c0 61 -52 94 -105 94zM317 434c50 0 80 35 80 73c0 46 -38 72 -80 72s-80 -26 -80 -72c0 -38 30 -73 80 -73z" />
    <glyph glyph-name="eight.onum" horiz-adv-x="604" 
d="M79 515c0 131 110 193 223 193s223 -62 223 -193c0 -53 -24 -111 -83 -138c62 -36 108 -94 108 -169c0 -149 -123 -216 -248 -217c-125 1 -248 68 -248 217c0 75 46 133 108 169c-59 27 -83 85 -83 138zM302 307c-53 0 -105 -33 -105 -94c0 -59 52 -94 105 -94
s105 35 105 94c0 61 -52 94 -105 94zM302 434c50 0 80 35 80 73c0 46 -38 72 -80 72s-80 -26 -80 -72c0 -38 30 -73 80 -73z" />
    <glyph glyph-name="eight.numr" horiz-adv-x="308" 
d="M154 706c52 0 104 -28 104 -88c0 -22 -14 -48 -36 -57c24 -10 45 -42 45 -72c0 -65 -56 -95 -113 -95s-113 30 -113 95c0 30 21 62 45 72c-22 9 -36 35 -36 57c0 60 52 88 104 88zM154 525c-18 0 -32 -14 -32 -29c0 -13 14 -29 32 -29s31 16 31 29c0 15 -13 29 -31 29z
M154 593c17 0 25 10 25 24c0 15 -9 24 -25 24s-25 -9 -25 -24c0 -9 8 -24 25 -24z" />
    <glyph glyph-name="eight.dnom" horiz-adv-x="308" 
d="M154 306c52 0 104 -28 104 -88c0 -22 -14 -48 -36 -57c24 -10 45 -42 45 -72c0 -65 -56 -95 -113 -95s-113 30 -113 95c0 30 21 62 45 72c-22 9 -36 35 -36 57c0 60 52 88 104 88zM154 125c-18 0 -32 -14 -32 -29c0 -13 14 -29 32 -29s31 16 31 29c0 15 -13 29 -31 29z
M154 193c17 0 25 10 25 24c0 15 -9 24 -25 24s-25 -9 -25 -24c0 -9 8 -24 25 -24z" />
    <glyph glyph-name="hyphen.case" horiz-adv-x="426" 
d="M63 326c0 12 8 20 20 20h260c12 0 20 -8 20 -20v-92c0 -12 -8 -20 -20 -20h-260c-12 0 -20 8 -20 20v92z" />
    <glyph glyph-name="less.case" horiz-adv-x="395" 
d="M350 368c0 -7 -4 -14 -11 -17l-136 -67l136 -66c6 -3 11 -10 11 -18v-106c0 -20 -12 -27 -30 -17l-265 150c-6 4 -10 11 -10 18v79c0 7 4 14 10 18l265 150c18 10 30 3 30 -17v-107z" />
    <glyph glyph-name="multiply.case" horiz-adv-x="497" 
d="M249 375l70 71c8 8 20 8 28 0l64 -64c8 -8 8 -20 0 -28l-71 -71l71 -70c8 -8 8 -20 0 -28l-64 -64c-8 -8 -20 -8 -28 0l-71 71l-70 -71c-8 -8 -20 -8 -28 0l-64 64c-8 8 -8 20 0 28l71 70l-71 71c-8 8 -8 20 0 28l64 64c8 8 20 8 28 0z" />
    <glyph glyph-name="nine.dnom" horiz-adv-x="298" 
d="M96 0c-21 0 -28 12 -18 30l46 79c-48 4 -83 47 -83 95c0 62 51 102 108 102c56 0 108 -40 108 -103c0 -14 -7 -37 -22 -63l-72 -130c-4 -6 -11 -10 -18 -10h-49zM149 180c11 0 23 9 23 24c0 18 -12 24 -23 24c-10 0 -23 -6 -23 -24c0 -14 12 -24 23 -24z" />
    <glyph glyph-name="nine.numr" horiz-adv-x="298" 
d="M96 400c-21 0 -28 12 -18 30l46 79c-48 4 -83 47 -83 95c0 62 51 102 108 102c56 0 108 -40 108 -103c0 -14 -7 -37 -22 -63l-72 -130c-4 -6 -11 -10 -18 -10h-49zM149 580c11 0 23 9 23 24c0 18 -12 24 -23 24c-10 0 -23 -6 -23 -24c0 -14 12 -24 23 -24z" />
    <glyph glyph-name="divide.case" horiz-adv-x="426" 
d="M139 114c0 41 33 74 74 74s74 -33 74 -74s-33 -74 -74 -74s-74 33 -74 74zM139 482c0 41 33 74 74 74s74 -33 74 -74s-33 -74 -74 -74s-74 33 -74 74zM363 338c0 12 -8 20 -20 20h-260c-12 0 -20 -8 -20 -20v-80c0 -12 8 -20 20 -20h260c12 0 20 8 20 20v80z" />
    <glyph glyph-name="nine.onum" horiz-adv-x="554" 
d="M151 -207c-20 0 -27 12 -17 30l133 235c-7 -1 -11 -1 -20 -1c-127 10 -202 91 -202 220c0 136 107 225 231 225s233 -87 233 -225c0 -31 -10 -75 -43 -139l-186 -335c-4 -6 -11 -10 -18 -10h-111zM278 188c46 0 89 34 89 89s-43 89 -89 89s-92 -33 -92 -89
c0 -52 44 -89 92 -89z" />
    <glyph glyph-name="bullet.case" horiz-adv-x="411" 
d="M205 160c-70 0 -124 54 -124 124c0 71 54 125 124 125c71 0 125 -54 125 -125c0 -70 -54 -124 -125 -124z" />
    <glyph glyph-name="brokenbar.case" horiz-adv-x="286" 
d="M185 780c12 0 20 -8 20 -20v-338c0 -12 -8 -20 -20 -20h-84c-12 0 -20 8 -20 20v338c0 12 8 20 20 20h84zM205 -82c0 -12 -8 -20 -20 -20h-84c-12 0 -20 8 -20 20v338c0 12 8 20 20 20h84c12 0 20 -8 20 -20v-338z" />
    <glyph glyph-name="bracketright.case" horiz-adv-x="296" 
d="M101 32v635h-63c-12 0 -20 8 -20 20v94c0 12 8 20 20 20h184c12 0 20 -8 20 -20v-863c0 -12 -8 -20 -20 -20h-184c-12 0 -20 8 -20 20v94c0 12 8 20 20 20h63z" />
    <glyph glyph-name="bracketleft.case" horiz-adv-x="296" 
d="M195 667v-635h63c12 0 20 -8 20 -20v-94c0 -12 -8 -20 -20 -20h-184c-12 0 -20 8 -20 20v863c0 12 8 20 20 20h184c12 0 20 -8 20 -20v-94c0 -12 -8 -20 -20 -20h-63z" />
    <glyph glyph-name="braceright.case" horiz-adv-x="393" 
d="M120 250c0 38 23 83 60 100c-37 17 -60 62 -60 100c0 64 35 118 35 179c0 35 -29 49 -58 49c-8 0 -17 -1 -24 -3c-14 -3 -25 1 -29 15l-21 76c-3 10 2 20 12 23c34 10 78 13 105 13c118 0 158 -83 158 -158c0 -67 -42 -128 -42 -191c0 -36 32 -45 50 -45h22
c12 0 20 -8 20 -20v-76c0 -12 -8 -20 -20 -20h-22c-18 0 -50 -9 -50 -45c0 -63 42 -124 42 -191c0 -75 -40 -158 -158 -158c-27 0 -71 3 -105 13c-10 3 -15 13 -12 23l21 76c4 14 15 18 29 15c7 -2 16 -3 24 -3c29 0 58 14 58 49c0 61 -35 115 -35 179z" />
    <glyph glyph-name="braceleft.case" horiz-adv-x="393" 
d="M273 250c0 -64 -35 -118 -35 -179c0 -35 29 -49 58 -49c8 0 17 1 24 3c14 3 25 -1 29 -15l21 -76c3 -10 -2 -20 -12 -23c-34 -10 -78 -13 -105 -13c-118 0 -158 83 -158 158c0 67 42 128 42 191c0 36 -32 45 -50 45h-22c-12 0 -20 8 -20 20v76c0 12 8 20 20 20h22
c18 0 50 9 50 45c0 63 -42 124 -42 191c0 75 40 158 158 158c27 0 71 -3 105 -13c10 -3 15 -13 12 -23l-21 -76c-4 -14 -15 -18 -29 -15c-7 2 -16 3 -24 3c-29 0 -58 -14 -58 -49c0 -61 35 -115 35 -179c0 -38 -23 -83 -60 -100c37 -17 60 -62 60 -100z" />
    <glyph glyph-name="bar.case" horiz-adv-x="286" 
d="M185 780c12 0 20 -8 20 -20v-842c0 -12 -8 -20 -20 -20h-84c-12 0 -20 8 -20 20v842c0 12 8 20 20 20h84z" />
    <glyph glyph-name="asciitilde.case" horiz-adv-x="628" 
d="M399 174c-90 0 -123 74 -175 74c-21 0 -41 -18 -56 -47c-5 -11 -16 -16 -28 -11l-78 34c-10 4 -15 14 -11 24c29 76 90 132 174 132c92 0 117 -73 174 -73c21 0 44 21 59 50c6 12 17 17 29 11l80 -35c10 -4 14 -14 11 -24c-28 -73 -94 -135 -179 -135z" />
    <glyph glyph-name="nine.tnum" horiz-adv-x="630" 
d="M188 0c-20 0 -27 12 -17 30l133 234c-7 -1 -11 -1 -20 -1c-127 10 -202 91 -202 220c0 136 107 225 231 225s233 -87 233 -225c0 -31 -10 -75 -43 -139l-186 -334c-4 -6 -11 -10 -18 -10h-111zM315 394c46 0 89 34 89 89s-43 89 -89 89s-92 -33 -92 -89
c0 -52 44 -89 92 -89z" />
    <glyph glyph-name="plusminus.case" horiz-adv-x="495" 
d="M430 70c0 -12 -8 -20 -20 -20h-327c-12 0 -20 8 -20 20v87c0 12 8 20 20 20h327c12 0 20 -8 20 -20v-87zM312 431h100c12 0 20 -8 20 -20v-89c0 -12 -8 -20 -20 -20h-100v-46c0 -12 -8 -20 -20 -20h-89c-12 0 -20 8 -20 20v46h-100c-12 0 -20 8 -20 20v89
c0 12 8 20 20 20h100v100c0 12 8 20 20 20h89c12 0 20 -8 20 -20v-100z" />
    <glyph glyph-name="one.dnom" horiz-adv-x="254" 
d="M42 206c-6 9 -4 20 4 27l75 62c4 3 9 5 13 5h50c12 0 20 -8 20 -20v-260c0 -12 -8 -20 -20 -20h-47c-12 0 -20 8 -20 20v171l-30 -18c-10 -5 -20 -3 -27 6z" />
    <glyph glyph-name="plus.case" horiz-adv-x="495" 
d="M312 346h100c12 0 20 -8 20 -20v-89c0 -12 -8 -20 -20 -20h-100v-100c0 -12 -8 -20 -20 -20h-89c-12 0 -20 8 -20 20v100h-100c-12 0 -20 8 -20 20v89c0 12 8 20 20 20h100v100c0 12 8 20 20 20h89c12 0 20 -8 20 -20v-100z" />
    <glyph glyph-name="one.numr" horiz-adv-x="254" 
d="M42 606c-6 9 -4 20 4 27l75 62c4 3 9 5 13 5h50c12 0 20 -8 20 -20v-260c0 -12 -8 -20 -20 -20h-47c-12 0 -20 8 -20 20v171l-30 -18c-10 -5 -20 -3 -27 6z" />
    <glyph glyph-name="one.onum" horiz-adv-x="508" 
d="M37 337c-6 9 -4 20 4 27l152 131c4 3 9 5 13 5h118c12 0 20 -8 20 -20v-352h117c12 0 20 -8 20 -20v-88c0 -12 -8 -20 -20 -20h-396c-12 0 -20 8 -20 20v88c0 12 8 20 20 20h134v202l-94 -56c-10 -6 -20 -4 -27 5z" />
    <glyph glyph-name="one.tnum" horiz-adv-x="632" 
d="M69 524c-6 9 -4 20 4 27l170 144c4 3 9 5 13 5h119c12 0 20 -8 20 -20v-548h122c12 0 20 -8 20 -20v-92c0 -12 -8 -20 -20 -20h-399c-12 0 -20 8 -20 20v92c0 12 8 20 20 20h131v393l-112 -66c-10 -5 -20 -3 -27 6z" />
    <glyph glyph-name="periodcentered.case" horiz-adv-x="318" 
d="M237 281c0 -43 -35 -78 -78 -78s-78 35 -78 78s35 78 78 78s78 -35 78 -78z" />
    <glyph glyph-name="parenleft.case" horiz-adv-x="367" 
d="M334 -19c9 -10 8 -22 -2 -30l-71 -59c-8 -7 -19 -7 -27 1c-119 127 -188 294 -189 462c1 168 70 335 189 462c8 8 19 8 27 1l70 -60c10 -8 10 -20 1 -29c-98 -110 -144 -240 -144 -374s47 -265 146 -374z" />
    <glyph glyph-name="zero.dnom" horiz-adv-x="326" 
d="M163 -6c-71 0 -122 59 -122 156s51 156 122 156c72 0 122 -59 122 -156s-50 -156 -122 -156zM163 71c25 0 35 37 35 79c0 45 -10 79 -35 79s-36 -34 -36 -79c0 -42 11 -79 36 -79z" />
    <glyph glyph-name="zero.numr" horiz-adv-x="326" 
d="M163 394c-71 0 -122 59 -122 156s51 156 122 156c72 0 122 -59 122 -156s-50 -156 -122 -156zM163 471c25 0 35 37 35 79c0 45 -10 79 -35 79s-36 -34 -36 -79c0 -42 11 -79 36 -79z" />
    <glyph glyph-name="zero.onum" horiz-adv-x="519" 
d="M259 -9c-129 0 -214 98 -214 259s85 259 214 259c131 0 215 -98 215 -259s-84 -259 -215 -259zM259 378c-46 0 -74 -49 -74 -128s28 -129 74 -129c48 0 75 50 75 129s-27 128 -75 128z" />
    <glyph glyph-name="zero.tnum" horiz-adv-x="638" 
d="M320 709c159 0 268 -132 268 -359s-109 -359 -268 -359s-268 132 -268 359s109 359 268 359zM320 124c94 0 122 123 122 226s-28 226 -122 226s-122 -123 -122 -226s28 -226 122 -226z" />
    <glyph glyph-name="parenright.case" horiz-adv-x="367" 
d="M133 -107c-8 -8 -19 -8 -27 -1l-71 59c-10 8 -11 20 -2 30c99 109 146 240 146 374s-46 264 -144 374c-9 9 -9 21 1 29l70 60c8 7 19 7 27 -1c119 -127 188 -294 189 -462c-1 -168 -70 -335 -189 -462z" />
    <glyph glyph-name="five.dnom" horiz-adv-x="312" 
d="M161 223v-26h15c52 0 95 -39 95 -99c0 -68 -60 -104 -119 -104c-30 0 -70 10 -98 31c-8 6 -9 16 -2 25l26 34c9 10 20 11 31 5c16 -8 33 -11 44 -11c17 0 29 12 29 23c0 18 -16 24 -23 24h-69c-12 0 -20 8 -20 20v135c0 12 8 20 20 20h142c12 0 20 -8 20 -20v-37
c0 -12 -8 -20 -20 -20h-71z" />
    <glyph glyph-name="a.alt1" horiz-adv-x="504" 
d="M130 267c-12 -5 -23 -1 -28 12l-29 72c-4 10 0 20 9 24c49 24 116 34 168 34c98 0 191 -46 191 -168v-221c0 -12 -8 -20 -20 -20h-107c-10 0 -17 7 -17 17v17c-27 -28 -73 -43 -107 -43c-95 0 -145 48 -145 138c0 66 50 122 177 122c11 0 41 -2 71 -17v13
c0 29 -29 41 -59 41c-34 0 -76 -11 -104 -21zM191 139c0 -8 7 -26 32 -26c29 0 61 18 72 26v15c-16 7 -34 12 -57 12c-27 0 -47 -10 -47 -27z" />
    <glyph glyph-name="agrave.alt1" horiz-adv-x="489" 
d="M222 460c-7 0 -14 4 -18 10l-63 113c-10 18 -3 30 17 30h84c8 0 16 -5 19 -13l39 -113c5 -16 -2 -27 -19 -27h-59zM130 267c-12 -5 -23 -1 -28 12l-29 72c-4 10 0 20 9 24c49 24 116 34 168 34c98 0 191 -46 191 -168v-221c0 -12 -8 -20 -20 -20h-107c-10 0 -17 7 -17 17
v17c-27 -28 -73 -43 -107 -43c-95 0 -145 48 -145 138c0 66 50 122 177 122c11 0 41 -2 71 -17v13c0 29 -29 41 -59 41c-34 0 -76 -11 -104 -21zM191 139c0 -8 7 -26 32 -26c29 0 61 18 72 26v15c-16 7 -34 12 -57 12c-27 0 -47 -10 -47 -27z" />
    <glyph glyph-name="aacute.alt1" horiz-adv-x="489" 
d="M350 613c20 0 27 -12 17 -30l-63 -113c-4 -6 -11 -10 -18 -10h-59c-17 0 -24 11 -19 27l39 113c3 8 11 13 19 13h84zM130 267c-12 -5 -23 -1 -28 12l-29 72c-4 10 0 20 9 24c49 24 116 34 168 34c98 0 191 -46 191 -168v-221c0 -12 -8 -20 -20 -20h-107
c-10 0 -17 7 -17 17v17c-27 -28 -73 -43 -107 -43c-95 0 -145 48 -145 138c0 66 50 122 177 122c11 0 41 -2 71 -17v13c0 29 -29 41 -59 41c-34 0 -76 -11 -104 -21zM191 139c0 -8 7 -26 32 -26c29 0 61 18 72 26v15c-16 7 -34 12 -57 12c-27 0 -47 -10 -47 -27z" />
    <glyph glyph-name="acircumflex.alt1" horiz-adv-x="489" 
d="M306 616c6 0 12 -3 16 -8l75 -106c13 -19 6 -32 -17 -32h-80c-7 0 -14 4 -18 10l-32 61l-32 -61c-4 -6 -11 -10 -18 -10h-80c-23 0 -30 13 -17 32l75 106c4 5 10 8 16 8h112zM130 267c-12 -5 -23 -1 -28 12l-29 72c-4 10 0 20 9 24c49 24 116 34 168 34
c98 0 191 -46 191 -168v-221c0 -12 -8 -20 -20 -20h-107c-10 0 -17 7 -17 17v17c-27 -28 -73 -43 -107 -43c-95 0 -145 48 -145 138c0 66 50 122 177 122c11 0 41 -2 71 -17v13c0 29 -29 41 -59 41c-34 0 -76 -11 -104 -21zM191 139c0 -8 7 -26 32 -26c29 0 61 18 72 26v15
c-16 7 -34 12 -57 12c-27 0 -47 -10 -47 -27z" />
    <glyph glyph-name="atilde.alt1" horiz-adv-x="489" 
d="M289 459c-39 0 -67 38 -90 38c-15 0 -24 -7 -30 -15c-7 -10 -16 -16 -29 -13l-48 15c-7 2 -12 9 -11 16c7 30 39 95 119 95c50 -2 63 -38 94 -38c13 0 23 8 30 16c9 11 21 17 38 11l43 -18c7 -3 11 -10 9 -17c-11 -28 -47 -90 -125 -90zM130 267c-12 -5 -23 -1 -28 12
l-29 72c-4 10 0 20 9 24c49 24 116 34 168 34c98 0 191 -46 191 -168v-221c0 -12 -8 -20 -20 -20h-107c-10 0 -17 7 -17 17v17c-27 -28 -73 -43 -107 -43c-95 0 -145 48 -145 138c0 66 50 122 177 122c11 0 41 -2 71 -17v13c0 29 -29 41 -59 41c-34 0 -76 -11 -104 -21z
M191 139c0 -8 7 -26 32 -26c29 0 61 18 72 26v15c-16 7 -34 12 -57 12c-27 0 -47 -10 -47 -27z" />
    <glyph glyph-name="adieresis.alt1" horiz-adv-x="489" 
d="M67 538c0 42 36 78 78 78s78 -36 78 -78s-36 -78 -78 -78s-78 36 -78 78zM282 538c0 42 36 78 78 78s78 -36 78 -78s-36 -78 -78 -78s-78 36 -78 78zM130 267c-12 -5 -23 -1 -28 12l-29 72c-4 10 0 20 9 24c49 24 116 34 168 34c98 0 191 -46 191 -168v-221
c0 -12 -8 -20 -20 -20h-107c-10 0 -17 7 -17 17v17c-27 -28 -73 -43 -107 -43c-95 0 -145 48 -145 138c0 66 50 122 177 122c11 0 41 -2 71 -17v13c0 29 -29 41 -59 41c-34 0 -76 -11 -104 -21zM191 139c0 -8 7 -26 32 -26c29 0 61 18 72 26v15c-16 7 -34 12 -57 12
c-27 0 -47 -10 -47 -27z" />
    <glyph glyph-name="aring.alt1" horiz-adv-x="489" 
d="M152 559c0 56 43 99 99 99s99 -43 99 -99s-43 -99 -99 -99s-99 43 -99 99zM214 559c0 -20 17 -37 37 -37s36 17 36 37s-16 36 -36 36s-37 -16 -37 -36zM130 267c-12 -5 -23 -1 -28 12l-29 72c-4 10 0 20 9 24c49 24 116 34 168 34c98 0 191 -46 191 -168v-221
c0 -12 -8 -20 -20 -20h-107c-10 0 -17 7 -17 17v17c-27 -28 -73 -43 -107 -43c-95 0 -145 48 -145 138c0 66 50 122 177 122c11 0 41 -2 71 -17v13c0 29 -29 41 -59 41c-34 0 -76 -11 -104 -21zM191 139c0 -8 7 -26 32 -26c29 0 61 18 72 26v15c-16 7 -34 12 -57 12
c-27 0 -47 -10 -47 -27z" />
    <glyph glyph-name="amacron.alt1" horiz-adv-x="489" 
d="M142 470c-12 0 -20 8 -20 20v71c0 12 8 20 20 20h211c12 0 20 -8 20 -20v-71c0 -12 -8 -20 -20 -20h-211zM130 267c-12 -5 -23 -1 -28 12l-29 72c-4 10 0 20 9 24c49 24 116 34 168 34c98 0 191 -46 191 -168v-221c0 -12 -8 -20 -20 -20h-107c-10 0 -17 7 -17 17v17
c-27 -28 -73 -43 -107 -43c-95 0 -145 48 -145 138c0 66 50 122 177 122c11 0 41 -2 71 -17v13c0 29 -29 41 -59 41c-34 0 -76 -11 -104 -21zM191 139c0 -8 7 -26 32 -26c29 0 61 18 72 26v15c-16 7 -34 12 -57 12c-27 0 -47 -10 -47 -27z" />
    <glyph glyph-name="abreve.alt1" horiz-adv-x="489" 
d="M130 267c-12 -5 -23 -1 -28 12l-29 72c-4 10 0 20 9 24c49 24 116 34 168 34c98 0 191 -46 191 -168v-221c0 -12 -8 -20 -20 -20h-107c-10 0 -17 7 -17 17v17c-27 -28 -73 -43 -107 -43c-95 0 -145 48 -145 138c0 66 50 122 177 122c11 0 41 -2 71 -17v13
c0 29 -29 41 -59 41c-34 0 -76 -11 -104 -21zM191 139c0 -8 7 -26 32 -26c29 0 61 18 72 26v15c-16 7 -34 12 -57 12c-27 0 -47 -10 -47 -27zM304 593c3 11 10 19 22 19l63 1c12 0 20 -8 19 -20c-9 -86 -77 -134 -149 -134s-141 48 -150 134c-1 12 7 20 19 20l62 -1
c12 0 19 -8 22 -19c6 -28 25 -40 47 -40s39 15 45 40z" />
    <glyph glyph-name="aogonek.alt1" horiz-adv-x="492" 
d="M130 267c-12 -5 -23 -1 -28 12l-29 72c-4 10 0 20 9 24c49 24 116 34 168 34c98 0 191 -46 191 -168v-225c0 -9 -6 -16 -14 -20c-42 -17 -58 -50 -58 -72c0 -20 17 -30 37 -30c11 0 21 0 32 3c18 5 29 -1 29 -20v-63c0 -7 -4 -14 -11 -17c-25 -10 -54 -14 -73 -14
c-72 0 -125 48 -125 125c0 24 11 62 39 92v34c-27 -28 -73 -43 -107 -43c-95 0 -145 48 -145 138c0 66 50 122 177 122c6 0 46 -4 71 -17v13c0 29 -29 41 -59 41c-34 0 -76 -11 -104 -21zM191 139c0 -8 7 -26 32 -26c29 0 61 18 72 26v15c-16 7 -34 12 -57 12
c-27 0 -47 -10 -47 -27z" />
    <glyph glyph-name="aringacute.alt1" horiz-adv-x="489" 
d="M130 273c-12 -5 -23 -1 -28 12l-29 72c-4 10 0 20 9 24c49 24 116 34 168 34c98 0 191 -46 191 -168v-227c0 -12 -8 -20 -20 -20h-107c-10 0 -17 7 -17 17v17c-27 -28 -73 -43 -107 -43c-95 0 -145 48 -145 138c0 66 50 129 177 129c11 0 41 -2 71 -18v13
c0 29 -29 41 -59 41c-34 0 -76 -11 -104 -21zM191 139c0 -8 7 -26 32 -26c29 0 61 18 72 26v15c-16 7 -34 12 -57 12c-27 0 -47 -10 -47 -27zM163 549c0 56 43 99 99 99s99 -43 99 -99s-43 -99 -99 -99s-99 43 -99 99zM225 549c0 -20 17 -37 37 -37s36 17 36 37
s-16 36 -36 36s-37 -16 -37 -36zM364 836c20 0 27 -12 17 -30l-63 -113c-4 -6 -11 -10 -18 -10h-59c-17 0 -24 11 -19 27l39 113c3 8 11 13 19 13h84z" />
    <glyph glyph-name="logicalnot" unicode="&#xac;" horiz-adv-x="468" 
d="M65 149c-12 0 -20 8 -20 20v118c0 12 8 20 20 20h320c12 0 20 -8 20 -20v-221c0 -12 -8 -20 -20 -20h-148c-12 0 -20 8 -20 20v83h-152z" />
    <glyph glyph-name="h" unicode="h" horiz-adv-x="538" 
d="M83 0c-12 0 -20 8 -20 20v660c0 12 8 20 20 20h102c12 0 20 -8 20 -20v-329c26 40 73 58 112 58c88 0 162 -43 162 -177v-212c0 -12 -8 -20 -20 -20h-102c-12 0 -20 8 -20 20v206c0 39 -22 66 -62 66c-48 0 -70 -40 -70 -65v-207c0 -12 -8 -20 -20 -20h-102z" />
    <glyph glyph-name="greater" unicode="&#x3e;" horiz-adv-x="395" 
d="M192 202l-136 67c-7 3 -11 10 -11 17v107c0 20 12 27 30 17l265 -150c6 -4 10 -11 10 -18v-79c0 -7 -4 -14 -10 -18l-265 -150c-18 -10 -30 -3 -30 17v106c0 8 5 15 11 18z" />
    <glyph glyph-name="nine" unicode="9" horiz-adv-x="554" 
d="M151 0c-20 0 -27 12 -17 30l133 235c-7 -1 -11 -1 -20 -1c-127 10 -202 91 -202 220c0 136 107 225 231 225s233 -87 233 -225c0 -31 -10 -75 -43 -139l-186 -335c-4 -6 -11 -10 -18 -10h-111zM278 395c46 0 89 34 89 89s-43 89 -89 89s-92 -33 -92 -89
c0 -52 44 -89 92 -89z" />
    <glyph glyph-name="braceright" unicode="}" horiz-adv-x="393" 
d="M120 170c0 38 23 83 60 100c-37 17 -60 62 -60 100c0 64 35 118 35 179c0 35 -29 49 -58 49c-8 0 -17 -1 -24 -3c-14 -3 -25 1 -29 15l-21 76c-3 10 2 20 12 23c34 10 78 13 105 13c118 0 158 -83 158 -158c0 -67 -42 -128 -42 -191c0 -36 32 -45 50 -45h22
c12 0 20 -8 20 -20v-76c0 -12 -8 -20 -20 -20h-22c-18 0 -50 -9 -50 -45c0 -63 42 -124 42 -191c0 -75 -40 -158 -158 -158c-27 0 -71 3 -105 13c-10 3 -15 13 -12 23l21 76c4 14 15 18 29 15c7 -2 16 -3 24 -3c29 0 58 14 58 49c0 61 -35 115 -35 179z" />
    <glyph glyph-name="quotesinglbase" unicode="&#x201a;" horiz-adv-x="283" 
d="M202 100c16 0 24 -10 20 -26l-57 -194c-2 -8 -10 -14 -19 -14h-78c-14 0 -22 9 -19 23l29 194c2 10 10 17 20 17h104z" />
    <glyph glyph-name="guilsinglright" unicode="&#x203a;" horiz-adv-x="345" 
d="M294 210c4 -6 4 -14 0 -20l-95 -167c-4 -6 -11 -10 -18 -10h-102c-20 0 -27 12 -17 30l90 157l-90 157c-10 18 -3 30 17 30h102c7 0 14 -4 18 -10z" />
    <glyph glyph-name="guillemotright" unicode="&#xbb;" horiz-adv-x="583" 
d="M532 210c4 -6 4 -14 0 -20l-95 -167c-4 -6 -11 -10 -18 -10h-102c-20 0 -27 12 -17 30l90 157l-90 157c-10 18 -3 30 17 30h102c7 0 14 -4 18 -10zM294 210c4 -6 4 -14 0 -20l-95 -167c-4 -6 -11 -10 -18 -10h-102c-20 0 -27 12 -17 30l90 157l-90 157
c-10 18 -3 30 17 30h102c7 0 14 -4 18 -10z" />
    <glyph glyph-name="S" unicode="S" horiz-adv-x="599" 
d="M299 -9c-76 0 -159 25 -244 97c-9 8 -9 19 -2 28l59 73c9 11 21 11 31 1c48 -42 111 -63 157 -63c55 0 104 26 104 73c0 102 -317 91 -317 308c0 133 107 201 224 201c80 0 140 -13 222 -70c10 -6 11 -17 5 -27l-55 -77c-7 -10 -19 -12 -29 -5c-37 24 -92 47 -140 47
s-82 -25 -83 -68c-1 -97 323 -95 323 -308c0 -127 -123 -210 -255 -210z" />
    <glyph glyph-name="semicolon" unicode=";" horiz-adv-x="258" 
d="M204 333c0 -43 -35 -78 -78 -78s-78 35 -78 78s35 78 78 78s78 -35 78 -78zM175 100c16 0 24 -10 20 -26l-57 -193c-2 -8 -10 -14 -19 -14h-74c-14 0 -22 9 -19 23l29 193c2 10 10 17 20 17h100z" />
    <glyph glyph-name="quotedblbase" unicode="&#x201e;" horiz-adv-x="506" 
d="M202 100c16 0 24 -10 20 -26l-57 -194c-2 -8 -10 -14 -19 -14h-78c-14 0 -22 9 -19 23l29 194c2 10 10 17 20 17h104zM425 100c16 0 24 -10 20 -26l-57 -194c-2 -8 -10 -14 -19 -14h-78c-14 0 -22 9 -19 23l29 194c2 10 10 17 20 17h104z" />
    <glyph glyph-name="multiply" unicode="&#xd7;" horiz-adv-x="497" 
d="M249 287l70 74c8 9 20 9 29 0l63 -63c8 -8 8 -20 -1 -28l-74 -71l74 -70c9 -8 9 -20 0 -29l-63 -63c-8 -8 -20 -8 -28 1l-71 74l-70 -74c-8 -9 -20 -9 -29 0l-62 62c-9 9 -9 21 0 29l74 70l-74 71c-9 8 -9 20 -1 28l64 64c8 8 20 8 28 -1z" />
    <glyph glyph-name="oslashacute" unicode="&#x1ff;" horiz-adv-x="494" 
d="M352 613c20 0 27 -12 17 -30l-63 -113c-4 -6 -11 -10 -18 -10h-59c-17 0 -24 11 -19 27l39 113c3 8 11 13 19 13h84zM34 -12c-8 8 -8 20 0 28l50 50c-29 35 -46 81 -46 134c0 124 95 209 210 209c50 0 97 -17 133 -46l48 48c8 8 20 8 28 0l1 -1c8 -8 8 -20 0 -28l-47 -47
c29 -36 47 -82 47 -135c0 -124 -95 -209 -210 -209c-51 0 -99 16 -135 46l-50 -50c-8 -8 -20 -8 -28 0zM248 118c38 0 78 28 78 82c0 16 -3 29 -9 41l-111 -111c12 -8 27 -12 42 -12zM170 200c0 -16 3 -29 8 -40l111 111c-13 7 -27 11 -41 11c-38 0 -78 -28 -78 -82z" />
    <glyph glyph-name="kgreenlandic" unicode="&#x138;" horiz-adv-x="542" 
d="M331 0c-5 0 -11 3 -15 7l-111 136v-123c0 -12 -8 -20 -20 -20h-102c-12 0 -20 8 -20 20v360c0 12 8 20 20 20h102c12 0 20 -8 20 -20v-123l111 136c4 4 10 7 15 7h136c29 0 34 -14 14 -34l-165 -166l165 -166c20 -20 15 -34 -14 -34h-136z" />
    <glyph glyph-name="zero.tonum" horiz-adv-x="627" 
d="M321 -9c-129 0 -214 98 -214 259s85 259 214 259c131 0 215 -98 215 -259s-84 -259 -215 -259zM321 378c-46 0 -74 -49 -74 -128s28 -129 74 -129c48 0 75 50 75 129s-27 128 -75 128z" />
    <glyph glyph-name="one.tonum" horiz-adv-x="630" 
d="M88 337c-6 9 -4 20 4 27l152 131c4 3 9 5 13 5h118c12 0 20 -8 20 -20v-352h117c12 0 20 -8 20 -20v-88c0 -12 -8 -20 -20 -20h-396c-12 0 -20 8 -20 20v88c0 12 8 20 20 20h134v202l-94 -56c-10 -6 -20 -4 -27 5z" />
    <glyph glyph-name="two.tonum" horiz-adv-x="626" 
d="M220 323c-7 -11 -18 -14 -29 -8l-76 45c-10 5 -13 16 -7 25c35 60 102 124 200 124c145 0 204 -90 204 -177c0 -45 -12 -113 -90 -163l-64 -41h140c12 0 20 -8 20 -20v-88c0 -12 -8 -20 -20 -20h-359c-12 0 -20 8 -20 20v79c0 6 3 12 8 16l209 158c22 16 35 35 35 58
c0 27 -18 50 -60 50c-37 0 -69 -25 -91 -58z" />
    <glyph glyph-name="three.tonum" horiz-adv-x="632" 
d="M314 106h-91c-12 0 -20 8 -20 20v86c0 12 8 20 20 20h92c48 0 79 42 79 78c0 48 -43 68 -86 68c-30 0 -68 -13 -94 -43c-9 -10 -21 -12 -32 -3l-62 54c-8 7 -10 18 -3 27c51 62 121 95 195 95c109 0 222 -60 222 -191c0 -50 -27 -112 -85 -140c68 -33 112 -95 112 -169
c0 -149 -128 -217 -251 -218c-80 1 -147 26 -211 95c-7 8 -6 19 2 27l64 60c9 9 21 8 30 -2c34 -34 78 -50 115 -50c52 0 107 32 107 93c0 62 -51 93 -103 93z" />
    <glyph glyph-name="four.tonum" horiz-adv-x="635" 
d="M349 177c0 12 8 20 20 20h102c12 0 20 -8 20 -20v-125h56c12 0 20 -8 20 -20v-93c0 -12 -8 -20 -20 -20h-56v-106c0 -12 -8 -20 -20 -20h-102c-12 0 -20 8 -20 20v106h-271c-12 0 -20 8 -20 20v89c0 3 1 7 2 9l232 445c4 7 11 11 18 11h113c20 0 27 -12 17 -29l-219 -412
h128v125z" />
    <glyph glyph-name="five.tonum" horiz-adv-x="630" 
d="M282 359v-129h34c123 0 241 -69 241 -218c0 -136 -114 -229 -244 -229c-75 0 -156 29 -209 74c-8 7 -9 18 -2 26l57 75c8 10 19 11 30 4c35 -26 77 -43 123 -43c69 0 101 54 101 90c0 69 -69 89 -99 89h-156c-12 0 -20 8 -20 20v354c0 12 8 20 20 20h338
c12 0 20 -8 20 -20v-93c0 -12 -8 -20 -20 -20h-214z" />
    <glyph glyph-name="six.tonum" horiz-adv-x="630" 
d="M442 700c20 0 27 -12 17 -30l-133 -235c7 1 11 1 20 1c127 -10 202 -91 202 -220c0 -136 -107 -225 -231 -225s-233 87 -233 225c0 31 10 75 43 139l186 335c4 6 11 10 18 10h111zM315 305c-46 0 -89 -34 -89 -89s43 -89 89 -89s92 33 92 89c0 52 -44 89 -92 89z" />
    <glyph glyph-name="seven.tonum" horiz-adv-x="627" 
d="M514 492c12 0 20 -8 20 -20v-106c0 -2 -1 -6 -2 -8l-261 -555c-3 -6 -10 -11 -18 -11h-111c-18 0 -26 11 -18 28l252 537h-256c-12 0 -20 8 -20 20v95c0 12 8 20 20 20h394z" />
    <glyph glyph-name="eight.tonum" horiz-adv-x="634" 
d="M94 515c0 131 110 193 223 193s223 -62 223 -193c0 -53 -24 -111 -83 -138c62 -36 108 -94 108 -169c0 -149 -123 -216 -248 -217c-125 1 -248 68 -248 217c0 75 46 133 108 169c-59 27 -83 85 -83 138zM317 307c-53 0 -105 -33 -105 -94c0 -59 52 -94 105 -94
s105 35 105 94c0 61 -52 94 -105 94zM317 434c50 0 80 35 80 73c0 46 -38 72 -80 72s-80 -26 -80 -72c0 -38 30 -73 80 -73z" />
    <glyph glyph-name="nine.tonum" horiz-adv-x="630" 
d="M188 -207c-20 0 -27 12 -17 30l133 235c-7 -1 -11 -1 -20 -1c-127 10 -202 91 -202 220c0 136 107 225 231 225s233 -87 233 -225c0 -31 -10 -75 -43 -139l-186 -335c-4 -6 -11 -10 -18 -10h-111zM315 188c46 0 89 34 89 89s-43 89 -89 89s-92 -33 -92 -89
c0 -52 44 -89 92 -89z" />
    <glyph glyph-name="OE" unicode="&#x152;" horiz-adv-x="1104" 
d="M756 280v-140h283c12 0 20 -8 20 -20v-100c0 -12 -8 -20 -20 -20h-415c-12 0 -20 8 -20 20v47c-47 -49 -129 -76 -206 -76c-198 0 -353 158 -353 359s155 359 353 359c74 0 158 -29 206 -76v47c0 12 8 20 20 20h415c12 0 20 -8 20 -20v-100c0 -12 -8 -20 -20 -20h-283
v-140h238c12 0 20 -8 20 -20v-100c0 -12 -8 -20 -20 -20h-238zM403 133c116 0 210 90 210 217s-94 217 -210 217c-117 0 -206 -90 -206 -217s89 -217 206 -217z" />
    <glyph glyph-name="ellipsis" unicode="&#x2026;" horiz-adv-x="767" 
d="M201 69c0 -43 -35 -78 -78 -78s-78 35 -78 78s35 78 78 78s78 -35 78 -78zM457 69c0 -43 -35 -78 -78 -78s-78 35 -78 78s35 78 78 78s78 -35 78 -78zM713 69c0 -43 -35 -78 -78 -78s-78 35 -78 78s35 78 78 78s78 -35 78 -78z" />
    <glyph glyph-name="Scaron" unicode="&#x160;" horiz-adv-x="599" 
d="M446 906c24 0 30 -13 17 -32l-75 -106c-4 -5 -10 -8 -16 -8h-112c-6 0 -12 3 -16 8l-75 106c-13 19 -7 32 17 32h80c7 0 14 -4 18 -11l32 -59l32 59c4 7 11 11 18 11h80zM299 -9c-76 0 -159 25 -244 97c-9 8 -9 19 -2 28l59 73c9 11 21 11 31 1c48 -42 111 -63 157 -63
c55 0 104 26 104 73c0 102 -317 91 -317 308c0 133 107 201 224 201c80 0 140 -13 222 -70c10 -6 11 -17 5 -27l-55 -77c-7 -10 -19 -12 -29 -5c-37 24 -92 47 -140 47s-82 -25 -83 -68c-1 -97 323 -95 323 -308c0 -127 -123 -210 -255 -210z" />
    <glyph glyph-name="Zcaron" unicode="&#x17d;" horiz-adv-x="549" 
d="M37 134c0 3 1 8 4 11l288 415h-273c-12 0 -20 8 -20 20v100c0 12 8 20 20 20h437c12 0 20 -8 20 -20v-113c0 -3 -1 -8 -4 -11l-289 -416h273c12 0 20 -8 20 -20v-100c0 -12 -8 -20 -20 -20h-436c-12 0 -20 8 -20 20v114zM404 906c24 0 30 -13 17 -32l-75 -106
c-4 -5 -10 -8 -16 -8h-112c-6 0 -12 3 -16 8l-75 106c-13 19 -7 32 17 32h80c7 0 14 -4 18 -10l32 -60l32 60c4 6 11 10 18 10h80z" />
    <glyph glyph-name="scaron" unicode="&#x161;" horiz-adv-x="402" 
d="M117 136c-10 7 -22 5 -28 -6l-42 -64c-7 -9 -5 -20 5 -27c57 -35 107 -49 150 -48c86 2 162 52 160 135c-1 73 -67 106 -136 128c-31 10 -30 19 -30 24c0 4 3 13 15 13c16 0 47 -6 79 -22c12 -6 23 -3 29 8l36 69c5 9 2 20 -8 25c-52 29 -104 39 -148 38
c-80 -1 -144 -48 -142 -129c2 -121 168 -114 166 -155c0 -7 -9 -13 -22 -13c-30 -1 -57 8 -84 24zM273 460h-112c-6 0 -12 3 -16 8l-75 106c-13 19 -6 32 17 32h80c7 0 14 -4 18 -10l32 -61l32 61c4 6 11 10 18 10h80c23 0 30 -13 17 -32l-75 -106c-4 -5 -10 -8 -16 -8z" />
    <glyph glyph-name="zcaron" unicode="&#x17e;" horiz-adv-x="385" 
d="M174 277h-116c-12 0 -20 8 -20 20v83c0 12 8 20 20 20h269c12 0 20 -8 20 -20v-87c0 -4 -2 -9 -5 -13l-131 -157h116c12 0 20 -8 20 -20v-83c0 -12 -8 -20 -20 -20h-269c-12 0 -20 8 -20 20v87c0 4 2 9 5 13zM322 606c24 0 30 -13 17 -32l-75 -106c-4 -5 -10 -8 -16 -8
h-112c-6 0 -12 3 -16 8l-75 106c-13 19 -7 32 17 32h80c7 0 14 -4 18 -10l32 -60l32 60c4 6 11 10 18 10h80z" />
    <glyph glyph-name="Ydieresis" unicode="&#x178;" horiz-adv-x="700" 
d="M183 700c7 0 14 -4 18 -10l149 -258l149 258c4 6 11 10 18 10h132c22 0 29 -12 17 -31l-240 -375v-274c0 -12 -8 -20 -20 -20h-112c-12 0 -20 8 -20 20v274l-240 375c-12 19 -5 31 17 31h132zM164 838c0 42 36 78 78 78s78 -36 78 -78s-36 -78 -78 -78s-78 36 -78 78z
M379 838c0 42 36 78 78 78s78 -36 78 -78s-36 -78 -78 -78s-78 36 -78 78z" />
    <glyph glyph-name="oe" unicode="&#x153;" horiz-adv-x="755" 
d="M599 126c10 6 22 4 28 -6l41 -61c6 -8 5 -19 -3 -25c-39 -30 -87 -43 -142 -43c-54 0 -112 28 -139 68c-31 -42 -93 -68 -145 -68c-121 0 -203 85 -203 209s86 209 201 209c67 0 120 -32 147 -64c30 44 88 64 142 64c118 0 193 -94 193 -209c0 -5 0 -10 -1 -15
c-1 -8 -8 -14 -17 -14h-248c3 -39 42 -61 85 -61c21 0 42 7 61 16zM246 121c38 0 77 31 77 79c0 51 -39 79 -77 79s-77 -28 -77 -79s39 -79 77 -79zM527 290c-25 0 -59 -14 -71 -46h131c-5 28 -29 46 -60 46z" />
    <glyph glyph-name="yen" unicode="&#xa5;" horiz-adv-x="700" 
d="M183 700c7 0 14 -4 18 -10l149 -258l149 258c4 6 11 10 18 10h132c22 0 29 -12 17 -31l-215 -335h90c12 0 20 -8 20 -20v-49c0 -12 -8 -20 -20 -20h-115v-56h115c12 0 20 -8 20 -20v-48c0 -12 -8 -20 -20 -20h-115v-81c0 -12 -8 -20 -20 -20h-112c-12 0 -20 8 -20 20v81
h-115c-12 0 -20 8 -20 20v48c0 12 8 20 20 20h115v56h-115c-12 0 -20 8 -20 20v49c0 12 8 20 20 20h89l-214 335c-12 19 -5 31 17 31h132z" />
    <glyph glyph-name="AE" unicode="&#xc6;" horiz-adv-x="948" 
d="M48 0c-18 0 -26 11 -19 27l266 660c3 8 10 13 19 13h569c12 0 20 -8 20 -20v-100c0 -12 -8 -20 -20 -20h-283v-140h238c12 0 20 -8 20 -20v-100c0 -12 -8 -20 -20 -20h-238v-140h283c12 0 20 -8 20 -20v-100c0 -12 -8 -20 -20 -20h-415c-12 0 -20 8 -20 20v140h-205
l-56 -147c-3 -8 -11 -13 -19 -13h-120zM395 560l-99 -260h152v260h-53z" />
    <glyph glyph-name="Agrave" unicode="&#xc0;" horiz-adv-x="736" 
d="M568 0c-9 0 -16 5 -19 13l-57 147h-249l-56 -147c-3 -8 -11 -13 -19 -13h-120c-18 0 -26 11 -19 27l266 660c3 8 10 13 19 13h108c9 0 16 -5 19 -13l266 -660c7 -16 -1 -27 -19 -27h-120zM368 486l-72 -186h143zM327 760c-7 0 -14 4 -18 10l-63 113c-10 18 -3 30 17 30
h84c8 0 16 -5 19 -13l39 -113c5 -16 -2 -27 -19 -27h-59z" />
    <glyph glyph-name="Aacute" unicode="&#xc1;" horiz-adv-x="736" 
d="M568 0c-9 0 -16 5 -19 13l-57 147h-249l-56 -147c-3 -8 -11 -13 -19 -13h-120c-18 0 -26 11 -19 27l266 660c3 8 10 13 19 13h108c9 0 16 -5 19 -13l266 -660c7 -16 -1 -27 -19 -27h-120zM368 486l-72 -186h143zM473 913c20 0 27 -12 17 -30l-63 -113
c-4 -6 -11 -10 -18 -10h-59c-17 0 -24 11 -19 27l39 113c3 8 11 13 19 13h84z" />
    <glyph glyph-name="Acircumflex" unicode="&#xc2;" horiz-adv-x="736" 
d="M568 0c-9 0 -16 5 -19 13l-57 147h-249l-56 -147c-3 -8 -11 -13 -19 -13h-120c-18 0 -26 11 -19 27l266 660c3 8 10 13 19 13h108c9 0 16 -5 19 -13l266 -660c7 -16 -1 -27 -19 -27h-120zM368 486l-72 -186h143zM424 916c6 0 12 -3 16 -8l75 -106c13 -19 7 -32 -17 -32
h-80c-7 0 -14 4 -18 10l-32 60l-32 -60c-4 -6 -11 -10 -18 -10h-80c-24 0 -30 13 -17 32l75 106c4 5 10 8 16 8h112z" />
    <glyph glyph-name="Atilde" unicode="&#xc3;" horiz-adv-x="736" 
d="M568 0c-9 0 -16 5 -19 13l-57 147h-249l-56 -147c-3 -8 -11 -13 -19 -13h-120c-18 0 -26 11 -19 27l266 660c3 8 10 13 19 13h108c9 0 16 -5 19 -13l266 -660c7 -16 -1 -27 -19 -27h-120zM368 486l-72 -186h143zM409 759c-39 0 -67 38 -90 38c-15 0 -24 -7 -30 -15
c-7 -10 -16 -16 -29 -13l-48 15c-7 2 -12 9 -11 16c7 30 39 95 119 95c50 -2 63 -38 94 -38c13 0 23 8 30 16c9 11 21 17 38 11l43 -18c7 -3 11 -10 9 -17c-11 -28 -47 -90 -125 -90z" />
    <glyph glyph-name="Adieresis" unicode="&#xc4;" horiz-adv-x="736" 
d="M568 0c-9 0 -16 5 -19 13l-57 147h-249l-56 -147c-3 -8 -11 -13 -19 -13h-120c-18 0 -26 11 -19 27l266 660c3 8 10 13 19 13h108c9 0 16 -5 19 -13l266 -660c7 -16 -1 -27 -19 -27h-120zM368 486l-72 -186h143zM182 838c0 42 36 78 78 78s78 -36 78 -78s-36 -78 -78 -78
s-78 36 -78 78zM397 838c0 42 36 78 78 78s78 -36 78 -78s-36 -78 -78 -78s-78 36 -78 78z" />
    <glyph glyph-name="Aring" unicode="&#xc5;" horiz-adv-x="736" 
d="M269 773c0 56 43 99 99 99s99 -43 99 -99c0 -30 -12 -55 -31 -73l271 -673c7 -16 -1 -27 -19 -27h-120c-9 0 -16 5 -19 13l-57 147h-249l-56 -147c-3 -8 -11 -13 -19 -13h-120c-18 0 -26 11 -19 27l271 673c-20 18 -31 43 -31 73zM368 486l-72 -186h143zM331 773
c0 -20 17 -37 37 -37s36 17 36 37s-16 36 -36 36s-37 -16 -37 -36z" />
    <glyph glyph-name="Eth" unicode="&#xd0;" horiz-adv-x="723" 
d="M0 370c0 12 8 20 20 20h70v290c0 12 8 20 20 20h217c193 0 351 -142 351 -350s-158 -350 -351 -350h-217c-12 0 -20 8 -20 20v290h-70c-12 0 -20 8 -20 20v40zM242 310v-170h65c152 0 219 115 219 210s-67 210 -219 210h-65v-170h149c12 0 20 -8 20 -20v-40
c0 -12 -8 -20 -20 -20h-149z" />
    <glyph glyph-name="Egrave" unicode="&#xc8;" horiz-adv-x="581" 
d="M233 140v140h238c12 0 20 8 20 20v100c0 12 -8 20 -20 20h-238v140h283c12 0 20 8 20 20v100c0 12 -8 20 -20 20h-415c-12 0 -20 -8 -20 -20v-660c0 -12 8 -20 20 -20h415c12 0 20 8 20 20v100c0 12 -8 20 -20 20h-283zM201 913h84c8 0 16 -5 19 -13l39 -113
c5 -16 -2 -27 -19 -27h-59c-7 0 -14 4 -18 10l-63 113c-10 18 -3 30 17 30z" />
    <glyph glyph-name="Eacute" unicode="&#xc9;" horiz-adv-x="581" 
d="M233 140v140h238c12 0 20 8 20 20v100c0 12 -8 20 -20 20h-238v140h283c12 0 20 8 20 20v100c0 12 -8 20 -20 20h-415c-12 0 -20 -8 -20 -20v-660c0 -12 8 -20 20 -20h415c12 0 20 8 20 20v100c0 12 -8 20 -20 20h-283zM387 913c20 0 27 -12 17 -30l-63 -113
c-4 -6 -11 -10 -18 -10h-59c-17 0 -24 11 -19 27l39 113c3 8 11 13 19 13h84z" />
    <glyph glyph-name="Ecircumflex" unicode="&#xca;" horiz-adv-x="581" 
d="M233 140v140h238c12 0 20 8 20 20v100c0 12 -8 20 -20 20h-238v140h283c12 0 20 8 20 20v100c0 12 -8 20 -20 20h-415c-12 0 -20 -8 -20 -20v-660c0 -12 8 -20 20 -20h415c12 0 20 8 20 20v100c0 12 -8 20 -20 20h-283zM363 916c6 0 12 -3 16 -8l75 -106
c13 -19 7 -32 -17 -32h-80c-7 0 -14 4 -18 10l-32 60l-32 -60c-4 -6 -11 -10 -18 -10h-80c-24 0 -30 13 -17 32l75 106c4 5 10 8 16 8h112z" />
    <glyph glyph-name="Edieresis" unicode="&#xcb;" horiz-adv-x="581" 
d="M233 140v140h238c12 0 20 8 20 20v100c0 12 -8 20 -20 20h-238v140h283c12 0 20 8 20 20v100c0 12 -8 20 -20 20h-415c-12 0 -20 -8 -20 -20v-660c0 -12 8 -20 20 -20h415c12 0 20 8 20 20v100c0 12 -8 20 -20 20h-283zM123 838c0 42 36 78 78 78s78 -36 78 -78
s-36 -78 -78 -78s-78 36 -78 78zM338 838c0 42 36 78 78 78s78 -36 78 -78s-36 -78 -78 -78s-78 36 -78 78z" />
    <glyph glyph-name="Igrave" unicode="&#xcc;" horiz-adv-x="320" 
d="M219 700c12 0 20 -8 20 -20v-660c0 -12 -8 -20 -20 -20h-112c-12 0 -20 8 -20 20v660c0 12 8 20 20 20h112zM127 760c-7 0 -14 4 -18 10l-63 113c-10 18 -3 30 17 30h84c8 0 16 -5 19 -13l39 -113c5 -16 -2 -27 -19 -27h-59z" />
    <glyph glyph-name="Iacute" unicode="&#xcd;" horiz-adv-x="320" 
d="M213 700c12 0 20 -8 20 -20v-660c0 -12 -8 -20 -20 -20h-112c-12 0 -20 8 -20 20v660c0 12 8 20 20 20h112zM258 913c20 0 27 -12 17 -30l-63 -113c-4 -6 -11 -10 -18 -10h-59c-17 0 -24 11 -19 27l39 113c3 8 11 13 19 13h84z" />
    <glyph glyph-name="Icircumflex" unicode="&#xce;" horiz-adv-x="332" 
d="M222 700c12 0 20 -8 20 -20v-660c0 -12 -8 -20 -20 -20h-112c-12 0 -20 8 -20 20v660c0 12 8 20 20 20h112zM222 916c6 0 12 -3 16 -8l75 -106c13 -19 6 -32 -17 -32l-80 1c-7 0 -14 4 -18 10l-32 60l-32 -60c-4 -6 -11 -10 -18 -10l-80 -1c-23 0 -30 13 -17 32l75 106
c4 5 10 8 16 8h112z" />
    <glyph glyph-name="Idieresis" unicode="&#xcf;" horiz-adv-x="329" 
d="M221 700c12 0 20 -8 20 -20v-660c0 -12 -8 -20 -20 -20h-112c-12 0 -20 8 -20 20v660c0 12 8 20 20 20h112zM-20 838c0 42 36 78 78 78s78 -36 78 -78s-36 -78 -78 -78s-78 36 -78 78zM195 838c0 42 36 78 78 78s78 -36 78 -78s-36 -78 -78 -78s-78 36 -78 78z" />
    <glyph glyph-name="Ntilde" unicode="&#xd1;" horiz-adv-x="787" 
d="M686 700c12 0 20 -8 20 -20v-660c0 -12 -8 -20 -20 -20h-122c-6 0 -12 3 -16 8l-315 431v-419c0 -12 -8 -20 -20 -20h-112c-12 0 -20 8 -20 20v660c0 12 8 20 20 20h122c6 0 12 -3 16 -8l315 -433v421c0 12 8 20 20 20h112zM435 759c-39 0 -67 38 -90 38
c-15 0 -24 -7 -30 -15c-7 -10 -16 -16 -29 -13l-48 15c-7 2 -12 9 -11 16c7 30 39 95 119 95c50 -2 63 -38 94 -38c13 0 23 8 30 16c9 11 21 17 38 11l43 -18c7 -3 11 -10 9 -17c-11 -28 -47 -90 -125 -90z" />
    <glyph glyph-name="Ograve" unicode="&#xd2;" horiz-adv-x="808" 
d="M404 709c198 0 359 -158 359 -359s-161 -359 -359 -359s-359 158 -359 359s161 359 359 359zM404 133c116 0 207 90 207 217s-91 217 -207 217c-117 0 -207 -90 -207 -217s90 -217 207 -217zM367 760c-7 0 -14 4 -18 10l-63 113c-10 18 -3 30 17 30h84c8 0 16 -5 19 -13
l39 -113c5 -16 -2 -27 -19 -27h-59z" />
    <glyph glyph-name="Oacute" unicode="&#xd3;" horiz-adv-x="808" 
d="M404 709c198 0 359 -158 359 -359s-161 -359 -359 -359s-359 158 -359 359s161 359 359 359zM404 133c116 0 207 90 207 217s-91 217 -207 217c-117 0 -207 -90 -207 -217s90 -217 207 -217zM507 913c20 0 27 -12 17 -30l-63 -113c-4 -6 -11 -10 -18 -10h-59
c-17 0 -24 11 -19 27l39 113c3 8 11 13 19 13h84z" />
    <glyph glyph-name="Ocircumflex" unicode="&#xd4;" horiz-adv-x="808" 
d="M404 709c198 0 359 -158 359 -359s-161 -359 -359 -359s-359 158 -359 359s161 359 359 359zM404 133c116 0 207 90 207 217s-91 217 -207 217c-117 0 -207 -90 -207 -217s90 -217 207 -217zM460 916c6 0 12 -3 16 -8l75 -106c13 -19 6 -32 -17 -32l-80 1
c-7 0 -14 4 -18 10l-32 60l-32 -60c-4 -6 -11 -10 -18 -10l-80 -1c-23 0 -30 13 -17 32l75 106c4 5 10 8 16 8h112z" />
    <glyph glyph-name="Otilde" unicode="&#xd5;" horiz-adv-x="808" 
d="M404 709c198 0 359 -158 359 -359s-161 -359 -359 -359s-359 158 -359 359s161 359 359 359zM404 133c116 0 207 90 207 217s-91 217 -207 217c-117 0 -207 -90 -207 -217s90 -217 207 -217zM445 759c-39 0 -67 38 -90 38c-15 0 -24 -7 -30 -15c-7 -10 -16 -16 -29 -13
l-48 15c-7 2 -12 9 -11 16c7 30 39 95 119 95c50 -2 63 -38 94 -38c13 0 23 8 30 16c9 11 21 17 38 11l43 -18c7 -3 11 -10 9 -17c-11 -28 -47 -90 -125 -90z" />
    <glyph glyph-name="Odieresis" unicode="&#xd6;" horiz-adv-x="808" 
d="M404 709c198 0 359 -158 359 -359s-161 -359 -359 -359s-359 158 -359 359s161 359 359 359zM404 133c116 0 207 90 207 217s-91 217 -207 217c-117 0 -207 -90 -207 -217s90 -217 207 -217zM218 838c0 42 36 78 78 78s78 -36 78 -78s-36 -78 -78 -78s-78 36 -78 78z
M433 838c0 42 36 78 78 78s78 -36 78 -78s-36 -78 -78 -78s-78 36 -78 78z" />
    <glyph glyph-name="Oslash" unicode="&#xd8;" horiz-adv-x="812" 
d="M38 6c-8 8 -8 20 0 28l89 89c-50 62 -79 140 -79 227c0 201 161 359 359 359c85 0 164 -30 226 -80l84 84c8 8 20 8 28 0l23 -23c8 -8 8 -20 0 -28l-84 -84c51 -61 82 -141 82 -228c0 -201 -161 -359 -359 -359c-87 0 -167 30 -229 81l-89 -89c-8 -8 -20 -8 -28 0z
M407 133c116 0 207 90 207 217c0 47 -13 89 -35 123l-298 -298c34 -27 78 -42 126 -42zM200 350c0 -46 11 -88 32 -122l298 298c-34 26 -77 41 -123 41c-117 0 -207 -90 -207 -217z" />
    <glyph glyph-name="Ugrave" unicode="&#xd9;" horiz-adv-x="744" 
d="M511 283v397c0 12 8 20 20 20h112c12 0 20 -8 20 -20v-412c0 -169 -134 -277 -291 -277s-291 108 -291 277v412c0 12 8 20 20 20h112c12 0 20 -8 20 -20v-397c0 -81 47 -150 139 -150s139 69 139 150zM331 760c-7 0 -14 4 -18 10l-63 113c-10 18 -3 30 17 30h84
c8 0 16 -5 19 -13l39 -113c5 -16 -2 -27 -19 -27h-59z" />
    <glyph glyph-name="Uacute" unicode="&#xda;" horiz-adv-x="744" 
d="M511 283v397c0 12 8 20 20 20h112c12 0 20 -8 20 -20v-412c0 -169 -134 -277 -291 -277s-291 108 -291 277v412c0 12 8 20 20 20h112c12 0 20 -8 20 -20v-397c0 -81 47 -150 139 -150s139 69 139 150zM469 913c20 0 27 -12 17 -30l-63 -113c-4 -6 -11 -10 -18 -10h-59
c-17 0 -24 11 -19 27l39 113c3 8 11 13 19 13h84z" />
    <glyph glyph-name="Ucircumflex" unicode="&#xdb;" horiz-adv-x="744" 
d="M511 283v397c0 12 8 20 20 20h112c12 0 20 -8 20 -20v-412c0 -169 -134 -277 -291 -277s-291 108 -291 277v412c0 12 8 20 20 20h112c12 0 20 -8 20 -20v-397c0 -81 47 -150 139 -150s139 69 139 150zM428 916c6 0 12 -3 16 -8l75 -106c13 -19 6 -32 -17 -32h-80
c-7 0 -14 4 -18 10l-32 61l-32 -61c-4 -6 -11 -10 -18 -10h-80c-23 0 -30 13 -17 32l75 106c4 5 10 8 16 8h112z" />
    <glyph glyph-name="Udieresis" unicode="&#xdc;" horiz-adv-x="744" 
d="M511 283v397c0 12 8 20 20 20h112c12 0 20 -8 20 -20v-412c0 -169 -134 -277 -291 -277s-291 108 -291 277v412c0 12 8 20 20 20h112c12 0 20 -8 20 -20v-397c0 -81 47 -150 139 -150s139 69 139 150zM186 838c0 42 36 78 78 78s78 -36 78 -78s-36 -78 -78 -78
s-78 36 -78 78zM401 838c0 42 36 78 78 78s78 -36 78 -78s-36 -78 -78 -78s-78 36 -78 78z" />
    <glyph glyph-name="Yacute" unicode="&#xdd;" horiz-adv-x="700" 
d="M183 700c7 0 14 -4 18 -10l149 -258l149 258c4 6 11 10 18 10h132c22 0 29 -12 17 -31l-240 -375v-274c0 -12 -8 -20 -20 -20h-112c-12 0 -20 8 -20 20v274l-240 375c-12 19 -5 31 17 31h132zM454 913c20 0 27 -12 17 -30l-63 -113c-4 -6 -11 -10 -18 -10h-59
c-17 0 -24 11 -19 27l39 113c3 8 11 13 19 13h84z" />
    <glyph glyph-name="agrave" unicode="&#xe0;" 
d="M36 200c0 128 84 209 203 209c39 0 98 -18 126 -51v22c0 12 8 20 20 20h102c12 0 20 -8 20 -20v-360c0 -12 -8 -20 -20 -20h-102c-12 0 -20 8 -20 20v22c-28 -33 -87 -51 -126 -51c-119 0 -203 81 -203 209zM183 200c0 -54 41 -89 89 -89c59 0 92 45 92 89s-33 89 -92 89
c-48 0 -89 -35 -89 -89zM243 460c-7 0 -14 4 -18 10l-63 113c-10 18 -3 30 17 30h84c8 0 16 -5 19 -13l39 -113c5 -16 -2 -27 -19 -27h-59z" />
    <glyph glyph-name="aacute" unicode="&#xe1;" 
d="M36 200c0 128 84 209 203 209c39 0 98 -18 126 -51v22c0 12 8 20 20 20h102c12 0 20 -8 20 -20v-360c0 -12 -8 -20 -20 -20h-102c-12 0 -20 8 -20 20v22c-28 -33 -87 -51 -126 -51c-119 0 -203 81 -203 209zM183 200c0 -54 41 -89 89 -89c59 0 92 45 92 89s-33 89 -92 89
c-48 0 -89 -35 -89 -89zM367 613c20 0 27 -12 17 -30l-63 -113c-4 -6 -11 -10 -18 -10h-59c-17 0 -24 11 -19 27l39 113c3 8 11 13 19 13h84z" />
    <glyph glyph-name="acircumflex" unicode="&#xe2;" 
d="M36 200c0 128 84 209 203 209c39 0 98 -18 126 -51v22c0 12 8 20 20 20h102c12 0 20 -8 20 -20v-360c0 -12 -8 -20 -20 -20h-102c-12 0 -20 8 -20 20v22c-28 -33 -87 -51 -126 -51c-119 0 -203 81 -203 209zM183 200c0 -54 41 -89 89 -89c59 0 92 45 92 89s-33 89 -92 89
c-48 0 -89 -35 -89 -89zM333 616c6 0 12 -3 16 -8l75 -106c13 -19 6 -32 -17 -32l-80 1c-7 0 -14 4 -18 10l-32 60l-32 -60c-4 -6 -11 -10 -18 -10l-80 -1c-23 0 -30 13 -17 32l75 106c4 5 10 8 16 8h112z" />
    <glyph glyph-name="atilde" unicode="&#xe3;" 
d="M36 200c0 128 84 209 203 209c39 0 98 -18 126 -51v22c0 12 8 20 20 20h102c12 0 20 -8 20 -20v-360c0 -12 -8 -20 -20 -20h-102c-12 0 -20 8 -20 20v22c-28 -33 -87 -51 -126 -51c-119 0 -203 81 -203 209zM183 200c0 -54 41 -89 89 -89c59 0 92 45 92 89s-33 89 -92 89
c-48 0 -89 -35 -89 -89zM318 459c-39 0 -67 38 -90 38c-15 0 -24 -7 -30 -15c-7 -10 -16 -16 -29 -13l-48 15c-7 2 -12 9 -11 16c7 30 39 95 119 95c50 -2 63 -38 94 -38c13 0 23 8 30 16c9 11 21 17 38 11l43 -18c7 -3 11 -10 9 -17c-11 -28 -47 -90 -125 -90z" />
    <glyph glyph-name="adieresis" unicode="&#xe4;" 
d="M36 200c0 128 84 209 203 209c39 0 98 -18 126 -51v22c0 12 8 20 20 20h102c12 0 20 -8 20 -20v-360c0 -12 -8 -20 -20 -20h-102c-12 0 -20 8 -20 20v22c-28 -33 -87 -51 -126 -51c-119 0 -203 81 -203 209zM183 200c0 -54 41 -89 89 -89c59 0 92 45 92 89s-33 89 -92 89
c-48 0 -89 -35 -89 -89zM90 538c0 42 36 78 78 78s78 -36 78 -78s-36 -78 -78 -78s-78 36 -78 78zM305 538c0 42 36 78 78 78s78 -36 78 -78s-36 -78 -78 -78s-78 36 -78 78z" />
    <glyph glyph-name="aring" unicode="&#xe5;" 
d="M36 200c0 128 84 209 203 209c39 0 98 -18 126 -51v22c0 12 8 20 20 20h102c12 0 20 -8 20 -20v-360c0 -12 -8 -20 -20 -20h-102c-12 0 -20 8 -20 20v22c-28 -33 -87 -51 -126 -51c-119 0 -203 81 -203 209zM183 200c0 -54 41 -89 89 -89c59 0 92 45 92 89s-33 89 -92 89
c-48 0 -89 -35 -89 -89zM165 559c0 56 43 99 99 99s99 -43 99 -99s-43 -99 -99 -99s-99 43 -99 99zM227 559c0 -20 17 -37 37 -37s36 17 36 37s-16 36 -36 36s-37 -16 -37 -36z" />
    <glyph glyph-name="ccedilla" unicode="&#xe7;" horiz-adv-x="471" 
d="M241 -103h-17c-11 0 -18 7 -18 17v80c-97 16 -170 93 -170 206c0 127 93 209 208 209c72 0 133 -25 175 -77c7 -9 5 -20 -3 -27l-69 -56c-10 -8 -21 -6 -31 3c-19 19 -45 28 -68 28c-38 0 -76 -26 -76 -80s38 -80 76 -80c23 0 49 9 68 28c10 9 21 11 31 3l69 -56
c8 -7 10 -18 3 -27c-38 -46 -91 -71 -153 -76v-26c68 -6 97 -50 97 -99c0 -77 -72 -106 -126 -106c-27 0 -61 7 -92 25c-9 6 -12 16 -6 25l18 33c7 12 18 15 30 10c16 -5 37 -10 52 -9c17 1 31 12 31 27c0 19 -15 25 -29 25z" />
    <glyph glyph-name="egrave" unicode="&#xe8;" horiz-adv-x="475" 
d="M319 126c10 6 22 4 28 -6l41 -61c6 -8 5 -19 -3 -25c-39 -30 -87 -43 -142 -43c-115 0 -207 85 -207 209c0 130 95 209 210 209c118 0 193 -94 193 -209c0 -5 0 -10 -1 -15c-1 -8 -8 -14 -17 -14h-249c7 -40 48 -61 86 -61c21 0 42 7 61 16zM247 290
c-25 0 -59 -14 -71 -46h131c-5 28 -29 46 -60 46zM207 460c-7 0 -14 4 -18 10l-63 113c-10 18 -3 30 17 30h84c8 0 16 -5 19 -13l39 -113c5 -16 -2 -27 -19 -27h-59z" />
    <glyph glyph-name="eacute" unicode="&#xe9;" horiz-adv-x="475" 
d="M319 126c10 6 22 4 28 -6l41 -61c6 -8 5 -19 -3 -25c-39 -30 -87 -43 -142 -43c-115 0 -207 85 -207 209c0 130 95 209 210 209c118 0 193 -94 193 -209c0 -5 0 -10 -1 -15c-1 -8 -8 -14 -17 -14h-249c7 -40 48 -61 86 -61c21 0 42 7 61 16zM247 290
c-25 0 -59 -14 -71 -46h131c-5 28 -29 46 -60 46zM346 613c20 0 27 -12 17 -30l-63 -113c-4 -6 -11 -10 -18 -10h-59c-17 0 -24 11 -19 27l39 113c3 8 11 13 19 13h84z" />
    <glyph glyph-name="ecircumflex" unicode="&#xea;" horiz-adv-x="475" 
d="M319 126c10 6 22 4 28 -6l41 -61c6 -8 5 -19 -3 -25c-39 -30 -87 -43 -142 -43c-115 0 -207 85 -207 209c0 130 95 209 210 209c118 0 193 -94 193 -209c0 -5 0 -10 -1 -15c-1 -8 -8 -14 -17 -14h-249c7 -40 48 -61 86 -61c21 0 42 7 61 16zM247 290
c-25 0 -59 -14 -71 -46h131c-5 28 -29 46 -60 46zM300 616c6 0 12 -3 16 -8l75 -106c13 -19 6 -32 -17 -32l-80 1c-7 0 -14 4 -18 10l-32 60l-32 -60c-4 -6 -11 -10 -18 -10l-80 -1c-23 0 -30 13 -17 32l75 106c4 5 10 8 16 8h112z" />
    <glyph glyph-name="edieresis" unicode="&#xeb;" horiz-adv-x="475" 
d="M319 126c10 6 22 4 28 -6l41 -61c6 -8 5 -19 -3 -25c-39 -30 -87 -43 -142 -43c-115 0 -207 85 -207 209c0 130 95 209 210 209c118 0 193 -94 193 -209c0 -5 0 -10 -1 -15c-1 -8 -8 -14 -17 -14h-249c7 -40 48 -61 86 -61c21 0 42 7 61 16zM247 290
c-25 0 -59 -14 -71 -46h131c-5 28 -29 46 -60 46zM60 538c0 42 36 78 78 78s78 -36 78 -78s-36 -78 -78 -78s-78 36 -78 78zM275 538c0 42 36 78 78 78s78 -36 78 -78s-36 -78 -78 -78s-78 36 -78 78z" />
    <glyph glyph-name="igrave" unicode="&#xec;" horiz-adv-x="275" 
d="M192 400c12 0 20 -8 20 -20v-360c0 -12 -8 -20 -20 -20h-102c-12 0 -20 8 -20 20v360c0 12 8 20 20 20h102zM104 460c-7 0 -14 4 -18 10l-63 113c-10 18 -3 30 17 30h84c8 0 16 -5 19 -13l39 -113c5 -16 -2 -27 -19 -27h-59z" />
    <glyph glyph-name="iacute" unicode="&#xed;" horiz-adv-x="274" 
d="M185 400c12 0 20 -8 20 -20v-360c0 -12 -8 -20 -20 -20h-102c-12 0 -20 8 -20 20v360c0 12 8 20 20 20h102zM231 613c20 0 27 -12 17 -30l-63 -113c-4 -6 -11 -10 -18 -10h-59c-17 0 -24 11 -19 27l39 113c3 8 11 13 19 13h84z" />
    <glyph glyph-name="icircumflex" unicode="&#xee;" horiz-adv-x="278" 
d="M190 400c12 0 20 -8 20 -20v-360c0 -12 -8 -20 -20 -20h-102c-12 0 -20 8 -20 20v360c0 12 8 20 20 20h102zM195 616c6 0 12 -3 16 -8l75 -106c13 -19 6 -32 -17 -32l-80 1c-7 0 -14 4 -18 10l-32 60l-32 -60c-4 -6 -11 -10 -18 -10l-80 -1c-23 0 -30 13 -17 32l75 106
c4 5 10 8 16 8h112z" />
    <glyph glyph-name="idieresis" unicode="&#xef;" horiz-adv-x="274" 
d="M188 400c12 0 20 -8 20 -20v-360c0 -12 -8 -20 -20 -20h-102c-12 0 -20 8 -20 20v360c0 12 8 20 20 20h102zM-48 538c0 42 36 78 78 78s78 -36 78 -78s-36 -78 -78 -78s-78 36 -78 78zM167 538c0 42 36 78 78 78s78 -36 78 -78s-36 -78 -78 -78s-78 36 -78 78z" />
    <glyph glyph-name="ntilde" unicode="&#xf1;" horiz-adv-x="538" 
d="M83 0c-12 0 -20 8 -20 20v360c0 12 8 20 20 20h102c12 0 20 -8 20 -20v-29c26 40 73 58 112 58c88 0 162 -43 162 -177v-212c0 -12 -8 -20 -20 -20h-102c-12 0 -20 8 -20 20v206c0 39 -22 66 -62 66c-48 0 -70 -40 -70 -65v-207c0 -12 -8 -20 -20 -20h-102zM310 459
c-39 0 -67 38 -90 38c-15 0 -24 -7 -30 -15c-7 -10 -16 -16 -29 -13l-48 15c-7 2 -12 9 -11 16c7 30 39 95 119 95c50 -2 63 -38 94 -38c13 0 23 8 30 16c9 11 21 17 38 11l43 -18c7 -3 11 -10 9 -17c-11 -28 -47 -90 -125 -90z" />
    <glyph glyph-name="ograve" unicode="&#xf2;" horiz-adv-x="492" 
d="M246 409c115 0 210 -85 210 -209s-95 -209 -210 -209s-210 85 -210 209s95 209 210 209zM246 121c38 0 74 28 74 79s-36 79 -74 79s-74 -28 -74 -79s36 -79 74 -79zM204 460c-7 0 -14 4 -18 10l-63 113c-10 18 -3 30 17 30h84c8 0 16 -5 19 -13l39 -113
c5 -16 -2 -27 -19 -27h-59z" />
    <glyph glyph-name="oacute" unicode="&#xf3;" horiz-adv-x="492" 
d="M246 409c115 0 210 -85 210 -209s-95 -209 -210 -209s-210 85 -210 209s95 209 210 209zM246 121c38 0 74 28 74 79s-36 79 -74 79s-74 -28 -74 -79s36 -79 74 -79zM346 613c20 0 27 -12 17 -30l-63 -113c-4 -6 -11 -10 -18 -10h-59c-17 0 -24 11 -19 27l39 113
c3 8 11 13 19 13h84z" />
    <glyph glyph-name="ocircumflex" unicode="&#xf4;" horiz-adv-x="492" 
d="M246 409c115 0 210 -85 210 -209s-95 -209 -210 -209s-210 85 -210 209s95 209 210 209zM246 121c38 0 74 28 74 79s-36 79 -74 79s-74 -28 -74 -79s36 -79 74 -79zM302 616c6 0 12 -3 16 -8l75 -106c13 -19 7 -32 -17 -32h-80c-7 0 -14 4 -18 10l-32 60l-32 -60
c-4 -6 -11 -10 -18 -10h-80c-24 0 -30 13 -17 32l75 106c4 5 10 8 16 8h112z" />
    <glyph glyph-name="otilde" unicode="&#xf5;" horiz-adv-x="492" 
d="M246 409c115 0 210 -85 210 -209s-95 -209 -210 -209s-210 85 -210 209s95 209 210 209zM246 121c38 0 74 28 74 79s-36 79 -74 79s-74 -28 -74 -79s36 -79 74 -79zM287 459c-39 0 -67 38 -90 38c-15 0 -24 -7 -30 -15c-7 -10 -16 -16 -29 -13l-48 15c-7 2 -12 9 -11 16
c7 30 39 95 119 95c50 -2 63 -38 94 -38c13 0 23 8 30 16c9 11 21 17 38 11l43 -18c7 -3 11 -10 9 -17c-11 -28 -47 -90 -125 -90z" />
    <glyph glyph-name="odieresis" unicode="&#xf6;" horiz-adv-x="492" 
d="M246 409c115 0 210 -85 210 -209s-95 -209 -210 -209s-210 85 -210 209s95 209 210 209zM246 121c38 0 74 28 74 79s-36 79 -74 79s-74 -28 -74 -79s36 -79 74 -79zM60 538c0 42 36 78 78 78s78 -36 78 -78s-36 -78 -78 -78s-78 36 -78 78zM275 538c0 42 36 78 78 78
s78 -36 78 -78s-36 -78 -78 -78s-78 36 -78 78z" />
    <glyph glyph-name="ugrave" unicode="&#xf9;" horiz-adv-x="538" 
d="M455 400c12 0 20 -8 20 -20v-360c0 -12 -8 -20 -20 -20h-102c-12 0 -20 8 -20 20v29c-26 -40 -74 -58 -113 -58c-88 0 -161 43 -161 177v212c0 12 8 20 20 20h102c12 0 20 -8 20 -20v-206c0 -39 22 -66 62 -66c48 0 70 40 70 65v207c0 12 8 20 20 20h102zM234 460
c-7 0 -14 4 -18 10l-63 113c-10 18 -3 30 17 30h84c8 0 16 -5 19 -13l39 -113c5 -16 -2 -27 -19 -27h-59z" />
    <glyph glyph-name="uacute" unicode="&#xfa;" horiz-adv-x="538" 
d="M455 400c12 0 20 -8 20 -20v-360c0 -12 -8 -20 -20 -20h-102c-12 0 -20 8 -20 20v29c-26 -40 -74 -58 -113 -58c-88 0 -161 43 -161 177v212c0 12 8 20 20 20h102c12 0 20 -8 20 -20v-206c0 -39 22 -66 62 -66c48 0 70 40 70 65v207c0 12 8 20 20 20h102zM367 613
c20 0 27 -12 17 -30l-63 -113c-4 -6 -11 -10 -18 -10h-59c-17 0 -24 11 -19 27l39 113c3 8 11 13 19 13h84z" />
    <glyph glyph-name="ucircumflex" unicode="&#xfb;" horiz-adv-x="538" 
d="M455 400c12 0 20 -8 20 -20v-360c0 -12 -8 -20 -20 -20h-102c-12 0 -20 8 -20 20v29c-26 -40 -74 -58 -113 -58c-88 0 -161 43 -161 177v212c0 12 8 20 20 20h102c12 0 20 -8 20 -20v-206c0 -39 22 -66 62 -66c48 0 70 40 70 65v207c0 12 8 20 20 20h102zM321 616
c6 0 12 -3 16 -8l75 -106c13 -19 6 -32 -17 -32l-80 1c-7 0 -14 4 -18 10l-32 60l-32 -60c-4 -6 -11 -10 -18 -10l-80 -1c-23 0 -30 13 -17 32l75 106c4 5 10 8 16 8h112z" />
    <glyph glyph-name="udieresis" unicode="&#xfc;" horiz-adv-x="538" 
d="M455 400c12 0 20 -8 20 -20v-360c0 -12 -8 -20 -20 -20h-102c-12 0 -20 8 -20 20v29c-26 -40 -74 -58 -113 -58c-88 0 -161 43 -161 177v212c0 12 8 20 20 20h102c12 0 20 -8 20 -20v-206c0 -39 22 -66 62 -66c48 0 70 40 70 65v207c0 12 8 20 20 20h102zM84 538
c0 42 36 78 78 78s78 -36 78 -78s-36 -78 -78 -78s-78 36 -78 78zM299 538c0 42 36 78 78 78s78 -36 78 -78s-36 -78 -78 -78s-78 36 -78 78z" />
    <glyph glyph-name="yacute" unicode="&#xfd;" horiz-adv-x="545" 
d="M500 400c18 0 26 -11 18 -29l-291 -618c-3 -6 -10 -11 -18 -11h-106c-19 0 -26 12 -18 29l114 230l-172 371c-8 17 0 28 18 28h115c8 0 15 -5 18 -12l94 -222l92 222c3 7 10 12 18 12h118zM376 613c20 0 27 -12 17 -30l-63 -113c-4 -6 -11 -10 -18 -10h-59
c-17 0 -24 11 -19 27l39 113c3 8 11 13 19 13h84z" />
    <glyph glyph-name="ydieresis" unicode="&#xff;" horiz-adv-x="545" 
d="M500 400c18 0 26 -11 18 -29l-291 -618c-3 -6 -10 -11 -18 -11h-106c-19 0 -26 12 -18 29l114 230l-172 371c-8 17 0 28 18 28h115c8 0 15 -5 18 -12l94 -222l92 222c3 7 10 12 18 12h118zM95 538c0 42 36 78 78 78s78 -36 78 -78s-36 -78 -78 -78s-78 36 -78 78z
M310 538c0 42 36 78 78 78s78 -36 78 -78s-36 -78 -78 -78s-78 36 -78 78z" />
    <glyph glyph-name="oslash" unicode="&#xf8;" horiz-adv-x="496" 
d="M34 -12c-8 8 -8 20 0 28l50 50c-29 35 -46 81 -46 134c0 124 95 209 210 209c50 0 97 -17 133 -46l48 48c8 8 20 8 28 0l1 -1c8 -8 8 -20 0 -28l-47 -47c29 -36 47 -82 47 -135c0 -124 -95 -209 -210 -209c-51 0 -99 16 -135 46l-50 -50c-8 -8 -20 -8 -28 0zM248 118
c38 0 78 28 78 82c0 16 -3 29 -9 41l-111 -111c12 -8 27 -12 42 -12zM170 200c0 -16 3 -29 8 -40l111 111c-13 7 -27 11 -41 11c-38 0 -78 -28 -78 -82z" />
    <glyph glyph-name="ae" unicode="&#xe6;" horiz-adv-x="824" 
d="M36 200c0 131 81 209 200 209c39 0 97 -18 127 -62v33c0 12 8 20 20 20h61c12 0 20 -8 20 -20v-34c34 40 89 63 138 63c118 0 186 -85 186 -209c0 -5 0 -10 -1 -15c-1 -8 -8 -14 -17 -14h-250c5 -41 51 -63 89 -63c21 0 42 6 61 15c11 6 22 4 29 -8l35 -59
c6 -8 4 -18 -4 -25c-40 -29 -79 -40 -134 -40c-46 0 -102 21 -132 61v-32c0 -12 -8 -20 -20 -20h-61c-12 0 -20 8 -20 20v32c-27 -39 -91 -61 -130 -61c-119 0 -197 78 -197 209zM183 200c0 -54 40 -90 88 -90c59 0 92 47 92 91s-33 89 -92 89c-48 0 -88 -36 -88 -90z
M596 290c-25 0 -60 -14 -72 -46h132c-5 28 -29 46 -60 46z" />
    <glyph glyph-name="hungarumlaut" unicode="&#x2dd;" horiz-adv-x="394" 
d="M163 613c20 0 27 -12 17 -30l-63 -113c-4 -6 -11 -10 -18 -10h-71c-17 0 -24 11 -19 27l39 113c3 8 11 13 19 13h96zM360 613c20 0 27 -12 17 -30l-63 -113c-4 -6 -11 -10 -18 -10h-71c-17 0 -24 11 -19 27l39 113c3 8 11 13 19 13h96z" />
    <glyph glyph-name="Abreve" unicode="&#x102;" horiz-adv-x="736" 
d="M568 0c-9 0 -16 5 -19 13l-57 147h-249l-56 -147c-3 -8 -11 -13 -19 -13h-120c-18 0 -26 11 -19 27l266 660c3 8 10 13 19 13h108c9 0 16 -5 19 -13l266 -660c7 -16 -1 -27 -19 -27h-120zM368 486l-72 -186h143zM413 894c3 11 10 19 22 19h63c12 0 20 -8 19 -20
c-9 -86 -77 -134 -149 -134s-141 48 -150 134c-1 12 7 20 19 20h62c12 0 19 -8 22 -20c6 -27 25 -39 47 -39s39 15 45 40z" />
    <glyph glyph-name="Amacron" unicode="&#x100;" horiz-adv-x="736" 
d="M568 0c-9 0 -16 5 -19 13l-57 147h-249l-56 -147c-3 -8 -11 -13 -19 -13h-120c-18 0 -26 11 -19 27l266 660c3 8 10 13 19 13h108c9 0 16 -5 19 -13l266 -660c7 -16 -1 -27 -19 -27h-120zM368 486l-72 -186h143zM262 770c-12 0 -20 8 -20 20v71c0 12 8 20 20 20h211
c12 0 20 -8 20 -20v-71c0 -12 -8 -20 -20 -20h-211z" />
    <glyph glyph-name="Aogonek" unicode="&#x104;" horiz-adv-x="736" 
d="M554 0l-62 160h-249l-56 -147c-3 -8 -11 -13 -19 -13h-120c-18 0 -26 11 -19 27l266 660c3 8 10 13 19 13h108c9 0 16 -5 19 -13l267 -661c6 -16 -1 -26 -17 -31c-52 -14 -71 -57 -71 -79c0 -20 17 -29 37 -29c11 0 21 0 32 3c18 5 29 -1 29 -20v-63c0 -7 -4 -14 -11 -17
c-25 -10 -54 -14 -73 -14c-72 0 -125 48 -125 125c0 25 12 67 45 99zM368 486l-72 -186h143z" />
    <glyph glyph-name="AEacute" unicode="&#x1fc;" horiz-adv-x="948" 
d="M48 0c-18 0 -26 11 -19 27l266 660c3 8 10 13 19 13h569c12 0 20 -8 20 -20v-100c0 -12 -8 -20 -20 -20h-283v-140h238c12 0 20 -8 20 -20v-100c0 -12 -8 -20 -20 -20h-238v-140h283c12 0 20 -8 20 -20v-100c0 -12 -8 -20 -20 -20h-415c-12 0 -20 8 -20 20v140h-205
l-56 -147c-3 -8 -11 -13 -19 -13h-120zM395 560l-99 -260h152v260h-53zM640 913c20 0 27 -12 17 -30l-63 -113c-4 -6 -11 -10 -18 -10h-59c-17 0 -24 11 -19 27l39 113c3 8 11 13 19 13h84z" />
    <glyph glyph-name="Cacute" unicode="&#x106;" horiz-adv-x="740" 
d="M404 133c64 0 128 31 169 79c9 10 21 11 31 2l77 -67c8 -8 9 -19 2 -28c-69 -79 -166 -128 -279 -128c-198 0 -359 158 -359 359s161 359 359 359c113 0 210 -49 279 -128c7 -9 6 -20 -2 -28l-77 -67c-10 -9 -22 -8 -31 2c-41 48 -105 79 -169 79
c-117 0 -207 -90 -207 -217s90 -217 207 -217zM503 913c20 0 27 -12 17 -30l-63 -113c-4 -6 -11 -10 -18 -10h-59c-17 0 -24 11 -19 27l39 113c3 8 11 13 19 13h84z" />
    <glyph glyph-name="Ccaron" unicode="&#x10c;" horiz-adv-x="740" 
d="M404 133c64 0 128 31 169 79c9 10 21 11 31 2l77 -67c8 -8 9 -19 2 -28c-69 -79 -166 -128 -279 -128c-198 0 -359 158 -359 359s161 359 359 359c113 0 210 -49 279 -128c7 -9 6 -20 -2 -28l-77 -67c-10 -9 -22 -8 -31 2c-41 48 -105 79 -169 79
c-117 0 -207 -90 -207 -217s90 -217 207 -217zM536 906c24 0 30 -13 17 -32l-75 -106c-4 -5 -10 -8 -16 -8h-112c-6 0 -12 3 -16 8l-75 106c-13 19 -7 32 17 32h80c7 0 14 -4 18 -10l32 -60l32 60c4 6 11 10 18 10h80z" />
    <glyph glyph-name="Ccircumflex" unicode="&#x108;" horiz-adv-x="740" 
d="M404 133c64 0 128 31 169 79c9 10 21 11 31 2l77 -67c8 -8 9 -19 2 -28c-69 -79 -166 -128 -279 -128c-198 0 -359 158 -359 359s161 359 359 359c113 0 210 -49 279 -128c7 -9 6 -20 -2 -28l-77 -67c-10 -9 -22 -8 -31 2c-41 48 -105 79 -169 79
c-117 0 -207 -90 -207 -217s90 -217 207 -217zM463 916c6 0 12 -3 16 -8l75 -106c13 -19 7 -32 -17 -32h-80c-7 0 -14 4 -18 10l-32 60l-32 -60c-4 -6 -11 -10 -18 -10h-80c-24 0 -30 13 -17 32l75 106c4 5 10 8 16 8h112z" />
    <glyph glyph-name="Cdotaccent" unicode="&#x10a;" horiz-adv-x="740" 
d="M404 133c64 0 128 31 169 79c9 10 21 11 31 2l77 -67c8 -8 9 -19 2 -28c-69 -79 -166 -128 -279 -128c-198 0 -359 158 -359 359s161 359 359 359c113 0 210 -49 279 -128c7 -9 6 -20 -2 -28l-77 -67c-10 -9 -22 -8 -31 2c-41 48 -105 79 -169 79
c-117 0 -207 -90 -207 -217s90 -217 207 -217zM328 838c0 42 36 78 78 78s78 -36 78 -78s-36 -78 -78 -78s-78 36 -78 78z" />
    <glyph glyph-name="Dcaron" unicode="&#x10e;" horiz-adv-x="714" 
d="M318 700c193 0 351 -142 351 -350s-158 -350 -351 -350h-217c-12 0 -20 8 -20 20v660c0 12 8 20 20 20h217zM233 140h65c152 0 219 115 219 210s-67 210 -219 210h-65v-420zM382 906c24 0 30 -13 17 -32l-75 -106c-4 -5 -10 -8 -16 -8h-112c-6 0 -12 3 -16 8l-75 106
c-13 19 -7 32 17 32h80c7 0 14 -4 18 -10l32 -60l32 60c4 6 11 10 18 10h80z" />
    <glyph glyph-name="Ecaron" unicode="&#x11a;" horiz-adv-x="581" 
d="M233 140v140h238c12 0 20 8 20 20v100c0 12 -8 20 -20 20h-238v140h283c12 0 20 8 20 20v100c0 12 -8 20 -20 20h-415c-12 0 -20 -8 -20 -20v-660c0 -12 8 -20 20 -20h415c12 0 20 8 20 20v100c0 12 -8 20 -20 20h-283zM449 906c24 0 30 -13 17 -32l-75 -106
c-4 -5 -10 -8 -16 -8h-112c-6 0 -12 3 -16 8l-75 106c-13 19 -7 32 17 32h80c7 0 14 -4 18 -11l32 -59l32 59c4 7 11 11 18 11h80z" />
    <glyph glyph-name="Ebreve" unicode="&#x114;" horiz-adv-x="581" 
d="M233 140v140h238c12 0 20 8 20 20v100c0 12 -8 20 -20 20h-238v140h283c12 0 20 8 20 20v100c0 12 -8 20 -20 20h-415c-12 0 -20 -8 -20 -20v-660c0 -12 8 -20 20 -20h415c12 0 20 8 20 20v100c0 12 -8 20 -20 20h-283zM359 893c3 12 10 20 22 20h63c12 0 20 -8 19 -20
c-9 -86 -77 -134 -149 -134s-141 48 -150 134c-1 12 7 20 19 20h62c12 0 19 -8 22 -20c6 -27 25 -39 47 -39s39 15 45 39z" />
    <glyph glyph-name="Edotaccent" unicode="&#x116;" horiz-adv-x="581" 
d="M233 140v140h238c12 0 20 8 20 20v100c0 12 -8 20 -20 20h-238v140h283c12 0 20 8 20 20v100c0 12 -8 20 -20 20h-415c-12 0 -20 -8 -20 -20v-660c0 -12 8 -20 20 -20h415c12 0 20 8 20 20v100c0 12 -8 20 -20 20h-283zM236 838c0 42 36 78 78 78s78 -36 78 -78
s-36 -78 -78 -78s-78 36 -78 78z" />
    <glyph glyph-name="Emacron" unicode="&#x112;" horiz-adv-x="581" 
d="M233 140v140h238c12 0 20 8 20 20v100c0 12 -8 20 -20 20h-238v140h283c12 0 20 8 20 20v100c0 12 -8 20 -20 20h-415c-12 0 -20 -8 -20 -20v-660c0 -12 8 -20 20 -20h415c12 0 20 8 20 20v100c0 12 -8 20 -20 20h-283zM206 770c-12 0 -20 8 -20 20v71c0 12 8 20 20 20
h211c12 0 20 -8 20 -20v-71c0 -12 -8 -20 -20 -20h-211z" />
    <glyph glyph-name="Eogonek" unicode="&#x118;" horiz-adv-x="581" 
d="M536 20c0 -12 -8 -20 -20 -20h-38c-64 -16 -76 -59 -76 -84c0 -20 16 -34 36 -34c11 0 21 0 32 3c18 5 29 -1 29 -20v-63c0 -7 -4 -14 -11 -17c-25 -10 -54 -14 -73 -14c-72 0 -125 48 -125 125c0 27 14 72 50 104h-239c-12 0 -20 8 -20 20v660c0 12 8 20 20 20h415
c12 0 20 -8 20 -20v-100c0 -12 -8 -20 -20 -20h-283v-140h238c12 0 20 -8 20 -20v-100c0 -12 -8 -20 -20 -20h-238v-140h283c12 0 20 -8 20 -20v-100z" />
    <glyph glyph-name="Gbreve" unicode="&#x11e;" horiz-adv-x="808" 
d="M404 567c-117 0 -207 -90 -207 -217s90 -217 207 -217c91 0 166 54 195 139h-187c-12 0 -20 8 -20 20v98c0 12 8 20 20 20h330c10 0 18 -7 19 -17c1 -14 2 -29 2 -43c0 -201 -161 -359 -359 -359s-359 158 -359 359s161 359 359 359c113 0 210 -49 279 -128
c7 -9 6 -20 -2 -28l-77 -67c-10 -9 -22 -8 -31 2c-41 48 -105 79 -169 79zM453 894c3 11 10 19 22 19h63c12 0 20 -8 19 -20c-9 -86 -77 -134 -149 -134s-141 48 -150 134c-1 12 7 20 19 20h62c12 0 19 -8 22 -20c6 -27 25 -39 47 -39s39 15 45 40z" />
    <glyph glyph-name="Gcircumflex" unicode="&#x11c;" horiz-adv-x="808" 
d="M404 567c-117 0 -207 -90 -207 -217s90 -217 207 -217c91 0 166 54 195 139h-187c-12 0 -20 8 -20 20v98c0 12 8 20 20 20h330c10 0 18 -7 19 -17c1 -14 2 -29 2 -43c0 -201 -161 -359 -359 -359s-359 158 -359 359s161 359 359 359c113 0 210 -49 279 -128
c7 -9 6 -20 -2 -28l-77 -67c-10 -9 -22 -8 -31 2c-41 48 -105 79 -169 79zM460 916c6 0 12 -3 16 -8l75 -106c13 -19 6 -32 -17 -32l-80 1c-7 0 -14 4 -18 10l-32 60l-32 -60c-4 -6 -11 -10 -18 -10l-80 -1c-23 0 -30 13 -17 32l75 106c4 5 10 8 16 8h112z" />
    <glyph glyph-name="Gcommaaccent" unicode="&#x122;" horiz-adv-x="808" 
d="M404 567c-117 0 -207 -90 -207 -217s90 -217 207 -217c91 0 166 54 195 139h-187c-12 0 -20 8 -20 20v98c0 12 8 20 20 20h330c10 0 18 -7 19 -17c1 -14 2 -29 2 -43c0 -201 -161 -359 -359 -359s-359 158 -359 359s161 359 359 359c113 0 210 -49 279 -128
c7 -9 6 -20 -2 -28l-77 -67c-10 -9 -22 -8 -31 2c-41 48 -105 79 -169 79zM445 -61c17 0 25 -11 19 -27l-53 -137c-3 -8 -10 -13 -19 -13h-57c-14 0 -22 10 -19 24l28 137c2 10 10 16 19 16h82z" />
    <glyph glyph-name="Gdotaccent" unicode="&#x120;" horiz-adv-x="808" 
d="M404 567c-117 0 -207 -90 -207 -217s90 -217 207 -217c91 0 166 54 195 139h-187c-12 0 -20 8 -20 20v98c0 12 8 20 20 20h330c10 0 18 -7 19 -17c1 -14 2 -29 2 -43c0 -201 -161 -359 -359 -359s-359 158 -359 359s161 359 359 359c113 0 210 -49 279 -128
c7 -9 6 -20 -2 -28l-77 -67c-10 -9 -22 -8 -31 2c-41 48 -105 79 -169 79zM326 838c0 42 36 78 78 78s78 -36 78 -78s-36 -78 -78 -78s-78 36 -78 78z" />
    <glyph glyph-name="Ohungarumlaut" unicode="&#x150;" horiz-adv-x="808" 
d="M404 709c198 0 359 -158 359 -359s-161 -359 -359 -359s-359 158 -359 359s161 359 359 359zM404 133c116 0 207 90 207 217s-91 217 -207 217c-117 0 -207 -90 -207 -217s90 -217 207 -217zM413 913c20 0 27 -12 17 -30l-63 -113c-4 -6 -11 -10 -18 -10h-71
c-17 0 -24 11 -19 27l39 113c3 8 11 13 19 13h96zM610 913c20 0 27 -12 17 -30l-63 -113c-4 -6 -11 -10 -18 -10h-71c-17 0 -24 11 -19 27l39 113c3 8 11 13 19 13h96z" />
    <glyph glyph-name="Omacron" unicode="&#x14c;" horiz-adv-x="808" 
d="M404 709c198 0 359 -158 359 -359s-161 -359 -359 -359s-359 158 -359 359s161 359 359 359zM404 133c116 0 207 90 207 217s-91 217 -207 217c-117 0 -207 -90 -207 -217s90 -217 207 -217zM298 770c-12 0 -20 8 -20 20v71c0 12 8 20 20 20h211c12 0 20 -8 20 -20v-71
c0 -12 -8 -20 -20 -20h-211z" />
    <glyph glyph-name="Obreve" unicode="&#x14e;" horiz-adv-x="808" 
d="M404 709c198 0 359 -158 359 -359s-161 -359 -359 -359s-359 158 -359 359s161 359 359 359zM404 133c116 0 207 90 207 217s-91 217 -207 217c-117 0 -207 -90 -207 -217s90 -217 207 -217zM449 893c3 11 10 19 22 19l63 1c12 0 20 -8 19 -20c-9 -86 -77 -134 -149 -134
s-141 48 -150 134c-1 12 7 20 19 20l62 -1c12 0 19 -8 22 -19c6 -28 25 -40 47 -40s39 15 45 40z" />
    <glyph glyph-name="Ncommaaccent" unicode="&#x145;" horiz-adv-x="787" 
d="M686 700c12 0 20 -8 20 -20v-660c0 -12 -8 -20 -20 -20h-122c-6 0 -12 3 -16 8l-315 431v-419c0 -12 -8 -20 -20 -20h-112c-12 0 -20 8 -20 20v660c0 12 8 20 20 20h122c6 0 12 -3 16 -8l315 -433v421c0 12 8 20 20 20h112zM420 -60c17 0 25 -11 19 -27l-53 -137
c-3 -8 -10 -13 -19 -13h-57c-14 0 -22 10 -19 24l28 137c2 10 10 16 19 16h82z" />
    <glyph glyph-name="Nacute" unicode="&#x143;" horiz-adv-x="787" 
d="M686 700c12 0 20 -8 20 -20v-660c0 -12 -8 -20 -20 -20h-122c-6 0 -12 3 -16 8l-315 431v-419c0 -12 -8 -20 -20 -20h-112c-12 0 -20 8 -20 20v660c0 12 8 20 20 20h122c6 0 12 -3 16 -8l315 -433v421c0 12 8 20 20 20h112zM485 913c20 0 27 -12 17 -30l-63 -113
c-4 -6 -11 -10 -18 -10h-59c-17 0 -24 11 -19 27l39 113c3 8 11 13 19 13h84z" />
    <glyph glyph-name="Ncaron" unicode="&#x147;" horiz-adv-x="787" 
d="M686 700c12 0 20 -8 20 -20v-660c0 -12 -8 -20 -20 -20h-122c-6 0 -12 3 -16 8l-315 431v-419c0 -12 -8 -20 -20 -20h-112c-12 0 -20 8 -20 20v660c0 12 8 20 20 20h122c6 0 12 -3 16 -8l315 -433v421c0 12 8 20 20 20h112zM523 906c24 0 30 -13 17 -32l-75 -106
c-4 -5 -10 -8 -16 -8h-112c-6 0 -12 3 -16 8l-75 106c-13 19 -7 32 17 32h86c7 0 14 -4 18 -10l26 -48l26 48c4 6 11 10 18 10h86z" />
    <glyph glyph-name="Ibreve" unicode="&#x12c;" horiz-adv-x="330" 
d="M221 700c12 0 20 -8 20 -20v-660c0 -12 -8 -20 -20 -20h-112c-12 0 -20 8 -20 20v660c0 12 8 20 20 20h112zM210 894c3 11 10 19 22 19h63c12 0 20 -8 19 -20c-9 -86 -77 -134 -149 -134s-141 48 -150 134c-1 12 7 20 19 20h62c12 0 19 -8 22 -20c6 -27 25 -39 47 -39
s39 15 45 40z" />
    <glyph glyph-name="Ubreve" unicode="&#x16c;" horiz-adv-x="744" 
d="M511 283v397c0 12 8 20 20 20h112c12 0 20 -8 20 -20v-412c0 -169 -134 -277 -291 -277s-291 108 -291 277v412c0 12 8 20 20 20h112c12 0 20 -8 20 -20v-397c0 -81 47 -150 139 -150s139 69 139 150zM417 894c3 11 10 19 22 19h63c12 0 20 -8 19 -20
c-9 -86 -77 -134 -149 -134s-141 48 -150 134c-1 12 7 20 19 20h62c12 0 19 -8 22 -20c6 -27 25 -39 47 -39s39 15 45 40z" />
    <glyph glyph-name="Ycircumflex" unicode="&#x176;" horiz-adv-x="700" 
d="M183 700c7 0 14 -4 18 -10l149 -258l149 258c4 6 11 10 18 10h132c22 0 29 -12 17 -31l-240 -375v-274c0 -12 -8 -20 -20 -20h-112c-12 0 -20 8 -20 20v274l-240 375c-12 19 -5 31 17 31h132zM406 916c6 0 12 -3 16 -8l75 -106c13 -19 6 -32 -17 -32h-80
c-7 0 -14 4 -18 10l-32 61l-32 -61c-4 -6 -11 -10 -18 -10h-80c-23 0 -30 13 -17 32l75 106c4 5 10 8 16 8h112z" />
    <glyph glyph-name="Oslashacute" unicode="&#x1fe;" horiz-adv-x="812" 
d="M512 913c20 0 27 -12 17 -30l-63 -113c-4 -6 -11 -10 -18 -10h-59c-17 0 -24 11 -19 27l39 113c3 8 11 13 19 13h84zM38 6c-8 8 -8 20 0 28l89 89c-50 62 -79 140 -79 227c0 201 161 359 359 359c85 0 164 -30 226 -80l84 84c8 8 20 8 28 0l23 -23c8 -8 8 -20 0 -28
l-84 -84c51 -61 82 -141 82 -228c0 -201 -161 -359 -359 -359c-87 0 -167 30 -229 81l-89 -89c-8 -8 -20 -8 -28 0zM407 133c116 0 207 90 207 217c0 47 -13 89 -35 123l-298 -298c34 -27 78 -42 126 -42zM200 350c0 -46 11 -88 32 -122l298 298c-34 26 -77 41 -123 41
c-117 0 -207 -90 -207 -217z" />
    <glyph glyph-name="Ygrave" unicode="&#x1ef2;" horiz-adv-x="700" 
d="M183 700c7 0 14 -4 18 -10l149 -258l149 258c4 6 11 10 18 10h132c22 0 29 -12 17 -31l-240 -375v-274c0 -12 -8 -20 -20 -20h-112c-12 0 -20 8 -20 20v274l-240 375c-12 19 -5 31 17 31h132zM311 760c-7 0 -14 4 -18 10l-63 113c-10 18 -3 30 17 30h84c8 0 16 -5 19 -13
l39 -113c5 -16 -2 -27 -19 -27h-59z" />
    <glyph glyph-name="Zacute" unicode="&#x179;" horiz-adv-x="549" 
d="M37 134c0 3 1 8 4 11l288 415h-273c-12 0 -20 8 -20 20v100c0 12 8 20 20 20h437c12 0 20 -8 20 -20v-113c0 -3 -1 -8 -4 -11l-289 -416h273c12 0 20 -8 20 -20v-100c0 -12 -8 -20 -20 -20h-436c-12 0 -20 8 -20 20v114zM373 913c20 0 27 -12 17 -30l-63 -113
c-4 -6 -11 -10 -18 -10h-59c-17 0 -24 11 -19 27l39 113c3 8 11 13 19 13h84z" />
    <glyph glyph-name="Zdotaccent" unicode="&#x17b;" horiz-adv-x="549" 
d="M37 134c0 3 1 8 4 11l288 415h-273c-12 0 -20 8 -20 20v100c0 12 8 20 20 20h437c12 0 20 -8 20 -20v-113c0 -3 -1 -8 -4 -11l-289 -416h273c12 0 20 -8 20 -20v-100c0 -12 -8 -20 -20 -20h-436c-12 0 -20 8 -20 20v114zM196 838c0 42 36 78 78 78s78 -36 78 -78
s-36 -78 -78 -78s-78 36 -78 78z" />
    <glyph glyph-name="Wacute" unicode="&#x1e82;" horiz-adv-x="1036" 
d="M990 700c17 0 25 -10 19 -26l-215 -660c-2 -8 -10 -14 -19 -14h-114c-9 0 -17 6 -19 14l-124 422l-124 -422c-2 -8 -10 -14 -19 -14h-114c-9 0 -17 6 -19 14l-215 660c-6 16 2 26 19 26h117c9 0 17 -6 19 -14l133 -457l122 456c2 9 10 15 19 15h124c9 0 17 -6 19 -15
l122 -456l133 457c2 8 10 14 19 14h117zM623 913c20 0 27 -12 17 -30l-63 -113c-4 -6 -11 -10 -18 -10h-59c-17 0 -24 11 -19 27l39 113c3 8 11 13 19 13h84z" />
    <glyph glyph-name="Wcircumflex" unicode="&#x174;" horiz-adv-x="1036" 
d="M990 700c17 0 25 -10 19 -26l-215 -660c-2 -8 -10 -14 -19 -14h-114c-9 0 -17 6 -19 14l-124 422l-124 -422c-2 -8 -10 -14 -19 -14h-114c-9 0 -17 6 -19 14l-215 660c-6 16 2 26 19 26h117c9 0 17 -6 19 -14l133 -457l122 456c2 9 10 15 19 15h124c9 0 17 -6 19 -15
l122 -456l133 457c2 8 10 14 19 14h117zM574 916c6 0 12 -3 16 -8l75 -106c13 -19 6 -32 -17 -32h-80c-7 0 -14 4 -18 10l-32 61l-32 -61c-4 -6 -11 -10 -18 -10h-80c-23 0 -30 13 -17 32l75 106c4 5 10 8 16 8h112z" />
    <glyph glyph-name="Wdieresis" unicode="&#x1e84;" horiz-adv-x="1036" 
d="M990 700c17 0 25 -10 19 -26l-215 -660c-2 -8 -10 -14 -19 -14h-114c-9 0 -17 6 -19 14l-124 422l-124 -422c-2 -8 -10 -14 -19 -14h-114c-9 0 -17 6 -19 14l-215 660c-6 16 2 26 19 26h117c9 0 17 -6 19 -14l133 -457l122 456c2 9 10 15 19 15h124c9 0 17 -6 19 -15
l122 -456l133 457c2 8 10 14 19 14h117zM332 838c0 42 36 78 78 78s78 -36 78 -78s-36 -78 -78 -78s-78 36 -78 78zM547 838c0 42 36 78 78 78s78 -36 78 -78s-36 -78 -78 -78s-78 36 -78 78z" />
    <glyph glyph-name="Wgrave" unicode="&#x1e80;" horiz-adv-x="1036" 
d="M990 700c17 0 25 -10 19 -26l-215 -660c-2 -8 -10 -14 -19 -14h-114c-9 0 -17 6 -19 14l-124 422l-124 -422c-2 -8 -10 -14 -19 -14h-114c-9 0 -17 6 -19 14l-215 660c-6 16 2 26 19 26h117c9 0 17 -6 19 -14l133 -457l122 456c2 9 10 15 19 15h124c9 0 17 -6 19 -15
l122 -456l133 457c2 8 10 14 19 14h117zM480 760c-7 0 -14 4 -18 10l-63 113c-10 18 -3 30 17 30h84c8 0 16 -5 19 -13l39 -113c5 -16 -2 -27 -19 -27h-59z" />
    <glyph glyph-name="Uhungarumlaut" unicode="&#x170;" horiz-adv-x="744" 
d="M511 283v397c0 12 8 20 20 20h112c12 0 20 -8 20 -20v-412c0 -169 -134 -277 -291 -277s-291 108 -291 277v412c0 12 8 20 20 20h112c12 0 20 -8 20 -20v-397c0 -81 47 -150 139 -150s139 69 139 150zM367 913c20 0 27 -12 17 -30l-63 -113c-4 -6 -11 -10 -18 -10h-71
c-17 0 -24 11 -19 27l39 113c3 8 11 13 19 13h96zM564 913c20 0 27 -12 17 -30l-63 -113c-4 -6 -11 -10 -18 -10h-71c-17 0 -24 11 -19 27l39 113c3 8 11 13 19 13h96z" />
    <glyph glyph-name="Umacron" unicode="&#x16a;" horiz-adv-x="744" 
d="M511 283v397c0 12 8 20 20 20h112c12 0 20 -8 20 -20v-412c0 -169 -134 -277 -291 -277s-291 108 -291 277v412c0 12 8 20 20 20h112c12 0 20 -8 20 -20v-397c0 -81 47 -150 139 -150s139 69 139 150zM266 770c-12 0 -20 8 -20 20v71c0 12 8 20 20 20h211
c12 0 20 -8 20 -20v-71c0 -12 -8 -20 -20 -20h-211z" />
    <glyph glyph-name="Uogonek" unicode="&#x172;" horiz-adv-x="744" 
d="M511 283v397c0 12 8 20 20 20h112c12 0 20 -8 20 -20v-412c0 -140 -92 -238 -212 -268c-51 -17 -65 -63 -65 -88c0 -20 17 -30 37 -30c11 0 21 0 32 3c18 5 29 -1 29 -20v-63c0 -7 -4 -14 -11 -17c-25 -10 -54 -14 -73 -14c-72 0 -125 48 -125 125c0 25 12 67 45 99
c-134 21 -239 123 -239 273v412c0 12 8 20 20 20h112c12 0 20 -8 20 -20v-397c0 -81 47 -150 139 -150s139 69 139 150z" />
    <glyph glyph-name="Uring" unicode="&#x16e;" horiz-adv-x="744" 
d="M511 283v397c0 12 8 20 20 20h112c12 0 20 -8 20 -20v-412c0 -169 -134 -277 -291 -277s-291 108 -291 277v412c0 12 8 20 20 20h112c12 0 20 -8 20 -20v-397c0 -81 47 -150 139 -150s139 69 139 150zM273 859c0 56 43 99 99 99s99 -43 99 -99s-43 -99 -99 -99
s-99 43 -99 99zM335 859c0 -20 17 -37 37 -37s36 17 36 37s-16 36 -36 36s-37 -16 -37 -36z" />
    <glyph glyph-name="Utilde" unicode="&#x168;" horiz-adv-x="744" 
d="M511 283v397c0 12 8 20 20 20h112c12 0 20 -8 20 -20v-412c0 -169 -134 -277 -291 -277s-291 108 -291 277v412c0 12 8 20 20 20h112c12 0 20 -8 20 -20v-397c0 -81 47 -150 139 -150s139 69 139 150zM413 759c-39 0 -67 38 -90 38c-15 0 -24 -7 -30 -15
c-7 -10 -16 -16 -29 -13l-48 15c-7 2 -12 9 -11 16c7 30 39 95 119 95c50 -2 63 -38 94 -38c13 0 23 8 30 16c9 11 21 17 38 11l43 -18c7 -3 11 -10 9 -17c-11 -28 -47 -90 -125 -90z" />
    <glyph glyph-name="Hbar" unicode="&#x126;" horiz-adv-x="803" 
d="M766 523h-52v-503c0 -12 -8 -20 -20 -20h-112c-12 0 -20 8 -20 20v268h-321v-268c0 -12 -8 -20 -20 -20h-112c-12 0 -20 8 -20 20v503h-52c-12 0 -20 8 -20 20v29c0 12 8 20 20 20h52v88c0 12 8 20 20 20h112c12 0 20 -8 20 -20v-88h321v88c0 12 8 20 20 20h112
c12 0 20 -8 20 -20v-88h52c12 0 20 -8 20 -20v-29c0 -12 -8 -20 -20 -20zM241 428h321v95h-321v-95z" />
    <glyph glyph-name="Hcircumflex" unicode="&#x124;" horiz-adv-x="787" 
d="M686 700c12 0 20 -8 20 -20v-660c0 -12 -8 -20 -20 -20h-112c-12 0 -20 8 -20 20v268h-321v-268c0 -12 -8 -20 -20 -20h-112c-12 0 -20 8 -20 20v660c0 12 8 20 20 20h112c12 0 20 -8 20 -20v-252h321v252c0 12 8 20 20 20h112zM449 916c6 0 12 -3 16 -8l75 -106
c13 -19 6 -32 -17 -32h-80c-7 0 -14 4 -18 10l-32 61l-32 -61c-4 -6 -11 -10 -18 -10h-80c-23 0 -30 13 -17 32l75 106c4 5 10 8 16 8h112z" />
    <glyph glyph-name="Idotaccent" unicode="&#x130;" horiz-adv-x="316" 
d="M214 700c12 0 20 -8 20 -20v-660c0 -12 -8 -20 -20 -20h-112c-12 0 -20 8 -20 20v660c0 12 8 20 20 20h112zM80 838c0 42 36 78 78 78s78 -36 78 -78s-36 -78 -78 -78s-78 36 -78 78z" />
    <glyph glyph-name="Imacron" unicode="&#x12a;" horiz-adv-x="324" 
d="M218 700c12 0 20 -8 20 -20v-660c0 -12 -8 -20 -20 -20h-112c-12 0 -20 8 -20 20v660c0 12 8 20 20 20h112zM56 770c-12 0 -20 8 -20 20v71c0 12 8 20 20 20h211c12 0 20 -8 20 -20v-71c0 -12 -8 -20 -20 -20h-211z" />
    <glyph glyph-name="Iogonek" unicode="&#x12e;" horiz-adv-x="320" 
d="M218 700c12 0 20 -8 20 -20v-664c0 -10 -7 -17 -15 -21c-48 -18 -74 -60 -74 -83c0 -20 17 -30 37 -30c11 0 20 0 31 3c18 5 28 0 28 -19v-64c0 -7 -4 -14 -11 -17c-25 -10 -54 -14 -73 -14c-72 0 -125 48 -125 125c0 27 12 78 50 104v680c0 12 8 20 20 20h112z" />
    <glyph glyph-name="Itilde" unicode="&#x128;" horiz-adv-x="332" 
d="M222 700c12 0 20 -8 20 -20v-660c0 -12 -8 -20 -20 -20h-112c-12 0 -20 8 -20 20v660c0 12 8 20 20 20h112zM208 759c-39 0 -67 38 -90 38c-15 0 -24 -7 -30 -15c-7 -10 -16 -16 -29 -13l-48 15c-7 2 -12 9 -11 16c7 30 39 95 119 95c50 -2 63 -38 94 -38
c13 0 23 8 30 16c9 11 21 17 38 11l43 -18c7 -3 11 -10 9 -17c-11 -28 -47 -90 -125 -90z" />
    <glyph glyph-name="IJ" unicode="&#x132;" horiz-adv-x="872" 
d="M213 700c12 0 20 -8 20 -20v-660c0 -12 -8 -20 -20 -20h-112c-12 0 -20 8 -20 20v660c0 12 8 20 20 20h112zM328 179c-3 11 2 20 13 23l102 31c13 3 23 -3 27 -16c13 -46 45 -79 87 -79c52 0 92 36 92 88v454c0 12 8 20 20 20h111c12 0 20 -8 20 -20v-454
c0 -145 -105 -235 -240 -235c-117 0 -200 71 -232 188z" />
    <glyph glyph-name="Jcircumflex" unicode="&#x134;" horiz-adv-x="557" 
d="M5 179c-3 11 2 20 13 23l102 31c13 3 23 -3 27 -16c13 -46 45 -79 87 -79c52 0 92 36 92 88v454c0 12 8 20 20 20h111c12 0 20 -8 20 -20v-454c0 -145 -105 -235 -240 -235c-117 0 -200 71 -232 188zM450 916c6 0 12 -3 16 -8l75 -106c13 -19 7 -32 -17 -32h-80
c-7 0 -14 4 -18 10l-32 60l-32 -60c-4 -6 -11 -10 -18 -10h-80c-24 0 -30 13 -17 32l75 106c4 5 10 8 16 8h112z" />
    <glyph glyph-name="Kcommaaccent" unicode="&#x136;" horiz-adv-x="709" 
d="M213 700c12 0 20 -8 20 -20v-259l228 272c4 4 10 7 15 7h151c28 0 33 -13 15 -34l-295 -316l295 -316c18 -21 13 -34 -15 -34h-151c-5 0 -11 3 -15 7l-228 270v-257c0 -12 -8 -20 -20 -20h-112c-12 0 -20 8 -20 20v660c0 12 8 20 20 20h112zM374 -60c17 0 25 -11 19 -27
l-53 -137c-3 -8 -10 -13 -19 -13h-57c-14 0 -22 10 -19 24l28 137c2 10 10 16 19 16h82z" />
    <glyph glyph-name="Sacute" unicode="&#x15a;" horiz-adv-x="599" 
d="M404 913c20 0 27 -12 17 -30l-63 -113c-4 -6 -11 -10 -18 -10h-59c-17 0 -24 11 -19 26l39 113c3 9 11 14 19 14h84zM299 -9c-76 0 -159 25 -244 97c-9 8 -9 19 -2 28l59 73c9 11 21 11 31 1c48 -42 111 -63 157 -63c55 0 104 26 104 73c0 102 -317 91 -317 308
c0 133 107 201 224 201c80 0 140 -13 222 -70c10 -6 11 -17 5 -27l-55 -77c-7 -10 -19 -12 -29 -5c-37 24 -92 47 -140 47s-82 -25 -83 -68c-1 -97 323 -95 323 -308c0 -127 -123 -210 -255 -210z" />
    <glyph glyph-name="Scedilla" unicode="&#x15e;" horiz-adv-x="599" 
d="M298 -104h-18c-10 0 -17 7 -17 17v80c-66 7 -137 34 -208 95c-9 8 -9 19 -2 28l59 73c9 11 21 11 31 1c48 -42 111 -63 157 -63c55 0 104 26 104 73c0 102 -317 91 -317 308c0 133 107 201 224 201c80 0 140 -13 222 -70c10 -6 11 -17 5 -27l-55 -77
c-7 -10 -19 -12 -29 -5c-37 24 -92 47 -140 47s-82 -25 -83 -68c-1 -97 323 -95 323 -308c0 -119 -109 -200 -231 -209v-27c68 -6 97 -50 97 -99c0 -77 -72 -106 -126 -106c-27 0 -61 7 -92 25c-9 6 -12 16 -6 25l18 33c7 11 18 14 30 10c16 -5 37 -10 52 -9
c17 1 31 12 31 27c0 19 -15 25 -29 25z" />
    <glyph glyph-name="Scircumflex" unicode="&#x15c;" horiz-adv-x="599" 
d="M371 916c6 0 12 -3 16 -9l75 -106c13 -18 7 -31 -17 -31h-80c-7 0 -14 4 -18 11l-32 60l-32 -60c-4 -7 -11 -11 -18 -11h-80c-24 0 -30 13 -17 31l75 106c4 6 10 9 16 9h112zM299 -9c-76 0 -159 25 -244 97c-9 8 -9 19 -2 28l59 73c9 11 21 11 31 1
c48 -42 111 -63 157 -63c55 0 104 26 104 73c0 102 -317 91 -317 308c0 133 107 201 224 201c80 0 140 -13 222 -70c10 -6 11 -17 5 -27l-55 -77c-7 -10 -19 -12 -29 -5c-37 24 -92 47 -140 47s-82 -25 -83 -68c-1 -97 323 -95 323 -308c0 -127 -123 -210 -255 -210z" />
    <glyph glyph-name="Scommaaccent" unicode="&#x218;" horiz-adv-x="599" 
d="M369 -60l-68 -177h-95l36 177h127zM299 -9c-80 0 -168 28 -258 110l86 106c48 -54 122 -80 173 -80c55 0 104 26 104 73c0 102 -317 91 -317 308c0 133 107 201 224 201c85 0 148 -15 238 -81l-78 -110c-35 28 -101 59 -157 59c-48 0 -82 -25 -83 -68
c-1 -97 323 -95 323 -308c0 -127 -123 -210 -255 -210z" />
    <glyph glyph-name="Tbar" unicode="&#x166;" horiz-adv-x="528" 
d="M422 408c12 0 20 -8 20 -20v-35c0 -12 -8 -20 -20 -20h-82v-313c0 -12 -8 -20 -20 -20h-112c-12 0 -20 8 -20 20v313h-82c-12 0 -20 8 -20 20v35c0 12 8 20 20 20h82v152h-150c-12 0 -20 8 -20 20v100c0 12 8 20 20 20h452c12 0 20 -8 20 -20v-100c0 -12 -8 -20 -20 -20
h-150v-152h82z" />
    <glyph glyph-name="Tcaron" unicode="&#x164;" horiz-adv-x="528" 
d="M340 560v-540c0 -12 -8 -20 -20 -20h-112c-12 0 -20 8 -20 20v540h-150c-12 0 -20 8 -20 20v100c0 12 8 20 20 20h452c12 0 20 -8 20 -20v-100c0 -12 -8 -20 -20 -20h-150zM394 906c24 0 30 -13 17 -32l-75 -106c-4 -5 -10 -8 -16 -8h-112c-6 0 -12 3 -16 8l-75 106
c-13 19 -7 32 17 32h80c7 0 14 -4 18 -10l32 -60l32 60c4 6 11 10 18 10h80z" />
    <glyph glyph-name="Tcommaaccent" unicode="&#x162;" horiz-adv-x="528" 
d="M340 560v-540c0 -12 -8 -20 -20 -20h-112c-12 0 -20 8 -20 20v540h-150c-12 0 -20 8 -20 20v100c0 12 8 20 20 20h452c12 0 20 -8 20 -20v-100c0 -12 -8 -20 -20 -20h-150zM296 -60c17 0 25 -11 19 -27l-53 -137c-3 -8 -10 -13 -19 -13h-57c-14 0 -22 10 -19 24l28 137
c2 10 10 16 19 16h82z" />
    <glyph glyph-name="Racute" unicode="&#x154;" horiz-adv-x="642" 
d="M443 0c-7 0 -13 4 -17 9l-161 255h-32v-244c0 -12 -8 -20 -20 -20h-112c-12 0 -20 8 -20 20v660c0 12 8 20 20 20h246c118 0 215 -87 215 -218c0 -103 -61 -182 -144 -206l170 -245c13 -18 7 -31 -16 -31h-129zM324 560h-91v-156h91c78 0 87 59 87 78s-9 78 -87 78z
M338 913c20 0 27 -12 17 -30l-63 -113c-4 -6 -11 -10 -18 -10h-59c-17 0 -24 11 -19 27l39 113c3 8 11 13 19 13h84z" />
    <glyph glyph-name="Rcaron" unicode="&#x158;" horiz-adv-x="642" 
d="M443 0c-7 0 -13 4 -17 9l-161 255h-32v-244c0 -12 -8 -20 -20 -20h-112c-12 0 -20 8 -20 20v660c0 12 8 20 20 20h246c118 0 215 -87 215 -218c0 -103 -61 -182 -144 -206l170 -245c13 -18 7 -31 -16 -31h-129zM324 560h-91v-156h91c78 0 87 59 87 78s-9 78 -87 78z
M418 906c24 0 30 -13 17 -32l-75 -106c-4 -5 -10 -8 -16 -8h-112c-6 0 -12 3 -16 8l-75 106c-13 19 -7 32 17 32h81c7 0 14 -4 18 -10l32 -60l32 60c4 6 11 10 18 10h79z" />
    <glyph glyph-name="Rcommaaccent" unicode="&#x156;" horiz-adv-x="642" 
d="M443 0c-7 0 -13 4 -17 9l-161 255h-32v-244c0 -12 -8 -20 -20 -20h-112c-12 0 -20 8 -20 20v660c0 12 8 20 20 20h246c118 0 215 -87 215 -218c0 -103 -61 -182 -144 -206l170 -245c13 -18 7 -31 -16 -31h-129zM324 560h-91v-156h91c78 0 87 59 87 78s-9 78 -87 78z
M350 -60c17 0 25 -11 19 -27l-53 -137c-3 -8 -10 -13 -19 -13h-57c-14 0 -22 10 -19 24l28 137c2 10 10 16 19 16h82z" />
    <glyph glyph-name="Lcaron" unicode="&#x13d;" horiz-adv-x="533" 
d="M233 140h253c12 0 20 -8 20 -20v-100c0 -12 -8 -20 -20 -20h-385c-12 0 -20 8 -20 20v660c0 12 8 20 20 20h112c12 0 20 -8 20 -20v-540zM455 700c16 0 24 -10 20 -26l-57 -194c-2 -8 -10 -14 -19 -14h-78c-14 0 -22 9 -19 23l29 194c2 10 10 17 20 17h104z" />
    <glyph glyph-name="Lacute" unicode="&#x139;" horiz-adv-x="524" 
d="M233 140h253c12 0 20 -8 20 -20v-100c0 -12 -8 -20 -20 -20h-385c-12 0 -20 8 -20 20v660c0 12 8 20 20 20h112c12 0 20 -8 20 -20v-540zM264 913c20 0 27 -12 17 -30l-63 -113c-4 -6 -11 -10 -18 -10h-59c-17 0 -24 11 -19 27l39 113c3 8 11 13 19 13h84z" />
    <glyph glyph-name="Lcommaaccent" unicode="&#x13b;" horiz-adv-x="524" 
d="M233 140h253c12 0 20 -8 20 -20v-100c0 -12 -8 -20 -20 -20h-385c-12 0 -20 8 -20 20v660c0 12 8 20 20 20h112c12 0 20 -8 20 -20v-540zM319 -60c17 0 25 -11 19 -27l-53 -137c-3 -8 -10 -13 -19 -13h-57c-14 0 -22 10 -19 24l28 137c2 10 10 16 19 16h82z" />
    <glyph glyph-name="Ldot" unicode="&#x13f;" horiz-adv-x="524" 
d="M233 140h253c12 0 20 -8 20 -20v-100c0 -12 -8 -20 -20 -20h-385c-12 0 -20 8 -20 20v660c0 12 8 20 20 20h112c12 0 20 -8 20 -20v-540zM487 364c0 43 -35 78 -78 78s-78 -35 -78 -78s35 -78 78 -78s78 35 78 78z" />
    <glyph glyph-name="Lslash" unicode="&#x141;" horiz-adv-x="530" 
d="M239 140h253c12 0 20 -8 20 -20v-100c0 -12 -8 -20 -20 -20h-385c-12 0 -20 8 -20 20v201l-72 -34c-11 -5 -21 -1 -27 10l-20 44c-6 11 -2 21 9 26l110 51v362c0 12 8 20 20 20h112c12 0 20 -8 20 -20v-291l168 79c11 5 21 1 27 -10l20 -44c6 -11 2 -21 -9 -27l-206 -96
v-151z" />
    <glyph glyph-name="ebreve" unicode="&#x115;" horiz-adv-x="475" 
d="M319 126c10 6 22 4 28 -6l41 -61c6 -8 5 -19 -3 -25c-39 -30 -87 -43 -142 -43c-115 0 -207 85 -207 209c0 130 95 209 210 209c118 0 193 -94 193 -209c0 -5 0 -10 -1 -15c-1 -8 -8 -14 -17 -14h-249c7 -40 48 -61 86 -61c21 0 42 7 61 16zM247 290
c-25 0 -59 -14 -71 -46h131c-5 28 -29 46 -60 46zM294 594c3 11 10 19 22 19h63c12 0 20 -8 19 -20c-9 -86 -77 -134 -149 -134s-141 48 -150 134c-1 12 7 20 19 20h62c12 0 19 -8 22 -20c6 -27 25 -39 47 -39s39 15 45 40z" />
    <glyph glyph-name="ecaron" unicode="&#x11b;" horiz-adv-x="475" 
d="M319 126c10 6 22 4 28 -6l41 -61c6 -8 5 -19 -3 -25c-39 -30 -87 -43 -142 -43c-115 0 -207 85 -207 209c0 130 95 209 210 209c118 0 193 -94 193 -209c0 -5 0 -10 -1 -15c-1 -8 -8 -14 -17 -14h-249c7 -40 48 -61 86 -61c21 0 42 7 61 16zM247 290
c-25 0 -59 -14 -71 -46h131c-5 28 -29 46 -60 46zM377 606c24 0 30 -13 17 -32l-75 -106c-4 -5 -10 -8 -16 -8h-112c-6 0 -12 3 -16 8l-75 106c-13 19 -7 32 17 32h80c7 0 14 -4 18 -10l32 -60l32 60c4 6 11 10 18 10h80z" />
    <glyph glyph-name="cdotaccent" unicode="&#x10b;" horiz-adv-x="471" 
d="M248 120c23 0 49 9 68 28c10 9 21 11 31 3l69 -56c8 -7 10 -18 3 -27c-42 -52 -103 -77 -175 -77c-115 0 -208 82 -208 209s93 209 208 209c72 0 133 -25 175 -77c7 -9 5 -20 -3 -27l-69 -56c-10 -8 -21 -6 -31 3c-19 19 -45 28 -68 28c-38 0 -76 -26 -76 -80
s38 -80 76 -80zM168 538c0 42 36 78 78 78s78 -36 78 -78s-36 -78 -78 -78s-78 36 -78 78z" />
    <glyph glyph-name="edotaccent" unicode="&#x117;" horiz-adv-x="475" 
d="M319 126c10 6 22 4 28 -6l41 -61c6 -8 5 -19 -3 -25c-39 -30 -87 -43 -142 -43c-115 0 -207 85 -207 209c0 130 95 209 210 209c118 0 193 -94 193 -209c0 -5 0 -10 -1 -15c-1 -8 -8 -14 -17 -14h-249c7 -40 48 -61 86 -61c21 0 42 7 61 16zM247 290
c-25 0 -59 -14 -71 -46h131c-5 28 -29 46 -60 46zM169 538c0 42 36 78 78 78s78 -36 78 -78s-36 -78 -78 -78s-78 36 -78 78z" />
    <glyph glyph-name="emacron" unicode="&#x113;" horiz-adv-x="475" 
d="M319 126c10 6 22 4 28 -6l41 -61c6 -8 5 -19 -3 -25c-39 -30 -87 -43 -142 -43c-115 0 -207 85 -207 209c0 130 95 209 210 209c118 0 193 -94 193 -209c0 -5 0 -10 -1 -15c-1 -8 -8 -14 -17 -14h-249c7 -40 48 -61 86 -61c21 0 42 7 61 16zM247 290
c-25 0 -59 -14 -71 -46h131c-5 28 -29 46 -60 46zM140 470c-12 0 -20 8 -20 20v71c0 12 8 20 20 20h211c12 0 20 -8 20 -20v-71c0 -12 -8 -20 -20 -20h-211z" />
    <glyph glyph-name="eogonek" unicode="&#x119;" horiz-adv-x="475" 
d="M319 126c10 6 22 4 28 -6l42 -61c5 -8 4 -19 -4 -25c-18 -14 -37 -25 -59 -31c-49 -18 -61 -54 -61 -85c0 -18 11 -36 38 -36c11 0 21 0 32 3c18 5 29 -1 29 -20v-63c0 -7 -4 -14 -11 -17c-25 -10 -54 -14 -73 -14c-72 0 -125 48 -125 125c0 25 12 67 45 99
c-94 18 -164 97 -164 205c0 130 95 209 210 209c118 0 193 -94 193 -209c0 -5 0 -10 -1 -15c-1 -8 -8 -14 -17 -14h-249c7 -40 48 -61 86 -61c21 0 42 7 61 16zM247 290c-25 0 -59 -14 -71 -46h131c-5 28 -29 46 -60 46z" />
    <glyph glyph-name="dcaron" unicode="&#x10f;" horiz-adv-x="811" 
d="M36 200c0 128 84 209 203 209c39 0 98 -18 126 -51v322c0 12 8 20 20 20h102c12 0 20 -8 20 -20v-660c0 -12 -8 -20 -20 -20h-102c-12 0 -20 8 -20 20v22c-28 -33 -87 -51 -126 -51c-119 0 -203 84 -203 209zM183 200c0 -54 41 -89 89 -89c59 0 92 45 92 89
s-33 89 -92 89c-48 0 -89 -35 -89 -89zM784 700c16 0 24 -10 20 -26l-57 -194c-2 -8 -10 -14 -19 -14h-78c-14 0 -22 9 -19 23l29 194c2 10 10 17 20 17h104z" />
    <glyph glyph-name="dcroat" unicode="&#x111;" horiz-adv-x="577" 
d="M36 200c0 128 84 209 203 209c39 0 98 -18 126 -51v167h-129c-12 0 -20 8 -20 20v26c0 12 8 20 20 20h129v89c0 12 8 20 20 20h102c12 0 20 -8 20 -20v-89h56c12 0 20 -8 20 -20v-26c0 -12 -8 -20 -20 -20h-56v-505c0 -12 -8 -20 -20 -20h-102c-12 0 -20 8 -20 20v22
c-28 -33 -87 -51 -126 -51c-119 0 -203 84 -203 209zM183 200c0 -54 41 -89 89 -89c59 0 92 45 92 89s-33 89 -92 89c-48 0 -89 -35 -89 -89z" />
    <glyph glyph-name="abreve" unicode="&#x103;" 
d="M36 200c0 128 84 209 203 209c39 0 98 -18 126 -51v22c0 12 8 20 20 20h102c12 0 20 -8 20 -20v-360c0 -12 -8 -20 -20 -20h-102c-12 0 -20 8 -20 20v22c-28 -33 -87 -51 -126 -51c-119 0 -203 81 -203 209zM183 200c0 -54 41 -89 89 -89c59 0 92 45 92 89s-33 89 -92 89
c-48 0 -89 -35 -89 -89zM331 593c3 11 10 19 22 19h63c12 0 20 -8 19 -20c-9 -86 -77 -134 -149 -134s-141 48 -150 134c-1 12 7 20 19 20h62c12 0 19 -8 22 -20c6 -27 25 -39 47 -39s39 15 45 40z" />
    <glyph glyph-name="amacron" unicode="&#x101;" 
d="M36 200c0 128 84 209 203 209c39 0 98 -18 126 -51v22c0 12 8 20 20 20h102c12 0 20 -8 20 -20v-360c0 -12 -8 -20 -20 -20h-102c-12 0 -20 8 -20 20v22c-28 -33 -87 -51 -126 -51c-119 0 -203 81 -203 209zM183 200c0 -54 41 -89 89 -89c59 0 92 45 92 89s-33 89 -92 89
c-48 0 -89 -35 -89 -89zM170 470c-12 0 -20 8 -20 20v71c0 12 8 20 20 20h211c12 0 20 -8 20 -20v-71c0 -12 -8 -20 -20 -20h-211z" />
    <glyph glyph-name="aogonek" unicode="&#x105;" horiz-adv-x="572" 
d="M36 200c0 128 84 209 203 209c39 0 98 -18 126 -51v22c0 12 8 20 20 20h102c12 0 20 -8 20 -20v-365c0 -9 -6 -16 -14 -20c-35 -15 -68 -49 -68 -77c0 -18 11 -36 38 -36c11 0 21 0 32 3c18 5 29 -1 29 -20v-63c0 -7 -4 -14 -11 -17c-25 -10 -54 -14 -73 -14
c-72 0 -125 48 -125 125c0 27 14 72 50 104v42c-28 -33 -87 -51 -126 -51c-119 0 -203 81 -203 209zM183 200c0 -54 41 -89 89 -89c59 0 92 45 92 89s-33 89 -92 89c-48 0 -89 -35 -89 -89z" />
    <glyph glyph-name="cacute" unicode="&#x107;" horiz-adv-x="471" 
d="M248 120c23 0 49 9 68 28c10 9 21 11 31 3l69 -56c8 -7 10 -18 3 -27c-42 -52 -103 -77 -175 -77c-115 0 -208 82 -208 209s93 209 208 209c72 0 133 -25 175 -77c7 -9 5 -20 -3 -27l-69 -56c-10 -8 -21 -6 -31 3c-19 19 -45 28 -68 28c-38 0 -76 -26 -76 -80
s38 -80 76 -80zM348 613c20 0 27 -12 17 -30l-63 -113c-4 -6 -11 -10 -18 -10h-59c-17 0 -24 11 -19 27l39 113c3 8 11 13 19 13h84z" />
    <glyph glyph-name="ccaron" unicode="&#x10d;" horiz-adv-x="471" 
d="M248 120c23 0 49 9 68 28c10 9 21 11 31 3l69 -56c8 -7 10 -18 3 -27c-42 -52 -103 -77 -175 -77c-115 0 -208 82 -208 209s93 209 208 209c72 0 133 -25 175 -77c7 -9 5 -20 -3 -27l-69 -56c-10 -8 -21 -6 -31 3c-19 19 -45 28 -68 28c-38 0 -76 -26 -76 -80
s38 -80 76 -80zM376 606c24 0 30 -13 17 -32l-75 -106c-4 -5 -10 -8 -16 -8h-112c-6 0 -12 3 -16 8l-75 106c-13 19 -7 32 17 32h80c7 0 14 -4 18 -10l32 -60l32 60c4 6 11 10 18 10h80z" />
    <glyph glyph-name="ccircumflex" unicode="&#x109;" horiz-adv-x="471" 
d="M248 120c23 0 49 9 68 28c10 9 21 11 31 3l69 -56c8 -7 10 -18 3 -27c-42 -52 -103 -77 -175 -77c-115 0 -208 82 -208 209s93 209 208 209c72 0 133 -25 175 -77c7 -9 5 -20 -3 -27l-69 -56c-10 -8 -21 -6 -31 3c-19 19 -45 28 -68 28c-38 0 -76 -26 -76 -80
s38 -80 76 -80zM300 616c6 0 12 -3 16 -8l75 -106c13 -19 6 -32 -17 -32h-80c-7 0 -14 4 -18 10l-32 61l-32 -61c-4 -6 -11 -10 -18 -10h-80c-23 0 -30 13 -17 32l75 106c4 5 10 8 16 8h112z" />
    <glyph glyph-name="wacute" unicode="&#x1e83;" horiz-adv-x="742" 
d="M699 400c17 0 25 -11 19 -27l-139 -360c-3 -8 -10 -13 -19 -13h-100c-8 0 -15 5 -18 13l-71 175l-71 -175c-3 -8 -10 -13 -18 -13h-100c-9 0 -16 5 -19 13l-139 360c-6 16 2 27 19 27h109c9 0 17 -6 19 -14l65 -214l72 214c3 9 11 14 19 14h88c8 0 16 -5 19 -14l71 -214
l66 214c2 8 10 14 19 14h109zM479 613c20 0 27 -12 17 -30l-63 -113c-4 -6 -11 -10 -18 -10h-59c-17 0 -24 11 -19 27l39 113c3 8 11 13 19 13h84z" />
    <glyph glyph-name="wcircumflex" unicode="&#x175;" horiz-adv-x="742" 
d="M699 400c17 0 25 -11 19 -27l-139 -360c-3 -8 -10 -13 -19 -13h-100c-8 0 -15 5 -18 13l-71 175l-71 -175c-3 -8 -10 -13 -18 -13h-100c-9 0 -16 5 -19 13l-139 360c-6 16 2 27 19 27h109c9 0 17 -6 19 -14l65 -214l72 214c3 9 11 14 19 14h88c8 0 16 -5 19 -14l71 -214
l66 214c2 8 10 14 19 14h109zM427 616c6 0 12 -3 16 -8l75 -106c13 -19 7 -32 -17 -32h-80c-7 0 -14 4 -18 10l-32 60l-32 -60c-4 -6 -11 -10 -18 -10h-80c-24 0 -30 13 -17 32l75 106c4 5 10 8 16 8h112z" />
    <glyph glyph-name="wdieresis" unicode="&#x1e85;" horiz-adv-x="742" 
d="M699 400c17 0 25 -11 19 -27l-139 -360c-3 -8 -10 -13 -19 -13h-100c-8 0 -15 5 -18 13l-71 175l-71 -175c-3 -8 -10 -13 -18 -13h-100c-9 0 -16 5 -19 13l-139 360c-6 16 2 27 19 27h109c9 0 17 -6 19 -14l65 -214l72 214c3 9 11 14 19 14h88c8 0 16 -5 19 -14l71 -214
l66 214c2 8 10 14 19 14h109zM185 538c0 42 36 78 78 78s78 -36 78 -78s-36 -78 -78 -78s-78 36 -78 78zM400 538c0 42 36 78 78 78s78 -36 78 -78s-36 -78 -78 -78s-78 36 -78 78z" />
    <glyph glyph-name="wgrave" unicode="&#x1e81;" horiz-adv-x="742" 
d="M699 400c17 0 25 -11 19 -27l-139 -360c-3 -8 -10 -13 -19 -13h-100c-8 0 -15 5 -18 13l-71 175l-71 -175c-3 -8 -10 -13 -18 -13h-100c-9 0 -16 5 -19 13l-139 360c-6 16 2 27 19 27h109c9 0 17 -6 19 -14l65 -214l72 214c3 9 11 14 19 14h88c8 0 16 -5 19 -14l71 -214
l66 214c2 8 10 14 19 14h109zM318 460c-7 0 -14 4 -18 10l-63 113c-10 18 -3 30 17 30h84c8 0 16 -5 19 -13l39 -113c5 -16 -2 -27 -19 -27h-59z" />
    <glyph glyph-name="gbreve" unicode="&#x11f;" 
d="M507 -30c-6 -153 -112 -227 -232 -227c-66 0 -137 23 -196 67c-9 7 -10 18 -4 27l54 72c8 11 20 12 32 3c28 -20 69 -33 106 -33c52 0 98 25 98 90v74c-29 -34 -87 -52 -126 -52c-119 0 -203 81 -203 209c0 125 84 209 203 209c39 0 98 -18 126 -51v22c0 12 8 20 20 20
h102c12 0 20 -8 20 -20v-410zM183 200c0 -54 41 -89 89 -89c59 0 92 45 92 89s-33 89 -92 89c-48 0 -89 -35 -89 -89zM338 594c3 11 10 19 22 19h63c12 0 20 -8 19 -20c-9 -86 -77 -134 -149 -134s-141 48 -150 134c-1 12 7 20 19 20h62c12 0 19 -8 22 -20
c6 -27 25 -39 47 -39s39 15 45 40z" />
    <glyph glyph-name="gcircumflex" unicode="&#x11d;" 
d="M507 -30c-6 -153 -112 -227 -232 -227c-66 0 -137 23 -196 67c-9 7 -10 18 -4 27l54 72c8 11 20 12 32 3c28 -20 69 -33 106 -33c52 0 98 25 98 90v74c-29 -34 -87 -52 -126 -52c-119 0 -203 81 -203 209c0 125 84 209 203 209c39 0 98 -18 126 -51v22c0 12 8 20 20 20
h102c12 0 20 -8 20 -20v-410zM183 200c0 -54 41 -89 89 -89c59 0 92 45 92 89s-33 89 -92 89c-48 0 -89 -35 -89 -89zM337 616c6 0 12 -3 16 -8l75 -106c13 -19 6 -32 -17 -32l-80 1c-7 0 -14 4 -18 10l-32 60l-32 -60c-4 -6 -11 -10 -18 -10l-80 -1c-23 0 -30 13 -17 32
l75 106c4 5 10 8 16 8h112z" />
    <glyph glyph-name="gcommaaccent" unicode="&#x123;" 
d="M507 -30c-6 -153 -112 -227 -232 -227c-66 0 -137 23 -196 67c-9 7 -10 18 -4 27l54 72c8 11 20 12 32 3c28 -20 69 -33 106 -33c52 0 98 25 98 90v74c-29 -34 -87 -52 -126 -52c-119 0 -203 81 -203 209c0 125 84 209 203 209c39 0 98 -18 126 -51v22c0 12 8 20 20 20
h102c12 0 20 -8 20 -20v-410zM183 200c0 -54 41 -89 89 -89c59 0 92 45 92 89s-33 89 -92 89c-48 0 -89 -35 -89 -89zM223 460c-17 0 -25 11 -19 27l53 137c3 8 10 13 19 13h56c14 0 22 -10 19 -24l-28 -137c-2 -10 -10 -16 -19 -16h-81z" />
    <glyph glyph-name="gdotaccent" unicode="&#x121;" 
d="M507 -30c-6 -153 -112 -227 -232 -227c-66 0 -137 23 -196 67c-9 7 -10 18 -4 27l54 72c8 11 20 12 32 3c28 -20 69 -33 106 -33c52 0 98 25 98 90v74c-29 -34 -87 -52 -126 -52c-119 0 -203 81 -203 209c0 125 84 209 203 209c39 0 98 -18 126 -51v22c0 12 8 20 20 20
h102c12 0 20 -8 20 -20v-410zM183 200c0 -54 41 -89 89 -89c59 0 92 45 92 89s-33 89 -92 89c-48 0 -89 -35 -89 -89zM191 538c0 42 36 78 78 78s78 -36 78 -78s-36 -78 -78 -78s-78 36 -78 78z" />
    <glyph glyph-name="ibreve" unicode="&#x12d;" horiz-adv-x="281" 
d="M192 400c12 0 20 -8 20 -20v-360c0 -12 -8 -20 -20 -20h-102c-12 0 -20 8 -20 20v360c0 12 8 20 20 20h102zM187 594c3 11 10 19 22 19h63c12 0 20 -8 19 -20c-9 -86 -77 -134 -149 -134s-141 48 -150 134c-1 12 7 20 19 20h62c12 0 19 -8 22 -20c6 -27 25 -39 47 -39
s39 15 45 40z" />
    <glyph glyph-name="imacron" unicode="&#x12b;" horiz-adv-x="280" 
d="M191 400c12 0 20 -8 20 -20v-360c0 -12 -8 -20 -20 -20h-102c-12 0 -20 8 -20 20v360c0 12 8 20 20 20h102zM34 470c-12 0 -20 8 -20 20v71c0 12 8 20 20 20h211c12 0 20 -8 20 -20v-71c0 -12 -8 -20 -20 -20h-211z" />
    <glyph glyph-name="kcommaaccent" unicode="&#x137;" horiz-adv-x="542" 
d="M331 0c-5 0 -11 3 -15 7l-111 136v-123c0 -12 -8 -20 -20 -20h-102c-12 0 -20 8 -20 20v660c0 12 8 20 20 20h102c12 0 20 -8 20 -20v-423l111 136c4 4 10 7 15 7h136c29 0 34 -14 14 -34l-165 -166l165 -166c20 -20 15 -34 -14 -34h-136zM294 -60c17 0 25 -11 19 -27
l-53 -137c-3 -8 -10 -13 -19 -13h-57c-14 0 -22 10 -19 24l28 137c2 10 10 16 19 16h82z" />
    <glyph glyph-name="iogonek" unicode="&#x12f;" horiz-adv-x="276" 
d="M191 400c12 0 20 -8 20 -20v-365c0 -9 -6 -16 -14 -20c-34 -15 -68 -49 -68 -78c0 -18 11 -36 38 -36c11 0 20 1 31 4c18 5 29 -1 29 -19v-64c0 -7 -4 -14 -11 -17c-25 -10 -54 -14 -73 -14c-72 0 -125 48 -125 125c0 27 14 72 51 104v380c0 12 8 20 20 20h102zM62 538
c0 42 36 78 78 78s78 -36 78 -78s-36 -78 -78 -78s-78 36 -78 78z" />
    <glyph glyph-name="itilde" unicode="&#x129;" horiz-adv-x="278" 
d="M190 400c12 0 20 -8 20 -20v-360c0 -12 -8 -20 -20 -20h-102c-12 0 -20 8 -20 20v360c0 12 8 20 20 20h102zM181 459c-39 0 -67 38 -90 38c-15 0 -24 -7 -30 -15c-7 -10 -16 -16 -29 -13l-48 15c-7 2 -12 9 -11 16c7 30 39 95 119 95c50 -2 63 -38 94 -38
c13 0 23 8 30 16c9 11 21 17 38 11l43 -18c7 -3 11 -10 9 -17c-11 -28 -47 -90 -125 -90z" />
    <glyph glyph-name="ij" unicode="&#x133;" horiz-adv-x="552" 
d="M186 400c12 0 20 -8 20 -20v-360c0 -12 -8 -20 -20 -20h-102c-12 0 -20 8 -20 20v360c0 12 8 20 20 20h102zM57 538c0 42 36 78 78 78s78 -36 78 -78s-36 -78 -78 -78s-78 36 -78 78zM488 -80c0 -128 -96 -178 -180 -178c-43 0 -97 9 -149 49c-8 6 -9 17 -3 26l45 66
c8 11 20 12 32 6c18 -11 42 -19 64 -19c25 0 47 12 49 47v463c0 12 8 20 20 20h102c12 0 20 -8 20 -20v-460zM339 538c0 42 36 78 78 78s78 -36 78 -78s-36 -78 -78 -78s-78 36 -78 78z" />
    <glyph glyph-name="jcircumflex" unicode="&#x135;" horiz-adv-x="267" 
d="M199 -80c0 -128 -96 -178 -180 -178c-43 0 -97 9 -149 49c-8 6 -9 17 -3 26l45 66c8 11 20 12 32 6c18 -11 42 -19 64 -19c25 0 47 12 49 47v463c0 12 8 20 20 20h102c12 0 20 -8 20 -20v-460zM184 616c6 0 12 -3 16 -8l75 -106c13 -19 7 -32 -17 -32h-80
c-7 0 -14 4 -18 10l-32 60l-32 -60c-4 -6 -11 -10 -18 -10h-80c-24 0 -30 13 -17 32l75 106c4 5 10 8 16 8h112z" />
    <glyph glyph-name="hbar" unicode="&#x127;" horiz-adv-x="545" 
d="M11 525c-12 0 -20 8 -20 20v26c0 12 8 20 20 20h59v89c0 12 8 20 20 20h102c12 0 20 -8 20 -20v-89h126c12 0 20 -8 20 -20v-26c0 -12 -8 -20 -20 -20h-126v-174c26 40 73 58 112 58c88 0 162 -43 162 -177v-212c0 -12 -8 -20 -20 -20h-102c-12 0 -20 8 -20 20v206
c0 39 -22 66 -62 66c-48 0 -70 -40 -70 -65v-207c0 -12 -8 -20 -20 -20h-102c-12 0 -20 8 -20 20v505h-59z" />
    <glyph glyph-name="hcircumflex" unicode="&#x125;" horiz-adv-x="542" 
d="M87 0c-12 0 -20 8 -20 20v660c0 12 8 20 20 20h102c12 0 20 -8 20 -20v-329c26 40 73 58 112 58c88 0 162 -43 162 -177v-212c0 -12 -8 -20 -20 -20h-102c-12 0 -20 8 -20 20v206c0 39 -22 66 -62 66c-48 0 -70 -40 -70 -65v-207c0 -12 -8 -20 -20 -20h-102zM192 917
c6 0 12 -3 16 -8l75 -106c13 -19 7 -32 -17 -32h-80c-7 0 -14 4 -18 10l-32 60l-32 -60c-4 -6 -11 -10 -18 -10h-80c-24 0 -30 13 -17 32l75 106c4 5 10 8 16 8h112z" />
    <glyph glyph-name="obreve" unicode="&#x14f;" horiz-adv-x="492" 
d="M246 409c115 0 210 -85 210 -209s-95 -209 -210 -209s-210 85 -210 209s95 209 210 209zM246 121c38 0 74 28 74 79s-36 79 -74 79s-74 -28 -74 -79s36 -79 74 -79zM291 594c3 11 10 19 22 19h63c12 0 20 -8 19 -20c-9 -86 -77 -134 -149 -134s-141 48 -150 134
c-1 12 7 20 19 20h62c12 0 19 -8 22 -20c6 -27 25 -39 47 -39s39 15 45 40z" />
    <glyph glyph-name="nacute" unicode="&#x144;" horiz-adv-x="538" 
d="M83 0c-12 0 -20 8 -20 20v360c0 12 8 20 20 20h102c12 0 20 -8 20 -20v-29c26 40 73 58 112 58c88 0 162 -43 162 -177v-212c0 -12 -8 -20 -20 -20h-102c-12 0 -20 8 -20 20v206c0 39 -22 66 -62 66c-48 0 -70 -40 -70 -65v-207c0 -12 -8 -20 -20 -20h-102zM367 613
c20 0 27 -12 17 -30l-63 -113c-4 -6 -11 -10 -18 -10h-59c-17 0 -24 11 -19 27l39 113c3 8 11 13 19 13h84z" />
    <glyph glyph-name="napostrophe" unicode="&#x149;" horiz-adv-x="743" 
d="M175 700c16 0 24 -10 20 -26l-57 -194c-2 -8 -10 -14 -19 -14h-78c-14 0 -22 9 -19 23l29 194c2 10 10 17 20 17h104zM288 0c-12 0 -20 8 -20 20v360c0 12 8 20 20 20h102c12 0 20 -8 20 -20v-29c26 40 73 58 112 58c88 0 162 -43 162 -177v-212c0 -12 -8 -20 -20 -20
h-102c-12 0 -20 8 -20 20v206c0 39 -22 66 -62 66c-48 0 -70 -40 -70 -65v-207c0 -12 -8 -20 -20 -20h-102z" />
    <glyph glyph-name="ncaron" unicode="&#x148;" horiz-adv-x="538" 
d="M83 0c-12 0 -20 8 -20 20v360c0 12 8 20 20 20h102c12 0 20 -8 20 -20v-29c26 40 73 58 112 58c88 0 162 -43 162 -177v-212c0 -12 -8 -20 -20 -20h-102c-12 0 -20 8 -20 20v206c0 39 -22 66 -62 66c-48 0 -70 -40 -70 -65v-207c0 -12 -8 -20 -20 -20h-102zM391 606
c23 0 30 -13 17 -32l-75 -106c-4 -5 -10 -8 -16 -8h-112c-6 0 -12 3 -16 8l-75 106c-13 19 -6 32 17 32h80c7 0 14 -4 18 -10l32 -61l32 61c4 6 11 10 18 10h80z" />
    <glyph glyph-name="ncommaaccent" unicode="&#x146;" horiz-adv-x="538" 
d="M83 0c-12 0 -20 8 -20 20v360c0 12 8 20 20 20h102c12 0 20 -8 20 -20v-29c26 40 73 58 112 58c88 0 162 -43 162 -177v-212c0 -12 -8 -20 -20 -20h-102c-12 0 -20 8 -20 20v206c0 39 -22 66 -62 66c-48 0 -70 -40 -70 -65v-207c0 -12 -8 -20 -20 -20h-102zM304 -60
c17 0 25 -11 19 -27l-53 -137c-3 -8 -10 -13 -19 -13h-57c-14 0 -22 10 -19 24l28 137c2 10 10 16 19 16h82z" />
    <glyph glyph-name="racute" unicode="&#x155;" horiz-adv-x="360" 
d="M83 0c-12 0 -20 8 -20 20v360c0 12 8 20 20 20h102c12 0 20 -8 20 -20v-36c26 40 76 65 118 65c2 0 7 0 12 -1c7 0 11 -6 11 -13v-96c0 -13 -8 -18 -21 -15c-7 1 -14 2 -22 2c-48 0 -98 -31 -98 -86v-180c0 -12 -8 -20 -20 -20h-102zM283 613c20 0 27 -12 17 -30
l-63 -113c-4 -6 -11 -10 -18 -10h-59c-17 0 -24 11 -19 27l39 113c3 8 11 13 19 13h84z" />
    <glyph glyph-name="rcaron" unicode="&#x159;" horiz-adv-x="366" 
d="M88 0c-12 0 -20 8 -20 20v360c0 12 8 20 20 20h102c12 0 20 -8 20 -20v-36c26 40 76 65 118 65c2 0 7 0 12 -1c7 0 11 -6 11 -13v-96c0 -13 -8 -18 -21 -15c-7 1 -14 2 -22 2c-48 0 -98 -31 -98 -86v-180c0 -12 -8 -20 -20 -20h-102zM326 606c24 0 30 -13 17 -32
l-75 -106c-4 -5 -10 -8 -16 -8h-112c-6 0 -12 3 -16 8l-75 106c-13 19 -7 32 17 32h80c7 0 14 -4 18 -10l32 -60l32 60c4 6 11 10 18 10h80z" />
    <glyph glyph-name="rcommaaccent" unicode="&#x157;" horiz-adv-x="363" 
d="M86 0c-12 0 -20 8 -20 20v360c0 12 8 20 20 20h102c12 0 20 -8 20 -20v-36c26 40 76 65 118 65c2 0 7 0 12 -1c7 0 11 -6 11 -13v-96c0 -13 -8 -18 -21 -15c-7 1 -14 2 -22 2c-48 0 -98 -31 -98 -86v-180c0 -12 -8 -20 -20 -20h-102zM177 -60c17 0 25 -11 19 -27
l-53 -137c-3 -8 -10 -13 -19 -13h-57c-14 0 -22 10 -19 24l28 137c2 10 10 16 19 16h82z" />
    <glyph glyph-name="sacute" unicode="&#x15b;" horiz-adv-x="399" 
d="M117 136c-10 7 -22 5 -28 -6l-42 -64c-7 -9 -5 -20 5 -27c57 -35 107 -49 150 -48c86 2 162 52 160 135c-1 73 -67 106 -136 128c-31 10 -30 19 -30 24c0 4 3 13 15 13c16 0 47 -6 79 -22c12 -6 23 -3 29 8l36 69c5 9 2 20 -8 25c-52 29 -104 39 -148 38
c-80 -1 -144 -48 -142 -129c2 -121 168 -114 166 -155c0 -7 -9 -13 -22 -13c-30 -1 -57 8 -84 24zM311 613c20 0 27 -12 17 -30l-63 -113c-4 -6 -11 -10 -18 -10h-59c-17 0 -24 11 -19 26l39 113c3 9 11 14 19 14h84z" />
    <glyph glyph-name="scedilla" unicode="&#x15f;" horiz-adv-x="399" 
d="M196 -103h-17c-11 0 -18 7 -18 17v81c-33 5 -70 20 -109 44c-10 6 -12 18 -5 27l42 64c6 11 18 13 28 6c27 -16 54 -25 84 -24c13 0 22 6 22 13c2 41 -164 34 -166 155c-2 81 62 128 142 129c44 1 96 -9 148 -38c10 -5 13 -16 8 -25l-36 -69c-6 -11 -17 -14 -29 -8
c-32 16 -63 22 -79 22c-12 0 -15 -9 -15 -13c0 -5 -1 -14 30 -24c69 -22 135 -55 136 -128c2 -77 -63 -126 -141 -134v-26c68 -6 97 -50 97 -99c0 -77 -72 -106 -126 -106c-27 0 -61 7 -92 25c-9 6 -12 16 -6 25l18 33c7 12 18 15 30 10c16 -5 37 -10 52 -9
c17 1 31 12 31 27c0 19 -15 25 -29 25z" />
    <glyph glyph-name="scircumflex" unicode="&#x15d;" horiz-adv-x="401" 
d="M117 136c-10 7 -22 5 -28 -6l-42 -64c-7 -9 -5 -20 5 -27c57 -35 107 -49 150 -48c86 2 162 52 160 135c-1 73 -67 106 -136 128c-31 10 -30 19 -30 24c0 4 3 13 15 13c16 0 47 -6 79 -22c12 -6 23 -3 29 8l36 69c5 9 2 20 -8 25c-52 29 -104 39 -148 38
c-80 -1 -144 -48 -142 -129c2 -121 168 -114 166 -155c0 -7 -9 -13 -22 -13c-30 -1 -57 8 -84 24zM269 616c6 0 12 -3 16 -9l75 -106c13 -18 7 -31 -17 -31h-80c-7 0 -14 4 -18 10l-32 60l-32 -60c-4 -6 -11 -10 -18 -10h-80c-24 0 -30 13 -17 31l75 106c4 6 10 9 16 9h112z
" />
    <glyph glyph-name="scommaaccent" unicode="&#x219;" horiz-adv-x="399" 
d="M52 39c-10 7 -12 18 -5 27l42 64c6 11 18 13 28 6c27 -16 54 -25 84 -24c13 0 22 6 22 13c2 41 -164 34 -166 155c-2 81 62 128 142 129c44 1 96 -9 148 -38c10 -5 13 -16 8 -25l-36 -69c-6 -11 -17 -14 -29 -8c-32 16 -63 22 -79 22c-12 0 -15 -9 -15 -13
c0 -5 -1 -14 30 -24c69 -22 135 -55 136 -128c2 -83 -74 -133 -160 -135c-43 -1 -93 13 -150 48zM236 -60c17 0 25 -11 19 -27l-53 -137c-3 -8 -10 -13 -19 -13h-57c-14 0 -22 10 -19 24l28 137c2 10 10 16 19 16h82z" />
    <glyph glyph-name="ubreve" unicode="&#x16d;" horiz-adv-x="538" 
d="M455 400c12 0 20 -8 20 -20v-360c0 -12 -8 -20 -20 -20h-102c-12 0 -20 8 -20 20v29c-26 -40 -74 -58 -113 -58c-88 0 -161 43 -161 177v212c0 12 8 20 20 20h102c12 0 20 -8 20 -20v-206c0 -39 22 -66 62 -66c48 0 70 40 70 65v207c0 12 8 20 20 20h102zM308 594
c3 11 10 19 22 19h63c12 0 20 -8 19 -20c-9 -86 -77 -134 -149 -134s-141 48 -150 134c-1 12 7 20 19 20h62c12 0 19 -8 22 -20c6 -27 25 -39 47 -39s39 15 45 40z" />
    <glyph glyph-name="uhungarumlaut" unicode="&#x171;" horiz-adv-x="541" 
d="M455 400c12 0 20 -8 20 -20v-360c0 -12 -8 -20 -20 -20h-102c-12 0 -20 8 -20 20v29c-26 -40 -74 -58 -113 -58c-88 0 -161 43 -161 177v212c0 12 8 20 20 20h102c12 0 20 -8 20 -20v-206c0 -39 22 -66 62 -66c48 0 70 40 70 65v207c0 12 8 20 20 20h102zM270 613
c20 0 27 -12 17 -30l-63 -113c-4 -6 -11 -10 -18 -10h-71c-17 0 -24 11 -19 27l39 113c3 8 11 13 19 13h96zM467 613c20 0 27 -12 17 -30l-63 -113c-4 -6 -11 -10 -18 -10h-71c-17 0 -24 11 -19 27l39 113c3 8 11 13 19 13h96z" />
    <glyph glyph-name="ohungarumlaut" unicode="&#x151;" horiz-adv-x="495" 
d="M246 409c115 0 210 -85 210 -209s-95 -209 -210 -209s-210 85 -210 209s95 209 210 209zM246 121c38 0 74 28 74 79s-36 79 -74 79s-74 -28 -74 -79s36 -79 74 -79zM249 613c20 0 27 -12 17 -30l-63 -113c-4 -6 -11 -10 -18 -10h-71c-17 0 -24 11 -19 27l39 113
c3 8 11 13 19 13h96zM446 613c20 0 27 -12 17 -30l-63 -113c-4 -6 -11 -10 -18 -10h-71c-17 0 -24 11 -19 27l39 113c3 8 11 13 19 13h96z" />
    <glyph glyph-name="omacron" unicode="&#x14d;" horiz-adv-x="492" 
d="M246 409c115 0 210 -85 210 -209s-95 -209 -210 -209s-210 85 -210 209s95 209 210 209zM246 121c38 0 74 28 74 79s-36 79 -74 79s-74 -28 -74 -79s36 -79 74 -79zM140 470c-12 0 -20 8 -20 20v71c0 12 8 20 20 20h211c12 0 20 -8 20 -20v-71c0 -12 -8 -20 -20 -20h-211
z" />
    <glyph glyph-name="ycircumflex" unicode="&#x177;" horiz-adv-x="545" 
d="M500 400c18 0 26 -11 18 -29l-291 -618c-3 -6 -10 -11 -18 -11h-106c-19 0 -26 12 -18 29l114 230l-172 371c-8 17 0 28 18 28h115c8 0 15 -5 18 -12l94 -222l92 222c3 7 10 12 18 12h118zM338 616c6 0 12 -3 16 -8l75 -106c13 -19 6 -32 -17 -32h-80c-7 0 -14 4 -18 10
l-32 60l-32 -60c-4 -6 -11 -10 -18 -10h-80c-23 0 -30 13 -17 32l75 106c4 5 10 8 16 8h112z" />
    <glyph glyph-name="ygrave" unicode="&#x1ef3;" horiz-adv-x="545" 
d="M500 400c18 0 26 -11 18 -29l-291 -618c-3 -6 -10 -11 -18 -11h-106c-19 0 -26 12 -18 29l114 230l-172 371c-8 17 0 28 18 28h115c8 0 15 -5 18 -12l94 -222l92 222c3 7 10 12 18 12h118zM232 460c-7 0 -14 4 -18 10l-63 113c-10 18 -3 30 17 30h84c8 0 16 -5 19 -13
l39 -113c5 -16 -2 -27 -19 -27h-59z" />
    <glyph glyph-name="zacute" unicode="&#x17a;" horiz-adv-x="381" 
d="M172 277h-116c-12 0 -20 8 -20 20v83c0 12 8 20 20 20h269c12 0 20 -8 20 -20v-87c0 -4 -2 -9 -5 -13l-131 -157h116c12 0 20 -8 20 -20v-83c0 -12 -8 -20 -20 -20h-269c-12 0 -20 8 -20 20v87c0 4 2 9 5 13zM285 613c20 0 27 -12 17 -30l-63 -113c-4 -6 -11 -10 -18 -10
h-59c-17 0 -24 11 -19 27l39 113c3 8 11 13 19 13h84z" />
    <glyph glyph-name="zdotaccent" unicode="&#x17c;" horiz-adv-x="381" 
d="M172 277h-116c-12 0 -20 8 -20 20v83c0 12 8 20 20 20h269c12 0 20 -8 20 -20v-87c0 -4 -2 -9 -5 -13l-131 -157h116c12 0 20 -8 20 -20v-83c0 -12 -8 -20 -20 -20h-269c-12 0 -20 8 -20 20v87c0 4 2 9 5 13zM112 538c0 42 36 78 78 78s78 -36 78 -78s-36 -78 -78 -78
s-78 36 -78 78z" />
    <glyph glyph-name="umacron" unicode="&#x16b;" horiz-adv-x="538" 
d="M455 400c12 0 20 -8 20 -20v-360c0 -12 -8 -20 -20 -20h-102c-12 0 -20 8 -20 20v29c-26 -40 -74 -58 -113 -58c-88 0 -161 43 -161 177v212c0 12 8 20 20 20h102c12 0 20 -8 20 -20v-206c0 -39 22 -66 62 -66c48 0 70 40 70 65v207c0 12 8 20 20 20h102zM157 470
c-12 0 -20 8 -20 20v71c0 12 8 20 20 20h211c12 0 20 -8 20 -20v-71c0 -12 -8 -20 -20 -20h-211z" />
    <glyph glyph-name="uogonek" unicode="&#x173;" horiz-adv-x="540" 
d="M455 400c12 0 20 -8 20 -20v-362c0 -11 -7 -18 -18 -21c-41 -12 -66 -50 -66 -79c0 -18 11 -36 38 -36c11 0 21 0 32 3c18 5 29 -1 29 -20v-63c0 -7 -4 -14 -11 -17c-25 -10 -54 -14 -73 -14c-72 0 -125 48 -125 125c0 27 14 73 52 105v48c-26 -40 -74 -58 -113 -58
c-88 0 -161 43 -161 177v212c0 12 8 20 20 20h102c12 0 20 -8 20 -20v-206c0 -39 22 -66 62 -66c48 0 70 40 70 65v207c0 12 8 20 20 20h102z" />
    <glyph glyph-name="uring" unicode="&#x16f;" horiz-adv-x="538" 
d="M455 400c12 0 20 -8 20 -20v-360c0 -12 -8 -20 -20 -20h-102c-12 0 -20 8 -20 20v29c-26 -40 -74 -58 -113 -58c-88 0 -161 43 -161 177v212c0 12 8 20 20 20h102c12 0 20 -8 20 -20v-206c0 -39 22 -66 62 -66c48 0 70 40 70 65v207c0 12 8 20 20 20h102zM163 559
c0 56 43 99 99 99s99 -43 99 -99s-43 -99 -99 -99s-99 43 -99 99zM225 559c0 -20 17 -37 37 -37s36 17 36 37s-16 36 -36 36s-37 -16 -37 -36z" />
    <glyph glyph-name="utilde" unicode="&#x169;" horiz-adv-x="538" 
d="M455 400c12 0 20 -8 20 -20v-360c0 -12 -8 -20 -20 -20h-102c-12 0 -20 8 -20 20v29c-26 -40 -74 -58 -113 -58c-88 0 -161 43 -161 177v212c0 12 8 20 20 20h102c12 0 20 -8 20 -20v-206c0 -39 22 -66 62 -66c48 0 70 40 70 65v207c0 12 8 20 20 20h102zM311 459
c-39 0 -67 38 -90 38c-15 0 -24 -7 -30 -15c-7 -10 -16 -16 -29 -13l-48 15c-7 2 -12 9 -11 16c7 30 39 95 119 95c50 -2 63 -38 94 -38c13 0 23 8 30 16c9 11 21 17 38 11l43 -18c7 -3 11 -10 9 -17c-11 -28 -47 -90 -125 -90z" />
    <glyph glyph-name="tcaron" unicode="&#x165;" horiz-adv-x="655" 
d="M99 141v136h-65c-12 0 -20 8 -20 20v83c0 12 8 20 20 20h65v130c0 12 8 20 20 20h102c12 0 20 -8 20 -20v-130h99c12 0 20 -8 20 -20v-83c0 -12 -8 -20 -20 -20h-99v-114c0 -38 27 -47 49 -47c13 0 33 3 59 12c14 4 24 -1 28 -15l20 -76c2 -10 -2 -19 -11 -22
c-37 -14 -96 -24 -121 -24c-105 0 -166 52 -166 150zM628 700c16 0 24 -10 20 -26l-57 -194c-2 -8 -10 -14 -19 -14h-78c-14 0 -22 9 -19 23l29 194c2 10 10 17 20 17h104z" />
    <glyph glyph-name="tcommaaccent" unicode="&#x163;" horiz-adv-x="419" 
d="M99 141v136h-65c-12 0 -20 8 -20 20v83c0 12 8 20 20 20h65v130c0 12 8 20 20 20h102c12 0 20 -8 20 -20v-130h99c12 0 20 -8 20 -20v-83c0 -12 -8 -20 -20 -20h-99v-114c0 -38 27 -47 49 -47c13 0 33 3 59 12c14 4 24 -1 28 -15l20 -76c2 -10 -2 -19 -11 -22
c-37 -14 -96 -24 -121 -24c-105 0 -166 52 -166 150zM288 -60c17 0 25 -11 19 -27l-53 -137c-3 -8 -10 -13 -19 -13h-56c-14 0 -22 10 -19 24l28 137c2 10 10 16 19 16h81z" />
    <glyph glyph-name="tbar" unicode="&#x167;" horiz-adv-x="419" 
d="M344 201c0 -12 -8 -20 -20 -20h-83v-18c0 -38 27 -47 49 -47c13 0 33 3 59 12c14 4 24 -1 28 -15l20 -76c2 -10 -2 -19 -11 -22c-37 -14 -96 -24 -121 -24c-105 0 -166 52 -166 150v40h-53c-12 0 -20 8 -20 20v36c0 12 8 20 20 20h53v38h-65c-12 0 -20 8 -20 20v65
c0 12 8 20 20 20h65v130c0 12 8 20 20 20h102c12 0 20 -8 20 -20v-130h99c12 0 20 -8 20 -20v-65c0 -12 -8 -20 -20 -20h-99v-38h83c12 0 20 -8 20 -20v-36z" />
    <glyph glyph-name="ldot" unicode="&#x140;" horiz-adv-x="424" 
d="M185 700c12 0 20 -8 20 -20v-660c0 -12 -8 -20 -20 -20h-102c-12 0 -20 8 -20 20v660c0 12 8 20 20 20h102zM424 355c0 43 -35 78 -78 78s-78 -35 -78 -78s35 -78 78 -78s78 35 78 78z" />
    <glyph glyph-name="lslash" unicode="&#x142;" horiz-adv-x="282" 
d="M282 285c0 -7 -4 -14 -11 -18l-59 -29v-218c0 -12 -8 -20 -20 -20h-102c-12 0 -20 8 -20 20v147l-41 -21c-17 -8 -29 -1 -29 18v82c0 7 4 14 11 18l59 29v387c0 12 8 20 20 20h102c12 0 20 -8 20 -20v-316l41 21c17 9 29 2 29 -18v-82z" />
    <glyph glyph-name="lacute" unicode="&#x13a;" horiz-adv-x="275" 
d="M185 700c12 0 20 -8 20 -20v-660c0 -12 -8 -20 -20 -20h-102c-12 0 -20 8 -20 20v660c0 12 8 20 20 20h102zM236 913c20 0 27 -12 17 -30l-63 -113c-4 -6 -11 -10 -18 -10h-59c-17 0 -24 11 -19 27l39 113c3 8 11 13 19 13h84z" />
    <glyph glyph-name="lcaron" unicode="&#x13e;" horiz-adv-x="509" 
d="M185 700c12 0 20 -8 20 -20v-660c0 -12 -8 -20 -20 -20h-102c-12 0 -20 8 -20 20v660c0 12 8 20 20 20h102zM482 700c16 0 24 -10 20 -26l-57 -194c-2 -8 -10 -14 -19 -14h-78c-14 0 -22 9 -19 23l29 194c2 10 10 17 20 17h104z" />
    <glyph glyph-name="lcommaaccent" unicode="&#x13c;" horiz-adv-x="271" 
d="M187 700c12 0 20 -8 20 -20v-660c0 -12 -8 -20 -20 -20h-102c-12 0 -20 8 -20 20v660c0 12 8 20 20 20h102zM185 -60c17 0 25 -11 19 -27l-53 -137c-3 -8 -10 -13 -19 -13h-57c-14 0 -22 10 -19 24l28 137c2 10 10 16 19 16h82z" />
    <glyph glyph-name="Eng" unicode="&#x14a;" horiz-adv-x="787" 
d="M387 -216c-9 6 -11 16 -6 25l38 69c7 12 18 15 30 9c16 -6 35 -11 51 -11c33 0 54 12 54 53v71l-321 439v-419c0 -12 -8 -20 -20 -20h-112c-12 0 -20 8 -20 20v660c0 12 8 20 20 20h122c6 0 12 -3 16 -8l315 -433v421c0 12 8 20 20 20h112c12 0 20 -8 20 -20v-763
c0 -114 -91 -169 -188 -169c-45 0 -92 12 -131 36z" />
    <glyph glyph-name="eng" unicode="&#x14b;" horiz-adv-x="538" 
d="M161 -214c-9 6 -11 16 -6 25l37 63c7 12 18 14 30 8c15 -7 34 -12 51 -12c33 0 64 19 64 60v296c0 39 -22 66 -62 66c-48 0 -70 -40 -70 -65v-207c0 -12 -8 -20 -20 -20h-102c-12 0 -20 8 -20 20v360c0 12 8 20 20 20h102c12 0 20 -8 20 -20v-29c26 40 73 58 112 58
c88 0 162 -43 162 -177v-314c0 -114 -91 -168 -188 -168c-45 0 -92 12 -130 36z" />
    <glyph glyph-name="dollar" unicode="$" horiz-adv-x="615" 
d="M551 191c0 -106 -79 -177 -184 -195v-82c0 -12 -8 -20 -20 -20h-64c-12 0 -20 8 -20 20v81c-62 8 -126 37 -194 93c-9 7 -10 18 -3 27l56 71c9 10 20 11 30 3c52 -43 113 -63 159 -63c55 0 92 27 92 71c0 108 -300 109 -300 316c0 98 61 175 160 191v87c0 12 8 20 20 20
h64c12 0 20 -8 20 -20v-86c58 -7 111 -28 175 -72c10 -6 11 -17 5 -27l-52 -73c-7 -10 -19 -12 -29 -4c-49 35 -96 52 -139 52c-40 0 -82 -15 -82 -65c0 -101 306 -105 306 -325z" />
    <glyph glyph-name="a.smcp" horiz-adv-x="582" 
d="M553 27c7 -16 -1 -27 -18 -27h-109c-8 0 -16 5 -19 13l-25 69h-183l-24 -69c-3 -8 -11 -13 -19 -13h-109c-17 0 -25 11 -18 27l181 460c3 8 10 13 19 13h124c9 0 16 -5 19 -13zM291 337l-50 -140h100z" />
    <glyph glyph-name="b.smcp" horiz-adv-x="485" 
d="M297 500c74 0 132 -49 132 -130c0 -33 -14 -79 -64 -103c49 -15 84 -68 84 -119c0 -88 -70 -148 -153 -148h-208c-12 0 -20 8 -20 20v460c0 12 8 20 20 20h209zM214 209v-103h34c45 0 56 33 57 49s-8 54 -53 54h-38zM255 397h-41v-84h35c43 0 46 36 46 42
c0 18 -12 42 -40 42z" />
    <glyph glyph-name="c.smcp" horiz-adv-x="530" 
d="M294 371c-62 0 -113 -49 -113 -121s49 -120 111 -120c36 0 70 13 96 32c10 8 22 8 31 -1l61 -69c7 -8 7 -18 0 -26c-50 -49 -113 -75 -185 -75c-143 0 -259 110 -259 259s116 259 259 259c72 0 139 -27 187 -75c7 -8 7 -18 0 -26l-59 -68c-9 -10 -21 -10 -31 -2
c-27 20 -64 33 -98 33z" />
    <glyph glyph-name="d.smcp" horiz-adv-x="550" 
d="M265 0h-177c-12 0 -20 8 -20 20v460c0 12 8 20 20 20h177c138 0 249 -96 249 -249c0 -154 -111 -251 -249 -251zM233 378h-19v-256h19c98 0 137 72 137 129c0 56 -39 127 -137 127z" />
    <glyph glyph-name="e.smcp" horiz-adv-x="448" 
d="M412 396c0 -12 -8 -20 -20 -20h-178v-68h146c12 0 20 -8 20 -20v-77c0 -12 -8 -20 -20 -20h-146v-67h178c12 0 20 -8 20 -20v-84c0 -12 -8 -20 -20 -20h-304c-12 0 -20 8 -20 20v460c0 12 8 20 20 20h304c12 0 20 -8 20 -20v-84z" />
    <glyph glyph-name="f.smcp" horiz-adv-x="439" 
d="M412 396c0 -12 -8 -20 -20 -20h-178v-68h146c12 0 20 -8 20 -20v-77c0 -12 -8 -20 -20 -20h-146v-171c0 -12 -8 -20 -20 -20h-106c-12 0 -20 8 -20 20v460c0 12 8 20 20 20h304c12 0 20 -8 20 -20v-84z" />
    <glyph glyph-name="g.smcp" horiz-adv-x="590" 
d="M296 377c-62 0 -120 -50 -120 -127c0 -86 58 -129 120 -129c40 0 94 25 106 68h-92c-12 0 -20 8 -20 20v67c0 12 8 20 20 20h222c10 0 18 -6 19 -16c2 -9 3 -18 3 -30c0 -146 -116 -259 -259 -259s-259 113 -259 259s116 259 259 259c72 0 137 -25 185 -72
c7 -8 7 -18 1 -26l-56 -64c-9 -10 -21 -10 -32 -2c-26 20 -63 32 -97 32z" />
    <glyph glyph-name="h.smcp" horiz-adv-x="616" 
d="M402 480c0 12 8 20 20 20h106c12 0 20 -8 20 -20v-460c0 -12 -8 -20 -20 -20h-106c-12 0 -20 8 -20 20v161h-188v-161c0 -12 -8 -20 -20 -20h-106c-12 0 -20 8 -20 20v460c0 12 8 20 20 20h106c12 0 20 -8 20 -20v-161h188v161z" />
    <glyph glyph-name="i.smcp" horiz-adv-x="282" 
d="M194 500c12 0 20 -8 20 -20v-460c0 -12 -8 -20 -20 -20h-106c-12 0 -20 8 -20 20v460c0 12 8 20 20 20h106z" />
    <glyph glyph-name="j.smcp" horiz-adv-x="459" 
d="M371 500c12 0 20 -8 20 -20v-304c0 -111 -92 -185 -197 -185c-98 0 -162 46 -190 137c-3 10 3 19 12 23l87 34c15 5 25 -2 31 -16c12 -26 36 -36 57 -36c28 0 54 20 54 51v296c0 12 8 20 20 20h106z" />
    <glyph glyph-name="k.smcp" 
d="M378 0c-6 0 -12 3 -16 8l-148 191v-179c0 -12 -8 -20 -20 -20h-106c-12 0 -20 8 -20 20v460c0 12 8 20 20 20h106c12 0 20 -8 20 -20v-179l148 191c4 5 10 8 16 8h121c26 0 32 -13 15 -33l-191 -216l191 -218c17 -20 11 -33 -15 -33h-121z" />
    <glyph glyph-name="l.smcp" horiz-adv-x="420" 
d="M214 124h168c12 0 20 -8 20 -20v-84c0 -12 -8 -20 -20 -20h-294c-12 0 -20 8 -20 20v460c0 12 8 20 20 20h106c12 0 20 -8 20 -20v-356z" />
    <glyph glyph-name="m.smcp" horiz-adv-x="724" 
d="M504 489c4 7 11 11 18 11h114c12 0 20 -8 20 -20v-460c0 -12 -8 -20 -20 -20h-106c-12 0 -20 8 -20 20v211l-84 -178c-3 -7 -10 -12 -18 -12h-92c-8 0 -15 5 -18 12l-84 178v-211c0 -12 -8 -20 -20 -20h-106c-12 0 -20 8 -20 20v460c0 12 8 20 20 20h114
c7 0 14 -4 18 -11l142 -273z" />
    <glyph glyph-name="n.smcp" horiz-adv-x="619" 
d="M88 0c-12 0 -20 8 -20 20v460c0 12 8 20 20 20h115c7 0 13 -3 17 -9l185 -269v258c0 12 8 20 20 20h106c12 0 20 -8 20 -20v-460c0 -12 -8 -20 -20 -20h-115c-7 0 -13 3 -17 9l-185 269v-258c0 -12 -8 -20 -20 -20h-106z" />
    <glyph glyph-name="o.smcp" horiz-adv-x="590" 
d="M295 509c143 0 259 -113 259 -259s-116 -259 -259 -259s-259 113 -259 259s116 259 259 259zM295 125c62 0 117 45 117 125c0 77 -55 124 -117 124s-117 -47 -117 -124c0 -80 55 -125 117 -125z" />
    <glyph glyph-name="p.smcp" horiz-adv-x="462" 
d="M88 0c-12 0 -20 8 -20 20v460c0 12 8 20 20 20h185c85 0 162 -69 162 -166c0 -98 -76 -168 -161 -168h-60v-146c0 -12 -8 -20 -20 -20h-106zM295 333c0 0 -1 43 -47 43h-34v-87h34c47 0 47 44 47 44z" />
    <glyph glyph-name="q.smcp" horiz-adv-x="590" 
d="M295 509c143 0 259 -113 259 -259c0 -101 -56 -186 -137 -229l108 -138c16 -19 10 -32 -15 -32h-100c-6 0 -12 3 -16 9l-91 131h-8c-143 0 -259 113 -259 259s116 259 259 259zM295 125c62 0 117 45 117 125c0 77 -55 124 -117 124s-117 -47 -117 -124
c0 -80 55 -125 117 -125z" />
    <glyph glyph-name="r.smcp" horiz-adv-x="517" 
d="M88 0c-12 0 -20 8 -20 20v460c0 12 8 20 20 20h192c85 0 162 -69 162 -166c0 -63 -32 -116 -84 -139l107 -164c12 -19 5 -31 -17 -31h-108c-7 0 -14 4 -18 10l-87 156h-21v-146c0 -12 -8 -20 -20 -20h-106zM248 279c25 0 54 19 54 53c0 12 -6 52 -50 52h-38v-105h34z" />
    <glyph glyph-name="s.smcp" horiz-adv-x="468" 
d="M233 -9c-57 0 -127 20 -190 74c-9 8 -9 19 -2 27l57 67c9 10 20 10 30 2c40 -30 80 -38 108 -38c19 0 33 12 33 24c0 51 -202 66 -199 209c2 96 77 153 173 153c51 0 112 -15 172 -58c10 -7 11 -18 4 -28l-51 -70c-8 -10 -19 -11 -30 -4c-33 22 -65 31 -90 31
c-17 0 -33 -9 -33 -30c0 -18 27 -30 50 -40c76 -35 155 -81 155 -163c0 -103 -88 -156 -187 -156z" />
    <glyph glyph-name="t.smcp" horiz-adv-x="410" 
d="M152 0c-12 0 -20 8 -20 20v349h-94c-12 0 -20 8 -20 20v91c0 12 8 20 20 20h334c12 0 20 -8 20 -20v-91c0 -12 -8 -20 -20 -20h-94v-349c0 -12 -8 -20 -20 -20h-106z" />
    <glyph glyph-name="u.smcp" 
d="M356 195v285c0 12 8 20 20 20h106c12 0 20 -8 20 -20v-279c0 -136 -109 -210 -217 -210s-217 73 -217 209v280c0 12 8 20 20 20h106c12 0 20 -8 20 -20v-285c0 -14 7 -72 71 -72s71 61 71 72z" />
    <glyph glyph-name="v.smcp" horiz-adv-x="582" 
d="M407 487c3 8 11 13 19 13h109c17 0 25 -11 18 -27l-181 -460c-3 -8 -10 -13 -19 -13h-124c-9 0 -16 5 -19 13l-181 460c-7 16 1 27 18 27h109c8 0 16 -5 19 -13l116 -324z" />
    <glyph glyph-name="w.smcp" horiz-adv-x="853" 
d="M257 172l99 314c2 8 10 14 19 14h103c9 0 17 -6 19 -14l99 -314l85 313c2 9 10 15 19 15h107c17 0 24 -11 19 -26l-153 -460c-3 -9 -11 -14 -19 -14h-113c-8 0 -16 5 -19 14l-96 287l-95 -287c-3 -9 -11 -14 -19 -14h-113c-8 0 -16 5 -19 14l-153 460c-5 15 2 26 19 26
h107c9 0 17 -6 19 -15z" />
    <glyph glyph-name="x.smcp" horiz-adv-x="522" 
d="M462 500c22 0 29 -12 17 -31l-142 -219l142 -219c12 -19 5 -31 -17 -31h-116c-7 0 -14 4 -18 10l-67 118l-67 -118c-4 -6 -11 -10 -18 -10h-116c-22 0 -29 12 -17 31l142 219l-142 219c-12 19 -5 31 17 31h117c7 0 14 -4 18 -10l66 -118l66 118c4 6 11 10 18 10h117z" />
    <glyph glyph-name="y.smcp" horiz-adv-x="498" 
d="M158 500c8 0 15 -5 18 -12l73 -165l73 165c3 7 10 12 18 12h111c20 0 27 -12 17 -29l-146 -273v-178c0 -12 -8 -20 -20 -20h-106c-12 0 -20 8 -20 20v178l-146 273c-10 17 -3 29 17 29h111z" />
    <glyph glyph-name="z.smcp" horiz-adv-x="408" 
d="M27 118c0 3 1 8 4 11l175 247h-144c-12 0 -20 8 -20 20v84c0 12 8 20 20 20h299c12 0 20 -8 20 -20v-97c0 -3 -1 -8 -4 -11l-173 -248h157c12 0 20 -8 20 -20v-84c0 -12 -8 -20 -20 -20h-314c-12 0 -20 8 -20 20v98z" />
    <glyph glyph-name="scaron.smcp" horiz-adv-x="468" 
d="M233 -9c99 0 187 47 187 156c0 83 -79 128 -155 163c-25 11 -54 24 -50 44c2 13 16 15 24 15c21 0 61 -5 96 -28c11 -8 23 -6 31 5l51 76c6 9 4 20 -4 26c-66 49 -117 61 -174 61c-96 0 -169 -61 -169 -154c0 -90 79 -132 141 -160c32 -14 61 -33 58 -50
c-2 -11 -13 -19 -30 -20c-28 -1 -64 12 -104 45c-10 8 -21 8 -30 -2l-60 -73c-8 -9 -7 -20 2 -28c67 -53 129 -76 186 -76zM381 706c24 0 30 -13 17 -32l-75 -106c-4 -5 -10 -8 -16 -8h-112c-6 0 -12 3 -16 8l-75 106c-13 19 -7 32 17 32h80c7 0 14 -4 18 -11l32 -59l32 59
c4 7 11 11 18 11h80z" />
    <glyph glyph-name="oe.smcp" horiz-adv-x="795" 
d="M759 396c0 -12 -8 -20 -20 -20h-179v-68h147c12 0 20 -8 20 -20v-77c0 -12 -8 -20 -20 -20h-147v-67h179c12 0 20 -8 20 -20v-84c0 -12 -8 -20 -20 -20h-304c-12 0 -20 8 -20 20v19c-36 -32 -92 -48 -137 -48c-143 0 -242 110 -242 259c0 146 102 259 245 259
c42 0 98 -16 134 -47v19c0 11 8 19 19 19h305c12 0 20 -8 20 -20v-84zM296 122c62 0 127 49 127 129c0 77 -64 125 -126 125s-123 -46 -123 -126c0 -83 60 -128 122 -128z" />
    <glyph glyph-name="zcaron.smcp" horiz-adv-x="408" 
d="M27 118c0 3 1 8 4 11l175 247h-144c-12 0 -20 8 -20 20v84c0 12 8 20 20 20h299c12 0 20 -8 20 -20v-97c0 -3 -1 -8 -4 -11l-173 -248h157c12 0 20 -8 20 -20v-84c0 -12 -8 -20 -20 -20h-314c-12 0 -20 8 -20 20v98zM340 706c24 0 30 -13 17 -32l-75 -106
c-4 -5 -10 -8 -16 -8h-112c-6 0 -12 3 -16 8l-75 106c-13 19 -7 32 17 32h80c7 0 14 -4 18 -10l32 -60l32 60c4 6 11 10 18 10h80z" />
    <glyph glyph-name="agrave.smcp" horiz-adv-x="582" 
d="M553 27c7 -16 -1 -27 -18 -27h-109c-8 0 -16 5 -19 13l-25 69h-183l-24 -69c-3 -8 -11 -13 -19 -13h-109c-17 0 -25 11 -18 27l181 460c3 8 10 13 19 13h124c9 0 16 -5 19 -13zM291 337l-50 -140h100zM246 560c-7 0 -14 4 -18 10l-63 113c-10 18 -3 30 17 30h84
c8 0 16 -5 19 -13l39 -113c5 -16 -2 -27 -19 -27h-59z" />
    <glyph glyph-name="aacute.smcp" horiz-adv-x="582" 
d="M553 27c7 -16 -1 -27 -18 -27h-109c-8 0 -16 5 -19 13l-25 69h-183l-24 -69c-3 -8 -11 -13 -19 -13h-109c-17 0 -25 11 -18 27l181 460c3 8 10 13 19 13h124c9 0 16 -5 19 -13zM291 337l-50 -140h100zM401 713c20 0 27 -12 17 -30l-63 -113c-4 -6 -11 -10 -18 -10h-59
c-17 0 -24 11 -19 27l39 113c3 8 11 13 19 13h84z" />
    <glyph glyph-name="acircumflex.smcp" horiz-adv-x="582" 
d="M553 27c7 -16 -1 -27 -18 -27h-109c-8 0 -16 5 -19 13l-25 69h-183l-24 -69c-3 -8 -11 -13 -19 -13h-109c-17 0 -25 11 -18 27l181 460c3 8 10 13 19 13h124c9 0 16 -5 19 -13zM291 337l-50 -140h100zM347 716c6 0 12 -3 16 -8l75 -106c13 -19 7 -32 -17 -32h-80
c-7 0 -14 4 -18 10l-32 60l-32 -60c-4 -6 -11 -10 -18 -10h-80c-24 0 -30 13 -17 32l75 106c4 5 10 8 16 8h112z" />
    <glyph glyph-name="atilde.smcp" horiz-adv-x="582" 
d="M553 27c7 -16 -1 -27 -18 -27h-109c-8 0 -16 5 -19 13l-25 69h-183l-24 -69c-3 -8 -11 -13 -19 -13h-109c-17 0 -25 11 -18 27l181 460c3 8 10 13 19 13h124c9 0 16 -5 19 -13zM291 337l-50 -140h100zM335 560c-39 0 -67 38 -90 38c-15 0 -24 -7 -30 -15
c-7 -10 -16 -16 -29 -13l-48 15c-7 2 -12 9 -11 16c7 30 39 95 119 95c50 -2 63 -38 94 -38c13 0 23 8 30 16c9 11 21 17 38 11l43 -18c7 -3 11 -10 9 -17c-11 -28 -47 -90 -125 -90z" />
    <glyph glyph-name="adieresis.smcp" horiz-adv-x="582" 
d="M553 27c7 -16 -1 -27 -18 -27h-109c-8 0 -16 5 -19 13l-25 69h-183l-24 -69c-3 -8 -11 -13 -19 -13h-109c-17 0 -25 11 -18 27l181 460c3 8 10 13 19 13h124c9 0 16 -5 19 -13zM291 337l-50 -140h100zM106 638c0 42 36 78 78 78s78 -36 78 -78s-36 -78 -78 -78
s-78 36 -78 78zM321 638c0 42 36 78 78 78s78 -36 78 -78s-36 -78 -78 -78s-78 36 -78 78z" />
    <glyph glyph-name="aring.smcp" horiz-adv-x="582" 
d="M553 27c7 -16 -1 -27 -18 -27h-109c-8 0 -16 5 -19 13l-25 69h-183l-24 -69c-3 -8 -11 -13 -19 -13h-109c-17 0 -25 11 -18 27l181 460c3 8 10 13 19 13h124c9 0 16 -5 19 -13zM291 337l-50 -140h100zM192 658c0 56 43 99 99 99s99 -43 99 -99s-43 -99 -99 -99
s-99 43 -99 99zM254 658c0 -20 17 -37 37 -37s36 17 36 37s-16 36 -36 36s-37 -16 -37 -36z" />
    <glyph glyph-name="ae.smcp" horiz-adv-x="714" 
d="M47 0c-17 0 -25 11 -18 27l181 460c3 8 10 13 19 13h429c12 0 20 -8 20 -20v-84c0 -12 -8 -20 -20 -20h-178v-68h146c12 0 20 -8 20 -20v-77c0 -12 -8 -20 -20 -20h-146v-67h178c12 0 20 -8 20 -20v-84c0 -12 -8 -20 -20 -20h-304c-12 0 -20 8 -20 20v62h-135l-24 -69
c-3 -8 -11 -13 -19 -13h-109zM334 197v179h-27l-66 -179h93z" />
    <glyph glyph-name="ccedilla.smcp" horiz-adv-x="530" 
d="M289 -103h-17c-11 0 -18 7 -18 17v80c-124 19 -218 121 -218 256c0 149 116 259 259 259c72 0 139 -27 187 -75c7 -8 7 -18 0 -26l-59 -68c-9 -10 -21 -10 -31 -2c-27 20 -64 33 -98 33c-62 0 -113 -49 -113 -121s49 -120 111 -120c36 0 70 13 96 32c10 8 22 8 31 -1
l61 -69c7 -8 7 -18 0 -26c-46 -46 -102 -70 -166 -74v-26c68 -6 97 -50 97 -99c0 -77 -72 -106 -126 -106c-27 0 -61 7 -92 25c-9 6 -12 16 -6 25l18 33c7 12 18 15 30 10c16 -5 37 -10 52 -9c17 1 31 12 31 27c0 19 -15 25 -29 25z" />
    <glyph glyph-name="egrave.smcp" horiz-adv-x="448" 
d="M412 396c0 -12 -8 -20 -20 -20h-178v-68h146c12 0 20 -8 20 -20v-77c0 -12 -8 -20 -20 -20h-146v-67h178c12 0 20 -8 20 -20v-84c0 -12 -8 -20 -20 -20h-304c-12 0 -20 8 -20 20v460c0 12 8 20 20 20h304c12 0 20 -8 20 -20v-84zM204 560c-7 0 -14 4 -18 10l-63 113
c-10 18 -3 30 17 30h84c8 0 16 -5 19 -13l39 -113c5 -16 -2 -27 -19 -27h-59z" />
    <glyph glyph-name="eacute.smcp" horiz-adv-x="448" 
d="M412 396c0 -12 -8 -20 -20 -20h-178v-68h146c12 0 20 -8 20 -20v-77c0 -12 -8 -20 -20 -20h-146v-67h178c12 0 20 -8 20 -20v-84c0 -12 -8 -20 -20 -20h-304c-12 0 -20 8 -20 20v460c0 12 8 20 20 20h304c12 0 20 -8 20 -20v-84zM339 713c20 0 27 -12 17 -30l-63 -113
c-4 -6 -11 -10 -18 -10h-59c-17 0 -24 11 -19 27l39 113c3 8 11 13 19 13h84z" />
    <glyph glyph-name="ecircumflex.smcp" horiz-adv-x="448" 
d="M412 396c0 -12 -8 -20 -20 -20h-178v-68h146c12 0 20 -8 20 -20v-77c0 -12 -8 -20 -20 -20h-146v-67h178c12 0 20 -8 20 -20v-84c0 -12 -8 -20 -20 -20h-304c-12 0 -20 8 -20 20v460c0 12 8 20 20 20h304c12 0 20 -8 20 -20v-84zM297 716c6 0 12 -3 16 -8l75 -106
c13 -19 7 -32 -17 -32h-80c-7 0 -14 4 -18 10l-32 60l-32 -60c-4 -6 -11 -10 -18 -10h-80c-24 0 -30 13 -17 32l75 106c4 5 10 8 16 8h112z" />
    <glyph glyph-name="edieresis.smcp" horiz-adv-x="451" 
d="M413 396c0 -12 -8 -20 -20 -20h-178v-68h146c12 0 20 -8 20 -20v-77c0 -12 -8 -20 -20 -20h-146v-67h178c12 0 20 -8 20 -20v-84c0 -12 -8 -20 -20 -20h-304c-12 0 -20 8 -20 20v460c0 12 8 20 20 20h304c12 0 20 -8 20 -20v-84zM62 638c0 42 36 78 78 78s78 -36 78 -78
s-36 -78 -78 -78s-78 36 -78 78zM277 638c0 42 36 78 78 78s78 -36 78 -78s-36 -78 -78 -78s-78 36 -78 78z" />
    <glyph glyph-name="igrave.smcp" horiz-adv-x="288" 
d="M200 500c12 0 20 -8 20 -20v-460c0 -12 -8 -20 -20 -20h-106c-12 0 -20 8 -20 20v460c0 12 8 20 20 20h106zM107 560c-7 0 -14 4 -18 10l-63 113c-10 18 -3 30 17 30h84c8 0 16 -5 19 -13l39 -113c5 -16 -2 -27 -19 -27h-59z" />
    <glyph glyph-name="iacute.smcp" horiz-adv-x="288" 
d="M194 500c12 0 20 -8 20 -20v-460c0 -12 -8 -20 -20 -20h-106c-12 0 -20 8 -20 20v460c0 12 8 20 20 20h106zM245 713c20 0 27 -12 17 -30l-63 -113c-4 -6 -11 -10 -18 -10h-59c-17 0 -24 11 -19 27l39 113c3 8 11 13 19 13h84z" />
    <glyph glyph-name="icircumflex.smcp" horiz-adv-x="292" 
d="M199 500c12 0 20 -8 20 -20v-460c0 -12 -8 -20 -20 -20h-106c-12 0 -20 8 -20 20v460c0 12 8 20 20 20h106zM202 716c6 0 12 -3 16 -8l75 -106c13 -19 7 -32 -17 -32h-80c-7 0 -14 4 -18 10l-32 60l-32 -60c-4 -6 -11 -10 -18 -10h-80c-24 0 -30 13 -17 32l75 106
c4 5 10 8 16 8h112z" />
    <glyph glyph-name="idieresis.smcp" horiz-adv-x="290" 
d="M198 500c12 0 20 -8 20 -20v-460c0 -12 -8 -20 -20 -20h-106c-12 0 -20 8 -20 20v460c0 12 8 20 20 20h106zM-40 638c0 42 36 78 78 78s78 -36 78 -78s-36 -78 -78 -78s-78 36 -78 78zM175 638c0 42 36 78 78 78s78 -36 78 -78s-36 -78 -78 -78s-78 36 -78 78z" />
    <glyph glyph-name="eth.smcp" horiz-adv-x="557" 
d="M272 0h-177c-12 0 -20 8 -20 20v199h-55c-12 0 -20 8 -20 20v22c0 12 8 20 20 20h55v199c0 12 8 20 20 20h177c138 0 249 -96 249 -249c0 -154 -111 -251 -249 -251zM299 219h-78v-97h19c98 0 137 72 137 129c0 56 -39 127 -137 127h-19v-97h78c12 0 20 -8 20 -20v-22
c0 -12 -8 -20 -20 -20z" />
    <glyph glyph-name="ntilde.smcp" horiz-adv-x="619" 
d="M88 0c-12 0 -20 8 -20 20v460c0 12 8 20 20 20h115c7 0 13 -3 17 -9l185 -269v258c0 12 8 20 20 20h106c12 0 20 -8 20 -20v-460c0 -12 -8 -20 -20 -20h-115c-7 0 -13 3 -17 9l-185 269v-258c0 -12 -8 -20 -20 -20h-106zM343 560c-39 0 -67 38 -90 38
c-15 0 -24 -7 -30 -15c-7 -10 -16 -16 -29 -13l-48 15c-7 2 -12 9 -11 16c7 30 39 95 119 95c50 -2 63 -38 94 -38c13 0 23 8 30 16c9 11 21 17 38 11l43 -18c7 -3 11 -10 9 -17c-11 -28 -47 -90 -125 -90z" />
    <glyph glyph-name="ograve.smcp" horiz-adv-x="590" 
d="M295 509c143 0 259 -113 259 -259s-116 -259 -259 -259s-259 113 -259 259s116 259 259 259zM295 125c62 0 117 45 117 125c0 77 -55 124 -117 124s-117 -47 -117 -124c0 -80 55 -125 117 -125zM251 560c-7 0 -14 4 -18 10l-63 113c-10 18 -3 30 17 30h84
c8 0 16 -5 19 -13l39 -113c5 -16 -2 -27 -19 -27h-59z" />
    <glyph glyph-name="oacute.smcp" horiz-adv-x="590" 
d="M295 509c143 0 259 -113 259 -259s-116 -259 -259 -259s-259 113 -259 259s116 259 259 259zM295 125c62 0 117 45 117 125c0 77 -55 124 -117 124s-117 -47 -117 -124c0 -80 55 -125 117 -125zM399 713c20 0 27 -12 17 -30l-63 -113c-4 -6 -11 -10 -18 -10h-59
c-17 0 -24 11 -19 27l39 113c3 8 11 13 19 13h84z" />
    </font>
</defs>
</svg>
