<?xml version="1.0" standalone="no"?>
<!DOCTYPE svg PUBLIC "-//W3C//DTD SVG 1.1//EN" "http://www.w3.org/Graphics/SVG/1.1/DTD/svg11.dtd" >
<svg xmlns="http://www.w3.org/2000/svg" xmlns:xlink="http://www.w3.org/1999/xlink" version="1.1">
<metadata>
Created by FontForge 20201107 at Mon Mar 20 11:25:13 2017
 By Jimmy Wärting
Copyright 2021, Kris Sowersby, Klim Type Foundry.
</metadata>
<defs>
<font id="UntitledSans-Bold" horiz-adv-x="650" >
  <font-face 
    font-family="Untitled Sans"
    font-weight="700"
    font-stretch="normal"
    units-per-em="1000"
    panose-1="2 11 5 3 3 2 2 6 2 3"
    ascent="800"
    descent="-200"
    x-height="512"
    cap-height="714"
    bbox="-21 -190 1018 740"
    underline-thickness="50"
    underline-position="-100"
    stemh="120"
    stemv="167"
    unicode-range="U+0020-007A"
  />
<missing-glyph horiz-adv-x="1178" 
d="M992 473v-55c-21 -7 -36 -8 -53 -8c-57 0 -84 30 -84 84v125h-36v52h36v65h74v-65h57v-52h-57v-116c0 -23 10 -34 30 -34c10 0 19 1 33 4zM320 671v-40c12 27 40 47 79 47c60 0 95 -37 95 -99v-165h-75v148c0 38 -16 59 -47 59c-30 0 -52 -20 -52 -68v-139h-75v257h75z
M533 544c0 83 55 134 134 134c78 0 133 -51 133 -134c0 -84 -55 -135 -133 -135c-79 0 -134 51 -134 135zM607 544c0 -51 20 -82 60 -82c37 0 58 31 58 82c0 50 -21 80 -58 80c-40 0 -60 -30 -60 -80zM100 414v85h85v-85h-85zM992 303c-14 3 -23 4 -33 4
c-20 0 -30 -11 -30 -34v-15h57v-52h-57v-206h-74v206h-36v52h36v24c0 54 27 84 84 84c17 0 32 -1 53 -8v-55zM420 0v41c-12 -26 -42 -47 -80 -47c-69 0 -113 55 -113 135c0 79 44 135 113 135c37 0 66 -21 79 -46v145h75v-363h-74zM794 81c-15 -54 -58 -87 -125 -87
c-78 0 -136 50 -136 134c0 83 61 135 136 135c87 0 129 -62 129 -130v-23h-193c5 -41 27 -63 64 -63c27 0 45 11 53 34h72zM669 211c-34 0 -55 -21 -62 -56h118c-1 29 -18 56 -56 56zM421 124v9c0 48 -22 77 -60 77s-60 -32 -60 -81c0 -50 22 -82 60 -82s60 30 60 77z" />
    <glyph glyph-name=".notdef" horiz-adv-x="1178" 
d="M992 473v-55c-21 -7 -36 -8 -53 -8c-57 0 -84 30 -84 84v125h-36v52h36v65h74v-65h57v-52h-57v-116c0 -23 10 -34 30 -34c10 0 19 1 33 4zM320 671v-40c12 27 40 47 79 47c60 0 95 -37 95 -99v-165h-75v148c0 38 -16 59 -47 59c-30 0 -52 -20 -52 -68v-139h-75v257h75z
M533 544c0 83 55 134 134 134c78 0 133 -51 133 -134c0 -84 -55 -135 -133 -135c-79 0 -134 51 -134 135zM607 544c0 -51 20 -82 60 -82c37 0 58 31 58 82c0 50 -21 80 -58 80c-40 0 -60 -30 -60 -80zM100 414v85h85v-85h-85zM992 303c-14 3 -23 4 -33 4
c-20 0 -30 -11 -30 -34v-15h57v-52h-57v-206h-74v206h-36v52h36v24c0 54 27 84 84 84c17 0 32 -1 53 -8v-55zM420 0v41c-12 -26 -42 -47 -80 -47c-69 0 -113 55 -113 135c0 79 44 135 113 135c37 0 66 -21 79 -46v145h75v-363h-74zM794 81c-15 -54 -58 -87 -125 -87
c-78 0 -136 50 -136 134c0 83 61 135 136 135c87 0 129 -62 129 -130v-23h-193c5 -41 27 -63 64 -63c27 0 45 11 53 34h72zM669 211c-34 0 -55 -21 -62 -56h118c-1 29 -18 56 -56 56zM421 124v9c0 48 -22 77 -60 77s-60 -32 -60 -81c0 -50 22 -82 60 -82s60 30 60 77z" />
    <glyph glyph-name="space" unicode=" " horiz-adv-x="205" 
 />
    <glyph glyph-name="A" unicode="A" horiz-adv-x="777" 
d="M594 0l-57 153h-302l-59 -153h-169l284 714h195l285 -714h-177zM386 549l-101 -264h203l-99 264h-3z" />
    <glyph glyph-name="B" unicode="B" horiz-adv-x="716" 
d="M410 0h-339v714h319c174 0 264 -68 264 -198c0 -62 -50 -130 -106 -148c70 -20 131 -80 131 -162c0 -136 -98 -206 -269 -206zM240 423h143c75 0 106 35 106 84c0 53 -36 84 -105 84h-144v-168zM240 303v-180h155c76 0 114 34 114 91c0 56 -38 89 -114 89h-155z" />
    <glyph glyph-name="C" unicode="C" horiz-adv-x="724" 
d="M211 357c0 -148 61 -236 174 -236c87 0 129 49 142 118h168c-28 -148 -127 -251 -310 -251c-213 0 -350 151 -350 369c0 217 137 369 350 369c183 0 282 -102 310 -251h-168c-13 69 -55 118 -142 118c-113 0 -174 -88 -174 -236z" />
    <glyph glyph-name="D" unicode="D" horiz-adv-x="764" 
d="M364 714c223 0 365 -142 365 -356c0 -215 -142 -358 -365 -358h-293v714h293zM364 581h-124v-447h124c122 0 189 77 189 224c0 146 -67 223 -189 223z" />
    <glyph glyph-name="E" unicode="E" horiz-adv-x="671" 
d="M618 0h-547v714h540v-133h-371v-156h327v-133h-327v-158h378v-134z" />
    <glyph glyph-name="F" unicode="F" horiz-adv-x="645" 
d="M71 0v714h525v-133h-352v-182h311v-133h-311v-266h-173z" />
    <glyph glyph-name="G" unicode="G" horiz-adv-x="778" 
d="M35 358c0 217 140 368 358 368c183 0 284 -98 316 -247h-172c-15 71 -60 114 -144 114c-117 0 -182 -87 -182 -235c0 -149 65 -237 182 -237c92 0 148 51 148 116v13h-111v122h286v-372h-134l-10 86c-25 -59 -113 -98 -193 -98c-211 0 -344 152 -344 370z" />
    <glyph glyph-name="H" unicode="H" horiz-adv-x="808" 
d="M71 0v714h173v-286h320v286h174v-714h-174v296h-320v-296h-173z" />
    <glyph glyph-name="I" unicode="I" horiz-adv-x="315" 
d="M71 0v714h173v-714h-173z" />
    <glyph glyph-name="J" unicode="J" horiz-adv-x="637" 
d="M400 255v459h174v-453c0 -166 -108 -273 -287 -273c-164 0 -272 92 -273 247h164c1 -81 44 -122 109 -122c76 0 113 49 113 142z" />
    <glyph glyph-name="K" unicode="K" horiz-adv-x="765" 
d="M555 0l-221 284l-90 -97v-187h-173v714h173v-335l291 335h195l-282 -306l316 -408h-209z" />
    <glyph glyph-name="L" unicode="L" horiz-adv-x="644" 
d="M71 0v714h173v-580h355v-134h-528z" />
    <glyph glyph-name="M" unicode="M" horiz-adv-x="944" 
d="M528 0h-120l-178 504h-2v-504h-157v713h236l167 -479h2l167 479h231v-713h-166v504h-2z" />
    <glyph glyph-name="N" unicode="N" horiz-adv-x="802" 
d="M269 714l295 -450h2v450h165v-714h-161l-332 504h-2v-504h-165v714h198z" />
    <glyph glyph-name="O" unicode="O" horiz-adv-x="779" 
d="M745 357c0 -214 -135 -369 -355 -369c-221 0 -355 155 -355 369s134 369 355 369c220 0 355 -155 355 -369zM569 357c0 146 -60 236 -179 236s-179 -90 -179 -236s60 -236 179 -236s179 90 179 236z" />
    <glyph glyph-name="P" unicode="P" horiz-adv-x="697" 
d="M394 241h-154v-241h-169v714h321c179 0 281 -81 281 -237s-102 -236 -279 -236zM240 374h134c90 0 129 36 129 103c0 69 -39 104 -129 104h-134v-207z" />
    <glyph glyph-name="Q" unicode="Q" horiz-adv-x="779" 
d="M698 14l-86 -74l-70 77c-44 -19 -95 -29 -152 -29c-221 0 -355 155 -355 369s134 369 355 369c220 0 355 -155 355 -369c0 -114 -38 -211 -107 -277zM211 357c0 -146 60 -236 179 -236c19 0 36 2 52 7l-63 69l86 75l68 -75c24 40 36 94 36 160c0 146 -60 236 -179 236
s-179 -90 -179 -236z" />
    <glyph glyph-name="R" unicode="R" horiz-adv-x="727" 
d="M240 0h-169v714h332c174 0 278 -80 278 -234c0 -106 -62 -174 -141 -206l164 -274h-186l-144 247h-134v-247zM240 380h141c91 0 130 34 130 100s-39 101 -130 101h-141v-201z" />
    <glyph glyph-name="S" unicode="S" horiz-adv-x="676" 
d="M23 220h167c8 -82 82 -108 157 -108c70 0 129 28 129 87c0 45 -29 66 -107 79l-126 23c-112 20 -198 75 -198 202c0 135 122 223 285 223c184 0 289 -81 303 -219h-163c-6 62 -60 95 -138 95c-71 0 -118 -35 -118 -86c0 -50 35 -63 103 -76l136 -26
c124 -22 193 -86 193 -203c0 -138 -128 -223 -293 -223c-183 0 -315 75 -330 232z" />
    <glyph glyph-name="T" unicode="T" horiz-adv-x="740" 
d="M283 0v581h-247v133h668v-133h-248v-581h-173z" />
    <glyph glyph-name="U" unicode="U" horiz-adv-x="765" 
d="M701 286c0 -195 -117 -298 -319 -298c-200 0 -319 103 -319 299v427h174v-422c0 -102 39 -169 145 -169c107 0 146 67 146 169v422h173v-428z" />
    <glyph glyph-name="V" unicode="V" horiz-adv-x="759" 
d="M283 0l-276 714h184l191 -525h2l190 525h178l-277 -714h-192z" />
    <glyph glyph-name="W" unicode="W" horiz-adv-x="1027" 
d="M636 0l-122 509h-2l-121 -509h-188l-194 714h178l123 -506h3l120 506h170l120 -506h2l124 506h169l-195 -714h-187z" />
    <glyph glyph-name="X" unicode="X" horiz-adv-x="757" 
d="M555 0l-182 250l-185 -250h-181l276 368l-254 346h196l157 -217l160 217h182l-252 -336l278 -378h-195z" />
    <glyph glyph-name="Y" unicode="Y" horiz-adv-x="743" 
d="M458 0h-174v291l-279 423h193l176 -273h2l174 273h188l-280 -423v-291z" />
    <glyph glyph-name="Z" unicode="Z" horiz-adv-x="689" 
d="M640 586l-387 -452h395v-134h-607v122l389 459h-377v133h587v-128z" />
    <glyph glyph-name="a" unicode="a" horiz-adv-x="593" 
d="M380 0c-3 28 -5 50 -5 75c-26 -57 -86 -87 -164 -87c-109 0 -178 59 -178 151c0 107 86 146 190 157l144 14v21c0 47 -28 74 -77 74c-46 0 -72 -27 -75 -65h-160c11 115 100 184 241 184c153 0 234 -71 234 -212v-166c0 -56 2 -98 9 -146h-159zM262 95
c55 0 105 34 105 99v25l-92 -11c-45 -5 -77 -17 -77 -58c0 -34 23 -55 64 -55z" />
    <glyph glyph-name="b" unicode="b" 
d="M234 76v-76h-165v736h167v-300c25 51 83 88 155 88c138 0 224 -112 224 -268s-86 -268 -224 -268c-71 0 -131 37 -157 88zM233 267v-22c0 -85 39 -137 106 -137c70 0 108 55 108 148c0 92 -38 149 -108 149c-67 0 -106 -52 -106 -138z" />
    <glyph glyph-name="c" unicode="c" horiz-adv-x="573" 
d="M35 256c0 167 114 268 271 268c139 0 224 -80 238 -198h-158c-6 43 -32 77 -82 77c-65 0 -101 -57 -101 -147c0 -91 36 -146 101 -146c50 0 76 34 82 77h158c-14 -118 -99 -199 -238 -199c-157 0 -271 101 -271 268z" />
    <glyph glyph-name="d" unicode="d" 
d="M416 0v76c-26 -51 -86 -88 -157 -88c-138 0 -224 112 -224 268s86 268 224 268c72 0 130 -37 155 -88v300h167v-736h-165zM417 245v22c0 86 -39 138 -106 138c-70 0 -108 -57 -108 -149c0 -93 38 -148 108 -148c67 0 106 52 106 137z" />
    <glyph glyph-name="e" unicode="e" horiz-adv-x="591" 
d="M553 167c-22 -111 -115 -179 -247 -179c-153 0 -271 100 -271 268s118 268 269 268c168 0 251 -121 251 -260v-45h-359c9 -71 44 -113 110 -113c48 0 80 22 93 61h154zM304 407c-58 0 -93 -36 -105 -99h201c0 52 -32 99 -96 99z" />
    <glyph glyph-name="f" unicode="f" horiz-adv-x="364" 
d="M84 395h-67v117h67v52c0 115 65 176 183 176c35 0 63 -1 90 -6v-124c-17 2 -31 3 -49 3c-36 0 -57 -16 -57 -57v-44h100v-117h-100v-395h-167v395z" />
    <glyph glyph-name="g" unicode="g" horiz-adv-x="653" 
d="M417 36v71c-25 -50 -81 -90 -155 -90c-140 0 -226 106 -226 254c0 147 86 253 226 253c74 0 132 -40 157 -89v77h165v-451c0 -171 -111 -251 -275 -251c-151 0 -246 64 -264 168h165c12 -39 47 -55 98 -55c65 0 109 33 109 113zM421 262v19c0 77 -44 125 -109 125
c-69 0 -108 -51 -108 -135c0 -83 39 -136 108 -136c65 0 109 48 109 127z" />
    <glyph glyph-name="h" unicode="h" horiz-adv-x="645" 
d="M236 433c26 53 79 91 156 91c118 0 190 -72 190 -196v-328h-168v288c0 71 -28 107 -85 107c-52 0 -93 -34 -93 -121v-274h-167v736h167v-303z" />
    <glyph glyph-name="i" unicode="i" horiz-adv-x="305" 
d="M66 583v145h173v-145h-173zM69 0v512h167v-512h-167z" />
    <glyph glyph-name="j" unicode="j" horiz-adv-x="305" 
d="M66 583v145h173v-145h-173zM51 -185c-28 0 -48 2 -72 6v121c11 -2 23 -3 34 -3c40 0 56 15 56 55v518h167v-525c0 -115 -65 -172 -185 -172z" />
    <glyph glyph-name="k" unicode="k" horiz-adv-x="634" 
d="M436 0l-147 196l-53 -53v-143h-167v736h167v-422l189 198h187l-208 -210l220 -302h-188z" />
    <glyph glyph-name="l" unicode="l" horiz-adv-x="305" 
d="M236 0h-167v736h167v-736z" />
    <glyph glyph-name="m" unicode="m" horiz-adv-x="968" 
d="M549 432c34 55 97 92 172 92c118 0 184 -73 184 -196v-328h-168v290c0 70 -27 105 -79 105c-49 0 -87 -34 -87 -119v-276h-168v290c0 70 -27 105 -79 105c-50 0 -88 -34 -88 -119v-276h-167v512h165v-79c25 53 81 91 154 91c85 0 133 -37 161 -92z" />
    <glyph glyph-name="n" unicode="n" horiz-adv-x="645" 
d="M234 512v-79c25 52 81 91 158 91c118 0 190 -72 190 -196v-328h-168v288c0 71 -28 107 -85 107c-52 0 -93 -34 -93 -121v-274h-167v512h165z" />
    <glyph glyph-name="o" unicode="o" horiz-adv-x="616" 
d="M580 256c0 -167 -112 -268 -272 -268c-161 0 -273 101 -273 268s112 268 273 268c160 0 272 -101 272 -268zM203 256c0 -93 36 -148 105 -148s104 55 104 148s-35 148 -104 148s-105 -55 -105 -148z" />
    <glyph glyph-name="p" unicode="p" 
d="M236 76v-254h-167v690h165v-77c25 51 85 89 157 89c138 0 224 -112 224 -268s-86 -268 -224 -268c-71 0 -129 37 -155 88zM233 267v-22c0 -85 39 -137 106 -137c70 0 108 55 108 148c0 92 -38 149 -108 149c-67 0 -106 -52 -106 -138z" />
    <glyph glyph-name="q" unicode="q" 
d="M414 -178v254c-26 -51 -84 -88 -155 -88c-138 0 -224 112 -224 268s86 268 224 268c72 0 132 -38 157 -89v77h165v-690h-167zM417 245v22c0 86 -39 138 -106 138c-70 0 -108 -57 -108 -149c0 -93 38 -148 108 -148c67 0 106 52 106 137z" />
    <glyph glyph-name="r" unicode="r" horiz-adv-x="447" 
d="M424 515v-154c-18 3 -35 4 -54 4c-76 0 -134 -45 -134 -141v-224h-167v512h165v-109c26 76 81 117 153 117c14 0 28 -1 37 -5z" />
    <glyph glyph-name="s" unicode="s" horiz-adv-x="552" 
d="M29 159h156c6 -45 52 -62 96 -62c41 0 77 14 77 47c0 27 -21 36 -71 45l-91 15c-86 15 -151 54 -151 148c0 104 99 172 224 172c144 0 224 -65 235 -165h-148c-5 35 -40 57 -85 57c-42 0 -71 -18 -71 -46c0 -27 22 -36 68 -44l99 -17c94 -15 147 -66 147 -151
c0 -106 -102 -170 -230 -170c-143 0 -242 57 -255 171z" />
    <glyph glyph-name="t" unicode="t" horiz-adv-x="407" 
d="M369 132v-124c-43 -12 -74 -16 -113 -16c-118 0 -174 46 -174 155v248h-68v117h68v127h165v-127h111v-117h-112v-214c0 -43 20 -56 60 -56c19 0 37 1 63 7z" />
    <glyph glyph-name="u" unicode="u" horiz-adv-x="637" 
d="M569 0h-166v79c-24 -52 -81 -91 -155 -91c-116 0 -185 72 -185 196v328h169v-290c0 -71 26 -105 80 -105c49 0 88 35 88 121v274h169v-512z" />
    <glyph glyph-name="v" unicode="v" horiz-adv-x="603" 
d="M212 0l-199 512h168l123 -350h2l121 350h164l-197 -512h-182z" />
    <glyph glyph-name="w" unicode="w" horiz-adv-x="855" 
d="M504 512l84 -344h2l90 344h162l-159 -512h-168l-86 332h-2l-87 -332h-168l-159 512h166l90 -344h3l82 344h150z" />
    <glyph glyph-name="x" unicode="x" horiz-adv-x="610" 
d="M191 0h-178l197 262l-184 250h189l93 -132l96 132h179l-184 -243l198 -269h-189l-107 149z" />
    <glyph glyph-name="y" unicode="y" horiz-adv-x="603" 
d="M208 5l-195 507h168l124 -358h2l119 358h164l-194 -515c-51 -134 -125 -183 -246 -183c-20 0 -47 1 -69 5v122c14 -2 20 -2 30 -2c53 0 76 9 97 66z" />
    <glyph glyph-name="z" unicode="z" horiz-adv-x="548" 
d="M496 399l-250 -278h260v-121h-463v109l250 283h-244v120h447v-113z" />
    <glyph glyph-name="period" unicode="." horiz-adv-x="345" 
d="M80 0v185h185v-185h-185z" />
    <glyph glyph-name="comma" unicode="," horiz-adv-x="345" 
d="M80 6v179h185v-189c0 -115 -78 -172 -197 -172v85c56 1 98 16 98 86v11h-86z" />
    <glyph glyph-name="hyphen" unicode="-" horiz-adv-x="457" 
d="M87 220v137h283v-137h-283z" />
    <glyph glyph-name="zero" unicode="0" horiz-adv-x="720" 
d="M39 357c0 214 123 369 321 369c197 0 321 -155 321 -369s-124 -369 -321 -369c-198 0 -321 155 -321 369zM215 357c0 -150 46 -239 145 -239s145 89 145 239s-46 239 -145 239s-145 -89 -145 -239z" />
    <glyph glyph-name="one" unicode="1" horiz-adv-x="441" 
d="M33 495v114c122 0 174 32 191 106h124v-715h-173v495h-142z" />
    <glyph glyph-name="two" unicode="2" horiz-adv-x="617" 
d="M579 503c0 -127 -90 -187 -216 -251c-90 -46 -135 -79 -139 -118h356v-134h-548v61c0 150 123 234 229 296c102 59 155 89 155 149c0 54 -33 89 -98 89c-68 0 -108 -52 -112 -117h-167c11 139 109 248 280 248c155 0 260 -91 260 -223z" />
    <glyph glyph-name="three" unicode="3" horiz-adv-x="629" 
d="M594 195c0 -111 -99 -207 -278 -207c-171 0 -280 94 -292 229h165c5 -63 59 -101 127 -101c75 0 118 36 118 93c0 62 -48 87 -117 87h-71v122h69c61 0 105 28 105 89c0 53 -37 90 -100 90c-68 0 -110 -43 -114 -102h-159c9 124 104 231 275 231c169 0 256 -98 256 -211
c0 -82 -52 -142 -128 -156c89 -15 144 -78 144 -164z" />
    <glyph glyph-name="four" unicode="4" horiz-adv-x="703" 
d="M545 714v-420h133v-131h-133v-163h-166v163h-352v132l332 419h186zM379 560l-206 -266h206v266z" />
    <glyph glyph-name="five" unicode="5" horiz-adv-x="638" 
d="M321 359c-52 0 -87 -25 -104 -52h-156l42 407h451v-134h-326l-15 -141c24 22 74 47 142 47c147 0 244 -103 244 -248c0 -139 -103 -250 -276 -250c-177 0 -280 95 -291 233h173c5 -61 48 -106 116 -106c74 0 113 55 113 121c0 68 -37 123 -113 123z" />
    <glyph glyph-name="six" unicode="6" horiz-adv-x="652" 
d="M344 597c-91 0 -147 -90 -147 -208c32 51 87 88 168 88c145 0 250 -103 250 -241c0 -141 -109 -248 -276 -248c-177 0 -300 135 -300 357c0 231 128 381 311 381c143 0 240 -87 257 -207h-157c-13 46 -44 78 -106 78zM338 110c72 0 119 52 119 125c0 72 -47 123 -119 123
c-73 0 -122 -51 -122 -123c0 -73 49 -125 122 -125z" />
    <glyph glyph-name="seven" unicode="7" horiz-adv-x="597" 
d="M397 580h-371v134h541v-136c-163 -199 -209 -357 -212 -578h-178c3 231 93 416 220 580z" />
    <glyph glyph-name="eight" unicode="8" horiz-adv-x="662" 
d="M331 726c150 0 263 -73 263 -205c0 -74 -46 -131 -104 -159c65 -14 136 -81 136 -164c0 -130 -118 -210 -295 -210s-294 80 -294 210c0 83 70 150 136 164c-58 28 -105 85 -105 159c0 132 113 205 263 205zM331 422c65 0 112 32 112 93s-47 93 -112 93s-112 -32 -112 -93
s47 -93 112 -93zM331 109c86 0 132 39 132 98s-46 98 -132 98s-131 -39 -131 -98s45 -98 131 -98z" />
    <glyph glyph-name="nine" unicode="9" horiz-adv-x="652" 
d="M308 117c91 0 147 90 147 208c-32 -51 -87 -88 -168 -88c-145 0 -250 103 -250 241c0 141 109 248 276 248c177 0 300 -135 300 -357c0 -231 -128 -381 -311 -381c-143 0 -240 87 -257 207h157c13 -46 44 -78 106 -78zM314 604c-72 0 -119 -52 -119 -125
c0 -72 47 -123 119 -123c73 0 122 51 122 123c0 73 -49 125 -122 125z" />
    </font>
</defs>
</svg>
